<svg width="25" height="24" viewBox="0 0 25 24" fill="none" xmlns="http://www.w3.org/2000/svg">
<path d="M10.0039 12C8.90391 12 8.00391 12.9 8.00391 14C8.00391 15.1 8.90391 16 10.0039 16C11.1039 16 12.0039 15.1 12.0039 14C12.0039 12.9 11.1039 12 10.0039 12ZM6.00391 8C4.90391 8 4.00391 8.9 4.00391 10C4.00391 11.1 4.90391 12 6.00391 12C7.10391 12 8.00391 11.1 8.00391 10C8.00391 8.9 7.10391 8 6.00391 8ZM6.00391 16C4.90391 16 4.00391 16.9 4.00391 18C4.00391 19.1 4.90391 20 6.00391 20C7.10391 20 8.00391 19.1 8.00391 18C8.00391 16.9 7.10391 16 6.00391 16ZM18.0039 8C19.1039 8 20.0039 7.1 20.0039 6C20.0039 4.9 19.1039 4 18.0039 4C16.9039 4 16.0039 4.9 16.0039 6C16.0039 7.1 16.9039 8 18.0039 8ZM14.0039 16C12.9039 16 12.0039 16.9 12.0039 18C12.0039 19.1 12.9039 20 14.0039 20C15.1039 20 16.0039 19.1 16.0039 18C16.0039 16.9 15.1039 16 14.0039 16ZM18.0039 12C16.9039 12 16.0039 12.9 16.0039 14C16.0039 15.1 16.9039 16 18.0039 16C19.1039 16 20.0039 15.1 20.0039 14C20.0039 12.9 19.1039 12 18.0039 12ZM14.0039 8C12.9039 8 12.0039 8.9 12.0039 10C12.0039 11.1 12.9039 12 14.0039 12C15.1039 12 16.0039 11.1 16.0039 10C16.0039 8.9 15.1039 8 14.0039 8ZM10.0039 4C8.90391 4 8.00391 4.9 8.00391 6C8.00391 7.1 8.90391 8 10.0039 8C11.1039 8 12.0039 7.1 12.0039 6C12.0039 4.9 11.1039 4 10.0039 4Z" fill="#6E84A3"/>
</svg>
