<svg width="240" height="240" viewBox="0 0 240 240" fill="none" xmlns="http://www.w3.org/2000/svg">
<rect width="240" height="240" rx="24" fill="#22C88A"/>
<path fill-rule="evenodd" clip-rule="evenodd" d="M24 0C10.7452 0 0 10.7452 0 24V216C0 229.255 10.7452 240 24 240H216C229.255 240 240 229.255 240 216V24C240 10.7452 229.255 0 216 0H24ZM120 32.4C156.281 32.4 192 98.804 192 144.37C192 189.935 166.392 211.159 120 211.159C73.6081 211.159 48 189.935 48 144.37C48 98.804 83.7192 32.4 120 32.4ZM162.001 142.405C162.001 113.113 139.713 74.4158 120.001 74.4158C100.288 74.4158 78.0006 113.113 78.0006 142.405C78.0006 171.697 90.1772 184.312 120.001 184.312C149.824 184.312 162.001 171.697 162.001 142.405ZM120.001 108.356C133.255 108.356 144.001 118.91 144.001 131.929C144.001 144.947 133.255 155.501 120.001 155.501C106.746 155.501 96.0005 144.947 96.0005 131.929C96.0005 118.91 106.746 108.356 120.001 108.356Z" fill="white"/>
</svg>
