<svg width="259" height="583" viewBox="0 0 259 583" fill="none" xmlns="http://www.w3.org/2000/svg">
<path d="M133.896 374.526C131.104 346.522 129.749 319.728 129.58 299.359V290.695C129.688 279.595 130.983 255.895 156.236 248.375C195.869 236.572 222.901 258.894 224.239 269.247C229.905 313.136 203.124 365.051 198.469 374.343C191.559 388.134 187.167 399.099 186.684 404.052C185.891 412.204 191.591 442.43 189.58 459.676C186.78 483.699 171.532 519.266 166.753 539.835C165.685 544.427 163.216 550.636 163.728 554.787C164.647 562.261 169.229 567.709 170.057 572.103C171.324 578.824 150.844 581.495 146.405 581.826C143.711 582.023 137.592 583.568 134.469 580.887V568.866C135.529 565.536 136.708 561.504 137.085 557.203C137.847 548.471 139.123 540.047 139.356 535.728C140.365 517.291 133.549 478.957 132.455 451.432C131.605 430.039 135.464 417.528 136.173 406.234C136.757 396.951 135.464 390.246 133.896 374.526Z" fill="#FBCDA3"/>
<path d="M249.891 189.11C250.324 193.466 243.907 200.152 240.239 202.967C238.559 204.254 228.906 213.154 223.011 205.015C198.97 171.822 188.971 135.651 183.512 130.812C178.13 126.042 177.162 120.864 176.014 117.904C173.62 107.415 176.928 101.888 185.476 100.226C194.578 98.4536 214.899 100.435 230.072 127.84C239.914 145.616 248.378 173.87 249.891 189.11Z" fill="#FBCDA3"/>
<path d="M253.116 270.396C252.667 265.6 241.447 266.708 239.099 266.428C235.636 266.019 234.539 267.187 232.722 272.035C227.816 277.203 226.444 279.514 225.475 294.918C225.215 299.059 225.139 301.504 226.211 304.378C226.335 304.71 228.958 305.335 229.711 301.34C230.963 294.754 231.892 293.226 232.784 291.823C233.188 291.188 234.165 291.416 234.247 292.164C234.612 295.528 236.408 299.907 232.882 307.579C230.08 313.674 228.266 317.926 230.646 320.123C233.026 322.318 248.54 311.2 251.936 294.192C253.227 287.746 253.064 279.484 253.116 270.396Z" fill="#FBCDA3"/>
<path d="M238.458 276.19C240.954 276.344 252.483 274.608 253.135 270.108C253.542 267.287 252.769 263.855 253.661 260.472C260.006 236.412 261.423 216.903 253.697 194.5C248.645 179.855 236.105 178.714 230.786 180.639C222.953 183.47 223.071 190.212 223.03 194.663C222.798 219.568 228.803 234.174 234.549 268.139C234.986 270.723 235.962 276.031 238.458 276.19Z" fill="#FBCDA3"/>
<path d="M125.265 374.526C128.057 346.522 129.41 319.728 129.581 299.359V290.856L129.579 290.695C129.473 279.595 128.178 255.895 102.925 248.375C63.2899 236.572 36.2579 258.894 34.9219 269.247C29.2553 313.136 56.0366 365.051 60.6913 374.343C67.6019 388.134 71.9939 399.099 72.4766 404.052C73.2686 412.204 67.5699 442.43 69.5806 459.676C72.3806 483.699 87.6286 519.266 92.4072 539.835C93.4752 544.427 95.9446 550.636 95.4326 554.787C94.5139 562.261 89.9312 567.709 89.1032 572.103C87.8366 578.824 108.317 581.495 112.755 581.826C115.449 582.023 121.569 583.568 124.691 580.887V568.866C123.631 565.536 122.453 561.504 122.075 557.203C121.314 548.471 120.038 540.047 119.805 535.728C118.795 517.291 125.611 478.957 126.706 451.432C127.555 430.039 123.697 417.528 122.987 406.234C122.403 396.951 123.697 390.246 125.265 374.526Z" fill="#FBCDA3"/>
<path d="M9.26684 189.11C8.83484 193.466 15.2522 200.152 18.9189 202.967C20.6002 204.254 30.2535 213.154 36.1482 205.015C60.1895 171.822 70.1882 135.651 75.6455 130.812C81.0295 126.042 81.9975 120.864 83.1455 117.904C85.5375 107.415 82.2308 101.888 73.6815 100.226C64.5815 98.4536 44.2589 100.435 29.0855 127.84C19.2442 145.616 10.7802 173.87 9.26684 189.11Z" fill="#FBCDA3"/>
<path d="M6.04297 270.396C6.4923 265.6 17.7123 266.708 20.0603 266.428C23.523 266.019 24.6203 267.187 26.4363 272.035C31.3416 277.203 32.715 279.514 33.6843 294.918C33.943 299.059 34.0203 301.504 32.9483 304.378C32.8243 304.71 30.2016 305.335 29.4469 301.34C28.1963 294.754 27.2669 293.226 26.3749 291.823C25.9709 291.188 24.9936 291.416 24.9123 292.164C24.547 295.528 22.7496 299.907 26.2776 307.579C29.0789 313.674 30.8923 317.926 28.5136 320.123C26.1336 322.318 10.619 311.2 7.22298 294.192C5.93232 287.746 6.09497 279.484 6.04297 270.396Z" fill="#FBCDA3"/>
<path d="M20.7021 276.19C18.2048 276.344 6.67678 274.608 6.02478 270.108C5.61678 267.287 6.39145 263.855 5.49945 260.472C-0.847215 236.412 -2.26455 216.903 5.46345 194.5C10.5154 179.855 23.0555 178.714 28.3741 180.639C36.2075 183.47 36.0874 190.212 36.1301 194.663C36.3621 219.568 30.3554 234.174 24.6114 268.139C24.1741 270.723 23.1968 276.031 20.7021 276.19Z" fill="#FBCDA3"/>
<path d="M167.918 41.2323C165.355 13.5656 154.024 0.00832297 129.58 0.0296527C105.136 0.00832297 93.8055 13.5656 91.2428 41.2323C89.5948 59.0323 87.5295 85.5803 86.2148 98.9563C90.3042 98.0096 99.3108 98.4096 108.071 98.8083C118.469 99.283 128.519 99.7576 129.58 97.9803C130.64 99.7576 140.691 99.283 151.09 98.8083C159.85 98.4096 168.856 98.0096 172.946 98.9563C171.631 85.5803 169.566 59.0323 167.918 41.2323Z" fill="#5D3F2D"/>
<path d="M220.247 245.014C215.476 231.144 213.087 226.159 213.087 225.202C213.087 222.034 213.087 222.034 213.087 211.676C213.087 194.343 203.99 187.384 208.247 181.156C224.594 157.232 206.403 136.76 200.247 125.232L195.052 100.05C189.35 96.4763 155.129 95.4909 151.263 80.2322C149.786 74.4189 149.767 56.1576 149.767 56.1576L129.581 56.2016L109.393 56.1576C109.393 56.1576 109.374 74.4189 107.898 80.2322C104.031 95.4909 69.8112 96.4763 64.1085 100.05L58.9139 125.232C52.7579 136.76 34.5659 157.232 50.9139 181.156C55.1699 187.384 46.0738 194.343 46.0738 211.676C46.0738 222.034 46.0738 222.034 46.0738 225.202C46.0738 226.159 43.6846 231.144 38.9139 245.014C34.1379 258.899 34.5659 269.247 34.8845 277.612C35.4312 291.958 46.3232 290.891 72.1912 289.824C86.4872 289.235 105.357 288.646 129.581 290.658C153.805 288.646 172.674 289.235 186.97 289.824C212.837 290.891 223.73 291.958 224.277 277.612C224.594 269.247 225.022 258.899 220.247 245.014Z" fill="#FBCDA3"/>
<path d="M220.247 245.014C215.476 231.144 213.087 226.159 213.087 225.202C213.087 222.034 213.087 222.034 213.087 211.676C213.087 194.343 203.99 187.384 208.247 181.156C224.594 157.232 206.403 136.76 200.247 125.232L195.052 100.05C192.167 98.2416 181.978 97.0923 172.115 94.4243C170.58 132.232 137.075 140.258 129.986 140.07H129.175C122.084 140.258 88.5803 132.232 87.0456 94.4243C77.183 97.0923 66.9937 98.2416 64.1083 100.05L58.9137 125.232C52.7577 136.76 34.5657 157.232 50.9137 181.156C55.1697 187.384 46.0736 194.343 46.0736 211.676C46.0736 222.034 46.0736 222.034 46.0736 225.202C46.0736 226.159 43.6843 231.144 38.9137 245.014C36.7697 251.247 35.6803 256.762 35.1523 261.71C44.951 264.446 60.691 266.354 77.3964 274.023C98.3617 283.648 117.58 299.142 129.58 299.142C141.58 299.142 160.799 283.648 181.764 274.023C198.47 266.354 214.21 264.446 224.008 261.71C223.48 256.762 222.39 251.247 220.247 245.014Z" fill="#3BAE5F"/>
<path d="M208.135 181.326C208.171 181.268 208.208 181.212 208.247 181.156C208.263 181.132 208.277 181.111 208.293 181.087C208.279 181.11 208.261 181.134 208.247 181.156C208.208 181.212 208.171 181.268 208.135 181.326Z" fill="#E5BB94"/>
<path d="M51.0258 181.326C50.9898 181.268 50.9525 181.212 50.9139 181.156C50.8979 181.134 50.8819 181.11 50.8672 181.087C50.8832 181.11 50.8979 181.132 50.9139 181.156C50.9525 181.212 50.9898 181.268 51.0258 181.326Z" fill="#E5BB94"/>
<path d="M208.305 181.07C208.317 181.052 208.329 181.035 208.339 181.018C208.327 181.036 208.317 181.052 208.305 181.07Z" fill="#E5BB94"/>
<path d="M50.8523 181.066C50.8403 181.048 50.831 181.035 50.8203 181.019C50.8296 181.034 50.8417 181.051 50.8523 181.066Z" fill="#E5BB94"/>
<path d="M208.354 180.998C208.364 180.982 208.376 180.964 208.387 180.948C208.376 180.966 208.366 180.982 208.354 180.998Z" fill="#E5BB94"/>
<path d="M50.8001 180.99C50.7908 180.976 50.7814 180.963 50.7734 180.95C50.7814 180.963 50.7908 180.976 50.8001 180.99Z" fill="#E5BB94"/>
<path d="M208.4 180.927C208.412 180.911 208.422 180.896 208.432 180.88C208.422 180.896 208.412 180.91 208.4 180.927Z" fill="#E5BB94"/>
<path d="M50.7519 180.919C50.7439 180.906 50.7359 180.894 50.7266 180.882C50.7359 180.894 50.7426 180.906 50.7519 180.919Z" fill="#E5BB94"/>
<path d="M208.449 180.856C208.46 180.84 208.469 180.827 208.48 180.811C208.469 180.826 208.46 180.84 208.449 180.856Z" fill="#E5BB94"/>
<path d="M50.7057 180.848C50.6977 180.838 50.6883 180.824 50.6816 180.812C50.6883 180.824 50.6977 180.836 50.7057 180.848Z" fill="#E5BB94"/>
<path d="M208.496 180.787C208.507 180.771 208.516 180.758 208.527 180.742C208.516 180.758 208.507 180.772 208.496 180.787Z" fill="#E5BB94"/>
<path d="M50.6588 180.779C50.6495 180.766 50.6428 180.756 50.6348 180.744C50.6428 180.755 50.6508 180.767 50.6588 180.779Z" fill="#E5BB94"/>
<path d="M208.543 180.718C208.554 180.702 208.563 180.688 208.574 180.672C208.563 180.687 208.554 180.702 208.543 180.718Z" fill="#E5BB94"/>
<path d="M50.6125 180.71C50.6058 180.699 50.5965 180.686 50.5898 180.675C50.5978 180.687 50.6045 180.699 50.6125 180.71Z" fill="#E5BB94"/>
<path d="M208.586 180.651C208.597 180.635 208.607 180.619 208.618 180.603C208.607 180.618 208.597 180.636 208.586 180.651Z" fill="#E5BB94"/>
<path d="M50.567 180.642C50.559 180.631 50.551 180.618 50.543 180.606C50.551 180.618 50.559 180.63 50.567 180.642Z" fill="#E5BB94"/>
<path d="M208.633 180.58C208.642 180.566 208.654 180.548 208.664 180.534C208.654 180.55 208.643 180.566 208.633 180.58Z" fill="#E5BB94"/>
<path d="M50.5221 180.574C50.5141 180.56 50.5074 180.55 50.498 180.538C50.506 180.55 50.5141 180.562 50.5221 180.574Z" fill="#E5BB94"/>
<path d="M208.678 180.512C208.688 180.496 208.699 180.48 208.71 180.464C208.699 180.479 208.688 180.496 208.678 180.512Z" fill="#E5BB94"/>
<path d="M50.4751 180.504C50.4671 180.494 50.4592 180.48 50.4512 180.468C50.4592 180.48 50.4671 180.492 50.4751 180.504Z" fill="#E5BB94"/>
<path d="M208.725 180.444C208.734 180.428 208.747 180.41 208.758 180.394C208.746 180.41 208.735 180.427 208.725 180.444Z" fill="#E5BB94"/>
<path d="M50.4303 180.436C50.4236 180.426 50.4142 180.411 50.4062 180.4C50.4156 180.412 50.4223 180.423 50.4303 180.436Z" fill="#E5BB94"/>
<path d="M208.768 180.378C208.778 180.359 208.79 180.342 208.801 180.324C208.79 180.34 208.778 180.36 208.768 180.378Z" fill="#E5BB94"/>
<path d="M50.3859 180.367C50.3779 180.355 50.3713 180.344 50.3633 180.331C50.3713 180.344 50.3779 180.354 50.3859 180.367Z" fill="#E5BB94"/>
<path d="M208.812 180.307C208.823 180.29 208.835 180.271 208.847 180.254C208.837 180.27 208.823 180.29 208.812 180.307Z" fill="#E5BB94"/>
<path d="M50.3404 180.299C50.3324 180.287 50.3244 180.274 50.3164 180.262C50.3244 180.275 50.3324 180.286 50.3404 180.299Z" fill="#E5BB94"/>
<path d="M208.857 180.24C208.868 180.223 208.881 180.2 208.893 180.183C208.88 180.203 208.869 180.22 208.857 180.24Z" fill="#E5BB94"/>
<path d="M50.2968 180.231C50.2875 180.218 50.2808 180.206 50.2715 180.192C50.2808 180.207 50.2875 180.218 50.2968 180.231Z" fill="#E5BB94"/>
<path d="M208.9 180.171C208.914 180.15 208.926 180.132 208.938 180.112C208.926 180.132 208.914 180.151 208.9 180.171Z" fill="#E5BB94"/>
<path d="M50.2538 180.163C50.2458 180.15 50.2365 180.136 50.2285 180.124C50.2365 180.138 50.2445 180.15 50.2538 180.163Z" fill="#E5BB94"/>
<path d="M208.945 180.103C208.957 180.084 208.971 180.063 208.983 180.044C208.971 180.064 208.957 180.083 208.945 180.103Z" fill="#E5BB94"/>
<path d="M50.2076 180.094C50.1996 180.082 50.1916 180.068 50.1836 180.055C50.1916 180.068 50.1996 180.08 50.2076 180.094Z" fill="#E5BB94"/>
<path d="M208.99 180.032C209.004 180.011 209.016 179.992 209.029 179.972C209.016 179.992 209.004 180.012 208.99 180.032Z" fill="#E5BB94"/>
<path d="M50.1646 180.026C50.1566 180.012 50.1486 179.999 50.1406 179.986C50.1486 179.999 50.1566 180.012 50.1646 180.026Z" fill="#E5BB94"/>
<path d="M209.033 179.964C209.047 179.944 209.062 179.92 209.074 179.9C209.061 179.922 209.048 179.944 209.033 179.964Z" fill="#E5BB94"/>
<path d="M50.1217 179.958C50.1124 179.943 50.1031 179.93 50.0938 179.915C50.1031 179.93 50.1124 179.943 50.1217 179.958Z" fill="#E5BB94"/>
<path d="M209.078 179.896C213.294 173.272 214.897 166.924 214.893 160.968C214.883 146.727 205.681 134.734 201.011 126.607C200.999 126.584 200.986 126.56 200.973 126.538C207.57 138.054 223.405 157.386 209.078 179.896Z" fill="#E5BB94"/>
<path d="M50.0768 179.89C50.0675 179.874 50.0582 179.86 50.0488 179.844C50.0582 179.859 50.0675 179.875 50.0768 179.89ZM50.0341 179.82C50.0235 179.806 50.0142 179.791 50.0048 179.775C50.0142 179.79 50.0248 179.807 50.0341 179.82ZM49.9902 179.752C49.9809 179.738 49.9702 179.719 49.9595 179.704C49.9702 179.72 49.9809 179.736 49.9902 179.752ZM49.9475 179.684C49.9368 179.667 49.9275 179.652 49.9168 179.635C49.9261 179.651 49.9381 179.668 49.9475 179.684ZM49.9035 179.615C49.8928 179.596 49.8822 179.58 49.8715 179.562C49.8822 179.579 49.8928 179.598 49.9035 179.615ZM49.8622 179.547C49.8489 179.527 49.8355 179.506 49.8235 179.484C49.8369 179.507 49.8475 179.526 49.8622 179.547ZM49.8195 179.479C49.7182 179.316 49.6195 179.155 49.5222 178.994C49.6195 179.156 49.7182 179.316 49.8195 179.479ZM49.5195 178.99C49.5075 178.968 49.4928 178.944 49.4795 178.924C49.4928 178.946 49.5062 178.968 49.5195 178.99ZM49.4795 178.922C49.4662 178.9 49.4528 178.878 49.4395 178.855C49.4528 178.878 49.4648 178.899 49.4795 178.922ZM49.4368 178.851C49.4248 178.831 49.4102 178.807 49.3982 178.786C49.4102 178.807 49.4235 178.83 49.4368 178.851ZM49.3955 178.782C49.3822 178.759 49.3702 178.74 49.3569 178.718C49.3689 178.738 49.3835 178.762 49.3955 178.782ZM49.3528 178.711C49.3408 178.69 49.3275 178.668 49.3155 178.647C49.3288 178.67 49.3395 178.69 49.3528 178.711ZM49.3128 178.643C49.3008 178.622 49.2875 178.599 49.2755 178.579C49.2875 178.6 49.3008 178.622 49.3128 178.643ZM49.2715 178.574C49.2595 178.551 49.2475 178.531 49.2341 178.508C49.2461 178.53 49.2595 178.552 49.2715 178.574ZM49.2315 178.506C49.2195 178.484 49.2062 178.46 49.1929 178.439C49.2075 178.462 49.2182 178.482 49.2315 178.506ZM49.1915 178.436C36.4382 156.551 51.7328 137.803 58.1862 126.538C58.1715 126.563 58.1568 126.59 58.1421 126.616C53.4715 134.743 44.2768 146.732 44.2662 160.968C44.2635 166.486 45.6382 172.339 49.1915 178.436Z" fill="#E5BB94"/>
<path d="M213.086 220.187C210.65 201.475 209.023 186.391 199.199 186.391C198.383 186.391 197.511 186.494 196.579 186.708C193.746 187.359 191.079 187.65 188.534 187.65C168.427 187.65 155.968 169.544 129.983 168.132H129.175C103.188 169.546 90.7323 187.65 70.6243 187.65C68.0803 187.65 65.411 187.359 62.579 186.708C61.6456 186.494 60.775 186.391 59.959 186.391C50.1377 186.391 48.5083 201.476 46.0723 220.187C46.0723 218.49 46.0723 215.987 46.0723 211.676C46.0723 197.627 52.0483 190.394 52.0456 184.84C52.0456 183.604 51.7496 182.452 51.0243 181.326C50.9883 181.268 50.951 181.212 50.9123 181.156C50.8963 181.132 50.8816 181.11 50.8656 181.087C50.8603 181.08 50.855 181.072 50.851 181.066C50.8403 181.051 50.8283 181.034 50.8189 181.019C50.8123 181.008 50.8056 180.999 50.799 180.99C50.7896 180.976 50.7803 180.963 50.7723 180.95C50.7656 180.94 50.7576 180.928 50.751 180.919C50.7416 180.906 50.735 180.894 50.7257 180.882C50.7177 180.87 50.711 180.86 50.7043 180.848C50.6963 180.836 50.6869 180.824 50.6803 180.812C50.6723 180.802 50.6643 180.79 50.6576 180.779C50.6496 180.767 50.6416 180.755 50.6336 180.744C50.6269 180.732 50.6189 180.722 50.6109 180.71C50.6029 180.699 50.5963 180.687 50.5883 180.675C50.5803 180.664 50.5736 180.652 50.5656 180.642C50.5576 180.63 50.5496 180.618 50.5416 180.606C50.5349 180.595 50.5283 180.584 50.5203 180.574C50.5123 180.562 50.5043 180.55 50.4963 180.538C50.4896 180.526 50.4816 180.515 50.4749 180.504C50.4669 180.492 50.459 180.48 50.451 180.468C50.4443 180.458 50.4376 180.448 50.4296 180.436C50.4216 180.423 50.4149 180.412 50.4056 180.4C50.3989 180.388 50.3923 180.379 50.3843 180.367C50.3763 180.354 50.3697 180.344 50.3617 180.331C50.355 180.322 50.347 180.31 50.3403 180.299C50.3323 180.286 50.3243 180.275 50.3163 180.262C50.3096 180.252 50.303 180.242 50.2963 180.231C50.287 180.218 50.2803 180.207 50.271 180.192C50.2643 180.182 50.2589 180.172 50.2523 180.163C50.2429 180.15 50.235 180.138 50.227 180.124C50.2203 180.114 50.2136 180.103 50.207 180.094C50.199 180.08 50.1909 180.068 50.1829 180.055C50.1749 180.044 50.171 180.036 50.163 180.026C50.155 180.012 50.1469 179.999 50.1389 179.986C50.1323 179.976 50.1256 179.967 50.1203 179.958C50.111 179.943 50.1017 179.93 50.0923 179.915C50.087 179.907 50.0816 179.898 50.0763 179.89C50.067 179.875 50.0576 179.859 50.0483 179.844C50.0443 179.838 50.0376 179.828 50.0336 179.82C50.0243 179.807 50.0136 179.79 50.0043 179.775C49.999 179.767 49.995 179.76 49.9897 179.752C49.9803 179.736 49.9697 179.72 49.959 179.704C49.955 179.698 49.9509 179.691 49.9469 179.684C49.9376 179.668 49.9256 179.651 49.9163 179.635C49.9123 179.63 49.9069 179.62 49.9029 179.615C49.8923 179.598 49.8816 179.579 49.871 179.562C49.8683 179.558 49.8643 179.551 49.8617 179.547C49.847 179.526 49.8363 179.507 49.823 179.484C49.8203 179.482 49.8203 179.482 49.8189 179.479C49.7176 179.316 49.619 179.156 49.5216 178.994C49.5203 178.992 49.5203 178.991 49.5189 178.99C49.5056 178.968 49.4923 178.946 49.479 178.924C49.479 178.923 49.479 178.923 49.479 178.922C49.4643 178.899 49.4523 178.878 49.4389 178.855C49.4376 178.854 49.4376 178.852 49.4363 178.851C49.4229 178.83 49.4097 178.807 49.3977 178.786C49.3963 178.784 49.395 178.783 49.395 178.782C49.383 178.762 49.3683 178.738 49.3563 178.718C49.3563 178.716 49.3536 178.712 49.3523 178.711C49.3389 178.69 49.3283 178.67 49.315 178.647C49.3136 178.644 49.3136 178.646 49.3123 178.643C49.3003 178.622 49.2869 178.6 49.2749 178.579C49.2736 178.578 49.2723 178.575 49.271 178.574C49.259 178.552 49.2456 178.53 49.2336 178.508C49.2323 178.507 49.2323 178.507 49.231 178.506C49.2177 178.482 49.207 178.462 49.1923 178.439C49.1923 178.438 49.1923 178.438 49.191 178.436C45.6376 172.339 44.263 166.486 44.2656 160.968C44.2763 146.732 53.4709 134.743 58.1416 126.616C52.2256 137.474 42.171 161.61 61.579 168.566C65.999 170.15 70.5149 170.786 75.0829 170.786C93.4989 170.784 112.692 160.435 129.175 160.136H129.983C146.466 160.435 165.656 170.786 184.075 170.786C188.642 170.784 193.16 170.148 197.579 168.566C216.992 161.608 206.926 137.46 201.01 126.607C205.679 134.734 214.882 146.727 214.891 160.968C214.895 166.924 213.292 173.272 209.076 179.896C209.075 179.898 209.075 179.899 209.074 179.9C209.062 179.92 209.046 179.944 209.032 179.964C209.031 179.967 209.03 179.97 209.028 179.972C209.015 179.992 209.003 180.011 208.99 180.032C208.987 180.036 208.984 180.04 208.982 180.044C208.97 180.063 208.956 180.084 208.944 180.103C208.943 180.106 208.94 180.11 208.938 180.112C208.926 180.132 208.914 180.15 208.9 180.171C208.898 180.175 208.895 180.179 208.892 180.183C208.88 180.2 208.867 180.223 208.856 180.24C208.854 180.244 208.85 180.25 208.847 180.254C208.835 180.271 208.823 180.29 208.812 180.307C208.807 180.314 208.806 180.318 208.8 180.324C208.79 180.342 208.778 180.359 208.767 180.378C208.763 180.383 208.759 180.387 208.756 180.394C208.746 180.41 208.732 180.428 208.723 180.444C208.718 180.451 208.714 180.456 208.71 180.464C208.699 180.48 208.688 180.496 208.678 180.512C208.674 180.519 208.668 180.527 208.663 180.534C208.654 180.548 208.642 180.566 208.632 180.58C208.627 180.588 208.623 180.594 208.618 180.603C208.607 180.619 208.596 180.635 208.586 180.651C208.58 180.658 208.576 180.664 208.572 180.672C208.562 180.688 208.552 180.702 208.542 180.718C208.536 180.726 208.531 180.734 208.526 180.742C208.515 180.758 208.506 180.771 208.495 180.787C208.49 180.795 208.484 180.803 208.479 180.811C208.468 180.827 208.459 180.84 208.448 180.856C208.444 180.863 208.438 180.872 208.432 180.88C208.422 180.896 208.412 180.911 208.4 180.927C208.396 180.934 208.391 180.942 208.386 180.948C208.375 180.964 208.363 180.982 208.352 180.998C208.348 181.004 208.343 181.012 208.339 181.018C208.328 181.035 208.316 181.052 208.304 181.07C208.3 181.075 208.296 181.082 208.292 181.087C208.276 181.111 208.262 181.132 208.246 181.156C208.207 181.212 208.17 181.268 208.134 181.326C207.408 182.452 207.112 183.604 207.111 184.84C207.11 190.394 213.086 197.627 213.086 211.676C213.086 215.975 213.086 218.49 213.086 220.187Z" fill="#369E55"/>
<path d="M151.6 81.3229C151.47 80.9682 151.357 80.6042 151.264 80.2322C151.357 80.6015 151.484 80.9562 151.612 81.3082C151.608 81.3135 151.604 81.3175 151.6 81.3229ZM107.562 81.3229C107.558 81.3175 107.553 81.3135 107.549 81.3082C107.678 80.9562 107.805 80.6015 107.898 80.2322C107.804 80.6042 107.692 80.9682 107.562 81.3229ZM151.264 80.2322C151.262 80.2269 151.261 80.2202 151.26 80.2149C151.261 80.2202 151.262 80.2255 151.264 80.2322ZM107.898 80.2322C107.9 80.2255 107.901 80.2202 107.902 80.2149C107.901 80.2202 107.9 80.2269 107.898 80.2322ZM151.257 80.2069C151.255 80.2029 151.255 80.2002 151.254 80.1962C151.255 80.2002 151.255 80.2029 151.257 80.2069ZM107.905 80.2069C107.905 80.2029 107.906 80.2002 107.906 80.1962C107.906 80.2002 107.905 80.2029 107.905 80.2069ZM107.909 80.1895C107.91 80.1855 107.91 80.1815 107.912 80.1775C107.91 80.1815 107.91 80.1855 107.909 80.1895ZM151.251 80.1842C151.251 80.1829 151.25 80.1815 151.25 80.1802C151.25 80.1815 151.251 80.1829 151.251 80.1842ZM107.913 80.1735C107.914 80.1682 107.914 80.1642 107.915 80.1602C107.914 80.1642 107.914 80.1682 107.913 80.1735ZM107.917 80.1535C107.918 80.1495 107.919 80.1455 107.921 80.1415C107.919 80.1455 107.918 80.1495 107.917 80.1535ZM151.242 80.1482C151.242 80.1469 151.242 80.1455 151.241 80.1442C151.242 80.1455 151.242 80.1469 151.242 80.1482ZM107.921 80.1375C107.922 80.1322 107.924 80.1269 107.925 80.1229C107.924 80.1269 107.922 80.1322 107.921 80.1375ZM151.238 80.1295C151.237 80.1282 151.237 80.1282 151.237 80.1282C151.237 80.1282 151.237 80.1282 151.238 80.1295ZM107.926 80.1202C107.929 80.1082 107.932 80.0962 107.934 80.0855C107.932 80.0962 107.929 80.1082 107.926 80.1202ZM107.935 80.0815C108.223 78.8829 108.456 77.2015 108.642 75.2789C108.456 77.2015 108.223 78.8829 107.935 80.0815ZM150.67 76.6882C150.669 76.6855 150.669 76.6842 150.669 76.6829C150.669 76.6842 150.669 76.6869 150.67 76.6882ZM150.666 76.6629C150.666 76.6602 150.666 76.6575 150.666 76.6535C150.666 76.6562 150.666 76.6602 150.666 76.6629ZM150.664 76.6362C150.664 76.6335 150.664 76.6309 150.662 76.6282C150.664 76.6309 150.664 76.6335 150.664 76.6362ZM150.661 76.6082C150.661 76.6069 150.66 76.6055 150.66 76.6042C150.66 76.6069 150.66 76.6069 150.661 76.6082ZM150.654 76.5549C150.606 76.1442 150.562 75.7175 150.52 75.2789C150.562 75.7175 150.606 76.1442 150.654 76.5549Z" fill="#553928"/>
<path d="M129.579 93.8829C120.21 93.2749 112.646 86.9789 107.561 81.3229C107.69 80.9683 107.802 80.6043 107.897 80.2323C107.898 80.2269 107.899 80.2203 107.901 80.2149C107.902 80.2123 107.902 80.2083 107.903 80.2069C107.903 80.2029 107.905 80.2003 107.905 80.1963C107.906 80.1949 107.906 80.1909 107.907 80.1896C107.909 80.1856 107.909 80.1816 107.91 80.1776C107.91 80.1763 107.91 80.1749 107.911 80.1736C107.913 80.1683 107.913 80.1643 107.914 80.1603C107.915 80.1576 107.915 80.1563 107.915 80.1536C107.917 80.1496 107.918 80.1456 107.919 80.1416C107.919 80.1403 107.919 80.1389 107.919 80.1376C107.921 80.1323 107.922 80.1269 107.923 80.1229C107.923 80.1216 107.925 80.1203 107.925 80.1203C107.927 80.1083 107.93 80.0963 107.933 80.0856C107.933 80.0843 107.933 80.0829 107.934 80.0816C108.222 78.8829 108.454 77.2016 108.641 75.2789C110.343 77.1016 112.007 78.4963 113.215 79.3776C117.398 82.4256 123.943 84.6083 128.387 84.6083C128.805 84.6083 129.203 84.5883 129.579 84.5496C129.955 84.5883 130.354 84.6083 130.77 84.6083C135.215 84.6083 141.759 82.4256 145.942 79.3776C147.151 78.4963 148.814 77.1016 150.518 75.2789C150.561 75.7176 150.605 76.1443 150.653 76.5549C150.654 76.5723 150.657 76.5883 150.658 76.6043C150.658 76.6056 150.659 76.6069 150.659 76.6083C150.659 76.6149 150.661 76.6216 150.661 76.6283C150.662 76.6309 150.662 76.6336 150.662 76.6363C150.662 76.6416 150.663 76.6469 150.665 76.6536C150.665 76.6576 150.665 76.6603 150.665 76.6629C150.666 76.6696 150.666 76.6763 150.667 76.6829C150.667 76.6843 150.667 76.6856 150.669 76.6883C150.826 78.0269 151.01 79.1963 151.227 80.0936C151.23 80.1056 151.233 80.1163 151.235 80.1283C151.235 80.1283 151.235 80.1283 151.237 80.1296C151.238 80.1349 151.239 80.1403 151.239 80.1443C151.241 80.1456 151.241 80.1469 151.241 80.1483C151.242 80.1536 151.243 80.1589 151.245 80.1629C151.246 80.1683 151.247 80.1749 151.249 80.1803C151.249 80.1816 151.25 80.1829 151.25 80.1843C151.251 80.1883 151.251 80.1923 151.253 80.1963C151.254 80.2003 151.254 80.2029 151.255 80.2069C151.257 80.2083 151.257 80.2109 151.258 80.2149C151.259 80.2203 151.261 80.2269 151.262 80.2323C151.355 80.6043 151.469 80.9683 151.598 81.3229C146.513 86.9789 138.947 93.2749 129.579 93.8829Z" fill="#E5BB94"/>
<path d="M156.114 41.2322C156.114 28.0216 147.626 15.7749 129.579 15.5562C111.531 15.7749 103.045 28.0216 103.045 41.2322C103.045 51.1136 99.854 54.9376 101.721 63.0509C103.562 71.0483 110.001 77.0349 113.215 79.3776C117.79 82.7109 125.191 85.0096 129.579 84.5496C133.967 85.0096 141.367 82.7109 145.942 79.3776C149.158 77.0349 155.597 71.0483 157.437 63.0509C159.305 54.9376 156.114 51.1136 156.114 41.2322Z" fill="#FBCDA3"/>
<path d="M94.7656 50.519C95.1443 43.0896 95.747 36.035 96.891 29.6737C98.4123 21.2177 101.002 14.939 107.375 9.23233C112.919 4.267 120.836 -0.237005 130.542 0.029662H130.562C140.28 -0.241004 147.316 2.03232 152.447 6.18832C159.39 11.1857 162.911 19.1883 164.232 29.6737C164.636 32.875 165.012 36.247 165.354 39.7297C162.027 40.8323 159.588 41.6056 156.223 42.6016C155.628 34.9936 141.942 27.755 130.542 23.8003V23.8017C123.034 21.1963 116.951 21.0563 115.386 21.0976C107.43 21.3043 103.256 36.167 103.256 45.2523C103.256 47.2603 102.728 48.3976 102.926 49.9723C99.0603 50.263 98.6403 50.3683 94.7656 50.519Z" fill="#5D3F2D"/>
<path d="M147.976 45.919C147.976 45.919 145.383 48.423 142.203 48.6843C137.222 49.095 136.076 46.9777 136.076 46.9777C136.076 46.9777 136.402 43.251 141.082 43.2243C145.528 43.199 147.976 45.919 147.976 45.919Z" fill="white"/>
<path d="M144.735 45.619C144.735 47.2563 143.371 48.5856 141.689 48.5856C140.007 48.5856 138.641 47.2563 138.641 45.619C138.641 43.9803 140.007 42.651 141.689 42.651C143.371 42.651 144.735 43.9803 144.735 45.619Z" fill="#3871C1"/>
<path d="M141.687 47.535C142.777 47.535 143.658 46.6763 143.658 45.619C143.658 44.5617 142.777 43.7016 141.687 43.7016C140.601 43.7016 139.721 44.5617 139.721 45.619C139.721 46.6763 140.601 47.535 141.687 47.535Z" fill="#231F20"/>
<path d="M143.747 45.051C143.747 45.3483 143.493 45.5897 143.177 45.5897C142.863 45.5897 142.607 45.3483 142.607 45.051V44.855C142.607 44.5577 142.863 44.3163 143.177 44.3163C143.493 44.3163 143.747 44.5577 143.747 44.855V45.051Z" fill="white"/>
<path d="M136.076 46.9416C136.354 45.5896 136.838 44.6003 137.986 43.7469C140.018 42.2309 142.323 42.3523 144.555 43.3416C145.908 43.9389 147.366 45.0402 148.92 44.9682C149.236 44.9522 150.164 44.6696 150.243 44.2963C149.424 47.5349 145.541 45.0843 143.935 44.3363C140.824 42.8883 137.418 43.6349 136.076 46.9416Z" fill="#6F4323"/>
<path d="M134.885 40.7443C134.885 39.4589 140.071 37.6949 142.031 37.3763C144.785 37.1523 147.403 37.5083 149.767 39.0269C147.285 38.6829 145.014 38.0456 142.247 38.4976C140.279 38.9709 134.885 42.5043 134.885 40.7443Z" fill="#91816F"/>
<path d="M155.69 46.4229C155.712 46.1189 155.834 45.8429 156.04 45.6189C156.77 44.8283 158.567 43.1976 159.436 45.2362C161.479 50.0282 155.3 55.7443 155.066 56.7296C154.862 57.5989 155.531 48.5416 155.69 46.4229Z" fill="#FBCDA3"/>
<path d="M111.184 45.919C111.184 45.919 113.777 48.423 116.957 48.6843C121.937 49.095 123.084 46.9777 123.084 46.9777C123.084 46.9777 122.758 43.251 118.078 43.2243C113.632 43.199 111.184 45.919 111.184 45.919Z" fill="white"/>
<path d="M114.426 45.619C114.426 47.2563 115.79 48.5856 117.472 48.5856C119.154 48.5856 120.52 47.2563 120.52 45.619C120.52 43.9803 119.154 42.651 117.472 42.651C115.79 42.651 114.426 43.9803 114.426 45.619Z" fill="#3871C1"/>
<path d="M117.473 47.535C116.383 47.535 115.502 46.6763 115.502 45.619C115.502 44.5617 116.383 43.7016 117.473 43.7016C118.559 43.7016 119.439 44.5617 119.439 45.619C119.439 46.6763 118.559 47.535 117.473 47.535Z" fill="#231F20"/>
<path d="M115.412 45.051C115.412 45.3483 115.667 45.5897 115.983 45.5897C116.296 45.5897 116.551 45.3483 116.551 45.051V44.855C116.551 44.5577 116.296 44.3163 115.983 44.3163C115.667 44.3163 115.412 44.5577 115.412 44.855V45.051Z" fill="white"/>
<path d="M123.085 46.9416C122.807 45.5896 122.322 44.6003 121.175 43.7469C119.143 42.2309 116.838 42.3523 114.606 43.3416C113.253 43.9389 111.795 45.0402 110.241 44.9682C109.925 44.9522 108.995 44.6696 108.918 44.2963C109.737 47.5349 113.619 45.0843 115.226 44.3363C118.337 42.8883 121.743 43.6349 123.085 46.9416Z" fill="#6F4323"/>
<path d="M124.274 40.7443C124.274 39.4589 119.089 37.6949 117.129 37.3763C114.375 37.1523 111.757 37.5083 109.393 39.0269C111.875 38.6829 114.146 38.0456 116.913 38.4976C118.879 38.9709 124.274 42.5043 124.274 40.7443Z" fill="#91816F"/>
<path d="M103.471 46.4229C103.448 46.1189 103.327 45.8429 103.12 45.6189C102.391 44.8283 100.593 43.1976 99.724 45.2362C97.6813 50.0282 103.86 55.7443 104.095 56.7296C104.299 57.5989 103.629 48.5416 103.471 46.4229Z" fill="#FBCDA3"/>
<path d="M129.58 60.8483C127.507 60.6856 125.605 60.2856 124.273 59.0323C125.144 59.4749 127.36 59.6989 129.58 59.7003C131.799 59.6989 134.016 59.4749 134.885 59.0323C133.555 60.2856 131.653 60.6856 129.58 60.8483Z" fill="#D0A986"/>
<path d="M131.049 65.2856C130.365 65.1936 130.021 65.7482 129.581 65.8829C129.141 65.7482 128.797 65.1936 128.113 65.2856C124.535 65.7629 121.91 68.6322 121.91 68.6322C121.91 68.6322 125.334 72.0682 129.581 72.1202C133.828 72.0682 137.251 68.6322 137.251 68.6322C137.251 68.6322 134.626 65.7629 131.049 65.2856Z" fill="#EF7889"/>
<path d="M131.051 65.2855C130.367 65.1935 130.021 65.7469 129.581 65.8855C129.141 65.7469 128.794 65.1935 128.109 65.2855C124.527 65.7575 121.914 68.6309 121.914 68.6309H121.965C122.959 68.5282 126.051 67.8015 127.967 68.4522C128.466 68.6255 129.19 68.6855 129.581 68.6989C129.97 68.6855 130.695 68.6255 131.194 68.4522C133.109 67.8015 136.201 68.5282 137.197 68.6309H137.247C137.247 68.6309 134.633 65.7575 131.051 65.2855Z" fill="#F35E77"/>
</svg>
