<svg width="214" height="581" viewBox="0 0 214 581" fill="none" xmlns="http://www.w3.org/2000/svg">
<path d="M168.46 224.256C166.657 212.122 162.234 191.952 166.54 172.359C169.526 158.774 165.201 148.732 165.201 146.762C165.201 112.275 173.33 99.5963 173.33 99.5963C169.045 98.7429 164.893 96.399 153.102 92.5843C144.02 89.6456 134.357 88.3243 130.512 82.6256C126.636 76.8816 126.568 75.3403 126.216 66.8896C125.921 59.7683 111.77 57.6963 107.669 57.303V57.2083L106.888 57.2056V57.2043H106.829H106.638H106.448H106.39V57.2056L105.608 57.2083V57.303C101.506 57.6963 87.3571 59.7683 87.0624 66.8896C86.7091 75.3403 86.6424 76.8816 82.7651 82.6256C78.9197 88.3243 69.2571 89.6456 60.1744 92.5843C48.3837 96.399 44.2317 98.7429 39.9464 99.5963C39.9464 99.5963 48.0771 112.275 48.0771 146.762C48.0771 148.732 43.7517 158.774 46.7371 172.359C51.0424 191.952 46.6197 212.122 44.8171 224.256C43.4637 233.367 39.3398 256.038 39.3438 277.879C39.3451 279.791 44.9477 278.12 52.1664 276.448C60.0091 274.634 69.7597 272.819 76.3131 275.595C85.3011 279.402 93.5171 301.552 105.608 303.03V303.031L105.644 303.034C105.89 303.064 106.141 303.067 106.39 303.079V303.11L106.638 303.094L106.888 303.11V303.079C107.136 303.067 107.386 303.064 107.633 303.034L107.669 303.031V303.03C119.76 301.552 127.977 279.402 136.964 275.595C143.517 272.819 153.268 274.634 161.109 276.448C168.329 278.12 173.932 279.791 173.932 277.879C173.937 256.038 169.814 233.367 168.46 224.256Z" fill="#FBCDA3"/>
<path d="M174.178 277.879C173.391 268.868 167.282 247.515 137.027 251.918C117.515 254.758 107.983 291.452 107.917 303.028C107.791 324.283 112.095 351.619 115.655 373.712C116.443 378.612 115.562 383.486 115.371 388.048C114.727 403.615 118.347 410.162 117.741 419.318C117.002 430.454 112.987 440.232 113.871 461.328C115.01 488.472 125.178 519.771 124.127 537.954C123.885 542.212 123.321 546.783 122.527 555.394C121.753 563.759 118.497 571.653 118.581 574.642C118.813 583.219 128.425 579.939 132.225 579.675C136.843 579.349 156.473 577.295 155.154 570.663C154.293 566.334 149.766 562.16 148.81 554.791C148.278 550.696 144.177 541.92 144.199 539.694C144.605 499.563 155.777 479.471 156.122 455.622C156.354 439.835 154.065 428.986 152.993 418.935C151.914 408.882 159.845 385.468 163.083 372.86C170.626 343.492 176.385 303.11 174.178 277.879Z" fill="#FBCDA3"/>
<path d="M198.739 230.792C196.565 231.087 192.773 229.092 185.214 216.062C177.169 202.194 163.358 163.98 159.697 142.026C158.583 135.354 154.131 125.324 153.569 123.17C149.698 108.358 154.886 96.2295 154.919 93.0989C166.67 94.4349 189.261 101.903 194.122 131.694C195.621 140.884 195.907 146.054 200.697 158.152C205.91 171.315 207.594 196.623 208.458 211.211C208.678 214.924 209.589 229.32 198.739 230.792Z" fill="#FBCDA3"/>
<path d="M208.627 286.582C208.809 281.57 204.541 281.134 201.612 280.311C197.293 279.099 195.72 280.044 192.664 284.59C190.597 289.846 185.649 288.755 182.017 304.302C181.043 308.475 179.971 312.51 179.372 316.204C179.308 316.562 182.701 317.806 184.28 313.89C188.103 304.442 189.364 305.931 191.601 302.714C191.092 306.98 192.495 311.186 187.319 321.004C184.047 327.207 179.861 330.536 182.531 333.33C185.2 336.119 198.667 328.555 206.08 310.859C209.147 303.539 211.149 294.731 208.627 286.582Z" fill="#FBCDA3"/>
<path d="M192.442 285.636V285.631C193.374 291.575 196.542 291.746 199.141 291.89C201.74 292.028 208.888 296.348 209.533 291.907C209.934 289.123 209.588 285.826 210.008 282.402C214.913 242.52 215.286 221.719 204.137 205.395C201.708 201.839 195.978 195.771 190.458 197.691C182.329 200.515 181.729 220.507 181.717 224.896C181.657 249.458 190.217 263.94 192.348 279.876C192.69 282.442 192.602 284.239 192.442 285.636Z" fill="#FBCDA3"/>
<path d="M39.096 277.879C39.8826 268.868 45.992 247.515 76.2466 251.918C95.76 254.758 105.289 291.452 105.357 303.028C105.483 324.283 101.179 351.619 97.6186 373.712C96.8306 378.612 97.712 383.486 97.9026 388.048C98.5466 403.615 94.9266 410.162 95.5333 419.318C96.272 430.454 100.288 440.232 99.4026 461.328C98.264 488.472 88.096 519.771 89.1466 537.954C89.3893 542.212 89.9533 546.783 90.7466 555.394C91.5213 563.759 94.7786 571.653 94.6933 574.642C94.4613 583.219 84.8493 579.939 81.0493 579.675C76.4306 579.349 56.8013 577.295 58.12 570.663C58.9813 566.334 63.508 562.16 64.464 554.791C64.996 550.696 69.0973 541.92 69.0746 539.694C68.6693 499.563 57.4973 479.471 57.1506 455.622C56.92 439.835 59.2093 428.986 60.2813 418.935C61.36 408.882 53.4293 385.468 50.192 372.86C42.648 343.492 36.888 303.11 39.096 277.879Z" fill="#FBCDA3"/>
<path d="M14.535 230.792C16.7097 231.087 20.5017 229.092 28.0603 216.062C36.1057 202.194 49.9163 163.98 53.579 142.026C54.691 135.354 59.143 125.324 59.7057 123.17C63.5777 108.358 58.3883 96.2295 58.355 93.0989C46.603 94.4349 24.0137 101.903 19.1523 131.694C17.6523 140.884 17.367 146.054 12.5777 158.152C7.36568 171.315 5.68165 196.623 4.81632 211.211C4.59632 214.924 3.687 229.32 14.535 230.792Z" fill="#FBCDA3"/>
<path d="M4.64902 286.582C4.46636 281.57 8.73304 281.134 11.6624 280.311C15.9824 279.099 17.5544 280.044 20.6091 284.59C22.677 289.846 27.6264 288.755 31.257 304.302C32.2317 308.475 33.3037 312.51 33.901 316.204C33.9664 316.562 30.573 317.806 28.9944 313.89C25.1717 304.442 23.9104 305.931 21.673 302.714C22.1824 306.98 20.7797 311.186 25.9557 321.004C29.2277 327.207 33.4144 330.536 30.7437 333.33C28.0744 336.119 14.6064 328.555 7.19437 310.859C4.12904 303.539 2.12636 294.731 4.64902 286.582Z" fill="#FBCDA3"/>
<path d="M20.83 285.636V285.631C19.898 291.575 16.7314 291.746 14.1327 291.89C11.5354 292.028 4.38603 296.348 3.7407 291.907C3.33803 289.123 3.68735 285.826 3.26602 282.402C-1.63798 242.52 -2.01397 221.719 9.13803 205.395C11.566 201.839 17.2953 195.771 22.8153 197.691C30.9433 200.515 31.5447 220.507 31.5567 224.896C31.6167 249.458 23.0567 263.94 20.9273 279.876C20.5847 282.442 20.6714 284.239 20.83 285.636Z" fill="#FBCDA3"/>
<path d="M168.46 224.256C166.657 212.122 162.235 191.952 166.54 172.359C169.527 158.774 166.401 150.766 165.201 146.762C165.03 146.191 164.862 145.644 164.693 145.086C159.36 127.44 155.18 115.378 156.71 93.0989C156.71 93.0989 143.805 89.7509 142.521 89.3869L142.493 89.3789H142.492L142.468 89.5176C140.096 103.93 126.972 124.615 112.717 129.18C110.762 129.73 108.735 130.044 106.639 130.088C104.541 130.044 102.513 129.73 100.558 129.18C86.3052 124.615 73.1798 103.93 70.8092 89.5176L70.7838 89.3789L70.7558 89.3869C69.4705 89.7509 56.5665 93.0989 56.5665 93.0989C58.0958 115.378 53.9172 127.44 48.5838 145.086C48.4145 145.644 48.2465 146.191 48.0758 146.762C46.8745 150.766 43.7505 158.774 46.7358 172.359C51.0412 191.952 46.6185 212.122 44.8172 224.256C43.8372 230.843 41.4132 244.515 40.1465 259.838C59.8638 270.852 101.41 271.522 106.389 271.562V271.564H106.39C106.39 271.564 106.491 271.563 106.639 271.563C106.785 271.563 106.886 271.564 106.886 271.564H106.888V271.562C111.865 271.522 153.412 270.852 173.13 259.838C171.864 244.515 169.438 230.843 168.46 224.256Z" fill="#DBEFF5"/>
<path d="M174.179 277.879C174.124 277.236 174.038 276.524 173.92 275.77C173.828 268.01 173.247 260.207 172.483 252.998C162.262 255.596 139.15 263.567 106.638 263.608C74.1272 263.567 51.0125 255.596 40.7938 252.998C40.0285 260.207 39.4458 268.01 39.3565 275.77C39.2391 276.524 39.1511 277.236 39.0965 277.879C38.2885 287.118 38.5512 298.395 39.5765 310.414C44.5298 311.74 52.3978 313.338 62.8765 313.83C85.0672 314.874 100.358 311.89 105.223 310.758C105.322 308.114 105.372 305.527 105.358 303.028L105.356 302.986L105.607 303.028V303.031L105.643 303.034C105.89 303.064 106.14 303.067 106.39 303.079V303.11L106.638 303.094L106.887 303.11V303.079C107.135 303.067 107.386 303.064 107.632 303.034L107.668 303.031V303.028L107.919 302.986L107.918 303.028C107.902 305.527 107.954 308.114 108.052 310.758C112.918 311.89 128.208 314.874 150.399 313.83C160.878 313.338 168.747 311.74 173.7 310.414C174.724 298.395 174.987 287.118 174.179 277.879Z" fill="#3C44A2"/>
<path d="M126.59 73.1509C126.408 71.5162 126.326 69.5429 126.215 66.8895C126.176 65.9562 125.895 65.1122 125.435 64.3442C124.043 64.2442 106.776 70.3415 106.674 70.3535L106.638 70.3482L106.602 70.3535C106.499 70.3415 89.2322 64.2442 87.8402 64.3442C87.3802 65.1122 87.0976 65.9562 87.0616 66.8895C86.9496 69.5429 86.8669 71.5149 86.6855 73.1509C90.6202 79.2949 99.8109 86.4655 106.607 86.4655H106.668C113.463 86.4655 122.655 79.2962 126.59 73.1509Z" fill="#EAC097"/>
<path d="M138.974 23.5082C138.586 21.3682 139.201 19.4655 138.467 17.3802C137.913 15.8029 136.219 14.5602 135.342 13.2109C134.246 11.5229 133.893 10.1495 132.661 8.52284C131.301 6.73084 129.542 6.43484 127.695 5.38951C125.125 3.9335 124.067 2.42686 121.202 1.80819C116.29 0.745524 111.81 -0.113171 106.638 0.0121622C101.466 -0.113171 96.9861 0.745524 92.0741 1.80819C89.2088 2.42686 88.1514 3.9335 85.5821 5.38951C83.7341 6.43484 81.9754 6.73084 80.6154 8.52284C79.3834 10.1495 79.0301 11.5229 77.9341 13.2109C77.0568 14.5602 75.3635 15.8029 74.8088 17.3802C74.0755 19.4655 74.6901 21.3682 74.3021 23.5082C73.9328 25.5229 72.9355 27.5242 73.1435 29.6215C73.3501 31.6909 74.5354 33.4682 74.1834 35.7162C73.8354 37.9442 74.4248 40.2882 75.5261 42.3962C77.0074 45.2295 75.8008 46.5095 76.8208 49.4988C78.0128 53.0055 79.6848 56.4282 82.1101 59.3749C84.8315 62.6842 88.5688 65.4002 93.0008 66.4575L106.638 67.0789L120.275 66.4575C124.709 65.4002 128.445 62.6842 131.166 59.3749C133.591 56.4282 135.263 53.0055 136.455 49.4988C137.475 46.5095 136.27 45.2295 137.75 42.3962C138.851 40.2882 139.441 37.9442 139.093 35.7162C138.741 33.4682 139.926 31.6909 140.133 29.6215C140.341 27.5242 139.343 25.5229 138.974 23.5082Z" fill="#795C48"/>
<path d="M131.822 42.4909C131.822 42.4909 133.853 38.9895 134.574 41.8668C135.906 47.1828 131.171 53.0788 130.963 54.1362C130.761 55.1948 131.822 42.4909 131.822 42.4909Z" fill="#FBCDA3"/>
<path d="M81.4551 42.4909C81.4551 42.4909 79.4244 38.9895 78.7031 41.8668C77.3698 47.1828 82.1044 53.0788 82.3124 54.1362C82.5164 55.1948 81.4551 42.4909 81.4551 42.4909Z" fill="#FBCDA3"/>
<path d="M131.384 39.9842C130.469 35.0549 131.063 30.0482 130.148 26.8588C129.195 23.5442 128.503 22.2069 126.921 21.4282C125.095 20.5295 122.279 20.9562 117.816 21.3815C114.871 21.6642 111.208 21.9455 106.639 21.8469C102.069 21.9455 98.4066 21.6642 95.4613 21.3815C90.9986 20.9562 88.1826 20.5295 86.3559 21.4282C84.7746 22.2069 84.0826 23.5442 83.1293 26.8588C82.2146 30.0482 82.8079 35.0549 81.8946 39.9842C79.9573 50.4309 82.0173 56.6109 84.3213 64.4455C86.0213 70.2402 93.3306 80.3922 106.639 82.1989C119.947 80.3922 127.256 70.2402 128.956 64.4455C131.259 56.6109 133.319 50.4309 131.384 39.9842Z" fill="#FBCDA3"/>
<path d="M106.647 56.5842H106.638H106.629C104.605 56.4362 102.745 56.0709 101.447 54.8909C102.289 55.3042 104.431 55.5122 106.573 55.5122L106.638 55.5109L106.703 55.5122C108.843 55.5122 110.987 55.3042 111.829 54.8909C110.531 56.0709 108.671 56.4362 106.647 56.5842Z" fill="#E8BD96"/>
<path d="M113.448 66.4602C111.448 66.0482 110.745 65.3709 108.08 65.0229C107.422 64.9322 107.074 65.2709 106.638 65.3415C106.202 65.2709 105.854 64.9322 105.197 65.0229C102.532 65.3709 101.829 66.0482 99.8291 66.4602C99.5971 66.5069 99.1784 66.4722 99.0784 66.5909C98.8837 66.8216 100.524 67.7882 101.333 68.0869C102.221 68.4176 104.441 68.7695 106.638 68.7709C108.836 68.7695 111.056 68.4176 111.944 68.0869C112.754 67.7882 114.393 66.8216 114.198 66.5909C114.098 66.4722 113.68 66.5069 113.448 66.4602Z" fill="#ECB593"/>
<path d="M113.447 66.4602C111.447 66.0482 110.745 65.3709 108.079 65.0229C107.422 64.9322 107.074 65.2709 106.638 65.3415C106.202 65.2709 105.854 64.9322 105.197 65.0229C102.531 65.3709 101.829 66.0482 99.8288 66.4602C99.5968 66.5069 99.1781 66.4722 99.0781 66.5909L99.0821 66.6496C99.1928 66.6682 99.3661 66.6802 99.6528 66.6629C99.6621 66.6629 103.403 66.1189 105.115 66.7029C105.579 66.8629 106.273 66.9082 106.609 66.9202H106.667C107.003 66.9082 107.697 66.8629 108.161 66.7029C109.873 66.1189 113.614 66.6629 113.623 66.6629C113.91 66.6802 114.083 66.6682 114.194 66.6496L114.198 66.5909C114.098 66.4722 113.679 66.5069 113.447 66.4602Z" fill="#E1AE8D"/>
<path d="M124.961 41.8122C124.961 41.8122 122.161 44.3376 119.414 44.4082C115.112 44.5216 114.205 43.0843 114.205 43.0843C114.205 43.0843 114.632 39.9229 118.661 40.0989C122.488 40.2656 124.961 41.8122 124.961 41.8122Z" fill="white"/>
<path d="M121.1 42.4749C121.16 41.2869 120.259 40.2762 119.063 40.1349L118.831 40.1136C117.588 40.0896 116.537 41.0309 116.477 42.2509C116.432 43.1629 116.955 43.9722 117.736 44.3655C118.231 44.4055 118.78 44.4256 119.413 44.4082C119.563 44.4056 119.711 44.3696 119.863 44.3509C120.563 43.9922 121.057 43.3016 121.1 42.4749Z" fill="#3871C1"/>
<path d="M118.715 43.8176C119.542 43.8576 120.242 43.2389 120.282 42.4362C120.323 41.6335 119.686 40.9469 118.861 40.9082C118.037 40.8682 117.337 41.4882 117.297 42.2909C117.257 43.0936 117.891 43.7776 118.715 43.8176Z" fill="#231F20"/>
<path d="M120.373 42.0082C120.361 42.2335 120.161 42.4082 119.921 42.3949C119.684 42.3842 119.497 42.1922 119.51 41.9669L119.517 41.8175C119.529 41.5909 119.733 41.4175 119.968 41.4295C120.209 41.4402 120.393 41.6335 120.381 41.8589L120.373 42.0082Z" fill="white"/>
<path d="M114.205 43.0842C114.465 41.9829 114.776 40.9535 115.901 40.5029C119.922 38.8895 124.094 41.5322 124.934 41.7189C123.813 41.8629 122.536 41.0149 121.034 40.8002C117.697 40.3215 115.414 40.4029 114.205 43.0842Z" fill="#91816F"/>
<path d="M113.159 37.4988C112.877 34.7095 119.413 34.6615 121.441 34.9442C124.393 35.2162 126.125 36.6695 125.835 37.5268C123.455 36.9402 123.341 36.6282 120.485 36.6695C115.137 36.7468 113.307 38.9468 113.159 37.4988Z" fill="#8F8780"/>
<path d="M88.3145 41.8122C88.3145 41.8122 91.1145 44.3376 93.8625 44.4082C98.1638 44.5216 99.0705 43.0843 99.0705 43.0843C99.0705 43.0843 98.6438 39.9229 94.6145 40.0989C90.7878 40.2656 88.3145 41.8122 88.3145 41.8122Z" fill="white"/>
<path d="M92.1747 42.4749C92.1147 41.2869 93.016 40.2762 94.212 40.1349L94.444 40.1136C95.6867 40.0896 96.7374 41.0309 96.7974 42.2509C96.8427 43.1629 96.32 43.9722 95.5387 44.3655C95.044 44.4055 94.4947 44.4256 93.8627 44.4082C93.712 44.4056 93.564 44.3696 93.412 44.3509C92.712 43.9922 92.2174 43.3016 92.1747 42.4749Z" fill="#3871C1"/>
<path d="M94.5588 43.8176C93.7321 43.8576 93.0321 43.2389 92.9921 42.4362C92.9508 41.6335 93.5881 40.9469 94.4135 40.9082C95.2375 40.8682 95.9375 41.4882 95.9788 42.2909C96.0175 43.0936 95.3828 43.7776 94.5588 43.8176Z" fill="#231F20"/>
<path d="M92.9031 42.0082C92.9151 42.2335 93.1151 42.4082 93.3551 42.3949C93.5924 42.3842 93.7791 42.1922 93.7658 41.9669L93.7591 41.8175C93.7471 41.5909 93.5431 41.4175 93.3084 41.4295C93.0671 41.4402 92.8831 41.6335 92.8951 41.8589L92.9031 42.0082Z" fill="white"/>
<path d="M99.0711 43.0842C98.8125 41.9829 98.5005 40.9535 97.3738 40.5029C93.3538 38.8895 89.1818 41.5322 88.3418 41.7189C89.4631 41.8629 90.7405 41.0149 92.2431 40.8002C95.5791 40.3215 97.8618 40.4029 99.0711 43.0842Z" fill="#91816F"/>
<path d="M100.116 37.4988C100.398 34.7095 93.8622 34.6615 91.8342 34.9442C88.8822 35.2162 87.1502 36.6695 87.4396 37.5268C89.8196 36.9402 89.9342 36.6282 92.7902 36.6695C98.1382 36.7468 99.9675 38.9468 100.116 37.4988Z" fill="#8F8780"/>
</svg>
