<svg width="160" height="583" viewBox="0 0 160 583" fill="none" xmlns="http://www.w3.org/2000/svg">
<path d="M154.287 207.926C154.687 212.286 150.505 216.066 146.033 217.234C143.985 217.766 135.439 219.124 134.141 209.159C131.86 191.671 124.979 135.278 121.831 128.698C118.727 122.208 119.848 117.063 119.939 113.89C122.973 96.7617 139.029 95.3043 145.409 113.168C146.828 117.144 151.669 130.375 151.127 149.067C150.535 169.378 152.552 189.023 154.287 207.926Z" fill="#FBCDA3"/>
<path d="M159.076 284.638C159.289 279.824 156.021 277.323 153.735 276.724C150.36 275.843 149.112 276.85 146.648 281.403C144.948 286.572 141.08 285.848 138.003 300.974C137.181 305.039 136.281 308.971 135.759 312.546C135.705 312.895 138.348 313.87 139.644 310.015C142.781 300.715 143.747 302.062 145.552 298.838C145.092 302.955 146.132 306.89 141.928 316.632C139.269 322.791 135.932 326.247 137.992 328.75C140.049 331.25 151.107 322.083 156.803 305.7C158.965 299.491 157.776 293.632 159.076 284.638Z" fill="#FBCDA3"/>
<path d="M146.005 282.994V282.988C147.06 288.987 150.108 289.07 152.604 289.146C155.106 289.215 158.617 288.015 159.12 283.496C159.434 280.663 159.237 277.346 159.322 273.848C160.4 229.546 158.346 217.963 152.64 201.326C151.23 197.222 147.006 191.8 141.757 193.903C134.021 196.992 134.365 203.728 134.472 208.178C135.072 233.076 142.008 246.476 145.761 277.159C146.08 279.76 146.122 281.572 146.005 282.994Z" fill="#FBCDA3"/>
<path d="M108.185 573.542C109.452 580.263 101.5 581.487 97.0641 581.818C93.4108 582.086 83.4361 584.859 83.2134 576.161C83.1334 573.13 86.9961 565.679 87.7414 557.195C88.5028 548.463 89.7788 540.039 90.0121 535.721C91.0174 517.283 84.2041 478.95 83.1108 451.424C82.2614 430.031 86.1188 417.52 86.8294 406.226C87.4134 396.942 83.9307 390.304 84.5521 374.518C85.6707 346.208 83.0961 313.684 81.5468 290.606C80.8068 279.531 80.7134 251.359 106.892 248.367C133.323 245.346 132.128 265.575 132.139 276.015C132.196 318.419 117.843 357.335 116.285 373.195C114.999 386.322 113.528 395.646 114.563 405.838C115.593 416.031 116.733 427.655 116.512 443.666C116.179 467.848 104.588 520.157 104.88 541.273C104.913 543.531 105.109 552.433 105.621 556.583C106.544 564.056 107.357 569.148 108.185 573.542Z" fill="#FBCDA3"/>
<path d="M52.1066 573.542C50.8399 580.263 58.7919 581.487 63.2305 581.818C66.8839 582.086 76.8559 584.859 77.0785 576.161C77.1585 573.13 73.2959 565.679 72.5505 557.195C71.7892 548.463 70.5132 540.039 70.2799 535.721C69.2705 517.283 76.0879 478.95 77.1812 451.424C78.0319 430.031 74.1719 417.52 73.4625 406.226C72.8799 396.942 76.3599 390.304 75.7399 374.518C74.6212 346.208 77.1972 313.684 78.7452 290.606C79.4879 279.531 79.5799 251.359 53.3999 248.367C26.9692 245.346 28.1639 265.575 28.1546 276.015C28.0972 318.419 42.4492 357.335 44.0066 373.195C45.2932 386.322 46.7652 395.646 45.7292 405.838C44.6999 416.031 43.5585 427.655 43.7799 443.666C44.1132 467.848 55.7025 520.157 55.4119 541.273C55.3799 543.531 55.1826 552.433 54.6706 556.583C53.7519 564.056 52.9346 569.148 52.1066 573.542Z" fill="#FBCDA3"/>
<path d="M6.00508 207.926C5.60508 212.286 9.7864 216.066 14.2597 217.234C16.3077 217.766 24.8531 219.124 26.1517 209.159C28.4317 191.671 35.3144 135.278 38.4611 128.698C41.5651 122.208 40.4437 117.063 40.3504 113.89C37.3197 96.7617 21.2651 95.3043 14.8851 113.168C13.4637 117.144 8.62374 130.375 9.16507 149.067C9.7584 169.378 7.73974 189.023 6.00508 207.926Z" fill="#FBCDA3"/>
<path d="M1.21502 284.638C1.00168 279.824 4.26967 277.323 6.55767 276.724C9.93101 275.843 11.179 276.85 13.6443 281.403C15.343 286.572 19.2124 285.848 22.2857 300.974C23.111 305.039 24.0097 308.971 24.5323 312.546C24.5883 312.895 21.943 313.87 20.6483 310.015C17.5097 300.715 16.543 302.062 14.739 298.838C15.2004 302.955 14.159 306.89 18.3643 316.632C21.0217 322.791 24.3564 326.247 22.3017 328.75C20.2444 331.25 9.18702 322.083 3.48835 305.7C1.32569 299.491 2.51501 293.632 1.21502 284.638Z" fill="#FBCDA3"/>
<path d="M14.2859 282.994V282.988C13.2312 288.987 10.1832 289.07 7.68453 289.146C5.18453 289.215 1.67387 288.015 1.1712 283.496C0.859203 280.663 1.0512 277.346 0.968534 273.848C-0.107466 229.546 1.94186 217.963 7.64986 201.326C9.06053 197.222 13.2845 191.8 18.5365 193.903C26.2699 196.992 25.9272 203.728 25.8205 208.178C25.2219 233.076 18.2859 246.476 14.5312 277.159C14.2125 279.76 14.1685 281.572 14.2859 282.994Z" fill="#FBCDA3"/>
<path d="M41.9721 164.571C41.9721 164.571 37.5187 158.007 36.4294 155.22C32.6614 145.582 33.7721 134.903 38.4614 126.53L23.3027 101.811C29.0054 98.2363 61.9614 98.7457 65.8267 83.4857C67.3041 77.6737 68.3947 56.2297 68.3947 56.2297L80.0907 56.187H80.2027L91.8974 56.2297C91.8974 56.2297 92.9881 77.6737 94.4654 83.4857C98.3307 98.7457 131.287 98.2363 136.989 101.811L121.831 126.53C126.52 134.903 127.631 145.582 123.864 155.22C122.773 158.007 118.321 164.571 118.321 164.571C116.531 179.982 115.355 198.954 116.531 209.794C118.124 224.52 132.18 237.531 132.139 276.014C132.135 283.047 95.9001 289.39 80.2027 290.69V290.7L80.1454 290.695L80.0907 290.7V290.69C64.3921 289.39 28.1587 283.047 28.1547 276.014C28.1134 237.531 42.1681 224.52 43.7627 209.794C44.9361 198.954 43.7627 179.982 41.9721 164.571Z" fill="#FBCDA3"/>
<path d="M93.7503 79.3564C93.537 77.7444 93.3383 75.8938 93.1543 73.9551C93.341 75.8951 93.541 77.7431 93.7503 79.3564Z" fill="#E9E8E8"/>
<path d="M80.146 90.895C73.6687 89.7964 68.658 83.263 66.6113 79.5097C66.8287 77.8803 67.0313 75.995 67.218 74.019C68.826 75.4017 70.5727 76.607 72.2727 77.5964C75.5473 79.5204 78.626 80.635 80.146 80.6617C80.7993 80.651 81.7407 80.4377 82.862 80.047C85.722 79.0563 89.7527 76.9043 93.1553 73.955C93.3393 75.8937 93.538 77.7443 93.7513 79.3563C93.7513 79.363 93.7527 79.371 93.754 79.379C91.754 83.1083 86.7007 89.7844 80.146 90.895Z" fill="#E5BB94"/>
<path d="M80.0767 15.547C80.0767 15.547 79.7581 11.307 80.0767 15.547C98.1434 15.775 104.793 31.043 104.793 44.2577C104.793 54.1404 102.203 57.5817 98.9554 66.2164C95.8194 74.571 83.822 80.5404 80.202 80.6537C76.4674 80.5404 64.4767 74.571 61.334 66.2164C58.0887 57.5817 55.498 54.1404 55.498 44.2577C55.498 31.043 62.0127 15.755 80.0767 15.547Z" fill="#FBCDA3"/>
<path d="M94.5523 83.4857C94.0656 81.5657 93.623 77.9337 93.243 73.9337C95.7683 71.7457 97.951 69.1337 99.047 66.2164C102.294 57.5817 104.883 54.1404 104.883 44.2577C104.883 43.9111 104.879 43.5631 104.872 43.2164C104.539 30.4684 67.7723 18.335 64.9016 21.0897C59.3936 26.3697 55.587 35.1737 55.587 44.2577C55.587 54.1404 58.179 57.5817 61.4243 66.2164C62.523 69.1337 64.7057 71.7511 67.2243 73.9391C66.8497 77.9351 66.4056 81.5657 65.9176 83.4857C63.9576 91.2297 54.5056 94.9097 44.9256 97.1271C43.6163 88.9191 43.483 74.4671 43.8296 62.3524C44.1683 50.5871 44.6683 39.3324 46.407 29.6644C47.9283 21.2097 51.2523 11.1777 58.195 6.1804C63.327 2.02307 70.3617 -0.248928 80.0777 0.0217424C89.7963 -0.248928 96.831 2.02307 101.963 6.1804C108.906 11.1777 112.427 19.1804 113.748 29.6644C114.978 39.4044 115.987 50.5871 116.327 62.3524C116.675 74.4337 116.542 88.8391 115.244 97.0577C105.768 94.8324 96.4936 91.1471 94.5523 83.4857Z" fill="#5D3F2D"/>
<path d="M104.174 45.3937C104.174 45.3937 106.939 42.1777 107.921 44.8204C109.735 49.7044 103.287 55.1204 103.009 56.0924C102.729 57.0657 104.174 45.3937 104.174 45.3937Z" fill="#FBCDA3"/>
<path d="M56.2742 45.3937C56.2742 45.3937 53.5102 42.1777 52.5302 44.8204C50.7169 49.7044 57.1596 55.1204 57.4409 56.0924C57.7182 57.0657 56.2742 45.3937 56.2742 45.3937Z" fill="#FBCDA3"/>
<path d="M61.6602 45.9111C61.6602 45.9111 64.2548 48.4138 67.4348 48.6751C72.4148 49.0871 73.5602 46.9698 73.5602 46.9698C73.5602 46.9698 73.2348 43.2431 68.5548 43.2164C64.1082 43.1911 61.6602 45.9111 61.6602 45.9111Z" fill="white"/>
<path d="M98.6324 45.9111C98.6324 45.9111 96.0364 48.4138 92.8591 48.6751C87.8804 49.0871 86.7324 46.9698 86.7324 46.9698C86.7324 46.9698 87.0578 43.2431 91.7378 43.2164C96.1844 43.1911 98.6324 45.9111 98.6324 45.9111Z" fill="white"/>
<path d="M95.3942 45.6098C95.3942 47.2484 94.0276 48.5778 92.3476 48.5778C90.6636 48.5778 89.2969 47.2484 89.2969 45.6098C89.2969 43.9724 90.6636 42.6431 92.3476 42.6431C94.0276 42.6431 95.3942 43.9724 95.3942 45.6098Z" fill="#3871C1"/>
<path d="M92.3463 47.5284C91.257 47.5284 90.377 46.6684 90.377 45.6098C90.377 44.5524 91.257 43.6924 92.3463 43.6924C93.4316 43.6924 94.3143 44.5524 94.3143 45.6098C94.3143 46.6684 93.4316 47.5284 92.3463 47.5284Z" fill="#231F20"/>
<path d="M94.4043 45.0417C94.4043 45.3403 94.1496 45.5817 93.8323 45.5817C93.5176 45.5817 93.2656 45.3403 93.2656 45.0417V44.847C93.2656 44.5497 93.5176 44.3083 93.8323 44.3083C94.1496 44.3083 94.4043 44.5497 94.4043 44.847V45.0417Z" fill="white"/>
<path d="M64.9004 45.6098C64.9004 47.2484 66.2644 48.5778 67.9471 48.5778C69.6284 48.5778 70.9951 47.2484 70.9951 45.6098C70.9951 43.9724 69.6284 42.6431 67.9471 42.6431C66.2644 42.6431 64.9004 43.9724 64.9004 45.6098Z" fill="#3871C1"/>
<path d="M67.9479 47.5284C66.8599 47.5284 65.9785 46.6684 65.9785 45.6098C65.9785 44.5524 66.8599 43.6924 67.9479 43.6924C69.0359 43.6924 69.9159 44.5524 69.9159 45.6098C69.9159 46.6684 69.0359 47.5284 67.9479 47.5284Z" fill="#231F20"/>
<path d="M65.8887 45.0417C65.8887 45.3403 66.1447 45.5817 66.4593 45.5817C66.7727 45.5817 67.0287 45.3403 67.0287 45.0417V44.847C67.0287 44.5497 66.7727 44.3083 66.4593 44.3083C66.1447 44.3083 65.8887 44.5497 65.8887 44.847V45.0417Z" fill="white"/>
<path d="M73.5592 46.9351C73.2819 45.5817 72.7979 44.5924 71.6513 43.7391C69.6179 42.2231 67.3139 42.3444 65.0819 43.3337C63.7273 43.9297 62.2699 45.0324 60.7153 44.9618C60.3993 44.9444 59.4712 44.6617 59.3926 44.2884C60.2126 47.5284 64.0953 45.0751 65.7019 44.3284C68.8126 42.8804 72.2179 43.6284 73.5592 46.9351Z" fill="#6F4323"/>
<path d="M74.7505 40.7364C74.7505 39.4511 69.5638 37.6857 67.6038 37.3684C64.8505 37.1444 62.2318 37.5004 59.8691 39.0191C62.3505 38.6751 64.6211 38.0378 67.3878 38.4898C69.3558 38.9631 74.7505 42.4951 74.7505 40.7364Z" fill="#91816F"/>
<path d="M86.5977 46.9351C86.875 45.5817 87.359 44.5924 88.5057 43.7391C90.539 42.2231 92.8403 42.3444 95.0723 43.3337C96.427 43.9297 97.8857 45.0324 99.4403 44.9618C99.7563 44.9444 100.686 44.6617 100.763 44.2884C99.947 47.5284 96.0603 45.0751 94.455 44.3284C91.3443 42.8804 87.9377 43.6284 86.5977 46.9351Z" fill="#6F4323"/>
<path d="M85.4082 40.7364C85.4082 39.4511 90.5922 37.6857 92.5522 37.3684C95.3068 37.1444 97.9255 37.5004 100.286 39.0191C97.8068 38.6751 95.5335 38.0378 92.7655 38.4898C90.8015 38.9631 85.4082 42.4951 85.4082 40.7364Z" fill="#91816F"/>
<path d="M80.1253 60.847C78.3826 60.6884 76.784 60.2937 75.668 59.0231C76.3906 59.4697 78.2346 59.6924 80.0773 59.6924C81.9706 59.6924 83.812 59.4697 84.536 59.0231C83.4173 60.2937 81.8173 60.6884 80.1253 60.847Z" fill="#D0A986"/>
<path d="M78.7131 64.5764C79.3851 64.4831 79.6958 65.1178 80.1451 65.1831C80.5971 65.1178 80.9078 64.4831 81.5785 64.5764C84.8531 65.0324 87.2558 67.7657 87.2558 67.7657C87.2558 67.7657 84.0745 71.0964 80.1451 71.0964V71.0364V71.0964C76.2171 71.0964 73.0371 67.7657 73.0371 67.7657C73.0371 67.7657 75.4385 65.0324 78.7131 64.5764Z" fill="#EF7889"/>
<path d="M78.7104 64.5764C79.3824 64.4818 79.6957 65.1178 80.145 65.1858C80.597 65.1178 80.909 64.4818 81.5824 64.5764C84.8597 65.0271 87.2517 67.7658 87.2517 67.7658H87.2063C86.2943 67.6671 83.4664 66.9738 81.713 67.5951C81.2397 67.7658 80.5343 67.8231 80.1903 67.8324V67.8364L80.145 67.8338L80.1023 67.8364V67.8324C79.7583 67.8231 79.053 67.7658 78.5797 67.5951C76.8264 66.9738 73.997 67.6671 73.0863 67.7658H73.041C73.041 67.7658 75.4317 65.0271 78.7104 64.5764Z" fill="#F35E77"/>
<path d="M131.268 260.103H131.271C128.185 233.526 117.881 222.276 116.531 209.794C115.431 199.631 116.392 182.322 117.992 167.499C118.1 166.511 118.209 165.534 118.321 164.571C118.321 164.571 122.773 158.007 123.864 155.22C124.115 154.576 124.341 153.926 124.549 153.272C124.592 153.139 124.627 153.006 124.665 152.872C124.831 152.33 124.987 151.787 125.121 151.24L125.192 150.943C125.333 150.348 125.463 149.754 125.572 149.155L125.599 148.995C125.709 148.354 125.808 147.711 125.881 147.066C126.14 144.874 126.192 142.675 126.024 140.506C126.021 140.476 125.873 140.05 125.632 139.323C124.587 136.174 121.768 127.364 121.228 120.532C121.004 117.735 120.704 114.716 120.493 111.732C120.18 107.256 120.071 102.856 120.735 99.3897C120.808 99.0043 120.891 98.631 120.985 98.271C120.492 98.2057 117.808 97.5764 115.315 97.0217C114.484 96.8377 113.673 96.6617 112.975 96.5177H112.973C108.312 137.086 84.5161 140.112 80.5255 140.072C80.3961 140.072 80.2881 140.067 80.2028 140.06V140.054L80.1468 140.058L80.0908 140.054V140.06C80.0041 140.067 79.8961 140.072 79.7668 140.072C75.7761 140.112 51.9828 137.086 47.3188 96.5177C46.6188 96.6617 45.8095 96.8377 44.9788 97.0217C42.4855 97.5764 39.8002 98.2057 39.3082 98.271C39.4015 98.631 39.4855 99.0043 39.5575 99.3897C40.2215 102.856 40.1121 107.256 39.7975 111.732C39.5895 114.716 39.2881 117.735 39.0641 120.532C38.5655 126.839 36.1268 134.83 34.9321 138.499C34.8308 138.806 34.7415 139.082 34.6601 139.323C34.5001 139.808 34.3801 140.159 34.3175 140.348L34.2681 140.506C34.1001 142.675 34.1535 144.874 34.4108 147.066C34.4855 147.711 34.5841 148.354 34.6948 148.995L34.7201 149.155C34.8295 149.754 34.9588 150.348 35.1015 150.943L35.1708 151.24C35.3068 151.787 35.4615 152.33 35.6268 152.872C35.6668 153.006 35.7015 153.139 35.7428 153.272C35.9481 153.926 36.1775 154.576 36.4295 155.22C37.5188 158.007 41.9722 164.571 41.9722 164.571C42.0842 165.534 42.1935 166.511 42.3001 167.499C43.8988 182.322 44.8628 199.631 43.7628 209.794C42.4108 222.276 32.1068 233.526 29.0228 260.103H29.0242L29.0215 260.119C51.4802 269.952 78.7455 290.606 78.7455 290.606L78.7482 290.586C79.2108 290.622 79.6548 290.658 80.0908 290.69V290.7L80.1468 290.695L80.2028 290.7V290.69C80.6348 290.658 81.0828 290.622 81.5455 290.586L81.5482 290.606C81.5482 290.606 108.813 269.952 131.271 260.119L131.268 260.103Z" fill="#3BAE5F"/>
<path d="M116.093 195.594C116.093 195.591 116.092 195.59 116.092 195.587C116.096 195.427 116.099 195.264 116.101 195.103C116.099 195.267 116.096 195.431 116.093 195.594ZM44.2 195.594C44.1974 195.476 44.1947 195.356 44.1934 195.238C44.196 195.356 44.1974 195.472 44.2 195.59C44.2 195.591 44.2 195.592 44.2 195.594ZM117.359 173.874C117.648 170.696 117.973 167.566 118.321 164.571C118.321 164.571 118.321 164.571 118.321 164.57C118.321 164.571 118.321 164.571 118.321 164.571C117.975 167.564 117.651 170.692 117.36 173.87C117.36 173.871 117.36 173.872 117.359 173.874Z" fill="#E9E8E8"/>
<path d="M117.359 173.875C117.555 171.718 117.769 169.584 117.993 167.499C118.101 166.511 118.21 165.534 118.322 164.571C117.974 167.566 117.649 170.696 117.359 173.874V173.875Z" fill="#E5BB94"/>
<path d="M42.8847 173.338C42.6073 170.344 42.2993 167.396 41.9727 164.571C41.9727 164.571 41.9727 164.571 41.9727 164.57C41.9727 164.571 41.9727 164.571 41.9727 164.571C42.2167 166.675 42.45 168.846 42.6673 171.055C42.6673 171.063 42.6687 171.071 42.67 171.079C42.67 171.091 42.6713 171.102 42.6727 171.114C42.7447 171.851 42.8153 172.594 42.8847 173.338Z" fill="#E9E8E8"/>
<path d="M42.6727 171.114C42.6713 171.102 42.67 171.091 42.67 171.079C42.67 171.091 42.6713 171.103 42.6727 171.114ZM42.6673 171.055C42.45 168.846 42.2167 166.675 41.9727 164.571C42.0847 165.534 42.194 166.511 42.3007 167.499C42.4273 168.671 42.5487 169.856 42.6673 171.055Z" fill="#E5BB94"/>
<path d="M118.327 164.563V164.562V164.563ZM38.0962 158.45C37.6869 157.748 37.3069 157.067 36.9962 156.456C36.9949 156.452 36.9935 156.45 36.9922 156.446C37.3042 157.059 37.6842 157.744 38.0962 158.45ZM122.379 158.136C122.72 157.542 123.036 156.967 123.302 156.446C123.3 156.45 123.298 156.452 123.296 156.456C123.032 156.975 122.719 157.546 122.379 158.136Z" fill="#E9E8E8"/>
<path d="M125.162 151.071L125.192 150.943C125.334 150.348 125.463 149.754 125.572 149.155L125.599 148.995C125.71 148.354 125.808 147.711 125.882 147.066C126.091 145.286 126.166 143.5 126.096 141.731C126.22 144.832 125.922 147.979 125.162 151.071ZM35.1098 150.98C35.0191 150.603 34.9338 150.226 34.8565 149.847C34.9325 150.214 35.0138 150.578 35.1018 150.943L35.1098 150.98ZM34.7178 149.139C34.2511 146.588 34.0871 144.015 34.2085 141.475C34.1205 143.328 34.1911 145.199 34.4111 147.066C34.4858 147.711 34.5844 148.354 34.6951 148.995L34.7178 149.139ZM126.024 140.506C126.022 140.479 125.903 140.138 125.707 139.548C125.715 139.212 125.716 138.878 125.71 138.543C125.798 138.792 125.863 139.014 125.886 139.17C125.92 139.454 125.952 139.739 125.976 140.026C125.994 140.186 126.007 140.346 126.024 140.506ZM34.2684 140.506C34.2858 140.346 34.3004 140.186 34.3178 140.026C34.3404 139.739 34.3751 139.454 34.4071 139.17C34.4285 139.014 34.4951 138.792 34.5818 138.543C34.5751 138.879 34.5751 139.216 34.5844 139.555C34.4631 139.92 34.3711 140.191 34.3178 140.348L34.2684 140.506Z" fill="#E5BB94"/>
<path d="M44.2007 195.59C44.198 195.472 44.1967 195.356 44.194 195.238C44.07 188.424 44.0153 180.964 42.934 173.87C42.9167 173.692 42.9007 173.515 42.8847 173.338C42.8153 172.594 42.7447 171.851 42.6727 171.114C42.6713 171.103 42.67 171.091 42.67 171.079C42.6687 171.071 42.6673 171.063 42.6673 171.055C42.5487 169.856 42.4273 168.671 42.3007 167.499C42.194 166.511 42.0847 165.534 41.9727 164.571C41.9727 164.571 41.9727 164.571 41.9727 164.57C41.9513 164.54 39.7727 161.326 38.0967 158.45C37.6847 157.744 37.3047 157.059 36.9927 156.446C36.7073 155.819 36.4287 155.156 36.162 154.468C35.7447 153.318 35.3953 152.152 35.11 150.98L35.102 150.943C35.014 150.578 34.9327 150.214 34.8567 149.847C34.8073 149.611 34.762 149.375 34.718 149.139L34.6953 148.995C34.5847 148.354 34.486 147.711 34.4113 147.066C34.1913 145.199 34.1207 143.328 34.2087 141.475C34.2247 141.151 34.2447 140.828 34.2687 140.506L34.318 140.348C34.3713 140.191 34.4633 139.92 34.5847 139.555C34.794 147.75 39.5327 156.526 46.7993 157.59C49.4167 157.972 51.782 158.135 53.946 158.135C65.5607 158.135 71.422 153.463 79.894 153.248V153.228L80.146 153.238L80.3993 153.228V153.248C88.8713 153.463 94.7327 158.135 106.347 158.135C108.511 158.135 110.877 157.974 113.494 157.59C120.765 156.524 125.502 147.744 125.707 139.548C125.903 140.138 126.022 140.479 126.025 140.506C126.055 140.914 126.079 141.322 126.097 141.731C126.166 143.5 126.091 145.286 125.882 147.066C125.809 147.711 125.71 148.354 125.599 148.995L125.573 149.155C125.463 149.754 125.334 150.348 125.193 150.943L125.162 151.071C124.882 152.212 124.539 153.347 124.131 154.468C123.866 155.156 123.586 155.819 123.302 156.446C123.037 156.967 122.721 157.542 122.379 158.136C120.723 161.015 118.455 164.374 118.327 164.562V164.563C118.326 164.564 118.325 164.566 118.323 164.567C118.323 164.568 118.322 164.568 118.322 164.57C118.322 164.571 118.322 164.571 118.322 164.571C118.21 165.534 118.101 166.511 117.993 167.499C117.769 169.584 117.555 171.718 117.359 173.875C116.283 180.922 116.225 188.328 116.102 195.103C116.099 195.264 116.097 195.427 116.093 195.587C115.203 184.194 112.093 174.534 110.595 173.218C103.829 167.282 81.6553 167.166 80.1713 167.164H80.122C78.6393 167.166 56.4647 167.282 49.6993 173.218C48.1993 174.535 45.0873 184.196 44.2007 195.59Z" fill="#369E55"/>
</svg>
