<svg width="159" height="582" viewBox="0 0 159 582" fill="none" xmlns="http://www.w3.org/2000/svg">
<path d="M153.593 207.926C153.993 212.286 149.812 216.066 145.34 217.234C143.292 217.766 134.745 219.124 133.448 209.159C131.167 191.671 124.285 135.278 121.137 128.698C118.033 122.208 119.155 117.063 119.245 113.89C122.28 96.7617 138.336 95.3043 144.716 113.168C146.135 117.144 150.976 130.375 150.433 149.067C149.841 169.378 151.859 189.023 153.593 207.926" fill="#FBCDA3"/>
<path d="M158.383 284.638C158.596 279.824 155.328 277.323 153.041 276.724C149.667 275.843 148.419 276.85 145.955 281.403C144.255 286.572 140.387 285.848 137.309 300.974C136.488 305.039 135.588 308.971 135.065 312.546C135.012 312.895 137.655 313.87 138.951 310.015C142.088 300.715 143.053 302.062 144.859 298.838C144.399 302.955 145.439 306.89 141.235 316.632C138.576 322.791 135.239 326.247 137.299 328.75C139.356 331.25 150.413 322.083 156.109 305.7C158.272 299.491 157.083 293.632 158.383 284.638" fill="#FBCDA3"/>
<path d="M145.312 282.994V282.988C146.366 288.987 149.414 289.07 151.91 289.146C154.413 289.215 157.924 288.015 158.426 283.496C158.741 280.663 158.544 277.346 158.629 273.848C159.706 229.546 157.653 217.963 151.946 201.326C150.537 197.222 146.313 191.8 141.064 193.903C133.328 196.992 133.672 203.728 133.778 208.178C134.378 233.076 141.314 246.476 145.068 277.159C145.386 279.76 145.429 281.572 145.312 282.994Z" fill="#FBCDA3"/>
<path d="M113.759 573.104C115.305 579.818 105.6 581.041 100.186 581.371C95.7272 581.638 83.5536 584.409 83.2819 575.72C83.1842 572.693 87.8984 565.25 88.8081 556.776C89.7372 548.055 91.2945 539.64 91.5793 535.327C92.8063 516.91 84.4909 478.621 83.1566 451.127C82.12 429.759 86.8277 417.263 87.695 405.981C88.4077 396.708 84.1573 390.078 84.9156 374.309C86.2809 346.033 83.1387 313.546 81.2478 290.494C80.3446 279.432 80.2307 251.292 112.181 248.304C144.438 245.286 142.98 265.492 142.993 275.92C143.063 318.275 125.545 357.146 123.645 372.988C122.074 386.1 120.279 395.413 121.542 405.593C122.8 415.775 124.191 427.386 123.921 443.378C123.514 467.532 109.369 519.782 109.725 540.872C109.766 543.128 110.005 552.019 110.63 556.165C111.756 563.63 112.748 568.716 113.759 573.104" fill="#FBCDA3"/>
<path d="M45.2398 573.104C43.6939 579.818 53.3989 581.041 58.8161 581.371C63.2748 581.638 75.4452 584.409 75.717 575.72C75.8146 572.693 71.1004 565.25 70.1908 556.776C69.2616 548.055 67.7043 539.64 67.4195 535.327C66.1877 516.91 74.5079 478.621 75.8423 451.127C76.8805 429.759 72.1695 417.263 71.3038 405.981C70.5927 396.708 74.8399 390.078 74.0832 374.309C72.7179 346.033 75.8618 313.546 77.7511 290.494C78.6575 279.432 78.7697 251.292 46.8182 248.304C14.5608 245.286 16.0189 265.492 16.0075 275.92C15.9375 318.275 33.4535 357.146 35.3541 372.988C36.9244 386.1 38.7209 395.413 37.4565 405.593C36.2003 415.775 34.8073 427.386 35.0775 443.378C35.4843 467.532 49.6285 519.782 49.2738 540.872C49.2347 543.128 48.9939 552.019 48.369 556.165C47.2478 563.63 46.2503 568.716 45.2398 573.104" fill="#FBCDA3"/>
<path d="M5.31172 207.926C4.91172 212.286 9.09304 216.066 13.5664 217.234C15.6144 217.766 24.1597 219.124 25.4584 209.159C27.7384 191.671 34.621 135.278 37.7677 128.698C40.8717 122.208 39.7504 117.063 39.657 113.89C36.6264 96.7617 20.5717 95.3043 14.1917 113.168C12.7704 117.144 7.93038 130.375 8.47171 149.067C9.06504 169.378 7.04638 189.023 5.31172 207.926" fill="#FBCDA3"/>
<path d="M0.521656 284.638C0.308322 279.824 3.57632 277.323 5.86431 276.724C9.23765 275.843 10.4857 276.85 12.951 281.403C14.6497 286.572 18.519 285.848 21.5923 300.974C22.4177 305.039 23.3163 308.971 23.839 312.546C23.895 312.895 21.2497 313.87 19.955 310.015C16.8163 300.715 15.8497 302.062 14.0457 298.838C14.507 302.955 13.4657 306.89 17.671 316.632C20.3283 322.791 23.663 326.247 21.6083 328.75C19.551 331.25 8.49366 322.083 2.795 305.7C0.632329 299.491 1.82166 293.632 0.521656 284.638" fill="#FBCDA3"/>
<path d="M13.5925 282.994V282.988C12.5378 288.987 9.48984 289.07 6.99117 289.146C4.49117 289.215 0.98051 288.015 0.477844 283.496C0.165844 280.663 0.357841 277.346 0.275174 273.848C-0.800825 229.546 1.24851 217.963 6.95651 201.326C8.36717 197.222 12.5912 191.8 17.8432 193.903C25.5765 196.992 25.2338 203.728 25.1272 208.178C24.5285 233.076 17.5925 246.476 13.8378 277.159C13.5192 279.76 13.4752 281.572 13.5925 282.994" fill="#FBCDA3"/>
<path d="M41.2787 164.571C41.2787 164.571 36.8254 158.007 35.736 155.22C31.968 145.582 33.0787 134.903 37.768 126.53L22.6094 101.811C28.312 98.2363 61.268 98.7457 65.1334 83.4857C66.6107 77.6737 67.7014 56.2297 67.7014 56.2297L79.3974 56.187H79.5094L91.204 56.2297C91.204 56.2297 92.2947 77.6737 93.772 83.4857C97.6374 98.7457 130.593 98.2363 136.296 101.811L121.137 126.53C125.827 134.903 126.937 145.582 123.171 155.22C122.08 158.007 117.628 164.571 117.628 164.571C115.837 179.982 114.661 198.954 115.837 209.794C117.431 224.52 131.487 237.531 131.445 276.014C131.441 283.047 95.2067 289.39 79.5094 290.69V290.7L79.452 290.695L79.3974 290.7V290.69C63.6987 289.39 27.4654 283.047 27.4614 276.014C27.42 237.531 41.4747 224.52 43.0694 209.794C44.2427 198.954 43.0694 179.982 41.2787 164.571" fill="#FBCDA3"/>
<path d="M93.0569 79.3564C92.8436 77.7444 92.6449 75.8938 92.4609 73.9551C92.6476 75.8951 92.8476 77.7431 93.0569 79.3564Z" fill="#E9E8E8"/>
<path d="M79.4527 90.895C72.9753 89.7964 67.9646 83.263 65.918 79.5097C66.1353 77.8803 66.338 75.995 66.5246 74.019C68.1326 75.4017 69.8793 76.607 71.5793 77.5964C74.854 79.5204 77.9327 80.635 79.4527 80.6617C80.106 80.651 81.0473 80.4377 82.1686 80.047C85.0286 79.0563 89.0593 76.9043 92.462 73.955C92.646 75.8937 92.8446 77.7443 93.058 79.3563C93.058 79.363 93.0593 79.371 93.0606 79.379C91.0606 83.1083 86.0073 89.7844 79.4527 90.895" fill="#E5BB94"/>
<path d="M79.3834 15.547C79.3834 15.547 79.0647 11.307 79.3834 15.547C97.45 15.775 104.099 31.043 104.099 44.2577C104.099 54.1404 101.51 57.5817 98.262 66.2164C95.126 74.571 83.1287 80.5404 79.5087 80.6537C75.774 80.5404 63.7834 74.571 60.6407 66.2164C57.3954 57.5817 54.8047 54.1404 54.8047 44.2577C54.8047 31.043 61.3194 15.755 79.3834 15.547" fill="#FBCDA3"/>
<path d="M93.8589 83.4857C93.3723 81.5657 92.9296 77.9337 92.5496 73.9337C95.075 71.7457 97.2576 69.1337 98.3536 66.2164C101.6 57.5817 104.19 54.1404 104.19 44.2577C104.19 43.9111 104.186 43.5631 104.179 43.2164C103.846 30.4684 67.079 18.335 64.2083 21.0897C58.7003 26.3697 54.8936 35.1737 54.8936 44.2577C54.8936 54.1404 57.4856 57.5817 60.731 66.2164C61.8296 69.1337 64.0123 71.7511 66.531 73.9391C66.1563 77.9351 65.7123 81.5657 65.2243 83.4857C63.2643 91.2297 53.8123 94.9097 44.2323 97.1271C42.9229 88.9191 42.7896 74.4671 43.1363 62.3524C43.4749 50.5871 43.975 39.3324 45.7136 29.6644C47.235 21.2097 50.5589 11.1777 57.5016 6.1804C62.6336 2.02307 69.6683 -0.248924 79.3843 0.0217424C89.103 -0.248924 96.1376 2.02307 101.27 6.1804C108.212 11.1777 111.734 19.1804 113.055 29.6644C114.284 39.4044 115.294 50.5871 115.634 62.3524C115.982 74.4337 115.848 88.8391 114.551 97.0577C105.075 94.8324 95.8003 91.1471 93.8589 83.4857Z" fill="#5D3F2D"/>
<path d="M103.481 45.3937C103.481 45.3937 106.246 42.1777 107.227 44.8204C109.042 49.7044 102.594 55.1204 102.315 56.0924C102.035 57.0657 103.481 45.3937 103.481 45.3937" fill="#FBCDA3"/>
<path d="M55.5809 45.3937C55.5809 45.3937 52.8169 42.1777 51.8369 44.8204C50.0235 49.7044 56.4662 55.1204 56.7475 56.0924C57.0249 57.0657 55.5809 45.3937 55.5809 45.3937Z" fill="#FBCDA3"/>
<path d="M60.9668 45.9111C60.9668 45.9111 63.5615 48.4138 66.7415 48.6751C71.7215 49.0871 72.8668 46.9698 72.8668 46.9698C72.8668 46.9698 72.5415 43.2431 67.8615 43.2164C63.4148 43.1911 60.9668 45.9111 60.9668 45.9111Z" fill="white"/>
<path d="M97.9391 45.9111C97.9391 45.9111 95.3431 48.4138 92.1657 48.6751C87.1871 49.0871 86.0391 46.9698 86.0391 46.9698C86.0391 46.9698 86.3644 43.2431 91.0444 43.2164C95.4911 43.1911 97.9391 45.9111 97.9391 45.9111Z" fill="white"/>
<path d="M94.7008 45.6098C94.7008 47.2484 93.3342 48.5778 91.6542 48.5778C89.9702 48.5778 88.6035 47.2484 88.6035 45.6098C88.6035 43.9724 89.9702 42.6431 91.6542 42.6431C93.3342 42.6431 94.7008 43.9724 94.7008 45.6098Z" fill="#3871C1"/>
<path d="M91.6529 47.5284C90.5636 47.5284 89.6836 46.6684 89.6836 45.6098C89.6836 44.5524 90.5636 43.6924 91.6529 43.6924C92.7383 43.6924 93.6209 44.5524 93.6209 45.6098C93.6209 46.6684 92.7383 47.5284 91.6529 47.5284Z" fill="#231F20"/>
<path d="M93.7109 45.0417C93.7109 45.3403 93.4563 45.5817 93.1389 45.5817C92.8243 45.5817 92.5723 45.3403 92.5723 45.0417V44.847C92.5723 44.5497 92.8243 44.3083 93.1389 44.3083C93.4563 44.3083 93.7109 44.5497 93.7109 44.847V45.0417Z" fill="white"/>
<path d="M64.207 45.6098C64.207 47.2484 65.571 48.5778 67.2537 48.5778C68.935 48.5778 70.3017 47.2484 70.3017 45.6098C70.3017 43.9724 68.935 42.6431 67.2537 42.6431C65.571 42.6431 64.207 43.9724 64.207 45.6098Z" fill="#3871C1"/>
<path d="M67.2545 47.5284C66.1665 47.5284 65.2852 46.6684 65.2852 45.6098C65.2852 44.5524 66.1665 43.6924 67.2545 43.6924C68.3425 43.6924 69.2225 44.5524 69.2225 45.6098C69.2225 46.6684 68.3425 47.5284 67.2545 47.5284Z" fill="#231F20"/>
<path d="M65.1953 45.0417C65.1953 45.3403 65.4513 45.5817 65.766 45.5817C66.0793 45.5817 66.3353 45.3403 66.3353 45.0417V44.847C66.3353 44.5497 66.0793 44.3083 65.766 44.3083C65.4513 44.3083 65.1953 44.5497 65.1953 44.847V45.0417Z" fill="white"/>
<path d="M72.8659 46.9351C72.5886 45.5817 72.1046 44.5924 70.9579 43.7391C68.9246 42.2231 66.6206 42.3444 64.3886 43.3337C63.0339 43.9297 61.5766 45.0324 60.0219 44.9618C59.7059 44.9444 58.7779 44.6617 58.6992 44.2884C59.5192 47.5284 63.4019 45.0751 65.0086 44.3284C68.1192 42.8804 71.5246 43.6284 72.8659 46.9351" fill="#6F4323"/>
<path d="M74.0571 40.7364C74.0571 39.4511 68.8704 37.6857 66.9104 37.3684C64.1571 37.1444 61.5384 37.5004 59.1758 39.0191C61.6571 38.6751 63.9278 38.0378 66.6944 38.4898C68.6624 38.9631 74.0571 42.4951 74.0571 40.7364" fill="#91816F"/>
<path d="M85.9043 46.9351C86.1816 45.5817 86.6656 44.5924 87.8123 43.7391C89.8456 42.2231 92.147 42.3444 94.379 43.3337C95.7336 43.9297 97.1923 45.0324 98.747 44.9618C99.063 44.9444 99.9923 44.6617 100.07 44.2884C99.2536 47.5284 95.367 45.0751 93.7616 44.3284C90.651 42.8804 87.2443 43.6284 85.9043 46.9351" fill="#6F4323"/>
<path d="M84.7148 40.7364C84.7148 39.4511 89.8988 37.6857 91.8588 37.3684C94.6135 37.1444 97.2322 37.5004 99.5922 39.0191C97.1135 38.6751 94.8402 38.0378 92.0722 38.4898C90.1082 38.9631 84.7148 42.4951 84.7148 40.7364Z" fill="#91816F"/>
<path d="M79.4319 60.847C77.6893 60.6884 76.0906 60.2937 74.9746 59.0231C75.6973 59.4697 77.5413 59.6924 79.384 59.6924C81.2773 59.6924 83.1186 59.4697 83.8426 59.0231C82.7239 60.2937 81.1239 60.6884 79.4319 60.847Z" fill="#D0A986"/>
<path d="M78.0198 64.5764C78.6918 64.4831 79.0024 65.1178 79.4518 65.1831C79.9038 65.1178 80.2144 64.4831 80.8851 64.5764C84.1598 65.0324 86.5624 67.7657 86.5624 67.7657C86.5624 67.7657 83.3811 71.0964 79.4518 71.0964V71.0364V71.0964C75.5238 71.0964 72.3438 67.7657 72.3438 67.7657C72.3438 67.7657 74.7451 65.0324 78.0198 64.5764Z" fill="#EF7889"/>
<path d="M78.017 64.5764C78.689 64.4818 79.0023 65.1178 79.4517 65.1858C79.9037 65.1178 80.2157 64.4818 80.889 64.5764C84.1663 65.0271 86.5583 67.7658 86.5583 67.7658H86.513C85.601 67.6671 82.773 66.9738 81.0197 67.5951C80.5463 67.7658 79.841 67.8231 79.497 67.8324V67.8364L79.4517 67.8338L79.409 67.8364V67.8324C79.065 67.8231 78.3597 67.7658 77.8863 67.5951C76.133 66.9738 73.3037 67.6671 72.393 67.7658H72.3477C72.3477 67.7658 74.7383 65.0271 78.017 64.5764Z" fill="#F35E77"/>
<path d="M141.997 260.431H142C138.258 233.879 125.762 222.64 124.124 210.169C122.79 200.016 123.956 182.723 125.897 167.915C126.028 166.927 126.16 165.951 126.296 164.989C126.296 164.989 131.695 158.431 133.018 155.647C133.322 155.004 133.597 154.354 133.849 153.701C133.901 153.568 133.943 153.435 133.99 153.302C134.19 152.759 134.379 152.217 134.543 151.671L134.628 151.374C134.8 150.78 134.957 150.186 135.089 149.588L135.121 149.428C135.256 148.787 135.375 148.145 135.464 147.5C135.778 145.31 135.841 143.114 135.637 140.947C135.634 140.917 135.455 140.491 135.162 139.765C133.894 136.619 130.476 127.818 129.821 120.992C129.549 118.197 129.186 115.182 128.93 112.2C128.55 107.729 128.418 103.333 129.223 99.8693C129.312 99.4843 129.412 99.1113 129.527 98.7517C128.928 98.6864 125.674 98.0577 122.65 97.5035C121.642 97.3197 120.659 97.1439 119.812 97H119.81C114.158 137.53 85.2996 140.554 80.46 140.514C80.3032 140.514 80.1722 140.508 80.0687 140.502V140.495L80.0008 140.499L79.9329 140.495V140.502C79.8278 140.508 79.6968 140.514 79.54 140.514C74.7004 140.554 45.8457 137.53 40.1896 97C39.3407 97.1439 38.3592 97.3197 37.3518 97.5035C34.3281 98.0577 31.0715 98.6864 30.4749 98.7517C30.5881 99.1113 30.6899 99.4843 30.7772 99.8693C31.5825 103.333 31.4499 107.729 31.0683 112.2C30.816 115.182 30.4506 118.197 30.179 120.992C29.5742 127.293 26.6168 135.276 25.168 138.942C25.0451 139.248 24.9368 139.524 24.8381 139.765C24.6441 140.25 24.4986 140.6 24.4226 140.789L24.3627 140.947C24.159 143.114 24.2237 145.31 24.5357 147.5C24.6263 148.145 24.746 148.787 24.8802 149.428L24.9109 149.588C25.0435 150.186 25.2003 150.78 25.3733 151.374L25.4574 151.671C25.6224 152.217 25.8099 152.759 26.0104 153.302C26.0589 153.435 26.101 153.568 26.1511 153.701C26.4001 154.354 26.6782 155.004 26.9838 155.647C28.3049 158.431 33.7056 164.989 33.7056 164.989C33.8414 165.951 33.974 166.927 34.1033 167.915C36.0421 182.723 37.2111 200.016 35.8771 210.169C34.2375 222.64 21.7417 233.879 18.0016 260.431H18.0032L18 260.447C45.2361 270.272 78.3014 290.905 78.3014 290.905L78.3046 290.885C78.8657 290.921 79.4041 290.957 79.9329 290.989V291L80.0008 290.995L80.0687 291V290.989C80.5926 290.957 81.1359 290.921 81.697 290.885L81.7002 290.905C81.7002 290.905 114.766 270.272 142 260.447L141.997 260.431" fill="#3BAE5F"/>
<path d="M115.4 195.594C115.4 195.591 115.399 195.59 115.399 195.587C115.403 195.427 115.405 195.264 115.408 195.103C115.405 195.267 115.403 195.431 115.4 195.594V195.594ZM43.5067 195.594C43.504 195.476 43.5013 195.356 43.5 195.238C43.5027 195.356 43.504 195.472 43.5067 195.59C43.5067 195.591 43.5067 195.592 43.5067 195.594ZM116.665 173.874C116.955 170.696 117.28 167.566 117.628 164.571C117.628 164.571 117.628 164.571 117.628 164.57C117.628 164.571 117.628 164.571 117.628 164.571C117.281 167.564 116.957 170.692 116.667 173.87C116.667 173.871 116.667 173.872 116.665 173.874" fill="#E9E8E8"/>
<path d="M116.666 173.875C116.862 171.718 117.075 169.584 117.299 167.499C117.407 166.511 117.517 165.534 117.629 164.571C117.281 167.566 116.955 170.696 116.666 173.874V173.875Z" fill="#E5BB94"/>
<path d="M42.1913 173.338C41.914 170.344 41.606 167.396 41.2793 164.571C41.2793 164.571 41.2793 164.571 41.2793 164.57C41.2793 164.571 41.2793 164.571 41.2793 164.571C41.5233 166.675 41.7566 168.846 41.974 171.055C41.974 171.063 41.9753 171.071 41.9766 171.079C41.9766 171.091 41.978 171.102 41.9793 171.114C42.0513 171.851 42.122 172.594 42.1913 173.338Z" fill="#E9E8E8"/>
<path d="M41.9793 171.114C41.978 171.102 41.9766 171.091 41.9766 171.079C41.9766 171.091 41.978 171.103 41.9793 171.114ZM41.974 171.055C41.7566 168.846 41.5233 166.675 41.2793 164.571C41.3913 165.534 41.5006 166.511 41.6073 167.499C41.734 168.671 41.8553 169.856 41.974 171.055Z" fill="#E5BB94"/>
<path d="M117.633 164.563V164.562V164.563ZM37.4028 158.45C36.9935 157.748 36.6135 157.067 36.3028 156.456C36.3015 156.452 36.3002 156.45 36.2988 156.446C36.6108 157.059 36.9908 157.744 37.4028 158.45V158.45ZM121.686 158.136C122.027 157.542 122.343 156.967 122.608 156.446C122.607 156.45 122.604 156.452 122.603 156.456C122.339 156.975 122.026 157.546 121.686 158.136Z" fill="#E9E8E8"/>
<path d="M124.468 151.071L124.499 150.943C124.64 150.348 124.77 149.754 124.879 149.155L124.906 148.995C125.016 148.354 125.115 147.711 125.188 147.066C125.398 145.286 125.472 143.5 125.403 141.731C125.527 144.832 125.228 147.979 124.468 151.071V151.071ZM34.4164 150.98C34.3257 150.603 34.2404 150.226 34.1631 149.847C34.2391 150.214 34.3204 150.578 34.4084 150.943L34.4164 150.98V150.98ZM34.0244 149.139C33.5578 146.588 33.3938 144.015 33.5151 141.475C33.4271 143.328 33.4977 145.199 33.7177 147.066C33.7924 147.711 33.8911 148.354 34.0017 148.995L34.0244 149.139V149.139ZM125.331 140.506C125.328 140.479 125.21 140.138 125.014 139.548C125.022 139.212 125.023 138.878 125.016 138.543C125.104 138.792 125.17 139.014 125.192 139.17C125.227 139.454 125.259 139.739 125.283 140.026C125.3 140.186 125.314 140.346 125.331 140.506ZM33.5751 140.506C33.5924 140.346 33.6071 140.186 33.6244 140.026C33.6471 139.739 33.6818 139.454 33.7138 139.17C33.7351 139.014 33.8018 138.792 33.8884 138.543C33.8818 138.879 33.8818 139.216 33.8911 139.555C33.7698 139.92 33.6778 140.191 33.6244 140.348L33.5751 140.506Z" fill="#E5BB94"/>
<path d="M43.5073 195.59C43.5046 195.472 43.5033 195.356 43.5006 195.238C43.3766 188.424 43.322 180.964 42.2406 173.87C42.2233 173.692 42.2073 173.515 42.1913 173.338C42.122 172.594 42.0513 171.851 41.9793 171.114C41.978 171.103 41.9767 171.091 41.9767 171.079C41.9753 171.071 41.974 171.063 41.974 171.055C41.8553 169.856 41.734 168.671 41.6073 167.499C41.5006 166.511 41.3913 165.534 41.2793 164.571C41.2793 164.571 41.2793 164.571 41.2793 164.57C41.258 164.54 39.0793 161.326 37.4033 158.45C36.9913 157.744 36.6113 157.059 36.2993 156.446C36.014 155.819 35.7353 155.156 35.4686 154.468C35.0513 153.318 34.702 152.152 34.4166 150.98L34.4087 150.943C34.3207 150.578 34.2393 150.214 34.1633 149.847C34.114 149.611 34.0687 149.375 34.0247 149.139L34.002 148.995C33.8913 148.354 33.7926 147.711 33.718 147.066C33.498 145.199 33.4273 143.328 33.5153 141.475C33.5313 141.151 33.5513 140.828 33.5753 140.506L33.6247 140.348C33.678 140.191 33.77 139.92 33.8913 139.555C34.1007 147.75 38.8393 156.526 46.106 157.59C48.7233 157.972 51.0886 158.135 53.2526 158.135C64.8673 158.135 70.7286 153.463 79.2006 153.248V153.228L79.4527 153.238L79.706 153.228V153.248C88.178 153.463 94.0393 158.135 105.654 158.135C107.818 158.135 110.183 157.974 112.801 157.59C120.071 156.524 124.809 147.744 125.014 139.548C125.21 140.138 125.329 140.479 125.331 140.506C125.362 140.914 125.386 141.322 125.403 141.731C125.473 143.5 125.398 145.286 125.189 147.066C125.115 147.711 125.017 148.354 124.906 148.995L124.879 149.155C124.77 149.754 124.641 150.348 124.499 150.943L124.469 151.071C124.189 152.212 123.846 153.347 123.438 154.468C123.173 155.156 122.893 155.819 122.609 156.446C122.343 156.967 122.027 157.542 121.686 158.136C120.03 161.015 117.762 164.374 117.634 164.562V164.563C117.633 164.564 117.631 164.566 117.63 164.567C117.63 164.568 117.629 164.568 117.629 164.57C117.629 164.571 117.629 164.571 117.629 164.571C117.517 165.534 117.407 166.511 117.299 167.499C117.075 169.584 116.862 171.718 116.666 173.875C115.59 180.922 115.531 188.328 115.409 195.103C115.406 195.264 115.403 195.427 115.399 195.587C114.51 184.194 111.399 174.534 109.902 173.218C103.135 167.282 80.962 167.166 79.478 167.164H79.4286C77.946 167.166 55.7713 167.282 49.006 173.218C47.506 174.535 44.394 184.196 43.5073 195.59" fill="#369E55"/>
</svg>
