<svg width="246" height="240" viewBox="0 0 246 240" fill="none" xmlns="http://www.w3.org/2000/svg">
<path opacity="0.1" d="M42.4072 172.306C47.4126 189.685 62.7635 202.628 78.1893 211.625C126.642 239.879 182.481 242.237 234.321 237.477C253.092 235.753 272.079 233.088 288.24 224.362C321.135 206.603 337.132 162.598 325.285 122.412C321.259 108.744 314.461 95.8352 307.023 83.4646C293.8 61.4651 278.099 40.4718 258.39 24.4979C244.327 13.1131 228.561 4.52817 212.57 -2.93331C167.901 -23.7625 119.996 -36.4751 73.4867 -34.9672C53.0876 -34.3052 32.2181 -30.5401 17.2217 -17.6585C2.22526 -4.77692 -5.04028 19.2391 4.97539 39.2586C9.11716 47.5346 15.6817 54.3516 22.144 60.9501C31.6606 70.6642 41.3689 80.4546 48.436 92.1345C55.7316 104.206 62.2091 122.578 53.9484 133.289C45.0569 144.758 37.4091 154.95 42.4072 172.306Z" fill="#22C88A"/>
<path d="M92.2506 239C121.66 239 145.501 235.091 145.501 230.269C145.501 225.448 121.66 221.539 92.2506 221.539C62.8411 221.539 39 225.448 39 230.269C39 235.091 62.8411 239 92.2506 239Z" fill="#22C88A"/>
<path d="M147.324 174.028C144.929 174.629 142.47 173.461 142.47 173.461C142.47 173.461 140.373 171.032 138.604 170.704C136.836 170.375 136.151 173.249 135.1 173.988C134.372 174.507 129.127 174.136 125.951 173.859L125.404 173.81C125.35 173.77 125.296 173.728 125.238 173.69C125.238 173.69 122.188 172.752 121.552 171.921C120.917 171.091 116.668 169.554 115.35 169.643C114.032 169.732 110.135 169.943 110.135 169.943C110.135 169.943 108.608 168.205 107.918 168.385C107.229 168.566 104.831 168.371 104.831 168.371C104.831 168.371 104.172 166.677 103.513 164.249C103.206 163.116 102.183 162.32 101.181 161.797C102.082 158.747 100.477 150.047 95.4948 148.346C94.4087 147.975 93.8527 146.743 92.9285 146.067C92.1004 145.464 90.7445 144.042 91.4084 141.473C92.3467 137.876 94.6738 132.212 94.6738 132.212L96.4074 128.749C96.2456 128.995 96.0619 129.225 95.8584 129.437C96.093 129.136 96.3276 128.841 96.5293 128.592C98.2593 129.466 100.146 129.986 102.08 130.122C104.036 130.913 105.99 131.609 106.75 131.584C108.488 131.523 112.922 133.742 112.922 133.742C112.922 133.742 123.589 136.792 125.805 137.039C128.022 137.285 129.101 134.401 129.101 134.401C129.101 134.401 130.253 128.716 128.208 127.21C126.162 125.704 124.973 132.607 124.973 132.607L111.017 127.576L110.156 127.123C110.825 126.416 111.355 125.59 111.721 124.688C111.937 124.15 112.134 123.536 112.648 123.268C112.786 123.2 112.935 123.156 113.089 123.139C113.216 123.131 113.344 123.131 113.471 123.139C115.892 123.287 117.973 125.192 120.398 125.202C120.487 125.202 120.577 125.202 120.666 125.202C121.128 125.2 121.58 125.061 121.963 124.803C122.179 124.627 122.357 124.408 122.486 124.16C122.614 123.912 122.69 123.641 122.709 123.362C122.674 123.438 122.634 123.511 122.592 123.583C122.655 123.237 122.655 122.884 122.592 122.539C122.441 121.715 122.012 120.976 121.627 120.232C121.519 120.059 121.457 119.86 121.449 119.655C121.46 119.548 121.493 119.445 121.545 119.351C121.597 119.257 121.667 119.174 121.752 119.108C121.755 119.13 121.76 119.152 121.766 119.174C121.949 119.002 122.152 118.853 122.371 118.73C122.964 118.342 123.471 117.835 123.86 117.242C124.249 116.649 124.512 115.983 124.633 115.284C124.574 115.457 124.503 115.629 124.428 115.798C124.789 114.606 124.702 113.325 124.182 112.194C124.048 111.872 123.833 111.59 123.558 111.375C122.683 110.76 121.508 111.415 120.44 111.485C119.502 111.546 118.592 111.126 117.745 110.701C116.3 109.976 114.862 109.193 113.659 108.12C112.291 106.893 111.275 105.328 110.041 103.97C108.807 102.611 107.224 101.401 105.387 101.265C102.049 101.006 98.901 104.315 95.7271 103.235C94.1788 102.712 93.1607 101.281 92.084 100.051C91.0072 98.822 89.527 97.6418 87.9131 97.9069C86.7918 98.0946 85.8206 98.9651 84.6852 98.9323C84.0917 98.9135 83.5404 98.6484 82.9774 98.463C81.6145 98.0055 79.7472 98.2284 79.2616 99.5846C79.1662 99.8608 79.1325 100.155 79.1629 100.445C79.1933 100.736 79.2871 101.016 79.4375 101.267C79.3658 101.368 79.3015 101.473 79.2452 101.584C79.1286 101.799 79.0881 102.047 79.1302 102.288C78.1655 103.154 77.4506 104.263 77.0602 105.499C76.6697 106.736 76.6179 108.054 76.9102 109.317C77.2024 110.581 77.8281 111.742 78.7219 112.682C79.6158 113.621 80.7451 114.303 81.9922 114.657C82.0367 114.829 82.0813 115 82.1235 115.173C82.5786 117.09 82.8156 119.249 82.1423 120.704C82.1001 120.793 82.0555 120.88 82.0062 120.964L81.9476 120.99L81.9734 121.016L81.9476 120.99L81.8631 120.903L81.3518 120.368C81.3236 119.81 81.0093 118.313 78.8229 115.535C75.9446 111.877 75.405 105.823 75.405 105.823C75.405 105.823 74.6872 102.707 75.405 101.809C76.1229 100.91 77.3239 91.0158 77.3239 91.0158L79.3085 85.4457C79.3085 85.4457 88.957 75.6146 84.9385 74.418C82.2103 73.6038 78.9567 77.7991 77.1504 80.5724C76.2631 81.9342 75.6894 83.4761 75.4707 85.0867L70.0167 100.012C70.0167 100.012 69.4771 101.811 70.0167 104.927C70.5562 108.043 71.7549 113.559 71.7549 113.559L74.8045 121.29C74.8045 121.29 75.9282 124.629 75.8296 126.079C75.6959 126.166 75.2268 127.095 74.8209 127.94L74.523 128.409L74.5019 128.599C74.3025 129.024 74.1641 129.329 74.1641 129.329C74.1641 129.329 72.4657 134.343 73.8849 137.419C75.3042 140.495 75.3605 141.921 75.3605 141.921L76.4185 146.478L76.8595 150.467L80.6644 159.878L84.1691 164.882C84.1691 164.882 83.8407 168.568 83.1205 169.078C82.4003 169.587 82.7311 172.224 82.7311 172.224L82.2807 179.146C82.2807 179.146 80.8732 181.215 80.7841 184.57C80.6949 187.926 80.1835 188.888 80.1835 188.888C80.1835 188.888 79.9489 191.703 80.6034 192.994C81.2579 194.284 79.5548 195.631 79.5548 195.631L81.0163 200.65L80.4463 207.003C80.4463 207.003 80.7113 207.076 81.15 207.186L81.0609 207.642L78.6775 219.678C78.6775 219.678 77.3896 222.977 77.331 223.754L73.1648 231.278C73.1648 231.278 69.6882 234.725 71.3374 235.054C72.9865 235.382 77.7814 232.416 77.7814 232.416C77.7814 232.416 81.7365 228.16 83.2941 227.773C84.8517 227.386 86.5783 226.271 86.081 224.655C85.5837 223.038 84.4389 220.579 85.5414 217.97C86.2452 216.328 87.7418 211.87 88.7693 208.758C88.8256 208.587 88.8796 208.423 88.9335 208.263C89.2053 208.239 89.474 208.188 89.7358 208.111C92.2529 207.332 93.5712 207.876 93.5712 207.876L98.0659 189.685L99.0535 180.558L105.347 185.809C106.593 186.848 108.139 187.459 109.758 187.552C112.237 187.698 116.105 188.057 118.906 188.923L120.079 184.038C120.079 184.038 123.434 184.16 124.154 183.019C124.447 182.55 124.736 182.151 124.973 181.846L125.517 181.762L140.364 179.465C143.12 179.465 146.897 177.604 146.897 177.604L149.205 177.156C149.205 177.156 152.649 176.466 152.959 175.896C153.268 175.326 149.724 173.432 147.324 174.028Z" fill="url(#paint0_linear)"/>
<path d="M79.9539 100.76C80.4231 99.4367 82.2575 99.2138 83.5923 99.662C84.1412 99.845 84.6831 100.105 85.2626 100.131C86.3745 100.164 87.3246 99.31 88.4224 99.1294C90.0012 98.8666 91.4485 100.021 92.5018 101.225C93.5551 102.428 94.5544 103.829 96.0698 104.343C99.1734 105.389 102.256 102.161 105.521 102.412C107.313 102.55 108.862 103.73 110.07 105.061C111.278 106.391 112.273 107.921 113.61 109.122C114.783 110.178 116.19 110.945 117.609 111.656C118.437 112.072 119.322 112.482 120.246 112.421C121.292 112.353 122.442 111.717 123.296 112.313C123.564 112.524 123.774 112.8 123.906 113.116C124.957 115.302 124.11 118.214 122.052 119.5C121.693 119.723 121.257 119.969 121.236 120.399C121.243 120.599 121.303 120.794 121.41 120.964C121.785 121.691 122.207 122.417 122.348 123.221C122.489 124.026 122.299 124.953 121.644 125.441C121.217 125.725 120.709 125.864 120.197 125.837C117.823 125.826 115.787 123.96 113.417 123.817C113.114 123.783 112.807 123.83 112.528 123.953C112.026 124.214 111.825 124.817 111.62 125.342C110.523 128.085 107.797 129.993 104.888 130.516C101.979 131.039 98.9412 130.302 96.3373 128.904C96.1469 128.813 95.972 128.693 95.8188 128.547C95.6015 128.283 95.4481 127.973 95.3708 127.639C94.5732 125.117 93.4941 122.478 91.2843 121.02C89.851 120.082 87.9063 119.554 87.2565 117.97C86.8483 116.968 87.104 115.83 87.0008 114.751C86.8992 113.826 86.5387 112.948 85.9606 112.218C85.3826 111.489 84.6105 110.937 83.7331 110.626C83.3484 110.497 82.9261 110.406 82.6446 110.112C82.416 109.825 82.2701 109.48 82.2223 109.115C81.8728 107.527 81.6406 105.849 81.1526 104.298C80.7797 103.083 79.4543 102.151 79.9539 100.76Z" fill="#663D5B"/>
<g opacity="0.1">
<path opacity="0.1" d="M121.918 124.711C121.49 124.992 120.983 125.127 120.471 125.098C118.099 125.098 116.063 123.221 113.694 123.081C113.391 123.045 113.084 123.091 112.805 123.214C112.301 123.475 112.101 124.078 111.897 124.603C110.799 127.348 108.071 129.256 105.162 129.779C102.253 130.302 99.2154 129.566 96.6139 128.167C96.4237 128.076 96.2488 127.956 96.0955 127.811C95.8785 127.546 95.7252 127.236 95.6474 126.903C94.8498 124.378 93.7707 121.741 91.5609 120.281C90.1253 119.331 88.1806 118.817 87.5331 117.231C87.1226 116.227 87.3783 115.089 87.2774 114.012C87.1762 113.086 86.8155 112.208 86.237 111.478C85.6584 110.748 84.8855 110.197 84.0073 109.887C83.6226 109.758 83.2004 109.664 82.9189 109.373C82.69 109.085 82.5448 108.739 82.499 108.374C82.1471 106.788 81.9172 105.108 81.4293 103.559C81.1008 102.522 80.0663 101.682 80.1179 100.575C80.0876 100.633 80.0609 100.693 80.0382 100.755C79.5362 102.147 80.8639 103.078 81.2416 104.275C81.7295 105.823 81.9594 107.503 82.3113 109.089C82.3571 109.455 82.5024 109.801 82.7312 110.089C83.0127 110.38 83.435 110.474 83.8197 110.603C84.6982 110.913 85.4713 111.464 86.0499 112.195C86.6284 112.925 86.9889 113.804 87.0898 114.73C87.1906 115.807 86.9349 116.945 87.3455 117.949C87.9929 119.542 89.9376 120.061 91.3733 120.999C93.5784 122.461 94.6575 125.096 95.4597 127.621C95.5375 127.954 95.6908 128.264 95.9078 128.529C96.0611 128.674 96.236 128.794 96.4262 128.885C99.0278 130.293 102.056 131.018 104.974 130.497C107.893 129.976 110.604 128.066 111.709 125.321C111.921 124.796 112.115 124.193 112.617 123.932C112.896 123.809 113.203 123.763 113.506 123.798C115.876 123.942 117.912 125.807 120.283 125.816C120.796 125.843 121.303 125.705 121.731 125.422C121.943 125.25 122.117 125.037 122.243 124.794C122.369 124.552 122.444 124.287 122.463 124.014C122.344 124.29 122.157 124.53 121.918 124.711Z" fill="black"/>
<path opacity="0.1" d="M122.327 118.763C121.968 118.998 121.529 119.233 121.508 119.662C121.506 119.748 121.519 119.834 121.548 119.915C121.726 119.747 121.925 119.601 122.139 119.481C122.719 119.101 123.215 118.606 123.596 118.026C123.976 117.446 124.233 116.793 124.351 116.11C124.004 117.202 123.289 118.14 122.327 118.763Z" fill="black"/>
</g>
<path d="M86.0925 216.604C85.0063 219.157 86.1229 221.56 86.6203 223.146C87.1176 224.732 85.4192 225.814 83.8944 226.196C82.3696 226.579 78.499 230.741 78.499 230.741C78.499 230.741 73.8073 233.643 72.1933 233.322C70.5794 233 73.9809 229.626 73.9809 229.626L78.0579 222.264C78.1166 221.504 79.3763 218.275 79.3763 218.275L81.7081 206.497L82.0177 204.932L90.2845 204.432C90.2845 204.432 89.8505 205.774 89.2523 207.588C88.2459 210.638 86.7727 215.011 86.0925 216.604Z" fill="#CC818C"/>
<path d="M152.07 175.434C151.776 175.992 148.405 176.666 148.405 176.666L146.146 177.104C146.146 177.104 142.452 178.925 139.754 178.925L125.224 181.175L123.274 181.478V173.233C123.274 173.233 124.255 173.336 125.644 173.468C128.747 173.74 133.882 174.101 134.593 173.594C135.621 172.862 136.294 170.047 138.023 170.37C139.752 170.694 141.807 173.069 141.807 173.069C141.807 173.069 144.211 174.211 146.557 173.625C148.903 173.038 152.363 174.875 152.07 175.434Z" fill="#CC818C"/>
<path opacity="0.1" d="M125.738 180.537C125.738 180.537 125.529 180.772 125.224 181.173L123.274 181.475V173.233C123.274 173.233 124.255 173.336 125.644 173.468C127.975 175.309 125.738 180.537 125.738 180.537Z" fill="black"/>
<path d="M97.6763 178.632L105.481 185.145C106.7 186.161 108.213 186.759 109.797 186.851C112.223 186.994 116.009 187.344 118.758 188.193L119.903 183.411C119.903 183.411 123.187 183.529 123.891 182.414C124.304 181.756 124.765 181.129 125.268 180.537C125.268 180.537 127.644 174.995 124.947 173.294C124.947 173.294 121.956 172.384 121.339 171.562C120.722 170.741 116.56 169.247 115.27 169.333C113.98 169.42 110.168 169.627 110.168 169.627C110.168 169.627 108.671 167.926 107.998 168.102C107.325 168.278 104.977 168.102 104.977 168.102C104.977 168.102 104.331 166.443 103.686 164.066C103.041 161.689 99.2011 160.84 99.2011 160.84L97.6763 178.632Z" fill="#565987"/>
<path opacity="0.1" d="M97.6763 178.632L105.481 185.145C106.7 186.161 108.213 186.759 109.797 186.851C112.223 186.994 116.009 187.344 118.758 188.193L119.903 183.411C119.903 183.411 123.187 183.529 123.891 182.414C124.304 181.756 124.765 181.129 125.268 180.537C125.268 180.537 127.644 174.995 124.947 173.294C124.947 173.294 121.956 172.384 121.339 171.562C120.722 170.741 116.56 169.247 115.27 169.333C113.98 169.42 110.168 169.627 110.168 169.627C110.168 169.627 108.671 167.926 107.998 168.102C107.325 168.278 104.977 168.102 104.977 168.102C104.977 168.102 104.331 166.443 103.686 164.066C103.041 161.689 99.2011 160.84 99.2011 160.84L97.6763 178.632Z" fill="black"/>
<path d="M94.1856 120.237L93.3223 120.399H93.2684L93.1417 120.422L91.6638 120.697L91.2087 121.236L91.19 121.255L89.7285 122.987L88.4969 124.195L88.4852 124.209L87.4437 125.223L85.6819 126.975L85.3864 127.705L84.7436 129.322L84.577 129.732L82.8177 131.609L81.694 134.014L79.0667 135.539L76.2399 134.073L74.9497 132.196L75.2429 129.507L75.3016 128.97L76.1625 127.588L76.9437 126.33L78.4685 124.16L81.4008 122.165L81.9262 122.027L82.515 121.872C82.56 121.808 82.6015 121.741 82.6394 121.673C82.689 121.59 82.7337 121.505 82.7731 121.417C83.4323 119.995 83.2 117.881 82.7543 116.006C82.4127 114.604 81.9601 113.231 81.4008 111.9L89.1421 110.786C89.1421 110.786 89.067 112.287 89.067 114.629C89.067 115.216 89.067 115.852 89.0834 116.532C89.1209 118.644 91.0821 119.559 92.5623 119.948C92.9435 120.05 93.3305 120.128 93.7211 120.183C94.0073 120.227 94.1856 120.237 94.1856 120.237Z" fill="#CC818C"/>
<path d="M81.9871 121.344C81.9871 121.344 82.339 119.936 79.524 116.358C76.709 112.78 76.1812 106.856 76.1812 106.856C76.1812 106.856 75.4774 103.806 76.1812 102.926C76.8849 102.046 78.0578 92.3673 78.0578 92.3673L79.9932 86.9121C79.9932 86.9121 89.4352 77.2922 85.5059 76.1191C82.8363 75.3213 79.6413 79.4297 77.8843 82.1421C77.0164 83.4749 76.4555 84.984 76.2422 86.5602L70.903 101.166C70.903 101.166 70.3752 102.926 70.903 105.976C71.4309 109.026 72.6038 114.423 72.6038 114.423L75.5947 121.997C75.5947 121.997 77.1688 126.713 76.3524 127.287L78.1751 124.592L81.9871 121.344Z" fill="#CC818C"/>
<path d="M128.728 134.843C128.728 134.843 127.673 137.658 125.503 137.423C123.333 137.189 112.894 134.197 112.894 134.197C112.894 134.197 108.554 132.027 106.853 132.086C105.153 132.144 97.3526 128.508 97.3526 128.508C97.3526 128.508 96.8037 129.23 96.1914 129.99C95.5252 130.823 94.7839 131.703 94.5962 131.734C94.2444 131.792 88.7903 132.555 88.7903 132.555L85.0956 130.854L84.7437 129.322L84.5771 128.618L85.3958 127.705L86.4726 126.506L88.4924 124.202L88.5041 124.188L91.1995 121.257L91.2182 121.239L92.9448 120.535L93.2779 120.399H93.3318C93.5383 120.363 94.3312 120.291 95.3938 120.891C96.1339 121.311 96.9556 121.565 97.803 121.638C99.4896 121.758 101.087 122.442 102.338 123.58L111.017 128.149L124.682 133.076C124.682 133.076 125.855 126.33 127.849 127.797C129.843 129.263 128.728 134.843 128.728 134.843Z" fill="#CC818C"/>
<path opacity="0.1" d="M96.1913 129.99C95.5251 130.823 94.7838 131.703 94.5961 131.734C94.2442 131.792 88.7902 132.555 88.7902 132.555L85.0955 130.854L84.7436 129.322L84.577 129.732L82.8177 131.609L81.694 134.014L79.0667 135.539L76.2399 134.073L74.9497 132.196L75.2429 129.507C75.3907 129.188 75.7942 128.32 76.1625 127.588C76.3365 127.184 76.5553 126.802 76.8147 126.447C77.0492 126.293 77.2955 124.629 77.2955 124.629C78.3606 121.558 81.9286 121.086 81.9286 121.086L82.4986 121.621L82.7473 121.879C82.6464 121.863 82.766 121.645 82.637 121.68C82.4306 121.738 82.3391 122.05 82.074 122.222C80.6313 123.16 78.377 125.349 77.4856 126.389C77.2697 126.64 77.0469 126.886 76.8193 127.126C75.5315 128.489 75.7684 130.295 75.7684 130.295C75.447 131.703 78.2902 132.759 78.2902 132.759C79.0831 131.44 84.448 127.804 84.448 127.804L88.0606 123.756C89.1679 121.828 91.3448 120.554 92.5599 119.958C93.0971 119.695 93.449 119.563 93.449 119.563L94.8002 120.141C94.4434 120.045 94.0659 120.061 93.7188 120.188C93.5194 120.249 93.3255 120.328 93.1394 120.422C93.069 120.457 92.9986 120.495 92.9329 120.535C92.5634 120.749 92.2161 121 91.8961 121.283L88.8605 124.599C86.5405 127.13 88.2882 131.225 91.7201 131.283H91.7506C93.8478 131.767 95.3515 130.795 96.1913 129.99Z" fill="black"/>
<path opacity="0.1" d="M90.2844 204.439C90.2844 204.439 89.8504 205.781 89.2522 207.595C86.958 207.766 83.1695 206.879 81.708 206.504L82.0177 204.939L90.2844 204.439Z" fill="black"/>
<path d="M82.7497 121.879L81.999 121.11C81.999 121.11 79.2896 121.48 77.6076 124.376C77.6076 124.376 76.8218 126.546 76.5801 126.701C76.3385 126.856 74.9498 129.889 74.9498 129.889C74.9498 129.889 73.2889 134.796 74.6753 137.808C76.0617 140.821 76.1227 142.208 76.1227 142.208L77.1596 146.666L77.5889 150.575L81.314 159.784L84.7437 164.671C84.7437 164.671 84.4223 168.277 83.7185 168.777C83.0148 169.277 83.3362 171.856 83.3362 171.856L82.8975 178.632C82.8975 178.632 81.5181 180.654 81.4313 183.939C81.3445 187.224 80.8449 188.162 80.8449 188.162C80.8449 188.162 80.6103 190.919 81.2554 192.182C81.9005 193.444 80.2279 194.763 80.2279 194.763L81.6659 199.659L81.1076 205.877C81.1076 205.877 87.7346 207.726 90.1977 206.963C92.6609 206.201 93.9511 206.729 93.9511 206.729L98.3495 188.918L99.8743 174.929C99.8743 174.929 99.9635 165.016 101.282 161.994C102.413 159.413 100.93 150.218 95.8372 148.482C94.7745 148.12 94.2349 146.914 93.3271 146.253C92.5154 145.664 91.19 144.272 91.8398 141.757C92.75 138.238 95.0372 132.696 95.0372 132.696L96.7309 129.322C96.7309 129.322 94.8894 132.302 91.5185 131.539H91.488C88.056 131.478 86.3083 127.384 88.6284 124.854L91.6639 121.537C91.6639 121.537 93.3365 119.995 94.5681 120.385L93.2192 119.807C93.2192 119.807 89.4213 121.215 87.8238 124L84.2112 128.048C84.2112 128.048 78.8509 131.668 78.058 132.996C78.058 132.996 75.2149 131.94 75.5362 130.532C75.5362 130.532 75.3017 128.723 76.5872 127.36C76.8218 127.126 77.0376 126.877 77.2534 126.626C78.4099 125.274 81.6073 121.689 82.7497 121.879Z" fill="#565987"/>
<path opacity="0.1" d="M83.1911 146.046C83.1911 146.046 82.3396 152.236 82.9847 153.496L83.1911 146.046Z" fill="black"/>
<path opacity="0.1" d="M83.7466 148.451L84.6568 152.001C84.6568 152.001 84.9782 149.831 83.7466 148.451Z" fill="black"/>
<path opacity="0.1" d="M78.3516 147.623C78.3516 147.623 80.1696 156.656 82.1636 159.385L78.3516 147.623Z" fill="black"/>
<path opacity="0.1" d="M91.1666 158.512C91.1666 158.512 88.0584 161.445 86.855 161.232C86.855 161.232 91.6358 161.438 93.1301 158.916C93.1301 158.923 92.1636 158.219 91.1666 158.512Z" fill="black"/>
<path opacity="0.1" d="M95.4762 158.278C95.4762 158.278 91.4883 161.18 90.6978 161.445C90.6978 161.445 95.0071 160.213 95.4762 158.278Z" fill="black"/>
<path opacity="0.1" d="M81.9875 136.72C81.9875 136.72 79.9936 139.272 78.9966 138.979C78.9966 138.979 81.4316 139.066 81.9875 136.72Z" fill="black"/>
<path opacity="0.1" d="M84.2466 140.004C84.2466 140.004 88.5864 134.111 90.639 134.345C90.639 134.345 85.7127 138.627 84.2466 140.004Z" fill="black"/>
<path opacity="0.1" d="M90.2565 137.86C90.2565 137.86 87.5001 139.242 87.7933 139.645C88.0866 140.049 90.2565 137.86 90.2565 137.86Z" fill="black"/>
<path opacity="0.1" d="M92.2505 183.118C92.2505 183.118 83.043 188.486 82.1938 188.749C82.1938 188.749 83.7773 189.953 85.2716 189.366C86.7659 188.78 92.2505 183.118 92.2505 183.118Z" fill="black"/>
<path opacity="0.1" d="M84.5398 194.293C84.5398 194.293 80.8451 193.911 80.9905 195.115C81.136 196.318 84.5398 194.293 84.5398 194.293Z" fill="black"/>
<path opacity="0.1" d="M89.1422 110.786C89.1422 110.786 89.0671 112.287 89.0671 114.629C88.1985 115.341 87.1734 115.837 86.0761 116.076C84.9788 116.315 83.8404 116.29 82.7544 116.004C82.4128 114.602 81.9602 113.229 81.4009 111.898L89.1422 110.786Z" fill="black"/>
<path d="M84.5678 115.781C88.487 115.781 91.664 112.603 91.664 108.684C91.664 104.764 88.487 101.586 84.5678 101.586C80.6487 101.586 77.4717 104.764 77.4717 108.684C77.4717 112.603 80.6487 115.781 84.5678 115.781Z" fill="#CC818C"/>
<path opacity="0.1" d="M86.4278 113.015C86.6272 115.917 87.2371 119.237 89.7566 120.697C91.5769 121.75 93.8712 121.473 95.8862 120.873C97.9013 120.272 99.8742 119.376 101.971 119.275C103.583 119.197 105.176 119.594 106.783 119.695C108.39 119.796 110.149 119.545 111.296 118.414C112.938 116.804 112.638 113.878 111.083 112.187C109.527 110.495 107.095 109.88 104.791 109.944C101.976 110.021 98.8326 110.882 96.6064 109.174C95.1121 108.024 94.5468 106.03 93.2894 104.624C91.1899 102.278 81.905 98.89 79.9392 102.715C79.0173 104.505 83.207 105.783 84.1782 107.079C85.7123 109.122 86.2448 110.335 86.4278 113.015Z" fill="black"/>
<path d="M86.6466 112.764C86.8483 115.668 87.4559 118.989 89.9753 120.446C91.7957 121.499 94.0899 121.222 96.105 120.624C98.1201 120.026 100.093 119.127 102.192 119.026C103.802 118.949 105.395 119.343 107.004 119.446C108.613 119.549 110.368 119.296 111.515 118.165C113.157 116.553 112.857 113.63 111.301 111.938C109.746 110.246 107.313 109.631 105.012 109.695C102.197 109.77 99.0514 110.633 96.8252 108.923C95.3309 107.773 94.7655 105.781 93.5082 104.373C91.4086 102.027 82.1238 98.6413 80.158 102.466C79.2361 104.254 83.4257 105.532 84.3993 106.83C85.9311 108.871 86.4636 110.082 86.6466 112.764Z" fill="#663D5B"/>
<path opacity="0.1" d="M78.1118 132.757C78.2207 131.831 78.5258 130.939 79.0068 130.14C79.4878 129.341 80.1335 128.654 80.901 128.125" fill="black"/>
<path opacity="0.1" d="M104.719 169.509C104.697 169.739 104.641 169.965 104.552 170.178C104.245 171.099 103.875 171.998 103.445 172.869C104.071 172.815 104.587 172.323 104.852 171.755C105.084 171.171 105.212 170.55 105.23 169.922C105.253 169.726 105.259 169.528 105.246 169.331C105.23 169.148 105.113 168.449 104.81 168.573C104.566 168.676 104.723 169.324 104.719 169.509Z" fill="black"/>
<path opacity="0.1" d="M111.937 117.431C110.788 118.562 109.033 118.815 107.424 118.712C105.814 118.608 104.215 118.214 102.612 118.294C100.501 118.395 98.5447 119.291 96.5273 119.892C94.5098 120.493 92.2179 120.769 90.3952 119.716C87.8781 118.256 87.2682 114.936 87.0688 112.034C86.8858 109.355 86.351 108.142 84.8192 106.098C83.8926 104.861 80.0454 103.641 80.4864 101.98C80.3589 102.13 80.2487 102.294 80.158 102.468C79.2361 104.256 83.4257 105.535 84.3993 106.832C85.9311 108.874 86.4636 110.089 86.6466 112.766C86.8483 115.671 87.4559 118.991 89.9753 120.448C91.7957 121.501 94.0899 121.225 96.105 120.626C98.1201 120.028 100.093 119.129 102.192 119.028C103.802 118.951 105.395 119.345 107.004 119.448C108.613 119.552 110.368 119.298 111.515 118.167C111.841 117.844 112.1 117.46 112.277 117.036C112.174 117.176 112.06 117.308 111.937 117.431Z" fill="black"/>
<path d="M77.6031 138.766L76.7422 140.643L79.4798 140.096L77.6031 138.766Z" fill="#CC818C"/>
<path opacity="0.1" d="M77.6031 138.766L76.8947 140.643H76.7422L77.6031 138.766Z" fill="black"/>
<path opacity="0.1" d="M145.346 223.962C150.658 223.962 154.964 223.371 154.964 222.642C154.964 221.912 150.658 221.321 145.346 221.321C140.035 221.321 135.729 221.912 135.729 222.642C135.729 223.371 140.035 223.962 145.346 223.962Z" fill="#22C88A"/>
<path opacity="0.1" d="M182.188 227.698C187.5 227.698 191.806 227.106 191.806 226.377C191.806 225.647 187.5 225.056 182.188 225.056C176.876 225.056 172.57 225.647 172.57 226.377C172.57 227.106 176.876 227.698 182.188 227.698Z" fill="#22C88A"/>
<path opacity="0.1" d="M225.583 222.642C230.895 222.642 235.201 222.05 235.201 221.321C235.201 220.591 230.895 220 225.583 220C220.271 220 215.965 220.591 215.965 221.321C215.965 222.05 220.271 222.642 225.583 222.642Z" fill="#22C88A"/>
<path opacity="0.1" d="M167.442 237.954C171.218 237.954 174.278 237.533 174.278 237.015C174.278 236.497 171.218 236.076 167.442 236.076C163.667 236.076 160.606 236.497 160.606 237.015C160.606 237.533 163.667 237.954 167.442 237.954Z" fill="#22C88A"/>
<path opacity="0.1" d="M205.679 237.015C209.454 237.015 212.515 236.595 212.515 236.076C212.515 235.558 209.454 235.138 205.679 235.138C201.904 235.138 198.843 235.558 198.843 236.076C198.843 236.595 201.904 237.015 205.679 237.015Z" fill="#22C88A"/>
<path d="M182.397 226.081C182.397 226.081 168.908 181.853 184.508 164.139C196.176 150.887 209.423 152.473 215.356 154.11C216.891 154.519 218.319 155.257 219.54 156.273C220.762 157.289 221.748 158.558 222.431 159.993C224.504 164.469 224.131 171.724 209.491 180.211C184.977 194.406 183.452 213.88 183.452 213.88L182.397 226.081Z" fill="#22C88A"/>
<path d="M213.245 160.384C213.245 160.384 173.483 172.82 182.397 226.081" stroke="#565987" stroke-miterlimit="10"/>
<path d="M190.021 164.842C190.021 164.842 195.493 168.533 193.755 174.078" stroke="#565987" stroke-miterlimit="10"/>
<path d="M209.257 168.127C209.257 168.127 205.909 164.721 201.834 166.6" stroke="#565987" stroke-miterlimit="10"/>
<path d="M193.539 185.255C193.539 185.255 187.661 182.271 186.141 186.009" stroke="#565987" stroke-miterlimit="10"/>
<path d="M178.995 191.473C178.995 191.473 183.408 191.121 183.487 193.233" stroke="#565987" stroke-miterlimit="10"/>
<path d="M181.861 226.433C181.861 226.433 197.658 194.289 201.998 194.993C204.06 195.326 205.01 197.355 205.439 199.392C205.969 202.028 205.664 204.764 204.567 207.219C202.326 212.36 196.305 222.128 181.861 226.433Z" fill="#22C88A"/>
<path d="M201.869 201.093C201.869 201.093 185.289 225.143 182.084 226.199" stroke="#565987" stroke-miterlimit="10"/>
<path d="M203.395 204.847H199.524" stroke="#565987" stroke-miterlimit="10"/>
<path d="M198.759 213.646L192.692 213.906" stroke="#565987" stroke-miterlimit="10"/>
<path d="M195.066 206.607L195.726 209.767" stroke="#565987" stroke-miterlimit="10"/>
<path d="M188.616 216.227L188.733 219.099" stroke="#565987" stroke-miterlimit="10"/>
<path d="M182.331 226.433C182.331 226.433 166.534 194.289 162.194 194.993C160.132 195.326 159.182 197.355 158.753 199.392C158.215 202.026 158.512 204.762 159.602 207.219C161.842 212.36 167.864 222.128 182.331 226.433Z" fill="#22C88A"/>
<path d="M162.3 201.093C162.3 201.093 178.88 225.143 182.085 226.199" stroke="#565987" stroke-miterlimit="10"/>
<path d="M160.772 204.847H164.643" stroke="#565987" stroke-miterlimit="10"/>
<path d="M165.411 213.646L171.477 213.906" stroke="#565987" stroke-miterlimit="10"/>
<path d="M169.1 206.607L168.443 209.767" stroke="#565987" stroke-miterlimit="10"/>
<path d="M175.551 216.227L175.434 219.099" stroke="#565987" stroke-miterlimit="10"/>
<path d="M209.444 233.939C209.875 233.589 210.189 233.116 210.345 232.583C210.46 232.043 210.23 231.398 209.716 231.201C209.139 230.98 208.522 231.379 208.055 231.783C207.588 232.186 207.051 232.649 206.439 232.562C206.753 232.276 206.988 231.914 207.121 231.511C207.254 231.107 207.28 230.676 207.197 230.26C207.171 230.087 207.098 229.924 206.985 229.791C206.666 229.448 206.085 229.596 205.7 229.866C204.48 230.725 204.14 232.381 204.135 233.873C204.011 233.334 204.114 232.773 204.112 232.231C204.109 231.689 203.957 231.058 203.493 230.771C203.206 230.613 202.882 230.532 202.554 230.537C202.005 230.518 201.395 230.572 201.02 230.973C200.551 231.471 200.675 232.308 201.081 232.85C201.487 233.392 202.101 233.742 202.667 234.122C203.123 234.391 203.511 234.761 203.802 235.204C203.837 235.265 203.865 235.329 203.887 235.396H207.323C208.093 235.008 208.806 234.518 209.444 233.939Z" fill="#22C88A"/>
<path d="M149.254 220.994C149.685 220.643 149.999 220.17 150.153 219.636C150.27 219.096 150.04 218.463 149.524 218.254C148.947 218.033 148.333 218.432 147.863 218.838C147.394 219.244 146.859 219.702 146.249 219.617C146.564 219.33 146.798 218.967 146.93 218.562C147.062 218.157 147.087 217.725 147.002 217.308C146.976 217.136 146.903 216.973 146.791 216.839C146.47 216.497 145.891 216.642 145.506 216.912C144.286 217.771 143.946 219.427 143.939 220.919C143.817 220.382 143.92 219.821 143.918 219.277C143.915 218.733 143.763 218.104 143.296 217.815C143.008 217.66 142.684 217.584 142.358 217.595C141.811 217.573 141.199 217.627 140.826 218.029C140.357 218.528 140.481 219.364 140.885 219.906C141.288 220.448 141.905 220.797 142.473 221.177C142.927 221.448 143.314 221.818 143.606 222.259C143.641 222.321 143.669 222.386 143.69 222.454H147.129C147.9 222.065 148.615 221.574 149.254 220.994Z" fill="#22C88A"/>
<path d="M169.309 233.939C169.74 233.589 170.055 233.116 170.21 232.583C170.325 232.043 170.095 231.398 169.581 231.201C169.004 230.98 168.387 231.379 167.921 231.783C167.454 232.186 166.916 232.649 166.304 232.562C166.619 232.277 166.855 231.915 166.988 231.511C167.121 231.108 167.147 230.677 167.064 230.26C167.039 230.087 166.966 229.924 166.853 229.791C166.534 229.448 165.952 229.596 165.568 229.866C164.348 230.725 164.008 232.381 164.003 233.873C163.879 233.334 163.982 232.773 163.98 232.231C163.977 231.689 163.825 231.058 163.36 230.771C163.073 230.613 162.75 230.532 162.422 230.537C161.873 230.518 161.263 230.572 160.888 230.973C160.419 231.471 160.543 232.308 160.949 232.85C161.355 233.392 161.969 233.742 162.534 234.122C162.99 234.391 163.379 234.761 163.67 235.204C163.704 235.265 163.733 235.329 163.754 235.396H167.191C167.959 235.008 168.672 234.518 169.309 233.939Z" fill="#22C88A"/>
<path d="M226.198 207.771C226.198 207.771 227.488 209.455 225.605 211.994C223.721 214.533 222.168 216.687 222.79 218.273C222.79 218.273 225.633 213.547 227.95 213.482C230.268 213.416 228.753 210.612 226.198 207.771Z" fill="#22C88A"/>
<path opacity="0.1" d="M226.198 207.771C226.311 207.933 226.4 208.111 226.461 208.299C228.72 210.95 229.921 213.425 227.751 213.489C225.732 213.545 223.308 217.161 222.727 218.073C222.746 218.143 222.768 218.212 222.795 218.28C222.795 218.28 225.638 213.554 227.955 213.489C230.273 213.423 228.753 210.612 226.198 207.771Z" fill="black"/>
<path d="M228.602 209.917C228.602 210.511 228.537 210.992 228.455 210.992C228.372 210.992 228.309 210.504 228.309 209.917C228.309 209.331 228.391 209.605 228.473 209.605C228.555 209.605 228.602 209.331 228.602 209.917Z" fill="#FFD037"/>
<path d="M229.426 210.626C228.905 210.91 228.45 211.081 228.413 211.011C228.375 210.94 228.762 210.65 229.283 210.366C229.804 210.082 229.6 210.288 229.637 210.366C229.675 210.443 229.952 210.342 229.426 210.626Z" fill="#FFD037"/>
<path d="M219.395 207.771C219.395 207.771 218.105 209.455 219.988 211.994C221.872 214.533 223.425 216.687 222.803 218.273C222.803 218.273 219.963 213.547 217.643 213.482C215.322 213.416 216.857 210.612 219.395 207.771Z" fill="#22C88A"/>
<path opacity="0.1" d="M219.395 207.771C219.282 207.933 219.193 208.111 219.13 208.299C216.873 210.95 215.672 213.425 217.84 213.489C219.862 213.545 222.297 217.161 222.867 218.073C222.848 218.144 222.825 218.213 222.797 218.28C222.797 218.28 219.956 213.554 217.636 213.489C215.316 213.423 216.857 210.612 219.395 207.771Z" fill="black"/>
<path d="M217.004 209.917C217.004 210.511 217.072 210.992 217.155 210.992C217.237 210.992 217.302 210.511 217.302 209.917C217.302 209.324 217.22 209.605 217.138 209.605C217.056 209.605 217.004 209.331 217.004 209.917Z" fill="#FFD037"/>
<path d="M216.184 210.626C216.704 210.91 217.157 211.081 217.197 211.011C217.237 210.94 216.848 210.65 216.327 210.366C215.806 210.082 216.01 210.288 215.97 210.366C215.93 210.443 215.663 210.342 216.184 210.626Z" fill="#FFD037"/>
<path d="M217.415 218.059C217.415 218.059 221.018 217.949 222.107 217.175C223.195 216.4 227.65 215.478 227.92 216.719C228.19 217.961 233.334 222.888 229.266 222.921C225.199 222.954 219.815 222.287 218.731 221.626C217.647 220.964 217.415 218.059 217.415 218.059Z" fill="#A8A8A8"/>
<path opacity="0.2" d="M229.337 222.489C225.269 222.522 219.883 221.856 218.799 221.194C217.976 220.692 217.645 218.887 217.537 218.054H217.415C217.415 218.054 217.65 220.962 218.729 221.621C219.808 222.28 225.196 222.949 229.264 222.916C230.437 222.916 230.843 222.489 230.821 221.87C230.655 222.247 230.209 222.482 229.337 222.489Z" fill="black"/>
<path d="M98.1714 48.6149L98.1117 49.5179C98.1029 49.6405 97.8947 52.5603 96.3593 55.9726C95.0417 58.8993 92.4776 62.7112 87.6368 64.8535C87.259 65.0217 86.867 65.1786 86.4606 65.3243L86.0073 63.722C87.1452 63.3188 88.2413 62.779 89.2767 62.1118C91.7442 60.5075 93.6626 58.2178 95.0004 55.2713C95.7102 53.7026 96.216 52.0271 96.5025 50.2963H90.9949V48.6149H98.1714Z" fill="#22C88A"/>
<path opacity="0.1" d="M87.0438 64.8545C91.8838 62.7122 94.4487 58.9013 95.7654 55.9746C97.3009 52.5623 97.5099 49.6445 97.5178 49.5199L97.5775 48.6168H98.1924L98.1327 49.5199C98.1248 49.6425 97.9157 52.5623 96.3803 55.9746C95.0627 58.9013 92.4986 62.7122 87.6587 64.8545C87.281 65.0227 86.8886 65.1799 86.4816 65.3263L86.4219 65.1156C86.6339 65.0306 86.8412 64.9435 87.0438 64.8545Z" fill="white"/>
<path d="M77.3531 63.722L76.8998 65.3243C76.4928 65.1779 76.1005 65.0207 75.7227 64.8525C70.8828 62.7102 68.3178 58.8993 67.0011 55.9726C65.4657 52.5603 65.2566 49.6425 65.2487 49.5179L65.189 48.6149H72.362V50.2963H66.8535C67.1415 52.0273 67.6488 53.7028 68.36 55.2713C69.6978 58.2178 71.6153 60.5075 74.0828 62.1108C75.1183 62.7787 76.2147 63.3189 77.3531 63.722Z" fill="#22C88A"/>
<path opacity="0.1" d="M76.3151 64.8545C71.4752 62.7122 68.9102 58.9013 67.5935 55.9746C66.0581 52.5623 65.849 49.6445 65.8411 49.5199L65.7814 48.6168H65.1665L65.2262 49.5199C65.2341 49.6425 65.4432 52.5623 66.9786 55.9746C68.2962 58.9013 70.8603 62.7122 75.7003 64.8545C76.078 65.0227 76.4703 65.1799 76.8773 65.3263L76.9371 65.1156C76.7257 65.0306 76.5184 64.9435 76.3151 64.8545Z" fill="white"/>
<path d="M89.9663 79.211V88.2778H73.3936V79.211L73.9206 78.4197C79.2911 76.2734 80.3795 70.6762 80.5964 68.4617C80.6287 68.1557 80.6472 67.848 80.6518 67.5399H82.7011C82.7057 67.848 82.7241 68.1557 82.7564 68.4617C82.9769 70.6762 84.0652 76.2754 89.4323 78.4197L89.9663 79.211Z" fill="#22C88A"/>
<path opacity="0.1" d="M89.9663 79.211H73.3936V80.3484H89.9663V79.211Z" fill="black"/>
<path opacity="0.1" d="M74.799 78.4197C80.1695 76.2734 81.2579 70.6762 81.4748 68.4617C81.5071 68.1557 81.5256 67.848 81.5302 67.5399H80.6518C80.6472 67.848 80.6287 68.1557 80.5964 68.4617C80.3759 70.6762 79.2876 76.2754 73.9206 78.4197L73.3936 79.211V88.2778H74.272V79.211L74.799 78.4197Z" fill="white"/>
<path opacity="0.1" d="M70.8765 48.6149H72.3627V50.2963H71.0082C70.9549 49.7424 70.911 49.1819 70.8765 48.6149Z" fill="black"/>
<path opacity="0.1" d="M77.3533 63.722L76.9 65.3243C76.493 65.1779 76.1007 65.0207 75.723 64.8525C75.1016 63.9982 74.5526 63.0803 74.083 62.1108C75.1185 62.7787 76.2149 63.3189 77.3533 63.722Z" fill="black"/>
<path opacity="0.1" d="M86.0063 63.722C87.1443 63.3188 88.2404 62.779 89.2758 62.1118C88.8059 63.0814 88.2569 63.9996 87.6358 64.8545C87.2581 65.0227 86.866 65.1796 86.4596 65.3253L86.0063 63.722Z" fill="black"/>
<path opacity="0.1" d="M92.4824 48.6149C92.4479 49.1819 92.404 49.7424 92.3507 50.2963H90.9971V48.6149H92.4824Z" fill="black"/>
<path opacity="0.1" d="M82.7601 68.4617C82.0467 68.6173 81.3135 68.6173 80.6001 68.4617C80.6324 68.1557 80.6509 67.848 80.6554 67.5399H82.7047C82.7093 67.848 82.7278 68.1557 82.7601 68.4617Z" fill="black"/>
<path d="M71.0518 45.8296C71.0895 58.2979 75.8329 68.3806 81.6804 68.3806C87.5279 68.3806 92.2704 58.2979 92.309 45.8296H71.0518Z" fill="#22C88A"/>
<path opacity="0.1" d="M72.9403 45.8296H71.0518C71.0895 58.2979 75.8329 68.3806 81.6804 68.3806C81.9968 68.3799 82.3127 68.3498 82.6247 68.2906C77.219 67.2738 72.9763 57.6194 72.9403 45.8296Z" fill="white"/>
<path d="M87.316 82.6816H76.0435V85.9456H87.316V82.6816Z" fill="#3F3D56"/>
<path opacity="0.1" d="M76.5705 83.1267H87.316V82.6816H76.0435V85.9456H76.5705V83.1267Z" fill="white"/>
<defs>
<linearGradient id="paint0_linear" x1="111.379" y1="235.072" x2="111.379" y2="74.3077" gradientUnits="userSpaceOnUse">
<stop stop-color="#808080" stop-opacity="0.25"/>
<stop offset="0.54" stop-color="#808080" stop-opacity="0.12"/>
<stop offset="1" stop-color="#808080" stop-opacity="0.1"/>
</linearGradient>
</defs>
</svg>
