<svg width="328" height="251" viewBox="0 0 328 251" fill="none" xmlns="http://www.w3.org/2000/svg">
<path opacity="0.1" d="M124.407 172.306C129.413 189.685 144.763 202.628 160.189 211.625C208.642 239.879 264.481 242.237 316.321 237.477C335.092 235.753 354.079 233.088 370.24 224.362C403.135 206.603 419.132 162.598 407.285 122.412C403.259 108.744 396.461 95.8352 389.023 83.4646C375.8 61.4651 360.099 40.4718 340.39 24.4979C326.327 13.1131 310.561 4.52817 294.57 -2.93331C249.901 -23.7625 201.996 -36.4751 155.487 -34.9672C135.088 -34.3052 114.218 -30.5401 99.2217 -17.6585C84.2253 -4.77692 76.9597 19.2391 86.9754 39.2586C91.1172 47.5346 97.6817 54.3516 104.144 60.9501C113.661 70.6642 123.369 80.4546 130.436 92.1345C137.732 104.206 144.209 122.578 135.948 133.289C127.057 144.758 119.409 154.95 124.407 172.306Z" fill="#22C88A"/>
<path opacity="0.1" d="M22.6115 220.86C31.4112 220.86 38.5447 218.324 38.5447 215.195C38.5447 212.066 31.4112 209.53 22.6115 209.53C13.8118 209.53 6.67822 212.066 6.67822 215.195C6.67822 218.324 13.8118 220.86 22.6115 220.86Z" fill="black"/>
<path opacity="0.1" d="M280.015 244.282C288.815 244.282 295.949 241.746 295.949 238.617C295.949 235.488 288.815 232.952 280.015 232.952C271.216 232.952 264.082 235.488 264.082 238.617C264.082 241.746 271.216 244.282 280.015 244.282Z" fill="black"/>
<path d="M279.371 239.421C279.371 239.421 283.62 224.96 278.571 214.317C276.42 209.866 275.772 204.838 276.722 199.988C277.192 197.688 277.871 195.436 278.751 193.26" stroke="#535461" stroke-width="2" stroke-miterlimit="10"/>
<path d="M275.607 186.536C275.607 188.307 278.815 193.448 278.815 193.448C278.815 193.448 282.023 188.31 282.023 186.536C282.023 185.685 281.685 184.869 281.083 184.267C280.481 183.665 279.664 183.327 278.813 183.327C277.962 183.327 277.146 183.665 276.544 184.267C275.942 184.869 275.604 185.685 275.604 186.536H275.607Z" fill="#22C88A"/>
<path d="M270.303 196.355C271.266 197.842 276.754 200.413 276.754 200.413C276.754 200.413 276.655 194.354 275.692 192.867C275.463 192.514 275.166 192.209 274.82 191.969C274.473 191.73 274.082 191.562 273.67 191.474C273.258 191.386 272.833 191.38 272.418 191.456C272.004 191.532 271.609 191.689 271.255 191.918C270.902 192.147 270.597 192.444 270.358 192.791C270.118 193.137 269.95 193.528 269.862 193.94C269.774 194.352 269.768 194.777 269.844 195.192C269.92 195.606 270.077 196.001 270.306 196.355H270.303Z" fill="#22C88A"/>
<path d="M270.533 213.127C272.116 213.924 278.149 213.375 278.149 213.375C278.149 213.375 275.005 208.195 273.422 207.398C272.663 207.015 271.782 206.95 270.974 207.216C270.166 207.482 269.496 208.058 269.113 208.818C268.73 209.578 268.664 210.459 268.931 211.267C269.197 212.075 269.773 212.744 270.533 213.127Z" fill="#22C88A"/>
<path d="M273.568 225.782C274.984 226.844 281.032 227.311 281.032 227.311C281.032 227.311 278.808 221.675 277.385 220.623C276.701 220.117 275.843 219.903 275.002 220.029C274.16 220.155 273.403 220.61 272.897 221.294C272.391 221.978 272.177 222.835 272.303 223.677C272.429 224.518 272.884 225.276 273.568 225.782Z" fill="#22C88A"/>
<path d="M283.489 200.756C282.218 201.992 276.294 203.27 276.294 203.27C276.294 203.27 277.746 197.389 279.017 196.153C279.627 195.56 280.448 195.234 281.299 195.246C282.15 195.258 282.961 195.608 283.554 196.219C284.147 196.829 284.473 197.65 284.461 198.501C284.449 199.352 284.099 200.163 283.489 200.756Z" fill="#22C88A"/>
<path d="M286.85 215.595C285.267 216.392 279.233 215.843 279.233 215.843C279.233 215.843 282.378 210.663 283.96 209.884C284.72 209.501 285.601 209.435 286.409 209.701C287.217 209.968 287.886 210.544 288.269 211.304C288.652 212.063 288.718 212.944 288.452 213.752C288.186 214.56 287.609 215.23 286.85 215.613V215.595Z" fill="#22C88A"/>
<path d="M288.134 230.47C286.717 231.532 280.67 231.999 280.67 231.999C280.67 231.999 282.893 226.362 284.317 225.311C285.001 224.805 285.858 224.591 286.7 224.717C287.541 224.843 288.299 225.298 288.805 225.982C289.311 226.666 289.525 227.523 289.399 228.365C289.273 229.206 288.818 229.964 288.134 230.47Z" fill="#22C88A"/>
<path d="M22.6185 215.238C22.6185 215.238 31.7146 184.391 20.9189 161.659C16.3868 152.124 14.8997 141.424 16.9781 131.078C17.9801 126.171 19.4296 121.366 21.3084 116.724" stroke="#535461" stroke-width="2" stroke-miterlimit="10"/>
<path d="M14.5919 102.366C14.5919 106.148 21.4397 117.117 21.4397 117.117C21.4397 117.117 28.2839 106.141 28.2839 102.366C28.2839 100.55 27.5624 98.8084 26.2782 97.5242C24.994 96.24 23.2523 95.5186 21.4361 95.5186C19.62 95.5186 17.8782 96.24 16.594 97.5242C15.3098 98.8084 14.5884 100.55 14.5884 102.366H14.5919Z" fill="#22C88A"/>
<path d="M3.27245 123.317C5.32961 126.503 17.0388 131.977 17.0388 131.977C17.0388 131.977 16.8263 119.047 14.7692 115.874C13.7628 114.396 12.2183 113.371 10.4658 113.016C8.7132 112.662 6.89158 113.007 5.39021 113.978C3.88883 114.949 2.8268 116.469 2.43107 118.213C2.03534 119.956 2.33732 121.786 3.27245 123.31V123.317Z" fill="#22C88A"/>
<path d="M3.76453 159.121C7.14238 160.824 20.02 159.648 20.02 159.648C20.02 159.648 13.2926 148.594 9.93248 146.902C9.12946 146.497 8.25454 146.254 7.35768 146.187C6.46081 146.12 5.55955 146.23 4.70536 146.512C3.85118 146.793 3.06078 147.24 2.37932 147.827C1.69786 148.414 1.13867 149.129 0.733675 149.932C0.328682 150.735 0.0858203 151.61 0.0189547 152.507C-0.0479109 153.404 0.0625299 154.305 0.343971 155.16C0.912368 156.885 2.14278 158.313 3.76453 159.131V159.121Z" fill="#22C88A"/>
<path d="M10.2263 186.126C13.2678 188.374 26.1596 189.39 26.1596 189.39C26.1596 189.39 21.415 177.352 18.37 175.114C16.9097 174.034 15.0803 173.579 13.2842 173.847C11.488 174.116 9.87223 175.088 8.79231 176.548C7.7124 178.008 7.25679 179.838 7.52571 181.634C7.79464 183.43 8.76607 185.046 10.2263 186.126Z" fill="#22C88A"/>
<path d="M31.4175 132.696C28.7053 135.33 16.0649 138.06 16.0649 138.06C16.0649 138.06 19.1595 125.505 21.8717 122.871C23.1747 121.603 24.9278 120.905 26.7456 120.93C28.5633 120.955 30.2967 121.7 31.5645 123.003C32.8322 124.306 33.5304 126.06 33.5055 127.877C33.4806 129.695 32.7346 131.428 31.4317 132.696H31.4175Z" fill="#22C88A"/>
<path d="M38.5875 164.389C35.2096 166.092 22.332 164.917 22.332 164.917C22.332 164.917 29.0594 153.863 32.4196 152.17C33.2226 151.765 34.0975 151.522 34.9944 151.455C35.8912 151.389 36.7925 151.499 37.6467 151.78C38.5009 152.062 39.2913 152.509 39.9727 153.096C40.6542 153.683 41.2134 154.398 41.6184 155.201C42.0234 156.004 42.2662 156.879 42.3331 157.776C42.3999 158.673 42.2895 159.574 42.0081 160.428C41.7266 161.282 41.2797 162.073 40.6928 162.754C40.1059 163.436 39.3905 163.995 38.5875 164.4V164.389Z" fill="#22C88A"/>
<path d="M41.3312 196.135C38.2897 198.384 25.3979 199.4 25.3979 199.4C25.3979 199.4 30.1425 187.361 33.1875 185.124C34.6478 184.044 36.4772 183.588 38.2734 183.857C40.0695 184.126 41.6853 185.097 42.7652 186.558C43.8451 188.018 44.3007 189.847 44.0318 191.643C43.7629 193.44 42.7914 195.055 41.3312 196.135Z" fill="#22C88A"/>
<path d="M134.243 139.147L114.511 136.591C113.711 136.488 113.095 136.184 113.116 135.918C113.151 135.653 113.824 135.529 114.642 135.646L134.332 138.496C134.874 138.574 135.284 138.779 135.259 138.96C135.235 139.13 134.781 139.218 134.243 139.147Z" fill="#22C88A"/>
<path d="M134.368 139.484L114.575 137.437C113.771 137.356 113.088 137.504 113.063 137.77C113.038 138.036 113.679 138.315 114.479 138.386L134.308 140.156C134.853 140.206 135.299 140.1 135.317 139.919C135.331 139.728 134.909 139.54 134.368 139.484Z" fill="#22C88A"/>
<path d="M164.061 154.372L183.79 151.816C184.59 151.713 185.206 151.409 185.185 151.143C185.149 150.878 184.477 150.754 183.659 150.871L163.969 153.721C163.427 153.799 163.016 154.004 163.041 154.185C163.066 154.355 163.519 154.443 164.061 154.372Z" fill="#22C88A"/>
<path d="M163.933 154.709L183.725 152.662C184.529 152.581 185.212 152.73 185.237 152.995C185.262 153.261 184.621 153.54 183.821 153.611L163.993 155.382C163.448 155.431 163.001 155.325 162.984 155.144C162.97 154.953 163.391 154.765 163.933 154.709Z" fill="#22C88A"/>
<path d="M98.7938 175.564H93.9819V244.558H98.7938V175.564Z" fill="#40414D"/>
<path d="M203.89 175.564H199.078V244.558H203.89V175.564Z" fill="#40414D"/>
<path d="M92.1446 169.948H203.323C205.389 169.948 207.371 170.769 208.831 172.23C210.292 173.69 211.113 175.672 211.113 177.738V178.772H84.355V177.738C84.355 175.672 85.1757 173.69 86.6365 172.23C88.0973 170.769 90.0786 169.948 92.1446 169.948Z" fill="#DFE6F5"/>
<path opacity="0.1" d="M91.7906 169.948H202.969C205.035 169.948 207.017 170.769 208.477 172.23C209.938 173.69 210.759 175.672 210.759 177.738V178.772H84.001V177.738C84.001 175.672 84.8217 173.69 86.2825 172.23C87.7433 170.769 89.7246 169.948 91.7906 169.948Z" fill="black"/>
<path d="M92.1446 168.341H203.323C205.389 168.341 207.371 169.161 208.831 170.622C210.292 172.083 211.113 174.064 211.113 176.13V177.164H84.355V176.13C84.355 174.064 85.1757 172.083 86.6365 170.622C88.0973 169.161 90.0786 168.341 92.1446 168.341Z" fill="#DFE6F5"/>
<path d="M147.734 162.725C153.051 162.725 157.361 158.415 157.361 153.098C157.361 147.781 153.051 143.471 147.734 143.471C142.417 143.471 138.106 147.781 138.106 153.098C138.106 158.415 142.417 162.725 147.734 162.725Z" fill="#FFD77C" stroke="#FFAB50" stroke-miterlimit="10"/>
<path d="M147.734 160.728C151.948 160.728 155.364 157.312 155.364 153.098C155.364 148.884 151.948 145.468 147.734 145.468C143.52 145.468 140.104 148.884 140.104 153.098C140.104 157.312 143.52 160.728 147.734 160.728Z" fill="#FFD77C" stroke="#FFAB50" stroke-miterlimit="10"/>
<path d="M147.734 158.912C150.945 158.912 153.548 156.309 153.548 153.098C153.548 149.887 150.945 147.284 147.734 147.284C144.523 147.284 141.92 149.887 141.92 153.098C141.92 156.309 144.523 158.912 147.734 158.912Z" fill="#FFD77C" stroke="#FFAB50" stroke-miterlimit="10"/>
<path d="M147.734 156.366C149.539 156.366 151.002 154.903 151.002 153.098C151.002 151.293 149.539 149.83 147.734 149.83C145.929 149.83 144.466 151.293 144.466 153.098C144.466 154.903 145.929 156.366 147.734 156.366Z" fill="#FFD77C" stroke="#FFAB50" stroke-miterlimit="10"/>
<path d="M142.118 167.941C147.435 167.941 151.746 163.63 151.746 158.313C151.746 152.996 147.435 148.686 142.118 148.686C136.801 148.686 132.491 152.996 132.491 158.313C132.491 163.63 136.801 167.941 142.118 167.941Z" fill="#FFD77C" stroke="#FFAB50" stroke-miterlimit="10"/>
<path d="M142.119 165.944C146.333 165.944 149.749 162.527 149.749 158.313C149.749 154.099 146.333 150.683 142.119 150.683C137.904 150.683 134.488 154.099 134.488 158.313C134.488 162.527 137.904 165.944 142.119 165.944Z" fill="#FFD77C" stroke="#FFAB50" stroke-miterlimit="10"/>
<path d="M142.119 164.127C145.329 164.127 147.932 161.524 147.932 158.313C147.932 155.102 145.329 152.499 142.119 152.499C138.908 152.499 136.305 155.102 136.305 158.313C136.305 161.524 138.908 164.127 142.119 164.127Z" fill="#FFD77C" stroke="#FFAB50" stroke-miterlimit="10"/>
<path d="M142.118 161.581C143.923 161.581 145.386 160.118 145.386 158.313C145.386 156.508 143.923 155.045 142.118 155.045C140.313 155.045 138.85 156.508 138.85 158.313C138.85 160.118 140.313 161.581 142.118 161.581Z" fill="#FFD77C" stroke="#FFAB50" stroke-miterlimit="10"/>
<path d="M153.35 167.941C158.667 167.941 162.977 163.63 162.977 158.313C162.977 152.996 158.667 148.686 153.35 148.686C148.033 148.686 143.723 152.996 143.723 158.313C143.723 163.63 148.033 167.941 153.35 167.941Z" fill="#FFD77C" stroke="#FFAB50" stroke-miterlimit="10"/>
<path d="M153.35 165.944C157.564 165.944 160.98 162.527 160.98 158.313C160.98 154.099 157.564 150.683 153.35 150.683C149.136 150.683 145.72 154.099 145.72 158.313C145.72 162.527 149.136 165.944 153.35 165.944Z" fill="#FFD77C" stroke="#FFAB50" stroke-miterlimit="10"/>
<path d="M153.349 164.127C156.56 164.127 159.163 161.524 159.163 158.313C159.163 155.102 156.56 152.499 153.349 152.499C150.138 152.499 147.535 155.102 147.535 158.313C147.535 161.524 150.138 164.127 153.349 164.127Z" fill="#FFD77C" stroke="#FFAB50" stroke-miterlimit="10"/>
<path d="M153.349 161.581C155.154 161.581 156.617 160.118 156.617 158.313C156.617 156.508 155.154 155.045 153.349 155.045C151.544 155.045 150.081 156.508 150.081 158.313C150.081 160.118 151.544 161.581 153.349 161.581Z" fill="#FFD77C" stroke="#FFAB50" stroke-miterlimit="10"/>
<path d="M127.676 155.509H167.789V157.393C167.789 159.253 167.422 161.094 166.711 162.813C165.999 164.531 164.956 166.092 163.64 167.407C162.325 168.723 160.764 169.766 159.046 170.478C157.327 171.189 155.486 171.556 153.626 171.556H141.839C139.979 171.556 138.137 171.189 136.419 170.478C134.7 169.766 133.139 168.723 131.824 167.407C130.509 166.092 129.466 164.531 128.754 162.813C128.042 161.094 127.676 159.253 127.676 157.393V155.509Z" fill="#22C88A"/>
<path opacity="0.1" d="M164.17 155.505C164.066 159.689 162.33 163.667 159.334 166.589C156.339 169.512 152.319 171.148 148.134 171.148H140.171C141.333 171.414 142.52 171.549 143.712 171.552H151.735C153.843 171.553 155.93 171.139 157.878 170.333C159.825 169.527 161.595 168.345 163.086 166.855C164.577 165.364 165.76 163.595 166.566 161.648C167.373 159.701 167.789 157.613 167.789 155.505H164.17Z" fill="black"/>
<path d="M201.486 232.923V228.112H97.1908V232.923H201.486Z" fill="#40414D"/>
<path d="M58.0864 211.307H53.8765V249.611H58.0864V211.307Z" fill="#40414D"/>
<path d="M91.3374 211.307H87.1274V249.611H91.3374V211.307Z" fill="#40414D"/>
<path d="M94.7077 204.994C94.7077 207.551 86.04 209.625 75.347 209.625C64.6541 209.625 56.4077 207.554 56.4077 204.994C56.4077 202.434 64.6541 200.363 75.347 200.363C86.04 200.363 94.7077 202.448 94.7077 204.994Z" fill="#F6C6CD"/>
<path d="M50.5088 204.991H94.7041V208.85C94.7041 209.836 94.3124 210.782 93.6152 211.479C92.918 212.176 91.9724 212.568 90.9863 212.568H56.8821C55.1918 212.568 53.5707 211.896 52.3755 210.701C51.1803 209.506 50.5088 207.885 50.5088 206.195V204.991Z" fill="#40414D"/>
<path d="M43.0042 160.703L43.916 160.498C44.5572 160.353 45.2296 160.469 45.7854 160.82C46.3411 161.171 46.7347 161.728 46.8794 162.37L57.9173 211.269L56.5357 211.581C55.3761 211.843 54.1599 211.633 53.1548 210.998C52.1497 210.363 51.438 209.355 51.1762 208.195L41.1253 163.668C41.0535 163.35 41.0452 163.021 41.1008 162.7C41.1564 162.379 41.2749 162.072 41.4494 161.796C41.624 161.521 41.8512 161.282 42.1179 161.095C42.3847 160.907 42.6859 160.774 43.0042 160.703Z" fill="#40414D"/>
<path d="M238.086 250.291H242.296V211.987H238.086V250.291Z" fill="#40414D"/>
<path d="M204.835 250.291H209.045V211.987H204.835V250.291Z" fill="#40414D"/>
<path d="M201.472 205.674C201.472 208.23 210.139 210.305 220.832 210.305C231.525 210.305 239.772 208.234 239.772 205.674C239.772 203.114 231.522 201.032 220.832 201.032C210.143 201.032 201.472 203.118 201.472 205.674Z" fill="#F6C6CD"/>
<path d="M239.29 213.251H205.186C204.2 213.251 203.254 212.859 202.557 212.162C201.859 211.465 201.468 210.519 201.468 209.533V205.674H245.663V206.878C245.663 208.568 244.992 210.189 243.796 211.384C242.601 212.58 240.98 213.251 239.29 213.251Z" fill="#40414D"/>
<path d="M239.643 212.26L238.262 211.948L249.301 163.042C249.446 162.401 249.839 161.844 250.395 161.493C250.951 161.141 251.623 161.026 252.264 161.17L253.176 161.376C253.817 161.521 254.375 161.914 254.726 162.47C255.077 163.026 255.193 163.698 255.048 164.34L244.996 208.873C244.734 210.032 244.024 211.039 243.02 211.674C242.017 212.309 240.802 212.52 239.643 212.26Z" fill="#40414D"/>
<path d="M241.142 190.764L242.385 190.371C242.385 190.371 240.26 176.18 240.281 163.461C240.281 163.107 240.281 162.729 240.281 162.364C240.306 161.571 240.335 160.785 240.374 160.016C240.423 159.032 240.434 158.094 240.427 157.184C240.543 144.936 235.717 139.763 235.717 139.763C235.717 139.763 230.052 131.684 226.657 130.111C226.363 129.191 226.027 128.008 225.729 126.634C225.839 126.56 225.945 126.486 226.048 126.408C227.45 125.368 228.792 124.248 230.066 123.055C231.809 121.422 233.48 119.433 233.388 117.188C233.397 116.969 233.39 116.75 233.366 116.533C233.044 113.824 230.229 111.785 229.093 109.218C228.137 107.061 228.424 104.661 227.588 102.473C226.752 100.284 223.835 98.2484 221.632 99.3992C220.822 99.8241 220.333 100.575 219.657 101.145C217.978 102.561 215.273 102.692 212.979 102.048C210.685 101.403 210.005 98.776 206.797 98.7689C207.082 98.8644 207.354 98.994 207.608 99.1549C207.34 99.1097 207.069 99.0861 206.797 99.0841C207.449 99.2905 208.028 99.6816 208.463 100.21C208.898 100.739 209.17 101.382 209.247 102.062C209.242 102.147 209.233 102.232 209.219 102.317C207.937 103.007 206.252 102.614 204.715 102.589C203.178 102.565 201.429 103.34 201.581 104.597C201.556 104.74 201.556 104.886 201.581 105.029C201.783 105.981 203.058 106.7 203.214 107.582C203.214 107.607 203.214 107.628 203.214 107.653C200.37 109.074 197.293 109.971 194.132 110.301C194.029 110.301 194.075 110.425 194.224 110.606H194.132C193.555 110.666 197.591 113.856 198.051 114.065C199.737 114.83 201.751 115.393 203.536 115.98L203.692 116.03C203.09 117.427 202.781 118.932 202.782 120.452C202.782 125.905 206.701 130.487 212.009 131.783C213 132.94 214.041 134.212 214.99 135.476H214.923C214.923 135.476 208.822 143.591 209.017 155.711C209 157.23 209.08 158.748 209.258 160.257C205.335 160.034 196.904 159 190.492 154.305C181.842 147.978 172.193 149.876 174.204 153.671C176.216 157.467 186.516 160.629 188.176 160.948C188.332 160.976 188.693 161.061 189.21 161.188C187.164 161.574 185.761 162.251 185.846 163.161C186.013 164.899 194.829 170.437 200.151 170.752C203.667 170.961 207.898 172.044 211.237 172.997C211.559 180.273 209.799 182.454 209.799 182.454C209.799 182.454 210.323 182.776 211.191 183.233L210.819 184.295C208.659 185.541 205.997 186.841 203.575 187.365C200.489 187.999 197.489 188.997 194.638 190.339L182.66 196.128C181.59 196.624 180.665 197.385 179.971 198.339C179.277 199.292 178.837 200.407 178.694 201.577C178.432 204.031 179.172 207.097 183.18 209.53C183.428 211.523 184.646 213.849 187.843 215.981C194.04 220.102 210.323 232.449 212.54 234.134C212.582 237.147 212.186 243.191 208.468 244.133C203.808 245.316 207.558 249.798 211.325 249.621C212.219 249.96 213.192 250.031 214.126 249.827C218.12 248.878 232.757 243.808 233.756 236.223C233.797 235.895 233.816 235.563 233.813 235.232C233.871 233.939 233.548 232.657 232.885 231.546C233.041 231.889 233.168 232.244 233.264 232.608C232.053 229.846 229.103 228.112 226.809 227.134C226.809 227.11 226.809 227.081 226.809 227.056C226.455 226.918 226.101 226.805 225.811 226.702C225.816 226.497 225.801 226.292 225.764 226.09L202.81 210.273C202.81 210.273 212.791 202.048 223.105 203.316C233.42 204.583 235.062 202.71 235.062 202.71C235.062 202.71 240.352 197.679 240.883 191.886L241.216 191.798C241.216 191.798 241.191 191.433 241.142 190.764Z" fill="url(#paint0_linear)"/>
<path d="M213.109 231.96C213.109 231.96 214.048 242.289 209.353 243.542C204.658 244.795 209.041 249.802 212.794 248.853C216.547 247.904 230.324 242.905 231.263 235.398C232.201 227.892 221.873 225.382 221.873 225.382L213.109 231.96Z" fill="#B8616E"/>
<path opacity="0.05" d="M213.109 231.96C213.109 231.96 214.048 242.289 209.353 243.542C204.658 244.795 209.041 249.802 212.794 248.853C216.547 247.904 230.324 242.905 231.263 235.398C232.201 227.892 221.873 225.382 221.873 225.382L213.109 231.96Z" fill="black"/>
<path d="M214.997 232.272C214.997 232.272 215.935 242.6 211.24 243.854C206.545 245.107 210.929 250.114 214.682 249.165C218.435 248.216 232.212 243.216 233.15 235.71C234.089 228.204 223.76 225.693 223.76 225.693L214.997 232.272Z" fill="#B8616E"/>
<path opacity="0.1" d="M224.699 226.012L215.942 232.587C215.942 232.587 215.981 233.033 216.006 233.745C219.313 232.838 226.519 230.431 226.628 226.663C225.999 226.408 225.354 226.19 224.699 226.012Z" fill="black"/>
<path d="M219.221 136.017H215.464V138.836H219.221V136.017Z" fill="#F8BDC5"/>
<path d="M215.624 181.558C215.624 181.558 209.658 186.246 204.758 187.358C201.844 187.988 199.019 188.977 196.348 190.3L185.078 196.029C184.055 196.544 183.177 197.307 182.525 198.25C181.873 199.192 181.468 200.282 181.346 201.422C181.024 204.608 182.306 208.8 189.954 211.293L214.056 231.327L221.569 225.067L195.902 205.352L215.624 193.143V181.558Z" fill="#758AC8"/>
<path opacity="0.1" d="M215.624 181.558C215.624 181.558 209.658 186.246 204.758 187.358C201.844 187.988 199.019 188.977 196.348 190.3L185.078 196.029C184.055 196.544 183.177 197.307 182.525 198.25C181.873 199.192 181.468 200.282 181.346 201.422C181.024 204.608 182.306 208.8 189.954 211.293L214.056 231.327L221.569 225.067L195.902 205.352L215.624 193.143V181.558Z" fill="black"/>
<path d="M212.179 160.59C212.179 160.59 200.597 160.902 192.457 154.642C184.317 148.382 175.242 150.258 177.118 154.015C178.995 157.772 188.7 160.902 190.265 161.213C191.83 161.525 214.367 167.788 214.367 167.788L212.179 160.59Z" fill="#F8BDC5"/>
<path opacity="0.05" d="M212.179 160.59C212.179 160.59 200.597 160.902 192.457 154.642C184.317 148.382 175.242 150.258 177.118 154.015C178.995 157.772 188.7 160.902 190.265 161.213C191.83 161.525 214.367 167.788 214.367 167.788L212.179 160.59Z" fill="black"/>
<path d="M213.431 178.747L209.675 190.017C209.675 190.017 188.547 203.008 186.823 204.729C185.485 206.067 183.693 211.304 189.953 215.684C196.213 220.064 213.428 233.84 213.428 233.84C213.428 233.84 226.575 231.008 225.636 225.697L204.038 210.047C204.038 210.047 213.428 201.903 223.133 203.16C232.838 204.417 234.403 202.533 234.403 202.533C234.403 202.533 241.917 195.013 239.41 187.825C236.903 180.638 213.431 178.747 213.431 178.747Z" fill="#758AC8"/>
<path d="M208.737 127.739C208.737 127.739 219.381 139.321 218.754 142.762C218.127 146.204 227.206 132.746 227.206 132.746C227.206 132.746 224.373 125.859 225.014 118.346L208.737 127.739Z" fill="#F8BDC5"/>
<path opacity="0.1" d="M218.025 138.361C218.751 137.595 219.515 136.866 220.316 136.177C221.917 134.863 223.387 133.396 224.703 131.797C226.894 128.964 235.031 141.187 235.031 141.187C235.031 141.187 240.037 146.82 239.414 160.282C238.791 173.744 240.197 191.741 240.197 191.741L238.302 192.269C236.707 192.801 235.009 192.955 233.344 192.719C231.679 192.482 230.091 191.861 228.707 190.906C226.207 189.178 223.042 187.365 220.634 187.202C215.939 186.89 211.712 184.228 211.712 184.228C211.712 184.228 213.748 179.377 210.618 163.724C207.488 148.07 215.465 136.945 215.465 136.945C215.465 136.945 216.095 140.351 218.025 138.361Z" fill="black"/>
<path d="M241.29 190.329L239.414 190.955L238.298 191.327C236.703 191.86 235.005 192.014 233.34 191.777C231.674 191.541 230.087 190.92 228.703 189.964C226.207 188.239 223.038 186.423 220.63 186.26C215.942 185.945 210.631 182.504 210.631 182.504C210.631 182.504 213.761 178.435 210.631 162.782C207.501 147.128 215.482 136.017 215.482 136.017C215.482 136.017 216.112 139.406 218.042 137.412C218.766 136.647 219.53 135.919 220.329 135.231C221.931 133.918 223.4 132.451 224.716 130.851C226.908 128.019 235.044 140.241 235.044 140.241C235.044 140.241 240.051 145.875 239.428 159.337C239.36 160.753 239.332 162.212 239.329 163.688C239.283 176.286 241.29 190.329 241.29 190.329Z" fill="#5E52AD"/>
<path opacity="0.1" d="M223.448 159.652L223.76 166.538C223.76 166.538 207.168 167.477 203.727 164.035C200.285 160.594 213.11 174.158 215.942 174.99C218.601 175.773 225.467 176.463 229.068 176.534C230.096 176.567 231.112 176.3 231.992 175.767C232.872 175.233 233.578 174.455 234.025 173.528C234.444 172.615 234.58 171.597 234.414 170.607C233.787 166.538 234.414 157.772 234.414 157.772L223.448 159.652Z" fill="black"/>
<path d="M223.449 159.025L223.76 165.912C223.76 165.912 207.168 166.85 203.727 163.408C200.285 159.967 187.832 160.728 188.077 163.408C188.233 165.129 196.528 170.607 201.532 170.922C206.535 171.237 213.11 173.531 215.942 174.363C218.601 175.146 225.467 175.836 229.068 175.907C230.096 175.94 231.113 175.674 231.993 175.14C232.873 174.606 233.579 173.829 234.025 172.901C234.444 171.988 234.58 170.971 234.414 169.98C233.788 165.912 234.414 157.145 234.414 157.145L223.449 159.025Z" fill="#F8BDC5"/>
<path opacity="0.1" d="M227.206 138.992C227.206 138.992 220.007 139.93 220.946 150.573C221.884 161.217 223.137 162.155 223.137 162.155C223.137 162.155 233.781 161.217 235.031 160.902C236.281 160.586 235.657 149.008 235.657 149.008C235.657 149.008 235.342 138.68 227.206 138.992Z" fill="black"/>
<path d="M227.206 138.68C227.206 138.68 220.007 139.618 220.946 150.262C221.884 160.905 223.137 161.843 223.137 161.843C223.137 161.843 233.781 160.905 235.031 160.59C236.281 160.275 235.657 148.697 235.657 148.697C235.657 148.697 235.342 138.361 227.206 138.68Z" fill="#5E52AD"/>
<path opacity="0.1" d="M224.543 125.062C224.051 122.584 225.06 121.819 225.325 118.647L209.038 128.037C209.038 128.037 210.904 130.069 213.025 132.678C213.973 132.918 214.947 133.037 215.925 133.033C220.191 133.05 222.525 128.469 224.543 125.062Z" fill="black"/>
<path d="M215.621 132.732C222.017 132.732 227.202 127.546 227.202 121.15C227.202 114.753 222.017 109.568 215.621 109.568C209.224 109.568 204.039 114.753 204.039 121.15C204.039 127.546 209.224 132.732 215.621 132.732Z" fill="#F8BDC5"/>
<path opacity="0.1" d="M218.541 117.634C216.771 118.76 216.746 121.306 217.886 123.069C219.026 124.832 220.991 125.997 222.882 127.095C223.431 127.413 224.036 127.743 224.652 127.672C225.126 127.58 225.565 127.358 225.92 127.031C227.243 125.999 228.506 124.891 229.701 123.713C231.422 122.021 233.076 119.935 232.807 117.574C232.502 114.893 229.854 112.875 228.784 110.336C227.885 108.212 228.154 105.829 227.368 103.659C226.582 101.488 223.827 99.4806 221.767 100.617C221.005 101.035 220.545 101.782 219.908 102.345C218.329 103.74 215.783 103.878 213.623 103.241C211.463 102.604 210.822 100.001 207.809 99.994C209.307 100.522 210.319 102.083 210.089 103.506C208.882 104.19 207.296 103.8 205.84 103.776C204.385 103.751 202.654 104.565 202.905 105.875C203.125 106.937 204.658 107.727 204.431 108.789C201.771 110.19 198.872 111.079 195.884 111.409C195.342 111.47 199.138 114.624 199.57 114.833C201.152 115.591 203.054 116.147 204.729 116.727C209.278 118.296 213.938 118.855 218.541 117.634Z" fill="black"/>
<path d="M218.541 117.319C216.771 118.445 216.746 120.991 217.886 122.754C219.026 124.517 220.991 125.682 222.882 126.78C223.431 127.098 224.036 127.428 224.652 127.357C225.126 127.264 225.565 127.043 225.92 126.716C227.243 125.683 228.506 124.576 229.701 123.398C231.422 121.706 233.076 119.62 232.807 117.259C232.502 114.578 229.854 112.56 228.784 110.021C227.885 107.897 228.154 105.514 227.368 103.344C226.582 101.173 223.827 99.1655 221.767 100.302C221.005 100.72 220.545 101.467 219.908 102.03C218.329 103.425 215.783 103.563 213.623 102.926C211.463 102.288 210.822 99.686 207.809 99.6789C209.307 100.206 210.319 101.768 210.089 103.191C208.882 103.875 207.296 103.485 205.84 103.46C204.385 103.436 202.654 104.25 202.905 105.56C203.125 106.622 204.658 107.412 204.431 108.474C201.771 109.875 198.872 110.764 195.884 111.094C195.342 111.154 199.138 114.309 199.57 114.518C201.152 115.276 203.054 115.832 204.729 116.412C209.278 117.984 213.938 118.533 218.541 117.319Z" fill="#916168"/>
<path opacity="0.1" d="M232.333 231.089C232.835 232.249 233.01 233.523 232.839 234.775C231.901 242.289 218.127 247.295 214.37 248.23C212.391 248.726 210.235 247.568 209.332 246.176C209.913 247.812 212.412 249.423 214.686 248.857C218.442 247.918 232.216 242.908 233.154 235.402C233.359 233.913 233.07 232.398 232.333 231.089Z" fill="white"/>
<path d="M132.856 239.626C132.576 238.996 131.124 237.767 124.124 237.502C119.33 237.321 117.698 234.789 117.255 232.318C118.831 232.113 120.063 231.829 120.467 231.436C120.467 231.436 120.446 231.323 120.41 231.121L120.467 231.079C120.161 229.296 120.001 227.491 119.989 225.683C119.98 224.135 120.143 222.591 120.477 221.08C120.672 220.081 120.754 219.063 120.722 218.045C120.761 212.026 118.647 201.446 118.647 201.446L118.356 192.655C118.327 191.558 118.003 190.489 117.418 189.561C116.833 188.632 116.009 187.879 115.032 187.379C114.336 187.019 113.566 186.828 112.783 186.82C112.783 186.82 101.687 185.071 91.6984 184.118C90.9902 183.548 88.494 182.011 82.7722 182.893L79.4793 173.255C79.4527 173.138 79.4338 173.02 79.4227 172.901C79.5395 171.676 80.3574 169.831 84.1708 169.714L84.9675 170.423C84.9675 170.423 85.1091 170.143 85.3463 169.714C90.0767 169.661 115.846 169.399 117.174 169.714C118.636 170.068 131.447 167.215 131.815 166.861C136.793 162.006 117.174 164.361 117.174 164.361C115.244 164.676 109.009 164.301 102.622 163.78C105.783 159.039 108.758 142.947 108.758 142.947C108.758 142.947 120.088 137.235 116.809 134.024C113.53 130.812 103.634 141.162 103.634 141.162C103.634 141.162 99.6084 152.942 97.7778 156.511C97.0697 157.927 96.1526 158.218 95.3347 158.055C95.7065 157.757 95.9473 157.58 95.9473 157.58C95.9473 157.58 87.8956 151.154 87.1627 148.658C87.0262 148.249 86.8458 147.856 86.6245 147.486C86.2386 145.223 85.5623 142.996 83.9123 141.513C83.6352 141.215 83.3292 140.946 82.9988 140.709C82.5527 140.39 82.0464 140.114 81.625 139.767C81.8622 138.676 82.1384 137.543 82.4252 136.446C88.402 135.738 93.0474 130.781 93.0474 124.761C93.0465 123.854 92.9383 122.949 92.7252 122.067C93.6184 122.126 94.5117 121.953 95.3182 121.564C96.1248 121.176 96.8171 120.585 97.3281 119.85C98.5355 118.052 98.4966 115.602 97.4839 113.704C97.0653 112.933 96.5167 112.241 95.8623 111.657C94.8189 110.606 93.5464 109.811 92.1445 109.334C90.93 108.913 89.5881 108.662 88.625 107.837C88.1947 107.274 87.8031 106.682 87.453 106.066C87.0489 105.462 86.5734 104.908 86.0368 104.416C84.2664 102.593 81.7666 101.471 79.2209 100.975C76.1192 100.369 72.9148 100.585 69.7601 100.801C68.581 100.883 67.1966 101.092 66.6655 102.118C66.2654 102.89 66.5274 103.814 66.4743 104.675C66.3078 107.412 63.1778 108.924 60.455 109.586C57.7322 110.248 54.4854 110.822 53.1718 113.222C51.9785 115.389 52.8177 118.016 53.2001 120.449C53.837 124.72 52.8886 129.076 50.5339 132.696C49.3372 134.527 47.7934 136.155 46.848 138.121C45.8007 140.311 45.5575 142.8 46.1611 145.152C46.3382 145.839 46.5931 146.54 46.4656 147.241C46.3207 147.82 46.0363 148.353 45.6371 148.796C44.009 150.806 41.9827 152.458 39.6856 153.648C37.3884 154.838 34.87 155.541 32.2886 155.711C32.5054 156.43 32.929 157.069 33.5066 157.548C34.2404 158.274 35.0961 158.865 36.0347 159.294C38.5072 160.534 41.1072 161.502 43.7888 162.18C45.5946 162.637 47.4818 162.962 49.3195 162.651C51.1571 162.339 52.9487 161.287 53.7029 159.623C54.1419 158.66 54.2057 157.57 54.5951 156.589C55.3706 154.627 57.2932 153.356 58.5926 151.674C58.155 156.008 57.9482 160.363 57.973 164.718C57.973 166.082 57.973 167.31 57.973 168.45C57.973 173.368 57.6189 176.76 54.5703 182.904C54.207 183.549 54.0478 184.29 54.1136 185.028C54.0473 185.427 54.0859 185.836 54.2256 186.215C54.3653 186.594 54.6012 186.931 54.9103 187.191C54.6978 188.417 54.5947 189.659 54.6022 190.902C54.5597 195.378 56.0716 201.386 64.0878 202.909L78.3605 202.201C78.3605 202.201 98.4895 198.274 103.978 201.138C104.431 201.235 104.837 201.483 105.129 201.843C105.421 202.202 105.58 202.651 105.582 203.114C105.565 203.412 105.518 203.707 105.443 203.996C105.291 204.923 105.232 205.864 105.27 206.804C105.245 212.823 106.541 226.483 106.541 226.483V232.275C105.628 233.649 104.502 235.682 104.647 237.179C104.647 237.211 104.647 237.247 104.647 237.279C104.647 237.31 104.647 237.367 104.668 237.41C104.689 237.452 104.668 237.487 104.693 237.526C104.718 237.565 104.714 237.601 104.725 237.64C104.735 237.679 104.753 237.725 104.771 237.764C104.788 237.803 104.796 237.827 104.81 237.859C104.824 237.891 104.856 237.951 104.88 237.994L104.923 238.068C104.966 238.136 105.013 238.201 105.065 238.263C106.895 240.387 116.041 244.498 118.973 244.332C122.085 244.155 132.512 244.686 132.881 240.047C132.927 239.909 132.918 239.758 132.856 239.626Z" fill="url(#paint1_linear)"/>
<path d="M106.839 230.661C106.839 230.661 102.59 235.972 104.36 238.096C106.131 240.221 114.982 244.282 117.815 244.116C120.825 243.939 130.916 244.47 131.27 239.867C131.27 239.867 131.978 237.742 122.772 237.388C113.566 237.034 116.399 227.474 116.399 227.474L106.839 230.661Z" fill="#594C76"/>
<path opacity="0.1" d="M56.2062 186.048C56.2062 186.048 51.9573 200.565 64.7039 203.043L78.5127 202.335C78.5127 202.335 97.9867 198.44 103.298 201.273C103.298 201.273 105.422 201.627 104.714 204.46C104.006 207.292 105.776 226.412 105.776 226.412V232.785C105.776 232.785 117.815 232.785 119.231 231.369C119.231 231.369 118.169 225.704 119.231 221.101C120.293 216.498 117.461 201.981 117.461 201.981L117.181 193.243C117.16 192.163 116.852 191.108 116.288 190.187C115.724 189.266 114.925 188.512 113.973 188.002C113.303 187.647 112.557 187.458 111.799 187.45C111.799 187.45 87.7222 183.555 79.2244 184.263C70.7267 184.971 56.2062 186.048 56.2062 186.048Z" fill="black"/>
<path d="M56.2062 185.694C56.2062 185.694 51.9573 200.211 64.7039 202.689L78.5127 201.981C78.5127 201.981 97.9867 198.086 103.298 200.919C103.298 200.919 105.422 201.273 104.714 204.105C104.006 206.938 105.776 226.058 105.776 226.058V232.431C105.776 232.431 117.815 232.431 119.231 231.015C119.231 231.015 118.169 225.35 119.231 220.747C120.293 216.144 117.461 201.627 117.461 201.627L117.181 192.888C117.16 191.809 116.852 190.754 116.288 189.833C115.724 188.912 114.925 188.158 113.973 187.648C113.303 187.293 112.557 187.104 111.799 187.096C111.799 187.096 87.7222 183.201 79.2244 183.909C70.7267 184.617 56.2062 185.694 56.2062 185.694Z" fill="#8B9CD1"/>
<path d="M92.6754 157.014C92.6754 157.014 95.5079 160.555 97.2783 157.014C99.0487 153.473 102.943 141.789 102.943 141.789C102.943 141.789 112.503 131.521 115.69 134.707C118.877 137.894 107.9 143.559 107.9 143.559C107.9 143.559 104.006 165.158 100.465 165.512C96.9242 165.866 91.6131 165.512 91.6131 165.512L89.8428 161.617L92.6754 157.014Z" fill="#F8BDC5"/>
<path opacity="0.05" d="M92.6754 157.014C92.6754 157.014 95.5079 160.555 97.2783 157.014C99.0487 153.473 102.943 141.789 102.943 141.789C102.943 141.789 112.503 131.521 115.69 134.707C118.877 137.894 107.9 143.559 107.9 143.559C107.9 143.559 104.006 165.158 100.465 165.512C96.9242 165.866 91.6131 165.512 91.6131 165.512L89.8428 161.617L92.6754 157.014Z" fill="black"/>
<path d="M79.929 139.31C79.929 139.31 86.3023 146.746 87.0104 149.224C87.7186 151.703 95.5082 158.076 95.5082 158.076C95.5082 158.076 89.843 162.325 90.9052 164.449C91.9674 166.574 83.4697 157.368 83.4697 157.368L73.5557 142.851L79.929 139.31Z" fill="#EB6475"/>
<path opacity="0.1" d="M79.929 139.31C79.929 139.31 86.3023 146.746 87.0104 149.224C87.7186 151.703 95.5082 158.076 95.5082 158.076C95.5082 158.076 89.843 162.325 90.9052 164.449C91.9674 166.574 83.4697 157.368 83.4697 157.368L73.5557 142.851L79.929 139.31Z" fill="black"/>
<path d="M84.178 130.812C84.178 130.812 80.9913 141.081 80.9913 144.975C80.9913 148.87 67.5366 143.913 67.8907 141.789C68.2447 139.664 75.6803 131.875 76.0343 128.688C76.3884 125.501 84.178 130.812 84.178 130.812Z" fill="#F8BDC5"/>
<path opacity="0.1" d="M73.5558 137.894C73.5558 137.894 61.1633 134.707 59.3929 152.765C57.6225 170.823 60.8092 172.947 55.4981 183.923C50.187 194.9 91.6135 185.34 91.6135 185.34C91.6135 185.34 89.489 182.861 82.7617 183.923L79.575 174.363C79.575 174.363 78.5128 170.115 84.532 170.115C90.5513 170.115 87.7187 157.722 87.7187 157.722C87.7187 157.722 84.532 147.1 82.7617 146.038C80.9913 144.975 77.8047 138.602 73.5558 137.894Z" fill="black"/>
<path d="M73.5558 137.186C73.5558 137.186 61.1633 133.999 59.3929 152.057C57.6225 170.115 60.8092 172.239 55.4981 183.215C50.187 194.191 91.6135 184.631 91.6135 184.631C91.6135 184.631 89.489 182.153 82.7617 183.215L79.575 173.655C79.575 173.655 78.5128 169.406 84.532 169.406C90.5513 169.406 87.7187 157.014 87.7187 157.014C87.7187 157.014 84.532 146.392 82.7617 145.329C80.9913 144.267 77.8047 137.894 73.5558 137.186Z" fill="#EB6475"/>
<path d="M85.9481 162.679C85.9481 162.679 111.795 165.512 116.044 164.803C116.044 164.803 135.023 162.467 130.207 167.282C129.853 167.636 117.461 170.469 116.044 170.115C114.628 169.76 84.5318 170.115 84.5318 170.115L84.1777 166.574L85.9481 162.679Z" fill="#F8BDC5"/>
<path opacity="0.1" d="M66.12 153.827L84.8859 170.823C84.8859 170.823 88.4266 163.741 89.4888 163.741C90.551 163.741 76.7422 142.851 76.7422 142.851C76.7422 142.851 73.2015 138.602 71.077 140.727C68.9526 142.851 62.5793 141.435 66.12 153.827Z" fill="black"/>
<path d="M65.766 153.119L84.5319 170.115C84.5319 170.115 88.0726 163.033 89.1348 163.033C90.197 163.033 76.3882 142.143 76.3882 142.143C76.3882 142.143 72.8475 137.894 70.723 140.018C68.5986 142.143 62.2253 140.727 65.766 153.119Z" fill="#EB6475"/>
<path d="M80.991 137.186C87.4441 137.186 92.6754 131.955 92.6754 125.501C92.6754 119.048 87.4441 113.817 80.991 113.817C74.5379 113.817 69.3066 119.048 69.3066 125.501C69.3066 131.955 74.5379 137.186 80.991 137.186Z" fill="#F8BDC5"/>
<path opacity="0.1" d="M91.224 122.566C93.2068 123.349 95.6358 122.41 96.8042 120.629C97.9726 118.848 97.9372 116.423 96.9529 114.532C95.9686 112.642 94.1487 111.268 92.1411 110.552C90.9231 110.121 89.567 109.873 88.6322 108.98C88.0409 108.417 87.6904 107.656 87.2478 106.969C85.5943 104.392 82.6448 102.869 79.6459 102.271C76.6469 101.672 73.5452 101.885 70.4931 102.097C69.353 102.179 68.0146 102.384 67.4976 103.404C67.1117 104.169 67.3631 105.086 67.3135 105.939C67.1542 108.655 64.1269 110.159 61.4819 110.811C58.837 111.462 55.7708 112.075 54.4819 114.469C53.3277 116.618 54.1526 119.224 54.5103 121.638C55.1218 125.856 54.2077 130.154 51.9326 133.758C50.7748 135.575 49.2842 137.189 48.3671 139.14C47.3527 141.32 47.1177 143.783 47.7014 146.115C47.8749 146.799 48.1193 147.493 47.9989 148.187C47.8601 148.757 47.5856 149.286 47.1987 149.727C45.6469 151.713 43.6958 153.35 41.4716 154.535C39.2473 155.719 36.7992 156.424 34.2856 156.603C34.6893 158.122 36.1587 159.082 37.5573 159.79C39.9438 161.017 42.4589 161.977 45.0565 162.651C46.8021 163.104 48.6291 163.426 50.4066 163.118C52.184 162.81 53.9154 161.765 54.6554 160.116C55.0803 159.16 55.1441 158.08 55.5194 157.102C56.3656 154.911 58.621 153.586 59.832 151.572C60.9898 149.646 61.4395 149.419 61.7333 147.195C62.0272 144.972 62.6752 142.571 64.5022 141.265C66.4142 139.894 69.1051 140.156 71.2296 141.208C73.354 142.26 74.6676 141.849 76.4415 143.393C79.5534 146.096 83.0362 148.34 86.784 150.056C86.4299 146.969 85.8598 143.524 83.353 141.686C82.6448 141.158 81.749 140.755 81.3737 139.948C80.7753 138.662 81.7986 137.094 81.3348 135.752C80.8709 134.41 79.1077 133.914 78.3252 132.696C77.6595 131.662 77.8401 130.257 78.4633 129.194C79.0864 128.132 80.0707 127.346 81.0515 126.603C81.9225 125.944 82.8054 125.301 83.7 124.673C84.5084 124.16 85.2342 123.527 85.8527 122.796C86.2068 122.311 86.4405 121.249 86.9327 120.906C88.1719 120.049 90.0768 122.116 91.224 122.566Z" fill="black"/>
<path d="M90.87 122.212C92.8528 122.995 95.2818 122.056 96.4502 120.275C97.6186 118.494 97.5832 116.069 96.5989 114.178C95.6146 112.287 93.7947 110.914 91.7871 110.198C90.5691 109.766 89.213 109.519 88.2782 108.626C87.6869 108.063 87.3364 107.302 86.8938 106.615C85.2403 104.038 82.2908 102.515 79.2919 101.917C76.2929 101.318 73.1912 101.531 70.1391 101.743C68.999 101.825 67.6606 102.03 67.1436 103.05C66.7577 103.814 67.0091 104.732 66.9595 105.585C66.8002 108.301 63.7729 109.805 61.1279 110.457C58.483 111.108 55.4168 111.721 54.1279 114.114C52.9737 116.264 53.7986 118.87 54.1563 121.284C54.7678 125.502 53.8537 129.8 51.5786 133.404C50.4208 135.221 48.9301 136.835 48.0131 138.786C46.9987 140.966 46.7637 143.429 47.3474 145.761C47.5209 146.445 47.7652 147.139 47.6449 147.833C47.5061 148.403 47.2316 148.932 46.8447 149.373C45.2929 151.359 43.3418 152.996 41.1175 154.181C38.8933 155.365 36.4452 156.07 33.9316 156.249C34.3353 157.768 35.8047 158.728 37.2033 159.436C39.5898 160.663 42.1049 161.623 44.7025 162.297C46.4481 162.75 48.2751 163.072 50.0526 162.764C51.83 162.456 53.5614 161.411 54.3014 159.761C54.7263 158.805 54.7901 157.726 55.1654 156.748C56.0116 154.557 58.267 153.232 59.478 151.218C60.6358 149.292 61.0855 149.065 61.3793 146.841C61.6732 144.618 62.3212 142.217 64.1482 140.911C66.0602 139.54 68.7511 139.802 70.8756 140.854C73 141.906 74.3136 141.495 76.0875 143.039C79.1994 145.742 82.6822 147.986 86.43 149.702C86.0759 146.615 85.5058 143.17 82.999 141.332C82.2908 140.804 81.395 140.401 81.0197 139.594C80.4213 138.308 81.4446 136.74 80.9808 135.398C80.5169 134.056 78.7537 133.56 77.9712 132.342C77.3055 131.308 77.4861 129.903 78.1093 128.84C78.7324 127.778 79.7167 126.992 80.6975 126.249C81.5685 125.59 82.4514 124.947 83.346 124.319C84.1544 123.806 84.8802 123.173 85.4987 122.442C85.8528 121.957 86.0865 120.895 86.5787 120.551C87.8179 119.695 89.7228 121.762 90.87 122.212Z" fill="#916168"/>
<g opacity="0.1">
<path opacity="0.1" d="M115.994 230.264C116.021 229.322 116.156 228.386 116.398 227.474L116.221 227.534C116.044 228.433 115.968 229.349 115.994 230.264Z" fill="white"/>
<path opacity="0.1" d="M117.814 243.407C114.982 243.574 106.13 239.513 104.36 237.388C104.127 237.101 103.984 236.751 103.949 236.383C103.897 236.681 103.907 236.987 103.977 237.282C104.048 237.577 104.178 237.854 104.36 238.096C106.13 240.221 114.982 244.282 117.814 244.116C120.824 243.939 130.915 244.47 131.269 239.867C131.296 239.74 131.278 239.607 131.22 239.491C130.409 243.733 120.75 243.234 117.814 243.407Z" fill="white"/>
</g>
<path d="M132.155 137.717H131.801V152.234H132.155V137.717Z" fill="#FFD77C" stroke="#FFAB50" stroke-width="0.25" stroke-miterlimit="10"/>
<path d="M132.508 137.717H132.154V152.234H132.508V137.717Z" fill="#FFD77C" stroke="#FFAB50" stroke-width="0.25" stroke-miterlimit="10"/>
<path d="M132.863 137.717H132.509V152.234H132.863V137.717Z" fill="#FFD77C" stroke="#FFAB50" stroke-width="0.25" stroke-miterlimit="10"/>
<path d="M133.217 137.717H132.863V152.234H133.217V137.717Z" fill="#FFD77C" stroke="#FFAB50" stroke-width="0.25" stroke-miterlimit="10"/>
<path d="M133.571 137.717H133.217V152.234H133.571V137.717Z" fill="#FFD77C" stroke="#FFAB50" stroke-width="0.25" stroke-miterlimit="10"/>
<path d="M133.925 137.717H133.571V152.234H133.925V137.717Z" fill="#FFD77C" stroke="#FFAB50" stroke-width="0.25" stroke-miterlimit="10"/>
<path d="M134.279 137.717H133.925V152.234H134.279V137.717Z" fill="#FFD77C" stroke="#FFAB50" stroke-width="0.25" stroke-miterlimit="10"/>
<defs>
<linearGradient id="paint0_linear" x1="208.153" y1="249.958" x2="208.153" y2="98.7689" gradientUnits="userSpaceOnUse">
<stop stop-color="#808080" stop-opacity="0.25"/>
<stop offset="0.54" stop-color="#808080" stop-opacity="0.12"/>
<stop offset="1" stop-color="#808080" stop-opacity="0.1"/>
</linearGradient>
<linearGradient id="paint1_linear" x1="38411.3" y1="103344" x2="38411.3" y2="44978.6" gradientUnits="userSpaceOnUse">
<stop stop-color="#808080" stop-opacity="0.25"/>
<stop offset="0.54" stop-color="#808080" stop-opacity="0.12"/>
<stop offset="1" stop-color="#808080" stop-opacity="0.1"/>
</linearGradient>
</defs>
</svg>
