<svg width="302" height="243" viewBox="0 0 302 243" fill="none" xmlns="http://www.w3.org/2000/svg">
<path opacity="0.1" d="M98.4068 172.306C103.412 189.685 118.763 202.628 134.189 211.625C182.642 239.879 238.48 242.237 290.321 237.477C309.091 235.753 328.079 233.088 344.239 224.362C377.134 206.603 393.132 162.598 381.284 122.412C377.258 108.744 370.46 95.8352 363.023 83.4646C349.8 61.4651 334.098 40.4718 314.389 24.4979C300.326 13.1131 284.561 4.52817 268.57 -2.93331C223.9 -23.7625 175.996 -36.4751 129.486 -34.9672C109.087 -34.3052 88.2176 -30.5401 73.2212 -17.6585C58.2248 -4.77692 50.9592 19.2391 60.9749 39.2586C65.1167 47.5346 71.6812 54.3516 78.1435 60.9501C87.6601 70.6642 97.3685 80.4546 104.436 92.1345C111.731 104.206 118.209 122.578 109.948 133.289C101.056 144.758 93.4086 154.95 98.4068 172.306Z" fill="#22C88A"/>
<path d="M2.15426 167.412C2.15426 167.412 -12.8498 190.852 36.3363 191.254C36.3363 191.254 37.0597 170.86 20.9812 162.457C17.8547 160.816 14.2349 160.378 10.8075 161.227C7.38012 162.077 4.38313 164.153 2.38429 167.064L2.15426 167.412Z" fill="#22C88A"/>
<path d="M2.2666 167.018C2.2666 167.018 27.459 171.982 36.3367 191.254" stroke="#535461" stroke-miterlimit="10"/>
<path d="M38.5341 188.1C38.5341 188.1 22.3587 167.197 23.8358 146.59C24.4411 137.943 22.4101 129.304 17.7185 122.009C15.4861 118.556 12.942 115.313 10.1182 112.324" stroke="#535461" stroke-width="2" stroke-miterlimit="10"/>
<path d="M10.9652 99.3354C12.0943 102.229 10.1298 112.669 10.1298 112.669C10.1298 112.669 1.61535 106.315 0.486339 103.422C0.18865 102.728 0.0335677 101.982 0.0303254 101.227C0.027083 100.472 0.175746 99.7241 0.467465 99.0279C0.759184 98.3317 1.188 97.7014 1.72837 97.1743C2.26875 96.6473 2.90964 96.2344 3.61289 95.9601C4.31615 95.6859 5.0674 95.556 5.82191 95.5781C6.57642 95.6002 7.31877 95.7738 8.00477 96.0888C8.69077 96.4037 9.30639 96.8534 9.81499 97.4112C10.3236 97.969 10.7148 98.6233 10.9652 99.3354Z" fill="#22C88A"/>
<path d="M25.8875 111.982C25.264 115.027 17.9391 122.721 17.9391 122.721C17.9391 122.721 14.2403 112.762 14.8638 109.705C14.9963 108.966 15.2753 108.261 15.6844 107.632C16.0935 107.002 16.6245 106.461 17.246 106.04C17.8675 105.619 18.567 105.326 19.3033 105.18C20.0396 105.033 20.7978 105.035 21.5333 105.186C22.2687 105.337 22.9666 105.633 23.5856 106.058C24.2047 106.483 24.7325 107.027 25.138 107.659C25.5435 108.291 25.8184 108.998 25.9466 109.737C26.0748 110.477 26.0537 111.235 25.8845 111.966L25.8875 111.982Z" fill="#22C88A"/>
<path d="M36.2027 139.526C34.1263 141.838 23.9229 144.783 23.9229 144.783C23.9229 144.783 25.7571 134.32 27.8305 132.007C28.8336 130.92 30.2244 130.272 31.702 130.202C33.1796 130.133 34.625 130.648 35.7256 131.636C36.8261 132.625 37.4933 134.007 37.5825 135.483C37.6718 136.96 37.1761 138.412 36.2027 139.526Z" fill="#22C88A"/>
<path d="M39.3151 162.127C37.6594 164.757 28.0977 169.392 28.0977 169.392C28.0977 169.392 28.137 158.77 29.7927 156.14C30.1784 155.498 30.6882 154.94 31.2924 154.498C31.8965 154.056 32.5829 153.739 33.3111 153.565C34.0394 153.392 34.7949 153.365 35.5335 153.488C36.2721 153.61 36.9789 153.878 37.6125 154.277C38.2461 154.676 38.7938 155.197 39.2234 155.81C39.653 156.423 39.956 157.116 40.1146 157.847C40.2731 158.579 40.2841 159.335 40.1468 160.071C40.0095 160.807 39.7268 161.508 39.3151 162.133V162.127Z" fill="#22C88A"/>
<path d="M7.1453 127.576C10.0087 128.787 20.4967 127.098 20.4967 127.098C20.4967 127.098 14.3885 118.404 11.5251 117.194C10.8434 116.906 10.1118 116.756 9.37191 116.751C8.63206 116.746 7.8985 116.887 7.21311 117.166C6.52773 117.444 5.90395 117.855 5.37738 118.375C4.85081 118.895 4.43178 119.513 4.14419 120.195C3.85661 120.877 3.70611 121.608 3.70129 122.348C3.69647 123.088 3.83743 123.821 4.1161 124.507C4.39478 125.192 4.80573 125.816 5.32548 126.343C5.84523 126.869 6.46361 127.288 7.1453 127.576Z" fill="#22C88A"/>
<path d="M11.1287 153.961C14.2221 154.263 23.7233 149.508 23.7233 149.508C23.7233 149.508 15.2875 143.055 12.1941 142.758C11.4482 142.668 10.6916 142.727 9.96907 142.933C9.2465 143.139 8.57257 143.488 7.98704 143.959C7.4015 144.43 6.91622 145.014 6.55984 145.675C6.20345 146.337 5.98318 147.063 5.91201 147.811C5.84085 148.559 5.92023 149.314 6.14548 150.031C6.37073 150.748 6.73728 151.412 7.22351 151.985C7.70974 152.558 8.3058 153.028 8.9765 153.366C9.64721 153.705 10.379 153.906 11.1287 153.958V153.961Z" fill="#22C88A"/>
<path d="M18.511 179.071C21.5106 179.886 31.6778 176.81 31.6778 176.81C31.6778 176.81 24.4527 169.022 21.4531 168.211C20.7351 168.002 19.9825 167.938 19.2394 168.023C18.4963 168.108 17.7776 168.34 17.1253 168.706C16.4731 169.072 15.9003 169.564 15.4406 170.154C14.9808 170.744 14.6433 171.42 14.4477 172.142C14.2521 172.864 14.2025 173.617 14.3016 174.359C14.4007 175.1 14.6466 175.814 15.0249 176.459C15.4033 177.105 15.9064 177.668 16.505 178.116C17.1036 178.565 17.7855 178.89 18.511 179.071Z" fill="#22C88A"/>
<path opacity="0.25" d="M10.9652 99.3354C12.0943 102.229 10.1298 112.669 10.1298 112.669C10.1298 112.669 1.61535 106.315 0.486339 103.422C0.18865 102.728 0.0335677 101.982 0.0303254 101.227C0.027083 100.472 0.175746 99.7241 0.467465 99.0279C0.759184 98.3317 1.188 97.7014 1.72837 97.1743C2.26875 96.6473 2.90964 96.2344 3.61289 95.9601C4.31615 95.6859 5.0674 95.556 5.82191 95.5781C6.57642 95.6002 7.31877 95.7738 8.00477 96.0888C8.69077 96.4037 9.30639 96.8534 9.81499 97.4112C10.3236 97.969 10.7148 98.6233 10.9652 99.3354Z" fill="black"/>
<path opacity="0.25" d="M25.8875 111.982C25.264 115.027 17.9391 122.721 17.9391 122.721C17.9391 122.721 14.2403 112.762 14.8638 109.705C14.9963 108.966 15.2753 108.261 15.6844 107.632C16.0935 107.002 16.6245 106.461 17.246 106.04C17.8675 105.619 18.567 105.326 19.3033 105.18C20.0396 105.033 20.7978 105.035 21.5333 105.186C22.2687 105.337 22.9666 105.633 23.5856 106.058C24.2047 106.483 24.7325 107.027 25.138 107.659C25.5435 108.291 25.8184 108.998 25.9466 109.737C26.0748 110.477 26.0537 111.235 25.8845 111.966L25.8875 111.982Z" fill="black"/>
<path opacity="0.25" d="M36.2027 139.526C34.1263 141.838 23.9229 144.783 23.9229 144.783C23.9229 144.783 25.7571 134.32 27.8305 132.007C28.8336 130.92 30.2244 130.272 31.702 130.202C33.1796 130.133 34.625 130.648 35.7256 131.636C36.8261 132.625 37.4933 134.007 37.5825 135.483C37.6718 136.96 37.1761 138.412 36.2027 139.526Z" fill="black"/>
<path opacity="0.25" d="M39.3151 162.127C37.6594 164.757 28.0977 169.392 28.0977 169.392C28.0977 169.392 28.137 158.77 29.7927 156.14C30.1784 155.498 30.6882 154.94 31.2924 154.498C31.8965 154.056 32.5829 153.739 33.3111 153.565C34.0394 153.392 34.7949 153.365 35.5335 153.488C36.2721 153.61 36.9789 153.878 37.6125 154.277C38.2461 154.676 38.7938 155.197 39.2234 155.81C39.653 156.423 39.956 157.116 40.1146 157.847C40.2731 158.579 40.2841 159.335 40.1468 160.071C40.0095 160.807 39.7268 161.508 39.3151 162.133V162.127Z" fill="black"/>
<path opacity="0.25" d="M7.1453 127.576C10.0087 128.787 20.4967 127.098 20.4967 127.098C20.4967 127.098 14.3885 118.404 11.5251 117.194C10.8434 116.906 10.1118 116.756 9.37191 116.751C8.63206 116.746 7.8985 116.887 7.21311 117.166C6.52773 117.444 5.90395 117.855 5.37738 118.375C4.85081 118.895 4.43178 119.513 4.14419 120.195C3.85661 120.877 3.70611 121.608 3.70129 122.348C3.69647 123.088 3.83743 123.821 4.1161 124.507C4.39478 125.192 4.80573 125.816 5.32548 126.343C5.84523 126.869 6.46361 127.288 7.1453 127.576Z" fill="black"/>
<path opacity="0.25" d="M11.1287 153.961C14.2221 154.263 23.7233 149.508 23.7233 149.508C23.7233 149.508 15.2875 143.055 12.1941 142.758C11.4482 142.668 10.6916 142.727 9.96907 142.933C9.2465 143.139 8.57257 143.488 7.98704 143.959C7.4015 144.43 6.91622 145.014 6.55984 145.675C6.20345 146.337 5.98318 147.063 5.91201 147.811C5.84085 148.559 5.92023 149.314 6.14548 150.031C6.37073 150.748 6.73728 151.412 7.22351 151.985C7.70974 152.558 8.3058 153.028 8.9765 153.366C9.64721 153.705 10.379 153.906 11.1287 153.958V153.961Z" fill="black"/>
<path opacity="0.25" d="M18.511 179.071C21.5106 179.886 31.6778 176.81 31.6778 176.81C31.6778 176.81 24.4527 169.022 21.4531 168.211C20.7351 168.002 19.9825 167.938 19.2394 168.023C18.4963 168.108 17.7776 168.34 17.1253 168.706C16.4731 169.072 15.9003 169.564 15.4406 170.154C14.9808 170.744 14.6433 171.42 14.4477 172.142C14.2521 172.864 14.2025 173.617 14.3016 174.359C14.4007 175.1 14.6466 175.814 15.0249 176.459C15.4033 177.105 15.9064 177.668 16.505 178.116C17.1036 178.565 17.7855 178.89 18.511 179.071Z" fill="black"/>
<path d="M36.3643 86.09V167.049L144.083 146.124L142.025 84.0317L36.3643 86.09Z" fill="#DBACA2"/>
<path d="M238.85 181.544V208.301L124.956 241.579L123.794 240.976L33.7061 194.236V83.6019L145.197 80L145.884 141.405L141.422 142.78L139.706 85.3454L41.594 88.7476L40.9099 171.937L126.327 209.331L126.394 209.315L238.85 181.544Z" fill="#E8C2B8"/>
<path opacity="0.1" d="M238.85 181.544V208.301L124.956 241.579L123.794 240.976L126.394 209.315L238.85 181.544Z" fill="black"/>
<path d="M101.543 142.692C101.543 142.692 46.4004 148.195 41.0459 156.164C35.6914 164.134 41.0005 173.911 41.0005 173.911L126.248 210.959L241.855 181.114C241.855 181.114 238.768 160.187 229.164 157.787C219.56 155.386 143.05 138.92 143.05 138.92C143.05 138.92 112.177 137.032 101.543 142.692Z" fill="#EBECF0"/>
<path d="M40.9941 156.24L127.958 186.257C127.958 186.257 220.715 158.132 233.855 160.78C233.855 160.78 168.969 137.555 143.05 138.566C122.395 139.371 100.768 142.761 100.768 142.761C100.768 142.761 43.3974 148.524 40.9941 156.24Z" fill="#F8F9FA"/>
<path d="M174.796 175.551L174.817 175.521V175.503L174.832 175.472V175.451V175.421V175.4V175.366V175.345V175.306V175.288C174.832 175.27 174.832 175.251 174.832 175.233C174.832 175.212 174.832 175.191 174.832 175.17C174.832 175.149 174.832 175.17 174.832 175.149C174.832 175.127 174.832 175.118 174.832 175.103V175.076V175.03V175V174.955V174.925V174.876V174.846V174.794V174.767L174.808 174.691L174.778 174.607V174.579L174.754 174.519V174.486L174.729 174.428L174.714 174.392L174.69 174.334L174.672 174.295L174.645 174.237L174.626 174.201L174.593 174.138L174.575 174.104L174.53 174.016L174.475 173.914L174.457 173.88L174.418 173.808L174.396 173.768L174.357 173.702L174.333 173.659L174.293 173.593L174.227 173.493L174.184 173.426L174.157 173.384L174.112 173.311L174.088 173.272L174.027 173.175V173.157L173.951 173.042L173.927 173.009L173.873 172.927L173.842 172.884L173.791 172.812L173.761 172.766L173.709 172.694L173.676 172.645L173.621 172.585L173.588 172.539L173.531 172.461L173.5 172.421L173.425 172.318V172.303L173.337 172.182L173.307 172.14L173.249 172.061L173.21 172.01L173.155 171.937L173.116 171.886L173.062 171.813L173.022 171.765L172.965 171.689L172.925 171.64L172.865 171.562L172.828 171.516L172.756 171.426L172.732 171.395C172.459 171.05 172.178 170.705 171.896 170.372C171.102 169.428 170.13 168.651 169.035 168.083C167.94 167.515 166.744 167.169 165.516 167.064C165.264 167.043 165.001 167.015 164.735 166.982H164.623L164.426 166.955H164.332L164.029 166.913L163.742 166.867L163.642 166.849L163.439 166.813L163.318 166.788L163.133 166.752L163.003 166.725L162.828 166.685L162.695 166.655L162.519 166.613L162.383 166.58L162.21 166.534L162.074 166.498L161.902 166.449C160.994 165.099 159.613 163.898 158.269 163.665C157.899 163.607 157.521 163.627 157.159 163.722L157.095 163.653L157.004 163.55L156.883 163.395L156.804 163.292L156.677 163.114L156.614 163.026C156.551 162.935 156.492 162.842 156.435 162.748C156.256 162.668 156.07 162.608 155.878 162.569C158.557 162.163 161.198 161.541 163.775 160.707C163.9 160.66 164.019 160.598 164.129 160.523L164.184 160.505C166.427 159.687 169.181 151.727 167.244 150.613C165.307 149.499 162.35 140.322 160.615 135.621C158.881 130.92 153.883 130.421 153.883 130.421C153.883 130.421 146.643 124.812 143.38 125.424C140.117 126.035 139.606 121.141 139.3 120.938C139.265 120.908 139.235 120.872 139.212 120.832C138.425 119.6 132.169 117.956 128.794 117.145C125.495 114.754 121.56 112.899 118.379 112.133C117.316 111.845 116.201 111.808 115.121 112.023C114.042 112.238 113.027 112.701 112.156 113.374C105.472 113.713 104.407 118.762 104.407 118.762C104.384 119.451 104.503 120.137 104.758 120.778C104.397 120.782 104.036 120.763 103.677 120.72C104.452 119.44 104.476 117.793 105.055 116.386C106.196 113.601 109.344 112.163 112.319 111.788C114.053 111.57 115.951 111.57 117.319 110.483C118.023 109.921 118.504 109.125 118.675 108.24C118.731 108.049 118.714 107.844 118.627 107.665C118.542 107.549 118.428 107.457 118.297 107.399C116.505 106.442 114.347 106.691 112.313 106.645C109.008 106.573 105.787 105.668 102.591 104.829C101.238 104.475 99.7758 104.133 98.4682 104.635C97.2332 105.108 96.3918 106.234 95.402 107.108C91.346 110.686 84.6113 110.168 81.0033 114.2C80.1679 115.135 79.5414 116.404 79.8471 117.621C79.9712 118.117 80.2466 118.574 80.3344 119.079C80.5099 120.078 79.9409 121.035 79.4596 121.928C78.9784 122.821 78.5516 123.904 79.0056 124.812C79.6927 126.199 81.7903 126.096 82.88 127.194C83.3854 127.706 83.6306 128.438 84.1573 128.926C85.0018 129.704 86.3003 129.643 87.4444 129.531C87.8954 129.489 88.5704 129.365 88.8186 128.968C89.7036 129.801 90.7698 130.416 91.9332 130.766C93.0965 131.117 94.3254 131.192 95.5228 130.987C96.7203 130.781 97.8537 130.301 98.8339 129.583C99.814 128.865 100.614 127.929 101.171 126.849C103.637 126.683 106.087 127.346 108.133 128.732C108.441 129.641 109.007 130.44 109.761 131.032C110.476 131.592 111.326 132.279 112.183 133.015C110.013 133.587 108.084 133.953 108.084 133.953C108.084 133.953 99.5185 136.708 99.5185 138.542C99.5489 138.874 99.6522 139.196 99.8212 139.483C99.6043 139.939 99.4818 140.435 99.461 140.939C97.097 140.54 95.2052 139.937 94.2276 139.05C94.2276 139.05 93.9491 138.975 93.5193 138.89C92.9442 138.155 91.2552 136.111 90.2503 136.193C89.5814 136.248 89.3423 137.803 89.2575 139.196C89.1695 139.272 89.0921 139.359 89.0275 139.456C88.0074 140.985 89.8447 144.045 91.0676 144.556C92.2904 145.068 99.0221 144.859 103.611 148.228C105.645 149.72 109.141 150.008 112.389 149.868C109.123 152.175 104.549 155.719 103.913 157.917C103.571 159.082 103.169 160.529 103.193 162.015C101.195 164.658 98.1715 170.236 105.648 172.912C111.81 175.112 128.519 174.831 140.423 174.292C145.962 175.27 150.536 176.253 152.455 177.195C152.455 177.195 157.043 177.8 158.881 178.929C160.718 180.058 164.081 179.746 164.081 179.746C164.081 179.746 170.607 180.869 172.035 182.295C173.464 183.721 175.91 179.846 172.853 178.012C171.66 177.298 169.883 176.12 168.161 174.831C170.374 175.091 172.326 175.376 173.567 175.666L173.691 175.693H173.73H173.809H173.855H173.921H173.964H174.027H174.33H174.408H174.433H174.481H174.508H174.548H174.572H174.608H174.632L174.666 175.678H174.687L174.717 175.657H174.732L174.772 175.624L174.796 175.551ZM146.625 165.774C146.625 165.774 145.765 165.578 144.482 165.275L141.934 164.246C141.934 164.246 146.283 162.878 150.312 161.137C151.465 161.643 152.479 162.045 152.733 162.412C152.843 162.533 152.992 162.611 153.154 162.633C151.641 163.008 149.697 163.973 147.418 166.201C147.142 166.083 146.876 165.94 146.625 165.774ZM115.83 141.197L118.345 140.028C118.893 140.494 119.48 140.936 120.056 141.366C118.675 141.448 116.82 141.539 114.722 141.596C115.364 141.381 115.83 141.197 115.83 141.197Z" fill="url(#paint0_linear)"/>
<path d="M94.3972 139.247C94.3972 139.247 92.1997 136.263 91.0041 136.354C89.8085 136.444 90.0052 141.445 90.0052 141.445L94.3972 139.247Z" fill="#FFD5D8"/>
<path d="M122.65 141.245C122.65 141.245 99.2887 143.143 94.8967 139.147C94.8967 139.147 90.8045 138.049 89.8056 139.547C88.8067 141.045 90.6047 144.039 91.8033 144.538C93.0019 145.038 99.5914 144.841 104.083 148.131C108.575 151.421 120.355 148.736 120.355 148.736L125.247 146.839L122.65 141.245Z" fill="#FF7C5E"/>
<path opacity="0.05" d="M122.65 141.245C122.65 141.245 99.2887 143.143 94.8967 139.147C94.8967 139.147 90.8045 138.049 89.8056 139.547C88.8067 141.045 90.6047 144.039 91.8033 144.538C93.0019 145.038 99.5914 144.841 104.083 148.131C108.575 151.421 120.355 148.736 120.355 148.736L125.247 146.839L122.65 141.245Z" fill="black"/>
<path d="M156.094 152.426C156.094 152.426 151.102 148.833 140.82 153.334C130.538 157.835 104.883 160.223 104.883 160.223C104.883 160.223 96.2985 168.807 106.093 172.303C115.888 175.799 152.813 172.909 152.813 172.909C152.813 172.909 167.886 173.908 172.578 175.006C175.417 175.672 173.183 172.458 170.958 169.818C170.182 168.894 169.23 168.131 168.158 167.576C167.086 167.02 165.914 166.681 164.711 166.58C161.763 166.328 157.674 165.402 155.803 162.327C155.803 162.327 152.21 160.529 146.819 165.92L141.619 163.807C141.619 163.807 155.894 159.315 156.393 156.319C156.893 153.322 156.094 152.426 156.094 152.426Z" fill="#FFD5D8"/>
<path opacity="0.05" d="M156.094 152.426C156.094 152.426 151.102 148.833 140.82 153.334C130.538 157.835 104.883 160.223 104.883 160.223C104.883 160.223 96.2985 168.807 106.093 172.303C115.888 175.799 152.812 172.909 152.812 172.909C152.812 172.909 167.886 173.908 172.578 175.006C175.066 175.587 173.652 173.19 171.779 170.823C170.844 169.634 169.684 168.642 168.365 167.903C167.045 167.164 165.592 166.694 164.09 166.519C161.215 166.192 157.546 165.19 155.806 162.327C155.806 162.327 152.213 160.529 146.822 165.92L141.619 163.807C141.619 163.807 155.894 159.315 156.393 156.319C156.893 153.322 156.094 152.426 156.094 152.426Z" fill="black"/>
<path d="M156.193 138.251C156.193 138.251 149.903 128.263 135.029 136.953L115.96 147.547C115.96 147.547 105.366 154.236 104.379 157.629C103.393 161.022 101.882 166.813 112.267 169.01C122.652 171.208 146.81 174.001 151.901 176.499C151.901 176.499 156.393 177.104 158.191 178.197C159.988 179.289 163.282 178.996 163.282 178.996C163.282 178.996 169.671 180.094 171.07 181.493C172.468 182.891 174.862 179.096 171.869 177.301C168.875 175.506 162.086 170.711 162.183 168.825C162.28 166.94 159.886 163.607 157.579 163.202C155.273 162.796 152.288 166.195 152.288 166.195C152.288 166.195 148.496 166.801 146.198 165.287C146.198 165.287 134.418 162.59 133.219 161.794C132.021 160.998 123.836 157.902 123.836 157.902C123.836 157.902 143.208 157.702 148.892 152.511C148.892 152.511 151.09 150.913 152.885 151.412C152.9 151.427 161.783 148.034 156.193 138.251Z" fill="#FFD5D8"/>
<path d="M99.5877 119.482C99.5877 119.482 105.278 123.474 109.67 119.482C114.062 115.49 111.571 131.762 111.571 131.762C111.571 131.762 105.481 123.674 96.3975 128.968L99.5877 119.482Z" fill="#FFD5D8"/>
<path opacity="0.05" d="M99.5877 119.482C99.5877 119.482 105.278 123.474 109.67 119.482C114.062 115.49 111.571 131.762 111.571 131.762C111.571 131.762 105.481 123.674 96.3975 128.968L99.5877 119.482Z" fill="black"/>
<path d="M75.2312 153.725C75.2312 153.725 81.2213 148.633 84.6144 148.534C85.6254 148.503 86.7937 147.474 87.9439 146.046C89.3969 144.241 91.3133 142.865 93.4881 142.065C95.6629 141.265 98.0142 141.072 100.29 141.505C102.222 141.862 104.598 141.853 107.482 141.139C117.964 138.542 112.773 132.059 112.773 132.059L109.48 129.265C109.48 129.265 104.988 126.171 103.29 126.371C101.592 126.571 97.2 131.063 96.7006 130.563C96.2011 130.064 90.1112 125.572 89.1123 124.373C88.1134 123.175 80.1226 119.282 82.1203 118.184C84.118 117.085 94.1974 112.992 92.1997 112.193C90.202 111.394 79.4204 110.196 75.2282 115.187C71.036 120.178 73.1306 150.828 75.2312 153.725Z" fill="#F8F9FA"/>
<path opacity="0.05" d="M75.2312 153.725C75.2312 153.725 81.2213 148.633 84.6144 148.534C85.6254 148.503 86.7937 147.474 87.9439 146.046C89.3969 144.241 91.3133 142.865 93.4881 142.065C95.6629 141.265 98.0142 141.072 100.29 141.505C102.222 141.862 104.598 141.853 107.482 141.139C117.964 138.542 112.773 132.059 112.773 132.059L109.48 129.265C109.48 129.265 104.988 126.171 103.29 126.371C101.592 126.571 97.2 131.063 96.7006 130.563C96.2011 130.064 90.1112 125.572 89.1123 124.373C88.1134 123.175 80.1226 119.282 82.1203 118.184C84.118 117.085 94.1974 112.992 92.1997 112.193C90.202 111.394 79.4204 110.196 75.2282 115.187C71.036 120.178 73.1306 150.828 75.2312 153.725Z" fill="black"/>
<path d="M75.6316 153.025C75.6316 153.025 81.6217 147.934 85.0148 147.834C86.0257 147.804 87.1941 146.775 88.3443 145.346C89.7956 143.543 91.7093 142.168 93.8812 141.368C96.053 140.568 98.4014 140.373 100.676 140.803C102.607 141.16 104.983 141.151 107.867 140.437C118.349 137.84 113.158 131.356 113.158 131.356L109.865 128.563C109.865 128.563 105.373 125.469 103.675 125.669C101.977 125.869 97.5852 130.36 97.0858 129.861C96.5863 129.362 90.4964 124.87 89.4975 123.671C88.4986 122.473 80.5229 118.583 82.5146 117.496C84.5062 116.41 94.5947 112.305 92.597 111.506C90.5993 110.707 79.8177 109.509 75.6255 114.5C71.4334 119.491 73.534 150.129 75.6316 153.025Z" fill="#F8F9FA"/>
<path d="M104.879 119.282C104.879 119.282 106.477 111.694 118.158 114.691C129.838 117.687 135.629 124.174 135.629 124.174L125.035 129.065L112.056 124.673C112.056 124.673 104.782 124.761 104.879 119.282Z" fill="#FFD5D8"/>
<path opacity="0.05" d="M126.245 117.384C126.245 117.384 137.478 119.806 138.537 121.474C138.56 121.513 138.59 121.548 138.625 121.577C138.928 121.776 139.424 126.568 142.617 125.969C145.811 125.369 152.909 130.86 152.909 130.86C152.909 130.86 157.8 131.359 159.498 135.951C161.196 140.543 164.09 149.529 165.988 150.625C167.885 151.721 165.189 159.509 162.994 160.311C160.8 161.113 152.912 163.008 152.213 162.009C151.513 161.01 145.423 159.911 145.823 156.718C146.222 153.525 148.617 150.528 146.731 148.63C144.845 146.733 143.638 141.741 140.841 140.742C138.044 139.744 133.053 139.444 130.059 141.442C127.066 143.439 123.449 143.527 123.449 143.527C123.449 143.527 117.259 139.934 116.26 137.437C115.588 135.754 112.24 132.939 110.127 131.284C109.574 130.849 109.121 130.299 108.802 129.672C108.483 129.044 108.304 128.355 108.278 127.651C108.19 125.188 108.112 121.555 108.372 120.968C108.771 120.06 114.262 114.678 114.262 114.678L126.245 117.384Z" fill="black"/>
<path d="M126.645 117.194C126.645 117.194 137.878 119.615 138.937 121.283C138.959 121.323 138.989 121.357 139.025 121.386C139.327 121.586 139.824 126.377 143.017 125.778C146.21 125.179 153.308 130.669 153.308 130.669C153.308 130.669 158.2 131.169 159.898 135.76C161.596 140.352 164.489 149.339 166.387 150.434C168.285 151.53 165.588 159.318 163.394 160.12C161.199 160.922 153.311 162.817 152.612 161.818C151.913 160.82 145.823 159.721 146.223 156.527C146.622 153.334 149.016 150.338 147.131 148.44C145.245 146.542 144.037 141.551 141.24 140.552C138.444 139.553 133.452 139.253 130.459 141.251C127.465 143.249 123.521 143.597 123.521 143.597C123.521 143.597 117.682 139.753 116.684 137.259C116.012 135.576 112.664 132.761 110.551 131.105C109.998 130.67 109.545 130.12 109.226 129.493C108.906 128.866 108.728 128.176 108.702 127.473C108.614 125.009 108.535 121.377 108.796 120.79C109.195 119.882 114.686 114.5 114.686 114.5L126.645 117.194Z" fill="#FF7C5E"/>
<path d="M100.787 138.848C100.687 138.948 98.9887 141.445 100.986 142.84C101.539 143.245 102.178 143.518 102.853 143.637C103.528 143.756 104.221 143.719 104.879 143.527L100.787 138.848Z" fill="#FFD5D8"/>
<path opacity="0.1" d="M110.36 117.085C110.36 117.085 113.057 111.694 118.835 113.092C124.614 114.491 133.01 119.582 135.008 124.673C137.005 129.764 127.441 135.96 127.441 135.96L116.06 141.251C116.06 141.251 112.567 142.649 111.568 142.159C110.569 141.669 105.778 145.949 105.778 145.949C105.778 145.949 100.387 140.758 100.387 138.96C100.387 137.162 108.774 134.447 108.774 134.447C108.774 134.447 118.763 132.549 118.657 130.654C118.657 130.654 120.355 128.656 119.456 128.057C118.557 127.458 108.922 124.613 108.922 124.613C108.922 124.613 108.574 118.283 110.36 117.085Z" fill="black"/>
<path d="M110.058 116.785C110.058 116.785 112.755 111.394 118.533 112.793C124.312 114.191 132.708 119.282 134.706 124.373C136.703 129.465 127.142 135.657 127.142 135.657L115.761 140.948C115.761 140.948 112.268 142.347 111.269 141.856C110.27 141.366 105.479 145.646 105.479 145.646C105.479 145.646 100.088 140.455 100.088 138.657C100.088 136.859 108.475 134.144 108.475 134.144C108.475 134.144 118.464 132.246 118.358 130.351C118.358 130.351 120.056 128.354 119.157 127.754C118.258 127.155 108.624 124.31 108.624 124.31C108.624 124.31 108.275 117.984 110.058 116.785Z" fill="#FF7C5E"/>
<path opacity="0.1" d="M97.2939 127.966C98.9132 126.98 100.736 126.376 102.624 126.202C103.172 125.145 101.734 123.995 101.734 122.724C101.734 121.658 101.329 121.253 100.935 120.327C99.5066 119.809 100.487 118.48 100.487 118.48L97.2939 127.966Z" fill="black"/>
<path d="M94.8962 131.362C99.1422 131.362 102.584 127.92 102.584 123.674C102.584 119.428 99.1422 115.986 94.8962 115.986C90.6501 115.986 87.208 119.428 87.208 123.674C87.208 127.92 90.6501 131.362 94.8962 131.362Z" fill="#FFD5D8"/>
<path d="M89.1333 126.828C90.8495 125.502 93.0833 125.057 95.2445 124.864C96.5944 124.743 97.9686 124.7 99.2641 124.289C100.009 124.029 100.732 123.709 101.425 123.332C102.351 122.86 103.308 122.364 103.941 121.537C104.927 120.248 104.897 118.462 105.515 116.958C106.631 114.233 109.713 112.823 112.637 112.457C114.335 112.242 116.19 112.242 117.534 111.179C118.224 110.629 118.695 109.851 118.863 108.985C118.917 108.798 118.899 108.597 118.814 108.422C118.731 108.308 118.619 108.219 118.491 108.162C116.735 107.226 114.622 107.469 112.634 107.423C109.398 107.353 106.244 106.464 103.114 105.643C101.788 105.295 100.357 104.962 99.0795 105.453C97.8687 105.916 97.0485 107.018 96.0769 107.874C92.1056 111.379 85.5132 110.871 81.9809 114.818C81.1636 115.726 80.5492 116.976 80.8489 118.165C80.973 118.653 81.2393 119.098 81.3271 119.594C81.4996 120.572 80.9427 121.51 80.4705 122.382C79.9983 123.253 79.5867 124.319 80.0256 125.206C80.7005 126.562 82.7497 126.462 83.8182 127.536C84.3146 128.036 84.5507 128.747 85.0683 129.231C85.8976 129.994 87.1659 129.934 88.2858 129.837C88.8912 129.779 89.8809 129.58 89.7084 128.768C89.5631 128.042 88.6036 127.73 89.1333 126.828Z" fill="#85596B"/>
<path d="M86.4482 131.42C86.4482 131.42 91.6907 127.485 94.9839 128.774C98.2771 130.064 99.1761 130.772 101.274 129.985C103.371 129.198 104.267 131.583 104.267 131.583L91.2034 135.355L86.4482 131.42Z" fill="#F8F9FA"/>
<path opacity="0.05" d="M79.375 138.3C79.375 138.3 81.7722 132.11 84.6659 130.911L79.375 138.3Z" fill="black"/>
<path opacity="0.05" d="M76.2783 136.302C76.2783 136.302 78.6756 130.112 81.5692 128.914L76.2783 136.302Z" fill="black"/>
<path opacity="0.05" d="M132.384 137.8C132.384 137.8 140.859 133.708 146.558 134.108C152.258 134.507 153.248 130.914 153.248 130.914" fill="black"/>
<path d="M95.7205 239.974C95.0152 239.317 94.3523 238.543 94.1465 237.601C93.9407 236.66 94.3433 235.528 95.2453 235.18C96.2532 234.792 97.3338 235.482 98.151 236.2C98.9683 236.917 99.9066 237.713 100.975 237.562C100.425 237.063 100.013 236.43 99.7802 235.724C99.5474 235.019 99.5012 234.265 99.6463 233.536C99.6932 233.235 99.8208 232.953 100.016 232.719C100.576 232.114 101.593 232.377 102.261 232.849C104.38 234.363 104.986 237.247 105.001 239.856C105.216 238.915 105.034 237.934 105.04 236.969C105.046 236.003 105.309 234.935 106.124 234.414C106.631 234.141 107.201 234.008 107.776 234.027C108.736 233.99 109.804 234.087 110.458 234.789C111.272 235.661 111.063 237.123 110.352 238.082C109.641 239.042 108.566 239.644 107.577 240.307C106.782 240.781 106.104 241.427 105.594 242.199C105.534 242.307 105.484 242.42 105.446 242.538H99.4374C98.0884 241.855 96.8381 240.993 95.7205 239.974Z" fill="#22C88A"/>
<path d="M234.51 212.99C234.042 212.608 233.701 212.093 233.532 211.513C233.405 210.926 233.656 210.224 234.216 210C234.843 209.76 235.515 210.193 236.033 210.635C236.55 211.077 237.122 211.577 237.788 211.483C237.446 211.172 237.19 210.779 237.045 210.34C236.9 209.901 236.871 209.433 236.962 208.979C236.991 208.792 237.07 208.616 237.192 208.471C237.54 208.099 238.173 208.259 238.59 208.553C239.916 209.485 240.285 211.277 240.294 212.908C240.428 212.324 240.316 211.713 240.319 211.113C240.322 210.514 240.485 209.848 240.994 209.527C241.309 209.357 241.664 209.274 242.023 209.285C242.628 209.264 243.282 209.325 243.69 209.76C244.196 210.302 244.066 211.21 243.624 211.807C243.182 212.403 242.513 212.778 241.899 213.19C241.405 213.485 240.984 213.887 240.667 214.367C240.63 214.434 240.599 214.504 240.576 214.576H236.82C235.982 214.154 235.205 213.62 234.51 212.99Z" fill="#22C88A"/>
<defs>
<linearGradient id="paint0_linear" x1="126.869" y1="182.604" x2="126.869" y2="104.381" gradientUnits="userSpaceOnUse">
<stop stop-color="#808080" stop-opacity="0.25"/>
<stop offset="0.54" stop-color="#808080" stop-opacity="0.12"/>
<stop offset="1" stop-color="#808080" stop-opacity="0.1"/>
</linearGradient>
</defs>
</svg>
