<svg width="360" height="283" viewBox="0 0 360 283" fill="none" xmlns="http://www.w3.org/2000/svg">
<path opacity="0.1" d="M156.407 172.306C161.413 189.685 176.763 202.628 192.189 211.625C240.642 239.879 296.481 242.237 348.321 237.477C367.092 235.753 386.079 233.088 402.24 224.362C435.135 206.603 451.132 162.598 439.285 122.412C435.259 108.744 428.461 95.8352 421.023 83.4646C407.8 61.4651 392.099 40.4718 372.39 24.4979C358.327 13.1131 342.561 4.52817 326.57 -2.93331C281.901 -23.7625 233.996 -36.4751 187.487 -34.9672C167.088 -34.3052 146.218 -30.5401 131.222 -17.6585C116.225 -4.77692 108.96 19.2391 118.975 39.2586C123.117 47.5346 129.682 54.3516 136.144 60.9501C145.661 70.6642 155.369 80.4546 162.436 92.1345C169.732 104.206 176.209 122.578 167.948 133.289C159.057 144.758 151.409 154.95 156.407 172.306Z" fill="#22C88A"/>
<path d="M102.851 58.0781L99.3179 66H98.1812L101.703 58.3594H97.0854V57.4688H102.851V58.0781ZM109.431 62.3613C109.431 63.6309 109.214 64.5742 108.781 65.1914C108.347 65.8086 107.669 66.1172 106.748 66.1172C105.837 66.1172 105.164 65.8164 104.726 65.2148C104.289 64.6094 104.062 63.707 104.046 62.5078V61.0605C104.046 59.8066 104.263 58.875 104.697 58.2656C105.13 57.6562 105.81 57.3516 106.736 57.3516C107.654 57.3516 108.33 57.6465 108.763 58.2363C109.197 58.8223 109.419 59.7285 109.431 60.9551V62.3613ZM108.347 60.8789C108.347 59.9609 108.218 59.293 107.96 58.875C107.703 58.4531 107.294 58.2422 106.736 58.2422C106.181 58.2422 105.777 58.4512 105.523 58.8691C105.269 59.2871 105.138 59.9297 105.13 60.7969V62.5312C105.13 63.4531 105.263 64.1348 105.529 64.5762C105.798 65.0137 106.205 65.2324 106.748 65.2324C107.283 65.2324 107.679 65.0254 107.937 64.6113C108.199 64.1973 108.335 63.5449 108.347 62.6543V60.8789Z" fill="#22C88A"/>
<line x1="97" y1="72.341" x2="97" y2="79.5328" stroke="#D5F4E9" stroke-width="2"/>
<path d="M88.5972 27.4629V28.3828H88.3979C87.5542 28.3984 86.8823 28.6484 86.3823 29.1328C85.8823 29.6172 85.5933 30.2988 85.5151 31.1777C85.9644 30.6621 86.5776 30.4043 87.355 30.4043C88.0972 30.4043 88.689 30.666 89.1304 31.1895C89.5757 31.7129 89.7983 32.3887 89.7983 33.2168C89.7983 34.0957 89.5581 34.7988 89.0776 35.3262C88.6011 35.8535 87.9604 36.1172 87.1558 36.1172C86.3394 36.1172 85.6772 35.8047 85.1694 35.1797C84.6616 34.5508 84.4077 33.7422 84.4077 32.7539V32.3379C84.4077 30.7676 84.7417 29.5684 85.4097 28.7402C86.0815 27.9082 87.0796 27.4824 88.4038 27.4629H88.5972ZM87.1733 31.3066C86.8022 31.3066 86.4604 31.418 86.1479 31.6406C85.8354 31.8633 85.6187 32.1426 85.4976 32.4785V32.877C85.4976 33.5801 85.6558 34.1465 85.9722 34.5762C86.2886 35.0059 86.6831 35.2207 87.1558 35.2207C87.644 35.2207 88.0269 35.041 88.3042 34.6816C88.5854 34.3223 88.7261 33.8516 88.7261 33.2695C88.7261 32.6836 88.5835 32.2109 88.2983 31.8516C88.0171 31.4883 87.6421 31.3066 87.1733 31.3066ZM95.2358 32.25C95.0093 32.5195 94.7378 32.7363 94.4214 32.9004C94.1089 33.0645 93.7651 33.1465 93.3901 33.1465C92.8979 33.1465 92.4683 33.0254 92.1011 32.7832C91.7378 32.541 91.4565 32.2012 91.2573 31.7637C91.0581 31.3223 90.9585 30.8359 90.9585 30.3047C90.9585 29.7344 91.0659 29.2207 91.2808 28.7637C91.4995 28.3066 91.8081 27.957 92.2065 27.7148C92.605 27.4727 93.0698 27.3516 93.6011 27.3516C94.4448 27.3516 95.1089 27.668 95.5933 28.3008C96.0815 28.9297 96.3257 29.7891 96.3257 30.8789V31.1953C96.3257 32.8555 95.9976 34.0684 95.3413 34.834C94.6851 35.5957 93.6948 35.9863 92.3706 36.0059H92.1597V35.0918H92.3882C93.2827 35.0762 93.9702 34.8438 94.4507 34.3945C94.9312 33.9414 95.1929 33.2266 95.2358 32.25ZM93.5659 32.25C93.9292 32.25 94.2632 32.1387 94.5679 31.916C94.8765 31.6934 95.1011 31.418 95.2417 31.0898V30.6562C95.2417 29.9453 95.0874 29.3672 94.7788 28.9219C94.4702 28.4766 94.0796 28.2539 93.6069 28.2539C93.1304 28.2539 92.7476 28.4375 92.4585 28.8047C92.1694 29.168 92.0249 29.6484 92.0249 30.2461C92.0249 30.8281 92.1636 31.3086 92.4409 31.6875C92.7222 32.0625 93.0972 32.25 93.5659 32.25Z" fill="#22C88A"/>
<line x1="84" y1="42.341" x2="84" y2="49.5328" stroke="#D5F4E9" stroke-width="2"/>
<path d="M129.851 88.0781L126.318 96H125.181L128.703 88.3594H124.085V87.4688H129.851V88.0781ZM134.644 96H133.554V88.7754L131.369 89.5781V88.5938L134.474 87.4277H134.644V96Z" fill="#22C88A"/>
<line x1="124" y1="102.341" x2="124" y2="109.533" stroke="#D5F4E9" stroke-width="2"/>
<path d="M139.851 122.078L136.318 130H135.181L138.703 122.359H134.085V121.469H139.851V122.078ZM146.671 130H141.082V129.221L144.035 125.939C144.472 125.443 144.773 125.041 144.937 124.732C145.105 124.42 145.189 124.098 145.189 123.766C145.189 123.32 145.054 122.955 144.785 122.67C144.515 122.385 144.156 122.242 143.707 122.242C143.167 122.242 142.748 122.396 142.447 122.705C142.15 123.01 142.001 123.436 142.001 123.982H140.917C140.917 123.197 141.169 122.562 141.673 122.078C142.181 121.594 142.859 121.352 143.707 121.352C144.5 121.352 145.126 121.561 145.587 121.979C146.048 122.393 146.279 122.945 146.279 123.637C146.279 124.477 145.744 125.477 144.673 126.637L142.388 129.115H146.671V130Z" fill="#22C88A"/>
<line x1="134" y1="136.341" x2="134" y2="143.533" stroke="#D5F4E9" stroke-width="2"/>
<path d="M139.851 192.078L136.318 200H135.181L138.703 192.359H134.085V191.469H139.851V192.078ZM145.658 197.135H146.841V198.02H145.658V200H144.568V198.02H140.683V197.381L144.503 191.469H145.658V197.135ZM141.914 197.135H144.568V192.951L144.439 193.186L141.914 197.135Z" fill="#22C88A"/>
<line x1="134" y1="206.341" x2="134" y2="213.533" stroke="#D5F4E9" stroke-width="2"/>
<path d="M166.851 223.078L163.318 231H162.181L165.703 223.359H161.085V222.469H166.851V223.078ZM168.58 226.723L169.013 222.469H173.384V223.471H169.933L169.675 225.797C170.093 225.551 170.568 225.428 171.099 225.428C171.876 225.428 172.494 225.686 172.951 226.201C173.408 226.713 173.636 227.406 173.636 228.281C173.636 229.16 173.398 229.854 172.921 230.361C172.449 230.865 171.787 231.117 170.935 231.117C170.181 231.117 169.566 230.908 169.089 230.49C168.613 230.072 168.341 229.494 168.275 228.756H169.3C169.367 229.244 169.541 229.613 169.822 229.863C170.103 230.109 170.474 230.232 170.935 230.232C171.439 230.232 171.833 230.061 172.119 229.717C172.408 229.373 172.552 228.898 172.552 228.293C172.552 227.723 172.396 227.266 172.083 226.922C171.775 226.574 171.363 226.4 170.847 226.4C170.375 226.4 170.003 226.504 169.734 226.711L169.447 226.945L168.58 226.723Z" fill="#22C88A"/>
<line x1="161" y1="237.341" x2="161" y2="244.533" stroke="#D5F4E9" stroke-width="2"/>
<path d="M204.851 244.078L201.318 252H200.181L203.703 244.359H199.085V243.469H204.851V244.078ZM210.335 243.463V244.383H210.136C209.292 244.398 208.621 244.648 208.121 245.133C207.621 245.617 207.332 246.299 207.253 247.178C207.703 246.662 208.316 246.404 209.093 246.404C209.835 246.404 210.427 246.666 210.869 247.189C211.314 247.713 211.537 248.389 211.537 249.217C211.537 250.096 211.296 250.799 210.816 251.326C210.339 251.853 209.699 252.117 208.894 252.117C208.078 252.117 207.416 251.805 206.908 251.18C206.4 250.551 206.146 249.742 206.146 248.754V248.338C206.146 246.768 206.48 245.568 207.148 244.74C207.82 243.908 208.818 243.482 210.142 243.463H210.335ZM208.912 247.307C208.541 247.307 208.199 247.418 207.886 247.641C207.574 247.863 207.357 248.143 207.236 248.478V248.877C207.236 249.58 207.394 250.146 207.71 250.576C208.027 251.006 208.421 251.221 208.894 251.221C209.382 251.221 209.765 251.041 210.042 250.682C210.324 250.322 210.464 249.852 210.464 249.27C210.464 248.684 210.322 248.211 210.037 247.852C209.755 247.488 209.38 247.307 208.912 247.307Z" fill="#22C88A"/>
<line x1="199" y1="258.341" x2="199" y2="265.533" stroke="#D5F4E9" stroke-width="2"/>
<path d="M250.851 258.078L247.318 266H246.181L249.703 258.359H245.085V257.469H250.851V258.078ZM257.589 258.078L254.056 266H252.919L256.441 258.359H251.824V257.469H257.589V258.078Z" fill="#22C88A"/>
<line x1="245" y1="272.341" x2="245" y2="279.533" stroke="#D5F4E9" stroke-width="2"/>
<path d="M294.851 260.078L291.318 268H290.181L293.703 260.359H289.085V259.469H294.851V260.078ZM301.255 261.695C301.255 262.121 301.142 262.5 300.916 262.832C300.693 263.164 300.39 263.424 300.007 263.611C300.453 263.803 300.804 264.082 301.062 264.449C301.324 264.816 301.455 265.232 301.455 265.697C301.455 266.436 301.205 267.023 300.705 267.461C300.208 267.898 299.554 268.117 298.742 268.117C297.921 268.117 297.263 267.898 296.767 267.461C296.275 267.02 296.029 266.432 296.029 265.697C296.029 265.236 296.154 264.82 296.404 264.449C296.658 264.078 297.007 263.797 297.453 263.605C297.074 263.418 296.775 263.158 296.556 262.826C296.337 262.494 296.228 262.117 296.228 261.695C296.228 260.977 296.458 260.406 296.919 259.984C297.38 259.562 297.988 259.352 298.742 259.352C299.492 259.352 300.097 259.562 300.558 259.984C301.023 260.406 301.255 260.977 301.255 261.695ZM300.371 265.674C300.371 265.197 300.218 264.809 299.914 264.508C299.613 264.207 299.218 264.057 298.73 264.057C298.242 264.057 297.849 264.205 297.552 264.502C297.259 264.799 297.113 265.189 297.113 265.674C297.113 266.158 297.255 266.539 297.541 266.816C297.83 267.094 298.23 267.232 298.742 267.232C299.25 267.232 299.648 267.094 299.937 266.816C300.226 266.535 300.371 266.154 300.371 265.674ZM298.742 260.242C298.316 260.242 297.97 260.375 297.705 260.641C297.443 260.902 297.312 261.26 297.312 261.713C297.312 262.146 297.441 262.498 297.699 262.768C297.96 263.033 298.308 263.166 298.742 263.166C299.175 263.166 299.521 263.033 299.779 262.768C300.041 262.498 300.171 262.146 300.171 261.713C300.171 261.279 300.037 260.926 299.767 260.652C299.498 260.379 299.156 260.242 298.742 260.242Z" fill="#22C88A"/>
<line x1="289" y1="274.341" x2="289" y2="281.533" stroke="#D5F4E9" stroke-width="2"/>
<path d="M335.851 261.078L332.318 269H331.181L334.703 261.359H330.085V260.469H335.851V261.078ZM341.236 265.25C341.009 265.52 340.738 265.736 340.421 265.9C340.109 266.064 339.765 266.146 339.39 266.146C338.898 266.146 338.468 266.025 338.101 265.783C337.738 265.541 337.457 265.201 337.257 264.764C337.058 264.322 336.958 263.836 336.958 263.305C336.958 262.734 337.066 262.221 337.281 261.764C337.5 261.307 337.808 260.957 338.207 260.715C338.605 260.473 339.07 260.352 339.601 260.352C340.445 260.352 341.109 260.668 341.593 261.301C342.082 261.93 342.326 262.789 342.326 263.879V264.195C342.326 265.855 341.998 267.068 341.341 267.834C340.685 268.596 339.695 268.986 338.371 269.006H338.16V268.092H338.388C339.283 268.076 339.97 267.844 340.451 267.395C340.931 266.941 341.193 266.227 341.236 265.25ZM339.566 265.25C339.929 265.25 340.263 265.139 340.568 264.916C340.876 264.693 341.101 264.418 341.242 264.09V263.656C341.242 262.945 341.087 262.367 340.779 261.922C340.47 261.477 340.08 261.254 339.607 261.254C339.13 261.254 338.748 261.437 338.458 261.805C338.169 262.168 338.025 262.648 338.025 263.246C338.025 263.828 338.164 264.309 338.441 264.687C338.722 265.062 339.097 265.25 339.566 265.25Z" fill="#22C88A"/>
<line x1="330" y1="275.341" x2="330" y2="282.533" stroke="#D5F4E9" stroke-width="2"/>
<path d="M243.676 161.314C243.733 161.314 243.779 161.268 243.779 161.211C243.779 161.154 243.733 161.108 243.676 161.108C243.619 161.108 243.573 161.154 243.573 161.211C243.573 161.268 243.619 161.314 243.676 161.314Z" fill="#E6E8EC"/>
<path d="M160.792 219.08C160.792 219.08 163.693 216.999 166.708 218.289C166.708 218.289 165.864 220.077 162.119 220.053L160.792 219.08Z" fill="#22C88A"/>
<path d="M160.431 219.201C160.431 219.201 159.656 222.69 162.014 224.953C162.014 224.953 163.332 223.476 161.837 220.04L160.431 219.201Z" fill="#22C88A"/>
<path d="M156.585 216.026C156.585 216.026 156.694 213.08 163.363 213.8C163.363 213.8 163.469 215.696 161.174 216.683C158.88 217.669 157.785 216.954 156.585 216.026Z" fill="#22C88A"/>
<path d="M156.177 216.013C156.177 216.013 153.408 217.02 156.145 223.147C156.145 223.147 157.991 222.661 158.213 220.174C158.434 217.687 157.427 216.878 156.177 216.013Z" fill="#22C88A"/>
<path d="M152.263 211.999C152.263 211.999 151.699 207.18 158.498 207.415C158.498 207.415 159.147 211.772 153.506 213.114L152.263 211.999Z" fill="#22C88A"/>
<path d="M147.574 206.713C147.574 206.713 148.294 201.199 155.133 202.573C155.133 202.573 155.339 207.32 148.729 207.977L147.574 206.713Z" fill="#22C88A"/>
<path d="M144.084 201.196C144.084 201.196 145.435 195.789 152.21 197.142C152.21 197.142 150.797 202 144.562 202.153L144.084 201.196Z" fill="#22C88A"/>
<path d="M140.765 195.805C140.765 195.805 142.083 190.209 148.616 191.625C148.616 191.625 146.654 196.968 141.231 196.734L140.765 195.805Z" fill="#22C88A"/>
<path d="M138.557 190.649C138.557 190.649 139.467 183.837 145.575 185.098C145.575 185.098 144.056 191.327 139.045 191.617L138.557 190.649Z" fill="#22C88A"/>
<path d="M136.437 184.396C136.437 184.396 137.578 177.515 143.763 179.266C143.763 179.266 141.614 185.81 136.906 185.332L136.437 184.396Z" fill="#22C88A"/>
<path d="M135.046 178.562C135.046 178.562 137.014 171.65 141.751 171.652C141.751 171.652 139.746 178.95 135.495 179.915L135.046 178.562Z" fill="#22C88A"/>
<path d="M134.089 172.842C134.089 172.842 136.199 164.532 140.07 165.017C140.07 165.017 138.633 171.362 134.268 174.116L134.089 172.842Z" fill="#22C88A"/>
<path d="M133.406 165.998C133.406 165.998 135.415 159.062 139.208 158.645C139.208 158.645 137.918 165.441 133.561 167.773L133.406 165.998Z" fill="#22C88A"/>
<path d="M132.702 159.629C132.702 159.629 135.274 152.666 137.779 152.416C137.779 152.416 136.806 159.212 132.995 160.744L132.702 159.629Z" fill="#22C88A"/>
<path d="M132.159 153.695C132.159 153.695 133.617 146.181 136.099 145.469C136.099 145.469 135.991 151.572 132.433 154.241L132.159 153.695Z" fill="#22C88A"/>
<path d="M130.917 145.949C130.917 145.949 132.523 139.944 134.519 138.963C134.519 138.963 134.385 145.973 131.444 147.381L130.917 145.949Z" fill="#22C88A"/>
<path d="M129.938 140.867L129.168 130.415C129.168 130.415 133.258 138.169 130.278 142.694L129.938 140.867Z" fill="#22C88A"/>
<path d="M126.607 130.578C126.607 130.578 123.584 123.043 122.915 122.643C122.915 122.643 128.453 127.39 128.189 133.791L126.607 130.578Z" fill="#22C88A"/>
<path d="M152.076 211.97C152.076 211.97 147.244 211.526 147.647 218.315C147.647 218.315 152.02 218.842 153.223 213.183L152.076 211.97Z" fill="#22C88A"/>
<path d="M147.339 206.539C147.339 206.539 141.782 206.734 142.502 213.66C142.502 213.66 147.197 214.314 148.487 207.8L147.339 206.539Z" fill="#22C88A"/>
<path d="M144.048 201.65C144.048 201.65 138.913 199.476 135.919 205.703C135.919 205.703 140.653 207.497 144.53 202.618L144.048 201.65Z" fill="#22C88A"/>
<path d="M140.653 195.861C140.653 195.861 135.392 193.542 132.588 199.621C132.588 199.621 138.04 201.267 141.115 196.789L140.653 195.861Z" fill="#22C88A"/>
<path d="M138.628 190.794C138.628 190.794 133.477 186.237 129.695 191.19C129.695 191.19 134.923 194.901 138.897 191.841L138.628 190.794Z" fill="#22C88A"/>
<path d="M136.713 184.225C136.713 184.225 131.525 179.559 127.786 184.789C127.786 184.789 133.551 188.558 136.929 185.235L136.713 184.225Z" fill="#22C88A"/>
<path d="M135.553 178.343C135.553 178.343 131.468 172.43 126.987 173.955C126.987 173.955 131.228 180.221 135.563 179.757L135.553 178.343Z" fill="#22C88A"/>
<path d="M134.2 172.8C134.2 172.8 130.025 165.31 126.406 166.776C126.406 166.776 129.429 172.539 134.35 174.079L134.2 172.8Z" fill="#22C88A"/>
<path d="M133.656 165.597C133.656 165.597 129.437 159.74 125.729 160.618C125.729 160.618 129.22 166.586 134.11 167.322L133.656 165.597Z" fill="#22C88A"/>
<path d="M133.118 159.478C133.118 159.478 129.769 152.853 127.25 152.885C127.25 152.885 128.993 159.526 132.952 160.615L133.118 159.478Z" fill="#22C88A"/>
<path d="M132.277 153.542C132.277 153.542 128.585 146.843 125.995 146.93C125.995 146.93 127.978 152.703 132.184 154.148L132.277 153.542Z" fill="#22C88A"/>
<path d="M131.483 146.344C131.483 146.344 128.696 140.79 126.543 140.234C126.543 140.234 128.092 147.072 131.259 147.856L131.483 146.344Z" fill="#22C88A"/>
<path d="M129.624 140.679L123.542 132.145C123.542 132.145 125.346 140.722 130.526 142.312L129.624 140.679Z" fill="#22C88A"/>
<path d="M125.318 131.333C125.318 131.333 118.461 126.978 118.197 126.245C118.197 126.245 121.852 132.575 128.192 133.469L125.318 131.333Z" fill="#22C88A"/>
<path d="M124.837 129.276C124.837 129.276 116.888 122.2 114.931 122.281C114.931 122.281 121.261 122.329 125.006 128.875L124.837 129.276Z" fill="#22C88A"/>
<path d="M131.452 147.442L131.172 147.489C129.299 136.267 126.952 129.682 124.539 128.949L124.621 128.685C127.171 129.455 129.532 135.945 131.452 147.442Z" fill="#444053"/>
<path d="M134.601 174.327L134.181 174.379C134.052 173.325 133.944 172.254 133.854 171.183C133.095 161.863 132.143 153.315 131.077 146.919L131.309 146.608C132.364 153.014 133.517 161.815 134.279 171.135C134.363 172.214 134.474 173.288 134.601 174.327Z" fill="#444053"/>
<path d="M168.873 224.149C168.796 224.117 161.24 221.087 153.225 213.468C148.533 209.009 144.576 203.836 141.502 198.139C137.66 191.018 135.144 182.178 134.083 173.538L134.532 173.728C136.905 193.118 146.279 206.078 153.597 213.04C161.533 220.591 169.005 223.59 169.078 223.624L168.873 224.149Z" fill="#444053"/>
<g opacity="0.7">
<path opacity="0.7" d="M174.124 215.546C174.124 215.546 177.516 214.425 180.005 216.545C180.005 216.545 178.668 218.004 175.1 216.864L174.124 215.546Z" fill="#22C88A"/>
<path opacity="0.7" d="M173.741 215.551C173.741 215.551 171.964 218.653 173.546 221.517C173.546 221.517 175.242 220.496 174.838 216.77L173.741 215.551Z" fill="#22C88A"/>
<path opacity="0.7" d="M171.015 211.379C171.015 211.379 171.996 208.596 178.135 211.271C178.135 211.271 177.671 213.117 175.187 213.381C172.703 213.644 171.885 212.621 171.015 211.379Z" fill="#22C88A"/>
<path opacity="0.7" d="M170.63 211.265C170.63 211.265 167.684 211.405 168.478 218.067C168.478 218.067 170.371 218.152 171.334 215.846C172.296 213.541 171.566 212.442 170.63 211.265Z" fill="#22C88A"/>
<path opacity="0.7" d="M168.084 206.254C168.084 206.254 168.981 201.486 175.4 203.733C175.4 203.733 174.723 208.085 168.939 207.689L168.084 206.254Z" fill="#22C88A"/>
<path opacity="0.7" d="M165.181 199.806C165.181 199.806 167.509 194.756 173.62 198.102C173.62 198.102 172.41 202.683 165.901 201.354L165.181 199.806Z" fill="#22C88A"/>
<path opacity="0.7" d="M163.49 193.5C163.49 193.5 166.391 188.74 172.457 192.047C172.457 192.047 169.662 196.267 163.664 194.568L163.49 193.5Z" fill="#22C88A"/>
<path opacity="0.7" d="M161.926 187.366C161.926 187.366 164.843 182.413 170.669 185.709C170.669 185.709 167.206 190.227 162.092 188.389L161.926 187.366Z" fill="#22C88A"/>
<path opacity="0.7" d="M161.354 181.785C161.354 181.785 164.255 175.548 169.699 178.573C169.699 178.573 166.394 184.066 161.523 182.853L161.354 181.785Z" fill="#22C88A"/>
<path opacity="0.7" d="M161.188 175.186C161.188 175.186 164.326 168.957 169.709 172.47C169.709 172.47 165.708 178.077 161.354 176.207L161.188 175.186Z" fill="#22C88A"/>
<path opacity="0.7" d="M161.599 169.197C161.599 169.197 165.534 163.184 170.054 164.595C170.054 164.595 165.969 170.967 161.615 170.624L161.599 169.197Z" fill="#22C88A"/>
<path opacity="0.7" d="M162.385 163.456C162.385 163.456 166.869 156.147 170.424 157.767C170.424 157.767 167.161 163.395 162.182 164.727L162.385 163.456Z" fill="#22C88A"/>
<path opacity="0.7" d="M163.772 156.717C163.772 156.717 167.755 150.696 171.494 151.424C171.494 151.424 168.243 157.529 163.387 158.46L163.772 156.717Z" fill="#22C88A"/>
<path opacity="0.7" d="M164.991 150.43C164.991 150.43 169.519 144.546 171.985 145.052C171.985 145.052 169.034 151.25 164.94 151.582L164.991 150.43Z" fill="#22C88A"/>
<path opacity="0.7" d="M166.238 144.601C166.238 144.601 169.865 137.863 172.449 137.921C172.449 137.921 170.529 143.723 166.336 145.205L166.238 144.601Z" fill="#22C88A"/>
<path opacity="0.7" d="M167.359 136.837C167.359 136.837 170.677 131.583 172.876 131.238C172.876 131.238 170.661 137.892 167.435 138.359L167.359 136.837Z" fill="#22C88A"/>
<path opacity="0.7" d="M167.934 131.691L170.308 121.487C170.308 121.487 171.909 130.104 167.723 133.548L167.934 131.691Z" fill="#22C88A"/>
<path opacity="0.7" d="M167.815 120.881C167.815 120.881 167.172 112.787 166.647 112.204C166.647 112.204 170.532 118.391 168.361 124.415L167.815 120.881Z" fill="#22C88A"/>
<path opacity="0.7" d="M167.916 206.165C167.916 206.165 163.432 204.3 161.802 210.912C161.802 210.912 165.814 212.729 168.659 207.671L167.916 206.165Z" fill="#22C88A"/>
<path opacity="0.7" d="M165.009 199.569C165.009 199.569 159.648 198.102 158.271 204.938C158.271 204.938 162.557 206.961 165.729 201.125L165.009 199.569Z" fill="#22C88A"/>
<path opacity="0.7" d="M163.321 193.922C163.321 193.922 159.067 190.32 154.354 195.375C154.354 195.375 158.34 198.495 163.493 194.99L163.321 193.922Z" fill="#22C88A"/>
<path opacity="0.7" d="M161.802 187.387C161.802 187.387 157.471 183.608 152.985 188.584C152.985 188.584 157.698 191.775 161.968 188.413L161.802 187.387Z" fill="#22C88A"/>
<path opacity="0.7" d="M161.378 181.946C161.378 181.946 157.815 176.062 152.732 179.665C152.732 179.665 156.617 184.765 161.322 183.025L161.378 181.946Z" fill="#22C88A"/>
<path opacity="0.7" d="M161.504 175.102C161.504 175.102 157.938 169.107 152.801 172.992C152.801 172.992 157.184 178.306 161.399 176.139L161.504 175.102Z" fill="#22C88A"/>
<path opacity="0.7" d="M162.142 169.142C162.142 169.142 160.004 162.285 155.27 162.403C155.27 162.403 157.456 169.651 161.731 170.508L162.142 169.142Z" fill="#22C88A"/>
<path opacity="0.7" d="M162.504 163.448C162.504 163.448 160.745 155.056 156.854 155.38C156.854 155.38 158.025 161.781 162.266 164.714L162.504 163.448Z" fill="#22C88A"/>
<path opacity="0.7" d="M164.128 156.409C164.128 156.409 161.842 149.551 158.039 149.288C158.039 149.288 159.6 156.029 164.046 158.183L164.128 156.409Z" fill="#22C88A"/>
<path opacity="0.7" d="M165.434 150.409C165.434 150.409 164.207 143.087 161.791 142.373C161.791 142.373 161.48 149.23 164.938 151.45L165.434 150.409Z" fill="#22C88A"/>
<path opacity="0.7" d="M166.41 144.49C166.41 144.49 164.872 136.995 162.38 136.315C162.38 136.315 162.554 142.415 166.143 145.047L166.41 144.49Z" fill="#22C88A"/>
<path opacity="0.7" d="M167.781 137.385C167.781 137.385 166.771 131.254 164.88 130.077C164.88 130.077 164.323 137.069 167.114 138.759L167.781 137.385Z" fill="#22C88A"/>
<path opacity="0.7" d="M167.691 131.422L164.424 121.466C164.424 121.466 163.593 130.193 168.066 133.253L167.691 131.422Z" fill="#22C88A"/>
<path opacity="0.7" d="M166.36 121.218C166.36 121.218 161.109 115.021 161.085 114.24C161.085 114.24 162.691 121.361 168.47 124.109L166.36 121.218Z" fill="#22C88A"/>
<path opacity="0.7" d="M166.512 119.111C166.512 119.111 161.029 109.989 159.128 109.485C159.128 109.485 165.162 111.415 166.776 118.779L166.512 119.111Z" fill="#22C88A"/>
<path opacity="0.7" d="M167.422 138.422L167.143 138.382C168.694 127.113 168.403 120.124 166.325 118.708L166.486 118.476C168.688 119.976 169.013 126.87 167.422 138.422Z" fill="#444053"/>
<path opacity="0.7" d="M162.432 165.027L162.016 164.951C162.206 163.909 162.419 162.841 162.656 161.802C164.703 152.679 166.349 144.235 167.222 137.802L167.536 137.575C166.649 144.008 165.12 152.751 163.068 161.884C162.836 162.939 162.62 163.991 162.432 165.027Z" fill="#444053"/>
<path opacity="0.7" d="M180.33 222.788C180.266 222.738 173.953 217.592 168.57 207.937C165.411 202.285 163.168 196.168 161.926 189.813C160.376 181.87 160.608 172.67 162.161 164.12L162.533 164.434C159.038 183.655 164.115 198.814 169.039 207.639C174.369 217.207 180.609 222.297 180.673 222.348L180.33 222.788Z" fill="#444053"/>
</g>
<g opacity="0.1">
<path opacity="0.1" d="M74.2608 175.099C74.2693 174.995 74.2879 174.892 74.3162 174.791C74.7408 175.461 75.2709 176.11 75.321 176.901C75.3331 177.082 75.318 177.264 75.2762 177.441C74.8041 176.682 74.1949 175.972 74.2608 175.099Z" fill="black"/>
<path opacity="0.1" d="M79.5751 180.622C81.7562 179.746 83.6023 178.156 85.6225 176.93C87.1258 176.015 88.7346 175.289 90.1772 174.271C91.67 173.216 92.9623 171.863 94.5051 170.898C96.048 169.933 97.9864 169.387 99.6374 170.131C100.88 170.692 101.747 171.882 102.868 172.686C103.989 173.491 105.695 173.805 106.547 172.699C106.93 172.206 107.04 171.552 107.159 170.93C107.539 168.936 108.214 166.826 109.828 165.703C111.574 164.484 115.269 164.621 115.939 162.05C116.05 161.594 116.08 161.121 116.026 160.655C116.456 161.797 116.675 162.947 116.416 163.949C115.744 166.52 112.049 166.383 110.303 167.601C108.699 168.725 108.014 170.835 107.634 172.829C107.515 173.451 107.404 174.108 107.025 174.598C106.17 175.703 104.456 175.39 103.332 174.585C102.209 173.781 101.344 172.591 100.102 172.03C98.4506 171.286 96.5121 171.832 94.9693 172.797C93.4264 173.762 92.1341 175.118 90.6414 176.17C89.1988 177.191 87.59 177.913 86.0867 178.829C84.0665 180.063 82.2203 181.651 80.0393 182.521C77.8582 183.391 75.1338 183.389 73.4644 181.669C73.8957 181.435 74.3053 181.164 74.6881 180.857C76.2125 181.413 78.0322 181.239 79.5751 180.622Z" fill="black"/>
</g>
<path d="M251.332 154.731L240.519 143.857C239.989 143.315 239.357 142.884 238.659 142.587C237.961 142.291 237.212 142.136 236.453 142.13C235.695 142.125 234.944 142.27 234.242 142.557C233.54 142.844 232.902 143.267 232.365 143.802L164.463 211.128L135.753 182.194C134.687 181.113 133.235 180.499 131.717 180.488C130.199 180.477 128.738 181.07 127.657 182.136L116.727 192.949C115.647 194.028 115.036 195.489 115.026 197.015C115.015 198.541 115.607 200.01 116.672 201.104L160.273 245.047C161.351 246.128 162.812 246.74 164.338 246.75C165.865 246.761 167.334 246.17 168.427 245.105L251.272 162.883C251.814 162.354 252.245 161.722 252.542 161.024C252.839 160.327 252.994 159.578 253 158.82C253.006 158.062 252.861 157.311 252.575 156.609C252.289 155.907 251.866 155.269 251.332 154.731Z" fill="#22C88A"/>
<line x1="170.175" y1="205.681" x2="175.243" y2="210.783" stroke="#D5F4E9" stroke-width="2"/>
<line x1="175.175" y1="200.681" x2="180.243" y2="205.783" stroke="#D5F4E9" stroke-width="2"/>
<line x1="180.175" y1="195.681" x2="185.243" y2="200.783" stroke="#D5F4E9" stroke-width="2"/>
<line x1="185.175" y1="190.681" x2="190.243" y2="195.783" stroke="#D5F4E9" stroke-width="2"/>
<line x1="191.175" y1="184.681" x2="196.243" y2="189.783" stroke="#D5F4E9" stroke-width="2"/>
<line x1="196.175" y1="179.681" x2="201.243" y2="184.783" stroke="#D5F4E9" stroke-width="2"/>
<line x1="201.175" y1="174.681" x2="206.243" y2="179.783" stroke="#D5F4E9" stroke-width="2"/>
<line x1="206.175" y1="169.681" x2="211.243" y2="174.783" stroke="#D5F4E9" stroke-width="2"/>
<line x1="211.175" y1="164.681" x2="216.243" y2="169.783" stroke="#D5F4E9" stroke-width="2"/>
<line x1="216.175" y1="159.681" x2="221.243" y2="164.783" stroke="#D5F4E9" stroke-width="2"/>
<line x1="221.175" y1="154.681" x2="226.243" y2="159.783" stroke="#D5F4E9" stroke-width="2"/>
<line x1="226.175" y1="149.681" x2="231.243" y2="154.783" stroke="#D5F4E9" stroke-width="2"/>
<line x1="189.175" y1="214.681" x2="194.243" y2="219.783" stroke="#D5F4E9" stroke-width="2"/>
<line x1="194.175" y1="209.681" x2="199.243" y2="214.783" stroke="#D5F4E9" stroke-width="2"/>
<line x1="199.175" y1="204.681" x2="204.243" y2="209.783" stroke="#D5F4E9" stroke-width="2"/>
<line x1="204.175" y1="199.681" x2="209.243" y2="204.783" stroke="#D5F4E9" stroke-width="2"/>
<line x1="210.175" y1="193.681" x2="215.243" y2="198.783" stroke="#D5F4E9" stroke-width="2"/>
<line x1="215.175" y1="188.681" x2="220.243" y2="193.783" stroke="#D5F4E9" stroke-width="2"/>
<line x1="220.175" y1="183.681" x2="225.243" y2="188.783" stroke="#D5F4E9" stroke-width="2"/>
<line x1="225.175" y1="178.681" x2="230.243" y2="183.783" stroke="#D5F4E9" stroke-width="2"/>
<line x1="230.175" y1="173.681" x2="235.243" y2="178.783" stroke="#D5F4E9" stroke-width="2"/>
<line x1="235.175" y1="168.681" x2="240.243" y2="173.783" stroke="#D5F4E9" stroke-width="2"/>
<line x1="240.175" y1="163.681" x2="245.243" y2="168.783" stroke="#D5F4E9" stroke-width="2"/>
<line x1="245.175" y1="158.681" x2="250.243" y2="163.783" stroke="#D5F4E9" stroke-width="2"/>
<g opacity="0.5">
<path opacity="0.5" d="M235.039 241.925C235.039 241.925 226.974 241.439 227.918 247.091C227.87 247.378 227.913 247.672 228.042 247.933C228.171 248.193 228.378 248.406 228.636 248.542C228.636 248.542 228.636 248.122 229.461 248.265C229.751 248.314 230.046 248.328 230.339 248.307C230.735 248.281 231.111 248.126 231.41 247.866C231.41 247.866 233.675 246.93 234.559 243.222C234.559 243.222 235.21 242.415 235.184 242.207L233.823 242.79C233.823 242.79 234.29 243.771 233.923 244.586C233.923 244.586 233.879 242.824 233.617 242.866C233.565 242.866 232.911 243.206 232.911 243.206C232.911 243.206 233.702 244.915 233.106 246.16C233.106 246.16 233.335 244.05 232.66 243.33L231.703 243.889C231.703 243.889 232.636 245.656 232.003 247.096C232.003 247.096 232.167 244.886 231.5 244.027L230.632 244.702C230.632 244.702 231.51 246.442 230.975 247.64C230.975 247.64 230.906 245.066 230.447 244.87C230.447 244.87 229.688 245.54 229.572 245.817C229.572 245.817 230.173 247.081 229.801 247.748C229.801 247.748 229.572 246.031 229.385 246.026C229.385 246.026 228.628 247.16 228.549 247.938C228.585 247.218 228.81 246.521 229.2 245.915C228.764 245.998 228.361 246.207 228.042 246.516C228.042 246.516 228.158 245.725 229.387 245.641C229.387 245.641 230.012 244.781 230.178 244.728C230.178 244.728 228.957 244.625 228.216 244.955C228.216 244.955 228.868 244.195 230.4 244.541L231.257 243.842C231.257 243.842 229.651 243.62 228.968 243.863C228.968 243.863 229.759 243.193 231.489 243.681L232.423 243.125C232.423 243.125 231.051 242.829 230.234 242.935C230.234 242.935 231.096 242.47 232.697 242.974L233.364 242.674C233.364 242.674 232.359 242.476 232.064 242.447C231.769 242.418 231.756 242.333 231.756 242.333C232.391 242.228 233.044 242.301 233.641 242.544C233.641 242.544 235.063 242.014 235.039 241.925Z" fill="#22C88A"/>
</g>
<g opacity="0.5">
<path opacity="0.5" d="M220.568 202.454C220.568 202.454 216.472 209.419 221.942 211.139C222.175 211.312 222.457 211.408 222.748 211.411C223.039 211.415 223.323 211.327 223.561 211.16C223.561 211.16 223.195 210.957 223.688 210.297C223.863 210.061 224.01 209.806 224.126 209.535C224.28 209.17 224.312 208.765 224.218 208.38C224.218 208.38 224.41 205.935 221.509 203.467C221.509 203.467 221.085 202.517 220.89 202.446L220.789 203.923C220.789 203.923 221.873 203.955 222.435 204.651C222.435 204.651 220.853 203.891 220.763 204.142C220.747 204.195 220.745 204.933 220.745 204.933C220.745 204.933 222.633 204.996 223.466 206.099C223.466 206.099 221.694 204.938 220.742 205.213L220.805 206.32C220.805 206.32 222.804 206.289 223.801 207.507C223.801 207.507 221.905 206.357 220.837 206.56L221.045 207.642C221.045 207.642 222.997 207.642 223.817 208.668C223.817 208.668 221.494 207.563 221.111 207.876C221.111 207.876 221.375 208.857 221.554 209.087C221.554 209.087 222.955 209.124 223.379 209.759C223.379 209.759 221.747 209.185 221.654 209.348C221.654 209.348 222.324 210.537 222.973 210.962C222.349 210.602 221.829 210.085 221.467 209.461C221.337 209.891 221.337 210.35 221.467 210.78C221.467 210.78 220.805 210.311 221.301 209.198C221.301 209.198 220.816 208.251 220.845 208.077C220.845 208.077 220.201 209.119 220.156 209.923C220.156 209.923 219.777 208.997 220.779 207.787L220.547 206.705C220.547 206.705 219.621 208.04 219.526 208.757C219.526 208.757 219.286 207.752 220.51 206.428L220.436 205.345C220.436 205.345 219.55 206.431 219.276 207.207C219.276 207.207 219.252 206.228 220.425 205.031L220.462 204.3C220.462 204.3 219.829 205.107 219.671 205.355C219.513 205.603 219.431 205.579 219.431 205.579C219.625 204.965 219.985 204.417 220.473 203.997C220.473 203.997 220.657 202.472 220.568 202.454Z" fill="#22C88A"/>
</g>
<g opacity="0.5">
<path opacity="0.5" d="M194.951 146.882C194.951 146.882 190.858 153.85 196.325 155.567C196.558 155.741 196.84 155.837 197.131 155.841C197.422 155.845 197.707 155.756 197.944 155.588C197.944 155.588 197.578 155.385 198.074 154.726C198.248 154.49 198.394 154.234 198.509 153.964C198.664 153.599 198.696 153.193 198.601 152.809C198.601 152.809 198.796 150.364 195.893 147.895C195.893 147.895 195.468 146.948 195.273 146.877L195.173 148.351C195.173 148.351 196.259 148.383 196.818 149.079C196.818 149.079 195.236 148.32 195.149 148.57C195.13 148.623 195.13 149.362 195.13 149.362C195.13 149.362 197.016 149.425 197.849 150.527C197.849 150.527 196.077 149.367 195.125 149.641L195.191 150.749C195.191 150.749 197.187 150.717 198.184 151.936C198.184 151.936 196.288 150.788 195.22 150.989L195.428 152.07C195.428 152.07 197.38 152.07 198.203 153.099C198.203 153.099 195.877 151.991 195.494 152.307C195.494 152.307 195.758 153.286 195.94 153.515C195.94 153.515 197.338 153.552 197.762 154.188C197.762 154.188 196.13 153.613 196.04 153.776C196.04 153.776 196.707 154.969 197.359 155.391C196.734 155.031 196.214 154.515 195.85 153.893C195.724 154.318 195.724 154.77 195.85 155.195C195.85 155.195 195.188 154.726 195.684 153.6C195.684 153.6 195.199 152.653 195.228 152.479C195.228 152.479 194.584 153.521 194.54 154.325C194.54 154.325 194.16 153.399 195.165 152.189L194.93 151.107C194.93 151.107 194.004 152.442 193.912 153.159C193.912 153.159 193.669 152.155 194.893 150.831L194.819 149.747C194.819 149.747 193.933 150.833 193.659 151.609C193.659 151.609 193.635 150.63 194.809 149.435L194.845 148.702C194.845 148.702 194.213 149.509 194.054 149.757C193.896 150.005 193.814 149.981 193.814 149.981C194.012 149.366 194.378 148.818 194.869 148.399C194.869 148.399 195.041 146.914 194.951 146.882Z" fill="#22C88A"/>
</g>
<g opacity="0.5">
<path opacity="0.5" d="M106.769 94.1118C106.769 94.1118 91.5249 105.189 101.615 113.963C101.615 113.963 102.757 116.041 105.06 115.516C105.06 115.516 104.464 114.741 106.138 113.792C106.732 113.451 107.283 113.04 107.779 112.568C108.45 111.936 108.897 111.103 109.053 110.194C109.053 110.194 111.748 105.146 107.842 97.1658C107.842 97.1658 107.818 94.7421 107.462 94.4072L105.88 97.4718C105.88 97.4718 108.172 98.5504 108.723 100.563C108.723 100.563 106.03 97.4533 105.622 97.9254C105.54 98.0177 104.851 99.5869 104.851 99.5869C104.851 99.5869 108.831 101.481 109.585 104.614C109.585 104.614 106.874 100.478 104.574 100.178L103.68 102.607C103.68 102.607 107.982 104.403 108.979 107.937C108.979 107.937 105.993 103.717 103.52 103.15L102.96 105.658C102.96 105.658 107.122 107.491 107.932 110.437C107.932 110.437 103.976 105.906 102.871 106.241C102.871 106.241 102.496 108.572 102.694 109.24C102.694 109.24 105.653 110.624 105.97 112.378C105.97 112.378 103.013 109.63 102.665 109.894C102.665 109.894 102.987 113.058 104 114.58C104 114.58 102.341 112.447 102.172 109.97C102.172 109.97 101.04 111.289 100.977 112.768C100.977 112.768 99.996 111.146 102.103 109.2C102.103 109.2 101.953 106.721 102.177 106.378C102.177 106.378 99.8246 108.005 98.978 109.693C98.978 109.693 99.0281 107.362 102.301 105.708L102.807 103.179C102.807 103.179 99.5872 105.165 98.7196 106.608C98.7196 106.608 99.1389 104.234 102.987 102.541L103.841 100.154C103.841 100.154 100.94 101.655 99.6215 103.055C99.6215 103.055 100.484 100.945 104.105 99.4762L104.862 97.9465C104.862 97.9465 102.752 99.0806 102.185 99.4603C101.618 99.8401 101.46 99.7241 101.46 99.7241C102.448 98.5897 103.732 97.7524 105.168 97.3056C105.168 97.3056 106.945 94.2357 106.769 94.1118Z" fill="#22C88A"/>
</g>
<g opacity="0.5">
<path opacity="0.5" d="M91.9602 130.663C91.9602 130.663 72.2408 122.371 69.6562 137.322C69.6562 137.322 68.3085 139.653 70.1837 141.579C70.1837 141.579 70.5872 140.545 72.494 141.613C73.1741 141.989 73.8965 142.283 74.6461 142.489C75.6583 142.768 76.7339 142.71 77.7107 142.325C77.7107 142.325 84.1933 141.974 89.6499 133.49C89.6499 133.49 91.9866 132.045 92.1053 131.501L88.1941 131.765C88.1941 131.765 88.4948 134.627 86.8754 136.344C86.8754 136.344 88.3128 131.902 87.6218 131.778C87.482 131.752 85.5568 132.005 85.5568 132.005C85.5568 132.005 86.0552 136.982 83.4469 139.556C83.4469 139.556 85.868 134.495 84.813 132.095L81.9304 132.651C81.9304 132.651 82.7216 137.886 79.868 140.93C79.868 140.93 82.2126 135.55 81.308 132.817L78.5441 133.746C78.5441 133.746 79.2113 138.865 76.8245 141.394C76.8245 141.394 78.908 134.904 77.9269 134.01C77.9269 134.01 75.4425 135.017 74.9098 135.592C74.9098 135.592 75.3054 139.284 73.7863 140.616C73.7863 140.616 74.7199 136.133 74.2584 135.948C74.2584 135.948 71.3705 138.121 70.4896 139.996C70.4896 139.996 71.5894 137.132 73.8944 135.513C73.8944 135.513 71.9586 135.183 70.4659 135.995C70.4659 135.995 71.4654 134.094 74.5933 134.996C74.5933 134.996 76.9115 133.39 77.3757 133.414C77.3757 133.414 74.4166 132.095 72.2777 132.258C72.2777 132.258 74.5696 130.94 78.0983 133.142L80.8491 132.145C80.8491 132.145 77.0276 130.185 75.1102 130.193C75.1102 130.193 77.6579 129.207 81.5665 131.95L84.3884 131.367C84.3884 131.367 81.2236 129.429 79.0874 128.98C79.0874 128.98 81.6482 128.574 85.2007 131.235L87.1313 131.074C87.1313 131.074 84.7946 129.698 84.0878 129.363C83.381 129.028 83.4126 128.811 83.4126 128.811C85.0949 129.103 86.6628 129.858 87.9409 130.99C87.9409 130.99 91.9418 130.908 91.9602 130.663Z" fill="#22C88A"/>
</g>
<g opacity="0.5">
<path opacity="0.5" d="M80.1525 109.728C80.1525 109.728 73.1609 93.5685 63.11 100.979C63.11 100.979 60.9817 101.597 61.0001 103.801C61.0001 103.801 61.8282 103.416 62.3504 105.139C62.5451 105.749 62.8107 106.334 63.1416 106.882C63.5835 107.625 64.2557 108.204 65.0564 108.53C65.0564 108.53 69.1073 112.017 77.1882 110.084C77.1882 110.084 79.4009 110.556 79.7807 110.302L77.3095 108.227C77.3095 108.227 75.8589 110.099 73.9126 110.189C73.9126 110.189 77.2963 108.369 76.9561 107.902C76.8875 107.808 75.6005 106.863 75.6005 106.863C75.6005 106.863 73.0607 110.102 70.062 110.152C70.062 110.152 74.3847 108.522 75.1231 106.499L73.0924 105.181C73.0924 105.181 70.542 108.749 67.1161 108.936C67.1161 108.936 71.5732 107.077 72.5939 104.935L70.4234 103.925C70.4234 103.925 67.9021 107.354 65.0511 107.483C65.0511 107.483 69.9856 104.814 69.9091 103.725C69.9091 103.725 67.8599 102.907 67.2111 102.955C67.2111 102.955 65.3465 105.368 63.6823 105.299C63.6823 105.299 66.7917 103.166 66.6203 102.794C66.6203 102.794 63.6665 102.441 62.0762 103.058C62.0762 103.058 64.3601 101.982 66.652 102.335C66.652 102.335 65.6893 101.035 64.3443 100.674C64.3443 100.674 66.0243 100.112 67.3667 102.427C67.3667 102.427 69.6585 102.797 69.9249 103.071C69.9249 103.071 68.9227 100.594 67.5513 99.4788C67.5513 99.4788 69.6612 100.006 70.5078 103.321L72.7099 104.3C72.7099 104.3 71.5574 100.956 70.4128 99.8718C70.4128 99.8718 72.4884 100.737 73.248 104.593L75.2497 105.856C75.2497 105.856 74.4743 102.902 73.4642 101.417C73.4642 101.417 75.2154 102.636 75.8115 106.241L77.051 107.243C77.051 107.243 76.4444 105.096 76.215 104.495C75.9855 103.894 76.1306 103.783 76.1306 103.783C76.9625 104.914 77.4637 106.255 77.5785 107.655C77.5785 107.655 80.0048 109.867 80.1525 109.728Z" fill="#22C88A"/>
</g>
<g opacity="0.5">
<path opacity="0.5" d="M216.419 118.135C216.419 118.135 214.771 110.223 209.562 112.626C209.273 112.654 208.999 112.772 208.781 112.965C208.563 113.158 208.412 113.415 208.349 113.699C208.349 113.699 208.758 113.602 208.834 114.425C208.863 114.717 208.926 115.004 209.022 115.282C209.153 115.656 209.402 115.978 209.731 116.2C209.731 116.2 211.229 118.141 215.035 118.019C215.035 118.019 215.987 118.436 216.182 118.357L215.262 117.196C215.262 117.196 214.436 117.903 213.555 117.764C213.555 117.764 215.243 117.26 215.138 117.017C215.114 116.967 214.623 116.424 214.623 116.424C214.623 116.424 213.183 117.645 211.825 117.389C211.825 117.389 213.917 117.057 214.439 116.215L213.648 115.437C213.648 115.437 212.186 116.804 210.63 116.569C210.63 116.569 212.806 116.147 213.463 115.279L212.582 114.62C212.582 114.62 211.132 115.923 209.837 115.72C209.837 115.72 212.303 114.976 212.368 114.48C212.368 114.48 211.524 113.924 211.226 113.884C211.226 113.884 210.172 114.796 209.425 114.612C209.425 114.612 211.008 113.942 210.979 113.757C210.979 113.757 209.684 113.325 208.911 113.454C209.615 113.301 210.347 113.335 211.034 113.552C210.84 113.152 210.533 112.818 210.15 112.592C210.15 112.592 210.957 112.494 211.348 113.647C211.348 113.647 212.342 114.024 212.437 114.174C212.437 114.174 212.215 112.969 211.704 112.328C211.704 112.328 212.606 112.758 212.677 114.33L213.576 114.973C213.576 114.973 213.368 113.364 212.954 112.768C212.954 112.768 213.806 113.351 213.79 115.142L214.581 115.896C214.581 115.896 214.507 114.496 214.191 113.736C214.191 113.736 214.863 114.446 214.797 116.11L215.262 116.677C215.262 116.677 215.19 115.656 215.143 115.358C215.095 115.06 215.169 115.029 215.169 115.029C215.439 115.615 215.54 116.265 215.462 116.906C215.462 116.906 216.34 118.183 216.419 118.135Z" fill="#22C88A"/>
</g>
<g opacity="0.5">
<path opacity="0.5" d="M188.036 264.803C188.036 264.803 186.39 256.891 181.179 259.294C180.889 259.322 180.615 259.44 180.396 259.633C180.178 259.826 180.026 260.083 179.963 260.367C179.963 260.367 180.372 260.27 180.448 261.093C180.477 261.385 180.54 261.673 180.638 261.95C180.769 262.324 181.017 262.646 181.345 262.868C181.345 262.868 182.843 264.809 186.651 264.687C186.651 264.687 187.603 265.104 187.796 265.025L186.878 263.865C186.878 263.865 186.053 264.571 185.169 264.432C185.169 264.432 186.857 263.928 186.751 263.685C186.73 263.635 186.237 263.092 186.237 263.092C186.237 263.092 184.797 264.313 183.439 264.057C183.439 264.057 185.533 263.725 186.053 262.884L185.261 262.092C185.261 262.092 183.816 263.464 182.255 263.221C182.255 263.221 184.431 262.799 185.087 261.931L184.206 261.272C184.206 261.272 182.758 262.575 181.464 262.372C181.464 262.372 183.929 261.631 183.995 261.132C183.995 261.132 183.149 260.576 182.853 260.536C182.853 260.536 181.798 261.449 181.049 261.264C181.049 261.264 182.632 260.594 182.603 260.41C182.603 260.41 181.308 259.977 180.535 260.106C181.24 259.954 181.973 259.987 182.661 260.204C182.466 259.805 182.159 259.471 181.777 259.244C181.777 259.244 182.582 259.146 182.972 260.299C182.972 260.299 183.969 260.676 184.064 260.826C184.064 260.826 183.842 259.621 183.331 258.98C183.331 258.98 184.233 259.41 184.301 260.982L185.203 261.626C185.203 261.626 184.992 260.017 184.578 259.421C184.578 259.421 185.433 260.004 185.417 261.794L186.208 262.549C186.208 262.549 186.134 261.148 185.815 260.389C185.815 260.389 186.49 261.098 186.424 262.762L186.889 263.329C186.889 263.329 186.815 262.309 186.767 262.011C186.72 261.713 186.794 261.684 186.794 261.684C187.063 262.269 187.165 262.919 187.086 263.559C187.086 263.559 187.962 264.843 188.036 264.803Z" fill="#22C88A"/>
</g>
</svg>
