<svg width="246" height="264" viewBox="0 0 246 264" fill="none" xmlns="http://www.w3.org/2000/svg">
<path opacity="0.1" d="M42.4072 172.306C47.4126 189.685 62.7635 202.628 78.1893 211.625C126.642 239.879 182.481 242.237 234.321 237.477C253.092 235.753 272.079 233.088 288.24 224.362C321.135 206.603 337.132 162.598 325.285 122.412C321.259 108.744 314.461 95.8352 307.023 83.4646C293.8 61.4651 278.099 40.4718 258.39 24.4979C244.327 13.1131 228.561 4.52817 212.57 -2.93331C167.901 -23.7625 119.996 -36.4751 73.4867 -34.9672C53.0876 -34.3052 32.2181 -30.5401 17.2217 -17.6585C2.22526 -4.77692 -5.04028 19.2391 4.97539 39.2586C9.11716 47.5346 15.6817 54.3516 22.144 60.9501C31.6606 70.6642 41.3689 80.4546 48.436 92.1345C55.7316 104.206 62.2091 122.578 53.9484 133.289C45.0569 144.758 37.4091 154.95 42.4072 172.306Z" fill="#22C88A"/>
<path opacity="0.1" d="M179.44 260.716C206.259 260.716 228 257.011 228 252.441C228 247.871 206.259 244.166 179.44 244.166C152.62 244.166 130.879 247.871 130.879 252.441C130.879 257.011 152.62 260.716 179.44 260.716Z" fill="#22C88A"/>
<path opacity="0.1" d="M212.759 243.228C219.006 243.228 224.071 242.533 224.071 241.675C224.071 240.817 219.006 240.122 212.759 240.122C206.511 240.122 201.446 240.817 201.446 241.675C201.446 242.533 206.511 243.228 212.759 243.228Z" fill="#22C88A"/>
<path opacity="0.1" d="M124.077 257.355C128.518 257.355 132.117 256.861 132.117 256.251C132.117 255.642 128.518 255.148 124.077 255.148C119.637 255.148 116.037 255.642 116.037 256.251C116.037 256.861 119.637 257.355 124.077 257.355Z" fill="#22C88A"/>
<path d="M217.347 239.738C217.856 239.326 218.229 238.769 218.414 238.14C218.552 237.509 218.282 236.761 217.675 236.515C216.996 236.256 216.27 236.728 215.721 237.202C215.172 237.677 214.54 238.22 213.82 238.118C214.191 237.783 214.469 237.358 214.625 236.883C214.782 236.409 214.813 235.902 214.714 235.412C214.685 235.208 214.599 235.017 214.466 234.86C214.091 234.457 213.406 234.631 212.957 234.948C211.522 235.955 211.122 237.906 211.114 239.658C210.967 239.026 211.092 238.367 211.086 237.727C211.081 237.086 210.904 236.347 210.358 236.01C210.02 235.824 209.64 235.728 209.254 235.735C208.608 235.71 207.891 235.776 207.45 236.248C206.898 236.833 207.044 237.815 207.521 238.455C207.999 239.095 208.722 239.506 209.389 239.95C209.923 240.269 210.379 240.704 210.722 241.222C210.762 241.295 210.795 241.372 210.821 241.451H214.863C215.764 240.994 216.599 240.417 217.347 239.738Z" fill="#22C88A"/>
<path d="M126.26 252.637C126.766 252.224 127.135 251.667 127.319 251.039C127.454 250.405 127.184 249.66 126.58 249.414C125.901 249.155 125.175 249.624 124.626 250.101C124.077 250.579 123.445 251.117 122.725 251.017C123.096 250.682 123.373 250.256 123.529 249.782C123.686 249.307 123.717 248.801 123.619 248.311C123.588 248.108 123.502 247.917 123.371 247.759C122.993 247.356 122.311 247.53 121.859 247.847C120.424 248.857 120.024 250.805 120.016 252.56C119.872 251.928 119.994 251.268 119.991 250.628C119.988 249.988 119.809 249.249 119.262 248.912C118.925 248.726 118.544 248.631 118.159 248.636C117.513 248.614 116.796 248.678 116.354 249.149C115.803 249.737 115.949 250.719 116.426 251.357C116.903 251.994 117.626 252.405 118.291 252.852C118.832 253.174 119.293 253.616 119.638 254.143C119.677 254.216 119.711 254.291 119.737 254.37H123.776C124.679 253.907 125.514 253.324 126.26 252.637Z" fill="#22C88A"/>
<path d="M207.339 126.738C203.719 126.666 200.524 124.1 198.714 120.988C198.24 120.245 197.942 119.403 197.843 118.527C197.855 118.327 197.888 118.129 197.942 117.936C198.058 117.645 198.15 117.344 198.218 117.037C198.233 116.914 198.233 116.79 198.218 116.667C198.218 116.667 198.218 116.667 198.218 116.651C198.306 115.983 197.914 115.34 197.423 114.879C196.932 114.418 196.333 114.085 195.828 113.64C194.272 112.275 193.8 110.084 193.77 107.998C193.77 107.962 193.77 107.926 193.77 107.888C193.787 106.996 193.858 106.1 193.85 105.206C193.863 104.698 193.84 104.19 193.784 103.685C193.635 102.422 193.155 101.136 192.161 100.33C189.571 98.2307 185.214 100.416 182.535 98.4294C181.881 97.9465 181.354 97.2264 180.565 97.0498C179.966 96.9063 179.345 97.0995 178.763 97.2926C176.788 97.9437 174.586 98.8018 173.813 100.722C173.372 101.826 173.496 103.065 173.09 104.174C172.815 104.916 172.326 105.553 171.962 106.26C171.662 106.789 171.515 107.392 171.54 108.001C171.509 108.316 171.554 108.633 171.669 108.928C171.806 109.28 172.026 109.593 172.31 109.841C172.206 110.06 172.076 110.266 171.923 110.454C171.418 111.072 170.643 111.513 170.119 112.109C169.148 113.235 169.184 114.766 169.664 116.091C170.144 117.415 171.005 118.621 171.595 119.909C171.852 120.461 172.059 121.096 171.791 121.653C171.606 122.039 171.22 122.332 170.919 122.666C170.478 123.16 170.203 123.779 170.13 124.437C164.217 125.786 164.214 130.535 164.214 130.535L161.025 138.575C161.025 138.575 160.514 139.927 159.921 141.712L156.141 141.036L158.751 145.434C158.252 147.224 157.901 148.885 158.017 149.719C158.017 149.719 156.845 155.237 158.931 156.2L163.538 158.272C163.737 158.393 163.952 158.486 164.176 158.548L164.363 158.631C164.43 158.664 164.504 158.681 164.579 158.681C164.653 158.681 164.727 158.664 164.794 158.631H164.819H164.868C164.962 158.64 165.057 158.627 165.144 158.592C165.248 158.538 165.329 158.449 165.373 158.341C165.374 158.333 165.374 158.324 165.373 158.316L166.753 157.916L167.923 159.296C168.45 159.665 168.966 159.988 169.47 160.278L167.672 178.267C167.672 178.267 167.379 202.178 166.499 207.622C166.171 209.639 166.168 211.013 166.292 211.948L166.259 212.009C166.477 213.546 167.042 213.849 167.042 213.849V213.827L167.076 213.849C167.342 213.151 167.658 212.474 168.022 211.821C168.022 211.948 168.022 212.078 168.022 212.213C168.005 214.244 167.942 217.083 167.746 218.929C167.387 222.069 168.659 232.47 168.659 232.47L169.098 241.934C169.169 243.54 168.797 245.134 168.022 246.542C166.982 248.432 165.627 251.089 165.539 252.267C165.535 252.332 165.535 252.396 165.539 252.46L163.232 255.145C163.232 255.145 162.349 256.505 164.336 257.054C165.404 257.352 167.249 257.054 168.728 256.704C169.375 256.555 169.952 256.192 170.366 255.674C170.78 255.155 171.006 254.512 171.007 253.848C171.388 252.545 172.028 251.331 172.889 250.281L173.261 252.458L175.745 253.073L176.062 247.105C176.191 246.769 176.249 246.41 176.233 246.051C176.721 241.807 175.083 242.188 175.083 242.188C175.124 242.228 175.152 242.28 175.163 242.337C175.135 242.29 175.107 242.241 175.083 242.191C174.075 240.204 174.569 236.949 174.569 236.949C174.569 236.949 175.874 227.49 176.332 224.993C176.655 223.23 176.523 217.453 176.415 214.216C176.415 214.081 176.415 213.94 176.401 213.827C180.245 213.777 184.955 213.645 188.266 213.325V213.717L187.653 236.066C187.612 237.49 187.323 238.896 186.801 240.221C186.801 240.246 186.778 240.271 186.77 240.295C186.038 242.162 185.62 244.138 185.534 246.142L185.258 253.244V253.44C184.764 253.63 183.986 254.179 183.964 255.771C183.931 258.103 188.039 257.325 188.039 257.325C192.148 257.325 192.178 253.048 192.178 253.048C192.178 253.048 192.311 249.127 192.504 246.503C192.697 243.879 191.886 244.459 191.886 244.459L191.825 251.909C191.825 251.928 191.825 251.947 191.825 251.966V245.425L191.888 244.475V244.448L191.902 244.246L192.413 236.548C192.413 236.548 196.195 223.719 196.783 221.257C197.2 219.511 197.026 214.241 196.888 211.325C196.888 211.189 196.888 211.062 196.871 210.938C198.041 210.833 199.079 210.822 199.495 210.822H199.686C199.686 210.822 199.49 190.217 199.001 182.442C198.513 174.667 197.729 167.57 195.77 165.432C194.59 164.141 192.942 160.151 191.822 157.196C194.158 158.208 196.583 159.002 199.065 159.569C205.262 160.866 204.415 155.485 204.415 155.485L203.786 145.312H203.827C203.804 142.647 203.576 139.988 203.143 137.358C202.817 135.341 202.315 133.255 201.548 131.564C202.221 131.307 202.883 131.012 203.535 130.736C205.218 129.994 207.121 128.94 207.359 127.124H207.276C207.307 126.997 207.328 126.868 207.339 126.738ZM168.927 141.455C168.943 142.506 168.902 144.327 168.841 146.344L166.874 143.718L168.847 140.517L168.927 141.455ZM196.121 150.756L192.843 149.702C193.425 148.796 194.104 147.956 194.868 147.197L195.144 146.921L195.042 146.943L195.202 146.8L195.296 146.778L195.144 146.921L195.323 146.885C195.521 147.709 195.903 148.476 196.441 149.131C197.611 150.433 196.11 150.756 196.11 150.756H196.121Z" fill="url(#paint0_linear)"/>
<path d="M176.197 245.322L175.811 252.59L173.367 251.98L172.851 248.956L176.197 245.322Z" fill="#A27772"/>
<path opacity="0.1" d="M176.197 245.322L175.811 252.59L173.367 251.98L172.851 248.956L176.197 245.322Z" fill="black"/>
<path d="M185.17 253.556L188.9 254.328L191.659 251.884V245L191.72 244.059V244.031L191.734 243.833L192.236 236.19C192.236 236.19 195.966 223.451 196.546 221.015C196.957 219.279 196.786 214.045 196.651 211.153C196.595 209.967 196.546 209.175 196.546 209.175L188.313 207.18L188.139 213.526L187.537 235.71C187.496 237.123 187.211 238.519 186.693 239.835L186.665 239.909C185.948 241.768 185.545 243.732 185.471 245.723L185.195 252.772V252.968L185.17 253.556Z" fill="#CC818C"/>
<path opacity="0.1" d="M191.731 243.835V244.031L191.745 243.833L191.731 243.835Z" fill="black"/>
<path opacity="0.1" d="M185.17 253.556L188.9 254.328L191.659 251.884V251.299C191.651 251.429 191.61 251.555 191.541 251.665C191.471 251.775 191.376 251.867 191.262 251.931L191.223 251.953C189.939 252.633 188.482 252.921 187.035 252.78L185.578 252.656C185.447 252.671 185.318 252.702 185.195 252.75V252.946L185.17 253.556Z" fill="black"/>
<path d="M191.231 252.146L191.27 252.124C191.392 252.056 191.493 251.956 191.563 251.836C191.634 251.716 191.671 251.579 191.67 251.439L191.731 244.028C191.731 244.028 192.536 243.457 192.343 246.062C192.15 248.667 192.021 252.56 192.021 252.56C192.021 252.56 191.99 256.806 187.937 256.806C187.937 256.806 183.884 257.576 183.914 255.261C183.945 252.946 185.589 252.849 185.589 252.849L187.043 252.976C188.49 253.114 189.946 252.825 191.231 252.146Z" fill="#B07473"/>
<path d="M165.743 251.98C165.839 253.652 170.759 252.687 170.759 252.687L174.07 246.255C174.07 246.255 176.829 244.131 175.45 242.265C175.374 242.164 175.306 242.058 175.245 241.948V241.932C175.215 241.882 175.19 241.832 175.163 241.78C174.169 239.81 174.658 236.579 174.658 236.579C174.658 236.579 175.943 227.198 176.396 224.715C176.713 222.963 176.583 217.226 176.476 214.015C176.435 212.682 176.396 211.783 176.396 211.783L168.223 209.597C168.223 209.597 168.223 210.615 168.223 212.034C168.207 214.048 168.146 216.868 167.947 218.7C167.594 221.82 168.85 232.145 168.85 232.145L169.283 241.542C169.345 243.133 168.97 244.711 168.199 246.103C167.172 247.98 165.837 250.62 165.743 251.79C165.737 251.853 165.737 251.917 165.743 251.98Z" fill="#CC818C"/>
<path opacity="0.1" d="M165.743 251.98C165.839 253.652 170.759 252.687 170.759 252.687L174.07 246.255C174.07 246.255 176.829 244.131 175.449 242.265C175.374 242.164 175.306 242.058 175.245 241.948C175.201 242.922 174.141 245.353 174.141 245.353C174.141 245.353 171.407 250.824 170.555 252.077C169.702 253.329 165.905 251.845 165.765 251.801C165.753 251.86 165.745 251.92 165.743 251.98Z" fill="black"/>
<path d="M175.157 241.774C175.157 241.774 176.774 241.399 176.294 245.612C176.311 246.091 176.202 246.566 175.976 246.989C175.751 247.412 175.418 247.768 175.011 248.021C173.855 248.749 172.067 250.314 171.164 253.357C171.165 254.014 170.944 254.652 170.536 255.168C170.128 255.683 169.558 256.046 168.919 256.196C167.459 256.536 165.638 256.836 164.584 256.541C162.622 255.989 163.48 254.646 163.48 254.646L165.732 251.975C165.732 251.975 169.655 253.52 170.524 252.264C171.393 251.009 174.111 245.54 174.111 245.54C174.111 245.54 175.648 242.127 175.157 241.774Z" fill="#B07473"/>
<path opacity="0.1" d="M188.324 207.945L188.15 214.291C190.357 214.078 191.913 213.78 192.184 213.364C192.76 212.467 194.868 212.086 196.662 211.932C196.607 210.745 196.557 209.953 196.557 209.953L188.324 207.945Z" fill="black"/>
<path opacity="0.1" d="M168.215 212.795C168.427 212.367 168.736 211.995 169.118 211.708C169.987 211.225 169.893 214.795 169.893 214.795C169.893 214.795 172.776 214.823 176.471 214.776C176.429 213.441 176.391 212.544 176.391 212.544L168.218 210.359C168.218 210.359 168.229 211.377 168.215 212.795Z" fill="black"/>
<path d="M167.285 213.645C167.285 213.645 168.251 211.032 169.117 210.552C169.984 210.072 169.893 213.639 169.893 213.639C169.893 213.639 191.121 213.833 192.184 212.191C193.246 210.549 199.421 210.649 199.421 210.649C199.421 210.649 199.228 190.19 198.745 182.47C198.262 174.75 197.489 167.706 195.561 165.584C194.311 164.204 192.526 159.765 191.439 156.801C190.84 155.182 190.445 154.004 190.445 154.004L170.182 155.163L170.017 156.801L167.865 178.323C167.865 178.323 167.589 202.051 166.706 207.465C165.823 212.878 167.285 213.645 167.285 213.645Z" fill="#444053"/>
<g opacity="0.1">
<path opacity="0.1" d="M190.547 212.205C191.607 210.566 197.785 210.662 197.785 210.662C197.785 210.662 197.591 190.203 197.109 182.483C196.626 174.763 195.853 167.719 193.924 165.598C192.675 164.218 190.889 159.779 189.802 156.815C189.3 155.455 188.942 154.406 188.839 154.106L190.412 154.017C190.412 154.017 190.807 155.196 191.405 156.815C192.509 159.779 194.278 164.223 195.528 165.598C197.459 167.719 198.229 174.763 198.712 182.483C199.194 190.203 199.377 210.649 199.377 210.649C199.377 210.649 193.202 210.549 192.142 212.205C191.234 213.606 175.612 213.67 171.076 213.659C176.892 213.631 189.72 213.457 190.547 212.205Z" fill="black"/>
<path opacity="0.1" d="M167.473 210.549C167.865 210.331 168.061 210.935 168.157 211.653C167.808 212.289 167.502 212.949 167.244 213.628C167.244 213.628 166.692 213.328 166.472 211.802C166.778 211.258 167.134 210.74 167.473 210.549Z" fill="black"/>
</g>
<path d="M173.546 104.505C172.144 106.42 173.562 109.138 172.059 110.997C171.562 111.612 170.798 112.051 170.279 112.653C169.319 113.773 169.357 115.29 169.829 116.606C170.301 117.923 171.154 119.117 171.739 120.398C171.992 120.949 172.197 121.576 171.934 122.127C171.752 122.511 171.383 122.801 171.074 123.135C170.108 124.213 170.08 125.714 170.599 126.984C171.118 128.253 172.114 129.354 173.082 130.424C173.469 130.849 173.957 131.315 174.6 131.304C174.939 131.277 175.266 131.169 175.554 130.99C177.843 129.785 179.579 127.744 180.402 125.292C181.098 122.985 180.951 120.506 179.988 118.298C179.161 116.347 177.814 114.476 177.803 112.413C177.803 110.776 178.645 109.215 178.794 107.584C178.976 105.606 177.803 102.46 175.414 101.597C175.571 102.874 174.269 103.534 173.546 104.505Z" fill="#585268"/>
<path opacity="0.1" d="M173.546 104.505C172.144 106.42 173.562 109.138 172.059 110.997C171.562 111.612 170.798 112.051 170.279 112.653C169.319 113.773 169.357 115.29 169.829 116.606C170.301 117.923 171.154 119.117 171.739 120.398C171.992 120.949 172.197 121.576 171.934 122.127C171.752 122.511 171.383 122.801 171.074 123.135C170.108 124.213 170.08 125.714 170.599 126.984C171.118 128.253 172.114 129.354 173.082 130.424C173.469 130.849 173.957 131.315 174.6 131.304C174.939 131.277 175.266 131.169 175.554 130.99C177.843 129.785 179.579 127.744 180.402 125.292C181.098 122.985 180.951 120.506 179.988 118.298C179.161 116.347 177.814 114.476 177.803 112.413C177.803 110.776 178.645 109.215 178.794 107.584C178.976 105.606 177.803 102.46 175.414 101.597C175.571 102.874 174.269 103.534 173.546 104.505Z" fill="black"/>
<path opacity="0.1" d="M189.105 174.068C186.296 174.217 183.653 175.423 181.194 176.789C178.736 178.154 176.357 179.713 173.711 180.673" fill="black"/>
<path opacity="0.1" d="M187.358 180.684C184.579 180.951 181.989 182.21 180.063 184.23C179.381 184.953 178.793 185.764 178.082 186.457C176.99 187.517 175.644 188.277 174.172 188.664" fill="black"/>
<path opacity="0.1" d="M187.934 185.717C185.694 186.339 183.667 187.561 182.071 189.252C181.641 189.715 181.244 190.214 180.819 190.675C178.493 193.158 175.209 194.497 172.039 195.749" fill="black"/>
<path d="M187.694 115.886C187.757 118.131 187.951 120.369 188.274 122.591C188.533 124.175 188.903 125.585 189.433 126.211C190.975 128.046 181.906 130.507 181.906 130.507L176.55 126.368C176.55 126.368 180.797 122.459 178.818 118.643C176.84 114.827 187.694 115.886 187.694 115.886Z" fill="#CC818C"/>
<path opacity="0.1" d="M170.017 156.801H191.438C190.84 155.182 190.445 154.004 190.445 154.004L170.182 155.163L170.017 156.801Z" fill="black"/>
<path d="M168.637 156.415H191.538C190.895 154.114 191.538 151.981 192.457 150.345C193.099 149.196 193.907 148.147 194.854 147.233L195.012 147.092L203.013 145.318L203.444 145.224C203.444 145.224 203.507 130.686 198.361 128.691C193.215 126.697 190.125 124.001 190.125 124.001L183.051 126.186L177.839 123.551C176.167 125.353 171.727 124.655 171.727 124.655C164.457 125.483 164.457 130.959 164.457 130.959C164.457 130.959 168.703 140.867 169.026 140.867C169.349 140.867 168.637 156.415 168.637 156.415Z" fill="#67647E"/>
<path opacity="0.1" d="M176.545 147.172C176.545 147.172 171.873 146.137 170.284 144.327L176.545 147.172Z" fill="black"/>
<path opacity="0.1" d="M200.094 141.748L194.686 146.187C194.725 146.538 194.785 146.886 194.865 147.23L195.023 147.089L203.024 145.315L200.094 141.748Z" fill="black"/>
<path opacity="0.1" d="M185.427 154.873C185.427 154.873 186.613 155.541 188.429 156.415H191.541C190.898 154.114 191.541 151.981 192.46 150.345L186.961 148.565C188.837 150.304 185.427 154.873 185.427 154.873Z" fill="black"/>
<path d="M167.672 129.205L164.454 130.94L161.301 138.917C161.301 138.917 158.02 147.666 158.34 149.984C158.34 149.984 157.184 155.449 159.242 156.415L164.612 158.843C164.706 158.886 164.812 158.898 164.914 158.878C165.016 158.858 165.109 158.806 165.18 158.73C165.25 158.654 165.296 158.558 165.309 158.455C165.323 158.352 165.304 158.248 165.255 158.156C164.49 156.708 163.651 154.445 164.979 153.19L163.434 149.975L169.026 140.848L170.889 137.708L167.672 129.205Z" fill="#67647E"/>
<path opacity="0.1" d="M174.82 145.346C175.096 146.482 176.04 148.229 179.152 148.888L182.579 151.686L186.213 153.341L187.691 154.012L188.321 149.476L186.894 148.695L185.239 147.787C185.239 147.787 181.489 140.989 175.549 143.861C175.276 143.988 175.055 144.205 174.922 144.475C174.79 144.745 174.754 145.052 174.82 145.346Z" fill="black"/>
<path d="M175.016 144.959C175.292 146.096 176.236 147.843 179.348 148.502L182.775 151.302L186.409 152.958L187.888 153.628L188.517 149.092L187.09 148.314L185.435 147.404C185.435 147.404 181.685 140.608 175.745 143.478C175.473 143.604 175.252 143.82 175.119 144.09C174.987 144.36 174.951 144.666 175.016 144.959Z" fill="#CC818C"/>
<path opacity="0.1" d="M181.71 121.774C186.294 121.774 190.01 118.059 190.01 113.475C190.01 108.891 186.294 105.175 181.71 105.175C177.126 105.175 173.411 108.891 173.411 113.475C173.411 118.059 177.126 121.774 181.71 121.774Z" fill="black"/>
<path d="M181.71 121.581C186.294 121.581 190.01 117.865 190.01 113.282C190.01 108.698 186.294 104.982 181.71 104.982C177.126 104.982 173.411 108.698 173.411 113.282C173.411 117.865 177.126 121.581 181.71 121.581Z" fill="#CC818C"/>
<path opacity="0.1" d="M186.85 131.012L184.367 126.161C184.367 126.161 188.02 124.688 188.285 122.977C188.55 121.267 191.783 124.98 191.082 126.211C190.382 127.442 186.85 131.012 186.85 131.012Z" fill="black"/>
<path d="M186.85 130.626L184.367 125.775C184.367 125.775 188.02 124.302 188.285 122.591C188.55 120.88 191.783 124.597 191.082 125.825C190.382 127.053 186.85 130.626 186.85 130.626Z" fill="#67647E"/>
<path d="M166.43 143.152L180.225 161.691C180.225 161.691 175.143 164.45 168.129 159.503L165.094 155.902L156.472 141.361L166.43 143.152Z" fill="#F6F8FB"/>
<path d="M163.715 153.231L164.97 153.198C164.97 153.198 172.641 145.748 174.522 149.517C176.404 153.286 169.746 156.801 169.746 156.801L167.721 157.905L165.067 158.678L163.378 156.41L163.715 153.231Z" fill="#CC818C"/>
<path opacity="0.1" d="M165.566 157.254C165.682 157.682 165.793 158.153 165.6 158.551C165.555 158.658 165.474 158.746 165.371 158.799C165.283 158.835 165.188 158.849 165.095 158.838C164.43 158.781 163.812 158.474 163.365 157.98C162.923 157.488 162.546 156.943 162.242 156.357C161.9 155.764 161.544 155.102 161.668 154.426C161.803 153.686 162.462 153.173 163.092 152.77C164.363 151.929 164.394 152.908 164.684 153.99L165.566 157.254Z" fill="black"/>
<path d="M165.373 157.254C165.489 157.682 165.599 158.153 165.406 158.551C165.362 158.658 165.281 158.746 165.177 158.799C165.09 158.835 164.995 158.849 164.901 158.838C164.237 158.781 163.619 158.474 163.171 157.98C162.73 157.488 162.353 156.943 162.048 156.357C161.706 155.764 161.35 155.102 161.474 154.426C161.61 153.686 162.269 153.173 162.898 152.77C164.17 151.929 164.201 152.908 164.49 153.99L165.373 157.254Z" fill="#67647E"/>
<path opacity="0.1" d="M169.023 140.848L169.666 139.764L169.103 141.778L169.023 140.848Z" fill="black"/>
<path opacity="0.1" d="M186.409 152.947L187.888 153.617L188.517 149.081L187.09 148.303C188.064 149.424 187.212 151.504 186.409 152.947Z" fill="black"/>
<path opacity="0.1" d="M192.343 147.683C192.343 147.683 187.567 147.972 185.542 146.67L192.343 147.683Z" fill="black"/>
<g opacity="0.1">
<path opacity="0.1" d="M191.75 150.729C192.394 149.579 193.203 148.531 194.151 147.616C194.378 147.473 194.614 147.344 194.857 147.23L202.307 145.701L202.737 145.608C202.737 145.608 202.803 131.07 197.655 129.075C194.77 127.975 192.064 126.45 189.628 124.553L190.194 124.379C190.194 124.379 193.281 127.08 198.427 129.069C203.573 131.059 203.515 145.608 203.515 145.608H202.743L195.116 147.067L194.686 147.478C193.73 148.435 192.91 149.518 192.25 150.698C191.243 152.57 191.014 154.762 191.612 156.801H190.823C190.189 154.5 190.842 152.368 191.75 150.729Z" fill="black"/>
<path opacity="0.1" d="M171.418 125.072C171.542 125.055 171.661 125.036 171.788 125.022C172.31 125.096 172.836 125.139 173.363 125.151C172.714 125.169 172.064 125.143 171.418 125.072Z" fill="black"/>
<path opacity="0.1" d="M182.339 126.564L177.626 124.189C177.724 124.112 177.816 124.028 177.902 123.938L182.819 126.421L182.339 126.564Z" fill="black"/>
</g>
<path d="M200.287 141.361L203.441 145.224L204.084 155.709C204.084 155.709 204.911 161.048 198.808 159.762C192.705 158.476 185.62 154.487 185.62 154.487C185.62 154.487 189.03 149.917 187.165 148.182L195.914 151.013C195.914 151.013 197.393 150.69 196.234 149.404C195.075 148.118 194.871 145.801 194.871 145.801L200.287 141.361Z" fill="#67647E"/>
<path opacity="0.1" d="M201.703 152.428L203.441 154.42C202.994 154.284 202.594 154.025 202.287 153.673C201.98 153.32 201.778 152.889 201.703 152.428Z" fill="black"/>
<path opacity="0.1" d="M198.745 152.105L201.446 155.579L200.097 155.902L198.745 152.105Z" fill="black"/>
<path opacity="0.1" d="M171.802 109.471C171.504 108.746 171.73 107.907 172.078 107.209C172.425 106.511 172.925 105.876 173.181 105.137C173.581 104.033 173.457 102.797 173.893 101.71C174.658 99.8062 176.829 98.9508 178.777 98.308C179.351 98.1176 179.963 97.9244 180.554 98.0651C181.332 98.2528 181.853 98.9674 182.485 99.4447C185.128 101.415 189.424 99.2461 191.979 101.332C192.959 102.129 193.433 103.41 193.58 104.662C193.726 105.915 193.58 107.187 193.566 108.45C193.524 110.658 193.936 113.08 195.594 114.545C196.093 114.987 196.681 115.321 197.166 115.776C197.652 116.231 198.036 116.88 197.95 117.534C197.881 117.837 197.789 118.135 197.674 118.425C197.343 119.578 197.834 120.8 198.433 121.841C200.221 124.931 203.369 127.477 206.942 127.549C206.702 129.351 204.831 130.397 203.17 131.136C201.054 132.077 198.83 133.001 196.518 132.883C194.206 132.764 191.794 131.285 191.383 129.02C191.243 128.239 191.262 127.282 190.583 126.87C190.175 126.622 189.645 126.686 189.204 126.498C188.566 126.222 188.249 125.521 188.039 124.859C187.608 123.498 187.377 122.082 187.352 120.654C187.325 118.963 187.551 117.117 186.591 115.724C185.702 114.435 184.124 113.792 183.1 112.595C182.157 111.491 181.128 110.172 179.58 109.962C177.499 109.662 173.068 112.573 171.802 109.471Z" fill="black"/>
<path d="M171.802 109.085C171.504 108.359 171.73 107.521 172.078 106.823C172.425 106.125 172.925 105.49 173.181 104.75C173.581 103.647 173.457 102.411 173.893 101.324C174.658 99.4199 176.829 98.5645 178.777 97.9217C179.351 97.7313 179.963 97.5381 180.554 97.6789C181.332 97.8665 181.853 98.5811 182.485 99.0584C185.128 101.031 189.424 98.8598 191.979 100.946C192.959 101.746 193.433 103.023 193.58 104.276C193.726 105.529 193.58 106.801 193.566 108.064C193.524 110.272 193.936 112.694 195.594 114.159C196.093 114.601 196.681 114.934 197.166 115.39C197.652 115.845 198.036 116.493 197.95 117.147C197.881 117.452 197.789 117.751 197.674 118.041C197.343 119.192 197.834 120.417 198.433 121.454C200.221 124.544 203.369 127.091 206.942 127.163C206.702 128.965 204.831 130.01 203.17 130.75C201.054 131.693 198.83 132.615 196.518 132.496C194.206 132.378 191.794 130.899 191.383 128.62C191.243 127.839 191.262 126.881 190.583 126.47C190.175 126.222 189.645 126.285 189.204 126.098C188.566 125.822 188.249 125.121 188.039 124.459C187.608 123.098 187.377 121.681 187.352 120.254C187.325 118.563 187.551 116.717 186.591 115.323C185.702 114.035 184.124 113.392 183.1 112.195C182.157 111.091 181.128 109.772 179.58 109.562C177.499 109.289 173.068 112.186 171.802 109.085Z" fill="#585268"/>
<path opacity="0.1" d="M177.685 130.41L182.441 126.548C182.441 126.548 179.186 124.782 178.796 123.275C178.407 121.769 175.803 123.99 176.068 125.342C176.333 126.694 177.685 130.41 177.685 130.41Z" fill="black"/>
<path d="M177.877 129.831L182.634 125.968C182.634 125.968 179.378 124.202 178.989 122.696C178.6 121.189 175.996 123.41 176.261 124.762C176.525 126.114 177.877 129.831 177.877 129.831Z" fill="#67647E"/>
<path opacity="0.1" d="M182.819 129.58C183.028 129.58 183.197 129.411 183.197 129.202C183.197 128.993 183.028 128.824 182.819 128.824C182.611 128.824 182.441 128.993 182.441 129.202C182.441 129.411 182.611 129.58 182.819 129.58Z" fill="black"/>
<path opacity="0.1" d="M182.819 131.682C183.028 131.682 183.197 131.513 183.197 131.304C183.197 131.096 183.028 130.926 182.819 130.926C182.611 130.926 182.441 131.096 182.441 131.304C182.441 131.513 182.611 131.682 182.819 131.682Z" fill="black"/>
<path opacity="0.1" d="M182.819 133.782C183.028 133.782 183.197 133.613 183.197 133.404C183.197 133.195 183.028 133.026 182.819 133.026C182.611 133.026 182.441 133.195 182.441 133.404C182.441 133.613 182.611 133.782 182.819 133.782Z" fill="black"/>
<g opacity="0.1">
<path opacity="0.1" d="M173.716 103.724C174.091 102.689 174.011 101.531 174.362 100.49C174.201 100.721 174.067 100.969 173.962 101.23C173.526 102.317 173.647 103.559 173.25 104.659C173.25 104.679 173.23 104.701 173.222 104.723C173.417 104.406 173.582 104.071 173.716 103.724Z" fill="black"/>
<path opacity="0.1" d="M203.733 129.723C201.617 130.667 199.393 131.589 197.078 131.47C194.763 131.351 192.357 129.872 191.946 127.593C191.805 126.812 191.825 125.855 191.146 125.444C190.738 125.196 190.208 125.259 189.766 125.071C189.126 124.796 188.812 124.095 188.602 123.433C188.171 122.07 187.939 120.651 187.915 119.222C187.887 117.531 188.111 115.685 187.153 114.292C186.265 113.003 184.687 112.36 183.663 111.163C182.717 110.059 181.69 108.74 180.14 108.531C178.015 108.255 173.581 111.152 172.318 108.05C172.115 107.464 172.144 106.823 172.398 106.257C172.307 106.412 172.218 106.566 172.138 106.723C171.78 107.421 171.553 108.26 171.862 108.986C173.129 112.087 177.56 109.176 179.687 109.466C181.235 109.676 182.264 111.003 183.211 112.098C184.234 113.284 185.81 113.938 186.698 115.23C187.658 116.609 187.435 118.469 187.462 120.157C187.485 121.586 187.716 123.003 188.147 124.365C188.356 125.025 188.674 125.745 189.311 126.004C189.753 126.189 190.282 126.128 190.691 126.377C191.367 126.785 191.35 127.756 191.488 128.523C191.899 130.802 194.311 132.284 196.623 132.402C198.935 132.521 201.162 131.597 203.275 130.653C204.798 129.977 206.495 129.036 206.95 127.497C206.211 128.509 204.919 129.196 203.733 129.723Z" fill="black"/>
</g>
<path opacity="0.1" d="M81.4737 263.884C107.693 263.884 128.947 260.262 128.947 255.794C128.947 251.327 107.693 247.705 81.4737 247.705C55.2547 247.705 34 251.327 34 255.794C34 260.262 55.2547 263.884 81.4737 263.884Z" fill="#22C88A"/>
<g opacity="0.1">
<path opacity="0.1" d="M56.3506 115.55L56.5502 115.593C56.4919 115.553 56.4202 115.538 56.3506 115.55Z" fill="url(#paint1_linear)"/>
</g>
<path d="M98.0842 146.885C97.4881 142.882 93.852 133.544 93.852 133.544C93.7873 133.274 93.7172 132.989 93.6363 132.713C91.0549 123.842 87.4836 123.057 87.4836 123.057L74.6899 120.33C74.7955 120.396 74.8872 120.482 74.9597 120.583L74.7574 120.616C74.1702 119.923 73.7824 119.084 73.6353 118.188C73.611 118.056 73.5894 117.918 73.5732 117.778C74.4927 116.883 75.2099 115.801 75.6767 114.605C76.1435 113.41 76.349 112.128 76.2796 110.846C76.2101 109.565 75.8671 108.313 75.2738 107.175C74.6805 106.037 73.8505 105.039 72.8395 104.248C72.7074 104.143 72.5698 104.043 72.4295 103.943C73.0338 103.304 73.0526 102.411 72.6022 101.516C71.5934 99.4198 69.4031 98.0954 67.1481 97.4507C65.4272 96.9571 63.5606 96.7979 61.8559 97.3374C60.8821 97.6449 59.9974 98.1655 59.0857 98.6213C57.3863 99.471 55.5143 100.143 54.2304 101.537C53.931 101.864 53.6586 102.279 53.7449 102.708C53.8123 103.029 54.0632 103.274 54.2277 103.56C54.5918 104.197 54.4974 104.998 54.252 105.691C54.0065 106.384 53.6343 107.04 53.4589 107.741C53.2836 108.442 53.3537 109.289 53.8878 109.797C54.1473 110 54.4174 110.189 54.697 110.363C54.9901 110.611 55.247 110.899 55.4604 111.218L56.9763 113.265C57.6839 114.173 58.3155 115.137 58.8645 116.149C59.2394 116.891 59.5334 117.686 60.0378 118.35C60.1862 118.547 60.3553 118.728 60.5422 118.889C60.4937 118.87 60.4424 118.854 60.3939 118.833C60.6172 119.051 60.8827 119.22 61.1739 119.332C61.4651 119.444 61.7761 119.495 62.0878 119.483H62.1634C62.279 119.481 62.3897 119.436 62.4736 119.356V119.626C62.5005 120.61 62.4978 121.657 62.4277 122.639L62.309 122.579C62.1333 122.491 61.936 122.455 61.7404 122.476C61.5449 122.496 61.3593 122.573 61.2058 122.695L49.421 132.136C49.421 132.136 46.8612 135.643 47.2172 141.685L45.1537 150.753C45.1537 150.753 42.5724 158.449 44.5576 163.944C46.5429 169.438 47.6947 172.575 47.6947 172.575C47.6947 172.575 48.4877 178.817 49.6799 179.319C50.8722 179.82 51.3874 180.106 51.3874 180.106L51.6247 181.598C51.6247 181.598 51.703 181.741 51.8432 181.989C52.7118 183.497 55.9243 188.821 57.7936 188.255C58.0271 189.7 58.1291 191.164 58.0984 192.627L59.9434 205.035C59.9434 205.035 61.2328 208.41 61.1545 210.176C61.0763 211.943 62.6624 214.457 62.6624 214.457C61.6995 216.218 61.4173 218.271 61.8693 220.227C62.6246 223.526 63.5768 238.755 63.5768 238.755L64.9659 242.445L64.9255 246.761C64.8104 247.462 64.5169 248.121 64.0731 248.676C63.1776 249.647 63.2369 250.769 61.106 252.094C58.9751 253.418 57.5994 253.917 57.5994 255.684C57.5969 255.928 57.5753 256.171 57.5347 256.412C57.3351 257.704 56.9493 258.4 60.9064 258.778C65.5513 259.217 68.6478 256.185 68.6478 256.185C68.6478 256.185 69.3303 254.947 72.5482 254.448C72.5482 254.448 73.6461 254.389 73.7081 253.415C73.7297 253.081 73.7243 252.439 73.6946 251.732C73.6434 250.383 73.5139 248.814 73.344 248.735C73.1309 248.641 72.7532 247.284 72.6238 246.793H73.5193C73.5193 246.793 74.3528 240.551 73.5193 236.505C72.6858 232.459 73.4411 229.597 73.4411 229.597L73.2819 218.921C73.2819 218.921 72.1571 217.78 73.0391 215.703C73.9212 213.626 73.0391 203.339 73.0391 203.339C73.0391 203.339 73.3601 199.649 74.2718 198.785C75.1836 197.922 74.3177 193.377 74.2718 193.14L75.8903 198.589C75.8903 198.589 76.6051 209.424 78.1156 211.388L78.5526 216.291C78.5526 216.291 81.6491 220.807 81.053 223.242C80.4569 225.678 81.6896 234.469 81.6896 234.469V243.459C81.6896 243.459 80.2978 247.071 82.2453 248.366L83.0841 248.333C82.7982 248.603 82.5932 248.978 82.2749 249.31C81.9027 249.693 81.6923 251.149 81.5736 252.401C81.4738 253.461 81.4415 254.373 81.4415 254.373C81.4415 254.373 82.2749 255.697 83.8232 255.786C85.3715 255.875 90.4938 259.792 90.4938 259.792C90.4938 259.792 95.5595 259.792 96.8677 259.522L96.9459 259.503C97.3662 259.369 97.7194 259.08 97.9332 258.694C98.1971 258.247 98.2828 257.718 98.1732 257.21C98.0087 256.436 97.3964 255.592 96.0342 254.866C92.6382 253.073 92.1338 251.395 92.1338 251.395L89.9085 248.061H90.2268C90.2268 248.061 90.0299 244.527 92.4494 240.562L92.293 223.094C92.293 223.094 93.2829 217.087 91.5782 213.829C91.5782 213.829 91.4379 210.373 92.5789 209.313C93.7199 208.253 91.0603 197.537 91.0603 197.537C91.0603 197.537 90.5208 191.786 89.8626 186.537C92.5411 189.078 95.3221 179.925 95.7968 178.299H95.867C95.867 178.299 95.8535 178.256 95.8346 178.18C95.8157 178.105 95.867 178.064 95.867 178.064C95.867 178.051 95.2736 175.947 95.7078 176.376C96.1421 176.805 97.2184 175.2 97.2184 175.2C97.2184 175.2 97.0592 166.444 98.9258 162.031C100.792 157.618 98.0842 146.885 98.0842 146.885ZM90.1027 152.455L90.1162 152.431C90.3859 157.777 90.0622 169.185 90.0622 169.185C90.0622 169.185 89.6954 170.646 89.3016 172.367L89.0184 161.529L88.7486 151.323L90.1027 152.455ZM55.9189 148.771C55.9189 148.771 57.2676 165.651 55.9189 168.084C55.5332 168.777 55.2122 170.01 54.9452 171.421C54.5001 170.25 53.5561 167.501 53.8932 166.045C54.3302 164.157 53.0193 159.212 53.0193 159.096C53.0193 158.98 52.9006 156.348 53.8528 154.325C54.8049 152.302 54.1711 151.439 54.1711 151.439C54.1711 151.439 54.9668 148.142 55.9189 148.771Z" fill="url(#paint2_linear)"/>
<path d="M59.2041 186.788C58.0308 191.956 53.3535 184.139 52.2881 182.264L52.0723 181.876L52.5794 179.499L55.2606 178.407C55.6841 178.628 56.0852 178.89 56.4582 179.189C57.9337 180.333 60.1104 182.785 59.2041 186.788Z" fill="#EFB7B9"/>
<path d="M95.4839 178.329L95.4543 178.445C95.4543 178.48 95.43 178.52 95.4165 178.571C94.9579 180.19 92.2309 189.269 89.5983 186.747C86.7175 183.98 88.1174 177.625 88.1174 177.625H88.1444L94.2054 177.004L95.4057 178.24L95.4839 178.329Z" fill="#EFB7B9"/>
<path d="M91.9773 223.027L92.1311 240.365C89.7574 244.304 89.9489 247.81 89.9489 247.81L82.1266 248.12C80.2168 246.836 81.5871 243.252 81.5871 243.252V234.326C81.5871 234.326 80.3652 225.603 80.9478 223.175C81.5304 220.747 78.4932 216.278 78.4932 216.278L78.067 211.409C76.5835 209.462 75.8821 198.705 75.8821 198.705L74.288 193.31C74.3285 193.544 75.1566 198.079 74.288 198.912C73.4195 199.746 73.0796 203.433 73.0796 203.433C73.0796 203.433 73.9373 213.643 73.0796 215.706C72.2218 217.77 73.3116 218.943 73.3116 218.943L73.4707 229.541C73.4707 229.541 72.7289 232.387 73.5462 236.4C74.3635 240.414 73.5462 246.61 73.5462 246.61H65.1304L65.1682 242.294L63.806 238.631C63.806 238.631 62.87 223.512 62.131 220.24C61.6867 218.3 61.9628 216.263 62.9078 214.511C62.9078 214.511 61.3514 212.016 61.4297 210.263C61.5079 208.509 60.2401 205.159 60.2401 205.159L58.4275 192.846C58.4785 190.477 58.1767 188.113 57.5319 185.833C56.4773 182.326 54.9209 177.727 54.9209 177.727L56.6796 177.884L65.5593 178.674C65.5593 178.674 87.1383 177.223 88.112 178.428C88.317 178.822 88.4555 179.247 88.522 179.685C89.4904 184.042 90.7716 197.68 90.7716 197.68C90.7716 197.68 93.3827 208.318 92.2606 209.37C91.1385 210.422 91.2787 213.85 91.2787 213.85C92.9511 217.066 91.9773 223.027 91.9773 223.027Z" fill="#444053"/>
<path d="M73.7293 253.175C73.6673 254.141 72.5883 254.2 72.5883 254.2C69.4324 254.696 68.7635 255.926 68.7635 255.926C68.7635 255.926 65.7235 258.934 61.1704 258.511C57.2889 258.138 57.6638 257.432 57.8634 256.164C57.9032 255.925 57.9239 255.683 57.9255 255.441C57.9255 253.688 59.2741 253.189 61.3754 251.875C63.4766 250.561 63.42 249.447 64.2966 248.484C65.1733 247.521 65.2623 245.652 65.2623 245.652C66.2549 243.926 68.7689 245.922 68.7689 245.922C68.8849 246.534 72.6261 246.461 72.6261 246.461C72.6261 246.461 73.1224 248.449 73.376 248.565C73.5432 248.644 73.67 250.203 73.7212 251.532C73.7455 252.207 73.7482 252.846 73.7293 253.175Z" fill="#B07473"/>
<path opacity="0.1" d="M73.7293 253.175C73.6673 254.141 72.5883 254.2 72.5883 254.2C69.4324 254.697 68.7635 255.926 68.7635 255.926C68.7635 255.926 65.7235 258.934 61.1704 258.511C57.2889 258.138 57.6638 257.432 57.8634 256.164C59.5978 256.595 62.9156 257.194 64.8523 256.142C67.5497 254.68 69.4729 253.658 69.4729 253.658L73.7158 251.497C73.7455 252.207 73.7482 252.846 73.7293 253.175Z" fill="black"/>
<path d="M97.515 258.378C97.3079 258.763 96.96 259.053 96.544 259.188C96.5195 259.196 96.4942 259.203 96.4685 259.206C95.1818 259.476 90.2133 259.476 90.2133 259.476C90.2133 259.476 85.1773 255.576 83.6667 255.487C82.1562 255.398 81.3281 254.084 81.3281 254.084C81.3281 254.084 81.3578 253.178 81.4549 252.126C81.5736 250.882 81.7813 249.429 82.1454 249.056C82.8198 248.355 82.9546 247.392 84.484 248.004C84.484 248.004 86.6419 244.198 89.1883 247.138L91.8209 251.133C91.8209 251.133 92.3172 252.798 95.6511 254.581C96.9863 255.295 97.5879 256.137 97.747 256.906C97.8565 257.408 97.7737 257.934 97.515 258.378Z" fill="#B07473"/>
<path opacity="0.1" d="M97.515 258.378C97.2183 258.629 96.8866 258.899 96.544 259.188C96.5195 259.196 96.4942 259.203 96.4685 259.206C95.1818 259.476 90.2133 259.476 90.2133 259.476C90.2133 259.476 85.1773 255.576 83.6667 255.487C82.1562 255.398 81.3281 254.084 81.3281 254.084C81.3281 254.084 81.3578 253.178 81.4549 252.126C83.0005 252.59 85.3472 253.407 85.9757 254.284C86.9386 255.632 89.8653 257.496 89.8653 257.496C89.8653 257.496 95.3221 256.973 97.747 256.9C97.8579 257.405 97.7751 257.932 97.515 258.378Z" fill="black"/>
<path d="M76.2758 122.391L69.0846 129.989C69.0846 129.989 60.3748 129.347 61.8962 126.774C62.6703 125.466 62.7917 122.728 62.7242 120.338C62.6595 118.037 62.4221 116.079 62.4221 116.079C62.4221 116.079 74.6385 109.999 73.7025 115.669C73.5039 116.738 73.492 117.833 73.6675 118.906C74.1989 121.77 76.2758 122.391 76.2758 122.391Z" fill="#EFB7B9"/>
<path opacity="0.1" d="M73.6998 115.669C73.5012 116.738 73.4893 117.833 73.6648 118.906C72.8294 119.752 71.8339 120.424 70.7364 120.882C69.6389 121.34 68.4612 121.575 67.272 121.573C65.6104 121.573 63.8329 120.225 62.4977 119.429C62.4329 117.128 62.4194 116.079 62.4194 116.079C62.4194 116.079 74.6358 109.999 73.6998 115.669Z" fill="black"/>
<path d="M76.2762 112.103C76.2769 114.143 75.5848 116.123 74.3133 117.718C73.0418 119.313 71.2662 120.429 69.2775 120.884C67.2887 121.338 65.2046 121.103 63.3666 120.218C61.5285 119.333 60.0454 117.851 59.1603 116.013C58.2751 114.175 58.0404 112.091 58.4944 110.102C58.9485 108.113 60.0645 106.337 61.6596 105.066C63.2547 103.794 65.2344 103.102 67.2744 103.102C69.3144 103.102 71.2938 103.796 72.8883 105.068C73.9448 105.911 74.798 106.981 75.3845 108.199C75.971 109.417 76.2757 110.751 76.2762 112.103Z" fill="#EFB7B9"/>
<path opacity="0.1" d="M88.5195 179.664C86.278 184.999 71.8579 185.11 71.8579 185.11V179.294L70.9839 179.238C71.3615 180.902 70.4444 184.964 70.4444 184.964C59.0481 186.583 56.2725 180.085 56.2725 180.085L56.6663 177.862L65.546 178.652C65.546 178.652 87.125 177.201 88.0987 178.407C88.3074 178.8 88.4496 179.224 88.5195 179.664Z" fill="black"/>
<path d="M71.8579 184.409V178.59L70.9839 178.536C71.3615 180.201 70.4444 184.263 70.4444 184.263C61.8695 185.471 58.1714 182.105 56.8686 180.352C56.6356 180.05 56.4357 179.725 56.2725 179.381L59.7494 159.8L60.5586 130.984L61.8129 125.93L62.1042 123.502V123.475L62.1338 123.488L63.0186 123.869L68.327 126.161L74.388 121.611L74.477 121.544L74.7764 121.317L75.2754 121.719L76.5135 122.712L80.4894 148.374C80.4894 148.374 87.3839 168.135 88.6625 176.111C88.7137 176.43 88.7569 176.726 88.7893 177.004C89.6281 184.274 71.8579 184.409 71.8579 184.409Z" fill="#E1E7EF"/>
<path d="M68.993 127.23C69.276 127.23 69.5055 127 69.5055 126.717C69.5055 126.434 69.276 126.205 68.993 126.205C68.7099 126.205 68.4805 126.434 68.4805 126.717C68.4805 127 68.7099 127.23 68.993 127.23Z" fill="#67647E"/>
<path d="M69.2303 131.904C69.5133 131.904 69.7428 131.675 69.7428 131.392C69.7428 131.109 69.5133 130.879 69.2303 130.879C68.9472 130.879 68.7178 131.109 68.7178 131.392C68.7178 131.675 68.9472 131.904 69.2303 131.904Z" fill="#67647E"/>
<path d="M69.74 139.476C70.0231 139.476 70.2525 139.246 70.2525 138.963C70.2525 138.68 70.0231 138.451 69.74 138.451C69.457 138.451 69.2275 138.68 69.2275 138.963C69.2275 139.246 69.457 139.476 69.74 139.476Z" fill="#67647E"/>
<path d="M70.5896 147.627C70.8727 147.627 71.1021 147.398 71.1021 147.115C71.1021 146.832 70.8727 146.602 70.5896 146.602C70.3066 146.602 70.0771 146.832 70.0771 147.115C70.0771 147.398 70.3066 147.627 70.5896 147.627Z" fill="#67647E"/>
<path d="M71.0994 155.285C71.3825 155.285 71.6119 155.056 71.6119 154.772C71.6119 154.489 71.3825 154.26 71.0994 154.26C70.8164 154.26 70.5869 154.489 70.5869 154.772C70.5869 155.056 70.8164 155.285 71.0994 155.285Z" fill="#67647E"/>
<path d="M71.6121 163.439C71.8952 163.439 72.1246 163.21 72.1246 162.927C72.1246 162.644 71.8952 162.414 71.6121 162.414C71.3291 162.414 71.0996 162.644 71.0996 162.927C71.0996 163.21 71.3291 163.439 71.6121 163.439Z" fill="#67647E"/>
<path d="M71.4075 171.507C71.6906 171.507 71.92 171.278 71.92 170.994C71.92 170.711 71.6906 170.482 71.4075 170.482C71.1245 170.482 70.895 170.711 70.895 170.994C70.895 171.278 71.1245 171.507 71.4075 171.507Z" fill="#67647E"/>
<path opacity="0.1" d="M62.4652 162.649C62.4652 162.649 61.8934 170.147 60.8468 172.327C59.8002 174.506 59.3255 180.627 59.3255 180.627L56.8979 180.357C56.6649 180.056 56.465 179.73 56.3018 179.386L59.7787 159.806L60.5879 130.99L61.8422 125.935L62.1335 123.507C62.1429 123.5 62.1541 123.495 62.1658 123.494C62.302 123.429 62.4511 123.397 62.6017 123.4C62.7523 123.402 62.9003 123.439 63.0344 123.507L63.1531 123.567C63.118 123.666 63.0829 123.769 63.0506 123.874C62.1011 126.855 61.7451 132.352 61.7451 132.352C61.7451 132.352 63.1099 142.405 63.2637 147.082C63.4174 151.76 62.4652 162.649 62.4652 162.649Z" fill="black"/>
<path opacity="0.1" d="M56.4582 179.189C56.4314 179.251 56.4008 179.312 56.3665 179.37C55.4197 180.969 53.019 181.986 52.2881 182.264L52.0723 181.876L52.5794 179.499L55.2606 178.407C55.6841 178.628 56.0852 178.89 56.4582 179.189Z" fill="black"/>
<path d="M49.9682 140.922L47.7483 142.254L45.7198 151.255C45.7198 151.255 43.187 158.894 45.1372 164.348C47.0874 169.802 48.223 172.912 48.223 172.912C48.223 172.912 49.0025 179.116 50.1705 179.615C51.3385 180.114 51.8483 180.395 51.8483 180.395L52.0802 181.876C52.0802 181.876 55.2524 180.797 56.3745 178.909C57.4966 177.02 55.5491 172.297 55.5491 172.297C55.5491 172.297 53.874 168.284 54.3029 166.414C54.7318 164.545 53.4451 159.633 53.4451 159.517C53.4451 159.401 53.3291 156.787 54.2543 154.781C55.1795 152.774 54.5672 151.919 54.5672 151.919L53.9819 146.189L49.9682 140.922Z" fill="#67647E"/>
<path opacity="0.1" d="M88.7028 177.978C88.7028 177.978 82.8198 180.201 80.9478 178.248C79.0759 176.295 79.2728 167.188 79.2728 167.188C79.2728 167.188 77.4817 150.354 76.3488 147.589C75.2159 144.825 75.8093 124.869 75.8093 124.869C75.8093 124.869 75.0433 122.293 74.3878 121.611C74.3466 121.566 74.2994 121.527 74.2476 121.495L74.4768 121.544L75.286 121.719L76.5241 122.712L80.5001 148.374C80.5001 148.374 87.3945 168.135 88.6731 176.111L88.7028 177.978Z" fill="black"/>
<path opacity="0.1" d="M95.484 178.563H95.4165C94.6775 178.658 88.1337 179.448 88.1094 178.089C88.1095 177.931 88.1185 177.773 88.1364 177.616L94.1973 176.996L95.3977 178.231C95.4193 178.312 95.4381 178.383 95.4543 178.436L95.484 178.563Z" fill="black"/>
<path d="M89.2234 131.904L93.5257 134.146C93.5257 134.146 97.0944 143.414 97.6797 147.39C97.6797 147.39 100.329 158.036 98.4889 162.414C96.6493 166.792 96.8138 175.486 96.8138 175.486C96.8138 175.486 95.7619 177.082 95.333 176.654C94.9041 176.225 95.4894 178.329 95.4894 178.329C95.4894 178.329 88.1445 179.305 88.1094 177.859C88.0743 176.413 89.7953 169.519 89.7953 169.519C89.7953 169.519 90.2619 153.114 89.5984 150.543C88.9348 147.972 89.2234 131.904 89.2234 131.904Z" fill="#67647E"/>
<path opacity="0.1" d="M76.3894 149.378C76.3894 149.378 73.9618 155.298 73.193 155.69C72.4243 156.081 73.3495 157.637 73.3495 157.637C73.3495 157.637 77.7543 151.482 76.3894 149.378Z" fill="black"/>
<path opacity="0.1" d="M74.9486 128.605C74.9756 128.492 72.0624 131.462 71.2856 131.904C70.5087 132.347 74.1178 131.88 74.9486 128.605Z" fill="black"/>
<path opacity="0.1" d="M66.8355 148.908C66.8355 148.908 62.3929 151.784 62.9755 152.917C63.5582 154.05 66.8355 148.908 66.8355 148.908Z" fill="black"/>
<path opacity="0.1" d="M74.9082 190.839C74.9082 190.839 78.6845 193.267 84.5729 193.879L74.9082 190.839Z" fill="black"/>
<path opacity="0.1" d="M65.8291 196.684C65.8291 196.684 69.3357 201.086 70.9352 201.205C72.5348 201.324 65.8291 196.684 65.8291 196.684Z" fill="black"/>
<path opacity="0.1" d="M70.7381 213.947C70.5817 214.026 68.7502 217.921 66.8809 218.039C65.0116 218.158 70.7381 213.947 70.7381 213.947Z" fill="black"/>
<path opacity="0.1" d="M86.9897 222.479C86.9897 222.479 90.464 221.702 91.2354 224.195C91.2354 224.195 91.0034 223.415 86.9897 222.479Z" fill="black"/>
<path opacity="0.1" d="M84.6514 236.743C84.6514 236.743 88.8593 235.885 89.7548 237.056C90.6503 238.226 84.6514 236.743 84.6514 236.743Z" fill="black"/>
<path opacity="0.1" d="M72.7398 238.731C72.7398 238.769 68.4536 239.589 68.6236 240.133C68.7935 240.678 73.1929 240.6 73.3494 239.742C73.3795 239.636 73.3874 239.524 73.3727 239.414C73.358 239.305 73.3209 239.199 73.2638 239.104C73.2066 239.01 73.1306 238.928 73.0405 238.863C72.9504 238.799 72.848 238.754 72.7398 238.731Z" fill="black"/>
<path opacity="0.1" d="M83.2485 242.432C83.2485 242.432 90.2887 241.574 89.8463 243.055C89.4039 244.535 83.2485 242.432 83.2485 242.432Z" fill="black"/>
<path opacity="0.1" d="M46.3833 155.69C46.4238 155.806 51.0201 156.429 51.6432 157.91C51.6432 157.91 47.1251 155.806 46.4238 155.806" fill="black"/>
<path opacity="0.1" d="M52.852 167.731C52.852 167.731 49.0325 168.939 49.3022 170.771C49.572 172.602 48.9165 169.916 52.852 167.731Z" fill="black"/>
<path opacity="0.1" d="M51.0718 177.004C51.0718 177.004 52.4636 175.094 53.788 175.445C55.1124 175.796 51.0718 177.004 51.0718 177.004Z" fill="black"/>
<path opacity="0.1" d="M72.8856 105.068C72.751 105.198 72.6006 105.31 72.4379 105.403C71.3293 106.045 71.0325 107.021 70.5012 108.173C70.0156 109.217 69.4789 110.331 68.4943 110.913C67.2266 111.677 65.5542 111.396 64.2352 112.065C63.6506 112.371 63.1706 112.845 62.8564 113.425C62.5422 114.006 62.408 114.667 62.4711 115.323C62.5568 115.83 62.6831 116.329 62.8487 116.815C63.1463 117.867 63.2818 118.959 63.2506 120.052C63.2546 120.085 63.2546 120.119 63.2506 120.152C62.1207 119.588 61.1219 118.793 60.3193 117.818C59.5166 116.843 58.9281 115.71 58.5918 114.493C58.2555 113.276 58.179 112.001 58.3672 110.753C58.5555 109.504 59.0043 108.309 59.6846 107.245C60.3648 106.181 61.2613 105.272 62.3157 104.577C63.3701 103.882 64.5589 103.417 65.8049 103.211C67.0508 103.006 68.3261 103.065 69.5479 103.384C70.7696 103.703 71.9105 104.276 72.8964 105.065L72.8856 105.068Z" fill="black"/>
<path d="M72.6504 102.36C71.6605 100.28 69.5107 98.9666 67.2988 98.3138C65.6103 97.8256 63.7788 97.6665 62.1037 98.2032C61.1488 98.508 60.2776 99.0125 59.3847 99.4764C57.7151 100.321 55.8782 100.987 54.6239 102.373C54.3326 102.694 54.0628 103.11 54.1492 103.536C54.2139 103.854 54.462 104.097 54.6212 104.38C54.9799 105.011 54.8909 105.807 54.6455 106.495C54.4 107.183 54.0413 107.825 53.8686 108.531C53.696 109.238 53.7634 110.066 54.2867 110.571C54.5395 110.771 54.8024 110.958 55.0743 111.132C55.3602 111.38 55.6115 111.666 55.8215 111.981L57.3078 114.013C58.0068 114.914 58.6293 115.872 59.169 116.877C59.5412 117.614 59.8271 118.401 60.3207 119.059C60.8144 119.717 61.5885 120.246 62.4085 120.173C62.4719 120.175 62.5348 120.162 62.5921 120.135C62.6493 120.108 62.6992 120.067 62.7376 120.017C62.7698 119.953 62.7847 119.881 62.7807 119.809C62.8143 118.716 62.6787 117.624 62.3788 116.572C62.2132 116.086 62.0869 115.587 62.0012 115.081C61.9385 114.424 62.0728 113.763 62.387 113.183C62.7011 112.602 63.1809 112.129 63.7653 111.822C65.087 111.156 66.7594 111.437 68.0271 110.673C69.0117 110.077 69.5484 108.974 70.034 107.93C70.5734 106.789 70.862 105.802 71.9707 105.16C73.0793 104.518 73.198 103.452 72.6504 102.36Z" fill="#585268"/>
<path opacity="0.1" d="M68.6182 249.496C68.6182 249.496 69.9884 251.249 69.6378 252.242C69.2871 253.235 68.6182 249.496 68.6182 249.496Z" fill="black"/>
<path opacity="0.1" d="M87.2485 253.879C87.2485 253.879 87.5533 251.527 88.7806 251.505C90.0079 251.484 90.0673 251.379 91.0033 251.737C91.9393 252.096 92.8159 252.657 92.5381 252.744C92.2603 252.83 90.9197 251.395 89.571 252.126C88.7141 252.592 87.9314 253.183 87.2485 253.879Z" fill="black"/>
<path opacity="0.1" d="M64.5099 129.099L68.351 126.402C68.351 126.402 62.7108 123.068 62.0391 123.537C61.3675 124.006 60.9062 128.214 60.9062 128.214L64.5099 129.099Z" fill="black"/>
<path d="M64.4938 128.924L68.351 126.161C68.351 126.161 62.7108 122.83 62.0391 123.297C61.3675 123.764 60.9062 128.209 60.9062 128.209L64.4938 128.924Z" fill="#E1E7EF"/>
<path opacity="0.03" d="M64.4938 128.924L68.351 126.161C68.351 126.161 62.7108 122.83 62.0391 123.297C61.3675 123.764 60.9062 128.209 60.9062 128.209L64.4938 128.924Z" fill="black"/>
<path d="M62.6759 123.329L62.5599 123.27C62.3883 123.182 62.1951 123.147 62.0036 123.167C61.8121 123.187 61.6305 123.262 61.4809 123.383L49.9146 132.767C49.9146 132.767 47.4007 136.244 47.7567 142.246L54.5757 151.911C54.5757 151.911 55.3552 148.636 56.2912 149.259C56.2912 149.259 57.6156 166.015 56.2912 168.432C54.9668 170.849 54.3814 179.888 54.3814 179.888L58.8618 180.395C58.8618 180.395 59.3284 174.277 60.3804 172.095C61.4324 169.913 61.9988 162.414 61.9988 162.414C61.9988 162.414 62.9456 151.519 62.7891 146.84C62.6327 142.16 61.2705 132.112 61.2705 132.112C61.2705 132.112 61.6509 126.221 62.6759 123.329Z" fill="#67647E"/>
<path opacity="0.1" d="M74.1961 127.389L69.3921 125.609C69.3921 125.609 75.5124 118.908 76.2731 122.625L74.1961 127.389Z" fill="black"/>
<path d="M74.1961 127.149L69.3921 125.371C69.3921 125.371 75.5124 118.668 76.2731 122.385L74.1961 127.149Z" fill="#E1E7EF"/>
<path opacity="0.03" d="M74.1961 127.149L69.3921 125.371C69.3921 125.371 75.5124 118.668 76.2731 122.385L74.1961 127.149Z" fill="black"/>
<path opacity="0.1" d="M74.0425 121.455C74.1109 121.442 74.1814 121.457 74.2394 121.495L74.0425 121.455Z" fill="black"/>
<path d="M74.5088 120.985L87.262 123.737C87.262 123.737 90.7685 124.516 93.3014 133.32C95.8342 142.125 89.8325 152.917 89.8325 152.917L88.5081 151.792L89.1717 177.511C89.1717 177.511 83.286 179.731 81.4168 177.781C79.5475 175.831 79.739 166.722 79.739 166.722C79.739 166.722 77.9479 149.882 76.815 147.109C75.6821 144.336 76.2756 124.389 76.2756 124.389C76.2756 124.389 75.2209 120.831 74.5088 120.985Z" fill="#67647E"/>
<path opacity="0.1" d="M86.1699 137.374C85.9892 137.542 85.7815 145.324 86.561 151.247C87.0394 154.854 87.7777 158.422 88.7702 161.923L87.613 138.186C87.613 138.186 86.7148 136.859 86.1699 137.374Z" fill="black"/>
<path opacity="0.1" d="M84.6108 130.671C84.9237 130.866 86.2886 134.1 85.6628 135.427C85.037 136.754 84.6108 130.671 84.6108 130.671Z" fill="black"/>
<path opacity="0.1" d="M72.5749 102.36C71.9503 101.127 70.9753 100.106 69.7723 99.4251C70.6654 100.062 71.3873 100.91 71.8736 101.893C72.413 102.986 72.262 104.081 71.1911 104.701C70.1203 105.322 69.7858 106.32 69.2571 107.471C68.7716 108.515 68.2321 109.629 67.2476 110.212C65.9798 110.978 64.3101 110.697 62.9884 111.361C62.4039 111.668 61.924 112.142 61.6098 112.723C61.2956 113.304 61.1615 113.965 61.2243 114.622C61.3088 115.129 61.4351 115.628 61.602 116.114C61.9013 117.166 62.036 118.258 62.0012 119.351C62.0059 119.422 61.9919 119.494 61.9607 119.558C61.9224 119.609 61.8725 119.649 61.8152 119.677C61.758 119.704 61.695 119.717 61.6317 119.715C61.3015 119.741 60.9703 119.679 60.6714 119.537C60.8894 119.752 61.1493 119.921 61.4352 120.032C61.721 120.143 62.0266 120.194 62.333 120.181C62.3963 120.184 62.4593 120.17 62.5165 120.143C62.5738 120.116 62.6237 120.075 62.662 120.025C62.6931 119.96 62.7079 119.889 62.7052 119.817C62.7374 118.724 62.6019 117.632 62.3033 116.58C62.1364 116.094 62.0101 115.596 61.9257 115.089C61.863 114.432 61.9973 113.771 62.3114 113.191C62.6256 112.611 63.1054 112.137 63.6897 111.83C65.0115 111.164 66.6811 111.445 67.9489 110.681C68.9334 110.085 69.4729 108.982 69.9584 107.938C70.4979 106.797 70.7838 105.81 71.8924 105.168C73.0011 104.526 73.1197 103.452 72.5749 102.36Z" fill="black"/>
<path opacity="0.1" d="M138.14 250.686C142.481 250.686 146 250.202 146 249.607C146 249.011 142.481 248.528 138.14 248.528C133.799 248.528 130.28 249.011 130.28 249.607C130.28 250.202 133.799 250.686 138.14 250.686Z" fill="#22C88A"/>
<path d="M142.469 247.152C142.964 246.749 143.325 246.204 143.502 245.59C143.637 244.972 143.373 244.228 142.779 244.001C142.116 243.748 141.406 244.209 140.87 244.673C140.333 245.137 139.715 245.668 139.014 245.569C139.375 245.24 139.646 244.824 139.799 244.36C139.952 243.897 139.983 243.401 139.888 242.922C139.856 242.724 139.772 242.538 139.645 242.383C139.275 241.989 138.607 242.159 138.167 242.469C136.764 243.454 136.373 245.361 136.365 247.074C136.225 246.456 136.343 245.811 136.338 245.186C136.333 244.56 136.163 243.837 135.626 243.508C135.296 243.325 134.924 243.232 134.547 243.238C133.919 243.214 133.214 243.279 132.786 243.74C132.246 244.312 132.389 245.272 132.853 245.898C133.317 246.523 134.026 246.925 134.679 247.36C135.201 247.671 135.647 248.096 135.982 248.603C136.022 248.674 136.055 248.749 136.079 248.827H140.033C140.916 248.379 141.735 247.816 142.469 247.152Z" fill="#22C88A"/>
<defs>
<linearGradient id="paint0_linear" x1="48508.2" y1="136469" x2="48508.2" y2="43164.8" gradientUnits="userSpaceOnUse">
<stop stop-color="#808080" stop-opacity="0.25"/>
<stop offset="0.54" stop-color="#808080" stop-opacity="0.12"/>
<stop offset="1" stop-color="#808080" stop-opacity="0.1"/>
</linearGradient>
<linearGradient id="paint1_linear" x1="90.5825" y1="130.643" x2="90.5825" y2="130.634" gradientUnits="userSpaceOnUse">
<stop stop-color="#808080" stop-opacity="0.25"/>
<stop offset="0.54" stop-color="#808080" stop-opacity="0.12"/>
<stop offset="1" stop-color="#808080" stop-opacity="0.1"/>
</linearGradient>
<linearGradient id="paint2_linear" x1="12761.1" y1="139081" x2="12761.1" y2="40837.3" gradientUnits="userSpaceOnUse">
<stop stop-color="#808080" stop-opacity="0.25"/>
<stop offset="0.54" stop-color="#808080" stop-opacity="0.12"/>
<stop offset="1" stop-color="#808080" stop-opacity="0.1"/>
</linearGradient>
</defs>
</svg>
