<svg width="314" height="386" viewBox="0 0 314 386" fill="none" xmlns="http://www.w3.org/2000/svg">
<path opacity="0.1" d="M110.407 153.563C115.412 169.052 130.763 180.586 146.189 188.605C194.642 213.786 250.481 215.887 302.321 211.645C321.092 210.109 340.079 207.734 356.24 199.956C389.134 184.129 405.132 144.911 393.284 109.097C389.259 96.9151 382.46 85.4107 375.023 74.3857C361.8 54.7792 346.098 36.0695 326.39 21.8332C312.326 11.6867 296.561 4.03562 280.57 -2.61422C235.9 -21.1777 187.996 -32.5074 141.486 -31.1636C121.087 -30.5736 100.218 -27.218 85.2215 -15.7377C70.225 -4.25728 62.9595 17.1464 72.9752 34.9882C77.1169 42.364 83.6814 48.4394 90.1438 54.3202C99.6604 62.9777 109.369 71.7031 116.436 82.1125C123.731 92.8708 130.209 109.244 121.948 118.791C113.057 129.012 105.409 138.095 110.407 153.563Z" fill="#22C88A"/>
<g clip-path="url(#clip0)">
<g opacity="0.5">
<path opacity="0.5" d="M187.845 128.967L74.6279 129.242C74.0168 129.244 73.4119 129.365 72.8479 129.6C72.2839 129.835 71.7717 130.179 71.3407 130.612C70.9097 131.045 70.5683 131.558 70.336 132.123C70.1037 132.688 69.985 133.293 69.9868 133.904L70.501 345.49C70.5023 346.101 70.6241 346.705 70.8593 347.269C71.0945 347.832 71.4385 348.344 71.8717 348.775C72.305 349.206 72.8189 349.547 73.3841 349.779C73.9493 350.011 74.5548 350.13 75.1659 350.128L188.383 349.852C188.994 349.851 189.6 349.729 190.164 349.494C190.728 349.259 191.24 348.914 191.671 348.481C192.102 348.048 192.444 347.534 192.676 346.969C192.908 346.404 193.026 345.798 193.024 345.188L192.51 133.601C192.508 132.99 192.386 132.386 192.151 131.823C191.915 131.26 191.571 130.749 191.138 130.318C190.705 129.888 190.191 129.547 189.626 129.315C189.061 129.083 188.456 128.965 187.845 128.967Z" fill="url(#paint0_linear)"/>
</g>
<path d="M186.205 131.856L76.2812 132.124C73.7161 132.13 71.6418 134.213 71.6481 136.776L72.1512 342.503C72.1574 345.066 74.2419 347.139 76.8069 347.133L186.731 346.864C189.296 346.858 191.37 344.775 191.364 342.212L190.861 136.485C190.855 133.922 188.77 131.849 186.205 131.856Z" fill="#EEEEEE"/>
<path d="M161.204 137.306C160.865 139.586 159.721 141.671 157.978 143.181C156.235 144.692 154.008 145.53 151.701 145.543L110.524 145.642C108.218 145.637 105.99 144.81 104.242 143.308C102.493 141.806 101.34 139.729 100.99 137.452L79.1806 137.507C78.5859 137.508 77.9972 137.626 77.4483 137.855C76.8994 138.084 76.4009 138.418 75.9813 138.839C75.5617 139.26 75.2293 139.76 75.0029 140.309C74.7766 140.859 74.6608 141.448 74.6621 142.042L75.1354 337.223C75.1368 337.817 75.2553 338.406 75.4844 338.954C75.7134 339.503 76.0484 340.001 76.4703 340.421C76.8921 340.84 77.3925 341.172 77.9428 341.398C78.4932 341.624 79.0827 341.739 79.6777 341.738L183.872 341.486C184.466 341.484 185.055 341.366 185.604 341.137C186.153 340.909 186.651 340.574 187.071 340.153C187.49 339.732 187.823 339.232 188.049 338.683C188.276 338.133 188.391 337.545 188.39 336.951L187.917 141.77C187.915 141.175 187.797 140.587 187.568 140.039C187.339 139.49 187.005 138.992 186.583 138.573C186.162 138.154 185.662 137.822 185.112 137.595C184.562 137.369 183.973 137.254 183.378 137.255L161.204 137.306Z" fill="#96E3CD"/>
<path d="M142.774 139.78L117.573 140.158C117.197 140.163 116.897 140.472 116.902 140.848L116.907 141.148C116.912 141.523 117.222 141.823 117.598 141.818L142.799 141.44C143.175 141.434 143.475 141.125 143.47 140.749L143.465 140.45C143.46 140.074 143.15 139.774 142.774 139.78Z" fill="#DBDBDB"/>
<path d="M149.12 141.342C149.671 141.333 150.111 140.88 150.103 140.33C150.095 139.779 149.641 139.34 149.09 139.348C148.539 139.356 148.099 139.809 148.108 140.36C148.116 140.91 148.569 141.35 149.12 141.342Z" fill="#DBDBDB"/>
<g opacity="0.5">
<path opacity="0.5" d="M145.418 285.691C145.421 279.884 143.918 274.176 141.057 269.122C138.196 264.067 134.074 259.839 129.092 256.849C124.11 253.859 118.438 252.208 112.629 252.058C106.819 251.909 101.07 253.264 95.9404 255.993C90.8108 258.722 86.4758 262.732 83.3574 267.632C80.2389 272.532 78.4433 278.156 78.1454 283.955C77.8474 289.754 79.0572 295.531 81.657 300.725C84.2569 305.918 88.1581 310.35 92.981 313.59L93.0015 313.74C94.1009 314.793 95.3982 315.617 96.8185 316.166L96.8628 316.016C98.4393 317.377 105.076 319.531 112.7 319.51H112.866C117.695 319.51 122.938 318.66 127.549 316.166C127.549 316.166 127.59 316.077 127.651 315.911C128.819 315.362 129.89 314.629 130.825 313.74C130.843 313.611 130.861 313.484 130.879 313.359C135.365 310.269 139.032 306.137 141.564 301.317C144.097 296.497 145.42 291.135 145.418 285.691Z" fill="url(#paint1_linear)"/>
</g>
<path d="M111.756 318.319C129.789 318.319 144.407 303.713 144.407 285.695C144.407 267.676 129.789 253.07 111.756 253.07C93.7237 253.07 79.1055 267.676 79.1055 285.695C79.1055 303.713 93.7237 318.319 111.756 318.319Z" fill="#F5F5F5"/>
<path d="M99.2839 299.11C99.2839 299.11 91.5034 299.746 93.5635 313.907C94.6288 314.931 95.8869 315.733 97.2647 316.268L101.64 301.471L99.2839 299.11Z" fill="#FDA57D"/>
<path d="M124.529 299.11C124.529 299.11 132.309 299.746 130.249 313.907C129.184 314.931 127.926 315.733 126.548 316.268L122.172 301.464L124.529 299.11Z" fill="#FDA57D"/>
<path d="M99.6208 275.903C99.6208 275.903 95.9196 286.668 93.9004 285.647C93.9004 285.647 113.384 302.465 130.59 285.647C130.59 285.647 127.559 280.265 123.184 275.893L99.6208 275.903Z" fill="#333333"/>
<path d="M112.11 289.355C120.104 289.355 126.585 282.88 126.585 274.892C126.585 266.904 120.104 260.429 112.11 260.429C104.116 260.429 97.6353 266.904 97.6353 274.892C97.6353 282.88 104.116 289.355 112.11 289.355Z" fill="#333333"/>
<path opacity="0.1" d="M124.379 299.11H99.1373L96.7811 309.201C96.7811 309.201 95.3986 313.873 97.1216 315.928C98.8445 317.983 114.923 322.654 126.745 316.268C127.776 313.578 127.896 310.625 127.086 307.861C125.724 303.152 126.745 307.52 126.745 307.52L124.379 299.11Z" fill="black"/>
<path opacity="0.1" d="M124.716 299.11H99.4708L97.1146 309.201C97.1146 309.201 95.7321 313.873 97.4551 315.928C99.178 317.983 115.257 322.654 127.079 316.268C128.11 313.578 128.23 310.625 127.419 307.861C126.057 303.152 127.079 307.52 127.079 307.52L124.716 299.11Z" fill="black"/>
<path d="M124.529 299.11H99.2838L96.9276 309.201C96.9276 309.201 95.5451 313.873 97.2681 315.928C98.991 317.983 115.07 322.654 126.892 316.268C127.923 313.578 128.043 310.625 127.232 307.861C125.87 303.152 126.892 307.52 126.892 307.52L124.529 299.11Z" fill="#22C88A"/>
<path opacity="0.1" d="M107.027 290.737H117.133V300.501C117.133 300.942 117.046 301.377 116.878 301.784C116.709 302.191 116.462 302.56 116.151 302.871C115.839 303.182 115.469 303.429 115.063 303.598C114.656 303.766 114.219 303.853 113.779 303.853H110.374C109.484 303.853 108.631 303.5 108.002 302.871C107.373 302.243 107.02 301.39 107.02 300.501V290.737H107.027Z" fill="black"/>
<path d="M107.027 290.366H117.133V300.131C117.133 300.571 117.046 301.007 116.878 301.413C116.709 301.82 116.462 302.189 116.151 302.5C115.839 302.812 115.469 303.058 115.063 303.227C114.656 303.395 114.219 303.482 113.779 303.482H110.374C109.484 303.482 108.631 303.129 108.002 302.5C107.373 301.872 107.02 301.019 107.02 300.131V290.366H107.027Z" fill="#FDA57D"/>
<path opacity="0.1" d="M107.047 291.819C110.302 293.034 113.885 293.044 117.147 291.846V290.608H107.047V291.819Z" fill="black"/>
<path d="M112.11 292.496C120.104 292.496 126.585 286.02 126.585 278.033C126.585 270.045 120.104 263.569 112.11 263.569C104.116 263.569 97.6353 270.045 97.6353 278.033C97.6353 286.02 104.116 292.496 112.11 292.496Z" fill="#FDA57D"/>
<path d="M98.2759 272.538H125.877C125.877 272.538 123.521 261.402 113.088 262.113C102.655 262.824 98.2759 272.538 98.2759 272.538Z" fill="#333333"/>
<path d="M97.9387 279.938C98.6816 279.938 99.2837 278.809 99.2837 277.417C99.2837 276.024 98.6816 274.896 97.9387 274.896C97.1959 274.896 96.5938 276.024 96.5938 277.417C96.5938 278.809 97.1959 279.938 97.9387 279.938Z" fill="#FDA57D"/>
<path d="M126.211 279.938C126.954 279.938 127.556 278.809 127.556 277.417C127.556 276.024 126.954 274.896 126.211 274.896C125.468 274.896 124.866 276.024 124.866 277.417C124.866 278.809 125.468 279.938 126.211 279.938Z" fill="#FDA57D"/>
<path opacity="0.1" d="M98.2759 272.912H125.877C125.877 272.912 123.521 261.776 113.088 262.487C102.655 263.198 98.2759 272.912 98.2759 272.912Z" fill="black"/>
<g opacity="0.5">
<path opacity="0.5" d="M118.134 196.966C118.132 191.159 119.634 185.45 122.495 180.396C125.357 175.342 129.479 171.113 134.46 168.123C139.442 165.133 145.114 163.483 150.923 163.333C156.733 163.183 162.482 164.538 167.612 167.268C172.741 169.997 177.076 174.007 180.195 178.907C183.313 183.807 185.109 189.43 185.407 195.229C185.705 201.028 184.495 206.806 181.895 211.999C179.295 217.193 175.394 221.625 170.571 224.865L170.551 225.014C169.454 226.077 168.156 226.911 166.734 227.467L166.69 227.318C165.113 228.679 158.477 230.832 150.853 230.812H150.686C145.858 230.812 140.614 229.961 136.003 227.467C136.003 227.467 135.963 227.379 135.901 227.212C134.733 226.664 133.662 225.931 132.728 225.041C132.71 224.912 132.691 224.785 132.673 224.66C128.184 221.568 124.515 217.431 121.982 212.607C119.449 207.782 118.128 202.414 118.134 196.966Z" fill="url(#paint2_linear)"/>
</g>
<path d="M151.793 229.594C169.825 229.594 184.444 214.987 184.444 196.969C184.444 178.951 169.825 164.344 151.793 164.344C133.76 164.344 119.142 178.951 119.142 196.969C119.142 214.987 133.76 229.594 151.793 229.594Z" fill="#F5F5F5"/>
<path d="M138.993 209.394C138.993 209.394 131.213 210.03 133.273 224.191C134.339 225.212 135.597 226.013 136.974 226.545L141.35 211.749L138.993 209.394Z" fill="#BE7C5E"/>
<path d="M164.235 209.394C164.235 209.394 172.015 210.03 169.955 224.191C168.889 225.212 167.631 226.013 166.254 226.545L161.878 211.749L164.235 209.394Z" fill="#BE7C5E"/>
<path d="M139.327 186.187C139.327 186.187 138.727 187.929 137.879 189.93C136.027 194.353 138.142 211.265 142.572 213.065C147.543 215.107 154.081 216.386 160.874 213.912C166.774 211.762 168.596 192.478 164.422 187.8C163.931 187.249 163.421 186.701 162.886 186.17L139.327 186.187Z" fill="#333333"/>
<path d="M151.817 199.643C159.811 199.643 166.291 193.168 166.291 185.18C166.291 177.192 159.811 170.717 151.817 170.717C143.822 170.717 137.342 177.192 137.342 185.18C137.342 193.168 143.822 199.643 151.817 199.643Z" fill="#333333"/>
<path opacity="0.1" d="M164.088 209.394H138.843L136.487 219.486C136.487 219.486 135.105 224.157 136.828 226.212C138.551 228.267 154.629 232.938 166.451 226.552C167.483 223.862 167.602 220.909 166.792 218.145C165.43 213.436 166.451 217.805 166.451 217.805L164.088 209.394Z" fill="black"/>
<path opacity="0.1" d="M164.422 209.394H139.177L136.821 219.486C136.821 219.486 135.438 224.157 137.161 226.212C138.884 228.267 154.963 232.938 166.785 226.552C167.816 223.862 167.936 220.909 167.125 218.145C165.763 213.436 166.785 217.805 166.785 217.805L164.422 209.394Z" fill="black"/>
<path d="M164.235 209.394H138.993L136.637 219.486C136.637 219.486 135.255 224.157 136.978 226.212C138.7 228.267 154.779 232.938 166.601 226.552C167.632 223.862 167.752 220.909 166.942 218.145C165.58 213.436 166.601 217.805 166.601 217.805L164.235 209.394Z" fill="#F55F44"/>
<path opacity="0.1" d="M146.733 201.025H156.832V210.789C156.832 211.678 156.479 212.53 155.85 213.159C155.221 213.787 154.368 214.14 153.478 214.14H150.073C149.184 214.14 148.331 213.787 147.702 213.159C147.073 212.53 146.719 211.678 146.719 210.789V201.025H146.733Z" fill="black"/>
<path d="M146.733 200.65H156.832V210.415C156.832 211.304 156.479 212.156 155.85 212.785C155.221 213.413 154.368 213.766 153.478 213.766H150.073C149.184 213.766 148.331 213.413 147.702 212.785C147.073 212.156 146.719 211.304 146.719 210.415V200.65H146.733Z" fill="#BE7C5E"/>
<path opacity="0.1" d="M146.757 202.103C150.012 203.318 153.595 203.328 156.856 202.13V200.892H146.757V202.103Z" fill="black"/>
<path d="M151.817 202.78C159.811 202.78 166.291 196.305 166.291 188.317C166.291 180.329 159.811 173.854 151.817 173.854C143.822 173.854 137.342 180.329 137.342 188.317C137.342 196.305 143.822 202.78 151.817 202.78Z" fill="#BE7C5E"/>
<path d="M137.982 182.826H165.583C165.583 182.826 163.227 171.69 152.794 172.401C142.361 173.112 137.982 182.826 137.982 182.826Z" fill="#333333"/>
<path d="M137.645 190.222C138.388 190.222 138.99 189.093 138.99 187.701C138.99 186.309 138.388 185.18 137.645 185.18C136.902 185.18 136.3 186.309 136.3 187.701C136.3 189.093 136.902 190.222 137.645 190.222Z" fill="#BE7C5E"/>
<path d="M165.917 190.222C166.66 190.222 167.262 189.093 167.262 187.701C167.262 186.309 166.66 185.18 165.917 185.18C165.174 185.18 164.572 186.309 164.572 187.701C164.572 189.093 165.174 190.222 165.917 190.222Z" fill="#BE7C5E"/>
<path opacity="0.1" d="M137.982 183.2H165.583C165.583 183.2 163.227 172.064 152.794 172.775C142.361 173.486 137.982 183.2 137.982 183.2Z" fill="black"/>
<g opacity="0.5">
<path opacity="0.5" d="M1.70264 167.794V216.352H78.2681C78.2681 216.352 83.9204 227.467 93.6384 230.7C93.6384 230.7 90.5364 222.827 93.7746 216.352H115.09V167.794H1.70264Z" fill="url(#paint3_linear)"/>
</g>
<path d="M4.76709 169.458V215.389H81.3802C81.3802 215.389 81.3802 224.575 90.5738 227.637C90.5738 227.637 87.5092 221.513 90.5738 215.389H112.025V169.458H4.76709Z" fill="#EEEEEE"/>
<path d="M75.2514 178.644H13.9609V184.768H75.2514V178.644Z" fill="#22C88A"/>
<path d="M96.7031 187.83H13.9609V193.954H96.7031V187.83Z" fill="#22C88A"/>
<path d="M87.5095 197.017H13.9609V203.141H87.5095V197.017Z" fill="#22C88A"/>
<g opacity="0.5">
<path opacity="0.5" d="M262.187 261.358V309.916H185.625C185.625 309.916 179.973 321.031 170.251 324.263C170.251 324.263 173.353 316.39 170.115 309.916H148.8V261.358H262.187Z" fill="url(#paint4_linear)"/>
</g>
<path d="M259.123 263.022V308.953H182.51C182.51 308.953 182.51 318.139 173.316 321.201C173.316 321.201 176.38 315.077 173.316 308.953H151.864V263.022H259.123Z" fill="white"/>
<path d="M225.753 272.208H164.462V278.332H225.753V272.208Z" fill="#22C88A"/>
<path d="M247.205 281.394H164.462V287.518H247.205V281.394Z" fill="#22C88A"/>
<path d="M238.011 290.58H164.462V296.705H238.011V290.58Z" fill="#22C88A"/>
<g opacity="0.5">
<path opacity="0.5" d="M29.624 356.926H28.6025V362.709H29.624V356.926Z" fill="#47E6B1"/>
<path opacity="0.5" d="M32.0073 360.328V359.307H26.2188V360.328H32.0073Z" fill="#47E6B1"/>
</g>
<g opacity="0.5">
<path opacity="0.5" d="M216.56 179.325H215.538V185.108H216.56V179.325Z" fill="#47E6B1"/>
<path opacity="0.5" d="M218.943 182.727V181.706H213.154V182.727H218.943Z" fill="#47E6B1"/>
</g>
<g opacity="0.5">
<path opacity="0.5" d="M238.352 322.222H237.33V328.006H238.352V322.222Z" fill="#47E6B1"/>
<path opacity="0.5" d="M240.735 325.624V324.604H234.946V325.624H240.735Z" fill="#47E6B1"/>
</g>
<g opacity="0.5">
<path opacity="0.5" d="M173.997 114H172.975V119.784H173.997V114Z" fill="#47E6B1"/>
<path opacity="0.5" d="M176.38 117.402V116.382H170.592V117.402H176.38Z" fill="#47E6B1"/>
</g>
<path opacity="0.5" d="M88.0881 356.351C87.8094 356.225 87.5862 356.003 87.4607 355.724C87.3353 355.446 87.3162 355.131 87.4071 354.84C87.4217 354.795 87.4308 354.748 87.4343 354.7C87.443 354.566 87.408 354.432 87.3343 354.319C87.2607 354.206 87.1525 354.119 87.0258 354.073C86.8991 354.026 86.7607 354.022 86.6312 354.06C86.5017 354.098 86.3881 354.177 86.3073 354.285C86.2799 354.323 86.257 354.364 86.2392 354.408C86.114 354.686 85.8911 354.909 85.6125 355.035C85.3339 355.16 85.019 355.179 84.7273 355.088C84.682 355.074 84.6352 355.065 84.5877 355.061C84.453 355.052 84.319 355.087 84.2058 355.161C84.0926 355.235 84.0063 355.343 83.9596 355.469C83.9129 355.596 83.9083 355.734 83.9467 355.864C83.985 355.993 84.0642 356.106 84.1723 356.187C84.2104 356.215 84.2515 356.237 84.2949 356.255C84.5736 356.38 84.7968 356.603 84.9223 356.881C85.0478 357.16 85.0668 357.474 84.9759 357.766C84.9614 357.811 84.9522 357.858 84.9487 357.905C84.94 358.04 84.9751 358.174 85.0487 358.287C85.1223 358.4 85.2305 358.486 85.3572 358.533C85.4839 358.58 85.6223 358.584 85.7518 358.546C85.8813 358.508 85.9949 358.429 86.0757 358.32C86.1031 358.282 86.126 358.241 86.1438 358.198C86.269 357.92 86.492 357.697 86.7705 357.571C87.0491 357.446 87.364 357.427 87.6557 357.518C87.701 357.532 87.7478 357.541 87.7953 357.545C87.93 357.553 88.064 357.518 88.1772 357.445C88.2904 357.371 88.3768 357.263 88.4235 357.137C88.4702 357.01 88.4747 356.872 88.4363 356.742C88.398 356.613 88.3188 356.499 88.2107 356.419C88.1726 356.391 88.1315 356.368 88.0881 356.351Z" fill="#4D8AF0"/>
<path opacity="0.5" d="M19.7151 248.378C19.4364 248.253 19.2132 248.03 19.0877 247.752C18.9622 247.473 18.9431 247.159 19.0341 246.867C19.0486 246.822 19.0578 246.775 19.0613 246.728C19.07 246.593 19.0349 246.459 18.9613 246.346C18.8877 246.233 18.7795 246.147 18.6528 246.1C18.526 246.054 18.3877 246.049 18.2582 246.087C18.1287 246.126 18.0151 246.205 17.9342 246.313C17.9069 246.351 17.884 246.392 17.8661 246.435C17.741 246.714 17.518 246.937 17.2394 247.062C16.9609 247.188 16.646 247.207 16.3543 247.116C16.309 247.101 16.2621 247.092 16.2147 247.089C16.0799 247.08 15.946 247.115 15.8328 247.188C15.7196 247.262 15.6332 247.37 15.5865 247.497C15.5398 247.623 15.5353 247.762 15.5736 247.891C15.612 248.02 15.6911 248.134 15.7993 248.215C15.8374 248.242 15.8785 248.265 15.9219 248.283C16.2006 248.408 16.4238 248.631 16.5492 248.909C16.6747 249.187 16.6938 249.502 16.6029 249.793C16.5883 249.839 16.5792 249.885 16.5756 249.933C16.5614 250.07 16.5928 250.208 16.665 250.325C16.7372 250.443 16.8461 250.533 16.975 250.582C17.1038 250.632 17.2453 250.637 17.3774 250.598C17.5096 250.558 17.6252 250.477 17.7061 250.365C17.7335 250.327 17.7564 250.286 17.7742 250.242C17.8994 249.964 18.1223 249.741 18.4009 249.616C18.6795 249.49 18.9944 249.471 19.286 249.562C19.3313 249.577 19.3782 249.586 19.4256 249.589C19.5604 249.598 19.6943 249.563 19.8075 249.489C19.9207 249.416 20.0071 249.308 20.0538 249.181C20.1005 249.054 20.105 248.916 20.0667 248.787C20.0284 248.657 19.9492 248.544 19.841 248.463C19.8028 248.429 19.7605 248.401 19.7151 248.378Z" fill="#4D8AF0"/>
<path opacity="0.5" d="M56.8298 277.978C56.5511 277.853 56.3279 277.63 56.2024 277.352C56.077 277.074 56.0579 276.759 56.1488 276.468C56.1634 276.422 56.1725 276.375 56.1761 276.328C56.1847 276.193 56.1497 276.06 56.076 275.946C56.0024 275.833 55.8942 275.747 55.7675 275.7C55.6408 275.654 55.5024 275.649 55.3729 275.687C55.2435 275.726 55.1298 275.805 55.049 275.913C55.0216 275.951 54.9987 275.992 54.9809 276.035C54.8557 276.314 54.6328 276.537 54.3542 276.662C54.0756 276.788 53.7607 276.807 53.4691 276.716C53.4238 276.701 53.3769 276.692 53.3294 276.689C53.1947 276.68 53.0607 276.715 52.9475 276.789C52.8343 276.862 52.748 276.97 52.7013 277.097C52.6546 277.224 52.65 277.362 52.6884 277.491C52.7267 277.621 52.8059 277.734 52.914 277.815C52.9521 277.842 52.9932 277.865 53.0366 277.883C53.3153 278.008 53.5385 278.231 53.664 278.509C53.7895 278.787 53.8085 279.102 53.7176 279.394C53.7031 279.439 53.6939 279.486 53.6904 279.533C53.6761 279.67 53.7075 279.808 53.7797 279.925C53.8519 280.043 53.9609 280.133 54.0897 280.182C54.2185 280.232 54.36 280.237 54.4922 280.198C54.6244 280.158 54.7399 280.077 54.8208 279.965C54.8482 279.927 54.8711 279.886 54.889 279.843C55.0141 279.564 55.2371 279.341 55.5156 279.216C55.7942 279.09 56.1091 279.071 56.4008 279.162C56.4461 279.177 56.4929 279.186 56.5404 279.189C56.6751 279.198 56.8091 279.163 56.9223 279.089C57.0355 279.016 57.1219 278.908 57.1686 278.781C57.2153 278.655 57.2198 278.516 57.1814 278.387C57.1431 278.258 57.064 278.144 56.9558 278.063C56.9176 278.03 56.8752 278.001 56.8298 277.978Z" fill="#4D8AF0"/>
<path opacity="0.5" d="M268.622 358.273C268.344 358.148 268.12 357.925 267.995 357.647C267.869 357.368 267.85 357.054 267.941 356.762C267.956 356.717 267.965 356.67 267.969 356.623C267.977 356.488 267.942 356.354 267.869 356.241C267.795 356.128 267.687 356.042 267.56 355.995C267.433 355.948 267.295 355.944 267.165 355.982C267.036 356.02 266.922 356.1 266.841 356.208C266.814 356.246 266.791 356.287 266.773 356.33C266.648 356.609 266.425 356.832 266.147 356.957C265.868 357.082 265.553 357.101 265.262 357.011C265.216 356.996 265.169 356.987 265.122 356.983C264.987 356.975 264.853 357.01 264.74 357.083C264.627 357.157 264.54 357.265 264.494 357.392C264.447 357.518 264.443 357.656 264.481 357.786C264.519 357.915 264.598 358.029 264.707 358.11C264.745 358.137 264.786 358.16 264.829 358.178C265.108 358.303 265.331 358.525 265.456 358.804C265.582 359.082 265.601 359.397 265.51 359.688C265.496 359.733 265.486 359.78 265.483 359.828C265.469 359.965 265.5 360.103 265.572 360.22C265.644 360.338 265.753 360.428 265.882 360.477C266.011 360.526 266.152 360.532 266.285 360.492C266.417 360.453 266.532 360.371 266.613 360.26C266.641 360.222 266.664 360.181 266.681 360.137C266.807 359.859 267.03 359.636 267.308 359.51C267.587 359.385 267.902 359.366 268.193 359.457C268.239 359.471 268.285 359.481 268.333 359.484C268.468 359.493 268.602 359.458 268.715 359.384C268.828 359.311 268.914 359.202 268.961 359.076C269.008 358.949 269.012 358.811 268.974 358.682C268.936 358.552 268.856 358.439 268.748 358.358C268.71 358.324 268.668 358.296 268.622 358.273Z" fill="#4D8AF0"/>
<path opacity="0.5" d="M2.04302 340.254C3.17134 340.254 4.08603 339.34 4.08603 338.213C4.08603 337.085 3.17134 336.171 2.04302 336.171C0.91469 336.171 0 337.085 0 338.213C0 339.34 0.91469 340.254 2.04302 340.254Z" fill="#F55F44"/>
<path opacity="0.5" d="M232.564 137.816C233.692 137.816 234.607 136.902 234.607 135.775C234.607 134.647 233.692 133.733 232.564 133.733C231.435 133.733 230.521 134.647 230.521 135.775C230.521 136.902 231.435 137.816 232.564 137.816Z" fill="#4D8AF0"/>
<path opacity="0.5" d="M35.4122 141.899C36.5405 141.899 37.4552 140.985 37.4552 139.858C37.4552 138.73 36.5405 137.816 35.4122 137.816C34.2838 137.816 33.3691 138.73 33.3691 139.858C33.3691 140.985 34.2838 141.899 35.4122 141.899Z" fill="#47E6B1"/>
<path opacity="0.5" d="M234.606 233.762C235.735 233.762 236.65 232.848 236.65 231.72C236.65 230.593 235.735 229.679 234.606 229.679C233.478 229.679 232.563 230.593 232.563 231.72C232.563 232.848 233.478 233.762 234.606 233.762Z" fill="#F55F44"/>
</g>
<defs>
<linearGradient id="paint0_linear" x1="83.3434" y1="353.959" x2="179.541" y2="125.073" gradientUnits="userSpaceOnUse">
<stop stop-color="#808080" stop-opacity="0.25"/>
<stop offset="0.54" stop-color="#808080" stop-opacity="0.12"/>
<stop offset="1" stop-color="#808080" stop-opacity="0.1"/>
</linearGradient>
<linearGradient id="paint1_linear" x1="35972.4" y1="46705.8" x2="35972.4" y2="33327.9" gradientUnits="userSpaceOnUse">
<stop stop-color="#808080" stop-opacity="0.25"/>
<stop offset="0.54" stop-color="#808080" stop-opacity="0.12"/>
<stop offset="1" stop-color="#808080" stop-opacity="0.1"/>
</linearGradient>
<linearGradient id="paint2_linear" x1="40336.9" y1="29035.7" x2="40336.9" y2="15652.4" gradientUnits="userSpaceOnUse">
<stop stop-color="#808080" stop-opacity="0.25"/>
<stop offset="0.54" stop-color="#808080" stop-opacity="0.12"/>
<stop offset="1" stop-color="#808080" stop-opacity="0.1"/>
</linearGradient>
<linearGradient id="paint3_linear" x1="42692.1" y1="27059.9" x2="42692.1" y2="15429.3" gradientUnits="userSpaceOnUse">
<stop stop-color="#808080" stop-opacity="0.25"/>
<stop offset="0.54" stop-color="#808080" stop-opacity="0.12"/>
<stop offset="1" stop-color="#808080" stop-opacity="0.1"/>
</linearGradient>
<linearGradient id="paint4_linear" x1="-374594" y1="44452.4" x2="-374594" y2="32821.9" gradientUnits="userSpaceOnUse">
<stop stop-color="#808080" stop-opacity="0.25"/>
<stop offset="0.54" stop-color="#808080" stop-opacity="0.12"/>
<stop offset="1" stop-color="#808080" stop-opacity="0.1"/>
</linearGradient>
<clipPath id="clip0">
<rect width="269" height="272" fill="white" transform="translate(0 114)"/>
</clipPath>
</defs>
</svg>
