<svg width="298" height="383" viewBox="0 0 298 383" fill="none" xmlns="http://www.w3.org/2000/svg">
<path opacity="0.1" d="M94.407 153.563C99.4124 169.052 114.763 180.586 130.189 188.605C178.642 213.786 234.481 215.887 286.321 211.645C305.092 210.109 324.079 207.734 340.24 199.956C373.134 184.129 389.132 144.911 377.284 109.097C373.259 96.9151 366.46 85.4107 359.023 74.3857C345.8 54.7792 330.098 36.0695 310.39 21.8332C296.326 11.6867 280.561 4.03562 264.57 -2.61422C219.9 -21.1777 171.996 -32.5074 125.486 -31.1636C105.087 -30.5736 84.2179 -27.218 69.2215 -15.7377C54.225 -4.25728 46.9595 17.1464 56.9752 34.9882C61.1169 42.364 67.6814 48.4394 74.1438 54.3202C83.6604 62.9777 93.3687 71.7031 100.436 82.1125C107.731 92.8708 114.209 109.244 105.948 118.791C97.0567 129.012 89.4089 138.095 94.407 153.563Z" fill="#22C88A"/>
<path d="M209.046 247.791L60.5813 271.411V322.023L209.046 319.706V247.791Z" fill="url(#paint0_linear)"/>
<path d="M62.3489 271.732L206.395 248.674V316.748L62.3489 321.14V271.732Z" fill="#22C88A"/>
<path d="M207.279 182.395L104.767 210.57V239.837L207.279 218.613V182.395Z" fill="url(#paint1_linear)"/>
<path d="M204.628 183.279L107.419 210.674V238.07L204.628 216.154V183.279Z" fill="white"/>
<path d="M123.326 220.567C123.326 224.706 121.117 228.552 118.418 229.152C115.719 229.752 113.605 226.942 113.605 222.872C113.605 218.802 115.747 214.978 118.418 214.309C121.089 213.639 123.326 216.427 123.326 220.567Z" stroke="#DBDBDB" stroke-width="2" stroke-miterlimit="10"/>
<path d="M193.14 202.086L131.279 217.744V214.402L193.14 198.302V202.086Z" fill="#DBDBDB"/>
<path d="M193.14 209.154L131.279 224.814V221.471L193.14 205.372V209.154Z" fill="#DBDBDB"/>
<path d="M91.5117 294.295C91.5117 286.603 87.8474 280.839 83.4122 281.411C79.0656 281.975 75.6047 288.432 75.6047 295.846C75.6047 303.26 79.0656 309.042 83.4122 308.757C87.8638 308.466 91.5117 301.99 91.5117 294.295Z" fill="white"/>
<path d="M187.837 280.321L102.116 289.326V284.281L187.837 274.302V280.321Z" fill="url(#paint2_linear)"/>
<path d="M187.837 293.577L102.116 302.581V297.537L187.837 287.558V293.577Z" fill="url(#paint3_linear)"/>
<path d="M205.256 345.264L103.884 344.116V373.868L206.395 383L205.256 345.264Z" fill="url(#paint4_linear)"/>
<path d="M204.628 346.996L107.419 345.884V372.568L204.628 380.349V346.996Z" fill="white"/>
<path d="M124.209 360.701C124.209 364.89 122.201 368.143 119.746 367.97C117.292 367.797 115.372 364.339 115.372 360.227C115.372 356.116 117.32 352.863 119.75 352.955C122.179 353.048 124.209 356.513 124.209 360.701Z" stroke="#DBDBDB" stroke-width="2" stroke-miterlimit="10"/>
<path d="M193.139 361.791L133.046 359.024V355.605L193.139 357.937V361.791Z" fill="#DBDBDB"/>
<path d="M193.139 368.86L133.046 366.094V362.674L193.139 365.007V368.86Z" fill="#DBDBDB"/>
<path d="M207.279 117L105.651 156.443V185.93L207.279 153.106V117Z" fill="url(#paint5_linear)"/>
<path d="M206.395 118.767L107.419 158.129V183.279L206.395 151.57V118.767Z" fill="white"/>
<path d="M127.744 162.581C127.744 166.666 125.736 170.707 123.283 171.609C120.829 172.51 118.907 169.975 118.907 165.975C118.907 161.974 120.855 157.952 123.283 156.978C125.711 156.004 127.744 158.496 127.744 162.581Z" stroke="#DBDBDB" stroke-width="2" stroke-miterlimit="10"/>
<path d="M195.791 136.369L135.698 158.535V154.675L195.791 132.023V136.369Z" fill="#DBDBDB"/>
<path d="M195.791 146.091L135.698 168.256V164.398L195.791 141.744V146.091Z" fill="#DBDBDB"/>
<path d="M66.4977 372.433L63.4369 370.423L58.5333 352.523L59.5244 351.49C59.5244 351.49 59.5244 345.716 58.1285 341.906C58.9933 341.378 59.5341 341.019 59.5341 341.019C56.5479 338.401 56.5479 328.804 56.5479 328.804C56.5479 328.804 55.2816 321.413 52.752 314.569L57.5423 315.714L64.5122 300.88V297.384L67.4985 295.64C67.4985 295.64 63.5147 290.402 59.5309 295.64C59.5309 295.64 60.5252 299.129 59.5309 300.877C58.5366 302.624 55.5471 308.729 55.5471 308.729H53.0111L53.5553 306.111H48.3504C48.0978 305.799 47.8419 305.508 47.5796 305.237L51.5634 297.384L49.6978 296.158L56.5447 288.667L57.539 272.959C61.4969 271.804 62.3973 268.349 62.5528 266.149C62.624 265.144 61.5422 264.379 60.4281 264.629C51.8322 266.561 53.5585 270.341 53.5585 270.341L50.5658 285.153L46.4492 290.836C45.9505 288.237 44.0007 286.077 41.3481 285.009L43.5958 282.547C43.5958 282.547 38.5141 281.358 33.685 282.968C24.762 285.939 24.7814 297.325 33.685 300.312C34.9417 300.757 36.2801 300.948 37.6169 300.874V300C37.7432 300 37.8663 300 37.9894 299.984C37.8372 300.796 37.6947 301.713 37.6202 302.618C35.6283 302.618 35.6283 312.218 38.6145 313.963L37.6202 323.563V328.801C39.612 333.17 43.5958 333.17 43.5958 333.17L46.5788 345.389C47.5245 345.804 48.7553 345.773 50.0767 345.486L50.5593 348.878C50.5593 348.878 41.5975 354.986 41.5975 363.712L41.2736 364.283L40.6031 363.712L34.6275 368.082L42.595 376.821H50.5626C52.5544 372.451 44.5869 371.584 44.5869 371.584L44.548 367.099L52.6225 358.697C53.9925 362.208 56.4346 368.044 58.4524 370.557L57.5423 370.716V377.698H74.4652C79.4433 371.559 66.4977 372.433 66.4977 372.433Z" fill="url(#paint6_linear)"/>
<path d="M40.1703 297.916C40.1703 297.916 38.3743 305.864 40.1703 307L45.5581 303.587L41.9662 296.395L40.1703 297.916Z" fill="#F6B9AD"/>
<path d="M61.4651 368.049L56.6001 347.651L51.7441 354.176C51.7441 354.176 55.7993 367.231 58.2318 368.86L61.4651 368.049Z" fill="#B98B82"/>
<path d="M65.0001 296.831C65.0001 296.831 61.6352 291.874 58.2671 296.831C58.2671 296.831 59.1076 300.136 58.2671 301.789C57.4267 303.443 54.9022 309.226 54.9022 309.226H47.3257V313.358L56.5831 315.837L62.4788 301.789V298.482L65.0001 296.831Z" fill="#F6B9AD"/>
<path d="M53.5115 306.116L51.7434 315.837L44.6743 314.069V306.116H53.5115Z" fill="#5989A1"/>
<path d="M39.3722 300.814C43.7648 300.814 47.3257 297.451 47.3257 293.302C47.3257 289.154 43.7648 285.791 39.3722 285.791C34.9796 285.791 31.4187 289.154 31.4187 293.302C31.4187 297.451 34.9796 300.814 39.3722 300.814Z" fill="#F6B9AD"/>
<path d="M37.4627 292.189L44.6744 283.558C44.6744 283.558 40.0729 282.382 35.7024 283.974C27.6273 286.912 27.6407 298.158 35.7024 301.125C36.8292 301.565 38.0453 301.755 39.2597 301.682V296.505H36.5558L37.4627 292.189Z" fill="#3D213C"/>
<path d="M56.3703 274.472L55.536 289.7L48.8521 298.163L44.6743 295.625L50.5239 286.317L53.0299 271.934C53.0299 271.934 51.5815 268.268 58.7958 266.396C59.0128 266.338 59.2402 266.333 59.4594 266.382C59.6787 266.43 59.8836 266.53 60.0575 266.673C60.2314 266.817 60.3692 267 60.4599 267.208C60.5506 267.416 60.5914 267.643 60.5792 267.869C60.4458 270.002 59.6921 273.351 56.3703 274.472Z" fill="#F6B9AD"/>
<path d="M49.5664 340.504L50.4025 347.36C50.4025 347.36 42.8593 353.357 42.8593 361.924L42.0232 363.639L44.5345 366.209L57.9302 349.927C57.9302 349.927 57.9302 340.501 55.4189 337.93L49.5664 340.504Z" fill="#F6B9AD"/>
<path d="M45.3484 364.978L45.3838 369.215C45.3838 369.215 52.316 370.039 50.5821 374.163H43.6531L36.7209 365.915L41.9193 361.791L45.3484 364.978Z" fill="#4F4F4F"/>
<path d="M60.5475 367.093L64.0533 369.744C64.0533 369.744 75.4464 368.862 71.0682 375.047H56.1628V367.979L60.5475 367.093Z" fill="#4F4F4F"/>
<path d="M57.9302 339.635C57.9302 339.635 50.3365 345.488 46.9657 343.816L44.4345 332.112C44.4345 332.112 41.0606 332.112 39.3721 327.932V322.907L55.4053 327.922C55.4053 327.922 55.399 337.118 57.9302 339.635Z" fill="#D82250"/>
<path d="M50.9456 297.911L44.0125 292.86C44.0125 292.86 40.5475 302.961 38.8134 302.961C37.0793 302.961 37.0793 312.221 39.6789 313.899L38.8134 323.159L55.2792 328.209C55.2792 328.209 52.6796 311.374 47.4806 305.48L50.9456 297.911Z" fill="#76B6D7"/>
<path d="M118.907 163.497L120.923 163.227L122.939 164.993L125.263 161.186H127.744L122.939 166.488L118.907 163.497Z" fill="#47E6B1"/>
<path d="M76.4883 294.445L79.5125 293.946L82.5366 297.188L86.0232 290.209H89.7441L82.5366 299.93L76.4883 294.445Z" fill="#22C88A"/>
<path opacity="0.2" d="M76.4883 294.445L79.5125 293.946L82.5366 297.188L86.0232 290.209H89.7441L82.5366 299.93L76.4883 294.445Z" fill="black"/>
<defs>
<linearGradient id="paint0_linear" x1="134.815" y1="322.023" x2="134.815" y2="247.791" gradientUnits="userSpaceOnUse">
<stop stop-color="#808080" stop-opacity="0.25"/>
<stop offset="0.54" stop-color="#808080" stop-opacity="0.12"/>
<stop offset="1" stop-color="#808080" stop-opacity="0.1"/>
</linearGradient>
<linearGradient id="paint1_linear" x1="41156.6" y1="22877.1" x2="41156.6" y2="12238.9" gradientUnits="userSpaceOnUse">
<stop stop-color="#808080" stop-opacity="0.25"/>
<stop offset="0.54" stop-color="#808080" stop-opacity="0.12"/>
<stop offset="1" stop-color="#808080" stop-opacity="0.1"/>
</linearGradient>
<linearGradient id="paint2_linear" x1="102.116" y1="281.812" x2="187.837" y2="281.812" gradientUnits="userSpaceOnUse">
<stop stop-color="#DADADA"/>
<stop offset="1" stop-color="white"/>
</linearGradient>
<linearGradient id="paint3_linear" x1="20042.5" y1="8919.77" x2="42827.1" y2="8919.77" gradientUnits="userSpaceOnUse">
<stop stop-color="#DADADA"/>
<stop offset="1" stop-color="white"/>
</linearGradient>
<linearGradient id="paint4_linear" x1="40895.3" y1="33706.3" x2="40895.3" y2="28843.9" gradientUnits="userSpaceOnUse">
<stop stop-color="#808080" stop-opacity="0.25"/>
<stop offset="0.54" stop-color="#808080" stop-opacity="0.12"/>
<stop offset="1" stop-color="#808080" stop-opacity="0.1"/>
</linearGradient>
<linearGradient id="paint5_linear" x1="40894" y1="15436.1" x2="40894" y2="117" gradientUnits="userSpaceOnUse">
<stop stop-color="#808080" stop-opacity="0.25"/>
<stop offset="0.54" stop-color="#808080" stop-opacity="0.12"/>
<stop offset="1" stop-color="#808080" stop-opacity="0.1"/>
</linearGradient>
<linearGradient id="paint6_linear" x1="19108.2" y1="97592.1" x2="19108.2" y2="56603.3" gradientUnits="userSpaceOnUse">
<stop stop-color="#808080" stop-opacity="0.25"/>
<stop offset="0.54" stop-color="#808080" stop-opacity="0.12"/>
<stop offset="1" stop-color="#808080" stop-opacity="0.1"/>
</linearGradient>
</defs>
</svg>
