<svg width="676" height="676" viewBox="0 0 676 676" fill="none" xmlns="http://www.w3.org/2000/svg">
<g clip-path="url(#clip0)">
<path d="M676 338C676 458.33 613.12 563.98 518.42 623.87C509.58 629.47 500.467 634.653 491.08 639.42C488.96 640.51 486.83 641.56 484.68 642.59C482.91 643.45 481.12 644.29 479.33 645.12C460.737 653.696 441.396 660.548 421.55 665.59C420.26 665.92 418.96 666.24 417.66 666.55C416.69 666.79 415.71 667.02 414.73 667.24C414.609 667.279 414.485 667.31 414.36 667.33C412.35 667.8 410.34 668.25 408.31 668.66C407.17 668.9 406.03 669.14 404.89 669.37C404.2 669.52 403.5 669.65 402.81 669.78C401.94 669.95 401.08 670.11 400.21 670.28C399.73 670.38 399.25 670.46 398.76 670.54C397.66 670.74 396.56 670.94 395.47 671.13C393.61 671.45 391.73 671.76 389.86 672.04C388.5 672.25 387.15 672.45 385.79 672.64C384.19 672.87 382.59 673.08 380.98 673.28C380.54 673.35 380.1 673.4 379.66 673.45C379.09 673.52 378.52 673.59 377.95 673.66C376.21 673.87 374.45 674.06 372.7 674.24C371.56 674.36 370.42 674.47 369.28 674.57C367.81 674.71 366.34 674.83 364.86 674.95C363.06 675.09 361.27 675.22 359.46 675.33C358.3 675.4 357.14 675.47 355.97 675.53C352.99 675.69 350.01 675.8 347.01 675.88C345.52 675.92 344.02 675.95 342.52 675.97H342.49C341 675.99 339.5 676 338 676C293.607 676.023 249.644 667.296 208.626 650.317C167.608 633.339 130.338 608.443 98.9473 577.053C67.5566 545.662 42.6606 508.392 25.6826 467.374C8.70452 426.356 -0.0226335 382.393 4.40825e-05 338C4.40825e-05 151.33 151.33 0 338 0C524.67 0 676 151.33 676 338Z" fill="#2C7BE5"/>
<path opacity="0.2" d="M552.11 206.21C534.75 218.92 519.581 235.98 506.32 256.08C468.58 313.27 446.301 395.11 433.14 471.58C429.78 491.12 427.01 510.31 424.74 528.64C416.92 591.69 414.89 644.69 414.36 667.33C412.35 667.8 410.341 668.25 408.311 668.66C408.66 651.33 409.91 613.82 414.32 567.07C414.89 561.03 415.517 554.843 416.2 548.51C416.96 541.39 417.8 534.11 418.72 526.67C420.62 511.32 422.86 495.41 425.51 479.23C425.93 476.68 426.354 474.147 426.78 471.63C443.45 373.84 469.03 299.58 503.11 249.74C516.87 229.6 532.017 213.47 548.55 201.35L552.11 206.21Z" fill="black"/>
<path opacity="0.2" d="M548.44 472.55C522.43 491.61 507.86 533.67 499.72 574.64C495.574 596.045 492.689 617.676 491.08 639.42C488.96 640.51 486.83 641.56 484.68 642.59C486.285 617.831 489.576 593.211 494.53 568.9C503.09 528.32 518.21 487.24 544.88 467.7L548.44 472.55Z" fill="black"/>
<path opacity="0.2" d="M585.739 206.07C602.356 206.07 615.828 192.599 615.828 175.982C615.828 159.364 602.356 145.893 585.739 145.893C569.121 145.893 555.65 159.364 555.65 175.982C555.65 192.599 569.121 206.07 585.739 206.07Z" fill="black"/>
<path opacity="0.2" d="M576.049 465.079C592.667 465.079 606.138 451.608 606.138 434.991C606.138 418.373 592.667 404.902 576.049 404.902C559.432 404.902 545.961 418.373 545.961 434.991C545.961 451.608 559.432 465.079 576.049 465.079Z" fill="black"/>
<path opacity="0.2" d="M466.285 226.521C472.665 262.519 458.58 295.114 458.58 295.114C458.58 295.114 434.15 269.345 427.77 233.348C421.389 197.351 435.475 164.756 435.475 164.756C435.475 164.756 459.904 190.524 466.285 226.521Z" fill="black"/>
<path opacity="0.2" d="M566.282 311.971C531.947 324.526 497.445 316.469 497.445 316.469C497.445 316.469 518.611 288.056 552.946 275.501C587.281 262.946 621.783 271.003 621.783 271.003C621.783 271.003 600.617 299.416 566.282 311.971Z" fill="black"/>
<path opacity="0.2" d="M572.105 541.333C548.039 550.133 523.822 544.392 523.822 544.392C523.822 544.392 538.624 524.384 562.69 515.584C586.756 506.784 610.973 512.525 610.973 512.525C610.973 512.525 596.171 532.533 572.105 541.333Z" fill="black"/>
<path d="M181.854 180.179C230.73 97.5948 327.425 93.746 327.425 93.746C327.425 93.746 421.65 81.6966 482.094 207.473C538.433 324.707 616.188 437.899 494.612 465.343L472.652 396.993L459.052 470.431C441.742 471.676 424.377 471.973 407.034 471.32C276.836 467.117 152.842 472.55 156.834 425.829C162.142 363.721 134.826 259.641 181.854 180.179Z" fill="#2F2E41"/>
<path d="M336.945 405.783C405.221 405.783 460.569 350.435 460.569 282.16C460.569 213.884 405.221 158.536 336.945 158.536C268.67 158.536 213.322 213.884 213.322 282.16C213.322 350.435 268.67 405.783 336.945 405.783Z" fill="#D0CDE1"/>
<path d="M396.468 350.839C396.468 350.839 346.103 497.355 405.625 538.563C465.147 579.771 309.474 607.243 268.266 579.771C227.058 552.299 195.008 506.513 195.008 506.513C195.008 506.513 300.316 401.204 277.423 341.682L396.468 350.839Z" fill="#D0CDE1"/>
<path d="M488.041 570.61L479.331 645.12C460.737 653.696 441.396 660.548 421.551 665.59C420.261 665.92 418.961 666.24 417.661 666.55C416.691 666.79 415.711 667.02 414.731 667.24C414.61 667.279 414.486 667.309 414.361 667.33C412.351 667.8 410.341 668.25 408.311 668.66C407.171 668.9 406.031 669.14 404.891 669.37C404.201 669.52 403.501 669.65 402.811 669.78C401.941 669.95 401.081 670.11 400.211 670.28C399.731 670.38 399.251 670.46 398.761 670.54C397.661 670.74 396.561 670.94 395.471 671.13C393.611 671.45 391.731 671.76 389.861 672.04C388.501 672.25 387.151 672.45 385.791 672.64C384.191 672.87 382.591 673.08 380.981 673.28C380.541 673.35 380.101 673.4 379.661 673.45C379.091 673.52 378.521 673.59 377.951 673.66C376.211 673.87 374.451 674.06 372.701 674.24C371.561 674.36 370.421 674.47 369.281 674.57C367.811 674.71 366.341 674.83 364.861 674.95C363.061 675.09 361.271 675.22 359.461 675.33C358.301 675.4 357.141 675.47 355.971 675.53C352.991 675.69 350.011 675.8 347.011 675.88C345.521 675.92 344.021 675.95 342.521 675.97H342.491C341.001 675.99 339.501 676 338.001 676C277.804 675.981 218.702 659.901 166.794 629.417C114.886 598.934 72.0514 555.153 42.7109 502.59C57.7837 492.26 73.4766 482.866 89.701 474.46C94.871 471.85 101.881 470.25 109.891 469.43C127.981 467.55 151.421 469.65 171.751 473.5C190.291 476.98 206.271 481.93 213.321 486.6C231.641 498.73 304.901 538.56 304.901 538.56C304.901 538.56 368.971 547.72 394.851 528.64C394.861 528.64 394.861 528.63 394.871 528.63C400.971 524.11 409.411 524.08 418.721 526.67C420.691 527.22 422.698 527.877 424.741 528.64C430.423 530.84 435.932 533.464 441.221 536.49C441.341 536.56 441.451 536.62 441.571 536.69C443.441 537.74 445.301 538.84 447.141 539.97C468.931 553.25 488.041 570.61 488.041 570.61Z" fill="#2F2E41"/>
<path d="M118.251 594.82C115.291 539.84 111.931 494.8 109.891 469.43C127.981 467.55 151.421 469.65 171.751 473.5C188.301 506.66 225.601 583.2 259.931 666.94C207.628 654.543 159.05 629.815 118.251 594.82V594.82Z" fill="#2F2E41"/>
<path d="M439.961 536.27L441.181 536.9C441.061 538.2 440.771 539 439.961 536.27Z" fill="#2F2E41"/>
<path d="M441.57 536.69C441.58 536.83 441.6 536.98 441.61 537.12L441.18 536.9C441.19 536.77 441.2 536.63 441.22 536.49C441.32 534.74 441.2 532.67 441.57 536.69Z" fill="#2F2E41"/>
<path d="M518.421 623.87C509.581 629.47 500.467 634.653 491.081 639.42C488.961 640.51 486.831 641.56 484.681 642.59C482.911 643.45 481.121 644.29 479.331 645.12C460.737 653.696 441.396 660.548 421.551 665.59C435.961 619.06 445.091 573.12 441.611 537.12L447.141 539.97L473.791 553.7C481.461 557.643 488.461 562.773 494.531 568.9C496.357 570.724 498.089 572.64 499.721 574.64C510.99 588.328 517.535 605.29 518.381 623C518.391 623.29 518.411 623.58 518.421 623.87Z" fill="#2F2E41"/>
<path d="M217.198 172.218L312.728 122.178L372.665 131.478C393.896 134.773 413.647 144.374 429.353 159.036C445.059 173.698 455.994 192.744 460.739 213.699L471.947 263.2L404.002 260.586L385.021 216.297V259.856L353.67 258.65L335.474 188.14L324.101 263.2L212.648 260.925L217.198 172.218Z" fill="#2F2E41"/>
</g>
<defs>
<clipPath id="clip0">
</clipPath>
</defs>
</svg>
