<svg width="790" height="683" viewBox="0 0 790 683" fill="none" xmlns="http://www.w3.org/2000/svg">
<path d="M420.067 149.1C417.604 149.11 415.183 148.47 413.046 147.246C410.909 146.022 409.133 144.256 407.896 142.127C406.659 139.997 406.005 137.58 406 135.117C405.995 132.655 406.639 130.234 407.867 128.1C425.667 98.1 479.767 28 597.967 28C649.167 28 694.067 41.6 731.367 68.4C762.067 90.4 779.267 115.3 787.467 127.3C788.507 128.814 789.236 130.519 789.613 132.316C789.99 134.113 790.007 135.968 789.663 137.772C789.319 139.576 788.62 141.293 787.608 142.826C786.596 144.358 785.291 145.675 783.767 146.7C780.667 148.777 776.876 149.553 773.21 148.861C769.543 148.169 766.296 146.064 764.167 143C749.267 121.4 704.067 55.8 597.967 55.8C494.367 55.8 447.567 116.2 432.267 142.1C431.047 144.253 429.272 146.039 427.125 147.27C424.979 148.502 422.541 149.134 420.067 149.1V149.1Z" fill="#22C88A"/>
<path d="M657.467 423.5C656.288 423.515 655.112 423.381 653.967 423.1C568.267 401.6 536.267 315 534.967 311.4L534.767 310.6C534.067 308.1 516.867 248.7 543.267 213.9C555.367 198 573.767 189.9 598.067 189.9C620.667 189.9 636.967 197 648.167 211.7C657.367 223.7 661.067 238.5 664.667 252.8C672.167 282.5 677.567 298.1 708.767 299.7C722.467 300.4 731.467 292.3 736.567 285.4C750.367 266.6 752.767 235.9 742.367 208.9C728.967 173.9 681.567 108 597.967 108C562.267 108 529.467 119.6 503.167 141.4C481.367 159.5 464.067 185 455.767 211.2C440.367 260 460.567 336.7 460.767 337.4C461.237 339.173 461.351 341.022 461.101 342.839C460.852 344.656 460.245 346.406 459.315 347.987C458.385 349.568 457.15 350.949 455.683 352.05C454.216 353.151 452.545 353.949 450.767 354.4C447.161 355.352 443.325 354.847 440.088 352.995C436.851 351.142 434.473 348.091 433.467 344.5C432.567 341 410.967 259.2 428.767 202.8C448.167 141.7 507.967 80.1 597.967 80.1C639.567 80.1 678.867 94.4 711.667 121.4C737.067 142.4 757.867 170.6 768.667 198.8C782.467 234.8 778.767 275.2 759.267 301.6C746.267 319.2 727.767 328.4 707.267 327.4C653.867 324.7 644.267 287 637.267 259.5C630.067 231.3 625.467 217.7 597.967 217.7C582.867 217.7 572.267 221.9 565.667 230.6C556.667 242.5 555.967 261.1 556.967 274.6C556.977 274.741 556.987 274.882 556.997 275.022C558.32 292.197 563.521 308.849 572.208 323.724C586.09 347.66 614.249 384.369 660.967 396.1C662.751 396.532 664.431 397.313 665.912 398.398C667.392 399.484 668.642 400.852 669.591 402.423C670.539 403.995 671.167 405.738 671.437 407.554C671.708 409.369 671.616 411.22 671.167 413C670.354 416.012 668.572 418.673 666.096 420.571C663.619 422.469 660.587 423.498 657.467 423.5V423.5Z" fill="#22C88A"/>
<path d="M547.467 417.1C545.542 417.101 543.636 416.712 541.866 415.955C540.096 415.199 538.497 414.092 537.167 412.7C502.867 376.3 483.467 335.6 476.167 284.7V284.4C472.067 250.7 478.067 203 507.467 170.2C529.167 146 559.667 133.7 597.967 133.7C643.267 133.7 678.867 155 701.067 195.2C711.1 213.688 717.674 233.852 720.467 254.7C720.796 258.398 719.657 262.076 717.295 264.941C714.934 267.805 711.539 269.624 707.847 270.005C704.154 270.386 700.46 269.299 697.563 266.977C694.666 264.656 692.799 261.287 692.367 257.6C689.934 240.168 684.343 223.326 675.867 207.9C658.667 177.2 632.467 161.6 597.867 161.6C567.967 161.6 544.567 170.7 528.467 188.7C505.267 214.6 500.767 254.5 503.967 280.9C510.367 325.9 527.467 361.7 557.667 393.7C558.927 395.033 559.911 396.603 560.559 398.319C561.207 400.035 561.507 401.863 561.442 403.697C561.377 405.53 560.948 407.332 560.179 408.998C559.411 410.664 558.319 412.16 556.967 413.4C554.368 415.768 550.983 417.087 547.467 417.1V417.1Z" fill="#22C88A"/>
<path d="M598.167 286.5C608.108 286.5 616.167 278.441 616.167 268.5C616.167 258.559 608.108 250.5 598.167 250.5C588.226 250.5 580.167 258.559 580.167 268.5C580.167 278.441 588.226 286.5 598.167 286.5Z" fill="#22C88A"/>
<path d="M620 635.614C620 661.294 481.21 682.114 310 682.114C138.79 682.114 7.62939e-06 661.294 7.62939e-06 635.614C7.62939e-06 617.434 69.57 601.684 170.96 594.044C212.77 590.884 260.01 589.114 310 589.114C330.55 589.114 350.63 589.414 370.05 589.984C512.52 594.184 620 613.013 620 635.614Z" fill="#3F3D56"/>
<path opacity="0.1" d="M270 645.114C335.722 645.114 389 638.622 389 630.614C389 622.605 335.722 616.114 270 616.114C204.278 616.114 151 622.605 151 630.614C151 638.622 204.278 645.114 270 645.114Z" fill="black"/>
<path d="M269.5 641.114C331.632 641.114 382 587.388 382 521.114C382 454.839 331.632 401.114 269.5 401.114C207.368 401.114 157 454.839 157 521.114C157 587.388 207.368 641.114 269.5 641.114Z" fill="#3F3D56"/>
<path d="M305 592.114H235V656.114H305V592.114Z" fill="#22CC8A"/>
<path d="M396.5 607.614L392.5 629.614L418.5 633.614L435.5 623.614L434.5 607.614H396.5Z" fill="#575A89"/>
<path d="M265.5 194.613C265.5 194.613 263.5 217.613 258.5 218.613C253.5 219.613 269.5 259.613 269.5 259.613H293.5L312.5 254.613L303.5 232.613C303.5 232.613 291.5 216.613 300.5 203.613C309.5 190.613 265.5 194.613 265.5 194.613Z" fill="#A0616A"/>
<path opacity="0.1" d="M265.5 194.613C265.5 194.613 263.5 217.613 258.5 218.613C253.5 219.613 269.5 259.613 269.5 259.613H293.5L312.5 254.613L303.5 232.613C303.5 232.613 291.5 216.613 300.5 203.613C309.5 190.613 265.5 194.613 265.5 194.613Z" fill="black"/>
<path d="M215.5 370.614C215.5 370.614 189.5 420.614 210.5 430.614C231.5 440.614 236.5 439.614 236.5 442.614C236.5 445.614 232.5 444.614 234.5 449.614C236.5 454.614 230.5 474.614 236.5 486.614C242.5 498.614 240.5 507.614 240.5 507.614C240.5 507.614 240.5 508.614 242.5 512.614C244.5 516.614 245.5 519.614 244.5 521.614C243.5 523.614 237.5 536.614 243.5 539.614C249.5 542.614 280.5 544.614 283.5 539.614C286.5 534.614 280.5 531.614 283.5 528.614C286.5 525.614 288.5 524.614 286.5 522.614C284.5 520.614 282.5 495.614 282.5 495.614C282.5 495.614 287.5 466.614 285.5 462.614C283.5 458.614 280.5 454.614 282.5 451.614C284.5 448.614 286.5 449.614 287.5 445.614C288.5 441.614 290.5 432.614 290.5 432.614L301.5 431.614L327.5 436.614C327.5 436.614 356.5 468.614 388.5 478.614C388.5 478.614 397.5 487.614 400.5 487.614C403.5 487.614 403.5 487.614 402.5 489.614C401.5 491.614 398.5 491.614 400.5 493.614C402.5 495.614 405.5 492.614 403.5 495.614C401.5 498.614 399.5 498.614 401.5 500.614C403.5 502.614 400.5 513.614 400.5 514.614C400.5 515.614 391.5 609.614 394.5 611.614C397.5 613.614 439.5 619.614 442.5 611.614C445.5 603.614 440.5 593.614 440.5 593.614C440.5 593.614 455.5 473.614 451.5 465.614C447.5 457.614 433.5 421.614 358.5 398.614C358.5 398.614 337.5 394.614 337.5 391.614C337.5 388.614 335.5 369.614 331.5 368.614C327.5 367.614 304.5 366.614 304.5 366.614L275.5 375.614L235.5 368.614L215.5 370.614Z" fill="#2F2E41"/>
<path d="M250.5 538.614L245.5 556.614C245.5 556.614 241.5 585.614 246.5 592.614C250.427 598.112 257.44 604.844 270.444 606.026C274.089 606.36 277.739 605.44 280.79 603.419C283.841 601.397 286.11 598.395 287.223 594.908C287.372 594.491 287.465 594.055 287.5 593.614C287.5 591.614 284.5 567.614 284.5 567.614L279.5 542.614L278.5 535.614L250.5 538.614Z" fill="#2F2E41"/>
<path d="M396.5 624.613C396.5 624.613 391.5 619.613 390.5 624.613C389.5 629.613 385.5 650.613 392.5 651.613C399.5 652.613 466.5 662.613 473.5 658.613C480.5 654.613 493.5 648.613 485.5 645.613C477.5 642.613 454.5 633.613 454.5 633.613C454.5 633.613 441.5 616.613 439.5 615.613C437.5 614.613 426.5 616.613 421.5 620.613C416.5 624.613 396.5 624.613 396.5 624.613Z" fill="#2F2E41"/>
<path d="M289.5 215.614C306.621 215.614 320.5 201.734 320.5 184.614C320.5 167.493 306.621 153.614 289.5 153.614C272.379 153.614 258.5 167.493 258.5 184.614C258.5 201.734 272.379 215.614 289.5 215.614Z" fill="#A0616A"/>
<path d="M286.5 254.614L274.5 241.614L261.199 215.614C261.199 215.614 251.5 212.614 249.5 217.614C247.5 222.614 211.5 238.614 211.5 238.614C211.5 238.614 220.5 322.614 216.5 330.614C212.5 338.614 205.5 370.614 211.5 373.614C217.5 376.614 245.5 373.614 254.5 377.614C263.5 381.614 289.5 381.614 296.5 376.614C303.5 371.614 305.5 367.614 312.5 370.614C318.459 373.168 332.391 285.853 336.402 259.833C336.74 257.647 336.459 255.411 335.592 253.377C334.724 251.342 333.305 249.592 331.494 248.323C322.521 242.029 306.361 231.183 303.5 232.614C299.5 234.614 286.5 254.614 286.5 254.614Z" fill="#575A89"/>
<path d="M329.5 250.614C331.848 251.201 333.961 252.492 335.553 254.315C337.146 256.137 338.143 258.404 338.411 260.809L346.5 333.614C346.5 333.614 326.5 376.614 316.5 347.614C306.5 318.614 329.5 250.614 329.5 250.614Z" fill="#575A89"/>
<path d="M327.5 340.614L349.5 334.614C349.5 334.614 353.5 362.614 357.5 362.614C361.5 362.614 343.5 378.614 334.5 376.614C325.5 374.614 312.5 367.614 311.5 362.614C310.5 357.614 320.5 336.614 320.5 336.614L327.5 340.614Z" fill="#575A89"/>
<path d="M266.098 197.987C268.206 193.339 267.84 187.917 269.583 183.12C270.516 180.551 272.03 178.233 274.008 176.347C275.985 174.461 278.372 173.057 280.981 172.245C283.591 171.434 286.353 171.237 289.051 171.67C291.749 172.102 294.311 173.153 296.536 174.739C298.778 176.338 301.025 178.583 303.762 178.278C306.708 177.95 309.337 174.662 312.046 175.867C315.049 177.202 314.238 182.584 317.28 183.827C318.881 184.481 320.773 183.474 321.697 182.011C322.505 180.474 322.945 178.771 322.983 177.035C323.402 172.77 323.782 168.256 321.932 164.39C321.154 163.08 320.476 161.712 319.904 160.3C319.58 158.981 319.45 157.622 319.518 156.266C319.501 151.253 319.135 146.024 316.613 141.692C313.813 136.884 308.638 133.811 303.239 132.469C297.84 131.128 292.184 131.334 286.641 131.803C277.478 132.579 267.922 134.241 260.703 139.938C259.721 140.655 258.877 141.542 258.209 142.557C257.576 143.764 257.128 145.059 256.881 146.399C255.32 152.755 252.98 158.894 249.914 164.676C248.438 167.127 247.233 169.731 246.318 172.442C245.553 175.196 245.604 178.335 247.207 180.702C248.512 182.63 250.597 183.657 252.236 185.233C253.86 186.794 254.62 189.797 256.419 190.98C257.989 192.012 259.87 191.283 261.472 192.377C263.528 193.782 263.676 196.861 266.098 197.987Z" fill="#2F2E41"/>
<path d="M291.5 269.614L294.5 263.614C294.5 263.614 338.5 276.614 347.5 288.614C347.5 288.614 369.5 274.614 381.5 276.614L393.5 278.614L356.5 311.614L309.5 307.614L291.5 269.614Z" fill="#F2F2F2"/>
<path d="M289.5 263.614L248.5 320.614L307.5 349.614C307.5 349.614 313.016 352.614 317.258 349.614L356.5 331.614L393.5 278.614L356.5 297.614C356.5 297.614 352.5 289.614 344.5 293.614L289.5 263.614Z" fill="#22CC8A"/>
<path d="M352.5 364.614L360.5 343.614C360.5 343.614 378.5 320.614 368.5 309.614C358.5 298.614 347.5 341.614 347.5 341.614L352.5 364.614Z" fill="#A0616A"/>
<path d="M260.198 361.262L277.654 347.11C277.654 347.11 304.764 336.245 301.632 321.713C298.501 307.18 267.412 338.858 267.412 338.858L260.198 361.262Z" fill="#A0616A"/>
<path opacity="0.1" d="M217 260.113H216C216 260.113 200.5 241.613 197.5 266.613C194.5 291.613 184.5 374.613 210.5 377.613C236.5 380.613 255 365.113 255 365.113C255 365.113 274 336.113 267 336.113C263.613 336.113 254.402 334.592 246 335.113C237.037 335.669 228.984 338.194 229.5 335.613C230.5 330.613 245 267.113 217 260.113Z" fill="black"/>
<path d="M215.5 240.614L211.5 238.614C211.5 238.614 195.5 241.614 192.5 266.614C189.5 291.614 179.5 374.614 205.5 377.614C231.5 380.614 266.5 373.614 266.5 373.614C266.5 373.614 273.5 335.614 266.5 335.614C259.5 335.614 223.5 340.614 224.5 335.614C225.5 330.614 243.5 247.614 215.5 240.614Z" fill="#575A89"/>
<path d="M338 353.114L349.027 336.213L356 364.114L338 372.114V353.114Z" fill="#575A89"/>
<path d="M111.473 112.114C126.385 112.114 138.473 100.025 138.473 85.1135C138.473 70.2018 126.385 58.1135 111.473 58.1135C96.5615 58.1135 84.4731 70.2018 84.4731 85.1135C84.4731 100.025 96.5615 112.114 111.473 112.114Z" fill="#F2F2F2"/>
<path d="M143.473 286.114H79.4731V350.114H143.473V286.114Z" fill="#F2F2F2"/>
<path d="M372 0L388.199 28.057L404.397 56.114H372H339.603L355.801 28.057L372 0Z" fill="#F2F2F2"/>
</svg>
