<svg width="227" height="583" viewBox="0 0 227 583" fill="none" xmlns="http://www.w3.org/2000/svg">
<path d="M113.105 290.799C113.129 293.432 113.128 296.227 113.105 299.142V290.799Z" fill="#FBCDA3"/>
<path d="M117.087 374.526C114.294 346.522 112.941 319.728 112.771 299.359V290.695C112.879 279.595 114.173 255.895 139.427 248.375C179.061 236.572 191.745 260.83 191.738 263.678C191.602 327.74 167.947 353.618 166.39 369.476C165.104 382.604 163.631 391.927 164.667 402.12C165.698 412.312 167.113 436.787 165.102 454.033C162.302 478.056 150.525 519.061 145.745 539.631C144.678 544.223 142.209 550.432 142.719 554.583C143.639 562.057 148.222 567.506 149.05 571.899C150.317 578.62 134.035 581.495 129.597 581.826C126.902 582.023 120.782 583.568 117.66 580.887V568.866C118.721 565.536 119.898 561.504 120.277 557.203C121.038 548.471 122.314 540.047 122.547 535.728C123.557 517.291 116.739 478.957 115.646 451.432C114.795 430.039 118.656 417.528 119.365 406.234C119.948 396.951 118.655 390.246 117.087 374.526Z" fill="#FBCDA3"/>
<path d="M220.922 206.844C222.371 210.976 209.5 208.662 205.447 210.884C203.591 211.9 196.53 214.896 191.946 205.954C173.248 169.483 165.044 136.538 160.388 130.923C155.795 125.387 155.628 120.123 154.946 117.023C154.18 106.291 158.292 101.334 166.994 100.992C176.258 100.63 196.955 107.2 207.772 136.599C214.787 155.667 214.63 188.935 220.922 206.844Z" fill="#FBCDA3"/>
<path d="M223.682 277.262C223.082 272.482 211.902 273.943 209.546 273.736C206.073 273.438 205.011 274.639 203.349 279.542C202.543 284.924 198.609 284.862 198.126 300.288C197.997 304.435 197.773 308.462 197.859 312.072C197.863 312.427 200.634 312.943 201.262 308.926C202.79 299.228 203.97 300.394 205.205 296.914C205.443 301.047 207.131 304.751 204.627 315.063C203.045 321.582 200.341 325.55 202.787 327.671C205.235 329.79 215.699 319.495 218.558 302.39C219.645 295.904 223.915 286.347 223.682 277.262Z" fill="#FBCDA3"/>
<path d="M209.212 283.514C211.712 283.588 223.18 281.491 223.691 276.974C224.008 274.14 223.436 270.791 223.912 267.326C229.771 224.566 223.068 209.676 215.642 195.878C213.584 192.055 203.791 186.159 198.535 188.251C190.795 191.327 191.127 198.063 191.226 202.514C191.776 227.414 201.352 244.902 205.051 275.59C205.364 278.191 206.712 283.434 209.212 283.514Z" fill="#FBCDA3"/>
<path d="M109.121 374.526C111.915 346.522 113.268 319.728 113.439 299.359V290.856L113.437 290.695C113.329 279.595 112.036 255.895 86.7814 248.375C47.1481 236.572 34.464 260.83 34.4707 263.678C34.6067 327.74 58.2614 353.618 59.8188 369.476C61.1054 382.604 62.5774 391.927 61.5414 402.12C60.5107 412.312 59.096 436.787 61.1067 454.033C63.9067 478.056 75.6841 519.061 80.4641 539.631C81.5307 544.223 84.0001 550.432 83.4894 554.583C82.5694 562.057 77.9867 567.506 77.1587 571.899C75.8921 578.62 92.1734 581.495 96.612 581.826C99.3067 582.023 105.427 583.568 108.549 580.887V568.866C107.489 565.536 106.311 561.504 105.933 557.203C105.171 548.471 103.895 540.047 103.661 535.728C102.653 517.291 109.469 478.957 110.563 451.432C111.413 430.039 107.553 417.528 106.844 406.234C106.261 396.951 107.553 390.246 109.121 374.526Z" fill="#FBCDA3"/>
<path d="M5.28704 206.844C3.83771 210.976 16.7084 208.662 20.7617 210.884C22.6177 211.9 29.679 214.896 34.263 205.954C52.9603 169.483 61.1644 136.538 65.8204 130.923C70.4137 125.387 70.5804 120.123 71.263 117.023C72.0283 106.291 67.9164 101.334 59.215 100.992C49.951 100.63 29.2537 107.2 18.4377 136.599C11.4217 155.667 11.579 188.935 5.28704 206.844Z" fill="#FBCDA3"/>
<path d="M2.52678 277.262C3.12678 272.482 14.3068 273.943 16.6628 273.736C20.1375 273.438 21.1974 274.639 22.8601 279.542C23.6654 284.924 27.6001 284.862 28.0841 300.288C28.2121 304.435 28.4361 308.462 28.3494 312.072C28.3454 312.427 25.5748 312.943 24.9468 308.926C23.4188 299.228 22.2387 300.394 21.0041 296.914C20.7654 301.047 19.0774 304.751 21.5814 315.063C23.1641 321.582 25.8681 325.55 23.4214 327.671C20.9734 329.79 10.5094 319.495 7.65074 302.39C6.56407 295.904 2.29345 286.347 2.52678 277.262Z" fill="#FBCDA3"/>
<path d="M16.9968 283.514C14.4955 283.588 3.02749 281.491 2.51683 276.974C2.19949 274.14 2.77154 270.791 2.29554 267.326C-3.5618 224.566 3.13951 209.676 10.5662 195.878C12.6235 192.055 22.4168 186.159 27.6728 188.251C35.4128 191.327 35.0809 198.063 34.9822 202.514C34.4315 227.414 24.8555 244.902 21.1569 275.59C20.8435 278.191 19.4955 283.434 16.9968 283.514Z" fill="#FBCDA3"/>
<path d="M152.914 64.5749C152.577 52.8096 152.327 43.7522 150.07 34.1922C142.659 2.79355 128.26 0.00825774 113.105 0.0295875H113.103C97.9488 0.00825774 83.5489 2.79355 76.1382 34.1922C73.8809 43.7522 73.6329 52.8096 73.2942 64.5749C72.9462 76.6896 71.9849 88.9282 73.2942 97.1349C82.2369 95.0642 143.972 95.0642 152.914 97.1349C154.224 88.9282 153.262 76.6896 152.914 64.5749Z" fill="#5D3F2D"/>
<path d="M185.244 232.494C182.974 225.983 183.739 220.276 181.106 209.01C178.874 199.467 171.106 189.986 172.035 174.456C172.084 173.636 172.582 172.952 173.156 172.366C173.508 172.008 174.131 170.87 175.206 168.266C178.875 159.376 175.544 142.427 166.771 127.232C166.799 115.511 169.859 101.783 169.859 101.783C164.156 98.2083 136.88 95.3069 133.014 80.0483C131.538 74.2363 128.008 55.6256 128.008 55.6256L113.104 56.2016L98.2016 55.6256C98.2016 55.6256 94.6723 74.2363 93.1963 80.0483C89.3296 95.3069 62.0536 98.2083 56.3509 101.783C56.3509 101.783 59.4123 115.511 59.4389 127.232C50.6669 142.427 47.3349 159.376 51.0042 168.266C52.0789 170.87 52.7016 172.008 53.0536 172.366C53.6283 172.952 54.1256 173.636 54.175 174.456C55.1056 189.986 47.3362 199.467 45.1042 209.01C42.4709 220.276 43.2363 225.983 40.9656 232.494C38.5536 239.411 33.1043 254.566 35.0163 269.676C35.823 276.058 44.2403 290.799 44.2403 290.799C47.9389 304.599 47.2283 303.57 64.1643 302.542C73.6496 301.966 88.6722 301.39 113.104 303.419C137.538 301.39 152.559 301.966 162.046 302.542C178.982 303.57 178.271 304.599 181.97 290.799C181.97 290.799 190.387 276.058 191.194 269.676C193.106 254.566 187.656 239.411 185.244 232.494Z" fill="#FBCDA3"/>
<path d="M113.104 290.799C113.079 293.432 113.08 296.227 113.104 299.142V290.799Z" fill="#FBCDA3"/>
<path d="M132.932 79.7229C132.562 78.2242 132.08 76.0256 131.562 73.5562C132.032 72.9402 132.504 72.2775 132.986 71.5642C133.426 73.6575 134.04 76.5269 134.363 77.9042C133.974 78.4469 133.495 79.0616 132.932 79.7229ZM93.4283 79.1015C93.083 78.6749 92.7777 78.2722 92.5137 77.9042C92.8003 76.6829 93.315 74.2922 93.735 72.3056C94.0416 72.7429 94.3443 73.1589 94.6483 73.5562C94.1976 75.7042 93.775 77.6455 93.4283 79.1015Z" fill="#553928"/>
<path d="M113.438 90.8843H113.437C103.946 89.8389 96.7997 83.2736 93.4277 79.1016C93.7744 77.6456 94.1971 75.7043 94.6477 73.5563C96.0251 75.363 97.385 76.7683 98.937 77.8989C103.512 81.2323 110.889 82.5763 113.104 82.7163C115.32 82.5763 122.697 81.2323 127.273 77.8989C128.824 76.7683 130.184 75.363 131.561 73.5563C132.08 76.0256 132.561 78.2243 132.932 79.7229C129.378 83.8963 122.47 89.8896 113.438 90.8843Z" fill="#E5BB94"/>
<path d="M138.319 43.2243C138.319 30.015 131.152 15.775 113.106 15.5563H113.104C95.0578 15.775 87.8912 30.015 87.8912 43.2243C87.8912 53.107 85.6765 59.0323 89.8978 66.207C93.3258 72.0283 95.7218 75.5563 98.9378 77.899C103.512 81.2323 110.89 82.5763 113.104 82.7163C115.32 82.5763 122.698 81.2323 127.274 77.899C130.488 75.5563 132.884 72.0283 136.312 66.207C140.534 59.0323 138.319 53.107 138.319 43.2243Z" fill="#FBCDA3"/>
<path d="M146.797 29.6737C145.475 19.1883 141.954 11.1857 135.011 6.18832C129.881 2.03232 122.845 -0.241004 113.126 0.029662H113.106C103.401 -0.237005 96.3714 2.03499 91.2434 6.18832C84.3007 11.1857 80.9767 21.2177 79.4554 29.6737C78.3114 36.035 77.7087 43.0896 77.3301 50.519C81.2047 50.3683 81.6247 50.263 85.49 49.9723C85.2927 48.3976 87.2647 46.3243 87.2647 44.3163C87.2647 35.231 92.4421 26.3776 97.9501 21.0976C99.0807 20.0136 105.598 21.1963 113.106 23.8017V23.8003C124.506 27.755 138.193 34.9936 138.787 42.6016C142.153 41.6056 144.591 40.8323 147.918 39.7297C147.577 36.247 147.201 32.875 146.797 29.6737Z" fill="#5D3F2D"/>
<path d="M94.709 45.919C94.709 45.919 97.3024 48.423 100.482 48.6843C105.462 49.095 106.608 46.9777 106.608 46.9777C106.608 46.9777 106.282 43.251 101.602 43.2243C97.157 43.199 94.709 45.919 94.709 45.919Z" fill="white"/>
<path d="M97.9492 45.619C97.9492 47.2563 99.3146 48.5856 100.996 48.5856C102.677 48.5856 104.045 47.2563 104.045 45.619C104.045 43.9803 102.677 42.651 100.996 42.651C99.3146 42.651 97.9492 43.9803 97.9492 45.619Z" fill="#3871C1"/>
<path d="M100.997 47.535C99.9087 47.535 99.0273 46.6763 99.0273 45.619C99.0273 44.5617 99.9087 43.7016 100.997 43.7016C102.085 43.7016 102.965 44.5617 102.965 45.619C102.965 46.6763 102.085 47.535 100.997 47.535Z" fill="#231F20"/>
<path d="M98.9355 45.051C98.9355 45.3483 99.1915 45.5897 99.5062 45.5897C99.8209 45.5897 100.076 45.3483 100.076 45.051V44.855C100.076 44.5577 99.8209 44.3163 99.5062 44.3163C99.1915 44.3163 98.9355 44.5577 98.9355 44.855V45.051Z" fill="white"/>
<path d="M106.608 46.9416C106.331 45.5896 105.847 44.6003 104.7 43.7469C102.667 42.2309 100.363 42.3523 98.1307 43.3416C96.7761 43.9389 95.3201 45.0402 93.7654 44.9682C93.4481 44.9522 92.5201 44.6696 92.4414 44.2963C93.2614 47.5349 97.144 45.0843 98.7507 44.3363C101.861 42.8883 105.268 43.6349 106.608 46.9416Z" fill="#6F4323"/>
<path d="M107.799 40.7443C107.799 39.4589 102.613 37.6949 100.654 37.3763C97.8993 37.1523 95.2806 37.5083 92.918 39.0269C95.3993 38.6829 97.67 38.0456 100.437 38.4976C102.405 38.9709 107.799 42.5043 107.799 40.7443Z" fill="#91816F"/>
<path d="M88.6951 45.4016C88.6951 45.4016 85.931 42.1856 84.9497 44.8283C83.1377 49.7123 89.5804 55.1282 89.8617 56.1002C90.1391 57.0736 88.6951 45.4016 88.6951 45.4016Z" fill="#FBCDA3"/>
<path d="M131.502 45.919C131.502 45.919 128.907 48.423 125.727 48.6843C120.747 49.095 119.602 46.9777 119.602 46.9777C119.602 46.9777 119.927 43.251 124.607 43.2243C129.054 43.199 131.502 45.919 131.502 45.919Z" fill="white"/>
<path d="M128.261 45.619C128.261 47.2563 126.895 48.5856 125.214 48.5856C123.533 48.5856 122.166 47.2563 122.166 45.619C122.166 43.9803 123.533 42.651 125.214 42.651C126.895 42.651 128.261 43.9803 128.261 45.619Z" fill="#3871C1"/>
<path d="M125.214 47.535C126.302 47.535 127.183 46.6763 127.183 45.619C127.183 44.5617 126.302 43.7016 125.214 43.7016C124.126 43.7016 123.246 44.5617 123.246 45.619C123.246 46.6763 124.126 47.535 125.214 47.535Z" fill="#231F20"/>
<path d="M127.273 45.051C127.273 45.3483 127.017 45.5897 126.702 45.5897C126.389 45.5897 126.133 45.3483 126.133 45.051V44.855C126.133 44.5577 126.389 44.3163 126.702 44.3163C127.017 44.3163 127.273 44.5577 127.273 44.855V45.051Z" fill="white"/>
<path d="M119.602 46.9416C119.879 45.5896 120.363 44.6003 121.51 43.7469C123.543 42.2309 125.847 42.3523 128.079 43.3416C129.434 43.9389 130.891 45.0402 132.444 44.9682C132.762 44.9522 133.69 44.6696 133.768 44.2963C132.948 47.5349 129.066 45.0843 127.459 44.3363C124.348 42.8883 120.943 43.6349 119.602 46.9416Z" fill="#6F4323"/>
<path d="M118.41 40.7443C118.41 39.4589 123.597 37.6949 125.557 37.3763C128.31 37.1523 130.929 37.5083 133.291 39.0269C130.81 38.6829 128.539 38.0456 125.773 38.4976C123.805 38.9709 118.41 42.5043 118.41 40.7443Z" fill="#91816F"/>
<path d="M137.513 45.4016C137.513 45.4016 140.277 42.1856 141.258 44.8283C143.07 49.7123 136.627 55.1282 136.346 56.1002C136.069 57.0736 137.513 45.4016 137.513 45.4016Z" fill="#FBCDA3"/>
<path d="M113.106 60.8483H113.105C111.39 60.6856 109.818 60.2856 108.717 59.0323C109.437 59.4749 111.27 59.6989 113.105 59.7003H113.106C114.941 59.6989 116.774 59.4749 117.494 59.0323C116.393 60.2856 114.821 60.6856 113.106 60.8483Z" fill="#D0A986"/>
<path d="M114.449 64.5842C113.823 64.4962 113.507 65.0256 113.106 65.1536H113.105C112.703 65.0256 112.387 64.4962 111.762 64.5842C108.489 65.0402 106.086 67.7736 106.086 67.7736C106.086 67.7736 109.219 71.0495 113.105 71.0989H113.106C116.991 71.0495 120.125 67.7736 120.125 67.7736C120.125 67.7736 117.723 65.0402 114.449 64.5842Z" fill="#EF7889"/>
<path d="M114.451 64.5842C113.826 64.4962 113.507 65.0242 113.106 65.1562H113.104C112.703 65.0242 112.385 64.4962 111.759 64.5842C108.482 65.0349 106.09 67.7735 106.09 67.7735H106.135C107.047 67.6749 109.877 66.9829 111.629 67.6029C112.085 67.7682 112.748 67.8255 113.104 67.8375H113.106C113.462 67.8255 114.126 67.7682 114.582 67.6029C116.335 66.9829 119.165 67.6749 120.075 67.7735H120.121C120.121 67.7735 117.729 65.0349 114.451 64.5842Z" fill="#F35E77"/>
<path d="M185.243 232.494C184.938 231.795 184.711 230.98 184.522 230.079C183.29 225.18 183.355 220.279 181.858 212.551C181.334 210.356 180.661 208.027 179.771 205.566C179.146 203.839 178.59 202.164 178.094 200.534C175.082 193.427 171.375 185.463 172.034 174.456C172.083 173.636 172.581 172.952 173.155 172.366C173.507 172.008 174.13 170.87 175.205 168.266C178.874 159.376 175.543 142.427 166.77 127.232C166.798 115.511 169.858 101.783 169.858 101.783C169.689 101.676 169.497 101.571 169.291 101.466L169.078 101.363C168.93 101.292 168.779 101.22 168.615 101.148L168.331 101.03C168.17 100.963 168.007 100.895 167.833 100.828L167.517 100.71C167.331 100.64 167.141 100.571 166.943 100.502L166.625 100.391C166.398 100.314 166.166 100.235 165.926 100.156L165.665 100.071C165.354 99.9709 165.035 99.8695 164.705 99.7682L164.657 99.7522C161.871 98.8909 158.405 97.9349 154.79 96.7349L154.706 96.7069C154.285 96.5655 153.862 96.4229 153.437 96.2749C151.381 127.123 127.273 140.07 113.339 140.07H112.869C98.9353 140.07 74.8273 127.123 72.7713 96.2749C72.346 96.4229 71.9233 96.5655 71.502 96.7069L71.418 96.7349C67.8033 97.9349 64.3366 98.8909 61.5526 99.7522L61.502 99.7682C61.1726 99.8695 60.854 99.9709 60.5433 100.071L60.282 100.156C60.042 100.235 59.8099 100.314 59.5833 100.391L59.2646 100.502C59.0673 100.571 58.8766 100.64 58.6913 100.71L58.3753 100.828C58.2019 100.895 58.038 100.963 57.8766 101.03L57.5926 101.148C57.4286 101.22 57.2779 101.292 57.1299 101.363L56.918 101.466C56.7113 101.571 56.5193 101.676 56.3499 101.783C56.3499 101.783 59.4113 115.511 59.438 127.232C50.666 142.427 47.3339 159.376 51.0033 168.266C52.0779 170.87 52.7006 172.008 53.0526 172.366C53.6273 172.952 54.1246 173.636 54.174 174.456C54.8326 185.463 51.1259 193.427 48.1139 200.534C47.6179 202.164 47.0619 203.839 46.4366 205.566C45.5473 208.027 44.8739 210.356 44.3499 212.551C42.8526 220.279 42.9193 225.18 41.6859 230.079C41.4966 230.98 41.27 231.795 40.9646 232.494C38.962 238.234 34.8833 249.65 34.6406 262.002C42.6433 263.08 55.1206 267.575 66.2699 273.679C79.8353 281.107 104.937 297.686 113.103 297.686C121.27 297.686 146.373 281.107 159.937 273.679C171.087 267.575 183.565 263.08 191.567 262.002C191.325 249.65 187.246 238.234 185.243 232.494Z" fill="#3BAE5F"/>
<path d="M45.7637 208.087C46.0183 207.28 46.2917 206.46 46.5943 205.622L46.6223 205.542C47.289 203.731 47.8864 201.963 48.421 200.238C51.1624 193.79 54.4184 186.579 54.4184 177.014C54.4184 176.176 54.393 175.32 54.341 174.447C54.2863 173.562 53.757 172.846 53.1717 172.25C53.017 172.094 52.7637 171.707 52.4237 171.031C52.2357 169.147 51.9397 167.864 51.613 167.24C51.393 166.823 51.189 166.407 50.9943 165.992C50.9077 165.515 50.825 165.022 50.7357 164.547L50.725 164.492L50.6824 164.455C50.6824 164.454 50.4863 164.278 50.153 163.972C50.0863 163.795 50.029 163.615 49.965 163.431C49.7997 162.187 49.7184 160.86 49.7184 159.467C49.7184 153.146 51.4037 145.43 54.5783 137.59C55.1263 136.67 55.6717 135.79 56.1943 134.951C54.1983 139.53 52.2477 144.854 52.2464 149.663C52.233 155.308 54.9877 160.259 63.4277 162.29C68.993 163.638 73.9623 164.135 78.5717 164.135C91.057 164.132 100.892 160.5 112.873 160.299H113.338C125.317 160.5 135.152 164.132 147.637 164.135C152.246 164.135 157.214 163.638 162.781 162.29C171.221 160.259 173.976 155.308 173.962 149.663C173.96 144.854 172.01 139.53 170.014 134.951C170.536 135.788 171.081 136.668 171.63 137.588C174.805 145.428 176.49 153.146 176.49 159.467C176.49 160.86 176.409 162.187 176.244 163.431C176.18 163.615 176.122 163.795 176.057 163.972C175.724 164.278 175.526 164.454 175.525 164.455L175.484 164.492L175.473 164.547C175.384 165.022 175.301 165.516 175.213 165.994C175.02 166.407 174.816 166.823 174.596 167.24C174.268 167.864 173.974 169.147 173.785 171.031C173.444 171.707 173.192 172.094 173.037 172.25C172.452 172.846 171.922 173.562 171.868 174.447C171.816 175.32 171.79 176.176 171.79 177.014C171.79 186.579 175.045 193.788 177.786 200.235C178.321 201.96 178.918 203.728 179.585 205.539L179.613 205.62L179.614 205.622L179.772 205.566L179.614 205.622C179.917 206.46 180.19 207.279 180.445 208.086C174.888 202.168 173.076 194.595 171.3 188.406C170.385 185.223 169.482 182.406 168.061 180.364C166.646 178.327 164.682 177.072 161.741 177.072C161.736 177.072 161.73 177.072 161.724 177.072C161.716 177.072 161.706 177.072 161.698 177.072C146.513 177.072 136.88 168.472 113.349 167.023H112.86C89.3304 168.472 79.693 177.071 64.5104 177.072C64.501 177.072 64.4944 177.072 64.485 177.072C64.4784 177.072 64.473 177.072 64.4676 177.072C61.5263 177.072 59.5623 178.326 58.1477 180.364C53.9863 186.371 54.1877 199.126 45.7637 208.087Z" fill="#369E55"/>
<path d="M181.165 209.3L180.921 209.052C180.583 207.922 180.202 206.759 179.771 205.566L179.929 205.511C180.317 206.587 180.658 207.632 180.97 208.656L181.165 209.3Z" fill="#E5BB94"/>
<path d="M47.543 201.891C47.739 201.299 47.927 200.711 48.107 200.128L48.1096 200.122L48.1137 200.114C50.8577 193.658 54.0857 186.504 54.0857 177.014C54.0857 176.183 54.0603 175.334 54.0083 174.467C53.9657 173.711 53.5003 173.058 52.9337 172.483C52.7257 172.268 52.4696 171.86 52.1123 171.154L52.0977 171.126L52.095 171.095C52.0803 170.942 52.0643 170.791 52.0483 170.646C52.515 171.626 52.8363 172.144 53.0536 172.366C53.6283 172.952 54.1257 173.636 54.175 174.456C54.1763 174.483 54.179 174.51 54.1803 174.536C54.1803 174.544 54.1816 174.554 54.1816 174.562C54.183 174.582 54.1843 174.6 54.1843 174.62C54.1856 174.628 54.1857 174.638 54.1857 174.646C54.187 174.671 54.1883 174.696 54.191 174.722C54.191 174.73 54.191 174.739 54.1923 174.747C54.1923 174.764 54.1937 174.784 54.195 174.8C54.195 174.811 54.195 174.82 54.1964 174.831C54.1977 174.855 54.199 174.876 54.199 174.9C54.2004 174.91 54.2003 174.918 54.2003 174.927C54.2017 174.947 54.203 174.966 54.2043 174.986C54.2043 174.996 54.2043 175.007 54.2057 175.016C54.2057 175.034 54.207 175.051 54.2083 175.07C54.2083 175.078 54.2083 175.088 54.2083 175.096C54.2097 175.12 54.211 175.143 54.2123 175.167C54.2123 175.179 54.2137 175.191 54.2137 175.203C54.2137 175.218 54.215 175.234 54.215 175.248C54.2163 175.26 54.2163 175.271 54.2163 175.283C54.2177 175.306 54.219 175.33 54.2203 175.354C54.2203 175.363 54.2203 175.371 54.2203 175.38C54.2216 175.399 54.2216 175.415 54.223 175.434C54.223 175.443 54.223 175.454 54.2243 175.462C54.2243 175.482 54.2257 175.502 54.2257 175.522C54.2257 175.528 54.227 175.536 54.227 175.544C54.227 175.568 54.2284 175.592 54.2297 175.618C54.2297 175.627 54.2297 175.635 54.2297 175.646C54.231 175.663 54.231 175.68 54.2324 175.699C54.2324 175.708 54.2324 175.716 54.2324 175.724C54.2337 175.75 54.2336 175.775 54.235 175.8C54.235 175.808 54.235 175.814 54.235 175.822C54.2363 175.842 54.2363 175.86 54.2376 175.882C54.2376 175.89 54.2376 175.896 54.2376 175.906C54.239 175.959 54.2403 176.012 54.2417 176.067C54.2417 176.071 54.2417 176.076 54.2417 176.079C54.243 176.107 54.243 176.134 54.243 176.16C54.4616 186.98 50.479 194.806 47.543 201.891Z" fill="#E9E8E8"/>
<path d="M45.043 209.3L45.239 208.656C45.551 207.632 45.8923 206.587 46.2803 205.511L46.3083 205.431L46.3096 205.427C46.751 204.23 47.1616 203.051 47.543 201.891C50.479 194.806 54.4616 186.98 54.243 176.16C54.4483 186.295 50.9696 193.799 48.115 200.534C47.619 202.164 47.063 203.839 46.4376 205.566C46.007 206.759 45.6257 207.922 45.2883 209.052L45.043 209.3ZM54.243 176.16C54.243 176.134 54.243 176.107 54.2417 176.079C54.243 176.107 54.243 176.132 54.243 176.16ZM54.2417 176.067C54.2403 176.012 54.239 175.959 54.2376 175.906C54.239 175.959 54.2403 176.012 54.2417 176.067ZM54.2376 175.882C54.2363 175.86 54.2363 175.842 54.235 175.822C54.2363 175.84 54.2363 175.862 54.2376 175.882ZM54.235 175.8C54.2336 175.775 54.2337 175.75 54.2324 175.724C54.2337 175.75 54.2336 175.775 54.235 175.8ZM54.2324 175.699C54.231 175.68 54.231 175.663 54.2297 175.646C54.231 175.663 54.231 175.682 54.2324 175.699ZM54.2297 175.618C54.2284 175.592 54.227 175.568 54.227 175.544C54.227 175.568 54.2284 175.592 54.2297 175.618ZM54.2257 175.522C54.2257 175.502 54.2243 175.482 54.2243 175.462C54.2243 175.482 54.2257 175.502 54.2257 175.522ZM54.223 175.434C54.2216 175.415 54.2216 175.399 54.2203 175.38C54.2216 175.398 54.2216 175.416 54.223 175.434ZM54.2203 175.354C54.219 175.33 54.2177 175.306 54.2163 175.283C54.2177 175.306 54.219 175.33 54.2203 175.354ZM54.215 175.248C54.215 175.234 54.2137 175.218 54.2137 175.203C54.2137 175.218 54.215 175.232 54.215 175.248ZM54.2123 175.167C54.211 175.143 54.2097 175.12 54.2083 175.096C54.2097 175.12 54.211 175.144 54.2123 175.167ZM54.2083 175.07C54.207 175.051 54.2057 175.034 54.2057 175.016C54.2057 175.035 54.207 175.051 54.2083 175.07ZM54.2043 174.986C54.203 174.966 54.2017 174.947 54.2003 174.927C54.2017 174.947 54.203 174.967 54.2043 174.986ZM54.199 174.9C54.199 174.876 54.1977 174.855 54.1964 174.831C54.1977 174.855 54.199 174.878 54.199 174.9ZM54.195 174.8C54.1937 174.784 54.1923 174.764 54.1923 174.747C54.1923 174.764 54.1937 174.783 54.195 174.8ZM54.191 174.722C54.1883 174.696 54.187 174.671 54.1857 174.646C54.187 174.671 54.1883 174.696 54.191 174.722ZM54.1843 174.62C54.1843 174.6 54.183 174.582 54.1816 174.562C54.183 174.583 54.1843 174.6 54.1843 174.62ZM54.1803 174.536C54.179 174.51 54.1763 174.483 54.175 174.456C54.1763 174.483 54.179 174.51 54.1803 174.536Z" fill="#E5BB94"/>
<path d="M178.665 201.89C175.626 194.554 171.465 186.424 172.005 175.003C172.005 175.002 172.005 174.999 172.005 174.998C172.007 174.939 172.01 174.88 172.014 174.822C172.014 174.819 172.014 174.818 172.014 174.815C172.015 174.788 172.017 174.762 172.018 174.735C172.018 174.732 172.018 174.728 172.018 174.726C172.021 174.698 172.022 174.67 172.023 174.64C172.023 174.636 172.023 174.635 172.023 174.631C172.025 174.607 172.026 174.583 172.027 174.559C172.029 174.552 172.029 174.546 172.029 174.539C172.03 174.511 172.033 174.484 172.034 174.456C172.083 173.636 172.581 172.952 173.155 172.366C173.373 172.144 173.694 171.626 174.161 170.647C174.145 170.792 174.129 170.942 174.114 171.095L174.11 171.126L174.097 171.154C173.739 171.86 173.483 172.268 173.275 172.483C172.709 173.058 172.243 173.711 172.201 174.467C172.147 175.334 172.123 176.183 172.123 177.014C172.123 186.504 175.351 193.658 178.097 200.114L178.099 200.122L178.102 200.128C178.282 200.711 178.47 201.298 178.665 201.89Z" fill="#E9E8E8"/>
<path d="M179.771 205.566C179.146 203.839 178.59 202.164 178.094 200.534C175.131 193.546 171.498 185.728 172.005 175.003C171.465 186.424 175.626 194.554 178.665 201.89C179.047 203.05 179.458 204.23 179.899 205.427V205.43L179.929 205.511L179.771 205.566ZM172.005 174.998C172.007 174.939 172.01 174.88 172.014 174.822C172.01 174.88 172.007 174.939 172.005 174.998ZM172.014 174.815C172.015 174.79 172.017 174.762 172.018 174.735C172.017 174.762 172.015 174.788 172.014 174.815ZM172.018 174.726C172.021 174.698 172.022 174.67 172.023 174.64C172.022 174.67 172.021 174.698 172.018 174.726ZM172.023 174.631C172.025 174.607 172.026 174.583 172.027 174.559C172.026 174.583 172.025 174.607 172.023 174.631ZM172.029 174.539C172.03 174.511 172.033 174.484 172.034 174.456C172.033 174.484 172.03 174.511 172.029 174.539Z" fill="#E5BB94"/>
<path d="M49.8848 164.18L49.8674 164.164L49.8541 164.127C49.7768 163.922 49.7127 163.722 49.6447 163.524L49.6394 163.51L49.6367 163.492C49.4674 162.227 49.3848 160.88 49.3848 159.467C49.3848 153.084 51.0834 145.328 54.2741 137.452L54.2794 137.44L54.2848 137.43C54.4581 137.14 54.63 136.855 54.8007 136.575C51.3607 144.767 49.5274 152.896 49.5314 159.514C49.5328 161.172 49.6501 162.735 49.8848 164.18Z" fill="#E5BB94"/>
<path d="M176.325 164.18C176.561 162.735 176.677 161.172 176.678 159.514C176.682 152.896 174.85 144.768 171.41 136.575C171.581 136.856 171.752 137.14 171.925 137.43L171.93 137.44L171.935 137.452C175.126 145.328 176.825 153.084 176.825 159.467C176.825 160.88 176.741 162.227 176.573 163.492L176.57 163.51L176.565 163.524C176.496 163.722 176.433 163.922 176.356 164.127L176.342 164.164L176.325 164.18Z" fill="#E5BB94"/>
<path d="M180.92 209.052L180.691 208.822C171.676 199.72 171.946 186.486 167.787 180.555C166.404 178.582 164.579 177.41 161.723 177.406C146.374 177.395 136.786 168.791 113.332 167.356H112.875C89.4217 168.791 79.8338 177.395 64.4844 177.406C61.6284 177.41 59.8031 178.582 58.4204 180.555C57.0418 182.531 56.1404 185.32 55.2298 188.498C53.4044 194.85 51.5324 202.754 45.5164 208.822L45.2871 209.052C45.6244 207.922 46.0057 206.759 46.4364 205.566C47.0617 203.839 47.6177 202.164 48.1137 200.534C50.9684 193.799 54.4471 186.295 54.2417 176.16C54.2417 176.132 54.2418 176.107 54.2404 176.079C54.2404 176.076 54.2404 176.071 54.2404 176.067C54.2391 176.012 54.2377 175.959 54.2364 175.906C54.2364 175.896 54.2364 175.89 54.2364 175.882C54.2351 175.862 54.2351 175.84 54.2337 175.822C54.2337 175.814 54.2337 175.808 54.2337 175.8C54.2324 175.775 54.2325 175.75 54.2311 175.724C54.2311 175.716 54.2311 175.708 54.2311 175.699C54.2298 175.682 54.2298 175.663 54.2284 175.646C54.2284 175.635 54.2284 175.627 54.2284 175.618C54.2271 175.592 54.2258 175.568 54.2258 175.544C54.2258 175.536 54.2244 175.528 54.2244 175.522C54.2244 175.502 54.2231 175.482 54.2231 175.462C54.2218 175.454 54.2217 175.443 54.2217 175.434C54.2204 175.416 54.2204 175.398 54.2191 175.38C54.2191 175.371 54.2191 175.363 54.2191 175.354C54.2177 175.33 54.2164 175.306 54.2151 175.283C54.2151 175.271 54.2151 175.26 54.2137 175.248C54.2137 175.232 54.2124 175.218 54.2124 175.203C54.2124 175.191 54.2111 175.179 54.2111 175.167C54.2097 175.144 54.2084 175.12 54.2071 175.096C54.2071 175.088 54.2071 175.078 54.2071 175.07C54.2058 175.051 54.2044 175.035 54.2044 175.016C54.2031 175.007 54.2031 174.996 54.2031 174.986C54.2017 174.967 54.2004 174.947 54.1991 174.927C54.1991 174.918 54.1991 174.91 54.1978 174.9C54.1978 174.878 54.1965 174.855 54.1951 174.831C54.1938 174.82 54.1937 174.811 54.1937 174.8C54.1924 174.783 54.1911 174.764 54.1911 174.747C54.1897 174.739 54.1898 174.73 54.1898 174.722C54.1871 174.696 54.1858 174.671 54.1844 174.646C54.1844 174.638 54.1844 174.628 54.1831 174.62C54.1831 174.6 54.1817 174.583 54.1804 174.562C54.1804 174.554 54.1791 174.544 54.1791 174.536C54.1778 174.51 54.1751 174.483 54.1738 174.456C54.1244 173.636 53.6271 172.952 53.0524 172.366C52.8351 172.144 52.5137 171.626 52.0471 170.646C51.8617 169.014 51.5818 167.89 51.3178 167.395C51.0911 166.966 50.8817 166.539 50.6831 166.115L50.6738 166.095L50.6711 166.074C50.5844 165.606 50.5044 165.124 50.4178 164.664C50.3404 164.595 50.1578 164.43 49.8978 164.192L49.8844 164.18C49.6498 162.735 49.5325 161.172 49.5311 159.514C49.5271 152.896 51.3604 144.767 54.8004 136.575C55.6564 135.166 56.4884 133.86 57.2137 132.671L57.5084 132.827C55.2204 137.834 52.5764 144.14 52.5791 149.663C52.5924 155.198 55.1764 159.932 63.5057 161.966C69.0457 163.308 73.9858 163.802 78.5711 163.802C78.5751 163.802 78.5778 163.802 78.5818 163.802C90.9911 163.802 100.82 160.174 112.87 159.966H113.34C125.391 160.174 135.22 163.803 147.636 163.802C152.222 163.802 157.162 163.308 162.702 161.966C171.031 159.932 173.614 155.198 173.628 149.663C173.63 144.14 170.986 137.834 168.699 132.827L168.992 132.671C169.719 133.862 170.551 135.167 171.408 136.575C174.848 144.768 176.68 152.896 176.676 159.514C176.675 161.172 176.559 162.735 176.323 164.18L176.31 164.192C176.05 164.43 175.867 164.595 175.79 164.664C175.703 165.124 175.623 165.606 175.536 166.074L175.534 166.095L175.524 166.115C175.326 166.539 175.116 166.966 174.89 167.395C174.626 167.89 174.346 169.014 174.16 170.647C173.694 171.626 173.372 172.144 173.155 172.366C172.58 172.952 172.083 173.636 172.034 174.456C172.032 174.484 172.03 174.511 172.028 174.539C172.028 174.546 172.028 174.552 172.027 174.559C172.026 174.583 172.024 174.607 172.023 174.631C172.023 174.635 172.023 174.636 172.023 174.64C172.022 174.67 172.02 174.698 172.018 174.726C172.018 174.728 172.018 174.732 172.018 174.735C172.016 174.762 172.015 174.79 172.014 174.815C172.014 174.818 172.014 174.819 172.014 174.822C172.01 174.88 172.007 174.939 172.004 174.998C172.004 174.999 172.004 175.002 172.004 175.003C171.498 185.728 175.131 193.546 178.094 200.534C178.59 202.164 179.146 203.839 179.771 205.566L179.614 205.622L179.612 205.62L179.584 205.539C178.918 203.728 178.32 201.96 177.786 200.235C175.044 193.788 171.79 186.579 171.79 177.014C171.79 176.176 171.815 175.32 171.867 174.447C171.922 173.562 172.451 172.846 173.036 172.25C173.191 172.094 173.443 171.707 173.784 171.031C173.974 169.147 174.267 167.864 174.595 167.24C174.815 166.823 175.019 166.407 175.212 165.994C175.3 165.516 175.383 165.022 175.472 164.547L175.483 164.492L175.524 164.455C175.526 164.454 175.723 164.278 176.056 163.972C176.122 163.795 176.179 163.615 176.243 163.431C176.408 162.187 176.49 160.86 176.49 159.467C176.49 153.146 174.804 145.428 171.63 137.588C171.08 136.668 170.535 135.788 170.014 134.951C172.01 139.53 173.959 144.854 173.962 149.663C173.975 155.308 171.22 160.259 162.78 162.29C157.214 163.638 152.246 164.135 147.636 164.135C135.151 164.132 125.316 160.5 113.338 160.299H112.872C100.891 160.5 91.0564 164.132 78.5711 164.135C73.9618 164.135 68.9924 163.638 63.4271 162.29C54.9871 160.259 52.2324 155.308 52.2458 149.663C52.2471 144.854 54.1977 139.53 56.1937 134.951C55.6711 135.79 55.1257 136.67 54.5777 137.59C51.4031 145.43 49.7178 153.146 49.7178 159.467C49.7178 160.86 49.7991 162.187 49.9645 163.431C50.0285 163.615 50.0857 163.795 50.1524 163.972C50.4857 164.278 50.6818 164.454 50.6818 164.455L50.7244 164.492L50.7351 164.547C50.8244 165.022 50.9071 165.515 50.9937 165.992C51.1884 166.407 51.3924 166.823 51.6124 167.24C51.9391 167.864 52.2351 169.147 52.4231 171.031C52.7631 171.707 53.0164 172.094 53.1711 172.25C53.7564 172.846 54.2858 173.562 54.3404 174.447C54.3924 175.32 54.4178 176.176 54.4178 177.014C54.4178 186.579 51.1618 193.79 48.4204 200.238C47.8858 201.963 47.2884 203.731 46.6217 205.542L46.5937 205.622C46.2911 206.46 46.0178 207.28 45.7631 208.087C54.1871 199.126 53.9857 186.371 58.1471 180.364C59.5617 178.326 61.5257 177.072 64.4671 177.072C64.4724 177.072 64.4778 177.072 64.4844 177.072C64.4938 177.072 64.5004 177.072 64.5098 177.072C79.6924 177.071 89.3298 168.472 112.859 167.023H113.348C136.879 168.472 146.512 177.072 161.698 177.072C161.706 177.072 161.715 177.072 161.723 177.072C161.73 177.072 161.735 177.072 161.74 177.072C164.682 177.072 166.646 178.327 168.06 180.364C169.482 182.406 170.384 185.223 171.299 188.406C173.075 194.595 174.887 202.168 180.444 208.086C180.19 207.279 179.916 206.46 179.614 205.622L179.771 205.566C180.202 206.759 180.583 207.922 180.92 209.052Z" fill="#369E55"/>
</svg>
