<svg width="244" height="581" viewBox="0 0 244 581" fill="none" xmlns="http://www.w3.org/2000/svg">
<path d="M199.187 248.056C196.962 235.563 175.381 227.859 160.57 230.871C127.001 237.696 121.881 291.535 121.881 303.109C121.881 341.36 128.225 381.624 127.641 386.151C125.082 405.988 128.809 410.271 128.202 419.425C127.463 430.563 123.447 440.34 124.333 461.437C125.471 488.582 134.877 519.411 133.828 537.592C133.585 541.852 133.021 546.42 132.228 555.032C131.453 563.399 128.197 571.292 128.281 574.282C128.512 582.859 143.669 579.94 147.47 579.676C152.089 579.351 169.157 577.296 167.84 570.664C166.978 566.335 162.452 562.16 161.496 554.792C160.964 550.697 156.501 541.889 156.885 539.694C160.19 520.839 174.947 479.618 172.433 455.901C170.171 434.575 168.285 423.889 169.54 413.86C170.772 404.007 169.54 398.524 177.062 378.217C188.03 348.619 204.094 290.503 199.187 248.056Z" fill="#FBCDA3"/>
<path d="M223.461 228.272C221.265 228.251 217.362 227.135 208.622 214.864C199.321 201.806 184.894 163.294 179.206 141.775C177.475 135.235 169.457 127.316 168.465 125.324C156.009 100.332 171.401 92.6522 178.777 94.3455C209.539 101.408 239.225 149.391 240.627 213.27C240.709 216.988 244.014 228.468 223.461 228.272Z" fill="#FBCDA3"/>
<path d="M239.03 285.327C239.563 280.672 235.545 279.989 232.823 279.032C228.814 277.624 222.026 278.537 218.798 282.575C216.454 287.335 211.835 285.997 207.262 300.237C206.035 304.064 204.726 307.749 203.892 311.149C203.804 311.477 210.237 311.353 212.017 307.805C216.332 299.253 217.422 300.723 219.778 297.871C218.985 301.811 221.933 307.191 216.309 316C212.756 321.567 208.538 324.395 210.87 327.168C213.203 329.94 226.535 323.772 234.851 307.772C238.29 301.155 240.83 293.081 239.03 285.327Z" fill="#FBCDA3"/>
<path d="M218.079 284.41C219 290.352 226.744 289.15 229.342 289.3C231.939 289.446 238.183 288.447 238.838 284.008C239.244 281.227 238.9 277.926 239.327 274.504C244.3 234.632 245.608 219.158 234.487 202.814C232.066 199.254 226.346 193.176 220.822 195.087C213.051 197.771 210.179 192.926 206.987 221.699C204.458 244.475 218.08 284.412 218.079 284.41Z" fill="#FBCDA3"/>
<path d="M44.5761 248.056C46.8014 235.563 68.3801 227.859 83.1921 230.871C116.761 237.696 121.88 291.535 121.88 303.109C121.88 341.36 115.537 381.624 116.121 386.151C118.681 405.988 114.955 410.271 115.56 419.425C116.3 430.563 120.316 440.34 119.429 461.437C118.292 488.582 108.885 519.411 109.935 537.592C110.177 541.852 110.741 546.42 111.536 555.032C112.311 563.399 115.567 571.292 115.483 574.282C115.251 582.859 100.093 579.94 96.2921 579.676C91.6748 579.351 74.6041 577.296 75.9241 570.664C76.7841 566.335 81.3121 562.16 82.2668 554.792C82.8001 550.697 87.2615 541.889 86.8775 539.694C83.5735 520.839 68.8148 479.618 71.3281 455.901C73.5921 434.575 75.4788 423.889 74.2241 413.86C72.9908 404.007 74.2241 398.524 66.7001 378.217C55.7335 348.619 39.6694 290.503 44.5761 248.056Z" fill="#FBCDA3"/>
<path d="M20.3029 228.272C22.4962 228.251 26.4015 227.135 35.1402 214.864C44.4402 201.806 58.8696 163.294 64.5576 141.775C66.2869 135.235 74.3068 127.316 75.2988 125.324C87.7548 100.332 72.3615 92.6522 64.9842 94.3455C34.2229 101.408 4.53756 149.391 3.13622 213.27C3.05222 216.988 -0.251776 228.468 20.3029 228.272Z" fill="#FBCDA3"/>
<path d="M4.73453 285.327C4.19987 280.672 8.21721 279.989 10.9399 279.032C14.9505 277.624 21.7385 278.537 24.9665 282.575C27.3105 287.335 31.9279 285.997 36.5012 300.237C37.7292 304.064 39.0385 307.749 39.8732 311.149C39.9599 311.477 33.5278 311.353 31.7465 307.805C27.4318 299.253 26.3425 300.723 23.9852 297.871C24.7785 301.811 21.8305 307.191 27.4545 316C31.0092 321.567 35.2252 324.395 32.8932 327.168C30.5599 329.94 17.2292 323.772 8.91318 307.772C5.47318 301.155 2.9332 293.081 4.73453 285.327Z" fill="#FBCDA3"/>
<path d="M25.6852 284.41C24.7626 290.352 17.0186 289.15 14.4226 289.3C11.8226 289.446 5.58125 288.447 4.92658 284.008C4.51991 281.227 4.86389 277.926 4.43589 274.504C-0.537443 234.632 -1.84544 219.158 9.27456 202.814C11.6972 199.254 17.4186 193.176 22.9399 195.087C30.7119 197.771 33.5839 192.926 36.7759 221.699C39.3053 244.475 25.6839 284.412 25.6852 284.41Z" fill="#FBCDA3"/>
<path d="M184.147 176C189.71 161.197 186.723 148.537 181.462 131.069C178.152 120.089 178.708 107.999 182.367 95.5041C172.006 91.5868 152.964 88.2735 148.97 85.8281C140.611 80.7081 141.019 71.6428 142.358 62.8615C143.214 57.2481 133.123 57.3028 126.911 57.3575C125.326 57.3708 123.994 57.3841 123.16 57.3041V57.2108L121.938 57.2068H121.823L120.6 57.2108V57.3041C119.767 57.3841 118.435 57.3708 116.851 57.3575C110.639 57.3028 100.548 57.2481 101.404 62.8615C102.743 71.6428 103.151 80.7081 94.7938 85.8281C90.7991 88.2735 71.7564 91.5868 61.3964 95.5041C65.0524 107.999 65.6084 120.089 62.3017 131.069C57.039 148.537 54.0524 161.197 59.6164 176C62.5897 183.909 38.2684 222.38 44.7297 273.131C44.967 274.989 52.4884 274.468 61.7017 273.947C72.0924 273.359 84.6351 272.771 91.3084 275.597C100.295 279.404 108.511 301.553 120.6 303.029V303.032L120.638 303.035C121.047 303.081 121.462 303.112 121.88 303.109C122.302 303.112 122.715 303.081 123.124 303.035L123.16 303.032V303.029C135.252 301.553 143.468 279.404 152.455 275.597C159.127 272.771 171.67 273.359 182.06 273.947C191.275 274.468 198.796 274.989 199.034 273.131C205.494 222.38 181.171 183.909 184.147 176Z" fill="#FBCDA3"/>
<path d="M156.595 23.4909C156.179 21.3642 156.837 19.4762 156.053 17.4055C155.463 15.8375 153.653 14.6055 152.716 13.2629C151.545 11.5869 151.168 10.2229 149.853 8.60688C148.399 6.82688 146.523 6.53217 144.549 5.49484C141.804 4.0495 140.675 2.55351 137.615 1.93885C132.369 0.881514 127.584 0.0295287 122.061 0.154862H121.701C116.179 0.0295287 111.392 0.881514 106.148 1.93885C103.088 2.55351 101.957 4.0495 99.212 5.49484C97.24 6.53217 95.3627 6.82688 93.9094 8.60688C92.592 10.2229 92.2147 11.5869 91.0454 13.2629C90.108 14.6055 88.2987 15.8375 87.7067 17.4055C86.924 19.4762 87.5827 21.3642 87.1667 23.4909C86.7734 25.4909 85.708 27.4788 85.928 29.5615C86.148 31.6175 87.4161 33.3829 87.0387 35.6162C86.6694 37.8295 87.2974 40.1575 88.4747 42.2509C90.0547 45.0642 88.7654 46.3362 89.856 49.3055C91.1307 52.7882 92.9161 56.1882 95.5054 59.1135C98.4121 62.4002 102.404 65.0989 107.136 66.1482L121.701 66.7655H122.061L136.627 66.1482C141.359 65.0989 145.349 62.4002 148.256 59.1135C150.847 56.1882 152.631 52.7882 153.905 49.3055C154.995 46.3362 153.707 45.0642 155.288 42.2509C156.465 40.1575 157.093 37.8295 156.723 35.6162C156.347 33.3829 157.612 31.6175 157.832 29.5615C158.053 27.4788 156.987 25.4909 156.595 23.4909Z" fill="#795C48"/>
<path d="M147.969 41.8189C147.969 41.8189 149.841 37.9095 151.138 40.6962C153.529 45.8429 148.813 52.6629 148.729 53.7722C148.649 54.8802 147.969 41.8189 147.969 41.8189Z" fill="#FBCDA3"/>
<path d="M95.7915 41.8189C95.7915 41.8189 93.9208 37.9095 92.6222 40.6962C90.2328 45.8429 94.9488 52.6629 95.0328 53.7722C95.1115 54.8802 95.7915 41.8189 95.7915 41.8189Z" fill="#FBCDA3"/>
<path d="M142.291 63.3322C137.871 64.6535 132.685 66.1802 131.517 66.9909C129.099 68.6655 124.327 70.1895 122.238 70.3415V70.3055L121.918 70.3562L121.881 70.3509L121.845 70.3562L121.526 70.3055V70.3415C119.435 70.1895 114.662 68.6655 112.247 66.9909C111.078 66.1802 105.893 64.6535 101.473 63.3322C102.185 68.1348 102.967 71.3228 101.762 75.5602C106.563 81.4135 114.461 87.7869 121.845 87.7869L121.881 87.7842L121.918 87.7869C129.303 87.7869 137.198 81.4135 141.999 75.5602C140.795 71.3228 141.579 68.1348 142.291 63.3322Z" fill="#EAC097"/>
<path d="M147.506 37.9949C145.246 32.3575 145.865 29.1749 144.89 25.9082C143.88 22.5122 143.144 21.1415 141.462 20.3455C139.476 19.4029 137.214 19.7482 132.918 20.0922C130.236 20.3069 126.758 20.5229 122.06 20.4242H121.702C117.002 20.5229 113.525 20.3069 110.842 20.0922C106.546 19.7482 104.285 19.4029 102.3 20.3455C100.617 21.1415 99.8809 22.5122 98.8702 25.9082C97.8969 29.1749 98.5156 32.3575 96.2556 37.9949C90.9236 51.2895 95.8849 58.4202 98.1049 65.6469C100.18 72.3922 109.728 82.8416 121.702 82.8416H122.06C134.034 82.8416 143.582 72.3922 145.656 65.6469C147.876 58.4202 152.838 51.2895 147.506 37.9949Z" fill="#FBCDA3"/>
<path d="M121.893 56.5869H121.881H121.872C119.329 56.4389 116.997 56.0735 115.369 54.8935C116.425 55.3068 119.115 55.5148 121.801 55.5148L121.881 55.5135L121.964 55.5148C124.649 55.5148 127.339 55.3068 128.395 54.8935C126.765 56.0735 124.433 56.4389 121.893 56.5869Z" fill="#E8BD96"/>
<path d="M128.691 66.2002C126.691 65.7429 125.987 64.9869 123.322 64.6002C122.665 64.4989 122.318 64.8762 121.881 64.9549C121.445 64.8762 121.097 64.4989 120.441 64.6002C117.774 64.9869 117.073 65.7429 115.073 66.2002C114.841 66.2536 114.422 66.2136 114.321 66.3456C114.126 66.6029 115.766 67.6789 116.577 68.0109C117.465 68.3802 119.685 68.7722 121.881 68.7736C124.079 68.7722 126.298 68.3802 127.187 68.0109C127.997 67.6789 129.637 66.6029 129.441 66.3456C129.342 66.2136 128.923 66.2536 128.691 66.2002Z" fill="#ECB593"/>
<path d="M128.691 66.2002C126.691 65.7429 125.987 64.9869 123.322 64.6002C122.664 64.4989 122.318 64.8762 121.88 64.9549C121.444 64.8762 121.096 64.4989 120.44 64.6002C117.774 64.9869 117.072 65.7429 115.072 66.2002C114.84 66.2535 114.422 66.2136 114.32 66.3456L114.324 66.4122C114.436 66.4309 114.608 66.4455 114.896 66.4255C114.904 66.4255 118.647 65.8215 120.359 66.4709C120.822 66.6482 121.516 66.6989 121.852 66.7122H121.91C122.247 66.6989 122.939 66.6482 123.403 66.4709C125.115 65.8215 128.858 66.4255 128.867 66.4255C129.154 66.4455 129.326 66.4309 129.438 66.4122L129.44 66.3456C129.342 66.2136 128.923 66.2535 128.691 66.2002Z" fill="#E1AE8D"/>
<path d="M140.206 41.8148C140.206 41.8148 137.405 44.3402 134.657 44.4122C130.355 44.5242 129.447 43.0868 129.447 43.0868C129.447 43.0868 129.875 39.9255 133.905 40.1015C137.731 40.2682 140.206 41.8148 140.206 41.8148Z" fill="white"/>
<path d="M136.343 42.4775C136.403 41.2895 135.502 40.2789 134.306 40.1362L134.074 40.1162C132.83 40.0922 131.779 41.0322 131.719 42.2535C131.675 43.1655 132.198 43.9749 132.981 44.3682C133.474 44.4082 134.023 44.4282 134.655 44.4122C134.806 44.4082 134.954 44.3722 135.105 44.3535C135.806 43.9949 136.301 43.3029 136.343 42.4775Z" fill="#3871C1"/>
<path d="M133.961 43.8202C134.788 43.8602 135.486 43.2415 135.528 42.4388C135.569 41.6362 134.93 40.9495 134.106 40.9108C133.281 40.8695 132.582 41.4908 132.541 42.2935C132.501 43.0962 133.137 43.7802 133.961 43.8202Z" fill="#231F20"/>
<path d="M135.616 42.0109C135.604 42.2362 135.405 42.4109 135.165 42.3975C134.928 42.3869 134.741 42.1949 134.755 41.9695L134.763 41.8202C134.772 41.5936 134.977 41.4202 135.211 41.4322C135.452 41.4429 135.636 41.6362 135.625 41.8615L135.616 42.0109Z" fill="white"/>
<path d="M129.447 43.0869C129.707 41.9855 130.019 40.9562 131.146 40.5055C135.166 38.8922 139.337 41.5349 140.178 41.7215C139.057 41.8655 137.779 41.0175 136.277 40.8028C132.939 40.3242 130.657 40.4055 129.447 43.0869Z" fill="#91816F"/>
<path d="M128.403 37.5015C128.121 34.7122 134.655 34.6642 136.685 34.9469C139.637 35.2189 141.369 36.6722 141.079 37.5295C138.699 36.9429 138.585 36.6309 135.727 36.6722C130.379 36.7509 128.55 38.9495 128.403 37.5015Z" fill="#8F8780"/>
<path d="M103.559 41.8148C103.559 41.8148 106.36 44.3402 109.107 44.4122C113.409 44.5242 114.316 43.0868 114.316 43.0868C114.316 43.0868 113.888 39.9255 109.86 40.1015C106.033 40.2682 103.559 41.8148 103.559 41.8148Z" fill="white"/>
<path d="M107.419 42.4775C107.359 41.2895 108.26 40.2789 109.456 40.1362L109.688 40.1162C110.93 40.0922 111.982 41.0322 112.042 42.2535C112.087 43.1655 111.564 43.9749 110.781 44.3682C110.288 44.4082 109.737 44.4282 109.105 44.4122C108.956 44.4082 108.807 44.3722 108.655 44.3535C107.956 43.9949 107.462 43.3029 107.419 42.4775Z" fill="#3871C1"/>
<path d="M109.802 43.8202C108.976 43.8602 108.275 43.2415 108.236 42.4388C108.195 41.6362 108.832 40.9495 109.656 40.9108C110.483 40.8695 111.182 41.4908 111.222 42.2935C111.262 43.0962 110.627 43.7802 109.802 43.8202Z" fill="#231F20"/>
<path d="M108.149 42.0109C108.158 42.2362 108.359 42.4109 108.598 42.3975C108.835 42.3869 109.022 42.1949 109.01 41.9695L109.002 41.8202C108.99 41.5936 108.787 41.4202 108.553 41.4322C108.311 41.4429 108.127 41.6362 108.139 41.8615L108.149 42.0109Z" fill="white"/>
<path d="M114.315 43.0869C114.055 41.9855 113.745 40.9562 112.618 40.5055C108.597 38.8922 104.426 41.5349 103.586 41.7215C104.706 41.8655 105.985 41.0175 107.486 40.8028C110.823 40.3242 113.105 40.4055 114.315 43.0869Z" fill="#91816F"/>
<path d="M115.36 37.5015C115.643 34.7122 109.107 34.6642 107.079 34.9469C104.127 35.2189 102.393 36.6722 102.684 37.5295C105.064 36.9429 105.179 36.6309 108.035 36.6722C113.381 36.7509 115.212 38.9495 115.36 37.5015Z" fill="#8F8780"/>
<path d="M183.897 177.75L183.896 177.747C183.895 177.45 183.913 177.178 183.943 176.922L183.953 176.783C183.996 176.498 184.057 176.235 184.147 176C184.452 175.184 184.727 174.375 184.983 173.57C185.024 173.438 185.063 173.306 185.103 173.174C185.872 170.671 186.403 168.219 186.725 165.779L186.779 165.928V165.926L186.78 165.928C187.872 158.72 187.32 151.41 185.019 144.486C181.373 133.527 177.764 127.635 175.881 115.4C175.72 114.339 175.395 113.303 175.172 112.23L175.16 112.164C175.033 111.544 174.909 110.92 174.792 110.287C174.696 109.767 174.603 109.235 174.515 108.703C174.467 108.418 174.415 108.138 174.368 107.848C173.447 102.54 172.84 97.2255 172.767 92.5295L172.623 92.4909C172.095 92.3495 171.563 92.2082 171.028 92.0682C170.871 92.0282 170.712 91.9869 170.556 91.9469C170.087 91.8242 169.613 91.7016 169.141 91.5802C168.908 91.5216 168.677 91.4629 168.445 91.4042C168.105 91.3175 167.768 91.2322 167.429 91.1469C164.896 90.5109 162.388 89.8975 160.061 89.3135C159.287 89.1175 158.532 88.9255 157.803 88.7362C157.863 110.52 143.132 128.955 124.379 130.427C124.196 130.439 124.013 130.456 123.829 130.467C123.549 130.483 123.263 130.487 122.979 130.494C122.613 130.504 122.251 130.52 121.88 130.52C121.511 130.52 121.148 130.504 120.783 130.494C120.497 130.487 120.211 130.483 119.931 130.467C119.748 130.456 119.565 130.439 119.381 130.427C100.629 128.955 85.8987 110.52 85.9587 88.7362C85.2294 88.9255 84.4747 89.1175 83.7 89.3135C81.372 89.8975 78.8654 90.5109 76.3307 91.1469C75.992 91.2322 75.6547 91.3175 75.316 91.4042C75.084 91.4629 74.8533 91.5216 74.62 91.5802C74.148 91.7016 73.6747 91.8242 73.2054 91.9469C73.048 91.9869 72.8907 92.0282 72.7334 92.0682C72.1987 92.2082 71.6667 92.3495 71.1387 92.4909L70.9934 92.5295C70.9214 97.2255 70.3147 102.54 69.3934 107.848C69.3467 108.138 69.2947 108.418 69.2467 108.703C69.1574 109.235 69.0667 109.767 68.9694 110.287C68.852 110.92 68.728 111.544 68.6 112.164L68.5893 112.23C68.3667 113.303 68.04 114.339 67.8787 115.4C65.996 127.635 62.3867 133.527 58.7427 144.486C56.44 151.41 55.888 158.72 56.9813 165.928L56.9827 165.926V165.928L57.036 165.779C57.3587 168.219 57.8881 170.671 58.6574 173.174C58.6987 173.306 58.7373 173.438 58.7787 173.57C59.0347 174.375 59.3093 175.184 59.6147 176C59.704 176.235 59.764 176.498 59.808 176.783L59.8173 176.922C59.848 177.178 59.8667 177.45 59.8653 177.747L59.864 177.75C59.7947 187.579 42.3347 218.94 43.7254 260.412C43.6694 262.523 43.6627 264.663 43.6867 266.82C68.9467 295.692 110.491 298.416 120.008 298.672C120.992 298.699 121.635 298.699 121.88 298.699C122.127 298.699 122.768 298.699 123.753 298.672C133.269 298.416 174.815 295.692 200.075 266.82C200.097 264.663 200.092 262.523 200.036 260.412C201.427 218.94 183.967 187.579 183.897 177.75Z" fill="#DBEFF5"/>
<path d="M190.192 270.356C172.285 282.361 151.205 294.577 121.88 294.797C92.5547 294.577 71.4773 282.361 53.5706 270.356C50.2426 268.125 46.88 266.1 43.6706 264.339C43.6653 265.987 43.6906 267.651 43.7293 269.324C43.7373 269.641 43.748 269.96 43.756 270.277C43.7986 271.749 43.856 273.229 43.9307 274.717C43.9413 274.939 43.9506 275.159 43.9626 275.38C44.0546 277.111 44.1666 278.852 44.3013 280.599C44.312 280.727 44.3227 280.855 44.3333 280.981C44.456 282.563 44.5973 284.149 44.7533 285.741C44.7866 286.079 44.82 286.415 44.8547 286.752C45.024 288.417 45.2053 290.084 45.4053 291.755L45.4213 291.872C45.6333 293.641 45.868 295.416 46.1146 297.189C46.1506 297.459 46.192 297.728 46.2307 297.999C46.4453 299.508 46.6707 301.02 46.908 302.528C46.956 302.823 47 303.119 47.048 303.415C47.3266 305.163 47.6173 306.912 47.9253 308.653C55.0986 310.073 63.804 311.383 74.224 312.299C94.9427 314.121 115.484 311.257 121.812 310.241V310.183C121.856 307.823 121.88 305.463 121.88 303.109C121.88 305.463 121.907 307.823 121.951 310.183V310.241C128.277 311.257 148.819 314.121 169.539 312.299C179.957 311.383 188.663 310.073 195.836 308.653C196.144 306.912 196.435 305.163 196.713 303.415C196.761 303.119 196.807 302.823 196.855 302.528C197.092 301.02 197.317 299.508 197.532 297.999C197.571 297.728 197.609 297.459 197.648 297.189C197.895 295.416 198.129 293.641 198.341 291.872L198.356 291.755C198.556 290.084 198.739 288.417 198.908 286.752C198.94 286.415 198.975 286.079 199.008 285.741C199.163 284.149 199.307 282.563 199.428 280.981C199.437 280.855 199.451 280.727 199.461 280.599C199.595 278.852 199.707 277.111 199.8 275.38C199.812 275.159 199.819 274.939 199.831 274.717C199.907 273.229 199.964 271.749 200.005 270.277C200.015 269.96 200.025 269.641 200.032 269.324C200.072 267.651 200.095 265.987 200.092 264.339C196.881 266.1 193.52 268.125 190.192 270.356Z" fill="#3C44A2"/>
</svg>
