<svg width="277" height="581" viewBox="0 0 277 581" fill="none" xmlns="http://www.w3.org/2000/svg">
<path d="M217.73 180.026C222.569 150.538 196.333 136.14 197.293 95.0803C188.133 92.399 173.429 86.567 168.688 81.5883C161.778 74.3363 160.884 67.0616 160.34 62.2323C159.722 56.767 150.212 56.9577 144.016 57.1496C142.182 57.2057 140.64 57.2616 139.704 57.1723V57.0776L138.48 57.075H138.366L137.144 57.0776V57.1723C136.206 57.2616 134.664 57.2057 132.83 57.1496C126.634 56.9577 117.122 56.767 116.506 62.2323C115.961 67.0616 115.066 74.3363 108.157 81.5883C103.417 86.567 88.7132 92.399 79.5518 95.0803C80.5118 136.14 54.2758 150.538 59.1158 180.026C60.4478 188.147 38.3545 227.867 44.2278 277.156C44.4531 279.05 56.1252 277.527 69.6238 276.006C84.3612 274.343 101.278 272.68 107.849 275.466C116.836 279.272 125.052 301.422 137.144 302.899V302.902L137.18 302.904C137.589 302.952 138.002 302.982 138.424 302.979C138.842 302.982 139.257 302.952 139.666 302.904L139.704 302.902V302.899C151.793 301.422 160.009 279.272 168.996 275.466C175.566 272.68 192.484 274.343 207.222 276.006C220.72 277.527 232.392 279.05 232.617 277.156C238.492 227.867 216.398 188.147 217.73 180.026Z" fill="#FBCDA3"/>
<path d="M232.917 248.754C230.744 246.626 183.656 248.932 168.813 251.788C141.91 256.966 145.518 264.747 144.032 275.595C143.294 280.963 138.424 291.403 138.424 302.979C138.424 341.228 144.766 381.491 144.182 386.021C141.622 405.857 145.349 410.139 144.744 419.296C144.004 430.431 139.988 440.209 140.873 461.305C142.012 488.449 149.344 519.919 148.294 538.1C148.05 542.361 147.486 546.929 146.694 555.54C145.92 563.907 142.662 571.801 142.748 574.791C142.978 583.365 160.21 579.808 164.012 579.544C168.629 579.219 185.7 577.164 184.38 570.532C183.52 566.204 178.992 562.029 178.037 554.66C177.504 550.567 172.669 541.658 173.426 539.564C182.11 515.549 196.308 478.508 196.653 454.659C196.884 438.872 194.417 425.593 195.917 415.598C198.39 399.096 204.368 392.256 210.792 378.917C219.544 360.735 237.821 291.2 232.917 248.754Z" fill="#FBCDA3"/>
<path d="M253.447 222.214C251.264 222.446 247.259 221.788 237.159 210.611C226.412 198.712 207.635 162.124 199.496 141.407C197.024 135.11 187.926 128.298 186.928 126.307C180.068 112.619 190.455 95.0669 190.883 94.3989C193.092 94.5442 195.066 94.6575 197.294 95.0802C231.554 101.57 267.227 140.667 268.766 205.33C268.855 209.048 273.886 220.035 253.447 222.214Z" fill="#FBCDA3"/>
<path d="M274.977 276.47C274.942 271.455 270.661 271.202 267.7 270.504C263.333 269.479 256.364 271.251 253.506 275.926C251.665 281.264 246.676 280.387 243.71 296.074C242.917 300.287 242.017 304.359 241.578 308.076C241.529 308.432 248.228 307.54 249.637 303.559C253.053 293.959 254.377 295.391 256.476 292.082C256.149 296.364 259.912 301.738 255.158 311.77C252.154 318.11 248.114 321.614 250.901 324.291C253.689 326.963 266.82 318.828 273.469 300.832C276.218 293.388 277.842 284.503 274.977 276.47Z" fill="#FBCDA3"/>
<path d="M251.001 278.595C252.602 284.392 263.739 282.304 266.335 282.154C268.934 281.999 275.019 280.286 275.156 275.8C275.239 272.991 274.518 269.754 274.546 266.304C274.88 226.124 274.394 210.603 261.461 195.652C258.643 192.396 252.261 187.02 246.994 189.556C239.586 193.118 232.426 189.927 232.577 218.876C232.697 241.791 246.32 257.298 250.251 272.888C250.883 275.398 251.001 278.598 251.001 278.595Z" fill="#FBCDA3"/>
<path d="M43.9297 248.754C46.1031 246.626 93.1911 248.932 108.034 251.788C134.936 256.966 131.328 264.747 132.816 275.595C133.551 280.963 138.424 291.403 138.424 302.979C138.424 341.228 132.08 381.491 132.664 386.021C135.224 405.857 131.496 410.139 132.103 419.296C132.842 430.431 136.858 440.209 135.972 461.305C134.834 488.449 127.503 519.919 128.552 538.1C128.795 542.361 129.359 546.929 130.151 555.54C130.928 563.907 134.184 571.801 134.099 574.791C133.868 583.365 116.636 579.808 112.835 579.544C108.216 579.219 91.1484 577.164 92.4657 570.532C93.3271 566.204 97.8538 562.029 98.8111 554.66C99.3418 550.567 104.178 541.658 103.42 539.564C94.7351 515.549 80.5391 478.508 80.1938 454.659C79.9618 438.872 82.4297 425.593 80.9297 415.598C78.4551 399.096 72.4805 392.256 66.0551 378.917C57.3018 360.735 39.0244 291.2 43.9297 248.754Z" fill="#FBCDA3"/>
<path d="M23.3991 222.214C25.5818 222.446 29.5898 221.788 39.6871 210.611C50.4351 198.712 69.2111 162.124 77.3511 141.407C79.8231 135.11 88.9218 128.298 89.9191 126.307C96.7791 112.619 86.3911 95.0669 85.9631 94.3989C83.7551 94.5442 81.7818 94.6575 79.5525 95.0802C45.2938 101.57 9.61911 140.667 8.08177 205.33C7.99111 209.048 2.96043 220.035 23.3991 222.214Z" fill="#FBCDA3"/>
<path d="M1.86906 276.47C1.9024 271.455 6.18374 271.202 9.14641 270.504C13.5131 269.479 20.4824 271.251 23.3384 275.926C25.1797 281.264 30.1704 280.387 33.1357 296.074C33.9291 300.287 34.8277 304.359 35.2664 308.076C35.3171 308.432 28.6184 307.54 27.209 303.559C23.793 293.959 22.4677 295.391 20.3717 292.082C20.6971 296.364 16.9344 301.738 21.6864 311.77C24.6917 318.11 28.7317 321.614 25.945 324.291C23.1557 326.963 10.0251 318.828 3.37707 300.832C0.627738 293.388 -0.997603 284.503 1.86906 276.47Z" fill="#FBCDA3"/>
<path d="M25.8464 278.595C24.2437 284.392 13.1077 282.304 10.5104 282.154C7.91306 281.999 1.8264 280.286 1.6904 275.8C1.6064 272.991 2.32771 269.754 2.29971 266.304C1.96505 226.124 2.4517 210.603 15.3864 195.652C18.2037 192.396 24.5864 187.02 29.853 189.556C37.261 193.118 44.4224 189.927 44.2704 218.876C44.1504 241.791 30.525 257.298 26.5957 272.888C25.9637 275.398 25.8464 278.598 25.8464 278.595Z" fill="#FBCDA3"/>
<path d="M174.566 23.3589C174.131 21.2322 174.816 19.3442 174.002 17.2722C173.386 15.7055 171.503 14.4722 170.526 13.1296C169.309 11.4536 168.915 10.0909 167.543 8.47488C166.032 6.69488 164.078 6.40157 162.024 5.3629C159.164 3.91757 157.988 2.42021 154.803 1.80555C149.342 0.749544 144.362 -0.10247 138.611 0.0228637H138.236C132.486 -0.10247 127.506 0.749544 122.043 1.80555C118.858 2.42021 117.682 3.91757 114.823 5.3629C112.77 6.40157 110.816 6.69488 109.303 8.47488C107.932 10.0909 107.538 11.4536 106.32 13.1296C105.344 14.4722 103.462 15.7055 102.846 17.2722C102.03 19.3442 102.715 21.2322 102.282 23.3589C101.872 25.3589 100.764 27.3469 100.994 29.4296C101.224 31.4856 102.542 33.2496 102.15 35.4842C101.764 37.6962 102.419 40.0242 103.643 42.1176C105.288 44.9322 103.947 46.2029 105.082 49.1735C106.408 52.6562 108.268 56.0562 110.963 58.9816C113.99 62.2682 118.146 64.9656 123.074 66.0149L138.236 66.6322H138.611L153.774 66.0149C158.7 64.9656 162.858 62.2682 165.883 58.9816C168.579 56.0562 170.438 52.6562 171.766 49.1735C172.899 46.2029 171.558 44.9322 173.203 42.1176C174.43 40.0242 175.083 37.6962 174.696 35.4842C174.306 33.2496 175.623 31.4856 175.852 29.4296C176.083 27.3469 174.974 25.3589 174.566 23.3589Z" fill="#795C48"/>
<path d="M166.816 41.6869C166.816 41.6869 168.69 37.7775 169.986 40.5628C172.375 45.7108 167.66 52.5295 167.576 53.6389C167.496 54.7469 166.816 41.6869 166.816 41.6869Z" fill="#FBCDA3"/>
<path d="M110.03 41.6869C110.03 41.6869 108.155 37.7775 106.861 40.5628C104.471 45.7108 109.185 52.5295 109.269 53.6389C109.35 54.7469 110.03 41.6869 110.03 41.6869Z" fill="#FBCDA3"/>
<path d="M160.398 62.7295C155.729 64.1388 149.368 65.9495 148.058 66.8575C145.644 68.5335 140.87 70.0562 138.78 70.2095V70.1722L138.461 70.2242L138.425 70.2175L138.388 70.2242L138.068 70.1722V70.2095C135.978 70.0562 131.206 68.5335 128.789 66.8575C127.481 65.9495 121.12 64.1388 116.45 62.7295C116.054 66.1575 117.389 66.7802 114.65 71.6388C117.654 79.7322 128.794 87.6548 138.388 87.6548L138.425 87.6522L138.461 87.6548C148.053 87.6548 159.194 79.7322 162.2 71.6388C159.46 66.7802 160.793 66.1575 160.398 62.7295Z" fill="#EAC097"/>
<path d="M165.222 37.8628C162.74 32.2708 163.504 29.0428 162.486 25.7762C161.428 22.3802 160.657 21.0108 158.9 20.2122C156.824 19.2708 154.46 19.6148 149.97 19.9588C147.164 20.1748 143.527 20.3895 138.611 20.2909H138.236C133.32 20.3895 129.683 20.1748 126.876 19.9588C122.385 19.6148 120.023 19.2708 117.947 20.2122C116.188 21.0108 115.42 22.3802 114.361 25.7762C113.343 29.0428 114.107 32.2708 111.625 37.8628C105.148 52.4575 109.303 58.6055 111.625 65.8335C113.795 72.5788 121.998 82.7082 138.236 82.7082H138.611C154.848 82.7082 163.052 72.5788 165.222 65.8335C167.543 58.6055 171.7 52.4575 165.222 37.8628Z" fill="#FBCDA3"/>
<path d="M138.433 56.4549L138.424 56.4536L138.411 56.4549C135.87 56.3069 133.538 55.9402 131.91 54.7602C132.966 55.1749 135.655 55.3816 138.341 55.3816L138.424 55.3802L138.503 55.3816C141.19 55.3816 143.878 55.1749 144.934 54.7602C143.307 55.9402 140.975 56.3069 138.433 56.4549Z" fill="#E8BD96"/>
<path d="M138.424 64.8229C138.86 64.7442 139.206 64.3655 139.864 64.4682C142.53 64.8549 143.232 65.6109 145.232 66.0682C145.464 66.1202 145.882 66.0802 145.984 66.2135C146.178 66.4709 144.538 67.5469 143.728 67.8789C142.84 68.2469 140.62 68.6402 138.424 68.6415V64.8229Z" fill="#ECB593"/>
<path d="M138.424 64.8229C138.86 64.7442 139.206 64.3655 139.864 64.4682C142.53 64.8549 143.232 65.6109 145.232 66.0682C145.464 66.1202 145.882 66.0802 145.984 66.2135L145.98 66.2802C145.869 66.2989 145.696 66.3135 145.408 66.2935C145.4 66.2922 141.657 65.6895 139.945 66.3375C139.482 66.5162 138.788 66.5669 138.452 66.5802H138.424V64.8229Z" fill="#E1AE8D"/>
<path d="M138.424 64.8229C137.986 64.7442 137.64 64.3655 136.982 64.4682C134.317 64.8549 133.613 65.6109 131.614 66.0682C131.381 66.1202 130.962 66.0802 130.864 66.2135C130.668 66.4709 132.308 67.5469 133.117 67.8789C134.006 68.2469 136.225 68.6402 138.424 68.6415V64.8229Z" fill="#ECB593"/>
<path d="M138.423 64.8229C137.986 64.7442 137.639 64.3655 136.982 64.4682C134.317 64.8549 133.613 65.6109 131.614 66.0682C131.381 66.1202 130.962 66.0802 130.863 66.2135L130.867 66.2802C130.978 66.2989 131.15 66.3135 131.437 66.2935C131.446 66.2922 135.189 65.6895 136.901 66.3375C137.365 66.5162 138.057 66.5669 138.394 66.5802H138.423V64.8229Z" fill="#E1AE8D"/>
<path d="M156.748 41.6829C156.748 41.6829 153.946 44.2069 151.2 44.2802C146.897 44.3909 145.99 42.9549 145.99 42.9549C145.99 42.9549 146.418 39.7936 150.446 39.9696C154.274 40.1362 156.748 41.6829 156.748 41.6829Z" fill="white"/>
<path d="M152.885 42.3456C152.945 41.1562 152.044 40.1469 150.849 40.0042L150.616 39.9842C149.373 39.9602 148.322 40.9002 148.262 42.1202C148.217 43.0336 148.74 43.8429 149.523 44.2362C150.016 44.2749 150.567 44.2962 151.199 44.2802C151.349 44.2749 151.497 44.2389 151.649 44.2216C152.348 43.8629 152.843 43.1709 152.885 42.3456Z" fill="#3871C1"/>
<path d="M150.504 43.6882C151.329 43.7282 152.03 43.1082 152.069 42.3055C152.11 41.5029 151.473 40.8176 150.649 40.7776C149.824 40.7376 149.124 41.3575 149.084 42.1602C149.044 42.9642 149.678 43.6469 150.504 43.6882Z" fill="#231F20"/>
<path d="M152.157 41.8789C152.147 42.1042 151.946 42.2775 151.706 42.2655C151.47 42.2549 151.283 42.0615 151.295 41.8362L151.303 41.6869C151.315 41.4615 151.518 41.2882 151.754 41.2989C151.994 41.3109 152.178 41.5029 152.166 41.7295L152.157 41.8789Z" fill="white"/>
<path d="M145.99 42.9549C146.25 41.8536 146.561 40.8242 147.688 40.3735C151.708 38.7602 155.88 41.4029 156.72 41.5896C155.598 41.7322 154.321 40.8842 152.818 40.6695C149.484 40.1909 147.201 40.2722 145.99 42.9549Z" fill="#91816F"/>
<path d="M144.944 37.3695C144.662 34.5789 151.198 34.5309 153.226 34.8135C156.178 35.0869 157.911 36.5389 157.62 37.3962C155.24 36.8109 155.126 36.4989 152.27 36.5389C146.923 36.6175 145.092 38.8175 144.944 37.3695Z" fill="#8F8780"/>
<path d="M120.1 41.6829C120.1 41.6829 122.902 44.2069 125.649 44.2802C129.95 44.3909 130.858 42.9549 130.858 42.9549C130.858 42.9549 130.43 39.7936 126.401 39.9696C122.574 40.1362 120.1 41.6829 120.1 41.6829Z" fill="white"/>
<path d="M123.96 42.3456C123.9 41.1562 124.801 40.1469 125.997 40.0042L126.229 39.9842C127.473 39.9602 128.524 40.9002 128.584 42.1202C128.628 43.0336 128.105 43.8429 127.322 44.2362C126.829 44.2749 126.28 44.2962 125.648 44.2802C125.497 44.2749 125.349 44.2389 125.198 44.2216C124.497 43.8629 124.003 43.1709 123.96 42.3456Z" fill="#3871C1"/>
<path d="M126.344 43.6882C125.517 43.7282 124.817 43.1082 124.777 42.3055C124.737 41.5029 125.373 40.8176 126.198 40.7776C127.024 40.7376 127.724 41.3575 127.762 42.1602C127.804 42.9642 127.168 43.6469 126.344 43.6882Z" fill="#231F20"/>
<path d="M124.689 41.8789C124.701 42.1042 124.9 42.2775 125.141 42.2655C125.377 42.2549 125.564 42.0615 125.551 41.8362L125.544 41.6869C125.533 41.4615 125.328 41.2882 125.095 41.2989C124.853 41.3109 124.669 41.5029 124.68 41.7295L124.689 41.8789Z" fill="white"/>
<path d="M130.858 42.9549C130.597 41.8536 130.286 40.8242 129.16 40.3735C125.141 38.7602 120.969 41.4029 120.129 41.5896C121.25 41.7322 122.528 40.8842 124.029 40.6695C127.366 40.1909 129.649 40.2722 130.858 42.9549Z" fill="#91816F"/>
<path d="M131.902 37.3695C132.184 34.5789 125.65 34.5309 123.62 34.8135C120.668 35.0869 118.936 36.5389 119.227 37.3962C121.606 36.8109 121.72 36.4989 124.578 36.5389C129.926 36.6175 131.755 38.8175 131.902 37.3695Z" fill="#8F8780"/>
<path d="M233.561 256.776V256.771C232.895 227.3 223.809 203.028 219.689 189.678L219.679 189.648C219.339 188.544 219.028 187.504 218.763 186.555L218.732 186.447L218.665 186.196L218.577 185.866L218.545 185.751C218.491 185.544 218.433 185.334 218.384 185.134C218.352 185.006 218.324 184.883 218.295 184.76C218.253 184.588 218.213 184.423 218.176 184.259L218.1 183.93C218.064 183.763 218.032 183.603 217.998 183.444L217.985 183.362C217.955 183.214 217.928 183.071 217.903 182.93L217.885 182.839C217.861 182.695 217.836 182.554 217.817 182.416L217.785 182.176C217.767 182.031 217.747 181.888 217.735 181.751L217.707 181.503C217.697 181.371 217.695 181.251 217.692 181.13L217.68 180.796L217.677 180.704C217.681 180.46 217.7 180.231 217.732 180.027C217.884 179.099 218.004 178.187 218.097 177.288C218.131 176.97 218.143 176.663 218.167 176.347C218.213 175.771 218.267 175.192 218.291 174.626C218.299 174.438 218.292 174.255 218.297 174.067C218.299 173.912 218.3 173.755 218.303 173.598C218.312 173.076 218.329 172.551 218.319 172.038L218.315 171.93C218.304 171.598 218.281 171.271 218.267 170.943C218.247 170.466 218.233 169.988 218.197 169.519C218.183 169.352 218.159 169.19 218.144 169.024C218.121 168.819 218.1 168.612 218.08 168.408C218.032 167.958 217.991 167.503 217.931 167.058C217.879 166.668 217.808 166.286 217.745 165.9C217.677 165.482 217.616 165.059 217.537 164.644C217.493 164.42 217.444 164.2 217.395 163.979C217.363 163.818 217.325 163.656 217.291 163.494C217.204 163.087 217.121 162.68 217.023 162.278C216.929 161.894 216.823 161.516 216.721 161.136C216.616 160.742 216.517 160.346 216.404 159.954C216.346 159.754 216.279 159.556 216.219 159.358C216.159 159.166 216.1 158.971 216.04 158.778C215.923 158.402 215.809 158.026 215.685 157.651C215.545 157.231 215.395 156.814 215.248 156.396C215.127 156.055 215.009 155.712 214.883 155.372C214.723 154.942 214.553 154.511 214.385 154.082C214.26 153.755 214.134 153.428 214.004 153.104C213.822 152.655 213.635 152.206 213.445 151.756C213.319 151.448 213.192 151.14 213.059 150.834C212.857 150.363 212.649 149.892 212.44 149.422C212.317 149.142 212.196 148.86 212.068 148.579C211.827 148.042 211.581 147.503 211.332 146.964C211.242 146.764 211.152 146.566 211.06 146.367C210.729 145.648 210.392 144.927 210.052 144.202L210.051 144.196L210.015 144.12C209.581 143.195 209.143 142.262 208.701 141.322C207.756 139.703 206.911 138.218 206.255 136.887C204.253 132.832 202.095 126.7 200.336 119.991L200.333 119.98C200.047 118.947 199.777 117.894 199.523 116.82V116.818L199.507 116.755V116.754C199.361 116.135 199.22 115.511 199.087 114.878C198.973 114.358 198.871 113.824 198.767 113.294C198.712 113.007 198.652 112.728 198.598 112.439L198.597 112.435C197.375 106.287 196.632 100.122 196.769 94.9283V94.9216C191.911 93.4696 185.655 91.1936 180.133 88.6443C176.975 118.36 171.532 130.114 138.444 130.52H138.069C104.983 130.114 99.8732 118.36 96.7159 88.6443C91.1932 91.1936 84.9372 93.4696 80.0786 94.9216V94.9283C80.2172 100.122 79.4746 106.287 78.2506 112.435L78.2492 112.439C78.1972 112.728 78.1372 113.007 78.0826 113.294C77.9799 113.824 77.8746 114.358 77.7626 114.878C77.6292 115.511 77.4879 116.135 77.3412 116.754V116.755L77.3266 116.818V116.82C77.0719 117.894 76.8025 118.947 76.5159 119.98L76.5132 119.991C74.7545 126.7 72.5959 132.832 70.5959 136.887C69.9372 138.218 69.0932 139.703 68.1492 141.322C67.7065 142.262 67.2679 143.195 66.8346 144.12L66.7986 144.196L66.7959 144.202C66.4559 144.927 66.1199 145.648 65.7879 146.367C65.6959 146.566 65.6052 146.764 65.5159 146.964C65.2666 147.503 65.0212 148.042 64.7812 148.579C64.6532 148.86 64.5332 149.142 64.4092 149.422C64.1999 149.892 63.9906 150.363 63.7906 150.834C63.6572 151.14 63.5319 151.448 63.4025 151.756C63.2132 152.206 63.0252 152.655 62.8439 153.104C62.7132 153.428 62.5892 153.755 62.4626 154.082C62.2959 154.511 62.1252 154.942 61.9652 155.372C61.8386 155.712 61.7212 156.055 61.6012 156.396C61.4546 156.814 61.3039 157.231 61.1626 157.651C61.0399 158.026 60.9279 158.402 60.8092 158.778C60.7479 158.971 60.6892 159.166 60.6292 159.358C60.5692 159.556 60.5012 159.754 60.4439 159.954C60.3319 160.346 60.2319 160.742 60.1266 161.136C60.0266 161.516 59.9186 161.894 59.8253 162.278C59.7266 162.68 59.6466 163.087 59.5586 163.494C59.5239 163.656 59.4866 163.818 59.4546 163.979C59.4052 164.2 59.3545 164.42 59.3132 164.644C59.2319 165.059 59.1705 165.482 59.1025 165.9C59.0399 166.286 58.9706 166.668 58.9173 167.058C58.8573 167.503 58.8172 167.958 58.7692 168.408C58.7492 168.612 58.7265 168.819 58.7052 169.024C58.6905 169.19 58.6652 169.352 58.6519 169.519C58.6159 169.988 58.6012 170.466 58.5826 170.943C58.5666 171.271 58.5439 171.598 58.5359 171.93L58.5305 172.038C58.5199 172.551 58.5372 173.076 58.5452 173.598C58.5479 173.755 58.5506 173.912 58.5519 174.067C58.5572 174.255 58.5506 174.438 58.5586 174.626C58.5826 175.192 58.6346 175.771 58.6826 176.347C58.7066 176.663 58.7186 176.97 58.7519 177.288C58.8452 178.187 58.9653 179.099 59.1173 180.027C59.1506 180.231 59.1666 180.46 59.1706 180.704L59.1679 180.796L59.1572 181.13C59.1546 181.251 59.1519 181.371 59.1412 181.503L59.1146 181.751C59.1012 181.888 59.0825 182.031 59.0639 182.176L59.0332 182.416C59.0119 182.554 58.9879 182.695 58.9639 182.839L58.9452 182.93C58.9212 183.071 58.8946 183.214 58.8652 183.362L58.8492 183.444C58.8172 183.603 58.7852 183.763 58.7492 183.93L58.6719 184.259C58.6345 184.423 58.5959 184.588 58.5546 184.76C58.5252 184.883 58.4972 185.006 58.4652 185.134C58.4146 185.334 58.3572 185.544 58.3025 185.751L58.2719 185.866L58.1839 186.196L58.1173 186.447L58.0866 186.555C57.8199 187.504 57.5092 188.544 57.1692 189.648L57.1599 189.678C53.0399 203.028 43.9546 227.3 43.2866 256.771V256.776C43.2359 259.064 43.2226 261.376 43.2786 263.723C47.0119 269.051 50.9506 273.642 55.0173 277.603C68.6759 290.035 78.2733 299.455 129.828 299.455C135.004 298.53 141.845 298.53 147.021 299.455C198.575 299.455 208.173 290.035 221.831 277.603C225.897 273.642 229.837 269.051 233.57 263.723C233.627 261.376 233.612 259.064 233.561 256.776Z" fill="#DBEFF5"/>
<path d="M233.56 256.992C228.431 258.043 217.4 263.072 206.734 270.223C188.666 282.339 168.179 294.728 138.424 294.728C108.668 294.728 88.1817 282.339 70.1124 270.223C59.4457 263.072 48.4164 258.043 43.2857 256.992C42.5951 271.244 43.991 287.691 46.459 303.915C54.795 306.666 69.1177 310.263 90.7657 312.167C111.49 313.99 132.035 311.126 138.356 310.111C138.399 307.806 138.447 307.806 138.491 310.111C144.814 311.126 165.356 313.99 186.082 312.167C207.73 310.263 222.052 306.666 230.388 303.915C232.856 287.691 234.254 271.244 233.56 256.992Z" fill="#3C44A2"/>
</svg>
