<svg width="198" height="583" viewBox="0 0 198 583" fill="none" xmlns="http://www.w3.org/2000/svg">
<path d="M138.979 64.5656C138.64 52.8016 138.391 43.743 136.135 34.183C128.723 2.78565 114.323 0.000319212 99.1684 0.021649C84.0137 0.000319212 69.6137 2.78565 62.203 34.183C59.9457 43.743 59.6964 52.8016 59.3577 64.5656C59.011 76.6816 58.0497 88.919 59.3577 97.127C63.5257 96.1616 72.031 96.991 80.123 97.8203C89.395 98.771 98.1257 99.7203 99.1684 97.9723C100.211 99.7203 108.942 98.771 118.214 97.8203C126.306 96.991 134.811 96.1616 138.979 97.127C140.288 88.919 139.327 76.6816 138.979 64.5656Z" fill="#5D3F2D"/>
<path d="M156.947 212.564C148.058 189.454 151.726 170.026 152.979 167.31C159.736 152.643 153.991 144.278 147.835 132.75L155.922 101.774C150.219 98.2003 119.702 95.8763 115.835 80.6177C114.359 74.8043 110.83 56.1937 110.83 56.1937H87.5071C87.5071 56.1937 83.9791 74.8043 82.5018 80.6177C78.6364 95.8763 48.1178 98.2003 42.4151 101.774L50.5018 132.75C44.3458 144.278 38.6004 152.643 45.3591 167.31C46.6111 170.026 50.2791 189.454 41.3911 212.564C36.0738 226.388 29.4725 253.916 30.2805 279.675C30.7231 293.808 30.9391 292.151 48.4151 290.494C58.4858 289.538 74.2884 288.583 99.1684 290.65H99.1698C124.048 288.583 139.851 289.538 149.922 290.494C167.398 292.151 167.614 293.808 168.056 279.675C168.864 253.916 162.263 226.388 156.947 212.564Z" fill="#FBCDA3"/>
<path d="M115.533 79.3696C115.164 77.7976 114.717 75.727 114.247 73.467H114.248C114.679 75.507 115.232 78.0856 115.533 79.3696ZM82.8066 79.3696C83.1066 78.0856 83.6613 75.507 84.092 73.467C83.6226 75.727 83.1746 77.7976 82.8066 79.3696Z" fill="#553928"/>
<path d="M99.1706 90.8749H99.1693C93.2626 89.8256 85.656 83.3376 82.8066 79.3696C83.1746 77.7976 83.6226 75.7269 84.092 73.4669C85.4013 74.3549 86.672 75.1043 87.836 75.9523C92.1493 79.095 96.4346 80.3523 98.7666 80.6029C98.9173 80.6323 99.0506 80.6496 99.1693 80.6536V80.8296H99.1706V80.6536C99.288 80.6496 99.4226 80.6323 99.572 80.6029C101.904 80.3523 106.189 79.095 110.503 75.9523C111.667 75.1043 112.937 74.3549 114.247 73.4669C114.717 75.7269 115.164 77.7976 115.533 79.3696C112.683 83.3376 105.076 89.8256 99.1706 90.8749Z" fill="#E5BB94"/>
<path d="M130.886 573.897C132.151 580.619 120.434 581.487 115.995 581.818C112.342 582.085 102.371 584.859 102.148 576.16C102.067 573.13 105.931 565.679 106.675 557.195C107.436 548.463 108.712 540.039 108.946 535.72C109.955 517.283 103.139 478.95 102.046 451.424C101.195 430.031 105.054 417.52 105.764 406.226C106.347 396.942 105.054 390.238 103.487 374.518C100.278 342.342 98.9669 311.755 99.1709 290.686C99.2775 279.587 100.572 255.887 125.826 248.367C165.459 236.564 167.935 272.362 167.946 282.802C168.003 325.207 149.783 355.616 148.226 371.476C146.939 384.603 145.467 393.927 146.503 404.119C147.534 414.312 148.948 438.786 146.938 456.033C144.138 480.055 132.36 521.061 127.582 541.63C126.514 546.221 124.044 552.432 124.555 556.583C125.475 564.056 130.058 569.504 130.886 573.897Z" fill="#FBCDA3"/>
<path d="M188.49 204.746C189.32 209.044 179.507 213.524 175.172 215.128C173.186 215.862 165.763 217.79 162.539 208.271C149.391 169.452 146.108 135.66 142.326 129.423C138.595 123.274 139.2 118.042 138.98 114.875C139.798 104.147 144.592 99.8469 153.251 100.786C162.467 101.786 177.287 114.342 183.675 145.008C187.819 164.9 184.894 186.107 188.49 204.746Z" fill="#FBCDA3"/>
<path d="M196.296 280.683C195.614 275.914 184.46 277.571 182.1 277.406C178.623 277.167 177.584 278.387 176.007 283.319C175.296 288.714 171.362 288.72 171.148 304.154C171.091 308.302 170.936 312.331 171.088 315.94C171.098 316.295 173.878 316.763 174.434 312.735C175.792 303.012 176.992 304.156 178.166 300.655C178.478 304.784 180.23 308.458 177.907 318.812C176.438 325.358 173.804 329.372 176.287 331.45C178.772 333.526 189.054 323.05 191.614 305.896C192.587 299.394 196.69 289.763 196.296 280.683Z" fill="#FBCDA3"/>
<path d="M181.94 287.187C184.44 287.219 195.871 284.92 196.303 280.395C196.571 277.556 196.117 274.235 196.355 270.744C199.615 222.786 194.503 213.119 186.836 199.452C184.712 195.667 174.817 189.943 169.599 192.126C161.915 195.338 162.363 202.067 162.54 206.514C163.527 231.4 173.407 248.718 177.641 279.338C178 281.932 179.44 287.151 181.94 287.187Z" fill="#FBCDA3"/>
<path d="M67.454 573.897C66.186 580.619 77.9047 581.487 82.3434 581.818C85.9967 582.085 95.9687 584.859 96.1914 576.16C96.2714 573.13 92.4087 565.679 91.6634 557.195C90.902 548.463 89.626 540.039 89.3927 535.72C88.3834 517.283 95.2007 478.95 96.294 451.424C97.1447 430.031 93.2847 417.52 92.5754 406.226C91.9914 396.942 93.2847 390.238 94.8527 374.518C98.062 342.342 99.3727 311.755 99.1687 290.686C99.0607 279.587 97.7661 255.887 72.5127 248.367C32.8794 236.564 30.4034 272.362 30.3927 282.802C30.3354 325.207 48.5554 355.616 50.1127 371.476C51.3994 384.603 52.8727 393.927 51.8354 404.119C50.8061 414.312 49.3914 438.786 51.4021 456.033C54.2021 480.055 65.9794 521.061 70.758 541.63C71.8247 546.221 74.2954 552.432 73.7834 556.583C72.8647 564.056 68.282 569.504 67.454 573.897Z" fill="#FBCDA3"/>
<path d="M9.84815 204.746C9.02015 209.044 18.8321 213.524 23.1681 215.128C25.1535 215.862 32.5775 217.79 35.8001 208.271C48.9481 169.452 52.2308 135.66 56.0135 129.423C59.7441 123.274 59.1388 118.042 59.3588 114.875C58.5428 104.147 53.7481 99.8469 45.0895 100.786C35.8735 101.786 21.0535 114.342 14.6655 145.008C10.5215 164.9 13.4455 186.107 9.84815 204.746Z" fill="#FBCDA3"/>
<path d="M2.04194 280.683C2.72594 275.914 13.8779 277.571 16.2366 277.406C19.7153 277.167 20.7553 278.387 22.3313 283.319C23.0419 288.714 26.9779 288.72 27.1913 304.154C27.2486 308.302 27.4019 312.331 27.2512 315.94C27.2406 316.295 24.4619 316.763 23.9033 312.735C22.5459 303.012 21.3459 304.156 20.1726 300.655C19.8619 304.784 18.1086 308.458 20.4326 318.812C21.9006 325.358 24.5352 329.372 22.0512 331.45C19.5672 333.526 9.28459 323.05 6.72592 305.896C5.75259 299.394 1.64994 289.763 2.04194 280.683Z" fill="#FBCDA3"/>
<path d="M16.3999 287.187C13.8986 287.219 2.46793 284.92 2.03726 280.395C1.76793 277.556 2.22124 274.235 1.98391 270.744C-1.27476 222.786 3.83593 213.119 11.5026 199.452C13.6266 195.667 23.5226 189.943 28.7399 192.126C36.4253 195.338 35.9759 202.067 35.7999 206.514C34.8133 231.4 24.9319 248.718 20.6973 279.338C20.3399 281.932 18.8999 287.151 16.3999 287.187Z" fill="#FBCDA3"/>
<path d="M124.384 43.2163C124.384 30.007 117.217 15.767 99.1702 15.5483C81.1235 15.767 73.9569 30.007 73.9569 43.2163C73.9569 53.099 72.9489 59.023 77.1702 66.1976C80.5969 72.0203 84.6222 73.6096 87.8369 75.9523C92.4115 79.2856 96.9555 80.4976 99.1702 80.6376C101.385 80.4976 105.929 79.2856 110.504 75.9523C113.72 73.6096 117.744 72.0203 121.17 66.1976C125.392 59.023 124.384 53.099 124.384 43.2163Z" fill="#FBCDA3"/>
<path d="M124.852 42.5936C128.216 41.5963 130.655 40.8229 133.983 39.7216C133.641 36.2376 133.264 32.8669 132.861 29.6642C131.54 19.1802 128.019 11.1776 121.076 6.18026C115.944 2.02293 108.909 -0.249061 99.1905 0.0216054C89.4745 -0.249061 82.4385 2.02293 77.3079 6.18026C70.3652 11.1776 67.0399 21.2096 65.5199 29.6642C64.3759 36.0256 63.7732 43.0816 63.3945 50.5109C67.2692 50.3589 67.6879 50.2549 71.5545 49.9629C71.3559 48.3896 73.3292 46.3163 73.3292 44.3083C73.3292 35.2229 78.5066 26.3696 84.0145 21.0896C86.8585 18.3602 123.865 29.9749 124.852 42.5936Z" fill="#5D3F2D"/>
<path d="M80.7734 45.911C80.7734 45.911 83.3681 48.4136 86.5468 48.675C91.5281 49.087 92.6734 46.9696 92.6734 46.9696C92.6734 46.9696 92.3481 43.243 87.6681 43.2163C83.2214 43.191 80.7734 45.911 80.7734 45.911Z" fill="white"/>
<path d="M84.0137 45.6096C84.0137 47.2483 85.3777 48.5763 87.0603 48.5763C88.7417 48.5763 90.1083 47.2483 90.1083 45.6096C90.1083 43.9723 88.7417 42.643 87.0603 42.643C85.3777 42.643 84.0137 43.9723 84.0137 45.6096Z" fill="#3871C1"/>
<path d="M87.0611 47.527C85.9731 47.527 85.0918 46.6683 85.0918 45.6096C85.0918 44.5523 85.9731 43.6923 87.0611 43.6923C88.1491 43.6923 89.0291 44.5523 89.0291 45.6096C89.0291 46.6683 88.1491 47.527 87.0611 47.527Z" fill="#231F20"/>
<path d="M85.002 45.0416C85.002 45.3403 85.258 45.5816 85.5726 45.5816C85.886 45.5816 86.142 45.3403 86.142 45.0416V44.8469C86.142 44.5496 85.886 44.3083 85.5726 44.3083C85.258 44.3083 85.002 44.5496 85.002 44.8469V45.0416Z" fill="white"/>
<path d="M92.6725 46.9349C92.3952 45.5816 91.9112 44.5923 90.7632 43.7376C88.7312 42.2229 86.4272 42.3443 84.1952 43.3336C82.8405 43.9296 81.3832 45.0323 79.8285 44.9616C79.5125 44.9443 78.5845 44.6616 78.5059 44.287C79.3245 47.527 83.2072 45.075 84.8152 44.3283C87.9259 42.8803 91.3312 43.6283 92.6725 46.9349Z" fill="#6F4323"/>
<path d="M93.8637 40.7363C93.8637 39.4509 88.6771 37.6856 86.7171 37.3683C83.9637 37.1443 81.3451 37.5003 78.9824 39.019C81.4638 38.675 83.7344 38.0376 86.5011 38.4896C88.4691 38.963 93.8637 42.4949 93.8637 40.7363Z" fill="#91816F"/>
<path d="M74.7614 45.3936C74.7614 45.3936 71.9961 42.1776 71.0161 44.8203C69.2041 49.7043 75.6468 55.1203 75.9281 56.0923C76.2054 57.0656 74.7614 45.3936 74.7614 45.3936Z" fill="#FBCDA3"/>
<path d="M117.566 45.911C117.566 45.911 114.973 48.4136 111.793 48.675C106.813 49.087 105.666 46.9696 105.666 46.9696C105.666 46.9696 105.991 43.243 110.671 43.2163C115.118 43.191 117.566 45.911 117.566 45.911Z" fill="white"/>
<path d="M114.323 45.6096C114.323 47.2483 112.959 48.5763 111.277 48.5763C109.597 48.5763 108.229 47.2483 108.229 45.6096C108.229 43.9723 109.597 42.643 111.277 42.643C112.959 42.643 114.323 43.9723 114.323 45.6096Z" fill="#3871C1"/>
<path d="M111.277 47.527C112.367 47.527 113.248 46.6683 113.248 45.6096C113.248 44.5523 112.367 43.6923 111.277 43.6923C110.191 43.6923 109.311 44.5523 109.311 45.6096C109.311 46.6683 110.191 47.527 111.277 47.527Z" fill="#231F20"/>
<path d="M113.338 45.0416C113.338 45.3403 113.083 45.5816 112.767 45.5816C112.454 45.5816 112.199 45.3403 112.199 45.0416V44.8469C112.199 44.5496 112.454 44.3083 112.767 44.3083C113.083 44.3083 113.338 44.5496 113.338 44.8469V45.0416Z" fill="white"/>
<path d="M105.666 46.9349C105.943 45.5816 106.429 44.5923 107.575 43.7376C109.607 42.2229 111.913 42.3443 114.145 43.3336C115.498 43.9296 116.955 45.0323 118.51 44.9616C118.826 44.9443 119.755 44.6616 119.833 44.287C119.014 47.527 115.131 45.075 113.525 44.3283C110.414 42.8803 107.007 43.6283 105.666 46.9349Z" fill="#6F4323"/>
<path d="M104.477 40.7363C104.477 39.4509 109.662 37.6856 111.622 37.3683C114.375 37.1443 116.994 37.5003 119.358 39.019C116.875 38.675 114.605 38.0376 111.838 38.4896C109.871 38.963 104.477 42.4949 104.477 40.7363Z" fill="#91816F"/>
<path d="M99.1692 60.8403C97.4546 60.6776 95.8826 60.2763 94.7812 59.023C95.5012 59.467 97.3346 59.6896 99.1692 59.6923C101.005 59.6896 102.837 59.467 103.557 59.023C102.456 60.2763 100.884 60.6776 99.1692 60.8403Z" fill="#D0A986"/>
<path d="M123.579 45.3936C123.579 45.3936 126.343 42.1776 127.323 44.8203C129.136 49.7043 122.694 55.1203 122.412 56.0923C122.135 57.0656 123.579 45.3936 123.579 45.3936Z" fill="#FBCDA3"/>
<path d="M100.513 64.5763C99.8864 64.4896 99.5717 65.0163 99.1691 65.1456C98.7664 65.0163 98.4517 64.4896 97.8251 64.5763C94.5517 65.0323 92.1504 67.7656 92.1504 67.7656C92.1504 67.7656 95.2837 71.0416 99.1691 71.0909C103.054 71.0416 106.189 67.7656 106.189 67.7656C106.189 67.7656 103.786 65.0323 100.513 64.5763Z" fill="#EF7889"/>
<path d="M100.516 64.5763C99.889 64.4883 99.5716 65.0163 99.169 65.1483C98.7663 65.0163 98.449 64.4883 97.8223 64.5763C94.545 65.027 92.1543 67.7656 92.1543 67.7656H92.1996C93.1103 67.667 95.9396 66.9736 97.693 67.595C98.149 67.7603 98.813 67.8177 99.169 67.8297C99.5263 67.8177 100.189 67.7603 100.646 67.595C102.398 66.9736 105.228 67.667 106.14 67.7656H106.185C106.185 67.7656 103.793 65.027 100.516 64.5763Z" fill="#F35E77"/>
<path d="M167.18 257.919C167.18 251.786 161.798 226.563 158.325 216.386C157.15 213.728 156.568 212.411 156.156 210.423C148.284 188.263 151.766 169.942 152.98 167.31C159.737 152.643 151.917 140.408 147.836 132.75C143.756 125.09 150.461 99.7029 150.461 99.7029C147.118 98.6509 139.429 96.8229 139.034 96.7696C125.065 137.43 103.712 140.255 99.1702 140.062H99.1689C94.6262 140.255 73.2742 137.43 59.3035 96.7696C58.9089 96.8229 51.2196 98.6509 47.8782 99.7029C47.8782 99.7029 54.5835 125.09 50.5022 132.75C46.4222 140.408 38.6009 152.643 45.3595 167.31C46.5715 169.942 50.0542 188.263 42.1835 210.423C41.7702 212.411 41.1889 213.728 40.0116 216.386C36.5396 226.563 31.1582 251.786 31.1582 257.919C33.3355 258.619 47.8355 263.786 63.9275 274.668C80.0169 285.548 92.9142 293.419 99.1502 293.45V293.452L99.1689 293.451L99.1889 293.452V293.45C105.425 293.419 118.321 285.548 134.412 274.668C150.502 263.786 165.002 258.619 167.18 257.919Z" fill="#3BAE5F"/>
<path d="M152.049 170.899C152.375 169.091 152.728 167.859 152.981 167.31C152.989 167.292 152.996 167.276 153.004 167.259C152.996 167.276 152.988 167.292 152.981 167.31C152.728 167.859 152.375 169.091 152.049 170.899Z" fill="#E5BB94"/>
<path d="M46.2921 170.898C45.9641 169.091 45.6135 167.859 45.3601 167.31C45.3495 167.286 45.3388 167.263 45.3281 167.239C45.3388 167.262 45.3495 167.286 45.3601 167.31C45.6135 167.859 45.9641 169.091 46.2921 170.898Z" fill="#E5BB94"/>
<path d="M148.428 133.847C148.224 133.471 148.025 133.104 147.836 132.75C148.025 133.106 148.224 133.471 148.428 133.847Z" fill="#E5BB94"/>
<path d="M50.4902 132.775C50.4942 132.766 50.4996 132.758 50.5036 132.75C50.4996 132.758 50.4942 132.766 50.4902 132.775Z" fill="#E5BB94"/>
<path d="M156.156 210.423C144.948 191.644 151.836 177.231 141.614 177.231C128.234 177.231 119.836 168.564 99.1703 167.164H99.1689C78.5023 168.564 70.1036 177.231 56.7249 177.231C46.5023 177.231 53.3916 191.644 42.1836 210.423C46.0569 199.516 47.181 189.539 47.1783 181.906C47.177 177.264 46.7596 173.49 46.2916 170.898C45.9636 169.091 45.6129 167.859 45.3596 167.31C45.3489 167.286 45.3383 167.262 45.3276 167.239C45.1423 166.836 44.9716 166.435 44.809 166.036C44.7316 165.551 44.6583 165.05 44.5783 164.571C44.5783 164.571 44.3956 164.382 44.0889 164.06C39.7649 150.855 46.7103 139.862 50.4889 132.775C50.4929 132.766 50.4983 132.758 50.5023 132.75C46.5023 142.786 41.2143 158.06 55.8356 162.119C60.6836 163.464 65.0063 163.96 69.0196 163.959C79.9196 163.959 88.5209 160.306 99.0516 160.12H99.2863C109.818 160.306 118.418 163.96 129.32 163.959C133.332 163.959 137.656 163.464 142.502 162.119C157.124 158.06 151.836 142.786 147.836 132.75C148.025 133.104 148.224 133.471 148.428 133.847C152.284 140.947 158.361 151.503 154.25 164.06C153.942 164.382 153.761 164.571 153.761 164.571C153.68 165.05 153.606 165.551 153.53 166.036C153.364 166.442 153.19 166.85 153.002 167.259C152.994 167.276 152.988 167.292 152.98 167.31C152.726 167.859 152.374 169.091 152.048 170.899C151.577 173.499 151.158 177.29 151.16 181.951C151.162 189.579 152.289 199.538 156.156 210.423Z" fill="#369E55"/>
</svg>
