<svg width="199" height="582" viewBox="0 0 199 582" fill="none" xmlns="http://www.w3.org/2000/svg">
<path d="M40.8677 147.76C26.2424 116.223 32.7384 100.595 32.7384 100.595C37.0237 99.7412 41.1757 97.3972 52.9664 93.5825C62.049 90.6439 72.9184 89.5079 76.765 83.8092C80.641 78.0652 80.6104 76.0799 80.961 67.6292C81.257 60.5079 94.2984 58.6945 98.3984 58.3012V58.2065L99.621 58.2025H99.7357L100.958 58.2065V58.3012C105.058 58.6945 118.1 60.5079 118.396 67.6292C118.746 76.0799 118.716 78.0652 122.592 83.8092C126.438 89.5079 137.308 90.6439 146.392 93.5825C158.181 97.3972 162.333 99.7412 166.618 100.595C166.618 100.595 173.114 116.223 158.489 147.76C157.66 149.548 156.154 163.784 152.15 173.357C144.408 191.864 147.345 215.291 147.077 226.695C146.848 236.521 148.441 236.649 150.11 242.02C153.565 253.131 154.946 259.164 156.094 278.211C156.209 280.116 153.181 278.608 148.614 277.1C143.632 275.456 136.818 273.811 130.252 276.593C121.265 280.4 113.049 302.551 100.958 304.028V304.029L100.922 304.032C100.512 304.08 100.098 304.109 99.6784 304.108C99.2584 304.109 98.845 304.08 98.4344 304.032L98.3984 304.029V304.028C86.3077 302.551 78.0917 280.4 69.105 276.593C62.5384 273.811 55.725 275.456 50.7437 277.1C46.1757 278.608 43.1477 280.116 43.2624 278.211C44.4104 259.164 45.7917 253.131 49.2464 242.02C50.917 236.649 52.509 236.521 52.2797 226.695C52.0117 215.291 54.949 191.864 47.2064 173.357C43.2024 163.784 41.6957 149.548 40.8677 147.76Z" fill="#FBCDA3"/>
<path d="M80.8125 71.0639C80.8312 70.6426 80.8498 70.2039 80.8698 69.7426C80.8698 69.7439 80.8712 69.7453 80.8725 69.7466C80.8525 70.2066 80.8338 70.6452 80.8125 71.0639Z" fill="#E9E8E8"/>
<path d="M99.7027 85.3146C93.1667 85.3146 84.712 78.2612 80.748 72.3572C80.772 71.9452 80.7934 71.5159 80.8134 71.0639C80.8347 70.6452 80.8534 70.2066 80.8734 69.7466C82.7467 72.5092 85.7534 74.3586 91.0014 77.9586C93.2414 79.4959 97.732 80.8826 99.5334 80.9532L99.6787 80.9599L99.824 80.9532C101.625 80.8826 106.117 79.4959 108.357 77.9586C113.549 74.3959 116.547 72.5479 118.425 69.8332C118.461 70.7119 118.497 71.5133 118.537 72.2559C114.585 78.1613 106.192 85.3146 99.7027 85.3146Z" fill="#E5BB94"/>
<path d="M108.413 389.046C108.604 384.484 109.485 379.61 108.697 374.71C105.139 352.617 103.885 324.452 104.008 303.197C104.076 291.622 104.551 282.092 105.287 276.724C106.775 265.876 103.165 258.095 130.069 252.916C144.912 250.06 150.22 247.753 152.392 249.882C153.176 252.909 153.805 255.896 154.333 259.389C154.971 266.34 155.557 272.68 156.077 278.53C159.359 315.436 159.972 333.697 153.565 373.858C151.516 386.712 142.396 409.88 143.475 419.933C144.547 429.984 146.836 440.833 146.605 456.62C146.259 480.469 135.087 500.561 134.681 540.692C134.66 542.918 138.76 551.694 139.292 555.789C140.249 563.159 144.776 567.332 145.636 571.661C146.955 578.293 129.885 580.348 125.267 580.673C121.467 580.937 111.855 584.217 111.623 575.64C111.537 572.652 114.795 564.757 115.569 556.392C116.363 547.781 116.927 543.211 117.169 538.952C118.22 520.769 108.052 489.47 106.915 462.326C106.028 441.23 110.044 431.452 110.783 420.316C111.389 411.16 107.769 404.613 108.413 389.046Z" fill="#FBCDA3"/>
<path d="M43.279 278.53L43.263 278.21C43.7577 270.002 44.2963 264.212 45.0257 259.389C45.5537 255.896 46.1817 252.909 46.9657 249.882C49.139 247.753 54.4457 250.06 69.2883 252.916C96.1923 258.095 92.5843 265.876 94.071 276.724C94.807 282.092 95.2804 291.622 95.3484 303.197C95.4737 324.452 94.2203 352.617 90.6603 374.71C89.8723 379.61 90.7537 384.484 90.9444 389.046C91.5884 404.613 87.9684 411.16 88.575 420.316C89.3137 431.452 93.3297 441.23 92.4444 462.326C91.3057 489.47 81.139 520.769 82.1883 538.952C82.431 543.211 82.995 547.781 83.7883 556.392C84.563 564.757 87.8203 572.652 87.735 575.64C87.503 584.217 77.891 580.937 74.091 580.673C69.4723 580.348 52.403 578.293 53.7217 571.661C54.583 567.332 59.1097 563.159 60.0657 555.789C60.5977 551.694 64.6977 542.918 64.6764 540.692C64.271 500.561 53.099 480.469 52.7523 456.62C52.5217 440.833 54.811 429.984 55.883 419.933C56.9603 409.88 47.8417 386.712 45.7923 373.858C39.3883 333.697 40.0003 315.436 43.279 278.53Z" fill="#FBCDA3"/>
<path d="M8.81406 225.596C7.30473 229.643 12.2581 232.78 16.9594 233.72C19.1114 234.147 22.7994 231.627 29.4767 218.124C36.5834 203.752 44.7034 163.437 46.8994 141.287C47.5661 134.555 54.4687 125.524 54.8874 123.337C57.7661 108.3 49.6261 97.8945 49.3861 94.7732C40.1394 95.1465 23.1194 97.6412 18.4127 112.46C17.1434 116.455 14.8687 122.319 14.9887 134.532C15.0807 143.844 14.1607 148.979 10.1834 161.369C5.85673 174.849 5.85673 200.213 5.96206 214.827C5.98873 218.547 9.92073 222.633 8.81406 225.596Z" fill="#FBCDA3"/>
<path d="M3.43512 288.995C3.39246 283.981 7.66846 283.664 10.6205 282.921C14.9725 281.832 16.5178 282.819 19.4458 287.448C21.3671 292.759 26.3431 291.807 29.5418 307.444C30.4018 311.645 31.3605 315.708 31.8551 319.417C31.9098 319.775 28.4845 320.927 27.0165 316.968C23.4551 307.416 22.1525 308.871 20.0058 305.595C20.3965 309.873 18.8791 314.036 23.7805 323.995C26.8791 330.288 30.9711 333.731 28.2258 336.447C25.4778 339.161 12.2258 331.228 5.30713 313.333C2.4458 305.932 0.688458 297.072 3.43512 288.995Z" fill="#FBCDA3"/>
<path d="M19.6379 288.5V288.494C18.5392 294.409 15.3685 294.49 12.7685 294.564C10.1672 294.634 3.9552 293.452 3.43387 288.994C3.10853 286.202 3.54854 282.915 3.22187 279.48C-0.574129 239.479 -1.42613 223.972 10.1725 207.964C12.6979 204.477 18.5952 198.571 24.0592 200.643C32.1059 203.691 31.3272 217.869 31.2152 222.257C30.5939 246.812 22.4632 266.873 19.8912 282.747C19.4779 285.299 19.5152 287.097 19.6379 288.5Z" fill="#FBCDA3"/>
<path d="M190.543 225.596C192.054 229.643 187.099 232.78 182.398 233.72C180.246 234.147 176.558 231.627 169.881 218.124C162.774 203.752 154.654 163.437 152.458 141.287C151.791 134.555 144.889 125.524 144.471 123.337C141.591 108.3 149.731 97.8945 149.971 94.7732C159.218 95.1465 176.238 97.6412 180.945 112.46C182.214 116.455 184.489 122.319 184.369 134.532C184.277 143.844 185.197 148.979 189.174 161.369C193.501 174.849 193.501 200.213 193.395 214.827C193.369 218.547 189.437 222.633 190.543 225.596Z" fill="#FBCDA3"/>
<path d="M195.923 288.995C195.965 283.981 191.689 283.664 188.737 282.921C184.387 281.832 182.84 282.819 179.912 287.448C177.991 292.759 173.015 291.807 169.816 307.444C168.956 311.645 167.999 315.708 167.503 319.417C167.448 319.775 170.873 320.927 172.341 316.968C175.903 307.416 177.205 308.871 179.352 305.595C178.961 309.873 180.479 314.036 175.577 323.995C172.48 330.288 168.387 333.731 171.132 336.447C173.88 339.161 187.132 331.228 194.051 313.333C196.912 305.932 198.669 297.072 195.923 288.995Z" fill="#FBCDA3"/>
<path d="M179.72 288.5V288.494C180.818 294.409 183.988 294.49 186.588 294.564C189.19 294.634 195.402 293.452 195.923 288.994C196.248 286.202 195.808 282.915 196.135 279.48C199.931 239.479 200.783 223.972 189.184 207.964C186.659 204.477 180.762 198.571 175.298 200.643C167.251 203.691 168.03 217.869 168.142 222.257C168.763 246.812 176.894 266.873 179.466 282.747C179.879 285.299 179.842 287.097 179.72 288.5Z" fill="#FBCDA3"/>
<path d="M69.7031 24.5065C70.0631 22.3665 69.4925 20.4639 70.1725 18.3785C70.6858 16.8012 72.2565 15.5585 73.0698 14.2092C74.0858 12.5212 74.4125 11.1479 75.5565 9.52119C76.8165 7.72919 78.4458 7.43319 80.1591 6.38786C82.5405 4.93186 83.5218 3.42521 86.1778 2.80654C90.7298 1.74388 94.8845 0.885181 99.6778 1.01051C104.471 0.885181 108.626 1.74388 113.178 2.80654C115.834 3.42521 116.815 4.93186 119.196 6.38786C120.91 7.43319 122.539 7.72919 123.799 9.52119C124.943 11.1479 125.268 12.5212 126.286 14.2092C127.099 15.5585 128.668 16.8012 129.183 18.3785C129.863 20.4639 129.292 22.3665 129.652 24.5065C129.994 26.5212 130.919 28.5226 130.724 30.6199C130.535 32.6892 129.438 34.4665 129.763 36.7145C130.083 38.9425 129.539 41.2865 128.518 43.3945C127.146 46.2279 128.263 47.5079 127.318 50.4972C126.211 54.0039 124.663 57.4265 122.416 60.3732C119.892 63.6825 116.427 66.3986 112.32 67.4559L99.6778 68.0772L87.0365 67.4559C82.9285 66.3986 79.4631 63.6825 76.9405 60.3732C74.6925 57.4265 73.1431 54.0039 72.0378 50.4972C71.0911 47.5079 72.2098 46.2279 70.8378 43.3945C69.8165 41.2865 69.2711 38.9425 69.5925 36.7145C69.9191 34.4665 68.8205 32.6892 68.6298 30.6199C68.4365 28.5226 69.3618 26.5212 69.7031 24.5065Z" fill="#795C48"/>
<path d="M76.609 43.4892C76.609 43.4892 74.5783 39.9879 73.857 42.8652C72.525 48.1812 77.2596 54.0772 77.4676 55.1345C77.6703 56.1932 76.609 43.4892 76.609 43.4892Z" fill="#FBCDA3"/>
<path d="M122.748 43.4892C122.748 43.4892 124.779 39.9879 125.5 42.8652C126.832 48.1812 122.097 54.0772 121.889 55.1345C121.685 56.1932 122.748 43.4892 122.748 43.4892Z" fill="#FBCDA3"/>
<path d="M77.886 27.8572C78.7686 24.5425 79.41 23.2052 80.8767 22.4265C82.57 21.5278 85.1793 21.9545 89.3166 22.3798C92.0473 22.6625 95.442 22.9439 99.678 22.8452C103.914 22.9439 107.309 22.6625 110.038 22.3798C114.175 21.9545 116.786 21.5278 118.479 22.4265C119.946 23.2052 120.587 24.5425 121.47 27.8572C122.318 31.0465 123.799 34.8772 123.799 39.8892C123.799 49.0665 122.499 57.6092 120.367 65.4439C118.787 71.2385 115.869 72.8038 108.357 77.9585C106.117 79.4958 101.625 80.8825 99.8233 80.9532L99.678 80.9598L99.5326 80.9532C97.7313 80.8825 93.2407 79.4958 91.0007 77.9585C83.4873 72.8038 80.5673 71.2385 78.99 65.4439C76.8553 57.6092 75.5566 49.0665 75.5566 39.8892C75.5566 34.8772 77.038 31.0465 77.886 27.8572Z" fill="#FBCDA3"/>
<path d="M99.671 57.5826C97.6456 57.4346 95.7856 57.0693 94.4883 55.8893C95.3296 56.3026 97.4723 56.5106 99.615 56.5106C101.815 56.5106 103.956 56.3026 104.799 55.8893C103.499 57.0693 101.639 57.4346 99.671 57.5826Z" fill="#E8BD96"/>
<path d="M92.8701 67.4585C94.8701 67.0465 95.5728 66.3692 98.2381 66.0212C98.8981 65.9292 99.2461 66.2732 99.6848 66.3412C100.125 66.2732 100.473 65.9292 101.131 66.0212C103.797 66.3692 104.501 67.0465 106.499 67.4585C106.73 67.5052 107.15 67.4706 107.251 67.5892C107.445 67.8199 105.806 68.7866 104.997 69.0852C104.106 69.4159 101.885 69.7692 99.6848 69.7692C97.4861 69.7692 95.2635 69.4159 94.3741 69.0852C93.5635 68.7866 91.9248 67.8199 92.1194 67.5892C92.2194 67.4706 92.6381 67.5052 92.8701 67.4585Z" fill="#ECB593"/>
<path d="M92.8698 67.4586C94.8698 67.0466 95.5725 66.3692 98.2378 66.0212C98.8978 65.9292 99.2458 66.2732 99.6845 66.3412L99.7032 66.3359L99.7218 66.3412C100.16 66.2732 100.507 65.9292 101.167 66.0212C103.834 66.3692 104.535 67.0466 106.535 67.4586C106.768 67.5052 107.186 67.4706 107.288 67.5892L107.283 67.6479C107.17 67.6666 106.998 67.6786 106.712 67.6612C106.703 67.6612 102.962 67.1172 101.25 67.7012C100.785 67.8612 100.091 67.9066 99.7551 67.9186H99.6498C99.3138 67.9066 98.6205 67.8612 98.1565 67.7012C96.4445 67.1172 92.7031 67.6612 92.6938 67.6612C92.4071 67.6786 92.2338 67.6666 92.1231 67.6479L92.1191 67.5892C92.2191 67.4706 92.6378 67.5052 92.8698 67.4586Z" fill="#E1AE8D"/>
<path d="M81.3555 42.8106C81.3555 42.8106 84.1555 45.3359 86.9021 45.4066C91.2048 45.5199 92.1115 44.0826 92.1115 44.0826C92.1115 44.0826 91.6848 40.9213 87.6555 41.0973C83.8288 41.2639 81.3555 42.8106 81.3555 42.8106Z" fill="white"/>
<path d="M85.2157 43.4732C85.1557 42.2852 86.057 41.2746 87.253 41.1332L87.485 41.1119C88.7277 41.0879 89.7784 42.0292 89.8384 43.2492C89.8837 44.1612 89.3611 44.9706 88.5797 45.3639C88.0851 45.4039 87.5357 45.4239 86.9024 45.4066C86.753 45.4039 86.605 45.3679 86.453 45.3492C85.753 44.9906 85.2584 44.2999 85.2157 43.4732Z" fill="#3871C1"/>
<path d="M87.5998 44.8159C86.7732 44.8559 86.0732 44.2372 86.0332 43.4346C85.9918 42.6319 86.6291 41.9452 87.4545 41.9066C88.2785 41.8666 88.9785 42.4866 89.0185 43.2893C89.0585 44.0919 88.4238 44.7759 87.5998 44.8159Z" fill="#231F20"/>
<path d="M85.9441 43.0066C85.9561 43.2319 86.1561 43.4065 86.3961 43.3932C86.6334 43.3825 86.8201 43.1905 86.8068 42.9652L86.8001 42.8159C86.7881 42.5892 86.5841 42.4159 86.3494 42.4279C86.1094 42.4385 85.9241 42.6319 85.9361 42.8572L85.9441 43.0066Z" fill="white"/>
<path d="M92.1121 44.0826C91.8521 42.9812 91.5415 41.9519 90.4161 41.5012C86.3948 39.8879 82.2228 42.5306 81.3828 42.7172C82.5041 42.8612 83.7815 42.0132 85.2828 41.7986C88.6201 41.3199 90.9028 41.4012 92.1121 44.0826Z" fill="#91816F"/>
<path d="M118.193 42.8106C118.193 42.8106 115.394 45.3359 112.647 45.4066C108.346 45.5199 107.438 44.0826 107.438 44.0826C107.438 44.0826 107.864 40.9213 111.895 41.0973C115.721 41.2639 118.193 42.8106 118.193 42.8106Z" fill="white"/>
<path d="M114.333 43.4732C114.393 42.2852 113.493 41.2746 112.297 41.1332L112.064 41.1119C110.821 41.0879 109.772 42.0292 109.709 43.2492C109.667 44.1612 110.187 44.9706 110.969 45.3639C111.464 45.4039 112.015 45.4239 112.647 45.4066C112.797 45.4039 112.947 45.3679 113.095 45.3492C113.795 44.9906 114.291 44.2999 114.333 43.4732Z" fill="#3871C1"/>
<path d="M111.949 44.8159C112.777 44.8559 113.476 44.2372 113.516 43.4346C113.556 42.6319 112.92 41.9452 112.094 41.9066C111.269 41.8666 110.57 42.4866 110.529 43.2893C110.489 44.0919 111.124 44.7759 111.949 44.8159Z" fill="#231F20"/>
<path d="M113.605 43.0066C113.593 43.2319 113.393 43.4065 113.154 43.3932C112.917 43.3825 112.731 43.1905 112.741 42.9652L112.749 42.8159C112.761 42.5892 112.963 42.4159 113.201 42.4279C113.441 42.4385 113.623 42.6319 113.613 42.8572L113.605 43.0066Z" fill="white"/>
<path d="M107.438 44.0826C107.697 42.9812 108.007 41.9519 109.135 41.5012C113.155 39.8879 117.327 42.5306 118.167 42.7172C117.047 42.8612 115.769 42.0132 114.265 41.7986C110.928 41.3199 108.647 41.4012 107.438 44.0826Z" fill="#91816F"/>
<path d="M93.1566 38.4972C93.4392 35.7079 86.9032 35.6599 84.8752 35.9425C81.9232 36.2145 80.1912 37.6679 80.4806 38.5252C82.8606 37.9385 82.9752 37.6265 85.8312 37.6679C91.1792 37.7452 93.0086 39.9452 93.1566 38.4972Z" fill="#8F8780"/>
<path d="M106.2 38.4972C105.918 35.7079 112.454 35.6599 114.482 35.9425C117.434 36.2145 119.166 37.6679 118.876 38.5252C116.498 37.9385 116.382 37.6265 113.526 37.6679C108.178 37.7452 106.348 39.9452 106.2 38.4972Z" fill="#8F8780"/>
<path d="M123.04 43.2292C123.04 43.2292 125.747 40.2425 126.707 42.6985C128.481 47.2332 122.173 52.2639 121.9 53.1665C121.628 54.0705 123.04 43.2292 123.04 43.2292Z" fill="#FBCDA3"/>
<path d="M52.1121 134.536C52.5694 121.067 49.9388 102.528 49.4628 94.7492L49.5401 94.7226C50.0455 94.5492 50.5641 94.3746 51.1001 94.1959C51.7041 93.9946 52.3188 93.7919 52.9668 93.5826C54.4068 93.1172 55.8908 92.6999 57.3841 92.2986C57.5654 92.2492 57.7454 92.2012 57.9268 92.1532C58.8961 91.8959 59.8628 91.6452 60.8294 91.3959C61.2654 91.2839 61.7001 91.1692 62.1321 91.0559L62.1508 91.0519C66.2321 104.907 76.7774 130.555 98.9921 131.097V131.092L99.2521 131.105V131.103L99.4374 131.112L99.6788 131.121L99.9201 131.112L100.105 131.103V131.105L100.365 131.092V131.097C122.58 130.555 133.125 104.907 137.207 91.0519L137.225 91.0559C137.657 91.1692 138.092 91.2839 138.528 91.3959C139.495 91.6452 140.461 91.8959 141.431 92.1532C141.612 92.2012 141.792 92.2492 141.973 92.2986C143.467 92.6999 144.951 93.1172 146.391 93.5826C147.039 93.7919 147.653 93.9946 148.257 94.1959C148.793 94.3746 149.312 94.5492 149.817 94.7226L149.895 94.7492C149.419 102.528 146.788 121.067 147.245 134.536C147.787 150.527 151.297 160.345 155.445 162.619V162.62L155.444 162.624C155.236 163.519 155.013 164.421 154.777 165.323L154.752 165.42C154.521 166.3 154.275 167.177 154.016 168.044L153.965 168.216C153.704 169.079 153.431 169.929 153.14 170.759L153.093 170.888C152.795 171.736 152.483 172.563 152.151 173.357C144.408 191.864 147.345 215.291 147.077 226.695C146.848 236.521 148.441 236.649 150.111 242.02C150.337 242.751 150.556 243.46 150.765 244.153L150.771 244.168C150.976 244.848 151.173 245.511 151.364 246.163L151.387 246.24C151.572 246.873 151.748 247.496 151.919 248.112L151.949 248.223C152.116 248.831 152.277 249.432 152.432 250.033L152.461 250.149C152.613 250.747 152.76 251.343 152.901 251.941L152.933 252.071C153.072 252.667 153.207 253.268 153.336 253.876L153.365 254.011C153.493 254.625 153.619 255.248 153.739 255.881L153.76 255.995C153.88 256.636 153.996 257.292 154.108 257.964L154.12 258.036H45.2375L45.2508 257.964C45.3614 257.292 45.4774 256.636 45.5974 255.995L45.6188 255.881C45.7388 255.248 45.8641 254.625 45.9921 254.011L46.0215 253.876C46.1508 253.268 46.2841 252.667 46.4241 252.071L46.4561 251.941C46.5975 251.343 46.7441 250.747 46.8961 250.149L46.9254 250.033C47.0814 249.432 47.2415 248.831 47.4081 248.223L47.4388 248.112C47.6095 247.496 47.7855 246.873 47.9708 246.24L47.9934 246.163C48.1828 245.511 48.3815 244.848 48.5868 244.168L48.5921 244.153C48.8014 243.46 49.0201 242.751 49.2468 242.02C50.9174 236.649 52.5094 236.521 52.2801 226.695C52.0121 215.291 54.9495 191.864 47.2068 173.357C46.8748 172.563 46.5628 171.736 46.2641 170.888L46.2174 170.759C45.9268 169.929 45.6534 169.079 45.3921 168.216L45.3415 168.044C45.0828 167.177 44.8361 166.3 44.6055 165.42L44.5801 165.323C44.3441 164.421 44.1214 163.519 43.9134 162.624L43.9121 162.62V162.619C48.0601 160.345 51.5708 150.527 52.1121 134.536Z" fill="#DBEFF5"/>
<path d="M95.3309 311.064V311.148C95.3296 311.148 86.4002 316.108 64.6442 314.828C49.4749 313.936 41.1016 309.436 41.1016 309.436C41.1082 309.199 41.1176 308.964 41.1269 308.729C41.5002 299.651 42.2602 289.989 43.2789 278.531L43.2629 278.211C43.3202 277.256 43.3789 276.341 43.4376 275.449L43.4536 275.196C43.5149 274.275 43.5776 273.384 43.6416 272.525L43.6482 272.447C43.7136 271.573 43.7789 270.729 43.8469 269.917V269.915C43.8856 269.451 43.9256 269.017 43.9642 268.573C43.9962 268.229 44.0242 267.871 44.0562 267.537C44.1269 266.78 44.1989 266.048 44.2749 265.339L44.2762 265.325C44.3536 264.595 44.4322 263.888 44.5122 263.203L44.5136 263.196L44.5402 262.991C44.6056 262.445 44.6722 261.911 44.7429 261.391C44.7736 261.16 44.8056 260.939 44.8362 260.711C44.8882 260.349 44.9376 259.988 44.9909 259.637C45.1322 258.679 45.2816 257.755 45.4389 256.864L45.4429 256.845C45.5869 256.031 45.7389 255.239 45.8989 254.463V254.461C46.0589 253.684 46.2256 252.921 46.4029 252.167L46.4096 252.135C46.5842 251.384 46.7696 250.637 46.9642 249.889L46.9656 249.883C48.4456 250.596 64.2416 254.721 99.3589 254.729V254.723L99.6789 254.727L99.9989 254.723V254.729C135.118 254.721 150.912 250.596 152.392 249.883L152.395 249.896C152.59 250.641 152.774 251.385 152.948 252.135L152.955 252.167C153.132 252.921 153.299 253.684 153.458 254.46L153.459 254.463C153.619 255.239 153.771 256.031 153.915 256.845L153.918 256.864C154.072 257.733 154.218 258.632 154.358 259.563C154.438 260.095 154.515 260.636 154.59 261.193L154.614 261.379C154.69 261.939 154.762 262.513 154.832 263.104L154.851 263.259C154.924 263.869 154.994 264.5 155.063 265.148L155.095 265.447C155.163 266.103 155.23 266.775 155.295 267.471L155.312 267.655C155.38 268.385 155.446 269.133 155.511 269.912L155.512 269.923C155.575 270.688 155.638 271.481 155.699 272.3L155.724 272.641C155.782 273.443 155.842 274.267 155.898 275.119L155.922 275.467C155.98 276.353 156.038 277.261 156.095 278.211C156.103 278.332 156.095 278.439 156.078 278.533C157.098 289.997 157.858 299.66 158.232 308.743C158.239 308.971 158.25 309.201 158.256 309.436C158.256 309.436 149.884 313.936 134.714 314.828C112.956 316.108 104.027 311.148 104.027 311.148C104 308.415 103.995 305.752 104.01 303.197H104.008C103.614 303.36 103.21 303.489 102.806 303.615C102.199 303.797 101.586 303.951 100.959 304.027V304.029L100.923 304.032C100.512 304.08 100.099 304.109 99.6789 304.108C99.2589 304.109 98.8456 304.08 98.4349 304.032L98.3989 304.029V304.027C97.3549 303.9 96.3389 303.608 95.3482 303.197C95.3629 305.725 95.3576 308.36 95.3309 311.064Z" fill="#3C44A2"/>
</svg>
