<svg width="209" height="582" viewBox="0 0 209 582" fill="none" xmlns="http://www.w3.org/2000/svg">
<path d="M46.8677 147.76C32.2424 116.223 38.7384 100.595 38.7384 100.595C43.0237 99.7412 47.1757 97.3972 58.9664 93.5825C68.049 90.6439 78.9184 89.5079 82.765 83.8092C86.641 78.0652 86.6104 76.0799 86.961 67.6292C87.257 60.5079 100.298 58.6945 104.398 58.3012V58.2065L105.621 58.2025H105.736L106.958 58.2065V58.3012C111.058 58.6945 124.1 60.5079 124.396 67.6292C124.746 76.0799 124.716 78.0652 128.592 83.8092C132.438 89.5079 143.308 90.6439 152.392 93.5825C164.181 97.3972 168.333 99.7412 172.618 100.595C172.618 100.595 179.114 116.223 164.489 147.76C163.66 149.548 162.154 163.784 158.15 173.357C150.408 191.864 153.345 215.291 153.077 226.695C152.848 236.521 154.441 236.649 156.11 242.02C159.565 253.131 160.946 259.164 162.094 278.211C162.209 280.116 159.181 278.608 154.614 277.1C149.632 275.456 142.818 273.811 136.252 276.593C127.265 280.4 119.049 302.551 106.958 304.028V304.029L106.922 304.032C106.512 304.08 106.098 304.109 105.678 304.108C105.258 304.109 104.845 304.08 104.434 304.032L104.398 304.029V304.028C92.3077 302.551 84.0917 280.4 75.105 276.593C68.5384 273.811 61.725 275.456 56.7437 277.1C52.1757 278.608 49.1477 280.116 49.2624 278.211C50.4104 259.164 51.7917 253.131 55.2464 242.02C56.917 236.649 58.509 236.521 58.2797 226.695C58.0117 215.291 60.949 191.864 53.2064 173.357C49.2024 163.784 47.6957 149.548 46.8677 147.76" fill="#FBCDA3"/>
<path d="M86.8125 71.0639C86.8312 70.6426 86.8498 70.2039 86.8698 69.7426C86.8698 69.7439 86.8712 69.7453 86.8725 69.7466C86.8525 70.2066 86.8338 70.6452 86.8125 71.0639" fill="#E9E8E8"/>
<path d="M105.703 85.3146C99.1667 85.3146 90.712 78.2612 86.748 72.3572C86.772 71.9452 86.7934 71.5159 86.8134 71.0639C86.8347 70.6452 86.8534 70.2066 86.8734 69.7466C88.7467 72.5092 91.7534 74.3586 97.0014 77.9586C99.2414 79.4959 103.732 80.8826 105.533 80.9532L105.679 80.9599L105.824 80.9532C107.625 80.8826 112.117 79.4959 114.357 77.9586C119.549 74.3959 122.547 72.5479 124.425 69.8332C124.461 70.7119 124.497 71.5133 124.537 72.2559C120.585 78.1613 112.192 85.3146 105.703 85.3146" fill="#E5BB94"/>
<path d="M115.265 389.225C115.492 384.654 116.543 379.773 115.603 374.865C111.358 352.736 109.863 324.524 110.01 303.235C110.091 291.641 110.657 282.095 111.535 276.718C113.31 265.852 109.004 258.058 141.098 252.871C158.803 250.01 165.135 247.7 167.726 249.833C168.661 252.864 169.412 255.856 170.042 259.355C170.802 266.317 171.502 272.667 172.122 278.527C176.037 315.493 176.768 333.785 169.126 374.012C166.681 386.886 155.802 410.092 157.089 420.162C158.368 430.229 161.098 441.096 160.823 456.909C160.41 480.797 147.083 500.922 146.599 541.118C146.574 543.349 151.465 552.139 152.099 556.241C153.241 563.622 158.641 567.802 159.667 572.138C161.24 578.781 140.878 580.839 135.369 581.165C130.836 581.43 119.37 584.715 119.093 576.124C118.991 573.131 122.877 565.223 123.801 556.844C124.747 548.219 125.42 543.641 125.71 539.375C126.963 521.163 114.834 489.813 113.477 462.624C112.419 441.494 117.21 431.699 118.091 420.545C118.815 411.374 114.497 404.817 115.265 389.225" fill="#FBCDA3"/>
<path d="M37.8748 278.527L37.8557 278.207C38.4458 269.985 39.0884 264.185 39.9585 259.355C40.5883 255.856 41.3375 252.864 42.2727 249.833C44.8654 247.7 51.1959 250.01 68.9021 252.871C100.997 258.058 96.6926 265.852 98.4661 276.718C99.3441 282.095 99.9088 291.641 99.9899 303.235C100.139 324.524 98.6443 352.736 94.3974 374.865C93.4574 379.773 94.5088 384.654 94.7362 389.225C95.5045 404.817 91.1861 411.374 91.9098 420.545C92.791 431.699 97.5818 441.494 96.5256 462.624C95.1673 489.813 83.0391 521.163 84.2909 539.375C84.5804 543.641 85.2532 548.219 86.1996 556.844C87.1237 565.223 91.0095 573.131 90.9077 576.124C90.631 584.715 79.1645 581.43 74.6314 581.165C69.1216 580.839 48.7591 578.781 50.3322 572.138C51.3597 567.802 56.7597 563.622 57.9001 556.241C58.5348 552.139 63.4258 543.349 63.4003 541.118C62.9168 500.922 49.5894 480.797 49.1758 456.909C48.9007 441.096 51.6317 430.229 52.9105 420.162C54.1957 410.092 43.3177 386.886 40.873 374.012C33.2335 333.785 33.9636 315.493 37.8748 278.527" fill="#FBCDA3"/>
<path d="M8.81406 225.596C7.30473 229.643 12.2581 232.78 16.9594 233.72C19.1114 234.147 22.7994 231.627 29.4767 218.124C36.5834 203.752 44.7034 163.437 46.8994 141.287C47.5661 134.555 54.4687 125.524 54.8874 123.337C57.7661 108.3 49.6261 97.8945 49.3861 94.7732C40.1394 95.1465 23.1194 97.6412 18.4127 112.46C17.1434 116.455 14.8687 122.319 14.9887 134.532C15.0807 143.844 14.1607 148.979 10.1834 161.369C5.85673 174.849 5.85673 200.213 5.96206 214.827C5.98873 218.547 9.92073 222.633 8.81406 225.596" fill="#FBCDA3"/>
<path d="M3.43512 288.995C3.39246 283.981 7.66846 283.664 10.6205 282.921C14.9725 281.832 16.5178 282.819 19.4458 287.448C21.3671 292.759 26.3431 291.807 29.5418 307.444C30.4018 311.645 31.3605 315.708 31.8551 319.417C31.9098 319.775 28.4845 320.927 27.0165 316.968C23.4551 307.416 22.1525 308.871 20.0058 305.595C20.3965 309.873 18.8791 314.036 23.7805 323.995C26.8791 330.288 30.9711 333.731 28.2258 336.447C25.4778 339.161 12.2258 331.228 5.30713 313.333C2.4458 305.932 0.688458 297.072 3.43512 288.995" fill="#FBCDA3"/>
<path d="M19.6379 288.5V288.494C18.5392 294.409 15.3685 294.49 12.7685 294.564C10.1672 294.634 3.9552 293.452 3.43387 288.994C3.10853 286.202 3.54854 282.915 3.22187 279.48C-0.574129 239.479 -1.42613 223.972 10.1725 207.964C12.6979 204.477 18.5952 198.571 24.0592 200.643C32.1059 203.691 31.3272 217.869 31.2152 222.257C30.5939 246.812 22.4632 266.873 19.8912 282.747C19.4779 285.299 19.5152 287.097 19.6379 288.5" fill="#FBCDA3"/>
<path d="M200.543 225.596C202.054 229.643 197.099 232.78 192.398 233.72C190.246 234.147 186.558 231.627 179.881 218.124C172.774 203.752 164.654 163.437 162.458 141.287C161.791 134.555 154.889 125.524 154.471 123.337C151.591 108.3 159.731 97.8945 159.971 94.7732C169.218 95.1465 186.238 97.6412 190.945 112.46C192.214 116.455 194.489 122.319 194.369 134.532C194.277 143.844 195.197 148.979 199.174 161.369C203.501 174.849 203.501 200.213 203.395 214.827C203.369 218.547 199.437 222.633 200.543 225.596" fill="#FBCDA3"/>
<path d="M205.923 288.995C205.965 283.981 201.689 283.664 198.737 282.921C194.387 281.832 192.84 282.819 189.912 287.448C187.991 292.759 183.015 291.807 179.816 307.444C178.956 311.645 177.999 315.708 177.503 319.417C177.448 319.775 180.873 320.927 182.341 316.968C185.903 307.416 187.205 308.871 189.352 305.595C188.961 309.873 190.479 314.036 185.577 323.995C182.48 330.288 178.387 333.731 181.132 336.447C183.88 339.161 197.132 331.228 204.051 313.333C206.912 305.932 208.669 297.072 205.923 288.995" fill="#FBCDA3"/>
<path d="M189.72 288.5V288.494C190.818 294.409 193.988 294.49 196.588 294.564C199.19 294.634 205.402 293.452 205.923 288.994C206.248 286.202 205.808 282.915 206.135 279.48C209.931 239.479 210.783 223.972 199.184 207.964C196.659 204.477 190.762 198.571 185.298 200.643C177.251 203.691 178.03 217.869 178.142 222.257C178.763 246.812 186.894 266.873 189.466 282.747C189.879 285.299 189.842 287.097 189.72 288.5" fill="#FBCDA3"/>
<path d="M75.7031 24.5065C76.0631 22.3665 75.4925 20.4639 76.1725 18.3785C76.6858 16.8012 78.2565 15.5585 79.0698 14.2092C80.0858 12.5212 80.4125 11.1479 81.5565 9.52119C82.8165 7.72919 84.4458 7.43319 86.1591 6.38786C88.5405 4.93186 89.5218 3.42521 92.1778 2.80654C96.7298 1.74388 100.884 0.885181 105.678 1.01051C110.471 0.885181 114.626 1.74388 119.178 2.80654C121.834 3.42521 122.815 4.93186 125.196 6.38786C126.91 7.43319 128.539 7.72919 129.799 9.52119C130.943 11.1479 131.268 12.5212 132.286 14.2092C133.099 15.5585 134.668 16.8012 135.183 18.3785C135.863 20.4639 135.292 22.3665 135.652 24.5065C135.994 26.5212 136.919 28.5226 136.724 30.6199C136.535 32.6892 135.438 34.4665 135.763 36.7145C136.083 38.9425 135.539 41.2865 134.518 43.3945C133.146 46.2279 134.263 47.5079 133.318 50.4972C132.211 54.0039 130.663 57.4265 128.416 60.3732C125.892 63.6825 122.427 66.3986 118.32 67.4559L105.678 68.0772L93.0365 67.4559C88.9285 66.3986 85.4631 63.6825 82.9405 60.3732C80.6925 57.4265 79.1431 54.0039 78.0378 50.4972C77.0911 47.5079 78.2098 46.2279 76.8378 43.3945C75.8165 41.2865 75.2711 38.9425 75.5925 36.7145C75.9191 34.4665 74.8205 32.6892 74.6298 30.6199C74.4365 28.5226 75.3618 26.5212 75.7031 24.5065Z" fill="#795C48"/>
<path d="M82.609 43.4892C82.609 43.4892 80.5783 39.9879 79.857 42.8652C78.525 48.1812 83.2596 54.0772 83.4676 55.1345C83.6703 56.1932 82.609 43.4892 82.609 43.4892Z" fill="#FBCDA3"/>
<path d="M128.748 43.4892C128.748 43.4892 130.779 39.9879 131.5 42.8652C132.832 48.1812 128.097 54.0772 127.889 55.1345C127.685 56.1932 128.748 43.4892 128.748 43.4892Z" fill="#FBCDA3"/>
<path d="M83.886 27.8572C84.7686 24.5425 85.41 23.2052 86.8767 22.4265C88.57 21.5278 91.1793 21.9545 95.3166 22.3798C98.0473 22.6625 101.442 22.9439 105.678 22.8452C109.914 22.9439 113.309 22.6625 116.038 22.3798C120.175 21.9545 122.786 21.5278 124.479 22.4265C125.946 23.2052 126.587 24.5425 127.47 27.8572C128.318 31.0465 129.799 34.8772 129.799 39.8892C129.799 49.0665 128.499 57.6092 126.367 65.4439C124.787 71.2385 121.869 72.8038 114.357 77.9585C112.117 79.4958 107.625 80.8825 105.823 80.9532L105.678 80.9598L105.533 80.9532C103.731 80.8825 99.2406 79.4958 97.0007 77.9585C89.4873 72.8038 86.5673 71.2385 84.99 65.4439C82.8553 57.6092 81.5566 49.0665 81.5566 39.8892C81.5566 34.8772 83.038 31.0465 83.886 27.8572" fill="#FBCDA3"/>
<path d="M105.671 57.5826C103.646 57.4346 101.786 57.0693 100.488 55.8893C101.33 56.3026 103.472 56.5106 105.615 56.5106C107.815 56.5106 109.956 56.3026 110.799 55.8893C109.499 57.0693 107.639 57.4346 105.671 57.5826Z" fill="#E8BD96"/>
<path d="M98.8701 67.4585C100.87 67.0465 101.573 66.3692 104.238 66.0212C104.898 65.9292 105.246 66.2732 105.685 66.3412C106.125 66.2732 106.473 65.9292 107.131 66.0212C109.797 66.3692 110.501 67.0465 112.499 67.4585C112.73 67.5052 113.15 67.4706 113.251 67.5892C113.445 67.8199 111.806 68.7866 110.997 69.0852C110.106 69.4159 107.885 69.7692 105.685 69.7692C103.486 69.7692 101.263 69.4159 100.374 69.0852C99.5635 68.7866 97.9248 67.8199 98.1194 67.5892C98.2194 67.4706 98.6381 67.5052 98.8701 67.4585" fill="#ECB593"/>
<path d="M98.8698 67.4586C100.87 67.0466 101.572 66.3692 104.238 66.0212C104.898 65.9292 105.246 66.2732 105.684 66.3412L105.703 66.3359L105.722 66.3412C106.16 66.2732 106.507 65.9292 107.167 66.0212C109.834 66.3692 110.535 67.0466 112.535 67.4586C112.768 67.5052 113.186 67.4706 113.288 67.5892L113.283 67.6479C113.17 67.6666 112.998 67.6786 112.712 67.6612C112.703 67.6612 108.962 67.1172 107.25 67.7012C106.785 67.8612 106.091 67.9066 105.755 67.9186H105.65C105.314 67.9066 104.62 67.8612 104.156 67.7012C102.444 67.1172 98.7031 67.6612 98.6938 67.6612C98.4071 67.6786 98.2338 67.6666 98.1231 67.6479L98.1191 67.5892C98.2191 67.4706 98.6378 67.5052 98.8698 67.4586" fill="#E1AE8D"/>
<path d="M87.3555 42.8106C87.3555 42.8106 90.1555 45.3359 92.9021 45.4066C97.2048 45.5199 98.1115 44.0826 98.1115 44.0826C98.1115 44.0826 97.6848 40.9213 93.6555 41.0973C89.8288 41.2639 87.3555 42.8106 87.3555 42.8106Z" fill="white"/>
<path d="M91.2157 43.4732C91.1557 42.2852 92.057 41.2746 93.253 41.1332L93.485 41.1119C94.7277 41.0879 95.7784 42.0292 95.8384 43.2492C95.8837 44.1612 95.3611 44.9706 94.5797 45.3639C94.0851 45.4039 93.5357 45.4239 92.9024 45.4066C92.753 45.4039 92.605 45.3679 92.453 45.3492C91.753 44.9906 91.2584 44.2999 91.2157 43.4732" fill="#3871C1"/>
<path d="M93.5998 44.8159C92.7732 44.8559 92.0732 44.2372 92.0332 43.4346C91.9918 42.6319 92.6291 41.9452 93.4545 41.9066C94.2785 41.8666 94.9785 42.4866 95.0185 43.2893C95.0585 44.0919 94.4238 44.7759 93.5998 44.8159" fill="#231F20"/>
<path d="M91.9441 43.0066C91.9561 43.2319 92.1561 43.4065 92.3961 43.3932C92.6334 43.3825 92.8201 43.1905 92.8068 42.9652L92.8001 42.8159C92.7881 42.5892 92.5841 42.4159 92.3494 42.4279C92.1094 42.4385 91.9241 42.6319 91.9361 42.8572L91.9441 43.0066" fill="white"/>
<path d="M98.1121 44.0826C97.8521 42.9812 97.5415 41.9519 96.4161 41.5012C92.3948 39.8879 88.2228 42.5306 87.3828 42.7172C88.5041 42.8612 89.7815 42.0132 91.2828 41.7986C94.6201 41.3199 96.9028 41.4012 98.1121 44.0826Z" fill="#91816F"/>
<path d="M124.193 42.8106C124.193 42.8106 121.394 45.3359 118.647 45.4066C114.346 45.5199 113.438 44.0826 113.438 44.0826C113.438 44.0826 113.864 40.9213 117.895 41.0973C121.721 41.2639 124.193 42.8106 124.193 42.8106" fill="white"/>
<path d="M120.333 43.4732C120.393 42.2852 119.493 41.2746 118.297 41.1332L118.064 41.1119C116.821 41.0879 115.772 42.0292 115.709 43.2492C115.667 44.1612 116.187 44.9706 116.969 45.3639C117.464 45.4039 118.015 45.4239 118.647 45.4066C118.797 45.4039 118.947 45.3679 119.095 45.3492C119.795 44.9906 120.291 44.2999 120.333 43.4732" fill="#3871C1"/>
<path d="M117.949 44.8159C118.777 44.8559 119.476 44.2372 119.516 43.4346C119.556 42.6319 118.92 41.9452 118.094 41.9066C117.269 41.8666 116.57 42.4866 116.529 43.2893C116.489 44.0919 117.124 44.7759 117.949 44.8159" fill="#231F20"/>
<path d="M119.605 43.0066C119.593 43.2319 119.393 43.4065 119.154 43.3932C118.917 43.3825 118.731 43.1905 118.741 42.9652L118.749 42.8159C118.761 42.5892 118.963 42.4159 119.201 42.4279C119.441 42.4385 119.623 42.6319 119.613 42.8572L119.605 43.0066Z" fill="white"/>
<path d="M113.438 44.0826C113.697 42.9812 114.007 41.9519 115.135 41.5012C119.155 39.8879 123.327 42.5306 124.167 42.7172C123.047 42.8612 121.769 42.0132 120.265 41.7986C116.928 41.3199 114.647 41.4012 113.438 44.0826" fill="#91816F"/>
<path d="M99.1566 38.4972C99.4392 35.7079 92.9032 35.6599 90.8752 35.9425C87.9232 36.2145 86.1912 37.6679 86.4806 38.5252C88.8606 37.9385 88.9752 37.6265 91.8312 37.6679C97.1792 37.7452 99.0086 39.9452 99.1566 38.4972Z" fill="#8F8780"/>
<path d="M112.2 38.4972C111.918 35.7079 118.454 35.6599 120.482 35.9425C123.434 36.2145 125.166 37.6679 124.876 38.5252C122.498 37.9385 122.382 37.6265 119.526 37.6679C114.178 37.7452 112.348 39.9452 112.2 38.4972Z" fill="#8F8780"/>
<path d="M129.04 43.2292C129.04 43.2292 131.747 40.2425 132.707 42.6985C134.481 47.2332 128.173 52.2639 127.9 53.1665C127.628 54.0705 129.04 43.2292 129.04 43.2292Z" fill="#FBCDA3"/>
<path d="M47.7782 134.488C48.3236 121.018 45.1866 102.477 44.619 94.6977L44.7112 94.671C45.3138 94.4977 45.9323 94.323 46.5715 94.1443C47.2917 93.9429 48.0247 93.7403 48.7974 93.5309C50.5146 93.0655 52.2842 92.6481 54.0649 92.2468C54.2812 92.1974 54.4958 92.1494 54.712 92.1014C55.8679 91.8441 57.0207 91.5934 58.1734 91.344C58.6933 91.232 59.2116 91.1173 59.7268 91.004L59.749 91C64.6159 104.856 77.1909 130.506 103.681 131.049V131.044L103.991 131.057V131.054L104.212 131.064L104.5 131.073L104.788 131.064L105.009 131.054V131.057L105.319 131.044V131.049C131.809 130.506 144.384 104.856 149.251 91L149.273 91.004C149.788 91.1173 150.307 91.232 150.827 91.344C151.979 91.5934 153.132 91.8441 154.288 92.1014C154.504 92.1494 154.719 92.1974 154.935 92.2468C156.716 92.6481 158.485 93.0655 160.203 93.5309C160.975 93.7403 161.708 93.9429 162.429 94.1443C163.068 94.323 163.686 94.4977 164.289 94.671L164.381 94.6977C163.813 102.477 160.676 121.018 161.222 134.488C161.867 150.48 166.054 160.3 171 162.574V162.575L170.998 162.579C170.75 163.474 170.485 164.376 170.203 165.278L170.173 165.375C169.898 166.255 169.604 167.133 169.296 167.999L169.235 168.171C168.924 169.034 168.598 169.885 168.251 170.714L168.195 170.844C167.839 171.692 167.467 172.518 167.071 173.313C157.838 191.822 161.341 215.251 161.021 226.656C160.748 236.483 162.648 236.611 164.639 241.982C164.909 242.713 165.17 243.423 165.419 244.116L165.426 244.131C165.67 244.811 165.906 245.473 166.133 246.126L166.16 246.203C166.381 246.836 166.591 247.459 166.795 248.075L166.831 248.186C167.03 248.794 167.222 249.395 167.407 249.997L167.442 250.113C167.623 250.71 167.798 251.306 167.966 251.905L168.005 252.034C168.17 252.63 168.33 253.232 168.485 253.84L168.52 253.974C168.672 254.589 168.822 255.212 168.965 255.845L168.99 255.958C169.133 256.6 169.272 257.256 169.405 257.928L169.42 258H39.5804L39.5963 257.928C39.7283 257.256 39.8666 256.6 40.0097 255.958L40.0352 255.845C40.1783 255.212 40.3277 254.589 40.4803 253.974L40.5153 253.84C40.6696 253.232 40.8285 252.63 40.9955 252.034L41.0337 251.905C41.2022 251.306 41.3771 250.71 41.5583 250.113L41.5933 249.997C41.7793 249.395 41.9701 248.794 42.1689 248.186L42.2055 248.075C42.409 247.459 42.6188 246.836 42.8398 246.203L42.8669 246.126C43.0926 245.473 43.3295 244.811 43.5744 244.131L43.5807 244.116C43.8304 243.423 44.0911 242.713 44.3614 241.982C46.3536 236.611 48.252 236.483 47.9786 226.656C47.659 215.251 51.1617 191.822 41.9288 173.313C41.5329 172.518 41.1608 171.692 40.8047 170.844L40.749 170.714C40.4024 169.885 40.0765 169.034 39.7648 168.171L39.7044 167.999C39.396 167.133 39.1019 166.255 38.8268 165.375L38.7966 165.278C38.5151 164.376 38.2496 163.474 38.0016 162.579L38 162.575V162.574C42.9464 160.3 47.1327 150.48 47.7782 134.488Z" fill="#DBEFF5"/>
<path d="M99.8041 311.034V311.118C99.8025 311.118 89.132 316.066 63.1335 314.789C45.0062 313.9 35 309.41 35 309.41C35.008 309.174 35.0191 308.94 35.0303 308.705C35.4764 299.649 36.3846 290.01 37.6019 278.579L37.5828 278.26C37.6513 277.308 37.7214 276.395 37.7915 275.505L37.8106 275.253C37.8839 274.333 37.9588 273.445 38.0353 272.588L38.0433 272.51C38.1213 271.639 38.1994 270.797 38.2807 269.987V269.984C38.3269 269.521 38.3747 269.089 38.4209 268.646C38.4591 268.303 38.4926 267.945 38.5308 267.612C38.6153 266.857 38.7013 266.127 38.7921 265.419L38.7937 265.406C38.8861 264.677 38.9801 263.972 39.0757 263.288L39.0773 263.281L39.1092 263.077C39.1873 262.532 39.2669 261.999 39.3514 261.48C39.388 261.25 39.4263 261.029 39.4629 260.802C39.5251 260.442 39.584 260.081 39.6478 259.731C39.8167 258.775 39.9951 257.853 40.1831 256.965L40.1879 256.946C40.36 256.133 40.5416 255.343 40.7328 254.569V254.568C40.924 253.792 41.1232 253.031 41.3351 252.279L41.3431 252.247C41.5518 251.498 41.7733 250.753 42.0059 250.007L42.0075 250C43.7761 250.712 62.6523 254.827 104.618 254.835V254.828L105 254.832L105.382 254.828V254.835C147.349 254.827 166.224 250.712 167.993 250L167.996 250.013C168.228 250.757 168.448 251.499 168.657 252.247L168.665 252.279C168.877 253.031 169.076 253.792 169.266 254.566L169.267 254.569C169.458 255.343 169.64 256.133 169.812 256.946L169.815 256.965C170 257.832 170.174 258.728 170.341 259.657C170.437 260.187 170.529 260.728 170.618 261.283L170.647 261.468C170.738 262.027 170.824 262.6 170.908 263.19L170.931 263.344C171.018 263.953 171.101 264.582 171.184 265.229L171.222 265.527C171.303 266.181 171.383 266.851 171.461 267.546L171.482 267.729C171.563 268.458 171.641 269.204 171.719 269.981L171.721 269.992C171.796 270.755 171.871 271.547 171.944 272.364L171.974 272.704C172.043 273.503 172.114 274.325 172.181 275.175L172.21 275.523C172.28 276.407 172.349 277.313 172.417 278.26C172.427 278.381 172.417 278.487 172.397 278.582C173.615 290.018 174.524 299.658 174.971 308.719C174.979 308.946 174.992 309.176 175 309.41C175 309.41 164.995 313.9 146.867 314.789C120.866 316.066 110.196 311.118 110.196 311.118C110.164 308.392 110.158 305.735 110.175 303.187H110.174C109.702 303.349 109.219 303.478 108.736 303.603C108.011 303.785 107.278 303.938 106.53 304.014V304.017L106.487 304.019C105.996 304.067 105.502 304.096 105 304.095C104.498 304.096 104.004 304.067 103.513 304.019L103.47 304.017V304.014C102.223 303.888 101.009 303.596 99.8249 303.187C99.8424 305.709 99.836 308.337 99.8041 311.034" fill="#3C44A2"/>
</svg>
