<svg width="192" height="582" viewBox="0 0 192 582" fill="none" xmlns="http://www.w3.org/2000/svg">
<path d="M150.823 132.455C165.449 100.917 162.467 101.312 162.467 101.312C157.597 97.8705 154.469 96.2679 142.241 93.5825C132.916 91.5332 125.108 94.4532 116.217 85.3145C111.385 80.3479 110.674 73.0332 110.323 64.5812C110.026 57.4612 100.908 58.6945 96.8071 58.3012V58.2065L95.5852 58.2025H95.47L94.2476 58.2065V58.3012C90.1471 58.6945 81.0284 57.4612 80.7325 64.5812C80.3815 73.0332 79.67 80.3479 74.8377 85.3145C65.9476 94.4532 58.1388 91.5332 48.8148 93.5825C36.5867 96.2679 33.4585 97.8705 28.5883 101.312C28.5883 101.312 25.6055 100.917 40.2309 132.455C41.0591 134.241 44.3356 154.424 50.0951 174.544C55.6153 193.832 54.2601 215.291 54.5279 226.695C54.7576 236.521 53.1637 236.649 51.4945 242.02C48.0404 253.131 42.8185 259.164 41.6711 278.211C41.556 280.116 43.9981 278.608 47.9549 277.1C52.27 275.456 58.3867 273.811 64.9539 276.593C73.9404 280.4 82.1576 302.551 94.2476 304.028V304.029L94.2836 304.032C94.694 304.08 95.1071 304.109 95.5273 304.108C95.9471 304.109 96.3612 304.08 96.7705 304.032L96.8071 304.029V304.028C108.898 302.551 117.114 280.4 126.101 276.593C132.668 273.811 138.785 275.456 143.099 277.1C147.057 278.608 149.498 280.116 149.383 278.211C148.237 259.164 143.015 253.131 139.561 242.02C137.89 236.649 136.298 236.521 136.527 226.695C136.795 215.291 135.439 193.832 140.961 174.544C146.719 154.424 149.997 134.241 150.823 132.455Z" fill="#FBCDA3"/>
<path d="M149.385 278.21C149.402 278.117 147.527 262.004 143.387 252.109C141.213 249.981 137.777 239.348 123.043 242.729C102.778 247.381 102.622 265.876 101.135 276.724C100.399 282.092 99.9258 291.622 99.858 303.197C99.7331 324.452 100.987 352.617 104.546 374.71C105.335 379.61 104.452 384.484 104.262 389.046C103.617 404.613 107.238 411.16 106.632 420.316C105.893 431.452 101.877 441.23 102.762 462.326C103.901 489.47 111.508 520.769 110.459 538.952C110.216 543.211 109.653 547.781 108.859 556.392C108.085 564.757 104.827 572.652 104.912 575.64C105.143 584.217 114.756 580.937 118.557 580.673C123.174 580.348 140.245 578.293 138.926 571.661C138.065 567.332 132.258 563.159 131.302 555.789C130.769 551.694 126.669 542.918 126.691 540.692C127.096 500.561 136.109 479.477 136.909 456.242C137.481 439.577 136.555 429.984 135.485 419.933C134.406 409.88 138.911 390.601 140.961 377.749C147.365 337.586 152.663 315.116 149.385 278.21Z" fill="#FBCDA3"/>
<path d="M91.1982 303.197C91.1306 291.622 90.6566 282.092 89.9206 276.724C88.4332 265.876 88.2764 247.381 68.0129 242.729C53.281 239.348 49.8425 249.981 47.6697 252.109C43.529 262.004 41.6545 278.117 41.6722 278.21C38.393 315.116 43.6905 337.586 50.0962 377.749C52.1457 390.601 56.6498 409.88 55.5712 419.933C54.5004 429.984 53.5754 439.577 54.1482 456.242C54.9477 479.477 63.9597 500.561 64.3649 540.692C64.3868 542.918 60.2868 551.694 59.754 555.789C58.7982 563.159 52.9921 567.332 52.1306 571.661C50.8124 578.293 67.8816 580.348 72.4998 580.673C76.3004 580.937 85.9124 584.217 86.1436 575.64C86.229 572.652 82.9717 564.757 82.1973 556.392C81.4034 547.781 80.8394 543.211 80.5973 538.952C79.5473 520.769 87.1545 489.47 88.293 462.326C89.178 441.23 85.1624 431.452 84.4244 420.316C83.8181 411.16 87.4384 404.613 86.7941 389.046C86.604 384.484 85.7217 379.61 86.5102 374.71C90.0697 352.617 91.3233 324.452 91.1982 303.197Z" fill="#FBCDA3"/>
<path d="M176.969 233.72C174.814 234.133 165.554 229.696 165.489 214.633C165.458 207.109 153.118 181.155 147.027 141.287C146.007 134.599 139.459 125.524 139.041 123.337C136.161 108.3 141.999 96.7039 142.241 93.5825C164.895 95.8559 171.249 107.712 172.103 126.695C172.658 139.061 178.349 149.577 181.701 164.271C184.706 177.444 186.79 200.213 186.686 214.827C186.659 218.547 186.711 231.852 176.969 233.72Z" fill="#FBCDA3"/>
<path d="M188.12 283.684C188.163 278.669 184.478 275.849 181.434 275.844C178.256 275.84 178.062 279.055 175.135 283.684C173.212 288.995 167.583 290.207 164.386 305.845C163.526 310.047 162.567 314.108 162.071 317.817C162.016 318.176 165.443 319.328 166.911 315.368C170.471 305.817 171.774 307.272 173.92 303.995C173.53 308.275 175.048 312.436 170.147 322.395C167.048 328.689 162.955 332.131 165.7 334.848C168.448 337.563 181.7 329.629 188.619 311.733C191.48 304.332 189.867 291.143 188.12 283.684Z" fill="#FBCDA3"/>
<path d="M175.135 283.684C176.231 289.597 178.557 288.364 181.158 288.437C183.758 288.508 187.598 288.14 188.121 283.684C188.445 280.891 189.053 276.297 189.381 272.864C193.174 232.861 190.195 213.949 183.753 201.837C181.731 198.036 178.631 194.217 173.167 196.289C165.121 199.336 165.379 210.245 165.489 214.633C166.111 239.187 171.463 260.747 174.034 276.619C174.447 279.171 175.135 283.684 175.135 283.684Z" fill="#FBCDA3"/>
<path d="M14.0887 233.72C16.2428 234.133 25.5033 229.696 25.5668 214.633C25.5991 207.109 37.9381 181.155 44.0288 141.287C45.0501 134.599 51.597 125.524 52.0157 123.337C54.8954 108.3 49.0569 96.7039 48.8162 93.5825C26.1616 95.8559 19.808 107.712 18.9542 126.695C18.3985 139.061 12.7064 149.577 9.35586 164.271C6.35169 177.444 4.26628 200.213 4.37096 214.827C4.39701 218.547 4.34492 231.852 14.0887 233.72Z" fill="#FBCDA3"/>
<path d="M2.93713 283.684C2.89442 278.669 6.5788 275.849 9.62256 275.844C12.7996 275.84 12.9944 279.055 15.9225 283.684C17.8428 288.995 23.4725 290.207 26.6709 305.845C27.5313 310.047 28.4897 314.108 28.9845 317.817C29.0397 318.176 25.6143 319.328 24.1455 315.368C20.5845 305.817 19.2824 307.272 17.1356 303.995C17.5267 308.275 16.008 312.436 20.9095 322.395C24.008 328.689 28.1012 332.131 25.3553 334.848C22.608 337.563 9.35537 329.629 2.43609 311.733C-0.424325 304.332 1.1887 291.143 2.93713 283.684Z" fill="#FBCDA3"/>
<path d="M15.9218 283.684C14.8245 289.597 12.4994 288.364 9.89839 288.437C7.29735 288.508 3.45881 288.14 2.93641 283.684C2.61141 280.891 2.00255 276.297 1.67651 272.864C-2.11931 232.861 0.859851 213.949 7.30255 201.837C9.32495 198.036 12.4229 194.217 17.8874 196.289C25.9338 199.336 25.6776 210.245 25.5661 214.633C24.9453 239.187 19.5932 260.747 17.0218 276.619C16.6088 279.171 15.9218 283.684 15.9218 283.684Z" fill="#FBCDA3"/>
<path d="M125.503 24.5065C125.142 22.3665 125.713 20.4639 125.033 18.3785C124.519 16.8012 122.95 15.5585 122.136 14.2092C121.12 12.5212 120.792 11.1479 119.65 9.52119C118.389 7.72919 116.759 7.43319 115.047 6.38786C112.665 4.93186 111.684 3.42521 109.028 2.80654C104.475 1.74388 100.322 0.885181 95.5278 1.01051C90.7335 0.885181 86.5803 1.74388 82.0278 2.80654C79.3715 3.42521 78.3908 4.93186 76.0084 6.38786C74.2966 7.43319 72.6663 7.72919 71.4054 9.52119C70.2632 11.1479 69.9356 12.5212 68.9194 14.2092C68.1059 15.5585 66.536 16.8012 66.0226 18.3785C65.3428 20.4639 65.9136 22.3665 65.5523 24.5065C65.2111 26.5212 65.5668 28.5226 65.759 30.6199C65.9502 32.6892 67.0486 34.4665 66.7226 36.7145C66.4012 38.9425 66.946 41.2865 67.9674 43.3945C69.3398 46.2279 68.221 47.5079 69.1668 50.4972C70.2731 54.0039 71.8231 57.4265 74.0699 60.3732C76.5934 63.6825 78.7783 66.3986 82.886 67.4559L95.5278 68.0772L108.169 67.4559C112.278 66.3986 114.463 63.6825 116.986 60.3732C119.232 57.4265 120.783 54.0039 121.888 50.4972C122.835 47.5079 121.716 46.2279 123.088 43.3945C124.109 41.2865 124.655 38.9425 124.333 36.7145C124.007 34.4665 125.106 32.6892 125.297 30.6199C125.489 28.5226 125.844 26.5212 125.503 24.5065Z" fill="#795C48"/>
<path d="M111.081 73.6345C110.948 72.7825 110.838 71.9092 110.746 71.0172C110.746 71.0172 110.746 71.0172 110.746 71.0172C110.838 71.9092 110.949 72.7812 111.083 73.6332C111.083 73.6332 111.082 73.6345 111.081 73.6345ZM79.9737 73.6345C79.9732 73.6345 79.9727 73.6332 79.9727 73.6332C80.1065 72.7812 80.2164 71.9092 80.309 71.0159C80.309 71.0172 80.3091 71.0172 80.3096 71.0172C80.2175 71.9092 80.1071 72.7825 79.9737 73.6345Z" fill="#E9E8E8"/>
<path d="M95.5282 85.7946C88.9907 85.7946 83.4282 79.7012 79.9746 73.6346C80.1079 72.7826 80.2183 71.9092 80.3105 71.0172C82.9694 74.0546 86.0131 77.2612 86.8511 77.9586C89.0225 79.7679 91.7454 80.9532 95.3839 80.9532L95.5282 80.9599L95.6735 80.9532C99.3099 80.9532 102.034 79.7679 104.206 77.9586C105.043 77.2612 108.087 74.0546 110.746 71.0172C110.839 71.9092 110.949 72.7826 111.082 73.6346C107.628 79.7012 102.066 85.7946 95.5282 85.7946Z" fill="#E5BB94"/>
<path d="M117.32 27.8572C116.437 24.5425 115.796 23.2052 114.33 22.4265C112.636 21.5278 110.026 21.9545 105.89 22.3798C103.159 22.6625 99.7645 22.9439 95.5281 22.8452C91.2917 22.9439 87.8963 22.6625 85.1671 22.3798C81.0297 21.9545 78.4207 21.5278 76.7265 22.4265C75.2603 23.2052 74.6193 24.5425 73.7369 27.8572C72.8879 31.0465 71.565 38.5359 72.0207 40.9825C73.7469 50.2532 72.7906 60.3732 76.3005 66.0052C78.0125 68.7532 85.4619 76.8012 86.851 77.9585C89.0223 79.7678 91.7453 80.9532 95.3838 80.9532L95.5281 80.9598L95.6734 80.9532C99.3098 80.9532 102.034 79.7678 104.206 77.9585C105.594 76.8012 113.044 68.7532 114.757 66.0052C118.266 60.3732 117.31 50.2532 119.036 40.9825C119.492 38.5359 118.169 31.0465 117.32 27.8572Z" fill="#FBCDA3"/>
<path d="M73.0716 43.4892C73.0716 43.4892 71.0419 39.9879 70.3195 42.8652C68.9888 48.1812 73.7227 54.0772 73.9299 55.1345C74.1341 56.1932 73.0716 43.4892 73.0716 43.4892Z" fill="#FBCDA3"/>
<path d="M117.985 43.4892C117.985 43.4892 120.014 39.9879 120.737 42.8652C122.066 48.1812 117.332 54.0772 117.125 55.1345C116.923 56.1932 117.985 43.4892 117.985 43.4892Z" fill="#FBCDA3"/>
<path d="M95.5368 57.5826H95.528H95.5192C93.4947 57.4346 91.6348 57.0693 90.3379 55.8893C91.1791 56.3026 93.3223 56.5106 95.4635 56.5106L95.528 56.5092L95.5931 56.5106C97.7343 56.5106 99.8775 56.3026 100.719 55.8893C99.4212 57.0693 97.5619 57.4346 95.5368 57.5826Z" fill="#E8BD96"/>
<path d="M102.338 67.4585C100.338 67.0465 99.6357 66.3692 96.9701 66.0212C96.3128 65.9306 95.9648 66.2692 95.5289 66.3399C95.0925 66.2692 94.7456 65.9306 94.0877 66.0212C91.4221 66.3692 90.7196 67.0465 88.7201 67.4585C88.4877 67.5052 88.0691 67.4706 87.9691 67.5892C87.7743 67.8199 89.4139 68.7866 90.2237 69.0852C91.1128 69.4159 93.332 69.7679 95.5289 69.7692C97.7259 69.7679 99.9461 69.4159 100.834 69.0852C101.644 68.7866 103.284 67.8199 103.089 67.5892C102.989 67.4706 102.571 67.5052 102.338 67.4585Z" fill="#ECB593"/>
<path d="M102.337 67.4586C100.337 67.0466 99.6354 66.3692 96.9698 66.0212C96.3125 65.9306 95.9645 66.2692 95.5286 66.3399C95.0922 66.2692 94.7453 65.9306 94.0874 66.0212C91.4218 66.3692 90.7193 67.0466 88.7198 67.4586C88.4874 67.5052 88.0687 67.4706 87.9688 67.5892L87.9723 67.6479C88.0838 67.6666 88.2562 67.6786 88.5431 67.6612C88.5526 67.6612 92.2942 67.1172 94.0062 67.7012C94.4698 67.8612 95.1641 67.9066 95.4999 67.9186H95.5573C95.8937 67.9066 96.5869 67.8612 97.0515 67.7012C98.763 67.1172 102.505 67.6612 102.514 67.6612C102.802 67.6786 102.974 67.6666 103.085 67.6479L103.089 67.5892C102.988 67.4706 102.57 67.5052 102.337 67.4586Z" fill="#E1AE8D"/>
<path d="M77.2051 42.8106C77.2051 42.8106 80.0056 45.3359 82.7525 45.4066C87.0545 45.5199 87.9624 44.0826 87.9624 44.0826C87.9624 44.0826 87.5343 40.9213 83.5051 41.0973C79.6785 41.2639 77.2051 42.8106 77.2051 42.8106Z" fill="white"/>
<path d="M81.0653 43.4732C81.0055 42.2852 81.9065 41.2746 83.1024 41.1332L83.3352 41.1119C84.5773 41.0879 85.6279 42.0292 85.6888 43.2492C85.7336 44.1612 85.2106 44.9706 84.4289 45.3639C83.9346 45.4039 83.3852 45.4239 82.7524 45.4066C82.6024 45.4039 82.4533 45.3679 82.3024 45.3492C81.6024 44.9906 81.1081 44.2999 81.0653 43.4732Z" fill="#3871C1"/>
<path d="M83.4489 44.8159C82.6229 44.8559 81.9234 44.2372 81.8827 43.4346C81.8417 42.6319 82.4791 41.9452 83.3041 41.9066C84.1291 41.8666 84.8286 42.4866 84.8687 43.2893C84.9087 44.0919 84.2739 44.7759 83.4489 44.8159Z" fill="#231F20"/>
<path d="M81.7945 43.0066C81.8054 43.2319 82.0054 43.4065 82.2455 43.3932C82.483 43.3825 82.6695 43.1905 82.6565 42.9652L82.6491 42.8159C82.6382 42.5892 82.4346 42.4159 82.1991 42.4279C81.9581 42.4385 81.7742 42.6319 81.7857 42.8572L81.7945 43.0066Z" fill="white"/>
<path d="M87.9627 44.0826C87.7023 42.9812 87.3908 41.9519 86.2652 41.5012C82.2444 39.8879 78.0726 42.5306 77.2324 42.7172C78.3538 42.8612 79.6308 42.0132 81.133 41.7986C84.4699 41.3199 86.7523 41.4012 87.9627 44.0826Z" fill="#91816F"/>
<path d="M113.851 42.8106C113.851 42.8106 111.051 45.3359 108.303 45.4066C104.002 45.5199 103.094 44.0826 103.094 44.0826C103.094 44.0826 103.522 40.9213 107.551 41.0973C111.378 41.2639 113.851 42.8106 113.851 42.8106Z" fill="white"/>
<path d="M109.991 43.4732C110.051 42.2852 109.15 41.2746 107.954 41.1332L107.722 41.1119C106.479 41.0879 105.428 42.0292 105.368 43.2492C105.323 44.1612 105.846 44.9706 106.628 45.3639C107.121 45.4039 107.672 45.4239 108.303 45.4066C108.454 45.4039 108.602 45.3679 108.754 45.3492C109.454 44.9906 109.949 44.2999 109.991 43.4732Z" fill="#3871C1"/>
<path d="M107.607 44.8159C108.434 44.8559 109.133 44.2372 109.174 43.4346C109.214 42.6319 108.577 41.9452 107.753 41.9066C106.927 41.8666 106.228 42.4866 106.187 43.2893C106.148 44.0919 106.782 44.7759 107.607 44.8159Z" fill="#231F20"/>
<path d="M109.262 43.0066C109.251 43.2319 109.051 43.4065 108.811 43.3932C108.573 43.3825 108.387 43.1905 108.399 42.9652L108.407 42.8159C108.418 42.5892 108.622 42.4159 108.857 42.4279C109.098 42.4385 109.282 42.6319 109.27 42.8572L109.262 43.0066Z" fill="white"/>
<path d="M103.094 44.0826C103.354 42.9812 103.665 41.9519 104.791 41.5012C108.812 39.8879 112.984 42.5306 113.824 42.7172C112.703 42.8612 111.425 42.0132 109.923 41.7986C106.586 41.3199 104.304 41.4012 103.094 44.0826Z" fill="#91816F"/>
<path d="M89.0058 38.4972C89.2881 35.7079 82.7526 35.6599 80.725 35.9425C77.7725 36.2145 76.0408 37.6679 76.3302 38.5252C78.71 37.9385 78.825 37.6265 81.6807 37.6679C87.0282 37.7452 88.8584 39.9452 89.0058 38.4972Z" fill="#8F8780"/>
<path d="M102.05 38.4972C101.768 35.7079 108.303 35.6599 110.331 35.9425C113.283 36.2145 115.015 37.6679 114.725 38.5252C112.346 37.9385 112.231 37.6265 109.375 37.6679C104.027 37.7452 102.198 39.9452 102.05 38.4972Z" fill="#8F8780"/>
<path d="M146.057 154.361C144.479 149.569 143.378 142.908 143.094 134.536C142.694 122.725 145.417 104.177 146.414 94.5439C146.206 94.4919 145.973 94.4399 145.757 94.3879C145.699 94.5972 145.665 94.7253 145.666 94.7226L145.753 94.3879C144.666 94.1279 143.513 93.8612 142.241 93.5826C138.693 92.8026 135.582 92.7879 132.596 92.5652C128.212 106.692 117.644 130.573 96.215 131.097V131.092L95.9536 131.105V131.103L95.7688 131.112L95.5276 131.121L95.2864 131.112L95.1016 131.103V131.105L94.8406 131.092V131.097C73.4114 130.573 62.8426 106.692 58.4588 92.5652C55.4745 92.7879 52.3634 92.8026 48.815 93.5826C47.5432 93.8612 46.3896 94.1279 45.3021 94.3879L45.3896 94.7226C45.3906 94.7253 45.3552 94.5972 45.2973 94.3879C45.0822 94.4399 44.85 94.4919 44.6406 94.5439C45.638 104.177 48.3614 122.725 47.962 134.536C47.6781 142.908 46.5754 149.569 44.9978 154.361C46.4 160.583 48.0978 167.567 50.0953 174.544C55.6161 193.832 54.2604 215.291 54.5281 226.695C54.7578 236.521 53.164 236.649 51.4948 242.02C49.6708 247.887 47.3552 252.337 45.4052 258.036H145.65C143.699 252.337 141.386 247.887 139.561 242.02C137.89 236.649 136.298 236.521 136.527 226.695C136.795 215.291 135.439 193.832 140.961 174.544C142.958 167.567 144.655 160.583 146.057 154.361Z" fill="#DBEFF5"/>
<path d="M149.385 278.211C148.583 264.931 145.805 257.977 143.022 251.219C135.706 252.679 120.571 254.723 95.8476 254.729V254.723L95.5274 254.727L95.2076 254.723V254.729C70.4852 254.723 55.3498 252.679 48.0326 251.219C45.2514 257.977 42.4711 264.931 41.6711 278.211C40.591 290.359 40.4466 300.939 40.9586 311.105C44.8372 312.483 51.4446 314.296 60.4935 314.828C82.2476 316.108 91.1779 311.148 91.1795 311.148V311.064C91.1924 309.712 91.2003 308.379 91.2034 307.068C91.2066 305.756 91.2044 304.463 91.1971 303.197V303.196C91.556 303.347 91.9216 303.459 92.2878 303.576C92.931 303.777 93.5809 303.947 94.2476 304.027V304.029L94.2836 304.032C94.694 304.08 95.1076 304.109 95.5274 304.108C95.9471 304.109 96.3612 304.08 96.7705 304.032L96.8071 304.029V304.027C97.4732 303.947 98.1243 303.777 98.767 303.576C99.1336 303.459 99.4992 303.347 99.858 303.196V303.197C99.8508 304.463 99.8498 305.756 99.8514 307.068C99.8539 308.379 99.8618 309.712 99.8752 311.064V311.148C99.8768 311.148 108.808 316.108 130.562 314.828C139.61 314.296 146.218 312.483 150.097 311.105C150.609 300.939 150.463 290.359 149.385 278.211Z" fill="#3C44A2"/>
</svg>
