<svg width="208" height="192" viewBox="0 0 208 192" fill="none" xmlns="http://www.w3.org/2000/svg">
<g opacity="0.5">
<path opacity="0.5" d="M144.898 11.5542L57.5658 11.7669C57.0944 11.7679 56.6279 11.8618 56.1928 12.0433C55.7577 12.2247 55.3627 12.4901 55.0302 12.8243C54.6977 13.1584 54.4344 13.5548 54.2552 13.9908C54.076 14.4268 53.9845 14.8939 53.9859 15.3653L54.3825 178.707C54.3835 179.178 54.4774 179.645 54.6588 180.08C54.8403 180.515 55.1056 180.91 55.4398 181.243C55.774 181.575 56.1704 181.839 56.6064 182.018C57.0424 182.197 57.5094 182.288 57.9808 182.287L145.313 182.074C145.785 182.073 146.252 181.979 146.687 181.798C147.122 181.616 147.517 181.35 147.85 181.016C148.182 180.682 148.446 180.285 148.625 179.849C148.804 179.412 148.895 178.945 148.893 178.473L148.497 15.1315C148.495 14.6603 148.401 14.1941 148.219 13.7593C148.038 13.3245 147.772 12.9298 147.438 12.5976C147.104 12.2654 146.708 12.0023 146.272 11.8232C145.836 11.6442 145.369 11.5528 144.898 11.5542Z" fill="url(#paint0_linear)"/>
</g>
<path d="M143.633 13.7842L58.841 13.9914C56.8624 13.9963 55.2623 15.6042 55.2672 17.5828L55.6552 176.401C55.6601 178.38 57.268 179.98 59.2466 179.975L144.039 179.768C146.017 179.763 147.618 178.155 147.613 176.177L147.225 17.3581C147.22 15.3795 145.612 13.7794 143.633 13.7842Z" fill="white"/>
<path opacity="0.4" d="M124.348 17.9918C124.087 19.7524 123.204 21.3612 121.859 22.5275C120.515 23.6938 118.797 24.3405 117.018 24.3507L85.2549 24.4268C83.4764 24.4236 81.7577 23.7847 80.409 22.6253C79.0604 21.466 78.1707 19.8626 77.9006 18.1047L61.0776 18.1468C60.6188 18.1478 60.1648 18.2392 59.7414 18.4157C59.3179 18.5922 58.9334 18.8504 58.6098 19.1755C58.2861 19.5006 58.0297 19.8863 57.8551 20.3105C57.6805 20.7347 57.5911 21.1892 57.5922 21.6479L57.9573 172.325C57.9583 172.784 58.0498 173.238 58.2264 173.661C58.4031 174.085 58.6615 174.47 58.9869 174.793C59.3123 175.117 59.6983 175.373 60.1228 175.548C60.5474 175.722 61.0021 175.811 61.4611 175.81L141.833 175.616C142.292 175.615 142.746 175.523 143.169 175.347C143.593 175.17 143.977 174.912 144.301 174.587C144.625 174.262 144.881 173.876 145.056 173.452C145.23 173.028 145.32 172.573 145.319 172.114L144.953 21.4378C144.952 20.9791 144.861 20.525 144.685 20.1016C144.508 19.6782 144.25 19.2936 143.925 18.97C143.6 18.6463 143.214 18.3899 142.79 18.2153C142.366 18.0407 141.911 17.9514 141.452 17.9524L124.348 17.9918Z" fill="#22C88A"/>
<path d="M110.132 19.9015L90.6924 20.1933C90.4023 20.1976 90.1706 20.4363 90.175 20.7264L90.1785 20.9575C90.1828 21.2476 90.4215 21.4792 90.7116 21.4749L110.151 21.1831C110.441 21.1787 110.673 20.94 110.668 20.65L110.665 20.4188C110.661 20.1288 110.422 19.8971 110.132 19.9015Z" fill="#DBDBDB"/>
<path d="M115.027 21.1073C115.452 21.1009 115.791 20.7513 115.785 20.3263C115.779 19.9013 115.429 19.562 115.004 19.5683C114.579 19.5747 114.24 19.9244 114.246 20.3494C114.252 20.7744 114.602 21.1137 115.027 21.1073Z" fill="#DBDBDB"/>
<g opacity="0.5">
<path opacity="0.5" d="M112.172 132.543C112.173 128.06 111.014 123.653 108.807 119.752C106.6 115.85 103.42 112.586 99.5777 110.277C95.735 107.969 91.36 106.695 86.8787 106.579C82.3974 106.463 77.9624 107.51 74.0056 109.617C70.0488 111.724 66.7049 114.819 64.2994 118.602C61.8939 122.385 60.5089 126.726 60.279 131.203C60.0492 135.679 60.9824 140.14 62.9878 144.149C64.9933 148.158 68.0026 151.58 71.7229 154.081L71.7386 154.196C72.5867 155.009 73.5874 155.645 74.683 156.069L74.7171 155.953C75.9332 157.004 81.0523 158.667 86.9331 158.651H87.0618C90.7863 158.651 94.8311 157.994 98.3875 156.069C98.3875 156.069 98.419 156.001 98.4663 155.872C99.3671 155.449 100.194 154.883 100.914 154.196C100.928 154.096 100.942 153.998 100.956 153.902C104.416 151.517 107.245 148.327 109.199 144.606C111.152 140.885 112.173 136.746 112.172 132.543Z" fill="url(#paint1_linear)"/>
</g>
<path d="M86.2057 157.732C100.115 157.732 111.392 146.456 111.392 132.546C111.392 118.636 100.115 107.36 86.2057 107.36C72.2959 107.36 61.0198 118.636 61.0198 132.546C61.0198 146.456 72.2959 157.732 86.2057 157.732Z" fill="#F5F5F5"/>
<path d="M76.5847 142.902C76.5847 142.902 70.583 143.393 72.1721 154.325C72.9939 155.115 73.9643 155.735 75.0271 156.148L78.4022 144.725L76.5847 142.902Z" fill="#FDA57D"/>
<path d="M96.0578 142.902C96.0578 142.902 102.059 143.393 100.47 154.325C99.6486 155.115 98.6782 155.735 97.6153 156.148L94.2402 144.72L96.0578 142.902Z" fill="#FDA57D"/>
<path d="M76.8447 124.987C76.8447 124.987 73.9897 133.297 72.4321 132.509C72.4321 132.509 87.4612 145.492 100.733 132.509C100.733 132.509 98.3955 128.354 95.0204 124.979L76.8447 124.987Z" fill="#333333"/>
<path d="M86.4787 135.372C92.6451 135.372 97.6441 130.373 97.6441 124.206C97.6441 118.04 92.6451 113.041 86.4787 113.041C80.3122 113.041 75.3132 118.04 75.3132 124.206C75.3132 130.373 80.3122 135.372 86.4787 135.372Z" fill="#333333"/>
<path opacity="0.1" d="M95.9422 142.902H76.4717L74.6541 150.692C74.6541 150.692 73.5878 154.299 74.9168 155.885C76.2458 157.472 88.6483 161.078 97.7677 156.148C98.5631 154.071 98.6554 151.791 98.0303 149.658C96.9797 146.022 97.7677 149.395 97.7677 149.395L95.9422 142.902Z" fill="black"/>
<path opacity="0.1" d="M96.2021 142.902H76.7289L74.9113 150.692C74.9113 150.692 73.845 154.299 75.174 155.885C76.503 157.472 88.9056 161.078 98.0249 156.148C98.8203 154.071 98.9126 151.791 98.2876 149.658C97.2369 146.022 98.0249 149.395 98.0249 149.395L96.2021 142.902Z" fill="black"/>
<path d="M96.0578 142.902H76.5846L74.7671 150.692C74.7671 150.692 73.7007 154.299 75.0297 155.885C76.3587 157.472 88.7612 161.078 97.8806 156.148C98.676 154.071 98.7683 151.791 98.1432 149.658C97.0926 146.022 97.8806 149.395 97.8806 149.395L96.0578 142.902Z" fill="#22C88A"/>
<path opacity="0.1" d="M82.5574 136.438H90.3529V143.976C90.3529 144.316 90.286 144.653 90.156 144.966C90.026 145.28 89.8354 145.566 89.5952 145.806C89.355 146.046 89.0697 146.237 88.7559 146.367C88.442 146.497 88.1056 146.564 87.7658 146.564H85.1393C84.4531 146.564 83.7951 146.291 83.3099 145.806C82.8247 145.321 82.5521 144.663 82.5521 143.976V136.438H82.5574Z" fill="black"/>
<path d="M82.5574 136.152H90.3529V143.69C90.3529 144.03 90.286 144.366 90.156 144.68C90.026 144.994 89.8354 145.279 89.5952 145.519C89.355 145.76 89.0697 145.95 88.7559 146.08C88.442 146.21 88.1056 146.277 87.7658 146.277H85.1393C84.4531 146.277 83.7951 146.005 83.3099 145.519C82.8247 145.034 82.5521 144.376 82.5521 143.69V136.152H82.5574Z" fill="#FDA57D"/>
<path opacity="0.1" d="M82.5731 137.273C85.0839 138.212 87.8476 138.219 90.3634 137.294V136.338H82.5731V137.273Z" fill="black"/>
<path d="M86.4787 137.796C92.6451 137.796 97.6441 132.797 97.6441 126.631C97.6441 120.464 92.6451 115.465 86.4787 115.465C80.3122 115.465 75.3132 120.464 75.3132 126.631C75.3132 132.797 80.3122 137.796 86.4787 137.796Z" fill="#FDA57D"/>
<path d="M75.8073 122.389H97.098C97.098 122.389 95.2804 113.792 87.2327 114.341C79.185 114.89 75.8073 122.389 75.8073 122.389Z" fill="#333333"/>
<path d="M75.5473 128.102C76.1202 128.102 76.5847 127.23 76.5847 126.155C76.5847 125.08 76.1202 124.209 75.5473 124.209C74.9743 124.209 74.5098 125.08 74.5098 126.155C74.5098 127.23 74.9743 128.102 75.5473 128.102Z" fill="#FDA57D"/>
<path d="M97.3552 128.102C97.9282 128.102 98.3927 127.23 98.3927 126.155C98.3927 125.08 97.9282 124.209 97.3552 124.209C96.7822 124.209 96.3177 125.08 96.3177 126.155C96.3177 127.23 96.7822 128.102 97.3552 128.102Z" fill="#FDA57D"/>
<path opacity="0.1" d="M75.8073 122.678H97.098C97.098 122.678 95.2804 114.081 87.2327 114.63C79.185 115.179 75.8073 122.678 75.8073 122.678Z" fill="black"/>
<g opacity="0.5">
<path opacity="0.5" d="M91.1253 64.0482C91.1237 59.5654 92.2827 55.1586 94.4897 51.2567C96.6967 47.3548 99.8763 44.0908 103.719 41.7824C107.562 39.4741 111.937 38.2 116.418 38.0842C120.899 37.9685 125.334 39.015 129.291 41.1218C133.248 43.2287 136.592 46.3242 138.997 50.1069C141.403 53.8897 142.788 58.2308 143.018 62.7077C143.248 67.1846 142.314 71.6447 140.309 75.6539C138.304 79.6631 135.294 83.0848 131.574 85.5858L131.558 85.7014C130.712 86.5216 129.711 87.1653 128.614 87.5951L128.58 87.4795C127.364 88.5302 122.245 90.1928 116.364 90.177H116.235C112.511 90.177 108.466 89.5204 104.909 87.5951C104.909 87.5951 104.878 87.5268 104.831 87.3981C103.93 86.9749 103.103 86.409 102.383 85.7224C102.369 85.6226 102.355 85.5245 102.341 85.4282C98.8776 83.0411 96.0472 79.8475 94.0933 76.1229C92.1395 72.3982 91.1208 68.2542 91.1253 64.0482Z" fill="url(#paint2_linear)"/>
</g>
<path d="M117.088 89.2366C130.998 89.2366 142.274 77.9605 142.274 64.0508C142.274 50.141 130.998 38.8649 117.088 38.8649C103.179 38.8649 91.9026 50.141 91.9026 64.0508C91.9026 77.9605 103.179 89.2366 117.088 89.2366Z" fill="#F5F5F5"/>
<path d="M107.215 73.6429C107.215 73.6429 101.214 74.134 102.803 85.0657C103.625 85.8543 104.595 86.472 105.658 86.8833L109.033 75.4604L107.215 73.6429Z" fill="#BE7C5E"/>
<path d="M126.686 73.6429C126.686 73.6429 132.688 74.134 131.098 85.0657C130.276 85.8543 129.306 86.472 128.243 86.8833L124.868 75.4604L126.686 73.6429Z" fill="#BE7C5E"/>
<path d="M107.473 55.7272C107.473 55.7272 107.01 57.072 106.356 58.6164C104.928 62.0309 106.559 75.0875 109.976 76.4769C113.811 78.0528 118.854 79.0404 124.093 77.1309C128.645 75.4709 130.05 60.5837 126.83 56.9722C126.452 56.5467 126.058 56.1239 125.646 55.7141L107.473 55.7272Z" fill="#333333"/>
<path d="M117.107 66.1153C123.273 66.1153 128.272 61.1163 128.272 54.9498C128.272 48.7834 123.273 43.7844 117.107 43.7844C110.94 43.7844 105.941 48.7834 105.941 54.9498C105.941 61.1163 110.94 66.1153 117.107 66.1153Z" fill="#333333"/>
<path opacity="0.1" d="M126.573 73.6429H107.1L105.282 81.4332C105.282 81.4332 104.216 85.0394 105.545 86.6259C106.874 88.2123 119.276 91.8185 128.396 86.8885C129.191 84.8122 129.283 82.5322 128.658 80.3983C127.608 76.7632 128.396 80.1357 128.396 80.1357L126.573 73.6429Z" fill="black"/>
<path opacity="0.1" d="M126.83 73.6429H107.357L105.54 81.4332C105.54 81.4332 104.473 85.0394 105.802 86.6259C107.131 88.2123 119.534 91.8185 128.653 86.8885C129.449 84.8122 129.541 82.5322 128.916 80.3983C127.865 76.7632 128.653 80.1357 128.653 80.1357L126.83 73.6429Z" fill="black"/>
<path d="M126.686 73.6429H107.215L105.398 81.4332C105.398 81.4332 104.331 85.0394 105.66 86.6259C106.989 88.2123 119.392 91.8185 128.511 86.8885C129.307 84.8122 129.399 82.5322 128.774 80.3983C127.723 76.7632 128.511 80.1357 128.511 80.1357L126.686 73.6429Z" fill="#F55F44"/>
<path opacity="0.1" d="M113.186 67.1816H120.976V74.7198C120.976 75.406 120.703 76.064 120.218 76.5492C119.733 77.0344 119.075 77.3069 118.389 77.3069H115.762C115.076 77.3069 114.418 77.0344 113.933 76.5492C113.448 76.064 113.175 75.406 113.175 74.7198V67.1816H113.186Z" fill="black"/>
<path d="M113.186 66.8927H120.976V74.4309C120.976 75.117 120.703 75.7751 120.218 76.2603C119.733 76.7454 119.075 77.018 118.389 77.018H115.762C115.076 77.018 114.418 76.7454 113.933 76.2603C113.448 75.7751 113.175 75.117 113.175 74.4309V66.8927H113.186Z" fill="#BE7C5E"/>
<path opacity="0.1" d="M113.204 68.0142C115.715 68.9523 118.478 68.9598 120.994 68.0352V67.0792H113.204V68.0142Z" fill="black"/>
<path d="M117.107 68.5369C123.273 68.5369 128.272 63.538 128.272 57.3715C128.272 51.205 123.273 46.2061 117.107 46.2061C110.94 46.2061 105.941 51.205 105.941 57.3715C105.941 63.538 110.94 68.5369 117.107 68.5369Z" fill="#BE7C5E"/>
<path d="M106.435 53.1323H127.726C127.726 53.1323 125.908 44.5356 117.861 45.0845C109.813 45.6335 106.435 53.1323 106.435 53.1323Z" fill="#333333"/>
<path d="M106.175 58.8424C106.748 58.8424 107.213 57.971 107.213 56.8961C107.213 55.8212 106.748 54.9498 106.175 54.9498C105.602 54.9498 105.138 55.8212 105.138 56.8961C105.138 57.971 105.602 58.8424 106.175 58.8424Z" fill="#BE7C5E"/>
<path d="M127.983 58.8424C128.556 58.8424 129.021 57.971 129.021 56.8961C129.021 55.8212 128.556 54.9498 127.983 54.9498C127.41 54.9498 126.946 55.8212 126.946 56.8961C126.946 57.971 127.41 58.8424 127.983 58.8424Z" fill="#BE7C5E"/>
<path opacity="0.1" d="M106.435 53.4212H127.726C127.726 53.4212 125.908 44.8245 117.861 45.3735C109.813 45.9224 106.435 53.4212 106.435 53.4212Z" fill="black"/>
<g opacity="0.5">
<path opacity="0.5" d="M1.31323 41.5282V79.0142H60.3736C60.3736 79.0142 64.7336 87.5951 72.2298 90.0903C72.2298 90.0903 69.837 84.0125 72.3348 79.0142H88.777V41.5282H1.31323Z" fill="url(#paint3_linear)"/>
</g>
<path d="M3.677 42.8126V78.2708H62.7741C62.7741 78.2708 62.7741 85.3625 69.8658 87.7264C69.8658 87.7264 67.5019 82.9986 69.8658 78.2708H86.413V42.8126H3.677Z" fill="white"/>
<path d="M58.0466 49.9042H10.7689V54.632H58.0466V49.9042Z" fill="#22C88A"/>
<path d="M74.5938 56.9959H10.7689V61.7237H74.5938V56.9959Z" fill="#22C88A"/>
<path d="M67.5022 64.0875H10.7689V68.8153H67.5022V64.0875Z" fill="#22C88A"/>
<g opacity="0.5">
<path opacity="0.5" d="M202.244 113.758V151.244H143.186C143.186 151.244 138.826 159.825 131.327 162.32C131.327 162.32 133.72 156.242 131.222 151.244H114.78V113.758H202.244Z" fill="url(#paint4_linear)"/>
</g>
<path d="M199.88 115.042V150.501H140.782C140.782 150.501 140.782 157.592 133.691 159.956C133.691 159.956 136.055 155.229 133.691 150.501H117.144V115.042H199.88Z" fill="white"/>
<path d="M174.14 122.134H126.862V126.862H174.14V122.134Z" fill="#22C88A"/>
<path d="M190.687 129.226H126.862V133.953H190.687V129.226Z" fill="#22C88A"/>
<path d="M183.595 136.317H126.862V141.045H183.595V136.317Z" fill="#22C88A"/>
<g opacity="0.5">
<path opacity="0.5" d="M22.8509 187.535H22.063V192H22.8509V187.535Z" fill="#47E6B1"/>
<path opacity="0.5" d="M24.6896 190.161V189.374H20.2245V190.161H24.6896Z" fill="#47E6B1"/>
</g>
<g opacity="0.5">
<path opacity="0.5" d="M167.048 50.4295H166.26V54.8946H167.048V50.4295Z" fill="#47E6B1"/>
<path opacity="0.5" d="M168.886 53.056V52.2681H164.421V53.056H168.886Z" fill="#47E6B1"/>
</g>
<g opacity="0.5">
<path opacity="0.5" d="M183.858 160.744H183.07V165.209H183.858V160.744Z" fill="#47E6B1"/>
<path opacity="0.5" d="M185.696 163.371V162.583H181.231V163.371H185.696Z" fill="#47E6B1"/>
</g>
<g opacity="0.5">
<path opacity="0.5" d="M134.216 0H133.428V4.46512H134.216V0Z" fill="#47E6B1"/>
<path opacity="0.5" d="M136.055 2.62652V1.83856L131.59 1.83856V2.62652H136.055Z" fill="#47E6B1"/>
</g>
<path opacity="0.5" d="M67.9487 187.091C67.7337 186.994 67.5616 186.822 67.4648 186.608C67.368 186.393 67.3533 186.15 67.4234 185.925C67.4346 185.89 67.4417 185.854 67.4444 185.817C67.4511 185.713 67.4241 185.61 67.3673 185.523C67.3105 185.435 67.227 185.369 67.1293 185.333C67.0316 185.297 66.9248 185.293 66.8249 185.323C66.725 185.352 66.6374 185.413 66.575 185.497C66.5539 185.526 66.5363 185.558 66.5225 185.591C66.4259 185.806 66.254 185.978 66.0391 186.075C65.8242 186.172 65.5813 186.187 65.3563 186.117C65.3214 186.105 65.2852 186.098 65.2486 186.096C65.1447 186.089 65.0414 186.116 64.954 186.173C64.8667 186.229 64.8001 186.313 64.7641 186.411C64.728 186.508 64.7246 186.615 64.7541 186.715C64.7837 186.815 64.8448 186.903 64.9282 186.965C64.9576 186.986 64.9893 187.004 65.0228 187.017C65.2377 187.114 65.4099 187.286 65.5067 187.501C65.6035 187.716 65.6182 187.959 65.5481 188.184C65.5368 188.219 65.5298 188.255 65.5271 188.291C65.5204 188.395 65.5474 188.499 65.6042 188.586C65.661 188.673 65.7445 188.74 65.8422 188.776C65.9399 188.812 66.0467 188.815 66.1466 188.786C66.2464 188.756 66.3341 188.695 66.3964 188.612C66.4176 188.582 66.4352 188.551 66.449 188.517C66.5455 188.302 66.7175 188.13 66.9324 188.033C67.1473 187.936 67.3902 187.922 67.6151 187.992C67.6501 188.003 67.6862 188.01 67.7228 188.013C67.8268 188.02 67.9301 187.993 68.0174 187.936C68.1048 187.879 68.1714 187.796 68.2074 187.698C68.2434 187.6 68.2469 187.493 68.2173 187.393C68.1878 187.294 68.1267 187.206 68.0433 187.144C68.0139 187.122 67.9822 187.105 67.9487 187.091Z" fill="#4D8AF0"/>
<path opacity="0.5" d="M15.2078 103.738C14.9928 103.641 14.8206 103.469 14.7238 103.254C14.627 103.04 14.6123 102.797 14.6824 102.572C14.6937 102.537 14.7007 102.501 14.7035 102.464C14.7102 102.36 14.6831 102.257 14.6263 102.169C14.5695 102.082 14.486 102.015 14.3883 101.979C14.2906 101.943 14.1838 101.94 14.084 101.969C13.9841 101.999 13.8964 102.06 13.8341 102.144C13.813 102.173 13.7953 102.205 13.7815 102.238C13.685 102.453 13.513 102.625 13.2981 102.722C13.0833 102.819 12.8404 102.834 12.6154 102.763C12.5804 102.752 12.5443 102.745 12.5077 102.742C12.4037 102.736 12.3004 102.763 12.2131 102.82C12.1258 102.876 12.0591 102.96 12.0231 103.058C11.9871 103.155 11.9836 103.262 12.0132 103.362C12.0428 103.462 12.1038 103.549 12.1872 103.612C12.2166 103.633 12.2483 103.651 12.2818 103.664C12.4968 103.761 12.6689 103.933 12.7657 104.148C12.8625 104.363 12.8772 104.605 12.8071 104.83C12.7959 104.865 12.7888 104.902 12.7861 104.938C12.7751 105.044 12.7993 105.15 12.855 105.241C12.9107 105.332 12.9947 105.402 13.0941 105.44C13.1935 105.478 13.3026 105.482 13.4046 105.451C13.5066 105.421 13.5957 105.358 13.6581 105.272C13.6792 105.242 13.6969 105.211 13.7106 105.177C13.8072 104.962 13.9792 104.79 14.194 104.693C14.4089 104.596 14.6518 104.582 14.8768 104.652C14.9118 104.663 14.9479 104.67 14.9845 104.673C15.0884 104.68 15.1918 104.653 15.2791 104.596C15.3664 104.539 15.433 104.455 15.4691 104.358C15.5051 104.26 15.5086 104.153 15.479 104.053C15.4494 103.954 15.3884 103.866 15.3049 103.804C15.2754 103.778 15.2428 103.756 15.2078 103.738Z" fill="#4D8AF0"/>
<path opacity="0.5" d="M43.8369 126.589C43.6219 126.492 43.4498 126.32 43.353 126.105C43.2562 125.89 43.2415 125.647 43.3116 125.422C43.3228 125.388 43.3299 125.351 43.3326 125.315C43.3393 125.211 43.3123 125.108 43.2555 125.02C43.1987 124.933 43.1152 124.866 43.0175 124.83C42.9197 124.794 42.813 124.791 42.7131 124.82C42.6132 124.85 42.5256 124.911 42.4632 124.994C42.4421 125.024 42.4245 125.055 42.4107 125.089C42.3141 125.304 42.1422 125.476 41.9273 125.573C41.7124 125.67 41.4695 125.684 41.2445 125.614C41.2096 125.603 41.1734 125.596 41.1368 125.593C41.0329 125.587 40.9296 125.614 40.8422 125.67C40.7549 125.727 40.6883 125.811 40.6523 125.908C40.6162 126.006 40.6128 126.113 40.6423 126.213C40.6719 126.313 40.733 126.4 40.8164 126.463C40.8458 126.484 40.8775 126.501 40.9109 126.515C41.1259 126.612 41.2981 126.784 41.3949 126.999C41.4917 127.213 41.5064 127.456 41.4363 127.681C41.425 127.716 41.418 127.752 41.4152 127.789C41.4042 127.895 41.4285 128.001 41.4842 128.092C41.5398 128.183 41.6239 128.252 41.7233 128.29C41.8226 128.328 41.9318 128.333 42.0337 128.302C42.1357 128.272 42.2248 128.209 42.2872 128.123C42.3084 128.093 42.326 128.061 42.3398 128.028C42.4363 127.813 42.6083 127.641 42.8232 127.544C43.0381 127.447 43.281 127.433 43.506 127.503C43.5409 127.514 43.577 127.521 43.6136 127.524C43.7176 127.53 43.8209 127.503 43.9082 127.447C43.9956 127.39 44.0622 127.306 44.0982 127.209C44.1342 127.111 44.1377 127.004 44.1081 126.904C44.0786 126.804 44.0175 126.717 43.9341 126.654C43.9046 126.628 43.8719 126.606 43.8369 126.589Z" fill="#4D8AF0"/>
<path opacity="0.5" d="M207.208 188.575C206.993 188.478 206.82 188.306 206.724 188.092C206.627 187.877 206.612 187.634 206.682 187.409C206.694 187.374 206.701 187.338 206.703 187.301C206.71 187.197 206.683 187.094 206.626 187.007C206.569 186.919 206.486 186.853 206.388 186.817C206.29 186.781 206.184 186.777 206.084 186.807C205.984 186.836 205.896 186.897 205.834 186.981C205.813 187.01 205.795 187.042 205.781 187.075C205.685 187.29 205.513 187.462 205.298 187.559C205.083 187.656 204.84 187.671 204.615 187.601C204.58 187.589 204.544 187.582 204.508 187.58C204.404 187.573 204.3 187.6 204.213 187.657C204.126 187.713 204.059 187.797 204.023 187.895C203.987 187.992 203.983 188.099 204.013 188.199C204.043 188.299 204.104 188.387 204.187 188.449C204.216 188.47 204.248 188.488 204.282 188.501C204.497 188.598 204.669 188.77 204.766 188.985C204.862 189.2 204.877 189.443 204.807 189.668C204.796 189.703 204.789 189.739 204.786 189.775C204.775 189.881 204.799 189.988 204.855 190.078C204.911 190.169 204.995 190.239 205.094 190.277C205.193 190.315 205.302 190.319 205.404 190.289C205.506 190.258 205.596 190.195 205.658 190.109C205.679 190.08 205.697 190.048 205.711 190.014C205.807 189.799 205.979 189.627 206.194 189.53C206.409 189.434 206.652 189.419 206.877 189.489C206.912 189.5 206.948 189.507 206.984 189.51C207.088 189.517 207.192 189.49 207.279 189.433C207.366 189.376 207.433 189.293 207.469 189.195C207.505 189.097 207.508 188.99 207.479 188.891C207.449 188.791 207.388 188.703 207.305 188.641C207.275 188.615 207.243 188.593 207.208 188.575Z" fill="#4D8AF0"/>
<path opacity="0.5" d="M1.57592 174.665C2.44628 174.665 3.15185 173.959 3.15185 173.089C3.15185 172.219 2.44628 171.513 1.57592 171.513C0.705565 171.513 0 172.219 0 173.089C0 173.959 0.705565 174.665 1.57592 174.665Z" fill="#F55F44"/>
<path opacity="0.5" d="M179.393 18.3858C180.263 18.3858 180.968 17.6802 180.968 16.8099C180.968 15.9395 180.263 15.2339 179.393 15.2339C178.522 15.2339 177.817 15.9395 177.817 16.8099C177.817 17.6802 178.522 18.3858 179.393 18.3858Z" fill="#4D8AF0"/>
<path opacity="0.5" d="M27.3159 21.5376C28.1863 21.5376 28.8918 20.832 28.8918 19.9617C28.8918 19.0913 28.1863 18.3857 27.3159 18.3857C26.4456 18.3857 25.74 19.0913 25.74 19.9617C25.74 20.832 26.4456 21.5376 27.3159 21.5376Z" fill="#47E6B1"/>
<path opacity="0.5" d="M180.969 92.4542C181.839 92.4542 182.545 91.7486 182.545 90.8782C182.545 90.0079 181.839 89.3023 180.969 89.3023C180.098 89.3023 179.393 90.0079 179.393 90.8782C179.393 91.7486 180.098 92.4542 180.969 92.4542Z" fill="#F55F44"/>
<defs>
<linearGradient id="paint0_linear" x1="64.2888" y1="185.245" x2="138.593" y2="8.59058" gradientUnits="userSpaceOnUse">
<stop stop-color="#808080" stop-opacity="0.25"/>
<stop offset="0.54" stop-color="#808080" stop-opacity="0.12"/>
<stop offset="1" stop-color="#808080" stop-opacity="0.1"/>
</linearGradient>
<linearGradient id="paint1_linear" x1="27748.1" y1="35968.2" x2="27748.1" y2="25640.6" gradientUnits="userSpaceOnUse">
<stop stop-color="#808080" stop-opacity="0.25"/>
<stop offset="0.54" stop-color="#808080" stop-opacity="0.12"/>
<stop offset="1" stop-color="#808080" stop-opacity="0.1"/>
</linearGradient>
<linearGradient id="paint2_linear" x1="31114.7" y1="22327.1" x2="31114.7" y2="11995.4" gradientUnits="userSpaceOnUse">
<stop stop-color="#808080" stop-opacity="0.25"/>
<stop offset="0.54" stop-color="#808080" stop-opacity="0.12"/>
<stop offset="1" stop-color="#808080" stop-opacity="0.1"/>
</linearGradient>
<linearGradient id="paint3_linear" x1="32931.4" y1="20801.8" x2="32931.4" y2="11823.2" gradientUnits="userSpaceOnUse">
<stop stop-color="#808080" stop-opacity="0.25"/>
<stop offset="0.54" stop-color="#808080" stop-opacity="0.12"/>
<stop offset="1" stop-color="#808080" stop-opacity="0.1"/>
</linearGradient>
<linearGradient id="paint4_linear" x1="-288951" y1="34228.6" x2="-288951" y2="25250" gradientUnits="userSpaceOnUse">
<stop stop-color="#808080" stop-opacity="0.25"/>
<stop offset="0.54" stop-color="#808080" stop-opacity="0.12"/>
<stop offset="1" stop-color="#808080" stop-opacity="0.1"/>
</linearGradient>
</defs>
</svg>
