<svg width="127" height="192" viewBox="0 0 127 192" fill="none" xmlns="http://www.w3.org/2000/svg">
<path d="M126.411 94.3284L23.5166 111.411V148.017L126.411 146.341V94.3284Z" fill="url(#paint0_linear)"/>
<path d="M24.7004 111.7L124.164 95.1228V144.065L24.7004 147.222V111.7Z" fill="#22C88A"/>
<path d="M125.319 46.9684L53.9099 67.2962V88.4117L125.319 73.0987V46.9684Z" fill="url(#paint1_linear)"/>
<path d="M123.375 47.7583L55.4875 67.4931V87.228L123.375 71.4405V47.7583Z" fill="white"/>
<path d="M66.5378 74.5623C66.5378 77.496 65.1168 80.2216 63.3803 80.6467C61.6438 81.0719 60.2832 79.0803 60.2832 76.1958C60.2832 73.3113 61.6617 70.6014 63.3803 70.127C65.0989 69.6526 66.5378 71.6285 66.5378 74.5623Z" stroke="#DBDBDB" stroke-width="2" stroke-miterlimit="10"/>
<path d="M115.482 61.1781L72.3602 72.5214V70.1001L115.482 58.4369V61.1781Z" fill="#DBDBDB"/>
<path d="M115.482 66.7032L72.3602 78.0464V75.6252L115.482 63.9642V66.7032Z" fill="#DBDBDB"/>
<path d="M44.4353 127.705C44.4353 122.144 41.9357 117.977 38.9102 118.391C35.9452 118.798 33.5844 123.466 33.5844 128.826C33.5844 134.185 35.9452 138.365 38.9102 138.159C41.9469 137.949 44.4353 133.268 44.4353 127.705Z" fill="white"/>
<path d="M111.535 118.015L52.0548 124.61V120.915L111.535 113.607V118.015Z" fill="url(#paint2_linear)"/>
<path d="M111.535 127.487L52.0548 134.082V130.388L111.535 123.079V127.487Z" fill="url(#paint3_linear)"/>
<path d="M123.784 164.843L53.5138 164.017V185.428L124.574 192L123.784 164.843Z" fill="url(#paint4_linear)"/>
<path d="M123.375 166.167L55.4875 165.377V184.324L123.375 189.849V166.167Z" fill="white"/>
<path d="M67.3276 175.808C67.3276 178.735 65.9066 181.008 64.1701 180.887C62.4336 180.766 61.0753 178.35 61.0753 175.476C61.0753 172.603 62.4538 170.33 64.1724 170.394C65.891 170.459 67.3276 172.881 67.3276 175.808Z" stroke="#DBDBDB" stroke-width="2" stroke-miterlimit="10"/>
<path d="M115.482 176.43L73.7634 174.431V171.961L115.482 173.646V176.43Z" fill="#DBDBDB"/>
<path d="M115.482 181.955L73.7634 179.956V177.486L115.482 179.171V181.955Z" fill="#DBDBDB"/>
<path d="M125.319 0L54.3037 28.4576V49.732L125.319 26.0498V0Z" fill="url(#paint5_linear)"/>
<path d="M124.164 1.18378L55.4875 29.6011V47.7583L124.164 24.866V1.18378Z" fill="white"/>
<path d="M69.6951 33.1188C69.6951 36.0279 68.2741 38.9057 66.5376 39.5479C64.8011 40.1902 63.4406 38.3843 63.4406 35.5356C63.4406 32.687 64.819 29.8226 66.5376 29.1289C68.2562 28.4352 69.6951 30.2098 69.6951 33.1188Z" stroke="#DBDBDB" stroke-width="2" stroke-miterlimit="10"/>
<path d="M117.06 13.8137L75.3322 30.0554V27.2269L117.06 10.6294V13.8137Z" fill="#DBDBDB"/>
<path d="M117.06 20.9186L75.3322 37.158V34.3317L117.06 17.7343V20.9186Z" fill="#DBDBDB"/>
<path d="M27.2895 184.09L25.1748 182.648L21.7869 169.815L22.4716 169.074C22.4716 169.074 22.4716 164.934 21.5071 162.202C22.1046 161.824 22.4783 161.566 22.4783 161.566C20.4151 159.689 20.4151 152.808 20.4151 152.808C20.4151 152.808 19.5401 147.509 17.7924 142.601L21.1021 143.423L25.9178 132.787V130.28L27.981 129.029C27.981 129.029 25.2285 125.274 22.4761 129.029C22.4761 129.029 23.1631 131.531 22.4761 132.784C21.7891 134.037 19.7236 138.415 19.7236 138.415H17.9715L18.3474 136.537H14.7513C14.5768 136.313 14.4 136.105 14.2187 135.91L16.9712 130.28L15.6822 129.401L20.4129 124.03L21.0999 112.768C23.8344 111.94 24.4565 109.462 24.5639 107.885C24.6131 107.164 23.8657 106.616 23.0959 106.795C17.1569 108.18 18.3496 110.89 18.3496 110.89L16.282 121.51L13.4378 125.585C13.0931 123.721 11.746 122.173 9.91329 121.408L11.4663 119.642C11.4663 119.642 7.95525 118.789 4.61874 119.944C-1.54629 122.074 -1.53287 130.238 4.61874 132.379C5.48703 132.699 6.41178 132.836 7.33538 132.782V132.156C7.42266 132.156 7.5077 132.156 7.59273 132.144C7.48756 132.726 7.38909 133.384 7.33762 134.033C5.9614 134.033 5.9614 140.916 8.02462 142.167L7.33762 149.051V152.806C8.71385 155.938 11.4663 155.938 11.4663 155.938L13.5273 164.699C14.1807 164.997 15.031 164.975 15.9441 164.769L16.2775 167.201C16.2775 167.201 10.0856 171.58 10.0856 177.837L9.86182 178.247L9.3986 177.837L5.26993 180.97L10.7748 187.236H16.2797C17.6559 184.103 12.1511 183.481 12.1511 183.481L12.1242 180.265L17.7029 174.241C18.6495 176.759 20.3368 180.943 21.7309 182.745L21.1021 182.859V187.865H32.7944C36.2338 183.463 27.2895 184.09 27.2895 184.09Z" fill="url(#paint6_linear)"/>
<path d="M9.00927 130.782C9.00927 130.782 7.64424 136.515 9.00927 137.334L13.1044 134.872L10.3743 129.685L9.00927 130.782Z" fill="#F6B9AD"/>
<path d="M24.1096 181.384L20.4934 166.315L16.8839 171.135C16.8839 171.135 19.8982 180.78 21.7063 181.984L24.1096 181.384Z" fill="#B98B82"/>
<path d="M26.5219 129.546C26.5219 129.546 24.1119 125.93 21.6996 129.546C21.6996 129.546 22.3015 131.956 21.6996 133.163C21.0976 134.369 19.2895 138.587 19.2895 138.587H13.8629V141.601L20.4934 143.409L24.7161 133.163V130.75L26.5219 129.546Z" fill="#F6B9AD"/>
<path d="M18.0833 136.779L16.8772 143.409L12.0548 142.203V136.779H18.0833Z" fill="#5989A1"/>
<path d="M8.43862 132.558C11.4344 132.558 13.863 130.13 13.863 127.134C13.863 124.138 11.4344 121.71 8.43862 121.71C5.44284 121.71 3.01428 124.138 3.01428 127.134C3.01428 130.13 5.44284 132.558 8.43862 132.558Z" fill="#F6B9AD"/>
<path d="M7.23253 126.532L12.0549 120.503C12.0549 120.503 8.97798 119.682 6.05547 120.794C0.655747 122.846 0.664698 130.701 6.05547 132.773C6.80896 133.08 7.62209 133.213 8.43421 133.162V129.546H6.6261L7.23253 126.532Z" fill="#3D213C"/>
<path d="M20.4934 113.873L19.8915 124.722L15.0691 130.75L12.0548 128.942L16.2752 122.312L18.0833 112.065C18.0833 112.065 17.0383 109.453 22.2433 108.12C22.3999 108.079 22.564 108.075 22.7222 108.109C22.8804 108.144 23.0282 108.215 23.1537 108.317C23.2791 108.42 23.3786 108.55 23.444 108.698C23.5094 108.846 23.5389 109.008 23.5301 109.169C23.4338 110.689 22.8901 113.074 20.4934 113.873Z" fill="#F6B9AD"/>
<path d="M15.671 161.493L16.273 166.315C16.273 166.315 10.8419 170.533 10.8419 176.559L10.24 177.766L12.0481 179.574L21.6929 168.121C21.6929 168.121 21.6929 161.49 19.8847 159.682L15.671 161.493Z" fill="#F6B9AD"/>
<path d="M12.6321 178.889L12.6567 181.986C12.6567 181.986 17.479 182.588 16.2729 185.602H11.4528L6.63037 179.574L10.2466 176.559L12.6321 178.889Z" fill="#4F4F4F"/>
<path d="M23.5078 180.78L25.9179 182.588C25.9179 182.588 33.75 181.986 30.7402 186.204H20.4935V181.384L23.5078 180.78Z" fill="#4F4F4F"/>
<path d="M21.6996 160.895C21.6996 160.895 16.2753 165.115 13.8674 163.909L12.0593 155.471C12.0593 155.471 9.64927 155.471 8.44312 152.456V148.833L19.896 152.45C19.896 152.45 19.8915 159.08 21.6996 160.895Z" fill="#D82250"/>
<path d="M16.8839 130.75L12.0616 127.134C12.0616 127.134 9.65148 134.366 8.44533 134.366C7.23918 134.366 7.23918 140.997 9.04729 142.199L8.44533 148.829L19.8982 152.445C19.8982 152.445 18.0901 140.391 14.4739 136.17L16.8839 130.75Z" fill="#76B6D7"/>
<path d="M63.6531 33.5306L65.0315 33.3203L66.41 34.6965L67.9988 31.7292H69.695L66.41 35.8624L63.6531 33.5306Z" fill="#47E6B1"/>
<path d="M34.1147 128.078L36.31 127.74L38.5052 129.936L41.0361 125.209H43.7371L38.5052 131.793L34.1147 128.078Z" fill="#22C88A"/>
<path opacity="0.2" d="M34.1147 128.078L36.31 127.74L38.5052 129.936L41.0361 125.209H43.7371L38.5052 131.793L34.1147 128.078Z" fill="black"/>
<defs>
<linearGradient id="paint0_linear" x1="74.965" y1="148.017" x2="74.965" y2="94.3284" gradientUnits="userSpaceOnUse">
<stop stop-color="#808080" stop-opacity="0.25"/>
<stop offset="0.54" stop-color="#808080" stop-opacity="0.12"/>
<stop offset="1" stop-color="#808080" stop-opacity="0.1"/>
</linearGradient>
<linearGradient id="paint1_linear" x1="28650.5" y1="16420.8" x2="28650.5" y2="8745.51" gradientUnits="userSpaceOnUse">
<stop stop-color="#808080" stop-opacity="0.25"/>
<stop offset="0.54" stop-color="#808080" stop-opacity="0.12"/>
<stop offset="1" stop-color="#808080" stop-opacity="0.1"/>
</linearGradient>
<linearGradient id="paint2_linear" x1="52.0548" y1="119.107" x2="111.535" y2="119.107" gradientUnits="userSpaceOnUse">
<stop stop-color="#DADADA"/>
<stop offset="1" stop-color="white"/>
</linearGradient>
<linearGradient id="paint3_linear" x1="13888.2" y1="6445.34" x2="29697.9" y2="6445.34" gradientUnits="userSpaceOnUse">
<stop stop-color="#DADADA"/>
<stop offset="1" stop-color="white"/>
</linearGradient>
<linearGradient id="paint4_linear" x1="28329.8" y1="24173.6" x2="28329.8" y2="20674.3" gradientUnits="userSpaceOnUse">
<stop stop-color="#808080" stop-opacity="0.25"/>
<stop offset="0.54" stop-color="#808080" stop-opacity="0.12"/>
<stop offset="1" stop-color="#808080" stop-opacity="0.1"/>
</linearGradient>
<linearGradient id="paint5_linear" x1="28556.3" y1="11052.4" x2="28556.3" y2="0" gradientUnits="userSpaceOnUse">
<stop stop-color="#808080" stop-opacity="0.25"/>
<stop offset="0.54" stop-color="#808080" stop-opacity="0.12"/>
<stop offset="1" stop-color="#808080" stop-opacity="0.1"/>
</linearGradient>
<linearGradient id="paint6_linear" x1="13183.5" y1="69890.1" x2="13183.5" y2="40501.3" gradientUnits="userSpaceOnUse">
<stop stop-color="#808080" stop-opacity="0.25"/>
<stop offset="0.54" stop-color="#808080" stop-opacity="0.12"/>
<stop offset="1" stop-color="#808080" stop-opacity="0.1"/>
</linearGradient>
</defs>
</svg>
