<svg width="116" height="44" viewBox="0 0 116 44" fill="none" xmlns="http://www.w3.org/2000/svg">
<path d="M57.3086 26H54.3438L46.7383 13.8945V26H43.7734V8.9375H46.7383L54.3672 21.0898V8.9375H57.3086V26ZM68.2188 24.7578C67.3828 25.7422 66.1953 26.2344 64.6562 26.2344C63.2812 26.2344 62.2383 25.832 61.5273 25.0273C60.8242 24.2227 60.4727 23.0586 60.4727 21.5352V13.3203H63.3203V21.5C63.3203 23.1094 63.9883 23.9141 65.3242 23.9141C66.707 23.9141 67.6406 23.418 68.125 22.4258V13.3203H70.9727V26H68.2891L68.2188 24.7578ZM77.4414 10.2383V13.3203H79.6797V15.4297H77.4414V22.5078C77.4414 22.9922 77.5352 23.3438 77.7227 23.5625C77.918 23.7734 78.2617 23.8789 78.7539 23.8789C79.082 23.8789 79.4141 23.8398 79.75 23.7617V25.9648C79.1016 26.1445 78.4766 26.2344 77.875 26.2344C75.6875 26.2344 74.5938 25.0273 74.5938 22.6133V15.4297H72.5078V13.3203H74.5938V10.2383H77.4414ZM88.5039 15.9219C88.1289 15.8594 87.7422 15.8281 87.3438 15.8281C86.0391 15.8281 85.1602 16.3281 84.707 17.3281V26H81.8594V13.3203H84.5781L84.6484 14.7383C85.3359 13.6367 86.2891 13.0859 87.5078 13.0859C87.9141 13.0859 88.25 13.1406 88.5156 13.25L88.5039 15.9219ZM93.332 26H90.4844V13.3203H93.332V26ZM90.3086 10.0273C90.3086 9.58984 90.4453 9.22656 90.7188 8.9375C91 8.64844 91.3984 8.50391 91.9141 8.50391C92.4297 8.50391 92.8281 8.64844 93.1094 8.9375C93.3906 9.22656 93.5312 9.58984 93.5312 10.0273C93.5312 10.457 93.3906 10.8164 93.1094 11.1055C92.8281 11.3867 92.4297 11.5273 91.9141 11.5273C91.3984 11.5273 91 11.3867 90.7188 11.1055C90.4453 10.8164 90.3086 10.457 90.3086 10.0273ZM100.012 10.2383V13.3203H102.25V15.4297H100.012V22.5078C100.012 22.9922 100.105 23.3438 100.293 23.5625C100.488 23.7734 100.832 23.8789 101.324 23.8789C101.652 23.8789 101.984 23.8398 102.32 23.7617V25.9648C101.672 26.1445 101.047 26.2344 100.445 26.2344C98.2578 26.2344 97.1641 25.0273 97.1641 22.6133V15.4297H95.0781V13.3203H97.1641V10.2383H100.012ZM112.012 26C111.887 25.7578 111.777 25.3633 111.684 24.8164C110.777 25.7617 109.668 26.2344 108.355 26.2344C107.082 26.2344 106.043 25.8711 105.238 25.1445C104.434 24.418 104.031 23.5195 104.031 22.4492C104.031 21.0977 104.531 20.0625 105.531 19.3438C106.539 18.6172 107.977 18.2539 109.844 18.2539H111.59V17.4219C111.59 16.7656 111.406 16.2422 111.039 15.8516C110.672 15.4531 110.113 15.2539 109.363 15.2539C108.715 15.2539 108.184 15.418 107.77 15.7461C107.355 16.0664 107.148 16.4766 107.148 16.9766H104.301C104.301 16.2812 104.531 15.6328 104.992 15.0312C105.453 14.4219 106.078 13.9453 106.867 13.6016C107.664 13.2578 108.551 13.0859 109.527 13.0859C111.012 13.0859 112.195 13.4609 113.078 14.2109C113.961 14.9531 114.414 16 114.438 17.3516V23.0703C114.438 24.2109 114.598 25.1211 114.918 25.8008V26H112.012ZM108.883 23.9492C109.445 23.9492 109.973 23.8125 110.465 23.5391C110.965 23.2656 111.34 22.8984 111.59 22.4375V20.0469H110.055C109 20.0469 108.207 20.2305 107.676 20.5977C107.145 20.9648 106.879 21.4844 106.879 22.1562C106.879 22.7031 107.059 23.1406 107.418 23.4688C107.785 23.7891 108.273 23.9492 108.883 23.9492Z" fill="white"/>
<g filter="url(#filter0_d)">
<path d="M33 22.5495C33 13.373 25.8066 7.62939e-06 18.5 7.62939e-06C11.1934 7.62939e-06 4 13.373 4 22.5495C4 31.7259 9.15718 36 18.5 36C27.8428 36 33 31.7259 33 22.5495Z" fill="white" fill-opacity="0.48"/>
</g>
<g filter="url(#filter1_d)">
<path d="M26.9584 22.1538C26.9584 16.2547 22.4698 8.46151 18.5 8.46151C14.5302 8.46151 10.0417 16.2547 10.0417 22.1538C10.0417 28.053 12.4939 30.5934 18.5 30.5934C24.5061 30.5934 26.9584 28.053 26.9584 22.1538Z" fill="white" fill-opacity="0.54"/>
</g>
<g filter="url(#filter2_d)">
<ellipse rx="4.83333" ry="4.74725" transform="matrix(1 0 0 -1 18.5 20.0439)" fill="white"/>
</g>
<defs>
<filter id="filter0_d" x="0" y="7.62939e-06" width="37" height="44" filterUnits="userSpaceOnUse" color-interpolation-filters="sRGB">
<feFlood flood-opacity="0" result="BackgroundImageFix"/>
<feColorMatrix in="SourceAlpha" type="matrix" values="0 0 0 0 0 0 0 0 0 0 0 0 0 0 0 0 0 0 127 0"/>
<feOffset dy="4"/>
<feGaussianBlur stdDeviation="2"/>
<feColorMatrix type="matrix" values="0 0 0 0 0 0 0 0 0 0 0 0 0 0 0 0 0 0 0.06 0"/>
<feBlend mode="normal" in2="BackgroundImageFix" result="effect1_dropShadow"/>
<feBlend mode="normal" in="SourceGraphic" in2="effect1_dropShadow" result="shape"/>
</filter>
<filter id="filter1_d" x="6.04169" y="8.46151" width="24.9167" height="30.1319" filterUnits="userSpaceOnUse" color-interpolation-filters="sRGB">
<feFlood flood-opacity="0" result="BackgroundImageFix"/>
<feColorMatrix in="SourceAlpha" type="matrix" values="0 0 0 0 0 0 0 0 0 0 0 0 0 0 0 0 0 0 127 0"/>
<feOffset dy="4"/>
<feGaussianBlur stdDeviation="2"/>
<feColorMatrix type="matrix" values="0 0 0 0 0 0 0 0 0 0 0 0 0 0 0 0 0 0 0.06 0"/>
<feBlend mode="normal" in2="BackgroundImageFix" result="effect1_dropShadow"/>
<feBlend mode="normal" in="SourceGraphic" in2="effect1_dropShadow" result="shape"/>
</filter>
<filter id="filter2_d" x="9.66666" y="15.2967" width="17.6667" height="17.4945" filterUnits="userSpaceOnUse" color-interpolation-filters="sRGB">
<feFlood flood-opacity="0" result="BackgroundImageFix"/>
<feColorMatrix in="SourceAlpha" type="matrix" values="0 0 0 0 0 0 0 0 0 0 0 0 0 0 0 0 0 0 127 0"/>
<feOffset dy="4"/>
<feGaussianBlur stdDeviation="2"/>
<feColorMatrix type="matrix" values="0 0 0 0 0 0 0 0 0 0 0 0 0 0 0 0 0 0 0.06 0"/>
<feBlend mode="normal" in2="BackgroundImageFix" result="effect1_dropShadow"/>
<feBlend mode="normal" in="SourceGraphic" in2="effect1_dropShadow" result="shape"/>
</filter>
</defs>
</svg>
