<svg width="305" height="252" viewBox="0 0 305 252" fill="none" xmlns="http://www.w3.org/2000/svg">
<path opacity="0.1" d="M101.407 172.306C106.413 189.685 121.763 202.628 137.189 211.625C185.642 239.879 241.481 242.237 293.321 237.477C312.092 235.753 331.079 233.088 347.24 224.362C380.135 206.603 396.132 162.598 384.285 122.412C380.259 108.744 373.461 95.8353 366.023 83.4646C352.8 61.4651 337.099 40.4718 317.39 24.4979C303.327 13.1131 287.561 4.52817 271.57 -2.93331C226.901 -23.7625 178.996 -36.4751 132.487 -34.9672C112.088 -34.3052 91.2181 -30.5401 76.2217 -17.6585C61.2253 -4.77692 53.9597 19.2391 63.9754 39.2586C68.1172 47.5346 74.6817 54.3516 81.144 60.9501C90.6606 70.6642 100.369 80.4546 107.436 92.1345C114.732 104.206 121.209 122.578 112.948 133.289C104.057 144.758 96.4091 154.95 101.407 172.306Z" fill="#22C88A"/>
<rect x="63.9932" y="120.521" width="47.7816" height="95.5631" rx="8" fill="#3ACC6C"/>
<path d="M250 172.515C250 181.498 237.776 188.781 222.696 188.781C207.617 188.781 195.393 181.498 195.393 172.515C195.393 163.531 207.617 140.999 222.696 140.999C237.776 140.999 250 163.531 250 172.515Z" fill="#88E1BF"/>
<path d="M250 109.484C250 100.5 237.776 93.2175 222.696 93.2175C207.617 93.2175 195.393 100.5 195.393 109.484C195.393 118.467 207.617 140.999 222.696 140.999C237.776 140.999 250 118.467 250 109.484Z" fill="#88E1BF"/>
<path d="M182.594 111.88C182.594 129.847 170.37 144.412 155.29 144.412C140.211 144.412 127.986 129.847 127.986 111.88C127.986 93.9129 140.211 48.8489 155.29 48.8489C170.37 48.8489 182.594 93.9129 182.594 111.88Z" fill="#22C88A"/>
<path d="M185.595 162.985C177.063 141.817 165.544 172.295 158.291 172.295C151.039 172.295 142.933 142.244 130.988 162.985C124.588 177.227 143.212 251.459 158.291 251.459C173.371 251.459 191.995 180.64 185.595 162.985Z" fill="#199668"/>
<path d="M54.6075 135.521C54.6075 155.058 42.3832 181.101 27.3038 181.101C12.2243 181.101 0 155.058 0 135.521C0 115.984 12.2243 85.5383 27.3038 85.5383C42.3832 85.5383 54.6075 115.984 54.6075 135.521Z" fill="#C8F1E2"/>
</svg>
