<svg width="294" height="256" viewBox="0 0 294 256" fill="none" xmlns="http://www.w3.org/2000/svg">
<path opacity="0.1" d="M90.4072 172.306C95.4126 189.685 110.763 202.628 126.189 211.625C174.642 239.879 230.481 242.237 282.321 237.477C301.092 235.753 320.079 233.088 336.24 224.362C369.135 206.603 385.132 162.598 373.285 122.412C369.259 108.744 362.461 95.8352 355.023 83.4646C341.8 61.4651 326.099 40.4718 306.39 24.4979C292.327 13.1131 276.561 4.52817 260.57 -2.93331C215.901 -23.7625 167.996 -36.4751 121.487 -34.9672C101.088 -34.3052 80.2181 -30.5401 65.2217 -17.6585C50.2253 -4.77692 42.9597 19.2391 52.9754 39.2586C57.1172 47.5346 63.6817 54.3516 70.144 60.9501C79.6606 70.6642 89.3689 80.4546 96.436 92.1345C103.732 104.206 110.209 122.578 101.948 133.289C93.0569 144.758 85.4091 154.95 90.4072 172.306Z" fill="#22C88A"/>
<g clip-path="url(#clip0)">
<g opacity="0.5">
<path opacity="0.5" d="M22.6391 124.978H22.0479V128.326H22.6391V124.978Z" fill="#47E6B1"/>
<path opacity="0.5" d="M24.019 126.947V126.356H20.6687V126.947H24.019Z" fill="#47E6B1"/>
</g>
<g opacity="0.5">
<path opacity="0.5" d="M43.6562 197.842H43.0649V201.19H43.6562V197.842Z" fill="#47E6B1"/>
<path opacity="0.5" d="M45.0342 199.811V199.22H41.6838V199.811H45.0342Z" fill="#47E6B1"/>
</g>
<g opacity="0.5">
<path opacity="0.5" d="M14.2377 158.952H13.6465V162.3H14.2377V158.952Z" fill="#47E6B1"/>
<path opacity="0.5" d="M15.6177 160.922V160.331H12.2673V160.922H15.6177Z" fill="#47E6B1"/>
</g>
<g opacity="0.5">
<path opacity="0.5" d="M117.749 102H117.158V105.348H117.749V102Z" fill="#47E6B1"/>
<path opacity="0.5" d="M119.129 103.969V103.379H115.779V103.969H119.129Z" fill="#47E6B1"/>
</g>
<g opacity="0.5">
<path opacity="0.5" d="M17.9858 110.326H17.3945V113.674H17.9858V110.326Z" fill="#47E6B1"/>
<path opacity="0.5" d="M19.3638 112.296V111.705H16.0134V112.296H19.3638Z" fill="#47E6B1"/>
</g>
<path opacity="0.5" d="M29.3134 185.894C29.1506 185.823 29.0196 185.695 28.9452 185.533C28.8709 185.372 28.8585 185.189 28.9104 185.019C28.9188 184.993 28.9241 184.967 28.9264 184.939C28.9383 184.859 28.9222 184.777 28.8807 184.707C28.8392 184.637 28.7749 184.583 28.6985 184.555C28.6221 184.526 28.5383 184.525 28.4612 184.551C28.384 184.577 28.3182 184.629 28.2748 184.698C28.2584 184.72 28.2447 184.744 28.2339 184.769C28.1628 184.932 28.0344 185.063 27.873 185.137C27.7116 185.211 27.5285 185.224 27.3586 185.172C27.3327 185.164 27.3059 185.158 27.2787 185.156C27.1981 185.144 27.1159 185.16 27.0458 185.202C26.9757 185.243 26.922 185.307 26.8937 185.384C26.8654 185.46 26.8642 185.544 26.8904 185.621C26.9165 185.698 26.9683 185.764 27.0372 185.807C27.0592 185.823 27.0831 185.837 27.1082 185.848C27.2711 185.919 27.4021 186.047 27.4764 186.209C27.5507 186.37 27.5631 186.553 27.5113 186.723C27.5029 186.748 27.4976 186.775 27.4953 186.802C27.4834 186.883 27.4995 186.965 27.541 187.035C27.5825 187.105 27.6468 187.159 27.7232 187.187C27.7996 187.215 27.8833 187.217 27.9605 187.19C28.0376 187.164 28.1035 187.113 28.1469 187.044C28.1632 187.022 28.1769 186.998 28.1878 186.973C28.2588 186.81 28.3873 186.679 28.5487 186.605C28.7101 186.531 28.8931 186.518 29.0631 186.57C29.089 186.578 29.1158 186.584 29.143 186.586C29.2236 186.598 29.3058 186.582 29.3759 186.54C29.446 186.499 29.4997 186.435 29.528 186.358C29.5563 186.282 29.5574 186.198 29.5313 186.121C29.5052 186.044 29.4533 185.978 29.3844 185.935C29.3624 185.919 29.3386 185.905 29.3134 185.894Z" fill="#4D8AF0"/>
<path opacity="0.5" d="M26.3839 217.715C26.2211 217.644 26.09 217.515 26.0157 217.354C25.9414 217.193 25.929 217.01 25.9809 216.84C25.9892 216.814 25.9946 216.787 25.9968 216.76C26.0088 216.68 25.9926 216.597 25.9512 216.527C25.9097 216.457 25.8453 216.404 25.769 216.375C25.6926 216.347 25.6088 216.346 25.5317 216.372C25.4545 216.398 25.3887 216.45 25.3452 216.519C25.3289 216.541 25.3152 216.565 25.3044 216.59C25.2337 216.752 25.1056 216.883 24.9446 216.958C24.7836 217.033 24.6008 217.046 24.4309 216.994C24.4049 216.986 24.3781 216.981 24.351 216.978C24.2704 216.966 24.1882 216.983 24.1181 217.024C24.048 217.065 23.9943 217.13 23.966 217.206C23.9377 217.282 23.9365 217.366 23.9626 217.443C23.9887 217.52 24.0406 217.586 24.1095 217.629C24.1315 217.646 24.1553 217.659 24.1805 217.67C24.3433 217.741 24.4744 217.87 24.5487 218.031C24.623 218.192 24.6354 218.375 24.5835 218.545C24.5752 218.571 24.5698 218.598 24.5676 218.625C24.5556 218.705 24.5718 218.787 24.6133 218.858C24.6548 218.928 24.7191 218.981 24.7954 219.01C24.8718 219.038 24.9556 219.039 25.0328 219.013C25.1099 218.987 25.1757 218.935 25.2192 218.866C25.2355 218.844 25.2492 218.82 25.26 218.795C25.3311 218.632 25.4595 218.501 25.6209 218.427C25.7823 218.353 25.9654 218.341 26.1353 218.392C26.1613 218.401 26.1881 218.406 26.2152 218.408C26.2958 218.42 26.378 218.404 26.4481 218.363C26.5182 218.321 26.5719 218.257 26.6002 218.181C26.6285 218.104 26.6297 218.021 26.6036 217.943C26.5774 217.866 26.5256 217.801 26.4567 217.757C26.4342 217.74 26.4098 217.726 26.3839 217.715Z" fill="#4D8AF0"/>
<path opacity="0.5" d="M134.157 147.278C133.994 147.207 133.863 147.079 133.789 146.917C133.714 146.756 133.702 146.573 133.754 146.403C133.762 146.377 133.768 146.351 133.77 146.324C133.782 146.243 133.766 146.161 133.724 146.091C133.683 146.021 133.618 145.967 133.542 145.939C133.466 145.911 133.382 145.909 133.305 145.936C133.227 145.962 133.162 146.013 133.118 146.082C133.102 146.104 133.088 146.128 133.077 146.153C133.007 146.316 132.879 146.447 132.718 146.522C132.557 146.596 132.374 146.609 132.204 146.558C132.178 146.549 132.151 146.544 132.124 146.542C132.043 146.53 131.961 146.546 131.891 146.587C131.821 146.629 131.767 146.693 131.739 146.77C131.711 146.846 131.709 146.93 131.736 147.007C131.762 147.084 131.814 147.15 131.882 147.193C131.904 147.209 131.928 147.223 131.953 147.234C132.116 147.305 132.247 147.433 132.322 147.594C132.396 147.756 132.408 147.939 132.357 148.108C132.348 148.134 132.343 148.161 132.341 148.188C132.329 148.269 132.345 148.351 132.386 148.421C132.428 148.491 132.492 148.545 132.568 148.573C132.645 148.601 132.729 148.602 132.806 148.576C132.883 148.55 132.949 148.498 132.992 148.43C133.008 148.408 133.022 148.384 133.033 148.359C133.104 148.196 133.233 148.065 133.394 147.991C133.555 147.916 133.738 147.904 133.908 147.956C133.934 147.964 133.961 147.97 133.988 147.972C134.069 147.984 134.151 147.968 134.221 147.926C134.291 147.885 134.345 147.82 134.373 147.744C134.401 147.668 134.403 147.584 134.377 147.507C134.35 147.43 134.299 147.364 134.23 147.321C134.207 147.304 134.183 147.289 134.157 147.278Z" fill="#4D8AF0"/>
<path opacity="0.5" d="M129.28 180.871C129.117 180.8 128.986 180.672 128.912 180.511C128.837 180.349 128.825 180.166 128.877 179.997C128.885 179.971 128.89 179.944 128.893 179.917C128.905 179.836 128.888 179.754 128.847 179.684C128.806 179.614 128.741 179.56 128.665 179.532C128.588 179.504 128.505 179.502 128.427 179.529C128.35 179.555 128.285 179.607 128.241 179.675C128.225 179.697 128.211 179.721 128.2 179.746C128.129 179.909 128.001 180.04 127.839 180.114C127.678 180.188 127.495 180.201 127.325 180.149C127.299 180.141 127.272 180.135 127.245 180.133C127.164 180.121 127.082 180.137 127.012 180.179C126.942 180.22 126.888 180.285 126.86 180.361C126.832 180.437 126.831 180.521 126.857 180.598C126.883 180.675 126.935 180.741 127.004 180.784C127.026 180.801 127.049 180.814 127.075 180.825C127.237 180.896 127.368 181.024 127.443 181.186C127.517 181.347 127.529 181.53 127.478 181.7C127.469 181.726 127.464 181.752 127.462 181.78C127.45 181.86 127.466 181.942 127.507 182.012C127.549 182.082 127.613 182.136 127.69 182.164C127.766 182.193 127.85 182.194 127.927 182.168C128.004 182.142 128.07 182.09 128.113 182.021C128.13 181.999 128.143 181.975 128.154 181.95C128.225 181.787 128.354 181.656 128.515 181.582C128.676 181.508 128.859 181.495 129.029 181.547C129.055 181.556 129.082 181.561 129.109 181.563C129.19 181.575 129.272 181.559 129.342 181.517C129.412 181.476 129.466 181.412 129.494 181.335C129.523 181.259 129.524 181.175 129.498 181.098C129.472 181.021 129.42 180.955 129.351 180.912C129.329 180.896 129.305 180.882 129.28 180.871Z" fill="#4D8AF0"/>
<path opacity="0.5" d="M132.914 113.925C132.751 113.854 132.62 113.725 132.546 113.564C132.472 113.403 132.459 113.22 132.511 113.05C132.519 113.024 132.525 112.997 132.527 112.97C132.539 112.889 132.523 112.807 132.481 112.737C132.44 112.667 132.375 112.614 132.299 112.585C132.223 112.557 132.139 112.556 132.062 112.582C131.985 112.608 131.919 112.66 131.875 112.729C131.859 112.751 131.845 112.775 131.834 112.8C131.763 112.962 131.635 113.093 131.474 113.168C131.312 113.242 131.129 113.254 130.959 113.202C130.933 113.194 130.906 113.189 130.879 113.186C130.799 113.175 130.716 113.191 130.646 113.232C130.576 113.274 130.523 113.338 130.494 113.414C130.466 113.49 130.465 113.574 130.491 113.651C130.517 113.728 130.569 113.794 130.638 113.838C130.66 113.854 130.684 113.868 130.709 113.878C130.872 113.949 131.003 114.078 131.077 114.239C131.151 114.4 131.164 114.583 131.112 114.753C131.103 114.779 131.098 114.806 131.096 114.833C131.084 114.913 131.1 114.996 131.142 115.066C131.183 115.136 131.247 115.189 131.324 115.218C131.4 115.246 131.484 115.247 131.561 115.221C131.638 115.195 131.704 115.143 131.748 115.074C131.764 115.052 131.778 115.028 131.788 115.003C131.859 114.841 131.988 114.71 132.149 114.635C132.311 114.561 132.494 114.549 132.664 114.601C132.69 114.609 132.716 114.614 132.744 114.616C132.824 114.628 132.906 114.612 132.976 114.571C133.047 114.529 133.1 114.465 133.129 114.389C133.157 114.312 133.158 114.229 133.132 114.152C133.106 114.075 133.054 114.009 132.985 113.965C132.963 113.949 132.939 113.935 132.914 113.925Z" fill="#4D8AF0"/>
<path opacity="0.5" d="M144.316 201.225C144.154 201.154 144.022 201.026 143.948 200.864C143.874 200.703 143.861 200.52 143.913 200.35C143.922 200.324 143.927 200.298 143.929 200.271C143.941 200.19 143.925 200.108 143.884 200.038C143.842 199.968 143.778 199.914 143.701 199.886C143.625 199.858 143.541 199.856 143.464 199.882C143.387 199.909 143.321 199.96 143.278 200.029C143.261 200.051 143.248 200.075 143.237 200.1C143.166 200.263 143.037 200.394 142.876 200.468C142.715 200.542 142.531 200.555 142.362 200.503C142.336 200.495 142.309 200.489 142.282 200.487C142.201 200.475 142.119 200.491 142.049 200.533C141.979 200.574 141.925 200.638 141.897 200.715C141.868 200.791 141.867 200.875 141.893 200.952C141.919 201.029 141.971 201.095 142.04 201.138C142.062 201.154 142.086 201.168 142.111 201.179C142.274 201.25 142.405 201.378 142.479 201.54C142.554 201.701 142.566 201.884 142.514 202.054C142.506 202.079 142.5 202.106 142.498 202.133C142.486 202.214 142.502 202.296 142.544 202.366C142.585 202.436 142.65 202.49 142.726 202.518C142.802 202.546 142.886 202.548 142.963 202.521C143.041 202.495 143.106 202.444 143.15 202.375C143.166 202.353 143.18 202.329 143.191 202.304C143.262 202.141 143.39 202.01 143.552 201.936C143.713 201.862 143.896 201.849 144.066 201.901C144.092 201.909 144.119 201.915 144.146 201.917C144.226 201.929 144.309 201.913 144.379 201.871C144.449 201.83 144.503 201.766 144.531 201.689C144.559 201.613 144.56 201.529 144.534 201.452C144.508 201.375 144.456 201.309 144.387 201.266C144.365 201.25 144.342 201.236 144.316 201.225Z" fill="#4D8AF0"/>
<path opacity="0.5" d="M1.18248 148.917C1.83555 148.917 2.36497 148.388 2.36497 147.736C2.36497 147.083 1.83555 146.554 1.18248 146.554C0.529416 146.554 0 147.083 0 147.736C0 148.388 0.529416 148.917 1.18248 148.917Z" fill="#F55F44"/>
<path opacity="0.5" d="M133.132 129.101C133.785 129.101 134.315 128.572 134.315 127.92C134.315 127.267 133.785 126.738 133.132 126.738C132.479 126.738 131.95 127.267 131.95 127.92C131.95 128.572 132.479 129.101 133.132 129.101Z" fill="#F55F44"/>
<path opacity="0.5" d="M79.3507 173.583C80.0861 173.583 80.6823 172.987 80.6823 172.252C80.6823 171.517 80.0861 170.921 79.3507 170.921C78.6152 170.921 78.019 171.517 78.019 172.252C78.019 172.987 78.6152 173.583 79.3507 173.583Z" fill="#F55F44"/>
<path opacity="0.5" d="M79.3507 173.583C80.0861 173.583 80.6823 172.987 80.6823 172.252C80.6823 171.517 80.0861 170.921 79.3507 170.921C78.6152 170.921 78.019 171.517 78.019 172.252C78.019 172.987 78.6152 173.583 79.3507 173.583Z" fill="#F55F44"/>
<path opacity="0.5" d="M147.819 164.63C148.472 164.63 149.002 164.101 149.002 163.448C149.002 162.796 148.472 162.267 147.819 162.267C147.166 162.267 146.637 162.796 146.637 163.448C146.637 164.101 147.166 164.63 147.819 164.63Z" fill="#F55F44"/>
<path opacity="0.5" d="M52.2301 111.717C52.9655 111.717 53.5617 111.122 53.5617 110.387C53.5617 109.652 52.9655 109.056 52.2301 109.056C51.4946 109.056 50.8984 109.652 50.8984 110.387C50.8984 111.122 51.4946 111.717 52.2301 111.717Z" fill="#47E6B1"/>
<path opacity="0.5" d="M128.1 213.433C128.754 213.433 129.283 212.904 129.283 212.252C129.283 211.599 128.754 211.07 128.1 211.07C127.447 211.07 126.918 211.599 126.918 212.252C126.918 212.904 127.447 213.433 128.1 213.433Z" fill="#F55F44"/>
<path d="M54.4545 169.694C53.7549 171.963 54.8096 174.645 56.8567 175.84C57.7161 176.34 58.705 176.592 59.5377 177.135C61.347 178.313 62.0607 180.568 62.6484 182.644C63.3231 185.03 63.9996 187.553 63.3817 189.953C62.9875 191.485 62.0909 192.838 61.5813 194.336C61.1551 195.59 61.0067 196.922 61.1463 198.239C61.2209 198.938 61.3949 199.658 61.8743 200.18C62.5667 200.925 63.6817 201.037 64.6831 201.216C66.8002 201.616 68.7922 202.512 70.4959 203.83C72.1995 205.148 73.5662 206.851 74.4839 208.799" stroke="url(#paint0_linear)" stroke-width="2" stroke-miterlimit="10"/>
<path d="M54.6693 169.694C53.9698 171.963 55.0244 174.645 57.0716 175.84C57.9309 176.34 58.9199 176.592 59.7526 177.135C61.5618 178.313 62.2756 180.568 62.8632 182.644C63.5379 185.03 64.2144 187.553 63.5965 189.953C63.2024 191.485 62.3057 192.838 61.7962 194.336C61.37 195.59 61.2216 196.922 61.3612 198.239C61.4357 198.938 61.6097 199.658 62.0891 200.18C62.7816 200.925 63.8966 201.037 64.898 201.216C67.015 201.616 69.0071 202.512 70.7107 203.83C72.4143 205.148 73.781 206.851 74.6987 208.799" stroke="#535461" stroke-width="2" stroke-miterlimit="10"/>
<path d="M81.1493 152.732C79.4235 155.136 77.632 157.721 77.4846 160.677C77.2592 165.217 80.8936 168.931 82.5164 173.178C83.2197 175.049 83.5381 177.043 83.4523 179.04C83.3666 181.036 82.8786 182.995 82.0175 184.799C81.2256 186.435 80.0964 188.06 80.242 189.872C80.3254 190.977 80.8794 191.983 81.325 193C82.4188 195.548 82.8961 198.317 82.7181 201.084C82.5401 203.851 81.7119 206.536 80.3006 208.923" stroke="url(#paint1_linear)" stroke-width="2" stroke-miterlimit="10"/>
<path d="M81.3625 152.732C79.6385 155.145 77.847 157.723 77.6961 160.677C77.4706 165.217 81.105 168.931 82.7278 173.178C83.4312 175.049 83.7495 177.043 83.6638 179.04C83.5781 181.036 83.09 182.995 82.2289 184.799C81.4371 186.435 80.3078 188.06 80.4534 189.872C80.5369 190.977 81.0908 191.983 81.5365 193C82.6303 195.548 83.1075 198.317 82.9295 201.084C82.7515 203.851 81.9233 206.536 80.512 208.923" stroke="#535461" stroke-width="2" stroke-miterlimit="10"/>
<path d="M105.363 174.356L106.198 181.153C106.308 182.056 106.402 183.041 105.917 183.815C105.457 184.544 104.595 184.892 103.923 185.431C101.72 187.205 101.921 190.596 102.681 193.317C103.44 196.039 104.534 198.963 103.478 201.582C103.041 202.662 102.27 203.572 101.702 204.587C100.728 206.321 100.341 208.325 100.601 210.297" stroke="url(#paint2_linear)" stroke-width="2" stroke-miterlimit="10"/>
<path d="M105.571 174.356L106.406 181.153C106.516 182.056 106.61 183.041 106.125 183.815C105.666 184.544 104.803 184.892 104.131 185.431C101.928 187.205 102.129 190.596 102.889 193.317C103.649 196.039 104.742 198.963 103.686 201.582C103.249 202.662 102.478 203.572 101.91 204.587C100.936 206.321 100.549 208.325 100.809 210.297" stroke="#535461" stroke-width="2" stroke-miterlimit="10"/>
<g opacity="0.7">
<path opacity="0.7" d="M127.002 146.419C127 143.24 126.246 140.105 124.8 137.272C123.355 134.44 121.259 131.989 118.684 130.12C116.109 128.252 113.128 127.018 109.985 126.521C106.842 126.024 103.626 126.277 100.6 127.26C100.766 126.127 100.852 124.985 100.857 123.841C100.865 118.618 98.8432 113.597 95.2175 109.836C91.5918 106.074 86.6459 103.867 81.4231 103.68C76.2003 103.493 71.1089 105.34 67.2226 108.832C63.3364 112.323 60.9592 117.187 60.5925 122.396C57.5653 121.412 54.3478 121.157 51.2033 121.654C48.0587 122.15 45.0764 123.383 42.5002 125.252C39.924 127.121 37.8271 129.573 36.381 132.407C34.935 135.241 34.1808 138.377 34.1802 141.558C34.1802 151.671 41.6373 166.042 51.3404 168.588L52.8513 169.451L52.0311 172.259H56.8888L55.8342 169.447L57.338 168.588C64.8413 166.621 70.9934 157.588 73.4028 148.925C74.7218 149.802 76.1739 150.461 77.703 150.876L79.214 151.738L78.4061 154.54H83.2639L82.2092 151.728L83.7131 150.869C84.8276 150.569 85.901 150.134 86.909 149.572C88.2069 159.291 95.1118 171.157 103.849 173.448L105.36 174.31L104.54 177.119H109.397L108.339 174.307L109.843 173.448C119.553 170.902 127.002 156.525 127.002 146.419Z" fill="url(#paint3_linear)"/>
</g>
<path d="M57.661 171.219H52.9595L53.7833 168.402H56.6028L57.661 171.219Z" fill="#F55F44"/>
<path d="M74.6988 141.512C74.6988 152.278 65.9651 168.049 55.1932 168.049C44.4212 168.049 35.6875 152.276 35.6875 141.512C35.6875 136.342 37.7426 131.384 41.4008 127.729C45.059 124.073 50.0206 122.019 55.194 122.019C60.3675 122.019 65.3291 124.073 68.9872 127.729C72.6454 131.384 74.7006 136.342 74.7006 141.512H74.6988Z" fill="#F55F44"/>
<path d="M56.6031 168.519H53.7836L52.1377 167.581H58.249L56.6031 168.519Z" fill="#535461"/>
<path opacity="0.1" d="M48.1425 126.364C48.1425 126.364 39.9166 130.826 38.7412 139.75L48.1425 126.364Z" fill="white"/>
<path d="M83.1698 154.084H78.4683L79.2921 151.267H82.1116L83.1698 154.084Z" fill="#4D8AF0"/>
<path d="M100.208 124.376C100.208 135.142 91.4739 150.913 80.7019 150.913C69.93 150.913 61.1963 135.141 61.1963 124.376C61.1963 119.207 63.2514 114.249 66.9096 110.593C70.5678 106.938 75.5294 104.884 80.7028 104.884C85.8763 104.884 90.8378 106.938 94.496 110.593C98.1542 114.249 100.209 119.207 100.209 124.376H100.208Z" fill="#22C88A"/>
<path d="M82.1119 151.384H79.2924L77.6465 150.443H83.7577L82.1119 151.384Z" fill="#535461"/>
<path opacity="0.1" d="M73.6513 109.228C73.6513 109.228 65.4254 113.69 64.25 122.615L73.6513 109.228Z" fill="white"/>
<path d="M108.464 175.934H103.762L104.586 173.114H107.406L108.464 175.934Z" fill="#3AD29F"/>
<path d="M125.501 146.224C125.501 156.99 116.768 172.761 105.996 172.761C95.2237 172.761 86.4883 156.99 86.4883 146.224C86.4883 141.054 88.5434 136.097 92.2016 132.441C95.8598 128.785 100.821 126.732 105.995 126.732C111.168 126.732 116.13 128.785 119.788 132.441C123.446 136.097 125.501 141.054 125.501 146.224Z" fill="#3AD29F"/>
<path d="M107.405 173.231H104.586L102.94 172.293H109.051L107.405 173.231Z" fill="#535461"/>
<path opacity="0.1" d="M98.9452 131.076C98.9452 131.076 90.7193 135.538 89.5439 144.462L98.9452 131.076Z" fill="white"/>
<g opacity="0.5">
<path opacity="0.5" d="M91.6886 179.255C90.5576 178.121 88.9082 177.67 87.0439 177.985C85.3003 178.279 83.555 179.226 82.1311 180.646C81.7186 181.06 81.3719 181.535 81.1031 182.055C80.8413 181.518 80.4974 181.025 80.0839 180.594C78.6848 179.148 76.9555 178.174 75.2102 177.855C73.353 177.5 71.6964 177.931 70.5441 179.046C69.3918 180.16 68.9196 181.801 69.2072 183.667C69.4771 185.413 70.3968 187.171 71.7977 188.614C74.7414 191.65 80.6166 190.464 80.8651 190.411L80.9379 190.395L81.1634 190.447C81.412 190.503 87.2658 191.79 90.2611 188.805C91.6815 187.386 92.6349 185.646 92.9368 183.903C93.2652 182.039 92.8196 180.39 91.6886 179.255ZM79.878 188.658C78.4576 188.85 74.919 189.109 73.163 187.297C72.0338 186.132 71.2952 184.741 71.0839 183.376C70.8922 182.134 71.1691 181.07 71.8687 180.399C72.1417 180.137 72.4682 179.938 72.8257 179.814C73.4865 179.6 74.1921 179.565 74.8711 179.711C76.2275 179.965 77.5982 180.745 78.7274 181.911C80.4834 183.71 80.1141 187.244 79.878 188.656V188.658ZM91.0831 183.582C90.8488 184.941 90.0871 186.322 88.9366 187.466C87.1486 189.24 83.6101 188.926 82.1985 188.708C81.9872 187.289 81.6783 183.76 83.4662 181.978C84.6168 180.834 85.9999 180.076 87.3599 179.849C88.0414 179.715 88.7464 179.763 89.4035 179.988C89.7594 180.118 90.0829 180.324 90.3516 180.591C91.037 181.277 91.2962 182.338 91.0831 183.58V183.582Z" fill="url(#paint4_linear)"/>
</g>
<path d="M81.4422 190.024L80.8829 190.141C80.645 190.191 75.0238 191.325 72.2061 188.421C70.8673 187.04 69.9867 185.358 69.7204 183.687C69.4434 181.9 69.8979 180.33 70.9987 179.264C72.0995 178.197 73.685 177.793 75.4623 178.125C77.126 178.435 78.7807 179.367 80.1195 180.749C82.9354 183.653 81.6251 189.233 81.5683 189.469L81.4422 190.024ZM73.1808 180.002C72.8385 180.12 72.526 180.312 72.2646 180.562C71.5971 181.21 71.3307 182.221 71.5136 183.412C71.716 184.716 72.4227 186.048 73.5039 187.164C75.1853 188.898 78.5712 188.649 79.9295 188.467C80.155 187.116 80.5101 183.742 78.8287 182.008C77.7474 180.894 76.4371 180.146 75.1374 179.904C74.488 179.764 73.8131 179.798 73.1808 180.002Z" fill="#22C88A"/>
<path d="M80.6114 190.049L80.4871 189.492C80.4338 189.254 79.2194 183.653 82.085 180.798C83.4486 179.441 85.1176 178.538 86.7866 178.256C88.5621 177.954 90.1476 178.385 91.2253 179.471C92.303 180.557 92.7345 182.133 92.4273 183.907C92.1397 185.573 91.2306 187.239 89.867 188.596C87.0014 191.451 81.3997 190.22 81.1671 190.166L80.6114 190.049ZM89.045 180.161C88.417 179.946 87.7433 179.901 87.0919 180.028C85.7887 180.248 84.466 180.974 83.3634 182.069C81.6518 183.774 81.943 187.152 82.1507 188.507C83.5054 188.713 86.8878 189.02 88.5976 187.317C89.6984 186.22 90.4263 184.9 90.6518 183.591C90.856 182.404 90.6074 181.387 89.9505 180.729C89.6929 180.477 89.3841 180.284 89.045 180.161Z" fill="#22C88A"/>
<g opacity="0.5">
<path opacity="0.5" d="M108.027 188.557H53.5171V199.456H56.349V231H105.195V199.456H108.027V188.557Z" fill="url(#paint5_linear)"/>
</g>
<path d="M104.577 191.852H56.9668V230.464H104.577V191.852Z" fill="#535461"/>
<path d="M85.256 198.746H76.2861V230.462H85.256V198.746Z" fill="#22C88A"/>
<path opacity="0.1" d="M104.577 189.783H56.9668V199.437H104.577V189.783Z" fill="black"/>
<path d="M107.338 189.093H54.208V198.746H107.338V189.093Z" fill="#535461"/>
<path d="M85.256 189.093H76.2861V198.746H85.256V189.093Z" fill="#22C88A"/>
</g>
<path d="M198.953 199.92L198.433 199.618C198.919 198.772 197.611 195.175 196.529 193.363C195.855 192.289 195.369 191.108 195.092 189.87C194.746 188.13 195.075 186.62 196.071 185.384C198.139 182.818 198.13 177.923 198.13 177.882H198.732C198.732 178.09 198.755 183.041 196.55 185.776C195.085 187.593 195.255 190.047 197.057 193.066C197.896 194.481 199.709 198.607 198.953 199.92Z" fill="#D4D5E0"/>
<path d="M205.556 172.66C205.692 167.755 202.473 163.685 198.366 163.571C194.258 163.457 190.818 167.339 190.681 172.244C190.549 177.006 193.578 180.98 197.516 181.314C197.444 181.81 197.233 182.276 196.906 182.655C196.309 183.265 198.777 182.708 198.777 182.708C198.615 182.261 198.526 181.792 198.512 181.318C202.331 181.035 205.427 177.306 205.556 172.66Z" fill="#22C88A"/>
<path opacity="0.2" d="M192.846 175.935C192.238 174.069 192.8 172.195 194.098 171.63C194.039 171.645 193.979 171.66 193.911 171.681C192.489 172.146 191.853 174.102 192.485 176.051C193.101 177.942 194.692 179.129 196.084 178.771C196.121 178.913 193.462 177.824 192.846 175.935Z" fill="white"/>
<path d="M202.041 206.713L202.644 206.738C202.685 205.762 205.715 203.431 207.597 202.484C208.741 201.941 209.784 201.206 210.68 200.31C211.905 199.027 212.437 197.575 212.257 195.996C211.883 192.721 214.523 188.599 214.55 188.558L214.044 188.229C213.93 188.406 211.263 192.571 211.658 196.066C211.922 198.388 210.464 200.364 207.326 201.944C205.84 202.688 202.097 205.2 202.041 206.713Z" fill="#D4D5E0"/>
<path d="M211.067 180.164C213.578 175.952 218.474 174.249 222 176.361C225.526 178.472 226.351 183.6 223.84 187.813C221.407 191.902 216.715 193.627 213.217 191.789C213.01 192.246 212.94 192.752 213.013 193.248C213.189 194.085 211.402 192.284 211.402 192.284C211.778 191.996 212.106 191.648 212.371 191.255C209.302 188.965 208.688 184.154 211.067 180.164Z" fill="#22C88A"/>
<path opacity="0.2" d="M220.035 189.762C221.549 188.514 222.078 186.631 221.283 185.448C221.328 185.491 221.37 185.538 221.408 185.587C222.359 186.744 221.85 188.738 220.271 190.039C218.738 191.303 216.762 191.452 215.779 190.399C215.674 190.519 218.506 191.024 220.035 189.762Z" fill="white"/>
<path opacity="0.2" d="M77.0121 214.105C75.4981 212.858 74.9685 210.975 75.7638 209.791C75.7208 209.836 75.6777 209.881 75.6384 209.93C74.6878 211.087 75.1968 213.081 76.7763 214.384C78.309 215.649 80.2852 215.795 81.2677 214.743C81.3725 214.863 78.5429 215.367 77.0121 214.105Z" fill="white"/>
<path d="M190.998 229.976L190.624 229.511C191.372 228.89 191.411 225.062 191.035 222.986C190.775 221.545 190.734 220.309 190.914 219.208C191.2 217.457 192.036 216.159 193.404 215.352C196.24 213.679 197.939 209.09 197.956 209.043L198.517 209.251C198.446 209.438 196.728 214.088 193.706 215.874C191.698 217.059 190.998 219.415 191.625 222.877C191.917 224.509 192.166 229.016 190.998 229.976Z" fill="#D4D5E0"/>
<path d="M206.734 206.783C208.581 202.238 206.994 197.296 203.19 195.741C199.385 194.186 194.802 196.611 192.955 201.156C191.16 205.567 192.605 210.346 196.172 212.053C195.933 212.493 195.571 212.855 195.131 213.094C194.359 213.456 196.87 213.805 196.87 213.805C196.874 213.33 196.954 212.859 197.108 212.409C200.787 213.49 204.985 211.087 206.734 206.783Z" fill="#22C88A"/>
<path opacity="0.2" d="M193.689 205.374C193.773 203.412 194.956 201.855 196.369 201.786C196.309 201.786 196.247 201.771 196.182 201.769C194.684 201.704 193.404 203.311 193.316 205.359C193.23 207.345 194.301 209.018 195.732 209.172C195.708 209.322 193.603 207.358 193.689 205.374Z" fill="white"/>
<path opacity="0.1" d="M142.312 235.766C173.571 235.766 198.912 233.878 198.912 231.55C198.912 229.221 173.571 227.333 142.312 227.333C111.053 227.333 85.7124 229.221 85.7124 231.55C85.7124 233.878 111.053 235.766 142.312 235.766Z" fill="#22C88A"/>
<path d="M137.545 121.727V128.353H138.238V121.406L137.545 121.727Z" fill="#53425A"/>
<path d="M151.728 123.49V129.634H152.688L152.474 122.794L151.728 123.49Z" fill="#53425A"/>
<path d="M124.429 124.666L123.789 125.36V131.345H124.429V124.666Z" fill="#53425A"/>
<path d="M127.096 142.298H122.936V130.335H126.136C126.103 130.427 126.078 130.522 126.063 130.619C125.937 131.307 125.977 132.605 126.093 134.09C126.372 137.65 127.096 142.298 127.096 142.298Z" fill="#22C88A"/>
<path d="M141.599 142.298L136.372 142.939V127.335H139.679C139.656 127.511 139.641 127.71 139.634 127.935C139.624 129.112 139.693 130.289 139.84 131.457C139.952 132.474 140.1 133.565 140.261 134.646C140.386 135.488 140.521 136.334 140.654 137.121C141.133 139.985 141.599 142.298 141.599 142.298Z" fill="#22C88A"/>
<path d="M155.674 140.696L150.556 141.124V128.619H154.076C153.95 128.886 153.889 129.334 153.889 129.906C153.911 130.938 154.003 131.966 154.164 132.986C154.669 136.487 155.674 140.696 155.674 140.696Z" fill="#22C88A"/>
<path d="M125.282 112.534C125.282 112.534 125.602 113.817 122.243 117.343C118.884 120.869 120.218 127.978 123.789 127.764C123.789 127.764 127.129 128.327 128.331 126.038C128.581 125.547 128.693 124.996 128.656 124.446C128.618 123.895 128.432 123.365 128.117 122.912C127.013 121.282 124.884 117.857 125.282 116.222V112.534Z" fill="#FFC13D"/>
<path opacity="0.5" d="M124.607 117.381C124.607 117.381 124.807 118.184 122.709 120.382C120.611 122.58 121.438 127.027 123.684 126.894C123.684 126.894 125.817 127.246 126.545 125.768C126.688 125.464 126.749 125.127 126.721 124.792C126.692 124.457 126.576 124.135 126.384 123.859C125.733 122.897 124.513 120.941 124.59 119.866C124.601 119.697 124.616 119.53 124.616 119.361L124.607 117.381Z" fill="white"/>
<path d="M153.005 110.927C153.005 110.927 153.325 112.208 149.966 115.736C146.607 119.264 147.939 126.37 151.512 126.157C151.512 126.157 154.853 126.708 156.054 124.429C156.303 123.937 156.415 123.387 156.378 122.836C156.34 122.286 156.155 121.756 155.841 121.303C154.737 119.673 152.607 116.25 153.005 114.614V110.927Z" fill="#FFC13D"/>
<path opacity="0.5" d="M152.581 118.57C152.581 118.57 152.73 119.17 151.158 120.821C149.586 122.471 150.211 125.798 151.883 125.697C151.883 125.697 153.445 125.954 154.009 124.889C154.125 124.658 154.177 124.401 154.159 124.143C154.141 123.886 154.054 123.638 153.908 123.426C153.391 122.662 152.395 121.061 152.581 120.294V118.57Z" fill="white"/>
<path d="M138.861 106.289C138.861 106.289 139.25 107.847 135.165 112.137C131.08 116.426 132.702 125.067 137.036 124.808C137.036 124.808 141.097 125.48 142.559 122.707C142.862 122.109 142.998 121.44 142.953 120.771C142.907 120.101 142.681 119.457 142.299 118.906C140.957 116.925 138.369 112.761 138.852 110.771L138.861 106.289Z" fill="#FFC13D"/>
<path opacity="0.5" d="M138.433 114.029C138.433 114.029 138.65 114.899 136.374 117.291C134.098 119.682 135 124.506 137.424 124.362C137.424 124.362 139.69 124.737 140.504 123.189C140.675 122.856 140.751 122.483 140.726 122.109C140.7 121.735 140.574 121.375 140.36 121.068C139.612 119.963 138.167 117.64 138.436 116.531L138.433 114.029Z" fill="white"/>
<path opacity="0.5" d="M126.092 134.087C125.115 135.116 123.764 136.962 122.937 138.13V133.899C123.85 132.796 125.158 131.485 126.062 130.611C125.929 131.301 125.976 132.599 126.092 134.087Z" fill="white"/>
<path opacity="0.5" d="M139.84 131.461C138.62 132.441 137.462 133.497 136.372 134.621V130.577C137.357 129.577 138.451 128.691 139.634 127.937C139.624 129.115 139.693 130.292 139.84 131.461Z" fill="white"/>
<path d="M140.654 137.127C139.368 138.252 137.602 139.86 136.372 140.979V138.085C137.656 136.9 139.217 135.54 140.261 134.649C140.386 135.493 140.527 136.337 140.654 137.127Z" fill="#22C88A"/>
<path opacity="0.5" d="M154.169 132.986C152.936 134.021 151.506 135.445 150.556 136.424V132.399C151.566 131.393 152.904 130.502 153.894 129.913C153.917 130.943 154.009 131.969 154.169 132.986Z" fill="white"/>
<path d="M166.122 145.185H113.924V169.126H166.122V145.185Z" fill="#C99398"/>
<path opacity="0.1" d="M166.125 145.185V148.788C165.127 148.975 163.819 148.683 162.722 148.315C162.075 148.096 161.387 148.027 160.71 148.112C160.032 148.198 159.383 148.437 158.811 148.81C155.804 150.779 153.455 150.363 151.817 149.384C151.006 148.888 150.09 148.591 149.142 148.517C148.195 148.444 147.243 148.596 146.366 148.962C145.599 149.277 144.776 149.428 143.948 149.406C142.981 149.39 142.029 149.65 141.204 150.157C138.736 151.657 136.273 150.789 134.727 149.883C133.714 149.297 132.515 149.124 131.378 149.399C130.888 149.516 130.383 149.557 129.88 149.519C128.738 149.413 127.591 149.661 126.594 150.23C122.518 152.618 121.167 149.718 120.368 149.292C119.46 148.812 119.355 150.468 119.088 150.468C118.82 150.468 117.916 148.277 117.701 149.024C117.602 149.376 116.765 149.797 115.899 150.149C115.27 150.402 114.584 150.473 113.917 150.354V145.185H166.125Z" fill="black"/>
<path d="M116.011 140.411C116.011 140.411 107.456 144.237 112.021 149.018C112.515 149.527 113.149 149.877 113.843 150.023C114.536 150.168 115.257 150.102 115.913 149.834C116.776 149.485 117.616 149.063 117.716 148.709C117.929 147.959 118.839 150.151 119.102 150.151C119.366 150.151 119.477 148.495 120.382 148.975C121.185 149.401 122.533 152.301 126.609 149.913C127.606 149.344 128.754 149.096 129.897 149.204C130.396 149.241 130.897 149.199 131.383 149.08C132.52 148.807 133.719 148.98 134.733 149.564C136.278 150.47 138.741 151.338 141.21 149.84C142.034 149.336 142.984 149.076 143.949 149.091C144.777 149.116 145.6 148.964 146.366 148.647C147.243 148.282 148.194 148.13 149.142 148.203C150.089 148.277 151.006 148.573 151.817 149.069C153.455 150.05 155.803 150.466 158.811 148.506C159.383 148.133 160.032 147.894 160.709 147.808C161.387 147.722 162.075 147.792 162.722 148.011C164.908 148.744 167.947 149.213 167.672 146.004C167.245 141.034 161.38 139.592 158.927 139.537C156.473 139.483 152.422 139.057 147.836 139.537C143.251 140.017 133.92 139.965 133.92 139.965C133.92 139.965 118.257 139.325 116.011 140.411Z" fill="#F8F8FA"/>
<path opacity="0.1" d="M166.125 153.242V159.522C165.858 159.514 165.591 159.49 165.327 159.448C164.088 159.261 162.851 158.859 161.611 159.03C159.648 159.302 158.135 160.943 156.223 161.457C152.396 162.489 148.765 158.786 144.807 158.891C141.959 158.966 139.578 160.968 136.958 162.08C134.288 163.211 131.322 163.435 128.512 162.719C126.128 162.104 123.97 160.844 121.708 159.863C119.445 158.882 116.919 158.196 114.533 158.807C114.331 158.858 114.132 158.919 113.93 158.976V154.609C114.217 154.653 114.507 154.672 114.797 154.668C115.732 154.623 116.511 154.409 117.469 154.592C118.343 154.77 119.19 155.065 119.986 155.468C121.712 156.312 123.308 157.457 125.149 158.002C126.527 158.413 127.981 158.469 129.418 158.439C132.252 158.377 135.162 157.957 137.598 156.509C139.153 155.583 140.544 154.234 142.326 153.923C146.001 153.283 149.035 157.299 152.766 157.417C153.702 157.451 154.615 157.23 155.521 157.02C156.917 156.689 158.349 156.344 159.533 155.538C160.782 154.688 161.755 153.332 163.22 152.97C163.944 152.792 164.717 152.882 165.434 153.051C165.666 153.105 165.898 153.169 166.125 153.242Z" fill="black"/>
<path opacity="0.1" d="M166.124 152.601V158.88C165.858 158.873 165.591 158.849 165.327 158.809C164.088 158.621 162.851 158.218 161.611 158.389C159.647 158.661 158.135 160.302 156.223 160.816C152.396 161.847 148.765 158.145 144.807 158.25C141.959 158.325 139.578 160.326 136.958 161.438C134.288 162.568 131.322 162.794 128.512 162.08C126.117 161.47 123.967 160.204 121.704 159.22C119.441 158.235 116.915 157.552 114.529 158.164C114.327 158.216 114.128 158.276 113.926 158.332V153.968C114.213 154.012 114.503 154.032 114.793 154.026C115.728 153.981 116.507 153.767 117.465 153.951C118.34 154.131 119.188 154.426 119.986 154.829C121.711 155.675 123.308 156.817 125.149 157.363C126.527 157.773 127.981 157.83 129.418 157.8C132.251 157.738 135.161 157.318 137.598 155.87C139.153 154.945 140.544 153.595 142.325 153.283C146.001 152.644 149.034 156.65 152.766 156.778C153.702 156.811 154.615 156.59 155.521 156.38C156.917 156.05 158.349 155.707 159.533 154.898C160.781 154.049 161.755 152.694 163.22 152.331C163.944 152.152 164.717 152.242 165.434 152.411C165.666 152.467 165.898 152.529 166.124 152.601Z" fill="black"/>
<path d="M111.061 155.673C110.462 156.914 111.278 158.674 112.646 158.829C113.284 158.899 113.907 158.651 114.529 158.492C116.915 157.88 119.443 158.574 121.704 159.55C123.965 160.525 126.117 161.791 128.508 162.408C131.317 163.123 134.282 162.898 136.952 161.768C139.572 160.643 141.955 158.649 144.812 158.58C148.774 158.477 152.405 162.177 156.228 161.146C158.141 160.632 159.655 158.991 161.616 158.721C162.857 158.548 164.094 158.955 165.333 159.139C166.572 159.323 167.998 159.218 168.829 158.276C169.691 157.297 169.547 155.701 168.765 154.654C167.983 153.608 166.706 153.038 165.439 152.741C164.713 152.574 163.942 152.482 163.226 152.661C161.76 153.024 160.793 154.377 159.539 155.228C158.352 156.035 156.919 156.38 155.526 156.71C154.621 156.926 153.702 157.141 152.77 157.11C149.04 156.98 146.006 152.974 142.329 153.613C140.547 153.925 139.159 155.275 137.604 156.2C135.171 157.648 132.255 158.075 129.424 158.13C127.986 158.16 126.53 158.104 125.153 157.695C123.313 157.147 121.717 156.007 119.993 155.159C119.195 154.756 118.348 154.46 117.473 154.279C116.513 154.092 115.736 154.311 114.798 154.356C114.085 154.39 113.475 154.129 112.74 154.341C112.382 154.433 112.048 154.599 111.759 154.828C111.47 155.058 111.232 155.345 111.061 155.673Z" fill="#22C88A"/>
<path d="M177.722 169.126H103.261V198.436H177.722V169.126Z" fill="#C99398"/>
<path opacity="0.1" d="M166.124 164.126V169.126H137.098C137.048 169.126 136.999 169.115 136.949 169.111C136.703 169.093 136.456 169.098 136.211 169.126H113.926V164.668C116.359 164.964 118.803 165.341 121.225 165.33C124.429 165.317 127.588 164.649 130.805 164.829C142.033 165.454 153.449 165.64 164.637 164.308L166.124 164.126Z" fill="black"/>
<path opacity="0.1" d="M177.722 169.126V171.769C176.913 171.666 176.133 171.343 175.351 171.086C174.645 170.856 173.884 170.676 173.167 170.867C172.793 170.968 172.445 171.167 172.072 171.281C170.515 171.769 168.891 170.754 167.257 170.749C165.623 170.743 164.19 171.719 162.61 172.075C160.166 172.624 157.669 171.66 155.33 170.762C154.383 170.402 153.285 170.057 152.401 170.55C152.012 170.766 151.72 171.122 151.34 171.357C150.232 172.043 148.78 171.507 147.676 170.814C146.976 170.377 146.13 169.862 145.393 170.231C145.019 170.419 144.773 170.794 144.457 171.086C143.46 171.983 141.888 171.743 140.664 171.197C139.44 170.651 138.281 169.849 136.947 169.749C135.076 169.607 133.418 170.874 131.778 171.812C130.139 172.75 127.859 173.296 126.521 171.962C126.078 171.522 125.75 170.882 125.144 170.73C124.141 170.481 123.387 171.724 122.376 171.942C121.13 172.212 120.117 170.882 118.867 170.629C117.574 170.359 116.372 171.259 115.231 171.925C114.089 172.591 112.424 172.964 111.606 171.934C111.342 171.606 111.198 171.163 110.837 170.944C110.561 170.81 110.252 170.76 109.948 170.801C108.866 170.862 107.804 171.116 106.811 171.552C105.672 172.056 104.566 172.81 103.327 172.786H103.259V169.126H177.722Z" fill="black"/>
<path d="M121.215 165.651C115.504 165.675 109.612 163.53 104.221 165.439C102.267 166.131 100.291 167.769 100.491 169.835C100.582 170.537 100.916 171.184 101.434 171.664C101.953 172.144 102.623 172.426 103.328 172.461C104.573 172.484 105.673 171.728 106.813 171.225C107.805 170.789 108.867 170.534 109.949 170.475C110.254 170.434 110.564 170.484 110.84 170.619C111.199 170.835 111.345 171.28 111.609 171.608C112.436 172.639 114.093 172.264 115.232 171.598C116.372 170.933 117.577 170.03 118.869 170.302C120.117 170.563 121.131 171.893 122.378 171.615C123.388 171.398 124.142 170.154 125.145 170.406C125.752 170.556 126.081 171.193 126.523 171.636C127.861 172.97 130.137 172.418 131.778 171.486C133.419 170.554 135.068 169.284 136.949 169.423C138.283 169.524 139.443 170.329 140.667 170.874C141.891 171.42 143.461 171.658 144.459 170.764C144.775 170.479 145.02 170.096 145.394 169.907C146.132 169.532 146.978 170.053 147.678 170.49C148.782 171.182 150.234 171.719 151.342 171.032C151.716 170.798 152.014 170.443 152.403 170.226C153.286 169.732 154.385 170.077 155.332 170.437C157.671 171.332 160.169 172.298 162.612 171.75C164.191 171.394 165.64 170.419 167.258 170.424C168.877 170.43 170.517 171.445 172.074 170.959C172.448 170.843 172.79 170.644 173.167 170.543C173.885 170.355 174.647 170.531 175.352 170.762C176.288 171.07 177.224 171.473 178.208 171.477C179.193 171.48 180.267 170.94 180.508 169.976C180.695 169.243 180.338 168.476 179.898 167.866C178.306 165.632 175.541 164.49 172.818 164.177C170.096 163.864 167.352 164.299 164.631 164.621C153.449 165.96 142.024 165.784 130.795 165.15C127.586 164.97 124.421 165.638 121.215 165.651Z" fill="#F8F8FA"/>
<path opacity="0.1" d="M177.722 187.957V195.18C170.118 196.551 162.342 196.868 154.609 197.189C149.599 197.393 144.586 197.598 139.574 197.495C135.831 197.42 132.088 197.17 128.36 196.932L116.383 196.137L105.113 195.387L103.261 195.263V188.822C103.729 188.518 104.232 188.271 104.758 188.085C106.02 187.649 107.373 187.544 108.688 187.779C110.002 188.015 111.235 188.584 112.268 189.432C116.045 187.155 121.26 187.59 124.608 190.467C129.221 186.993 136.149 187.038 140.718 190.57C143.744 186.855 149.903 186.281 153.558 189.377C157.052 186.106 163.038 186.001 166.658 189.133C169.203 187.177 172.702 187.048 175.88 187.496C176.512 187.567 177.131 187.722 177.722 187.957Z" fill="black"/>
<path d="M180.92 194.856C176.802 195.745 172.63 196.366 168.432 196.714C167.03 196.842 165.625 196.945 164.217 197.037C161.019 197.243 157.81 197.375 154.609 197.506C152.575 197.589 150.541 197.671 148.505 197.735L147.228 197.77C144.676 197.836 142.125 197.864 139.574 197.812C135.831 197.737 132.089 197.487 128.361 197.249L116.383 196.456L105.114 195.705L102.348 195.518C101.354 195.452 100.617 195.666 100.214 194.777C99.7369 193.712 100.158 192.652 100.742 191.725C100.847 191.56 100.955 191.401 101.066 191.245C101.976 189.94 103.265 188.947 104.758 188.402C106.021 187.966 107.374 187.862 108.688 188.098C110.003 188.334 111.235 188.904 112.268 189.752C116.045 187.475 121.26 187.91 124.608 190.788C129.221 187.314 136.15 187.359 140.718 190.891C143.744 187.175 149.903 186.601 153.558 189.698C157.052 186.427 163.038 186.322 166.658 189.454C169.203 187.498 172.702 187.368 175.88 187.817C176.816 187.95 177.787 188.145 178.513 188.754C179.524 189.6 179.754 190.94 180.031 192.277C180.201 193.19 180.418 194.106 180.92 194.856Z" fill="#22C88A"/>
<path d="M180.555 195.79H98.2227V229.775H180.555V195.79Z" fill="#C99398"/>
<path opacity="0.1" d="M180.92 194.856C176.802 195.745 172.63 196.366 168.432 196.714C167.022 196.469 165.573 196.579 164.217 197.037C164.191 197.044 164.166 197.053 164.141 197.063C161.547 197.982 159.314 200.166 156.563 200.13C154.375 200.107 152.468 198.65 150.357 198.044C149.754 197.87 149.132 197.768 148.505 197.742C148.079 197.72 147.652 197.732 147.228 197.778C144.676 197.844 142.125 197.872 139.574 197.819C135.831 197.744 132.089 197.495 128.361 197.257L116.383 196.463L105.114 195.713L102.348 195.525C101.354 195.46 100.617 195.674 100.214 194.784C99.7369 193.719 100.158 192.659 100.742 191.733C101.245 191.733 101.749 191.778 102.239 191.814C109.85 192.35 117.456 192.906 125.058 193.481L123.888 193.687C131.831 192.434 139.875 191.936 147.912 192.198C151.654 192.322 155.433 192.611 159.157 192.131C161.777 191.795 164.339 191.082 166.968 190.859C170.58 190.553 174.2 191.178 177.774 191.797C178.529 191.916 179.276 192.075 180.014 192.273C180.201 193.19 180.418 194.106 180.92 194.856Z" fill="black"/>
<path opacity="0.1" d="M180.555 195.794V198.982C179.528 198.83 178.521 198.678 177.898 199.41C177.606 199.755 177.492 200.222 177.207 200.574C176.619 201.302 175.472 201.3 174.634 200.888C173.795 200.475 173.159 199.762 172.439 199.16C171.29 198.236 169.927 197.619 168.476 197.364C167.026 197.11 165.534 197.227 164.141 197.705C161.547 198.624 159.314 200.805 156.563 200.771C154.366 200.741 152.469 199.288 150.358 198.678C149.164 198.343 147.91 198.277 146.688 198.485C145.465 198.693 144.304 199.17 143.287 199.882C141.79 200.946 140.383 202.594 138.564 202.384C137.611 202.274 136.81 201.653 136 201.135C134.371 200.097 132.541 199.417 130.631 199.14C129.798 199.021 128.913 198.986 128.145 199.327C127.176 199.764 126.551 200.732 125.653 201.298C123.566 202.611 120.858 201.428 118.708 200.22C116.557 199.012 113.891 197.782 111.759 199.018C111.256 199.31 110.823 199.727 110.296 199.956C107.301 201.268 104.35 196.191 101.273 197.315C100.579 197.568 100.025 198.114 99.3421 198.397C98.9864 198.541 98.6008 198.595 98.2192 198.554V195.794H180.555Z" fill="black"/>
<path d="M125.069 193.798C117.458 193.224 109.852 192.668 102.248 192.131C100.938 192.037 99.5742 191.943 98.3035 192.318C97.0328 192.693 95.8482 193.646 95.5768 194.944C95.167 196.908 97.4913 198.845 99.344 198.08C100.027 197.799 100.579 197.251 101.273 196.998C104.35 195.872 107.296 200.959 110.294 199.639C110.825 199.404 111.256 198.99 111.757 198.701C113.891 197.459 116.554 198.701 118.706 199.903C120.858 201.105 123.572 202.298 125.653 200.981C126.553 200.419 127.176 199.447 128.145 199.01C128.913 198.663 129.796 198.699 130.631 198.823C132.541 199.098 134.372 199.778 136 200.816C136.81 201.334 137.611 201.955 138.564 202.066C140.383 202.277 141.794 200.625 143.287 199.563C144.304 198.852 145.465 198.374 146.688 198.166C147.91 197.958 149.164 198.024 150.358 198.359C152.467 198.969 154.366 200.423 156.561 200.453C159.314 200.488 161.547 198.305 164.141 197.384C165.534 196.907 167.026 196.79 168.477 197.045C169.928 197.3 171.29 197.919 172.439 198.843C173.159 199.436 173.797 200.156 174.636 200.569C175.474 200.981 176.619 200.983 177.207 200.256C177.492 199.905 177.604 199.436 177.898 199.091C179.099 197.684 181.714 199.543 183.17 198.404C183.507 198.121 183.742 197.734 183.838 197.303C184.212 195.846 183.287 194.302 182.035 193.481C180.783 192.659 179.26 192.376 177.782 192.117C174.209 191.495 170.59 190.868 166.978 191.18C164.348 191.403 161.785 192.117 159.166 192.451C155.444 192.931 151.671 192.639 147.919 192.519C139.883 192.256 131.84 192.755 123.897 194.008" fill="#F8F8FA"/>
<path opacity="0.1" d="M180.555 208.411V214.362C179.546 214.269 178.567 213.974 177.675 213.494C176.013 212.633 174.517 211.402 172.721 210.868C167.125 209.225 161.444 214.913 155.753 213.644C153.569 213.156 151.59 211.659 149.356 211.768C147.251 211.865 145.512 213.345 143.646 214.324C141.82 215.264 139.796 215.754 137.743 215.754C135.69 215.754 133.666 215.264 131.839 214.324C129.732 213.214 127.855 211.481 125.497 211.157C121.818 210.652 118.464 213.75 114.755 213.644C112.496 213.578 110.467 212.331 108.448 211.323C106.429 210.316 104.071 209.48 101.951 210.262C101.004 210.611 100.199 211.254 99.3174 211.74C98.9704 211.934 98.6033 212.09 98.2227 212.205V207.308C99.9853 206.009 102.127 205.331 104.314 205.379C106.501 205.426 108.611 206.198 110.316 207.572C111.229 208.306 112.041 209.217 113.123 209.649C114.66 210.26 116.413 209.784 117.897 209.063C119.381 208.343 120.768 207.375 122.359 206.931C126.214 205.864 130.114 208.086 133.655 209.951C135.724 211.038 138.045 212.059 140.326 211.556C141.415 211.314 142.398 210.744 143.379 210.211C147.324 208.069 152.085 206.423 156.222 208.167C157.869 208.861 159.465 210.089 161.234 209.819C162.333 209.65 163.251 208.923 164.142 208.257C166.03 206.851 168.043 205.623 170.155 204.586C171.162 204.095 172.261 203.634 173.37 203.808C174.892 204.042 175.96 205.374 177.006 206.509C177.955 207.529 179.226 208.523 180.555 208.411Z" fill="black"/>
<path opacity="0.1" d="M180.555 209.052V215.005C179.546 214.912 178.567 214.617 177.675 214.137C176.013 213.276 174.517 212.046 172.721 211.511C167.125 209.868 161.444 215.557 155.753 214.287C153.569 213.799 151.59 212.302 149.356 212.411C147.251 212.509 145.512 213.989 143.646 214.968C141.819 215.906 139.795 216.394 137.741 216.392C135.688 216.39 133.665 215.898 131.839 214.956C129.732 213.848 127.855 212.115 125.497 211.79C121.818 211.286 118.464 214.384 114.755 214.277C112.496 214.212 110.467 212.974 108.448 211.957C106.429 210.941 104.071 210.112 101.951 210.896C101.004 211.245 100.199 211.888 99.3174 212.374C98.97 212.567 98.603 212.722 98.2227 212.837V207.949C99.9853 206.651 102.127 205.972 104.314 206.02C106.501 206.068 108.611 206.839 110.316 208.214C111.229 208.947 112.041 209.859 113.123 210.29C114.66 210.901 116.413 210.425 117.897 209.703C119.381 208.981 120.768 208.015 122.359 207.572C126.214 206.503 130.114 208.728 133.655 210.592C135.724 211.68 138.045 212.7 140.326 212.197C141.415 211.956 142.398 211.385 143.379 210.853C147.324 208.711 152.085 207.064 156.222 208.808C157.869 209.502 159.465 210.729 161.234 210.461C162.333 210.292 163.251 209.564 164.142 208.898C166.03 207.493 168.043 206.264 170.155 205.228C171.162 204.736 172.261 204.275 173.37 204.449C174.892 204.684 175.96 206.016 177.006 207.15C177.955 208.172 179.226 209.163 180.555 209.052Z" fill="black"/>
<path d="M102.585 205.815C103.947 205.616 105.335 205.697 106.664 206.055C107.993 206.412 109.235 207.037 110.314 207.893C111.23 208.626 112.042 209.538 113.131 209.969C114.666 210.581 116.417 210.104 117.903 209.382C119.389 208.66 120.774 207.694 122.365 207.252C126.22 206.184 130.12 208.407 133.661 210.271C135.73 211.359 138.051 212.379 140.332 211.877C141.421 211.637 142.404 211.066 143.383 210.534C147.33 208.39 152.091 206.743 156.228 208.488C157.877 209.182 159.473 210.41 161.24 210.14C162.339 209.971 163.256 209.243 164.148 208.579C166.036 207.173 168.048 205.943 170.161 204.907C171.168 204.414 172.268 203.954 173.374 204.127C174.898 204.365 175.966 205.695 177.011 206.83C178.055 207.964 179.518 209.065 181.002 208.653C181.356 208.553 181.687 208.371 182.052 208.33C182.679 208.261 183.286 208.626 183.703 209.103C184.959 210.538 184.614 213.066 183.02 214.111C181.453 215.138 179.339 214.673 177.675 213.816C176.011 212.959 174.518 211.725 172.721 211.19C167.126 209.547 161.444 215.236 155.753 213.966C153.569 213.478 151.591 211.982 149.356 212.091C147.253 212.186 145.512 213.668 143.647 214.647C141.819 215.584 139.795 216.072 137.742 216.07C135.689 216.068 133.666 215.576 131.84 214.636C129.734 213.525 127.854 211.792 125.497 211.47C121.82 210.963 118.465 214.062 114.753 213.955C112.497 213.889 110.468 212.642 108.449 211.637C106.429 210.631 104.071 209.791 101.951 210.573C101.006 210.922 100.201 211.565 99.316 212.049C98.4308 212.533 97.3716 212.867 96.4227 212.528C95.6873 212.265 94.9256 211.278 95.225 210.464C95.4552 209.823 96.535 209.127 97.0104 208.656C98.5258 207.147 100.476 206.153 102.585 205.815Z" fill="#22C88A"/>
<path opacity="0.1" d="M180.555 220.523V228.508C177.403 228.67 174.251 228.831 171.099 228.992C166.01 229.25 160.914 229.511 155.82 229.412C151.516 229.325 147.212 228.986 142.907 228.849C133.857 228.568 124.782 229.202 115.756 228.474C112.867 228.241 109.989 227.872 107.095 227.707C104.137 227.543 101.17 227.585 98.2173 227.834V220.313C98.4893 220.291 98.7624 220.285 99.0351 220.294C100.461 220.342 101.862 220.682 103.152 221.292C104.163 221.772 105.119 222.418 106.22 222.605C109.083 223.1 111.57 220.388 114.469 220.167C116.803 219.994 118.899 221.444 120.903 222.658C121.277 222.89 121.717 223.125 122.159 223.059C122.533 223.005 122.836 222.75 123.137 222.526C125.995 220.414 130.348 220.67 132.936 223.106C133.217 223.368 133.498 223.669 133.872 223.762C134.606 223.95 135.264 223.32 135.848 222.825C139.002 220.157 143.864 220.96 147.483 222.946C148.153 223.322 148.896 223.732 149.635 223.541C150.131 223.412 150.515 223.031 150.911 222.705C153.994 220.171 158.629 220.641 162.235 222.346C162.584 222.511 162.952 222.69 163.334 222.646C163.794 222.592 164.146 222.238 164.498 221.941C165.362 221.238 166.406 220.793 167.51 220.655C168.615 220.518 169.736 220.695 170.745 221.165C171.306 221.439 171.843 221.81 172.448 221.996C174.17 222.523 175.919 221.45 177.639 220.906C178.583 220.617 179.569 220.488 180.555 220.523Z" fill="black"/>
<path d="M189.231 228.386L171.099 229.312C166.01 229.571 160.914 229.832 155.82 229.732C151.516 229.646 147.212 229.307 142.907 229.17C133.857 228.888 124.782 229.52 115.757 228.795C112.867 228.562 109.989 228.192 107.096 228.027C103.841 227.851 100.578 227.923 97.3341 228.241C96.6398 228.307 95.5712 228.656 94.9012 228.519C94.177 228.371 94.454 228.288 94.6898 227.6C94.7634 227.396 94.8258 227.188 94.8769 226.977C95.0753 226.135 95.1108 225.289 95.1932 224.411C95.298 223.295 95.4627 222.069 96.3834 221.309C97.1077 220.711 98.1107 220.591 99.0502 220.621C100.476 220.669 101.877 221.008 103.167 221.619C104.178 222.099 105.134 222.744 106.235 222.941C109.098 223.436 111.585 220.724 114.484 220.503C116.818 220.33 118.914 221.78 120.918 222.993C121.292 223.226 121.732 223.46 122.174 223.395C122.548 223.34 122.851 223.085 123.152 222.862C126.01 220.75 130.363 221.005 132.951 223.442C133.232 223.704 133.513 224.004 133.887 224.098C134.621 224.286 135.279 223.655 135.863 223.16C139.017 220.493 143.879 221.296 147.498 223.282C148.168 223.657 148.911 224.068 149.65 223.877C150.146 223.747 150.53 223.367 150.926 223.04C154.009 220.506 158.644 220.977 162.251 222.682C162.599 222.847 162.967 223.025 163.349 222.982C163.809 222.928 164.161 222.573 164.513 222.277C165.377 221.574 166.421 221.128 167.526 220.991C168.63 220.854 169.751 221.03 170.76 221.5C171.321 221.774 171.859 222.146 172.463 222.331C174.185 222.858 175.935 221.785 177.654 221.242C179.901 220.529 182.337 220.73 184.438 221.8C186.538 222.871 188.135 224.726 188.883 226.966C189.039 227.428 189.156 227.903 189.231 228.386Z" fill="#F8F8FA"/>
<g opacity="0.1">
<path opacity="0.1" d="M100.875 229.432C102.687 229.432 104.156 228.304 104.156 226.911C104.156 225.519 102.687 224.391 100.875 224.391C99.063 224.391 97.5942 225.519 97.5942 226.911C97.5942 228.304 99.063 229.432 100.875 229.432Z" fill="black"/>
<path opacity="0.1" d="M113.112 229.331C114.924 229.331 116.393 228.202 116.393 226.81C116.393 225.418 114.924 224.289 113.112 224.289C111.3 224.289 109.832 225.418 109.832 226.81C109.832 228.202 111.3 229.331 113.112 229.331Z" fill="black"/>
<path opacity="0.1" d="M125.614 229.331C127.425 229.331 128.894 228.202 128.894 226.81C128.894 225.418 127.425 224.289 125.614 224.289C123.802 224.289 122.333 225.418 122.333 226.81C122.333 228.202 123.802 229.331 125.614 229.331Z" fill="black"/>
<path opacity="0.1" d="M140.463 229.331C142.275 229.331 143.744 228.202 143.744 226.81C143.744 225.418 142.275 224.289 140.463 224.289C138.651 224.289 137.183 225.418 137.183 226.81C137.183 228.202 138.651 229.331 140.463 229.331Z" fill="black"/>
<path opacity="0.1" d="M155.313 229.331C157.125 229.331 158.594 228.202 158.594 226.81C158.594 225.418 157.125 224.289 155.313 224.289C153.502 224.289 152.033 225.418 152.033 226.81C152.033 228.202 153.502 229.331 155.313 229.331Z" fill="black"/>
<path opacity="0.1" d="M168.084 229.331C169.896 229.331 171.364 228.202 171.364 226.81C171.364 225.418 169.896 224.289 168.084 224.289C166.272 224.289 164.803 225.418 164.803 226.81C164.803 228.202 166.272 229.331 168.084 229.331Z" fill="black"/>
<path opacity="0.1" d="M179.653 229.331C181.465 229.331 182.933 228.202 182.933 226.81C182.933 225.418 181.465 224.289 179.653 224.289C177.841 224.289 176.372 225.418 176.372 226.81C176.372 228.202 177.841 229.331 179.653 229.331Z" fill="black"/>
</g>
<path d="M100.875 229.753C102.687 229.753 104.156 228.624 104.156 227.232C104.156 225.84 102.687 224.711 100.875 224.711C99.063 224.711 97.5942 225.84 97.5942 227.232C97.5942 228.624 99.063 229.753 100.875 229.753Z" fill="#22C88A"/>
<path d="M113.112 229.652C114.924 229.652 116.393 228.523 116.393 227.131C116.393 225.739 114.924 224.61 113.112 224.61C111.3 224.61 109.832 225.739 109.832 227.131C109.832 228.523 111.3 229.652 113.112 229.652Z" fill="#22C88A"/>
<path d="M125.613 229.652C127.425 229.652 128.894 228.523 128.894 227.131C128.894 225.739 127.425 224.61 125.613 224.61C123.801 224.61 122.333 225.739 122.333 227.131C122.333 228.523 123.801 229.652 125.613 229.652Z" fill="#22C88A"/>
<path d="M140.463 229.652C142.275 229.652 143.744 228.523 143.744 227.131C143.744 225.739 142.275 224.61 140.463 224.61C138.651 224.61 137.183 225.739 137.183 227.131C137.183 228.523 138.651 229.652 140.463 229.652Z" fill="#22C88A"/>
<path d="M155.313 229.652C157.125 229.652 158.593 228.523 158.593 227.131C158.593 225.739 157.125 224.61 155.313 224.61C153.501 224.61 152.032 225.739 152.032 227.131C152.032 228.523 153.501 229.652 155.313 229.652Z" fill="#22C88A"/>
<path d="M168.084 229.652C169.896 229.652 171.364 228.523 171.364 227.131C171.364 225.739 169.896 224.61 168.084 224.61C166.272 224.61 164.803 225.739 164.803 227.131C164.803 228.523 166.272 229.652 168.084 229.652Z" fill="#22C88A"/>
<path d="M179.653 229.652C181.465 229.652 182.933 228.523 182.933 227.131C182.933 225.739 181.465 224.61 179.653 224.61C177.841 224.61 176.372 225.739 176.372 227.131C176.372 228.523 177.841 229.652 179.653 229.652Z" fill="#22C88A"/>
<path opacity="0.5" d="M110.861 185.688C112.553 185.688 113.924 184.313 113.924 182.618C113.924 180.922 112.553 179.547 110.861 179.547C109.169 179.547 107.797 180.922 107.797 182.618C107.797 184.313 109.169 185.688 110.861 185.688Z" fill="#22C88A"/>
<path opacity="0.5" d="M148.297 185.528C149.989 185.528 151.36 184.154 151.36 182.458C151.36 180.762 149.989 179.388 148.297 179.388C146.605 179.388 145.233 180.762 145.233 182.458C145.233 184.154 146.605 185.528 148.297 185.528Z" fill="#22C88A"/>
<path opacity="0.5" d="M129.367 181.742C131.059 181.742 132.431 180.367 132.431 178.671C132.431 176.976 131.059 175.601 129.367 175.601C127.675 175.601 126.304 176.976 126.304 178.671C126.304 180.367 127.675 181.742 129.367 181.742Z" fill="#22C88A"/>
<path opacity="0.5" d="M167.24 181.742C168.932 181.742 170.303 180.367 170.303 178.671C170.303 176.976 168.932 175.601 167.24 175.601C165.548 175.601 164.176 176.976 164.176 178.671C164.176 180.367 165.548 181.742 167.24 181.742Z" fill="#22C88A"/>
<path opacity="0.1" d="M189.231 228.386L171.099 229.312C166.01 229.571 160.914 229.832 155.82 229.732C151.516 229.646 147.212 229.307 142.907 229.17C133.857 228.888 124.782 229.52 115.757 228.795C112.867 228.562 109.989 228.192 107.096 228.027C103.841 227.851 100.578 227.923 97.3341 228.241C96.6398 228.307 95.5712 228.656 94.9012 228.519C94.177 228.371 94.454 228.288 94.6898 227.6C94.7634 227.396 94.8258 227.188 94.8769 226.977H188.874C189.033 227.436 189.152 227.907 189.231 228.386Z" fill="black"/>
<path d="M92.5318 227.131H190.288C191.132 227.131 191.941 227.467 192.538 228.065C193.135 228.663 193.47 229.474 193.47 230.319V230.732H89.3447V230.319C89.3447 229.9 89.4272 229.485 89.5874 229.098C89.7477 228.711 89.9825 228.359 90.2785 228.063C90.5746 227.767 90.9259 227.532 91.3126 227.372C91.6992 227.212 92.1135 227.13 92.5318 227.131Z" fill="#D4D5E0"/>
<path d="M116.686 143.47L116.623 143.451C116.485 143.41 116.339 143.488 116.298 143.626L115.978 144.685C115.937 144.823 116.015 144.969 116.153 145.011L116.216 145.03C116.354 145.071 116.499 144.993 116.541 144.855L116.86 143.796C116.902 143.658 116.824 143.512 116.686 143.47Z" fill="#22C88A"/>
<path d="M108.065 166.643L108.002 166.624C107.864 166.583 107.719 166.661 107.678 166.799L107.362 167.855C107.32 167.993 107.398 168.139 107.536 168.18L107.599 168.199C107.736 168.24 107.881 168.162 107.923 168.024L108.239 166.968C108.28 166.83 108.202 166.685 108.065 166.643Z" fill="#22C88A"/>
<path d="M98.9335 193.892L98.8707 193.874C98.7331 193.832 98.5881 193.91 98.5468 194.048L98.2304 195.105C98.1891 195.242 98.2671 195.388 98.4047 195.429L98.4675 195.448C98.6051 195.489 98.7501 195.411 98.7914 195.273L99.1078 194.217C99.1491 194.079 99.0711 193.934 98.9335 193.892Z" fill="#22C88A"/>
<path d="M121.769 195.702L121.707 195.683C121.569 195.641 121.424 195.72 121.383 195.858L121.066 196.914C121.025 197.052 121.103 197.197 121.241 197.239L121.303 197.257C121.441 197.299 121.586 197.221 121.627 197.083L121.944 196.026C121.985 195.888 121.907 195.743 121.769 195.702Z" fill="#22C88A"/>
<path d="M135.329 194.68L135.266 194.661C135.129 194.619 134.984 194.698 134.942 194.836L134.626 195.892C134.585 196.03 134.663 196.175 134.8 196.217L134.863 196.235C135.001 196.277 135.146 196.199 135.187 196.061L135.503 195.004C135.545 194.867 135.467 194.721 135.329 194.68Z" fill="#22C88A"/>
<path d="M154.439 196.748L154.377 196.729C154.239 196.688 154.094 196.766 154.053 196.904L153.736 197.96C153.695 198.098 153.773 198.243 153.911 198.285L153.973 198.304C154.111 198.345 154.256 198.267 154.297 198.129L154.614 197.073C154.655 196.935 154.577 196.789 154.439 196.748Z" fill="#22C88A"/>
<path d="M167.512 193.725L167.449 193.706C167.312 193.665 167.167 193.743 167.125 193.881L166.809 194.937C166.768 195.075 166.846 195.221 166.983 195.262L167.046 195.281C167.184 195.322 167.329 195.244 167.37 195.106L167.686 194.05C167.728 193.912 167.65 193.767 167.512 193.725Z" fill="#22C88A"/>
<path d="M110.103 195.017L110.041 194.998C109.903 194.957 109.758 195.035 109.717 195.173L109.4 196.229C109.359 196.367 109.437 196.512 109.575 196.554L109.637 196.573C109.775 196.614 109.92 196.536 109.961 196.398L110.278 195.342C110.319 195.204 110.241 195.058 110.103 195.017Z" fill="#22C88A"/>
<path d="M137.817 197.763L137.754 197.744C137.616 197.702 137.471 197.781 137.43 197.919L137.114 198.975C137.072 199.113 137.15 199.258 137.288 199.3L137.351 199.318C137.488 199.36 137.633 199.282 137.675 199.144L137.991 198.087C138.032 197.949 137.954 197.804 137.817 197.763Z" fill="#22C88A"/>
<path d="M149.252 194.68L149.189 194.661C149.051 194.62 148.906 194.698 148.865 194.836L148.549 195.892C148.507 196.03 148.585 196.176 148.723 196.217L148.786 196.236C148.923 196.277 149.068 196.199 149.11 196.061L149.426 195.005C149.467 194.867 149.389 194.722 149.252 194.68Z" fill="#22C88A"/>
<path d="M173.404 193.725L173.341 193.707C173.203 193.665 173.058 193.743 173.017 193.881L172.701 194.938C172.659 195.075 172.737 195.221 172.875 195.262L172.938 195.281C173.075 195.323 173.22 195.244 173.262 195.106L173.578 194.05C173.619 193.912 173.541 193.767 173.404 193.725Z" fill="#22C88A"/>
<path d="M145.672 143.06L145.634 143.112C145.548 143.228 145.573 143.392 145.689 143.477L146.576 144.13C146.691 144.216 146.854 144.191 146.939 144.075L146.978 144.022C147.063 143.906 147.038 143.743 146.923 143.657L146.036 143.004C145.92 142.919 145.758 142.944 145.672 143.06Z" fill="#22C88A"/>
<path d="M138.551 142.525L138.513 142.578C138.427 142.694 138.452 142.857 138.568 142.943L139.454 143.596C139.57 143.681 139.733 143.656 139.818 143.54L139.857 143.488C139.942 143.372 139.917 143.208 139.801 143.123L138.915 142.47C138.799 142.384 138.636 142.409 138.551 142.525Z" fill="#22C88A"/>
<path d="M126.988 142.527L126.95 142.58C126.864 142.696 126.889 142.859 127.005 142.944L127.891 143.598C128.007 143.683 128.17 143.658 128.255 143.542L128.294 143.489C128.379 143.373 128.354 143.21 128.238 143.125L127.352 142.471C127.236 142.386 127.073 142.411 126.988 142.527Z" fill="#22C88A"/>
<path d="M111.585 166.127L111.547 166.18C111.462 166.296 111.486 166.459 111.602 166.545L112.489 167.198C112.604 167.283 112.767 167.258 112.852 167.142L112.891 167.089C112.976 166.973 112.951 166.81 112.836 166.725L111.949 166.072C111.833 165.986 111.671 166.011 111.585 166.127Z" fill="#22C88A"/>
<path d="M112.463 168.511L112.424 168.564C112.339 168.68 112.364 168.843 112.48 168.929L113.366 169.582C113.482 169.667 113.645 169.643 113.73 169.527L113.769 169.474C113.854 169.358 113.829 169.194 113.713 169.109L112.827 168.456C112.711 168.37 112.548 168.395 112.463 168.511Z" fill="#22C88A"/>
<path d="M131.472 166.317L131.433 166.37C131.348 166.486 131.373 166.649 131.489 166.735L132.375 167.388C132.491 167.473 132.654 167.448 132.739 167.332L132.778 167.28C132.863 167.164 132.838 167 132.722 166.915L131.836 166.262C131.72 166.176 131.557 166.201 131.472 166.317Z" fill="#22C88A"/>
<path d="M123.931 197.346L123.892 197.399C123.807 197.515 123.832 197.678 123.948 197.763L124.834 198.417C124.95 198.502 125.113 198.477 125.198 198.361L125.237 198.308C125.322 198.192 125.297 198.029 125.181 197.944L124.295 197.291C124.179 197.205 124.016 197.23 123.931 197.346Z" fill="#22C88A"/>
<path d="M152.059 167.546L152.02 167.599C151.935 167.715 151.96 167.878 152.076 167.964L152.962 168.617C153.078 168.702 153.241 168.677 153.326 168.561L153.365 168.509C153.45 168.393 153.425 168.229 153.309 168.144L152.423 167.491C152.307 167.405 152.144 167.43 152.059 167.546Z" fill="#22C88A"/>
<path d="M160.524 168.673L160.486 168.726C160.401 168.842 160.425 169.005 160.541 169.091L161.428 169.744C161.543 169.829 161.706 169.804 161.791 169.688L161.83 169.635C161.915 169.519 161.89 169.356 161.775 169.271L160.888 168.618C160.772 168.532 160.61 168.557 160.524 168.673Z" fill="#22C88A"/>
<path d="M157.962 194.006L157.923 194.058C157.838 194.174 157.863 194.338 157.979 194.423L158.865 195.076C158.981 195.162 159.144 195.137 159.229 195.021L159.268 194.968C159.353 194.852 159.328 194.689 159.212 194.603L158.326 193.95C158.21 193.865 158.047 193.89 157.962 194.006Z" fill="#22C88A"/>
<path d="M175.414 197.022L175.375 197.074C175.29 197.19 175.315 197.354 175.43 197.439L176.317 198.092C176.433 198.178 176.595 198.153 176.68 198.037L176.719 197.984C176.804 197.868 176.78 197.705 176.664 197.619L175.777 196.966C175.662 196.881 175.499 196.906 175.414 197.022Z" fill="#22C88A"/>
<path d="M116.229 195.293L116.19 195.346C116.105 195.462 116.129 195.625 116.245 195.71L117.132 196.364C117.247 196.449 117.41 196.424 117.495 196.308L117.534 196.255C117.619 196.139 117.594 195.976 117.479 195.891L116.592 195.238C116.476 195.152 116.314 195.177 116.229 195.293Z" fill="#22C88A"/>
<path d="M103.523 194.166L103.484 194.219C103.399 194.335 103.423 194.498 103.539 194.583L104.426 195.236C104.541 195.322 104.704 195.297 104.789 195.181L104.828 195.128C104.913 195.012 104.888 194.849 104.773 194.763L103.886 194.11C103.77 194.025 103.608 194.05 103.523 194.166Z" fill="#22C88A"/>
<path d="M128.736 196.139L128.698 196.192C128.612 196.308 128.637 196.471 128.753 196.557L129.64 197.21C129.755 197.295 129.918 197.271 130.003 197.155L130.042 197.102C130.127 196.986 130.102 196.823 129.987 196.737L129.1 196.084C128.984 195.999 128.821 196.023 128.736 196.139Z" fill="#22C88A"/>
<path d="M142.34 195.295L142.301 195.348C142.216 195.464 142.241 195.627 142.357 195.712L143.243 196.366C143.359 196.451 143.522 196.426 143.607 196.31L143.646 196.257C143.731 196.141 143.706 195.978 143.59 195.893L142.704 195.239C142.588 195.154 142.425 195.179 142.34 195.295Z" fill="#22C88A"/>
<path d="M160.797 143.84L160.759 143.787C160.676 143.669 160.513 143.641 160.396 143.725L159.498 144.362C159.381 144.445 159.353 144.608 159.436 144.726L159.474 144.779C159.557 144.897 159.72 144.924 159.837 144.841L160.735 144.204C160.852 144.12 160.88 143.958 160.797 143.84Z" fill="#22C88A"/>
<path d="M145.796 146.052L145.758 145.998C145.675 145.881 145.512 145.853 145.395 145.936L144.497 146.574C144.38 146.657 144.352 146.82 144.435 146.938L144.473 146.991C144.556 147.109 144.719 147.136 144.836 147.053L145.734 146.415C145.851 146.332 145.879 146.17 145.796 146.052Z" fill="#22C88A"/>
<path d="M120.98 167.827L120.942 167.773C120.859 167.656 120.696 167.628 120.579 167.711L119.681 168.349C119.564 168.432 119.536 168.595 119.62 168.712L119.657 168.766C119.74 168.883 119.903 168.911 120.02 168.828L120.918 168.19C121.035 168.107 121.063 167.944 120.98 167.827Z" fill="#22C88A"/>
<path d="M128.481 168.567L128.443 168.514C128.36 168.396 128.198 168.369 128.081 168.452L127.183 169.089C127.066 169.173 127.038 169.335 127.121 169.453L127.159 169.506C127.242 169.624 127.404 169.652 127.521 169.568L128.419 168.931C128.537 168.848 128.564 168.685 128.481 168.567Z" fill="#22C88A"/>
<path d="M142.984 168.566L142.946 168.513C142.863 168.395 142.701 168.368 142.584 168.451L141.686 169.088C141.569 169.172 141.541 169.334 141.624 169.452L141.662 169.505C141.745 169.623 141.907 169.651 142.024 169.567L142.922 168.93C143.04 168.847 143.067 168.684 142.984 168.566Z" fill="#22C88A"/>
<path d="M147.52 167.026L147.482 166.973C147.399 166.855 147.237 166.827 147.119 166.911L146.221 167.548C146.104 167.631 146.077 167.794 146.16 167.912L146.197 167.965C146.281 168.083 146.443 168.11 146.56 168.027L147.458 167.39C147.575 167.306 147.603 167.144 147.52 167.026Z" fill="#22C88A"/>
<path d="M158.25 167.602L158.212 167.548C158.129 167.431 157.966 167.403 157.849 167.486L156.951 168.124C156.834 168.207 156.806 168.37 156.89 168.488L156.927 168.541C157.01 168.659 157.173 168.686 157.29 168.603L158.188 167.965C158.305 167.882 158.333 167.72 158.25 167.602Z" fill="#22C88A"/>
<path d="M166.08 166.374L166.042 166.32C165.959 166.202 165.797 166.175 165.679 166.258L164.782 166.896C164.664 166.979 164.637 167.142 164.72 167.259L164.758 167.313C164.841 167.43 165.003 167.458 165.12 167.375L166.018 166.737C166.135 166.654 166.163 166.491 166.08 166.374Z" fill="#22C88A"/>
<path d="M176.712 167.027L176.674 166.974C176.591 166.856 176.429 166.828 176.312 166.912L175.414 167.549C175.297 167.633 175.269 167.795 175.352 167.913L175.39 167.966C175.473 168.084 175.635 168.112 175.752 168.028L176.65 167.391C176.768 167.307 176.795 167.145 176.712 167.027Z" fill="#22C88A"/>
<path d="M143.683 141.916L143.62 141.897C143.483 141.855 143.338 141.934 143.296 142.072L142.98 143.128C142.939 143.266 143.017 143.411 143.154 143.453L143.217 143.471C143.355 143.513 143.5 143.435 143.541 143.297L143.857 142.24C143.899 142.102 143.821 141.957 143.683 141.916Z" fill="#22C88A"/>
<path d="M152.476 141.525L152.414 141.506C152.276 141.465 152.131 141.543 152.09 141.681L151.773 142.737C151.732 142.875 151.81 143.02 151.948 143.062L152.01 143.081C152.148 143.122 152.293 143.044 152.334 142.906L152.651 141.849C152.692 141.712 152.614 141.566 152.476 141.525Z" fill="#22C88A"/>
<path d="M140.406 145.087L140.343 145.068C140.206 145.027 140.061 145.105 140.019 145.243L139.703 146.299C139.662 146.437 139.74 146.582 139.877 146.624L139.94 146.643C140.078 146.684 140.223 146.606 140.264 146.468L140.58 145.412C140.622 145.274 140.544 145.128 140.406 145.087Z" fill="#22C88A"/>
<path d="M123.204 145.719L123.141 145.7C123.004 145.659 122.859 145.737 122.817 145.875L122.501 146.931C122.46 147.069 122.538 147.215 122.675 147.256L122.738 147.275C122.876 147.316 123.021 147.238 123.062 147.1L123.378 146.044C123.42 145.906 123.342 145.761 123.204 145.719Z" fill="#22C88A"/>
<path d="M153.825 144.297L153.762 144.278C153.624 144.236 153.479 144.315 153.438 144.453L153.122 145.509C153.08 145.647 153.158 145.792 153.296 145.834L153.359 145.852C153.496 145.894 153.641 145.816 153.683 145.678L153.999 144.621C154.04 144.484 153.962 144.338 153.825 144.297Z" fill="#22C88A"/>
<path d="M121.768 141.917L121.705 141.898C121.568 141.857 121.423 141.935 121.381 142.073L121.065 143.129C121.024 143.267 121.102 143.413 121.239 143.454L121.302 143.473C121.44 143.514 121.585 143.436 121.626 143.298L121.942 142.242C121.984 142.104 121.906 141.959 121.768 141.917Z" fill="#22C88A"/>
<path d="M130.803 143.508L130.74 143.489C130.603 143.448 130.458 143.526 130.416 143.664L130.1 144.72C130.059 144.858 130.137 145.004 130.274 145.045L130.337 145.064C130.475 145.105 130.62 145.027 130.661 144.889L130.977 143.833C131.019 143.695 130.941 143.55 130.803 143.508Z" fill="#22C88A"/>
<path d="M125.285 166.642L125.222 166.623C125.084 166.582 124.939 166.66 124.898 166.798L124.581 167.854C124.54 167.992 124.618 168.138 124.756 168.179L124.819 168.198C124.956 168.239 125.101 168.161 125.142 168.023L125.459 166.967C125.5 166.829 125.422 166.684 125.285 166.642Z" fill="#22C88A"/>
<path d="M138.783 166.642L138.72 166.623C138.582 166.581 138.437 166.66 138.396 166.797L138.08 167.854C138.038 167.992 138.116 168.137 138.254 168.178L138.317 168.197C138.454 168.239 138.599 168.16 138.641 168.023L138.957 166.966C138.998 166.828 138.92 166.683 138.783 166.642Z" fill="#22C88A"/>
<path d="M170.276 167.815L170.214 167.796C170.076 167.754 169.93 167.832 169.888 167.97L169.569 169.029C169.528 169.167 169.606 169.313 169.744 169.355L169.806 169.374C169.944 169.416 170.09 169.338 170.132 169.199L170.451 168.141C170.492 168.002 170.414 167.856 170.276 167.815Z" fill="#22C88A"/>
<path d="M173.403 167.268L173.34 167.249C173.202 167.207 173.057 167.286 173.016 167.424L172.7 168.48C172.658 168.618 172.736 168.763 172.874 168.805L172.937 168.823C173.074 168.865 173.219 168.787 173.261 168.649L173.577 167.592C173.618 167.455 173.54 167.309 173.403 167.268Z" fill="#22C88A"/>
<path d="M134.409 145.72L134.346 145.701C134.209 145.66 134.064 145.738 134.022 145.876L133.706 146.932C133.665 147.07 133.743 147.216 133.88 147.257L133.943 147.276C134.081 147.317 134.226 147.239 134.267 147.101L134.583 146.045C134.625 145.907 134.547 145.762 134.409 145.72Z" fill="#22C88A"/>
<path opacity="0.1" d="M66.2361 231.396C69.1921 231.396 71.5884 231.152 71.5884 230.852C71.5884 230.552 69.1921 230.308 66.2361 230.308C63.2801 230.308 60.8838 230.552 60.8838 230.852C60.8838 231.152 63.2801 231.396 66.2361 231.396Z" fill="#22C88A"/>
<path opacity="0.1" d="M51.8318 244.998C54.7878 244.998 57.1841 244.754 57.1841 244.454C57.1841 244.153 54.7878 243.91 51.8318 243.91C48.8758 243.91 46.4795 244.153 46.4795 244.454C46.4795 244.754 48.8758 244.998 51.8318 244.998Z" fill="#22C88A"/>
<path opacity="0.1" d="M198.914 243.366C201.87 243.366 204.266 243.122 204.266 242.822C204.266 242.522 201.87 242.278 198.914 242.278C195.958 242.278 193.562 242.522 193.562 242.822C193.562 243.122 195.958 243.366 198.914 243.366Z" fill="#22C88A"/>
<path opacity="0.1" d="M185.906 249.122C188.862 249.122 191.258 248.879 191.258 248.578C191.258 248.278 188.862 248.034 185.906 248.034C182.95 248.034 180.553 248.278 180.553 248.578C180.553 248.879 182.95 249.122 185.906 249.122Z" fill="#22C88A"/>
<path opacity="0.1" d="M170.52 239.831C173.476 239.831 175.873 239.587 175.873 239.287C175.873 238.986 173.476 238.743 170.52 238.743C167.564 238.743 165.168 238.986 165.168 239.287C165.168 239.587 167.564 239.831 170.52 239.831Z" fill="#22C88A"/>
<path opacity="0.1" d="M146.302 252.45C149.258 252.45 151.654 252.206 151.654 251.906C151.654 251.605 149.258 251.362 146.302 251.362C143.346 251.362 140.95 251.605 140.95 251.906C140.95 252.206 143.346 252.45 146.302 252.45Z" fill="#22C88A"/>
<g opacity="0.1">
<path opacity="0.1" d="M111.759 183.977C111.726 183.859 111.688 183.741 111.647 183.625C111.681 183.741 111.72 183.859 111.759 183.977Z" fill="black"/>
<path opacity="0.1" d="M120.903 181.352C120.912 181.447 120.907 181.543 120.89 181.637C120.808 182.061 120.495 182.387 120.25 182.73C119.681 183.525 119.377 184.479 119.38 185.457C119.38 186.198 119.567 186.941 119.481 187.678C119.395 188.415 118.919 189.191 118.182 189.278C117.912 189.31 117.594 189.257 117.403 189.452C117.328 189.54 117.277 189.646 117.254 189.76C117.042 190.576 117.323 191.429 117.372 192.271C117.428 193.314 117.124 194.344 116.509 195.188C116.264 195.54 115.945 195.832 115.573 196.045C115 196.356 114.327 196.384 113.668 196.356C111.928 196.296 110.077 195.848 108.915 194.556C108.882 194.633 108.872 194.717 108.885 194.8C108.914 194.912 108.973 195.014 109.055 195.096C110.213 196.437 112.1 196.898 113.868 196.958C114.519 196.981 115.203 196.958 115.775 196.641C116.147 196.43 116.467 196.138 116.711 195.786C117.326 194.942 117.631 193.911 117.574 192.868C117.527 192.026 117.244 191.18 117.456 190.358C117.478 190.244 117.531 190.138 117.607 190.051C117.795 189.863 118.115 189.906 118.384 189.874C119.119 189.79 119.595 189.011 119.683 188.274C119.771 187.537 119.587 186.796 119.582 186.054C119.578 185.073 119.884 184.117 120.456 183.321C120.701 182.981 121.017 182.651 121.096 182.227C121.142 181.922 121.073 181.61 120.903 181.352Z" fill="black"/>
</g>
<path d="M53.7015 235.487C53.7015 235.487 46.7229 239.099 50.3329 243.364C50.3329 243.364 50.6735 244.302 51.6542 244.223C51.6542 244.223 51.4577 243.865 52.2156 243.58C52.4798 243.476 52.731 243.341 52.9642 243.178C53.2813 242.959 53.5185 242.641 53.6398 242.274C53.6398 242.274 55.0677 240.359 53.9617 236.816C53.9617 236.816 54.1039 235.815 53.9785 235.654L53.1307 236.813C53.1307 236.813 54.0084 237.402 54.1076 238.268C54.1076 238.268 53.1944 236.815 52.9979 236.98C52.9567 237.013 52.5749 237.617 52.5749 237.617C52.5749 237.617 54.0945 238.651 54.2087 239.992C54.2087 239.992 53.3516 238.116 52.4289 237.844L51.9068 238.782C51.9068 238.782 53.5668 239.795 53.7539 241.318C53.7539 241.318 52.7901 239.386 51.8058 238.996L51.4165 239.996C51.4165 239.996 53.0166 241.016 53.1644 242.284C53.1644 242.284 51.8263 240.164 51.3435 240.23C51.3435 240.23 51.0422 241.168 51.0834 241.459C51.0834 241.459 52.2062 242.209 52.2343 242.959C52.2343 242.959 51.1901 241.646 51.0291 241.725C51.0291 241.725 50.9617 243.053 51.2836 243.745C51.2836 243.745 50.7353 242.758 50.8214 241.725C50.4977 242.012 50.2648 242.387 50.1514 242.805C50.1514 242.805 49.8501 242.074 50.842 241.402C50.842 241.402 50.9355 240.369 51.0497 240.241C51.0497 240.241 49.9774 240.765 49.5226 241.41C49.5226 241.41 49.691 240.45 51.1433 239.973L51.5176 238.96C51.5176 238.96 50.0653 239.577 49.618 240.121C49.618 240.121 49.9399 239.168 51.6317 238.713L52.1351 237.775C52.1351 237.775 50.842 238.21 50.2132 238.713C50.2132 238.713 50.7016 237.895 52.2886 237.518L52.6966 236.935C52.6966 236.935 51.7608 237.27 51.4988 237.39C51.2368 237.51 51.1844 237.45 51.1844 237.45C51.6643 237.044 52.2475 236.78 52.8687 236.687C52.8687 236.687 53.767 235.556 53.7015 235.487Z" fill="#22C88A"/>
<path d="M171.722 230.621C171.722 230.621 164.741 234.236 168.353 238.499C168.353 238.499 168.692 239.437 169.674 239.358C169.674 239.358 169.478 239 170.236 238.715C170.5 238.61 170.751 238.476 170.984 238.313C171.302 238.093 171.539 237.775 171.66 237.407C171.66 237.407 173.088 235.494 171.982 231.951C171.982 231.951 172.124 230.95 171.999 230.788L171.151 231.953C171.151 231.953 172.029 232.544 172.128 233.41C172.128 233.41 171.215 231.957 171.016 232.122C170.977 232.156 170.595 232.76 170.595 232.76C170.595 232.76 172.115 233.791 172.229 235.134C172.229 235.134 171.372 233.258 170.447 232.987L169.908 233.928C169.908 233.928 171.568 234.941 171.757 236.464C171.757 236.464 170.794 234.53 169.809 234.142L169.42 235.142C169.42 235.142 171.02 236.162 171.168 237.43C171.168 237.43 169.828 235.309 169.347 235.367C169.347 235.367 169.046 236.304 169.085 236.595C169.085 236.595 170.217 237.345 170.238 238.096C170.238 238.096 169.193 236.773 169.033 236.861C169.033 236.861 168.965 238.189 169.287 238.88C169.287 238.88 168.737 237.895 168.825 236.861C168.501 237.148 168.268 237.524 168.155 237.942C168.155 237.942 167.854 237.21 168.845 236.539C168.845 236.539 168.939 235.505 169.053 235.378C169.053 235.378 167.981 235.901 167.526 236.546C167.526 236.546 167.693 235.586 169.147 235.11L169.521 234.097C169.521 234.097 168.069 234.714 167.621 235.258C167.621 235.258 167.943 234.305 169.635 233.849L170.137 232.912C170.137 232.912 168.845 233.347 168.217 233.849C168.217 233.849 168.705 233.03 170.292 232.655L170.7 232.071C170.7 232.071 169.764 232.407 169.502 232.527C169.24 232.647 169.188 232.587 169.188 232.587C169.667 232.18 170.251 231.916 170.872 231.824C170.872 231.824 171.78 230.68 171.722 230.621Z" fill="#22C88A"/>
<path d="M201.371 233.78C201.371 233.78 194.39 237.394 198.002 241.657C198.002 241.657 198.341 242.595 199.323 242.516C199.323 242.516 199.136 242.158 199.885 241.871C200.149 241.767 200.4 241.633 200.633 241.47C200.951 241.25 201.188 240.933 201.309 240.566C201.309 240.566 202.737 238.651 201.629 235.11C201.629 235.11 201.773 234.108 201.648 233.947L200.787 235.106C200.787 235.106 201.663 235.697 201.764 236.561C201.764 236.561 200.85 235.108 200.652 235.273C200.613 235.307 200.231 235.911 200.231 235.911C200.231 235.911 201.751 236.944 201.865 238.285C201.865 238.285 201.008 236.409 200.083 236.139L199.561 237.077C199.561 237.077 201.221 238.09 201.408 239.613C201.408 239.613 200.444 237.681 199.462 237.293L199.073 238.293C199.073 238.293 200.673 239.311 200.821 240.579C200.821 240.579 199.481 238.459 199 238.527C199 238.527 198.698 239.465 198.738 239.754C198.738 239.754 199.86 240.513 199.89 241.254C199.89 241.254 198.846 239.932 198.685 240.018C198.685 240.018 198.618 241.348 198.94 242.038C198.94 242.038 198.39 241.052 198.477 240.018C198.154 240.305 197.921 240.68 197.807 241.098C197.807 241.098 197.506 240.367 198.498 239.697C198.498 239.697 198.592 238.664 198.704 238.536C198.704 238.536 197.633 239.06 197.179 239.703C197.179 239.703 197.345 238.745 198.797 238.268L199.172 237.255C199.172 237.255 197.72 237.872 197.27 238.416C197.27 238.416 197.592 237.464 199.286 237.006L199.787 236.068C199.787 236.068 198.496 236.505 197.867 237.006C197.867 237.006 198.356 236.188 199.943 235.813L200.351 235.228C200.351 235.228 199.415 235.564 199.151 235.685C198.887 235.807 198.837 235.746 198.837 235.746C199.316 235.338 199.899 235.073 200.521 234.98C200.521 234.98 201.434 233.842 201.371 233.78Z" fill="#22C88A"/>
<defs>
<linearGradient id="paint0_linear" x1="54.0603" y1="189.251" x2="74.6437" y2="189.251" gradientUnits="userSpaceOnUse">
<stop stop-color="#808080" stop-opacity="0.25"/>
<stop offset="0.54" stop-color="#808080" stop-opacity="0.12"/>
<stop offset="1" stop-color="#808080" stop-opacity="0.1"/>
</linearGradient>
<linearGradient id="paint1_linear" x1="3766.68" y1="29974.6" x2="3980.87" y2="29974.6" gradientUnits="userSpaceOnUse">
<stop stop-color="#808080" stop-opacity="0.25"/>
<stop offset="0.54" stop-color="#808080" stop-opacity="0.12"/>
<stop offset="1" stop-color="#808080" stop-opacity="0.1"/>
</linearGradient>
<linearGradient id="paint2_linear" x1="4397.45" y1="21579" x2="4596.54" y2="21579" gradientUnits="userSpaceOnUse">
<stop stop-color="#808080" stop-opacity="0.25"/>
<stop offset="0.54" stop-color="#808080" stop-opacity="0.12"/>
<stop offset="1" stop-color="#808080" stop-opacity="0.1"/>
</linearGradient>
<linearGradient id="paint3_linear" x1="58912.6" y1="37552.9" x2="58912.6" y2="7156.48" gradientUnits="userSpaceOnUse">
<stop stop-color="#808080" stop-opacity="0.25"/>
<stop offset="0.54" stop-color="#808080" stop-opacity="0.12"/>
<stop offset="1" stop-color="#808080" stop-opacity="0.1"/>
</linearGradient>
<linearGradient id="paint4_linear" x1="15307" y1="7827.35" x2="15307" y2="6869.53" gradientUnits="userSpaceOnUse">
<stop stop-color="#808080" stop-opacity="0.25"/>
<stop offset="0.54" stop-color="#808080" stop-opacity="0.12"/>
<stop offset="1" stop-color="#808080" stop-opacity="0.1"/>
</linearGradient>
<linearGradient id="paint5_linear" x1="24851" y1="31047.9" x2="24851" y2="20894.8" gradientUnits="userSpaceOnUse">
<stop stop-color="#808080" stop-opacity="0.25"/>
<stop offset="0.54" stop-color="#808080" stop-opacity="0.12"/>
<stop offset="1" stop-color="#808080" stop-opacity="0.1"/>
</linearGradient>
<clipPath id="clip0">
<rect width="149" height="129" fill="white" transform="translate(0 102)"/>
</clipPath>
</defs>
</svg>
