<svg width="304" height="258" viewBox="0 0 304 258" fill="none" xmlns="http://www.w3.org/2000/svg">
<path opacity="0.1" d="M100.407 172.306C105.412 189.685 120.763 202.628 136.189 211.625C184.642 239.879 240.48 242.237 292.321 237.477C311.091 235.753 330.079 233.088 346.239 224.362C379.134 206.603 395.132 162.598 383.284 122.412C379.258 108.744 372.46 95.8352 365.023 83.4646C351.8 61.4651 336.098 40.4718 316.389 24.4979C302.326 13.1131 286.561 4.52817 270.57 -2.93331C225.9 -23.7625 177.996 -36.4751 131.486 -34.9672C111.087 -34.3052 90.2176 -30.5401 75.2212 -17.6585C60.2248 -4.77692 52.9592 19.2391 62.9749 39.2586C67.1167 47.5346 73.6812 54.3516 80.1435 60.9501C89.6601 70.6642 99.3685 80.4546 106.436 92.1345C113.731 104.206 120.209 122.578 111.948 133.289C103.056 144.758 95.4086 154.95 100.407 172.306Z" fill="#22C88A"/>
<g clip-path="url(#clip0)">
<path d="M46.5156 140.991C46.5156 140.991 38.3608 148.707 29.6086 148.936C25.9333 149.01 22.3809 150.277 19.4849 152.546C18.116 153.631 16.8492 154.84 15.7002 156.156" stroke="#535461" stroke-width="2" stroke-miterlimit="10"/>
<path d="M10.1812 156.346C11.3568 155.747 15.8439 156.144 15.8439 156.144C15.8439 156.144 13.5167 160.013 12.3412 160.612C12.0596 160.779 11.7468 160.887 11.4221 160.928C11.0974 160.969 10.7677 160.943 10.4535 160.851C10.1393 160.759 9.84731 160.603 9.5956 160.394C9.34389 160.184 9.13783 159.925 8.99022 159.632C8.84261 159.339 8.75658 159.019 8.73747 158.691C8.71837 158.364 8.76659 158.036 8.87916 157.728C8.99172 157.419 9.16622 157.138 9.39184 156.9C9.61746 156.662 9.88939 156.474 10.1908 156.346H10.1812Z" fill="#22C88A"/>
<path d="M14.9048 149.507C16.2166 149.646 19.7672 152.424 19.7672 152.424C19.7672 152.424 15.7053 154.403 14.4055 154.266C13.7973 154.174 13.2481 153.851 12.8719 153.363C12.4958 152.875 12.3218 152.26 12.3862 151.647C12.4505 151.034 12.7482 150.469 13.2173 150.071C13.6865 149.672 14.2909 149.47 14.9048 149.507Z" fill="#22C88A"/>
<path d="M26.106 143.995C27.1668 144.778 28.8346 148.975 28.8346 148.975C28.8346 148.975 24.3402 148.632 23.2794 147.851C22.8012 147.464 22.4903 146.907 22.4114 146.296C22.3325 145.684 22.4915 145.066 22.8555 144.57C23.2195 144.073 23.7604 143.736 24.3658 143.629C24.9712 143.522 25.5944 143.653 26.106 143.995Z" fill="#22C88A"/>
<path d="M35.5175 141.741C36.6955 142.332 39.0466 146.186 39.0466 146.186C39.0466 146.186 34.5594 146.61 33.3814 146.019C33.0842 145.889 32.8165 145.699 32.5947 145.462C32.3729 145.225 32.2015 144.945 32.0911 144.639C31.9806 144.334 31.9334 144.009 31.9523 143.684C31.9712 143.359 32.0558 143.042 32.201 142.751C32.3461 142.461 32.5488 142.202 32.7967 141.993C33.0445 141.783 33.3324 141.626 33.6427 141.532C33.953 141.437 34.2792 141.407 34.6015 141.443C34.9238 141.479 35.2355 141.58 35.5175 141.741Z" fill="#22C88A"/>
<path d="M22.264 156.786C22.6559 155.524 21.509 151.155 21.509 151.155C21.509 151.155 18.097 154.106 17.7052 155.368C17.5947 155.673 17.5471 155.997 17.5653 156.321C17.5834 156.644 17.6669 156.961 17.8107 157.251C17.9544 157.542 18.1555 157.8 18.4016 158.01C18.6478 158.22 18.934 158.378 19.2428 158.474C19.5516 158.57 19.8767 158.603 20.1983 158.569C20.5199 158.535 20.8314 158.437 21.1139 158.279C21.3963 158.121 21.6439 157.907 21.8416 157.651C22.0393 157.394 22.183 157.1 22.264 156.786Z" fill="#22C88A"/>
<path d="M33.2378 154.001C33.2378 152.678 30.8365 148.855 30.8365 148.855C30.8365 148.855 28.4615 152.688 28.4639 154.015C28.4658 154.65 28.7193 155.259 29.1688 155.707C29.6182 156.155 30.2267 156.405 30.8604 156.403C31.4941 156.401 32.1011 156.147 32.5478 155.696C32.9945 155.246 33.2445 154.636 33.2426 154.001H33.2378Z" fill="#22C88A"/>
<path d="M43.5337 149.842C43.7535 148.539 42.0332 144.364 42.0332 144.364C42.0332 144.364 39.0441 147.746 38.8267 149.049C38.7533 149.66 38.9175 150.277 39.2853 150.77C39.6531 151.263 40.1962 151.595 40.8019 151.698C41.4075 151.8 42.0292 151.665 42.5379 151.319C43.0466 150.974 43.4032 150.446 43.5337 149.844V149.842Z" fill="#22C88A"/>
<path d="M57.1125 120.557C57.1125 120.557 47.2899 115.148 44.3702 106.862C43.1706 103.378 40.8758 100.378 37.8305 98.313C36.3773 97.3435 34.8385 96.5096 33.2334 95.8217" stroke="#535461" stroke-width="2" stroke-miterlimit="10"/>
<path d="M31.3696 90.6115C32.2991 91.5482 33.3002 95.9534 33.3002 95.9534C33.3002 95.9534 28.9134 94.9234 27.9839 93.9843C27.5735 93.5274 27.354 92.9296 27.371 92.3149C27.3881 91.7002 27.6402 91.1156 28.0753 90.6821C28.5104 90.2487 29.0951 89.9996 29.7084 89.9865C30.3216 89.9733 30.9164 90.1971 31.3696 90.6115Z" fill="#22C88A"/>
<path d="M39.3142 93.0142C39.5866 94.3077 38.0407 98.5501 38.0407 98.5501C38.0407 98.5501 34.9178 95.2947 34.6454 93.9987C34.5646 93.6853 34.5479 93.3587 34.5965 93.0387C34.6451 92.7186 34.7578 92.4118 34.928 92.1366C35.0981 91.8615 35.3221 91.6238 35.5865 91.4379C35.8508 91.252 36.15 91.1217 36.466 91.0549C36.7819 90.9882 37.1081 90.9863 37.4248 91.0495C37.7415 91.1126 38.0421 91.2395 38.3086 91.4224C38.575 91.6053 38.8017 91.8404 38.9749 92.1136C39.1482 92.3868 39.2644 92.6923 39.3166 93.0118L39.3142 93.0142Z" fill="#22C88A"/>
<path d="M47.9871 102.019C47.5713 103.272 44.0996 106.153 44.0996 106.153C44.0996 106.153 43.0435 101.762 43.4592 100.507C43.6592 99.9037 44.0901 99.4045 44.6571 99.1194C45.2242 98.8344 45.881 98.7868 46.483 98.9873C47.085 99.1877 47.5829 99.6197 47.8672 100.188C48.1515 100.757 48.1989 101.415 47.999 102.019H47.9871Z" fill="#22C88A"/>
<path d="M53.0244 110.295C52.8261 111.601 49.8896 115.029 49.8896 115.029C49.8896 115.029 48.1071 110.88 48.3054 109.574C48.3385 109.251 48.4365 108.939 48.5937 108.655C48.7508 108.372 48.9637 108.123 49.2195 107.925C49.4753 107.726 49.7686 107.582 50.0818 107.5C50.3949 107.419 50.7213 107.402 51.0411 107.45C51.361 107.499 51.6676 107.612 51.9425 107.784C52.2173 107.955 52.4547 108.18 52.6401 108.446C52.8256 108.711 52.9552 109.012 53.0213 109.33C53.0874 109.647 53.0884 109.975 53.0244 110.293V110.295Z" fill="#22C88A"/>
<path d="M34.665 102.275C35.984 102.261 39.7782 99.8221 39.7782 99.8221C39.7782 99.8221 35.929 97.4746 34.6101 97.4889C33.9764 97.4962 33.3715 97.7556 32.9286 98.21C32.4857 98.6644 32.2409 99.2766 32.2482 99.9119C32.2555 100.547 32.5142 101.154 32.9675 101.598C33.4207 102.042 34.0313 102.287 34.665 102.28V102.275Z" fill="#22C88A"/>
<path d="M40.676 111.891C41.928 111.481 44.8215 108.017 44.8215 108.017C44.8215 108.017 40.4466 106.932 39.1946 107.342C38.8856 107.43 38.5976 107.58 38.3478 107.782C38.098 107.985 37.8915 108.236 37.7406 108.52C37.5898 108.805 37.4977 109.117 37.4699 109.438C37.4421 109.759 37.4791 110.082 37.5788 110.388C37.6785 110.694 37.8387 110.977 38.05 111.22C38.2612 111.463 38.5191 111.66 38.8083 111.801C39.0974 111.941 39.4118 112.022 39.7328 112.038C40.0537 112.053 40.3745 112.004 40.676 111.893V111.891Z" fill="#22C88A"/>
<path d="M47.7968 120.433C49.1014 120.241 52.5373 117.319 52.5373 117.319C52.5373 117.319 48.4085 115.508 47.1063 115.699C46.7856 115.732 46.4749 115.83 46.1929 115.987C45.9109 116.144 45.6635 116.356 45.4655 116.611C45.2675 116.866 45.1231 117.159 45.0409 117.471C44.9587 117.784 44.9404 118.11 44.9872 118.43C45.034 118.75 45.1449 119.057 45.3131 119.332C45.4814 119.608 45.7036 119.847 45.9663 120.034C46.229 120.222 46.5269 120.354 46.8419 120.423C47.1569 120.491 47.4825 120.496 47.7992 120.435L47.7968 120.433Z" fill="#22C88A"/>
<path d="M124.71 251.801C172.48 251.801 211.205 212.976 211.205 165.084C211.205 117.192 172.48 78.3683 124.71 78.3683C76.9407 78.3683 38.2158 117.192 38.2158 165.084C38.2158 212.976 76.9407 251.801 124.71 251.801Z" fill="url(#paint0_linear)"/>
<path d="M124.709 250.363C171.687 250.363 209.77 212.183 209.77 165.084C209.77 117.986 171.687 79.8055 124.709 79.8055C77.7315 79.8055 39.6484 117.986 39.6484 165.084C39.6484 212.183 77.7315 250.363 124.709 250.363Z" fill="#22C88A"/>
<path d="M124.709 232.876C162.054 232.876 192.328 202.525 192.328 165.084C192.328 127.644 162.054 97.2925 124.709 97.2925C87.3647 97.2925 57.0908 127.644 57.0908 165.084C57.0908 202.525 87.3647 232.876 124.709 232.876Z" fill="#DDE1EC"/>
<path opacity="0.3" d="M126.621 109.27H122.798V169.157H126.621V109.27Z" fill="#535461"/>
<g opacity="0.1">
<path opacity="0.1" d="M182.771 163.647H128.771V168.438H182.771V163.647Z" fill="black"/>
<path opacity="0.1" d="M90.6476 145.723L88.4307 149.967L122.408 167.805L124.624 163.561L90.6476 145.723Z" fill="black"/>
<path opacity="0.1" d="M124.71 173.229C128.669 173.229 131.878 170.012 131.878 166.043C131.878 162.074 128.669 158.856 124.71 158.856C120.751 158.856 117.542 162.074 117.542 166.043C117.542 170.012 120.751 173.229 124.71 173.229Z" fill="black"/>
</g>
<path d="M182.771 162.689H128.771V167.48H182.771V162.689Z" fill="#535461"/>
<path d="M124.64 162.609L90.6631 144.77L88.4462 149.014L122.423 166.853L124.64 162.609Z" fill="#535461"/>
<path d="M124.71 172.271C128.669 172.271 131.878 169.053 131.878 165.084C131.878 161.115 128.669 157.898 124.71 157.898C120.751 157.898 117.542 161.115 117.542 165.084C117.542 169.053 120.751 172.271 124.71 172.271Z" fill="#535461"/>
<g opacity="0.1">
<path opacity="0.1" d="M62.3426 173.229C62.3426 135.788 92.6156 105.437 129.961 105.437C140.443 105.428 150.783 107.866 160.163 112.557C169.542 117.249 177.703 124.066 183.999 132.468C172.492 111.502 150.271 97.2925 124.705 97.2925C87.3591 97.2925 57.086 127.643 57.086 165.084C57.064 179.793 61.8355 194.106 70.6742 205.846C65.1929 195.854 62.3264 184.632 62.3426 173.229Z" fill="black"/>
</g>
<path opacity="0.05" d="M149.152 135.984C149.152 135.984 154.5 137.953 157.993 136.423L159.74 136.533C159.74 136.533 162.643 138.574 165.713 137.661" fill="black"/>
<path opacity="0.05" d="M174.473 132.702C174.473 132.702 173.601 134.782 174.036 135.438L174.473 132.702Z" fill="black"/>
<path opacity="0.05" d="M139.657 132.046C139.657 132.046 140.094 134.125 139.657 134.782V132.046Z" fill="black"/>
<path d="M230.17 179.426C230.17 179.426 220.173 189.449 225.817 204.32C231.46 219.191 216.145 243.922 216.145 243.922C216.145 243.922 216.309 243.898 216.622 243.845C237.154 240.211 247.354 216.671 235.938 199.182C231.682 192.678 228.199 185.051 230.17 179.426Z" fill="#22C88A"/>
<path opacity="0.1" d="M230.17 179.594C230.17 179.594 220.173 189.616 225.817 204.488C231.46 219.359 216.145 244.087 216.145 244.087C216.145 244.087 216.309 244.063 216.622 244.01C237.154 240.377 247.354 216.836 235.938 199.347C231.682 192.846 228.199 185.218 230.17 179.594Z" fill="black"/>
<path d="M230.17 179.426C230.17 179.426 224.527 191.71 230.17 201.733C235.814 211.755 231.126 239.881 216.143 243.922" stroke="#535461" stroke-miterlimit="10"/>
<path d="M247.976 219.962C247.976 219.962 236.57 218.142 235.53 228.39C234.491 238.637 213.589 240.058 213.589 240.058L213.981 240.319C231.232 251.674 247.725 247.551 245.238 232.474C244.321 226.871 244.397 221.241 247.976 219.962Z" fill="#22C88A"/>
<path d="M247.976 219.962C247.976 219.962 239.121 221.91 239.852 229.983C240.583 238.055 226.71 247.731 213.598 240.06" stroke="#535461" stroke-miterlimit="10"/>
<path d="M237.941 240.432C237.941 240.432 228.957 238.63 226.561 236.228C224.164 233.825 213.384 229.623 212.187 232.634C210.99 235.645 196.015 245.845 206.197 247.647C216.378 249.448 230.155 250.042 233.148 248.845C236.142 247.647 237.941 240.432 237.941 240.432Z" fill="#A8A8A8"/>
<path opacity="0.2" d="M206.196 246.523C216.38 248.325 230.154 248.919 233.148 247.721C235.43 246.806 237.014 242.413 237.64 240.367L237.939 240.429C237.939 240.429 236.142 247.635 233.148 248.835C230.154 250.035 216.377 249.436 206.196 247.637C203.257 247.117 202.416 245.896 202.734 244.351C202.983 245.359 204.008 246.135 206.196 246.523Z" fill="black"/>
</g>
<defs>
<linearGradient id="paint0_linear" x1="124.71" y1="251.801" x2="124.71" y2="78.3683" gradientUnits="userSpaceOnUse">
<stop stop-color="#808080" stop-opacity="0.25"/>
<stop offset="0.54" stop-color="#808080" stop-opacity="0.12"/>
<stop offset="1" stop-color="#808080" stop-opacity="0.1"/>
</linearGradient>
<clipPath id="clip0">
<rect width="248" height="185" fill="white" transform="translate(0 73)"/>
</clipPath>
</defs>
</svg>
