<svg width="298" height="305" viewBox="0 0 298 305" fill="none" xmlns="http://www.w3.org/2000/svg">
<path opacity="0.1" d="M94.407 153.563C99.4124 169.052 114.763 180.586 130.189 188.605C178.642 213.786 234.481 215.887 286.321 211.645C305.092 210.109 324.079 207.734 340.24 199.956C373.134 184.129 389.132 144.911 377.284 109.097C373.259 96.9151 366.46 85.4107 359.023 74.3857C345.8 54.7792 330.098 36.0695 310.39 21.8332C296.326 11.6867 280.561 4.03562 264.57 -2.61422C219.9 -21.1777 171.996 -32.5074 125.486 -31.1636C105.087 -30.5736 84.2179 -27.218 69.2215 -15.7377C54.225 -4.25728 46.9595 17.1464 56.9752 34.9882C61.1169 42.364 67.6814 48.4394 74.1438 54.3202C83.6604 62.9777 93.3687 71.7031 100.436 82.1125C107.731 92.8708 114.209 109.244 105.948 118.791C97.0567 129.012 89.4089 138.095 94.407 153.563Z" fill="#22C88A"/>
<path d="M272.188 80.6963L255.735 75.7723L254.723 98.0506L272.036 103.218L272.188 80.6963Z" fill="#F5F5F5"/>
<path d="M159.079 45V67.8308L254.571 97.396L255.554 74.9583L159.079 45Z" fill="#F5F5F5"/>
<path opacity="0.1" d="M272.188 80.6963L255.735 75.7723L254.723 98.0506L272.036 103.218L272.188 80.6963Z" fill="black"/>
<path d="M272.188 122.28L255.735 117.356L254.723 139.635L272.036 144.802L272.188 122.28Z" fill="#3AD29F"/>
<path d="M159.079 87.4158V109.884L254.571 138.98L255.554 116.899L159.079 87.4158Z" fill="#3AD29F"/>
<path opacity="0.1" d="M272.188 122.28L255.735 117.356L254.723 139.635L272.036 144.802L272.188 122.28Z" fill="black"/>
<path d="M259.713 130L262.484 133.99L268.03 127.337" stroke="white" stroke-width="4" stroke-miterlimit="10" stroke-linecap="round"/>
<g opacity="0.4">
<path opacity="0.4" d="M259.713 83.2574L265.535 92.4059" stroke="white" stroke-width="7" stroke-miterlimit="10" stroke-linecap="round"/>
<path opacity="0.4" d="M266.366 85.7525L259.713 92.4059" stroke="white" stroke-width="7" stroke-miterlimit="10" stroke-linecap="round"/>
</g>
<path d="M272.188 161.37L255.735 156.446L254.723 178.724L272.036 183.891L272.188 161.37Z" fill="#F5F5F5"/>
<path d="M159.079 127.337V149.805L254.571 178.901L255.554 156.819L159.079 127.337Z" fill="#F5F5F5"/>
<path opacity="0.1" d="M272.188 161.37L255.735 156.446L254.723 178.724L272.036 183.891L272.188 161.37Z" fill="black"/>
<g opacity="0.4">
<path opacity="0.4" d="M259.713 165.594L265.535 175.574" stroke="white" stroke-width="7" stroke-miterlimit="10" stroke-linecap="round"/>
<path opacity="0.4" d="M266.366 166.426L259.713 173.079" stroke="white" stroke-width="7" stroke-miterlimit="10" stroke-linecap="round"/>
</g>
<path opacity="0.3" d="M225.198 124.01C226.806 124.01 228.109 121.217 228.109 117.772C228.109 114.327 226.806 111.535 225.198 111.535C223.59 111.535 222.287 114.327 222.287 117.772C222.287 121.217 223.59 124.01 225.198 124.01Z" fill="black"/>
<path opacity="0.1" d="M225.198 173.079C240.585 173.079 253.059 148.317 253.059 117.772C253.059 87.2271 240.585 62.4653 225.198 62.4653C209.81 62.4653 197.336 87.2271 197.336 117.772C197.336 148.317 209.81 173.079 225.198 173.079Z" fill="#22C88A"/>
<path opacity="0.1" d="M225.614 148.129C233.882 148.129 240.584 134.538 240.584 117.772C240.584 101.007 233.882 87.4158 225.614 87.4158C217.346 87.4158 210.644 101.007 210.644 117.772C210.644 134.538 217.346 148.129 225.614 148.129Z" fill="white"/>
<g opacity="0.5">
<path opacity="0.5" d="M227.957 118.941C226.605 114.886 218.567 120.367 218.567 120.367L217.906 121.256L203.618 140.567L168.612 121.001V112.253C170.26 112.071 171.854 111.553 173.295 110.732C174.736 109.91 175.993 108.803 176.99 107.477C177.987 106.152 178.702 104.637 179.091 103.025C179.48 101.413 179.535 99.738 179.253 98.1038C181.014 97.425 182.449 95.9605 183.771 94.5465C184.99 93.251 186.294 91.6798 186.17 89.9545C186.19 89.6789 186.174 89.4018 186.122 89.1304C185.844 87.6748 184.527 86.6135 183.134 86.1066C181.74 85.5997 180.234 85.5137 178.778 85.2172C175.309 84.5384 172.175 82.7271 168.792 81.7014C167.256 81.2392 165.675 80.9411 164.075 80.812C162.928 80.7172 161.733 80.7172 160.684 81.1885C159.533 81.7073 158.7 82.7211 157.775 83.5838C156.657 84.6247 155.367 85.4642 153.962 86.0651C151.866 86.9544 149.515 87.3191 147.626 88.576C147.102 88.8918 146.663 89.3316 146.348 89.8566C146.072 90.4215 145.955 91.0505 146.007 91.6768C145.999 92.2289 146.041 92.7806 146.132 93.3251C146.464 95.6492 146.846 98.0297 148.023 100.06C148.984 101.72 150.422 103.043 151.833 104.341L155.009 107.252C155.652 107.845 156.364 108.574 157.194 108.868C157.14 108.482 157.36 108.076 157.686 107.682L156.657 114.874C154.74 114.279 152.747 113.965 150.739 113.94C148.035 113.907 145.299 114.397 144.116 116.238C144.047 116.349 143.986 116.466 143.935 116.587C140.208 121.01 131.666 135.335 136.689 170.126C136.259 174.383 136.001 177.078 136.001 177.078L136.031 177.504L136.001 177.828L136.06 177.875L138.856 216.286L133.448 254.142H134.649V258.349H133.297V265.108C133.297 265.108 152.076 263.907 154.941 259.701C157.312 256.211 145.506 257.581 141.418 258.15V255.562H141.492V254.136H142.918L148.326 228.449C153.885 218.841 151.036 194.79 151.036 194.79L157.796 198.846L163.192 227.103L159.142 269.015H160.343V271.944H158.765V278.703C158.765 278.703 177.545 277.502 180.409 273.296C182.781 269.807 170.981 271.176 166.892 271.745L166.438 269.015H167.266L172.679 231.159C175.348 220.902 171.71 190.806 171.23 186.952L177.924 142.675L177.829 142.547L177.924 141.922L204.967 151.39C204.967 151.39 207.671 154.094 210.452 146.054C213.049 138.542 220.174 128.472 221.096 127.188L221.194 127.052C221.194 127.052 229.309 122.997 227.957 118.941Z" fill="url(#paint0_linear)"/>
</g>
<path d="M135.792 251.376V257.911H142.445V248.762L135.792 251.376Z" fill="#FDA57D"/>
<path d="M160.743 264.92V272.049L167.396 270.862L166.065 263.733L160.743 264.92Z" fill="#FDA57D"/>
<path d="M146.604 117.356C146.604 117.356 131.101 129.035 138.738 174.743L146.604 117.356Z" fill="#F55F44"/>
<path opacity="0.05" d="M146.604 117.356C146.604 117.356 131.101 129.035 138.738 174.743L146.604 117.356Z" fill="black"/>
<path opacity="0.05" d="M166.564 268.723L165.918 264.564L160.743 265.951V268.723H166.564Z" fill="black"/>
<path opacity="0.05" d="M135.792 254.584H142.445V250.426L135.792 253.199V254.584Z" fill="black"/>
<path d="M158.802 108.208L157.416 117.427L169.891 124.01V110.841L158.802 108.208Z" fill="#FDA57D"/>
<path d="M134.96 251.699L140.224 214.713L137.446 176.406L171.65 185.653C171.65 185.653 175.877 218.529 173.11 229.241L167.85 266.228H159.955L163.901 225.28L158.64 197.677L152.061 193.724C152.061 193.724 154.84 217.22 149.431 226.6L144.182 251.699H134.96Z" fill="#22C88A"/>
<path d="M227.948 119.846C226.515 115.347 217.997 121.43 217.997 121.43L217.297 122.423L220.678 129L220.785 128.848C220.785 128.848 229.38 124.345 227.948 119.846Z" fill="#FDA57D"/>
<path opacity="0.05" d="M159.32 117.437C159.32 117.437 148.804 114.686 146.175 118.739C143.547 122.792 138.287 177.369 138.287 177.369C138.287 177.369 153.916 190.393 172.466 186.487L179.04 143.504L159.32 117.437Z" fill="black"/>
<path d="M203.703 140.815L162.351 117.534C159.354 115.835 155.983 114.916 152.545 114.863C149.929 114.83 147.28 115.308 146.138 117.101C143.522 121.203 138.287 176.419 138.287 176.419C138.287 176.419 153.841 189.6 172.302 185.646L178.844 142.13L205.011 151.357C205.011 151.357 207.627 153.993 210.314 146.157C212.826 138.832 219.719 129.017 220.624 127.756L217.537 121.977L203.703 140.815Z" fill="#F55F44"/>
<path opacity="0.05" d="M159.079 110.562C160.204 111.903 161.642 112.987 163.284 113.731C164.926 114.476 166.727 114.863 168.553 114.861C169 114.861 169.447 114.837 169.891 114.791V112.366L159.185 109.871L159.079 110.562Z" fill="black"/>
<path d="M167.812 114.03C174.472 114.03 179.871 108.817 179.871 102.386C179.871 95.9556 174.472 90.7426 167.812 90.7426C161.152 90.7426 155.752 95.9556 155.752 102.386C155.752 108.817 161.152 114.03 167.812 114.03Z" fill="#FDA57D"/>
<path d="M134.96 256.437V263.733C134.96 263.733 152.752 262.435 155.458 257.896C158.163 253.356 141.367 256.437 141.367 256.437H134.96Z" fill="#333333"/>
<path d="M159.911 269.642V276.208C159.911 276.208 177.703 275.04 180.408 270.955C183.114 266.869 166.318 269.642 166.318 269.642H159.911Z" fill="#333333"/>
<path opacity="0.05" d="M160.057 107.594L164.783 100.843C165.482 99.8428 166.199 98.8248 167.179 98.0937C168.159 97.3626 169.46 96.9548 170.622 97.3294C171.323 97.556 171.907 98.0393 172.503 98.4713C174.267 99.7522 176.436 100.704 178.593 100.317C180.841 99.9123 182.568 98.1602 184.133 96.4987C185.43 95.1211 186.825 93.4294 186.468 91.5716C186.19 90.1276 184.883 89.0763 183.497 88.5718C182.112 88.0673 180.617 87.9858 179.171 87.7018C175.725 87.0281 172.609 85.2307 169.248 84.2126C167.722 83.7458 166.15 83.442 164.559 83.3064C163.418 83.2127 162.229 83.2127 161.189 83.681C160.045 84.1945 159.216 85.1914 158.3 86.0584C157.188 87.0901 155.907 87.9221 154.512 88.5174C152.43 89.4056 150.104 89.762 148.216 91.0097C147.696 91.3237 147.261 91.7604 146.949 92.2815C146.465 93.1878 146.589 94.2692 146.734 95.2782C147.064 97.5832 147.442 99.9455 148.613 101.96C149.569 103.607 150.993 104.921 152.4 106.208L155.556 109.099C156.194 109.685 156.902 110.41 157.728 110.703C157.58 109.664 159.461 108.455 160.057 107.594Z" fill="black"/>
<path d="M160.057 106.854L164.783 100.308C165.482 99.3385 166.199 98.3514 167.179 97.6425C168.159 96.9337 169.46 96.5383 170.622 96.9015C171.323 97.1212 171.907 97.5898 172.503 98.0087C174.267 99.2506 176.436 100.173 178.593 99.7983C180.841 99.4058 182.568 97.707 184.133 96.096C185.43 94.7604 186.825 93.1201 186.468 91.3187C186.19 89.9187 184.883 88.8993 183.497 88.4102C182.112 87.921 180.617 87.842 179.171 87.5666C175.725 86.9135 172.609 85.1707 169.248 84.1836C167.722 83.7309 166.15 83.4364 164.559 83.3049C163.418 83.2141 162.229 83.2141 161.189 83.6681C160.045 84.166 159.216 85.1326 158.3 85.9732C157.189 86.9746 155.907 87.7823 154.512 88.3604C152.43 89.2215 150.104 89.5672 148.216 90.7769C147.696 91.0813 147.261 91.5047 146.949 92.01C146.465 92.8887 146.589 93.9373 146.734 94.9156C147.064 97.1505 147.442 99.441 148.613 101.395C149.569 102.991 150.993 104.265 152.4 105.513L155.556 108.316C156.194 108.884 156.902 109.587 157.728 109.871C157.58 108.864 159.461 107.677 160.057 106.854Z" fill="#333333"/>
<g opacity="0.5">
<path opacity="0.5" d="M117.495 77.4357H115.832V80.7624H117.495V77.4357Z" fill="#47E6B1"/>
<path opacity="0.5" d="M117.495 79.9307V79.099H115V79.9307H117.495Z" fill="#47E6B1"/>
</g>
<g opacity="0.5">
<path opacity="0.5" d="M273.02 202.188V200.525H270.524V202.188H273.02Z" fill="#47E6B1"/>
</g>
<g opacity="0.5">
<path opacity="0.5" d="M262.208 148.96V148.129H259.713V148.96H262.208Z" fill="#47E6B1"/>
</g>
<g opacity="0.5">
<path opacity="0.5" d="M243.079 197.198H242.247V200.525H243.079V197.198Z" fill="#47E6B1"/>
</g>
<path opacity="0.5" d="M141.412 77.8666C141.258 77.799 141.135 77.6775 141.066 77.5251C140.996 77.3727 140.985 77.2 141.034 77.0399C141.037 77.0148 141.037 76.9895 141.034 76.9644C141.038 76.8913 141.018 76.819 140.978 76.758C140.937 76.6969 140.879 76.6504 140.81 76.6251C140.741 76.5998 140.666 76.5971 140.596 76.6174C140.526 76.6377 140.464 76.6799 140.419 76.7379C140.404 76.759 140.391 76.7818 140.381 76.8059C140.314 76.9592 140.192 77.0824 140.04 77.152C139.887 77.2216 139.715 77.2327 139.555 77.1834H139.479C139.406 77.1797 139.334 77.1996 139.273 77.2399C139.212 77.2803 139.165 77.3391 139.14 77.4078C139.115 77.4764 139.112 77.5514 139.132 77.6217C139.152 77.692 139.195 77.754 139.253 77.7986C139.274 77.8139 139.297 77.8265 139.321 77.8364C139.474 77.9039 139.597 78.0254 139.667 78.1779C139.736 78.3303 139.747 78.5029 139.698 78.6631C139.695 78.6881 139.695 78.7135 139.698 78.7385C139.694 78.8116 139.714 78.884 139.755 78.945C139.795 79.006 139.854 79.0526 139.922 79.0779C139.991 79.1031 140.066 79.1058 140.136 79.0855C140.207 79.0652 140.269 79.023 140.313 78.965C140.329 78.944 140.341 78.9211 140.351 78.8971C140.419 78.7437 140.54 78.6206 140.693 78.551C140.845 78.4814 141.018 78.4702 141.178 78.5196H141.253C141.326 78.5232 141.399 78.5034 141.46 78.463C141.521 78.4227 141.567 78.3639 141.593 78.2952C141.618 78.2265 141.621 78.1516 141.6 78.0813C141.58 78.0109 141.538 77.949 141.48 77.9043C141.459 77.8891 141.436 77.8764 141.412 77.8666Z" fill="#4D8AF0"/>
<path opacity="0.5" d="M240.382 56.2328C240.229 56.2102 240.105 56.1697 240.036 56.1189C239.966 56.0681 239.955 56.0106 240.005 55.9572C240.007 55.9488 240.007 55.9404 240.005 55.932C240.008 55.9077 239.988 55.8836 239.948 55.8632C239.908 55.8429 239.849 55.8274 239.78 55.8189C239.711 55.8105 239.636 55.8096 239.566 55.8164C239.496 55.8231 239.434 55.8372 239.389 55.8565C239.374 55.8636 239.361 55.8712 239.351 55.8792C239.284 55.9303 239.162 55.9714 239.01 55.9946C238.858 56.0178 238.685 56.0215 238.525 56.005H238.449C238.376 56.0038 238.304 56.0104 238.243 56.0239C238.182 56.0373 238.135 56.0569 238.11 56.0798C238.085 56.1027 238.082 56.1277 238.102 56.1511C238.123 56.1746 238.165 56.1952 238.223 56.2101C238.244 56.2152 238.267 56.2194 238.291 56.2227C238.444 56.2452 238.567 56.2857 238.637 56.3365C238.706 56.3873 238.718 56.4449 238.668 56.4982C238.665 56.5066 238.665 56.5151 238.668 56.5234C238.665 56.5478 238.684 56.5719 238.725 56.5922C238.765 56.6126 238.824 56.6281 238.893 56.6365C238.961 56.6449 239.036 56.6458 239.107 56.6391C239.177 56.6323 239.239 56.6182 239.284 56.5989C239.299 56.5919 239.311 56.5843 239.321 56.5763C239.389 56.5251 239.51 56.4841 239.663 56.4609C239.815 56.4377 239.988 56.434 240.148 56.4504H240.223C240.297 56.4516 240.369 56.445 240.43 56.4316C240.491 56.4181 240.537 56.3985 240.563 56.3756C240.588 56.3527 240.591 56.3278 240.57 56.3043C240.55 56.2809 240.508 56.2602 240.45 56.2453C240.429 56.2403 240.406 56.236 240.382 56.2328Z" fill="#4D8AF0"/>
<path opacity="0.5" d="M119.024 134.411C118.922 134.388 118.84 134.348 118.793 134.297C118.747 134.246 118.739 134.189 118.772 134.135C118.774 134.127 118.774 134.119 118.772 134.11C118.775 134.086 118.761 134.062 118.735 134.041C118.708 134.021 118.668 134.006 118.623 133.997C118.577 133.989 118.527 133.988 118.48 133.995C118.433 134.001 118.392 134.015 118.362 134.035C118.352 134.042 118.343 134.049 118.337 134.057C118.292 134.109 118.211 134.15 118.109 134.173C118.008 134.196 117.892 134.2 117.786 134.183H117.735C117.687 134.182 117.638 134.189 117.598 134.202C117.557 134.216 117.526 134.235 117.509 134.258C117.492 134.281 117.491 134.306 117.504 134.329C117.518 134.353 117.546 134.373 117.584 134.388C117.598 134.393 117.614 134.398 117.63 134.401C117.732 134.423 117.814 134.464 117.86 134.515C117.907 134.566 117.914 134.623 117.881 134.676C117.879 134.685 117.879 134.693 117.881 134.702C117.879 134.726 117.892 134.75 117.919 134.77C117.946 134.791 117.985 134.806 118.031 134.815C118.077 134.823 118.127 134.824 118.174 134.817C118.22 134.811 118.262 134.796 118.292 134.777C118.302 134.77 118.31 134.762 118.317 134.754C118.362 134.703 118.443 134.662 118.544 134.639C118.646 134.616 118.761 134.612 118.868 134.629H118.918C118.967 134.63 119.015 134.623 119.056 134.61C119.097 134.596 119.128 134.577 119.144 134.554C119.161 134.531 119.163 134.506 119.15 134.483C119.136 134.459 119.108 134.438 119.069 134.424C119.055 134.418 119.04 134.414 119.024 134.411Z" fill="#4D8AF0"/>
<path opacity="0.5" d="M122.418 189.723C122.367 189.678 122.326 189.597 122.302 189.495C122.279 189.394 122.275 189.279 122.292 189.172C122.293 189.155 122.293 189.138 122.292 189.122C122.293 189.073 122.286 189.025 122.273 188.984C122.26 188.943 122.24 188.912 122.217 188.895C122.194 188.878 122.169 188.877 122.146 188.89C122.122 188.904 122.102 188.932 122.087 188.971C122.082 188.985 122.077 189 122.074 189.016C122.052 189.118 122.011 189.2 121.96 189.247C121.91 189.293 121.852 189.3 121.799 189.267H121.773C121.749 189.265 121.725 189.278 121.705 189.305C121.684 189.332 121.669 189.371 121.66 189.417C121.652 189.463 121.651 189.513 121.658 189.56C121.665 189.607 121.679 189.648 121.698 189.678C121.705 189.688 121.713 189.696 121.721 189.703C121.772 189.748 121.813 189.829 121.836 189.93C121.859 190.032 121.863 190.147 121.846 190.254C121.845 190.271 121.845 190.288 121.846 190.304C121.845 190.353 121.852 190.401 121.865 190.442C121.879 190.483 121.898 190.514 121.921 190.53C121.944 190.547 121.969 190.549 121.993 190.536C122.016 190.522 122.037 190.494 122.052 190.455C122.057 190.441 122.061 190.426 122.064 190.41C122.087 190.308 122.127 190.226 122.178 190.179C122.229 190.133 122.286 190.125 122.34 190.158H122.365C122.389 190.161 122.413 190.147 122.434 190.121C122.454 190.094 122.47 190.054 122.478 190.009C122.486 189.963 122.487 189.913 122.481 189.866C122.474 189.819 122.46 189.778 122.44 189.748C122.433 189.738 122.426 189.73 122.418 189.723Z" fill="#4D8AF0"/>
<path opacity="0.5" d="M188.604 86.5842C189.293 86.5842 189.851 86.0256 189.851 85.3366C189.851 84.6477 189.293 84.0891 188.604 84.0891C187.915 84.0891 187.356 84.6477 187.356 85.3366C187.356 86.0256 187.915 86.5842 188.604 86.5842Z" fill="#F55F44"/>
<path opacity="0.5" d="M212.307 202.188C212.766 202.188 213.138 201.63 213.138 200.941C213.138 200.252 212.766 199.693 212.307 199.693C211.847 199.693 211.475 200.252 211.475 200.941C211.475 201.63 211.847 202.188 212.307 202.188Z" fill="#4D8AF0"/>
<path opacity="0.5" d="M266.782 109.871C267.471 109.871 268.03 109.499 268.03 109.04C268.03 108.58 267.471 108.208 266.782 108.208C266.093 108.208 265.535 108.58 265.535 109.04C265.535 109.499 266.093 109.871 266.782 109.871Z" fill="#4D8AF0"/>
<path opacity="0.5" d="M281.752 150.624C282.441 150.624 283 150.065 283 149.376C283 148.687 282.441 148.129 281.752 148.129C281.063 148.129 280.505 148.687 280.505 149.376C280.505 150.065 281.063 150.624 281.752 150.624Z" fill="#47E6B1"/>
<path opacity="0.5" d="M223.535 49.9901C224.224 49.9901 224.782 49.6177 224.782 49.1584C224.782 48.6991 224.224 48.3267 223.535 48.3267C222.846 48.3267 222.287 48.6991 222.287 49.1584C222.287 49.6177 222.846 49.9901 223.535 49.9901Z" fill="#F55F44"/>
<defs>
<linearGradient id="paint0_linear" x1="133.3" y1="179.743" x2="228.108" y2="179.743" gradientUnits="userSpaceOnUse">
<stop stop-color="#808080" stop-opacity="0.25"/>
<stop offset="0.54" stop-color="#808080" stop-opacity="0.12"/>
<stop offset="1" stop-color="#808080" stop-opacity="0.1"/>
</linearGradient>
</defs>
</svg>
