<svg width="245" height="192" viewBox="0 0 245 192" fill="none" xmlns="http://www.w3.org/2000/svg">
<g opacity="0.5">
<path opacity="0.5" d="M174.366 0.0163604C173.409 0.0012853 172.2 0.267611 171.461 1.59171C170.014 4.19467 172.343 6.75492 171.142 9.52874C170.801 10.2836 170.263 10.9327 169.585 11.4081C168.424 12.2448 167.24 12.4935 166.067 12.9935C164.657 13.5552 163.491 14.5961 162.773 15.9331C162.059 17.3774 161.817 19.0094 162.08 20.5989C162.311 21.9858 162.856 23.0863 163.306 24.2722C163.852 25.7407 164.247 27.2611 164.484 28.8098C164.619 29.5318 164.657 30.2685 164.6 31.0007C164.469 31.9334 164.242 32.8502 163.924 33.7368L161.341 41.8246C160.969 42.8783 160.692 43.9629 160.512 45.0657C160.399 46.2169 160.432 47.3778 160.612 48.5204C160.894 50.8872 161.208 53.3495 162.328 54.8293C163.449 56.3092 165.648 56.4047 167.256 54.3067C168.786 52.2967 169.18 49.2566 170.582 47.0707C172.791 43.6235 176.323 43.9225 178.69 40.6939C180.951 37.5985 180.916 33.1313 182.336 29.3223C183.341 26.5937 185.099 24.2973 186.285 21.6466C187.996 17.8251 188.388 13.5337 187.793 10.1468C187.261 7.16947 185.947 4.38697 183.986 2.08416C183.253 1.19473 182.454 0.368113 181.436 0.074149C180.353 -0.247453 179.273 0.576651 178.157 0.652026C176.868 0.717351 175.665 0.0364605 174.366 0.0163604Z" fill="#22C88A"/>
<path opacity="0.5" d="M180.436 0.0414429C180.436 0.0414429 174.205 36.1337 163.853 55.8393" stroke="#535461" stroke-width="2" stroke-miterlimit="10"/>
<path opacity="0.5" d="M171.391 1.75751C171.391 1.75751 178.994 9.5463 176.085 20.3099" stroke="#535461" stroke-width="2" stroke-miterlimit="10"/>
<path opacity="0.5" d="M162.429 16.7296C162.429 16.7296 175.808 22.0612 174.039 28.1213" stroke="#535461" stroke-width="2" stroke-miterlimit="10"/>
<path opacity="0.5" d="M187.833 10.0664C187.833 10.0664 181.868 12.496 175.688 21.9029" stroke="#535461" stroke-width="2" stroke-miterlimit="10"/>
<path opacity="0.5" d="M178.602 40.7316C178.602 40.7316 174.564 42.1336 172.502 33.4453" stroke="#535461" stroke-width="2" stroke-miterlimit="10"/>
<path opacity="0.5" d="M161.806 41.5583C161.806 41.5583 169.575 42.5934 170.73 39.0458" stroke="#535461" stroke-width="2" stroke-miterlimit="10"/>
</g>
<g opacity="0.5">
<path opacity="0.5" d="M25.4317 44.6889C24.894 45.4828 24.4518 46.6361 25.1553 47.9803C26.5372 50.6184 29.9542 50.0757 31.615 52.6008C32.0587 53.3005 32.3061 54.1067 32.331 54.9349C32.3938 56.3645 31.9516 57.4901 31.723 58.7489C31.4211 60.2333 31.6515 61.7766 32.3737 63.1081C33.189 64.4964 34.4193 65.594 35.8913 66.2462C37.1777 66.8141 38.4038 66.9598 39.6349 67.2362C41.1622 67.5864 42.6498 68.0915 44.0745 68.7437C44.7517 69.0276 45.3886 69.3993 45.9689 69.8492C46.6768 70.4704 47.3191 71.1624 47.886 71.9145L53.2301 78.5123C53.9091 79.4018 54.6659 80.2291 55.4914 80.9846C56.392 81.7111 57.3815 82.3198 58.436 82.7962C60.5692 83.8589 62.8003 84.9469 64.652 84.8238C66.5037 84.7006 67.7901 82.9142 66.9133 80.4168C66.0841 78.04 63.7475 76.0375 62.6872 73.6657C61.0164 69.9271 63.2048 67.1331 61.8053 63.3895C60.4636 59.7916 56.7024 57.3796 54.3004 54.0932C52.5769 51.7465 51.6171 49.028 50.0518 46.5783C47.7905 43.0608 44.4238 40.3699 41.258 39.0081C38.4762 37.8189 35.4283 37.3906 32.4265 37.7669C31.2808 37.8925 30.1527 38.1061 29.3386 38.792C28.4743 39.5206 28.5849 40.8824 28.0221 41.8497C27.3939 42.9804 26.1628 43.6135 25.4317 44.6889Z" fill="#22C88A"/>
<path opacity="0.5" d="M28.786 39.6287C28.786 39.6287 55.5393 64.6407 66.328 84.1152" stroke="#535461" stroke-width="2" stroke-miterlimit="10"/>
<path opacity="0.5" d="M25.2584 48.131C25.2584 48.131 35.9492 46.0532 43.3485 54.3872" stroke="#535461" stroke-width="2" stroke-miterlimit="10"/>
<path opacity="0.5" d="M32.8563 63.8343C32.8563 63.8343 44.6651 55.5756 48.7505 60.3796" stroke="#535461" stroke-width="2" stroke-miterlimit="10"/>
<path opacity="0.5" d="M41.2278 38.9603C41.2278 38.9603 39.9841 45.2818 44.4589 55.6082" stroke="#535461" stroke-width="2" stroke-miterlimit="10"/>
<path opacity="0.5" d="M61.7979 63.485C61.7979 63.485 60.7527 67.6306 52.3508 64.583" stroke="#535461" stroke-width="2" stroke-miterlimit="10"/>
<path opacity="0.5" d="M53.2703 77.9847C53.2703 77.9847 58.3983 72.0577 56.0667 69.1482" stroke="#535461" stroke-width="2" stroke-miterlimit="10"/>
</g>
<path d="M20.4041 15.6769C19.1479 17.1618 17.972 19.217 18.8966 21.2446C20.6905 25.2169 27.2708 23.2798 29.62 26.9832C30.3235 28.0912 30.419 29.4455 30.2557 30.654C29.9391 33.0183 28.7683 35.0257 27.9592 37.1865C27.1502 39.3473 26.7306 41.9603 27.8713 44.2416C28.9693 46.4501 31.2833 47.8446 33.5245 48.3999C35.7656 48.9551 38.0118 48.8295 40.2505 48.9024C42.91 49.0067 45.5506 49.3958 48.1272 50.0631C49.261 50.3076 50.3484 50.7317 51.3482 51.3194C52.4914 52.0505 53.416 53.1234 54.3205 54.1786L62.3606 63.5478C63.4284 64.804 64.5188 66.0603 65.8429 66.9824C67.3705 68.0452 69.1092 68.5854 70.8202 69.1055C74.501 70.2311 78.3577 71.3667 81.8753 70.5954C85.3928 69.8241 88.345 66.4623 87.4656 62.5704C86.6289 58.8645 82.8551 56.2364 81.5838 52.6058C79.5738 46.8848 84.536 41.5784 83.0461 35.7569C81.619 30.1741 75.2925 27.2947 71.775 22.5687C69.2625 19.1818 68.2725 14.9457 66.0766 11.3428C62.9133 6.15195 57.3959 2.7073 51.8809 1.40079C46.3659 0.0942832 40.8208 0.724923 35.6601 2.02641C33.4742 2.58167 31.2883 3.28266 29.5547 4.66957C27.713 6.14441 27.4995 8.38055 26.1578 10.1619C24.6025 12.2373 22.0976 13.6644 20.4041 15.6769Z" fill="#22C88A"/>
<path d="M28.2305 6.2298C28.2305 6.2298 70.8603 39.7719 85.2042 68.9321" stroke="#535461" stroke-width="2" stroke-miterlimit="10"/>
<path d="M19.0322 21.4632C19.0322 21.4632 39.7278 14.7598 51.0793 26.3977" stroke="#535461" stroke-width="2" stroke-miterlimit="10"/>
<path d="M28.5297 45.317C28.5297 45.317 53.1799 27.9807 59.411 34.7419" stroke="#535461" stroke-width="2" stroke-miterlimit="10"/>
<path d="M51.7929 1.32538C51.7929 1.32538 47.5442 12.2272 52.7979 28.0736" stroke="#535461" stroke-width="2" stroke-miterlimit="10"/>
<path d="M82.9607 35.9453C82.9607 35.9453 79.7422 43.1638 64.8958 40.6387" stroke="#535461" stroke-width="2" stroke-miterlimit="10"/>
<path d="M62.5565 62.686C62.5565 62.686 73.9809 51.2591 70.4885 47.1084" stroke="#535461" stroke-width="2" stroke-miterlimit="10"/>
<path opacity="0.1" d="M122.07 192C189.488 192 244.141 187.379 244.141 181.679C244.141 175.978 189.488 171.357 122.07 171.357C54.6528 171.357 0 175.978 0 181.679C0 187.379 54.6528 192 122.07 192Z" fill="#22C88A"/>
<path d="M216.837 100.301C216.317 98.7782 215.566 96.8486 214.973 96.3939C214.937 96.3647 214.897 96.3403 214.855 96.321H214.782V94.4391L213.38 94.6627C213.157 93.983 212.989 93.2865 212.878 92.5799C213.013 92.7151 213.185 92.8073 213.372 92.8449C213.559 92.8824 213.754 92.8637 213.93 92.7909C213.908 92.7532 213.888 92.713 213.867 92.6728L213.93 92.6452C213.709 92.2559 213.593 91.8164 213.591 91.3688C213.602 90.9601 213.667 90.5546 213.785 90.1628C214.036 89.296 214.46 88.487 214.697 87.6151C214.847 87.0542 214.918 86.4748 214.908 85.8941C214.915 84.9096 214.692 83.937 214.254 83.0549C214.144 82.8002 213.971 82.5773 213.752 82.4067C213.555 82.2972 213.352 82.1983 213.144 82.1102C212.795 81.8755 212.495 81.5762 212.259 81.2283C211.264 80.0154 209.93 79.1252 208.428 78.6706C208.036 78.5244 207.612 78.4904 207.202 78.5726C206.26 78.8239 205.918 79.9922 205.154 80.6052C204.481 81.1454 203.556 81.2007 202.709 81.3816C201.863 81.5625 201.011 81.9218 200.433 82.575C200.035 83.0303 199.818 83.6159 199.823 84.2207C199.799 84.5033 199.849 84.787 199.967 85.0448C200.085 85.3026 200.267 85.5258 200.496 85.6931C200.757 85.864 201.052 85.9752 201.361 86.0187C201.67 86.0621 201.984 86.0367 202.282 85.9443C202.049 86.7485 201.985 87.5922 202.094 88.4224C202.203 89.2525 202.482 90.0513 202.914 90.7685C203.346 91.4857 203.921 92.1059 204.604 92.5901C205.287 93.0743 206.063 93.4121 206.883 93.5824L207.046 93.8763C207.551 94.8164 207.934 95.8169 208.187 96.8537C206.895 97.5848 205.486 98.2707 204.634 98.336C204.6 98.669 204.537 98.9984 204.448 99.3209C204.249 100.13 203.866 100.882 203.33 101.519C202.172 102.821 196.963 112.66 196.963 112.66C196.963 112.66 196.8 113.052 196.531 113.72C193.298 114.117 188.019 114.69 186.546 114.396L180.768 108.899C180.768 108.899 178.898 110.326 179.062 112.059L178.034 111.069C178.034 111.069 172.537 115.265 181.217 118.014L194.426 119.547C193.169 123.343 191.994 127.763 192.358 130.167H192.466C192.718 130.167 192.97 130.148 193.22 130.109L193.197 130.536L191.918 153.322C191.918 153.322 191.629 157.518 195.536 159.398C195.536 159.398 200.31 173.43 198.431 175.023C198.431 175.023 198.654 175.141 199.031 175.304L195.104 178.784C195.104 178.784 192.21 179.508 190.619 179.362C190.34 179.324 190.056 179.39 189.822 179.547C189.588 179.705 189.42 179.943 189.35 180.216C189.35 180.246 189.35 180.277 189.335 180.307V180.344C189.335 180.375 189.335 180.405 189.335 180.437C189.335 180.47 189.335 180.46 189.335 180.473C189.335 180.485 189.335 180.525 189.335 180.553C189.335 180.581 189.335 180.576 189.335 180.586C189.335 180.596 189.335 180.648 189.353 180.679V180.714C189.361 180.747 189.372 180.781 189.386 180.814L189.398 180.844C189.411 180.877 189.426 180.91 189.443 180.942V180.965C189.461 180.998 189.481 181.028 189.501 181.061L189.519 181.088C189.542 181.122 189.568 181.155 189.597 181.189L189.619 181.214C189.649 181.249 189.682 181.282 189.715 181.314L189.73 181.327L189.838 181.42L189.86 181.437C189.901 181.47 189.946 181.5 189.991 181.53L190.021 181.55C190.069 181.581 190.119 181.611 190.172 181.638H190.195L190.358 181.719H190.381L190.571 181.794L190.612 181.809L190.82 181.877H190.855L191.084 181.937H191.102L191.353 181.988H191.403L191.674 182.028H191.727L192.034 182.058C192.629 182.103 193.431 182.121 194.358 182.116C194.358 182.116 194.358 182.138 194.358 182.151C194.358 182.164 194.358 182.204 194.358 182.231V182.264C194.358 182.294 194.358 182.327 194.375 182.357V182.392C194.384 182.426 194.395 182.459 194.408 182.493L194.421 182.523C194.433 182.555 194.448 182.588 194.466 182.621V182.643C194.483 182.676 194.504 182.706 194.524 182.739L194.541 182.767C194.565 182.8 194.591 182.834 194.619 182.867L194.642 182.892C194.672 182.927 194.705 182.96 194.737 182.993L194.752 183.005L194.86 183.098L194.883 183.116C194.923 183.148 194.968 183.179 195.014 183.209L195.046 183.229C195.094 183.259 195.144 183.289 195.197 183.317H195.22L195.383 183.397H195.406L195.596 183.473L195.637 183.488L195.845 183.555H195.88L196.109 183.616H196.127L196.378 183.666H196.428L196.699 183.706H196.752L197.059 183.736C200.828 184.025 212.827 183.158 212.827 183.158V183.126V183.083C212.945 182.523 213.523 179.267 211.473 176.86C211.533 176.797 211.594 176.729 211.649 176.659C211.649 176.659 210.059 173.91 210.925 173.041C211.792 172.171 206.586 157.126 206.586 157.126C206.586 157.126 203.838 152.787 205.428 147.868C207.018 142.948 205.282 137.597 205.282 137.597C205.282 137.597 209.076 136.468 209.154 131.798C209.154 131.657 209.154 131.511 209.154 131.363C209.237 131.375 209.321 131.38 209.405 131.378C209.459 131.382 209.513 131.382 209.566 131.378C209.566 131.378 208.842 128.775 209.712 126.893C210.581 125.011 212.46 126.748 214.197 119.082C215.453 113.534 216.558 107.152 217.073 104.047C217.296 102.797 217.215 101.513 216.837 100.301ZM183.82 116.577L182.501 115.321C182.938 115.502 183.423 115.68 183.966 115.851L188.941 116.429C186.72 116.63 184.657 116.743 183.82 116.577Z" fill="url(#paint0_linear)"/>
<path d="M196.413 115.843C196.413 115.843 186.18 117.265 184.047 116.848L178.351 111.431C178.351 111.431 172.949 115.554 181.479 118.253L197.408 120.115L196.413 115.843Z" fill="#FDC2CC"/>
<path opacity="0.05" d="M196.413 115.843C196.413 115.843 186.18 117.265 184.047 116.848L178.351 111.431C178.351 111.431 172.949 115.554 181.479 118.253L197.408 120.115L196.413 115.843Z" fill="black"/>
<path d="M200.109 173.543L195.134 177.95C195.134 177.95 192.293 178.661 190.727 178.518C189.162 178.375 188.453 180.935 192.149 181.219C195.845 181.503 207.642 180.651 207.642 180.651C207.642 180.651 208.78 176.103 205.368 173.543H200.109Z" fill="#47465A"/>
<path opacity="0.05" d="M200.109 173.543L195.134 177.95C195.134 177.95 192.293 178.661 190.727 178.518C189.162 178.375 188.453 180.935 192.149 181.219C195.845 181.503 207.642 180.651 207.642 180.651C207.642 180.651 208.78 176.103 205.368 173.543H200.109Z" fill="black"/>
<path opacity="0.3" d="M207.82 178.684C207.811 179.202 207.752 179.718 207.642 180.224C207.642 180.224 195.833 181.076 192.149 180.792C190.373 180.656 189.617 179.993 189.481 179.357C189.32 180.086 189.963 181.051 192.149 181.219C195.845 181.503 207.642 180.651 207.642 180.651C207.78 180.005 207.84 179.344 207.82 178.684Z" fill="white"/>
<path d="M205.936 92.9542C205.936 92.9542 209.064 97.3611 207.925 100.346C206.787 103.331 213.895 97.2179 213.895 97.2179C213.895 97.2179 211.621 93.2381 212.757 88.9744L205.936 92.9542Z" fill="#FDC2CC"/>
<path d="M205.084 175.249L200.109 179.661C200.109 179.661 197.267 180.372 195.702 180.229C194.137 180.086 193.426 182.641 197.124 182.927C200.823 183.214 212.616 182.359 212.616 182.359C212.616 182.359 213.754 177.812 210.342 175.252L205.084 175.249Z" fill="#47465A"/>
<path d="M206.506 174.254C205.765 175.169 204.72 175.51 203.627 175.573C201.142 175.691 198.406 174.254 198.406 174.254C200.252 172.691 195.564 158.903 195.564 158.903C191.727 157.056 192.011 152.933 192.011 152.933L193.268 130.554L193.582 124.934L197.561 122.516L200.7 124.923L203.674 127.207C203.868 127.934 203.992 128.676 204.046 129.426C204.39 134.649 200.262 135.878 200.262 135.878C200.262 135.878 201.968 141.137 200.406 145.968C198.843 150.8 201.544 155.064 201.544 155.064C201.544 155.064 206.662 169.845 205.815 170.699C204.968 171.553 206.506 174.254 206.506 174.254Z" fill="#565171"/>
<path opacity="0.05" d="M206.506 174.254C205.765 175.169 204.72 175.51 203.627 175.573C201.142 175.691 198.406 174.254 198.406 174.254C200.252 172.691 195.564 158.903 195.564 158.903C191.727 157.056 192.011 152.933 192.011 152.933L193.268 130.554L193.582 124.934L197.561 122.516L200.7 124.923L203.674 127.207C203.868 127.934 203.992 128.676 204.046 129.426C204.39 134.649 200.262 135.878 200.262 135.878C200.262 135.878 201.968 141.137 200.406 145.968C198.843 150.8 201.544 155.064 201.544 155.064C201.544 155.064 206.662 169.845 205.815 170.699C204.968 171.553 206.506 174.254 206.506 174.254Z" fill="black"/>
<path d="M211.481 175.96C209.064 178.945 203.38 175.96 203.38 175.96C203.496 175.855 203.583 175.722 203.632 175.573C204.674 172.739 200.114 159.189 200.114 159.189C196.277 157.342 195.843 152.935 195.843 152.935L194.838 130.16L194.707 127.21L200.687 124.926L202.524 124.225L208.637 128.908C208.901 129.877 209.033 130.877 209.028 131.881C208.953 136.476 205.235 137.584 205.235 137.584C205.235 137.584 206.941 142.843 205.378 147.674C203.815 152.506 206.516 156.77 206.516 156.77C206.516 156.77 211.634 171.551 210.787 172.405C209.941 173.259 211.481 175.96 211.481 175.96Z" fill="#565171"/>
<path opacity="0.1" d="M209.028 131.886C207.8 131.71 205.312 130.23 204.034 129.426C203.546 129.119 203.235 128.923 203.235 128.923C203.235 128.923 201.956 125.371 198.544 128.072C197.434 128.972 196.181 129.679 194.838 130.164C194.324 130.346 193.794 130.479 193.255 130.561L193.569 124.941L197.549 122.524L200.687 124.931L202.524 124.23L208.636 128.908C208.902 129.878 209.033 130.88 209.028 131.886Z" fill="black"/>
<path d="M216.722 104.62C216.219 107.67 215.129 113.939 213.895 119.391C212.189 126.928 210.343 125.217 209.488 127.067C208.634 128.916 209.345 131.474 209.345 131.474C207.923 131.617 203.232 128.489 203.232 128.489C203.232 128.489 201.953 124.936 198.541 127.637C195.129 130.338 192.428 130.195 192.428 130.195C191.717 125.504 196.976 112.997 196.976 112.997C196.976 112.997 202.099 103.331 203.225 102.052C203.752 101.426 204.127 100.686 204.323 99.8913C204.41 99.5744 204.47 99.2509 204.504 98.9239C206.35 98.7807 210.9 95.6577 210.9 95.6577L214.453 95.0898V96.9365C214.494 96.9551 214.533 96.9787 214.569 97.0069C215.154 97.4541 215.89 99.3511 216.4 100.846C216.816 102.058 216.927 103.355 216.722 104.62Z" fill="#F68080"/>
<path opacity="0.1" d="M213.895 98.7833C213.895 98.7833 210.199 95.7984 204.657 105.464C199.114 115.13 197.835 113.564 197.835 113.564C197.835 113.564 198.973 117.836 198.403 118.682C198.403 118.682 202.24 118.398 203.662 118.682C205.084 118.966 213.895 107.879 213.895 107.879C213.895 107.879 218.445 101.625 213.895 98.7833Z" fill="black"/>
<path opacity="0.1" d="M213.755 98.2129C213.755 98.2129 210.059 95.2406 204.516 104.894C198.974 114.547 197.697 112.997 197.697 112.997C197.697 112.997 202.099 117.828 203.521 118.104C204.943 118.381 213.755 107.301 213.755 107.301C213.755 107.301 218.3 101.057 213.755 98.2129Z" fill="black"/>
<path opacity="0.1" d="M198.272 117.758C198.33 116.705 197.933 114.853 197.705 113.894C198.569 113.78 199.114 113.705 199.114 113.705L200.119 117.976L198.272 117.758Z" fill="black"/>
<path opacity="0.1" d="M212.9 89.2583L206.079 93.2306C206.366 93.6503 206.631 94.0847 206.873 94.5321C207.266 94.6122 207.667 94.6526 208.069 94.6527C209.89 94.6527 210.739 92.7406 211.837 91.4542C211.767 90.4291 212.596 90.404 212.9 89.2583Z" fill="black"/>
<path d="M207.928 94.3763C211.225 94.3763 213.898 91.7035 213.898 88.4066C213.898 85.1096 211.225 82.4368 207.928 82.4368C204.631 82.4368 201.958 85.1096 201.958 88.4066C201.958 91.7035 204.631 94.3763 207.928 94.3763Z" fill="#FDC2CC"/>
<path opacity="0.1" d="M200.376 83.5775C200.978 82.9598 201.761 82.549 202.612 82.4042C203.441 82.2258 204.35 82.1705 205.014 81.6504C205.767 81.0499 206.099 79.9093 207.024 79.6555C207.426 79.5747 207.843 79.6077 208.227 79.751C209.705 80.1966 211.016 81.0711 211.996 82.2635C212.227 82.6052 212.521 82.8994 212.863 83.1303C213.067 83.2168 213.267 83.3141 213.461 83.4218C213.674 83.5897 213.841 83.8082 213.948 84.0574C214.615 85.4032 214.768 86.9457 214.38 88.3965C214.149 89.2533 213.732 90.0473 213.486 90.909C213.24 91.7708 213.177 92.7281 213.629 93.4894C213.192 93.713 212.639 93.4316 212.373 93.0246C212.106 92.6176 212.016 92.1151 211.87 91.6452C211.586 90.721 211.053 89.8927 210.33 89.2508C209.883 88.8538 209.074 88.5875 208.77 89.1C208.649 89.2985 208.657 89.5498 208.554 89.7558C208.35 90.1578 207.762 90.2382 207.373 90.0071C206.998 89.7479 206.734 89.3567 206.634 88.9116C206.049 86.9317 205.051 85.6855 202.933 86.5322C202.144 86.8488 201.215 87.0624 200.456 86.5197C199.456 85.8036 199.659 84.3866 200.376 83.5775Z" fill="black"/>
<path d="M200.376 83.4318C200.978 82.814 201.761 82.4032 202.612 82.2584C203.441 82.08 204.35 82.0248 205.014 81.5047C205.767 80.9042 206.099 79.7635 207.024 79.5097C207.426 79.4289 207.843 79.462 208.227 79.6052C209.705 80.0509 211.016 80.9254 211.996 82.1177C212.227 82.4594 212.521 82.7537 212.863 82.9846C213.067 83.0711 213.267 83.1684 213.461 83.276C213.674 83.444 213.841 83.6625 213.948 83.9117C214.615 85.2574 214.768 86.8 214.38 88.2508C214.149 89.1075 213.732 89.9015 213.486 90.7633C213.24 91.6251 213.177 92.5824 213.629 93.3436C213.192 93.5673 212.639 93.2859 212.373 92.8788C212.106 92.4718 212.016 91.9693 211.87 91.4995C211.586 90.5753 211.053 89.747 210.33 89.105C209.883 88.7081 209.074 88.4417 208.77 88.9543C208.649 89.1528 208.657 89.404 208.554 89.61C208.35 90.0121 207.762 90.0925 207.373 89.8613C206.998 89.6022 206.734 89.211 206.634 88.7658C206.049 86.786 205.051 85.5398 202.933 86.3865C202.144 86.7031 201.215 86.9166 200.456 86.3739C199.456 85.6604 199.659 84.2458 200.376 83.4318Z" fill="#B96B6B"/>
<path opacity="0.05" d="M214.581 96.9994H211.692C211.692 96.9994 206.006 99.841 205.865 99.7003C205.77 99.6048 204.89 99.7682 204.333 99.8862C204.42 99.5694 204.48 99.2459 204.513 98.9189C206.36 98.7757 210.91 95.6527 210.91 95.6527L214.463 95.0848V96.9315C214.505 96.9491 214.545 96.9719 214.581 96.9994Z" fill="black"/>
<path opacity="0.3" d="M212.795 180.39C212.786 180.908 212.727 181.424 212.616 181.93C212.616 181.93 200.808 182.782 197.124 182.498C195.348 182.362 194.592 181.699 194.456 181.063C194.295 181.792 194.938 182.756 197.124 182.925C200.82 183.209 212.616 182.357 212.616 182.357C212.755 181.711 212.815 181.05 212.795 180.39Z" fill="white"/>
<g opacity="0.05">
<path opacity="0.05" d="M197.195 127.494C195.278 129.001 193.582 129.632 192.469 129.883C192.469 129.989 192.489 130.094 192.504 130.195C192.504 130.195 195.205 130.338 198.617 127.637C199.145 127.184 199.77 126.858 200.443 126.682C199.707 126.328 198.637 126.351 197.195 127.494Z" fill="black"/>
<path opacity="0.05" d="M216.483 100.844C215.981 99.336 215.227 97.4517 214.651 97.0044C214.616 96.9763 214.577 96.9526 214.536 96.9341C214.536 96.9341 213.36 96.9743 213.398 97.0044C213.983 97.4517 214.551 99.2054 215.061 100.7C215.472 101.912 215.578 103.207 215.37 104.469C214.868 107.519 213.777 113.788 212.543 119.24C210.838 126.778 208.991 125.067 208.137 126.916C207.438 128.423 207.787 130.418 207.938 131.089C208.546 131.34 209.074 131.499 209.415 131.464C209.415 131.464 208.704 128.906 209.559 127.057C210.413 125.207 212.26 126.913 213.966 119.381C215.199 113.931 216.285 107.66 216.792 104.61C217 103.348 216.894 102.055 216.483 100.844Z" fill="black"/>
</g>
<path d="M71.408 179.862C71.408 179.862 68.1417 180.088 66.1066 176.596C65.7119 175.891 65.2454 175.228 64.7146 174.618C64.0628 173.55 63.7242 172.32 63.7373 171.068C63.8503 168.475 61.1443 154.265 61.1443 154.265C61.1443 154.265 61.4835 148.85 58.775 145.471C56.9937 143.245 54.4309 136.863 52.8857 132.762C52.9897 132.855 53.1148 132.92 53.25 132.953L53.1872 132.599L53.25 132.614L52.4611 128.215C51.2982 126.877 50.3182 125.391 49.5466 123.795L49.7275 123.758L52.1219 123.255C52.1219 123.255 56.0138 117.728 56.2525 115.004L56.5691 115.019H57.0163C61.9684 114.911 67.7975 115.584 67.7975 115.584C67.7975 115.567 67.7698 115.496 67.7397 115.386C67.5884 114.839 67.4718 114.282 67.3905 113.72L67.6141 113.705L69.8301 113.557C69.8301 113.557 77.4983 104.987 74.6793 103.406C71.8602 101.826 68.9281 110.512 68.9281 110.512L67.9809 110.685L67.7296 110.733C67.7548 110.695 67.7799 110.66 67.81 110.625C67.8402 110.59 55.2902 110.062 53.3731 107.017C53.3731 107.017 47.8456 102.617 47.622 99.6853C47.5014 98.13 46.5265 97.3034 45.6346 96.8712C44.9525 96.5462 44.1972 96.405 43.4437 96.4617L40.8558 96.6401L41.0392 96.9667H40.9664C40.8041 96.5948 40.6681 96.2119 40.5593 95.821H40.6121C40.5945 95.7406 40.5769 95.6602 40.5618 95.5698C41.3549 95.3826 42.1023 95.0382 42.7599 94.5569C43.4174 94.0757 43.9717 93.4673 44.3899 92.768C44.8081 92.0687 45.0817 91.2925 45.1945 90.4855C45.3073 89.6785 45.257 88.8571 45.0467 88.0699C45.2974 88.1023 45.5517 88.0956 45.8004 88.0498C46.7502 87.8538 47.426 86.889 47.4512 85.9192C47.4512 85.8564 47.4512 85.7936 47.4512 85.7308C47.4512 85.7308 47.4512 85.7056 47.4512 85.6931C47.4419 85.2072 47.3242 84.7295 47.1069 84.2949C46.8896 83.8602 46.578 83.4795 46.1949 83.1806C45.6773 82.7509 45.0618 82.4444 44.5919 81.967C44.0341 81.3967 43.7301 80.6329 43.2955 79.957C42.5707 78.8455 41.4954 78.0081 40.2402 77.5777C39.3056 77.2611 38.1624 77.2259 37.4463 77.9043C37.077 78.2535 36.8634 78.7535 36.4413 79.0475C35.8459 79.4721 35.0368 79.3465 34.3082 79.4319C32.9866 79.5877 31.8258 80.5299 31.2429 81.7283C30.8855 82.4852 30.7132 83.3163 30.7404 84.1529C30.7325 84.7272 30.8009 85.3001 30.9439 85.8564C31.0846 86.4116 31.2932 86.9468 31.4464 87.4971C31.763 88.6428 31.8359 89.8488 32.2002 90.9819C32.447 91.8202 32.9387 92.5657 33.6122 93.1226L33.5042 93.5899C33.4338 93.605 31.6776 93.9818 30.4615 96.6351C29.5018 98.7255 26.2556 100.886 24.8285 101.758C24.5622 101.921 24.3311 102.135 24.1486 102.389C23.9662 102.642 23.836 102.929 23.7657 103.233C23.6286 103.848 23.5679 104.477 23.5848 105.107C23.5597 106.467 23.836 108.346 24.9365 110.73C27.4189 116.145 29.2229 118.519 29.2229 118.519C29.2229 118.519 29.3611 120.177 29.3686 121.926C29.3686 123.228 29.2731 124.524 28.9967 125.172C28.7631 125.72 28.6902 127.119 28.6952 128.715C28.6952 131.778 28.9967 135.775 28.9967 135.775C28.9967 135.775 29.8585 135.938 31.1952 136.134L32.0268 150.755C32.1313 152.525 31.5632 154.269 30.4364 155.639C29.8509 156.357 29.1753 156.997 28.4264 157.543C26.0571 159.234 20.9818 177.056 20.9818 177.056C20.9818 177.056 21.2331 177.071 21.6401 177.103L20.0798 181.455C20.0798 181.455 26.3109 186.229 30.1048 184.925C30.51 184.793 30.9351 184.733 31.361 184.746C32.1148 184.746 33.7102 184.156 32.8183 183.375C31.1977 181.957 29.2555 179.812 27.9566 178.319C28.0791 178.379 28.1967 178.448 28.3083 178.525V178.49L28.3611 178.525C28.3611 178.525 28.3736 178.35 28.4013 178.066L28.346 178.048C28.4616 176.875 28.8234 173.925 29.5445 173.563C30.4465 173.111 37.0996 159.918 37.0996 159.918L43.7527 142.775C43.7527 142.775 49.0541 151.91 53.5641 153.488V157.3C53.5641 157.3 56.0465 168.578 56.9484 169.82C57.8504 171.061 56.9484 176.023 56.9484 176.023C57.1268 176.227 57.3312 176.407 57.5565 176.558L56.8354 180.646C56.8354 180.646 62.0237 180.42 70.82 183.128C70.8426 183.133 74.227 181.671 71.408 179.862ZM50.6546 120.868L49.5566 121.142L49.3406 121.197C49.3179 121.062 49.3029 120.981 49.3029 120.981C49.0515 121.094 48.7815 121.16 48.5064 121.175C48.1172 119.942 47.8925 118.663 47.8381 117.371C47.8381 117.371 47.1999 114.765 47.1647 112.66C47.1773 111.838 47.3004 111.122 47.6119 110.718L47.9788 110.748L48.23 110.999L48.2476 111.017L48.3783 111.135L48.5139 111.258L48.5366 111.278L48.6848 111.406L48.7099 111.429L48.8607 111.557L48.8757 111.569L49.0441 111.708L49.0818 111.738L49.2602 111.881H49.2752L49.4511 112.019L49.4913 112.049L49.6848 112.198L49.725 112.228L49.9109 112.363L49.9436 112.386L50.1546 112.537L50.2049 112.572L50.426 112.725L50.4461 112.738L50.6621 112.881L50.7149 112.916L50.9486 113.064L50.9988 113.095L51.2174 113.228L51.2576 113.253L51.5089 113.399L51.5692 113.434L51.8204 113.579H51.8405L52.0918 113.713L52.1546 113.745L52.4209 113.878L52.4762 113.904L52.7274 114.019L52.7752 114.042L53.0541 114.162L53.1219 114.19L53.4133 114.306C51.5792 116.263 50.6546 120.868 50.6546 120.868Z" fill="url(#paint1_linear)"/>
<path d="M22.8388 174.415L20.7458 180.251C20.7458 180.251 26.4769 184.646 30.2004 183.736C30.7613 183.597 31.3328 183.504 31.9089 183.46C32.6803 183.402 34.0069 182.842 33.1878 182.126C30.5447 179.814 27.0221 175.52 27.0221 175.52L22.8388 174.415Z" fill="#4F4D59"/>
<path d="M57.632 173.862L56.6421 179.478C56.6421 179.478 61.7073 179.257 70.2951 181.9C70.2951 181.9 73.599 180.468 70.8453 178.706C70.8453 178.706 67.6519 178.927 65.6695 175.513C63.6872 172.098 62.4761 172.541 62.4761 172.541L57.632 173.862Z" fill="#4F4D59"/>
<path d="M31.4263 133.124L32.3961 150.209C32.5 152.03 31.896 153.821 30.7102 155.207C30.1742 155.843 29.5634 156.412 28.8912 156.903C26.5797 158.553 21.625 175.95 21.625 175.95C21.625 175.95 27.2405 176.279 28.7806 177.382C28.7806 177.382 29.1098 172.978 29.9917 172.538C30.8736 172.098 37.3684 159.222 37.3684 159.222L43.8683 142.476C43.8683 142.476 49.0441 151.395 53.4485 152.935V156.679C53.4485 156.679 55.8706 167.689 56.7524 168.9C57.6343 170.111 56.7524 174.955 56.7524 174.955C56.7524 174.955 59.2851 178.148 65.1191 174.734C65.1191 174.734 63.2473 172.641 63.3604 170.108C63.4734 167.576 60.8277 153.704 60.8277 153.704C60.8277 153.704 61.1569 148.428 58.5162 145.116C55.8756 141.805 51.4686 129.16 51.4686 129.16L48.4385 122.64L31.4263 133.124Z" fill="#787C9C"/>
<g opacity="0.1">
<path opacity="0.1" d="M22.6729 175.955C22.6729 175.955 27.6276 158.558 29.9391 156.908C30.6497 156.388 31.2921 155.781 31.8511 155.101C32.9822 153.734 33.5508 151.988 33.4415 150.217L32.4717 133.132L48.705 123.117L48.4839 122.642L31.4767 133.124L32.4466 150.209C32.5599 151.981 31.9949 153.729 30.8662 155.099C30.3072 155.779 29.6648 156.386 28.9542 156.905C26.6427 158.556 21.688 175.953 21.688 175.953C21.688 175.953 27.3035 176.282 28.8436 177.385C28.8436 177.385 28.8562 177.214 28.8838 176.935C26.713 176.194 22.6729 175.955 22.6729 175.955Z" fill="black"/>
<path opacity="0.1" d="M57.7978 174.965C57.7978 174.965 58.6796 170.121 57.7978 168.91C56.9159 167.699 54.4838 156.687 54.4838 156.687V152.943C50.0894 151.403 44.9136 142.476 44.9136 142.476L44.5292 143.481C46.0216 145.848 50.0039 151.724 53.5014 152.948V156.692C53.5014 156.692 55.9234 167.701 56.8053 168.912C57.6872 170.124 56.8053 174.968 56.8053 174.968C56.8053 174.968 58.0339 176.513 60.7474 176.304C58.7249 176.144 57.7978 174.965 57.7978 174.965Z" fill="black"/>
</g>
<path d="M69.3076 113.966L67.1443 114.11L66.0037 114.185V111.421L67.5112 111.15L68.4383 110.982C68.4383 110.982 71.3 102.504 74.0538 104.044C76.8075 105.585 69.3076 113.966 69.3076 113.966Z" fill="#714B4F"/>
<path d="M34.6199 91.2859C34.6199 91.2859 33.1878 96.7909 32.7481 100.205C32.3084 103.62 42.9866 100.866 42.9866 100.866C42.9866 100.866 38.9138 95.9115 41.2278 93.2683L34.6199 91.2859Z" fill="#714B4F"/>
<path d="M46.1927 114.187L46.4138 116.28L43.0018 116.059L39.5748 113.079L36.1628 103.507L33.9618 100.095L32.3086 98.0044L32.9694 95.4717C32.9694 95.4717 33.2709 95.723 33.7809 96.125C35.4568 97.4089 39.3914 100.075 42.2657 99.3385C42.3987 99.3053 42.5296 99.2642 42.6576 99.2154L46.9465 106.59L46.1927 114.187Z" fill="#E6E6F0"/>
<path opacity="0.1" d="M33.8485 94.8085C33.8485 94.8085 32.0897 95.1376 30.8762 97.7808C29.944 99.8134 26.8009 101.909 25.3964 102.771C25.1286 102.934 24.8964 103.15 24.7134 103.405C24.5304 103.66 24.4004 103.949 24.3311 104.256C24.0472 105.512 23.9391 107.848 25.4818 111.215C27.9039 116.491 29.6651 118.813 29.6651 118.813C29.6651 118.813 30.1048 124.089 29.444 125.64C28.7832 127.19 29.444 135.659 29.444 135.659C29.444 135.659 41.0016 137.86 44.8583 135.659C48.715 133.458 48.1623 124.979 48.1623 124.979C48.1623 124.979 51.7954 132.677 53.1169 132.906L52.3456 128.612C52.3456 128.612 48.0517 123.986 47.8231 118.042C47.8231 118.042 46.5015 112.647 47.602 111.215C47.602 111.215 66.2096 112.758 67.3101 111.436C67.3101 111.436 55.0893 110.886 53.2174 107.919C53.2174 107.919 47.8231 103.625 47.602 100.763C47.5697 100.226 47.4012 99.7065 47.1124 99.2529C46.8236 98.7992 46.424 98.4266 45.9512 98.1702C45.2023 97.7444 44.3429 97.5527 43.484 97.62L40.9966 97.7908C40.9966 97.7908 45.2905 105.389 45.0694 106.379C44.8483 107.369 45.2905 115.406 45.2905 115.406C45.2905 115.406 40.3458 104.718 38.1524 103.507C35.959 102.296 33.4188 97.3235 33.4188 97.3235L33.8585 94.811" fill="black"/>
<path opacity="0.1" d="M46.1927 114.187L46.4138 116.28L43.0018 116.059L39.5748 113.079L36.1628 103.507L33.9618 100.095L32.3086 98.0044L32.9694 95.4717C32.9694 95.4717 33.2709 95.723 33.7809 96.125L33.6302 96.9993C33.6302 96.9993 36.1628 101.972 38.3637 103.183C40.5647 104.394 45.5194 115.074 45.5194 115.074C45.5194 115.074 45.0797 107.034 45.2983 106.047C45.449 105.374 43.5194 101.663 42.2657 99.3435C42.3987 99.3104 42.5296 99.2692 42.6576 99.2204L46.9465 106.59L46.1927 114.187Z" fill="black"/>
<path opacity="0.1" d="M67.1393 114.112L65.9987 114.187V111.424L67.5062 111.152C66.976 111.853 66.9936 113.079 67.1393 114.112Z" fill="black"/>
<path d="M33.8485 94.4869C33.8485 94.4869 32.0897 94.816 30.8762 97.4592C29.944 99.4918 26.8009 101.587 25.3964 102.449C25.1286 102.613 24.8964 102.829 24.7134 103.084C24.5304 103.339 24.4004 103.628 24.3311 103.934C24.0472 105.19 23.9391 107.527 25.4818 110.894C27.9039 116.17 29.6651 118.491 29.6651 118.491C29.6651 118.491 30.1048 123.768 29.444 125.318C28.7832 126.868 29.444 135.338 29.444 135.338C29.444 135.338 41.0016 137.539 44.8583 135.338C48.715 133.137 48.1623 124.637 48.1623 124.637C48.1623 124.637 51.7954 132.345 53.1169 132.564L52.3456 128.27C52.3456 128.27 48.0517 123.645 47.8231 117.7C47.8231 117.7 46.5015 112.306 47.602 110.873C47.602 110.873 51.8959 115.499 56.74 115.396C61.5841 115.293 67.3101 115.946 67.3101 115.946C67.3101 115.946 66.2096 112.429 67.3101 111.102C67.3101 111.102 55.0893 110.552 53.2174 107.585C53.2174 107.585 47.8231 103.291 47.602 100.429C47.5697 99.8921 47.4012 99.3724 47.1124 98.9187C46.8236 98.4651 46.424 98.0925 45.9512 97.8361C45.2023 97.4102 44.3429 97.2186 43.484 97.2858L40.9966 97.4567C40.9966 97.4567 45.3005 105.039 45.0794 106.044C44.8583 107.049 45.3005 115.072 45.3005 115.072C45.3005 115.072 40.3458 104.389 38.1524 103.178C35.959 101.967 33.4088 96.9994 33.4088 96.9994L33.8485 94.4869Z" fill="#787C9C"/>
<path opacity="0.1" d="M31.4267 106.044C31.4267 106.044 34.0698 114.964 35.61 116.064C37.1502 117.165 46.5093 122.78 49.263 121.459C49.263 121.459 49.9238 124.763 48.9338 125.531C48.9338 125.531 38.6677 125.129 38.5848 125.092C38.5848 125.092 31.8689 124.21 30.7684 120.908C29.6679 117.607 28.3463 111.989 28.3463 111.989L31.4267 106.044Z" fill="black"/>
<path d="M45.5216 116.115C45.7339 116.115 45.906 115.868 45.906 115.564C45.906 115.26 45.7339 115.014 45.5216 115.014C45.3093 115.014 45.1372 115.26 45.1372 115.564C45.1372 115.868 45.3093 116.115 45.5216 116.115Z" fill="#BA7855"/>
<path d="M46.6222 119.969C46.8345 119.969 47.0066 119.722 47.0066 119.419C47.0066 119.115 46.8345 118.868 46.6222 118.868C46.4099 118.868 46.2378 119.115 46.2378 119.419C46.2378 119.722 46.4099 119.969 46.6222 119.969Z" fill="#BA7855"/>
<g opacity="0.1">
<path opacity="0.1" d="M30.2156 135.217C30.2156 135.217 29.5548 126.74 30.2156 125.197C30.8763 123.655 30.4367 118.371 30.4367 118.371C30.4367 118.371 28.6779 116.059 26.2533 110.773C24.7106 107.406 24.8212 105.07 25.1026 103.813C25.1722 103.507 25.3026 103.218 25.4861 102.963C25.6695 102.708 25.9022 102.492 26.1704 102.328C27.5749 101.467 30.7181 99.3712 31.6477 97.3386C32.3311 95.8487 33.1879 95.0924 33.8084 94.718L33.8512 94.4668C33.8512 94.4668 32.0924 94.7959 30.8789 97.4391C29.9467 99.4717 26.8036 101.567 25.4016 102.429C25.1333 102.592 24.9006 102.808 24.7172 103.063C24.5338 103.318 24.4034 103.608 24.3338 103.914C24.0498 105.17 23.9418 107.507 25.4845 110.874C27.9066 116.15 29.6678 118.471 29.6678 118.471C29.6678 118.471 30.1075 123.748 29.4467 125.298C28.7859 126.848 29.4467 135.318 29.4467 135.318C29.4467 135.318 37.7054 136.891 42.5897 136.049C37.6501 136.634 30.2156 135.217 30.2156 135.217Z" fill="black"/>
<path opacity="0.1" d="M45.0796 106.044C44.9288 106.723 45.0796 110.713 45.2027 113.155C45.7353 114.243 46.0695 114.961 46.0695 114.961C46.0695 114.961 45.6298 106.921 45.8484 105.934C46.0569 104.992 42.1902 98.0823 41.8058 97.3914L41.0043 97.4466C41.0043 97.4466 45.3007 105.039 45.0796 106.044Z" fill="black"/>
<path opacity="0.1" d="M57.5215 115.288C52.6774 115.398 48.3835 110.765 48.3835 110.765C48.2537 110.945 48.159 111.148 48.1046 111.363C49.3609 112.547 52.8784 115.479 56.7502 115.383C61.5943 115.273 67.3203 115.934 67.3203 115.934C67.3203 115.934 67.2977 115.861 67.2625 115.735C64.0263 115.405 60.7743 115.256 57.5215 115.288Z" fill="black"/>
<path opacity="0.1" d="M48.9338 124.536C48.9338 124.536 48.9791 125.225 48.9539 126.258C50.0996 128.519 52.185 132.418 53.1172 132.574L52.9539 131.67C51.3459 129.662 48.9338 124.536 48.9338 124.536Z" fill="black"/>
</g>
<path d="M52.0163 123.436L49.6772 123.938L47.833 124.328L48.8229 121.564L49.5114 121.391L50.5842 121.124C50.5842 121.124 52.1269 113.416 55.2098 113.969C58.2926 114.522 52.0163 123.436 52.0163 123.436Z" fill="#714B4F"/>
<path opacity="0.1" d="M49.6772 123.928L47.833 124.318L48.8229 121.554L49.5114 121.381C49.6654 122.221 49.721 123.076 49.6772 123.928Z" fill="black"/>
<path d="M31.4267 105.818C31.4267 105.818 34.0698 114.738 35.61 115.838C37.1502 116.939 46.5093 122.554 49.263 121.233C49.263 121.233 49.9238 124.537 48.9338 125.305C48.9338 125.305 38.6677 124.903 38.5848 124.866C38.5848 124.866 31.8689 123.984 30.7684 120.682C29.6679 117.381 28.3463 111.763 28.3463 111.763L31.4267 105.818Z" fill="#787C9C"/>
<path opacity="0.1" d="M34.7305 91.507C34.7305 91.507 34.5069 92.3688 34.2079 93.6226C34.8187 94.7762 35.7924 95.6965 36.9786 96.2415C38.1648 96.7864 39.4974 96.9256 40.7706 96.6376C40.5068 95.5069 40.5645 94.3763 41.3384 93.4793L34.7305 91.507Z" fill="black"/>
<path d="M39.3559 96.5698C42.639 96.5698 45.3005 93.9083 45.3005 90.6251C45.3005 87.342 42.639 84.6805 39.3559 84.6805C36.0727 84.6805 33.4113 87.342 33.4113 90.6251C33.4113 93.9083 36.0727 96.5698 39.3559 96.5698Z" fill="#714B4F"/>
<path opacity="0.1" d="M44.5167 88.9895C44.9483 89.1093 45.4003 89.1367 45.8433 89.0699C46.7704 88.8789 47.4312 87.9367 47.4538 86.9895C47.4445 86.515 47.3297 86.0485 47.1176 85.6239C46.9055 85.1993 46.6015 84.8272 46.2277 84.5348C45.7252 84.1152 45.1222 83.8162 44.6624 83.3489C44.1172 82.7936 43.8207 82.0449 43.4061 81.3916C42.6959 80.3054 41.6424 79.4881 40.4137 79.0701C39.5017 78.761 38.3861 78.7259 37.6851 79.3892C37.3258 79.7284 37.1148 80.2183 36.7128 80.5047C36.1299 80.9193 35.341 80.7962 34.6299 80.8791C33.9854 80.9782 33.3753 81.2345 32.8534 81.6254C32.3315 82.0162 31.9139 82.5297 31.6375 83.1203C31.0976 84.3167 30.9944 85.6646 31.3461 86.9292C31.4843 87.4694 31.6853 87.9945 31.8335 88.5322C32.1425 89.6528 32.2154 90.8286 32.5722 91.9341C32.9289 93.0397 33.6651 94.12 34.7782 94.4467C34.6901 93.2073 34.9347 91.9669 35.4867 90.8538C35.5781 90.6113 35.7575 90.4121 35.9892 90.296C36.1878 90.245 36.3961 90.245 36.5947 90.296C37.9887 90.5027 39.411 90.2147 40.6147 89.4819C41.0368 89.2307 41.6951 88.3488 42.1474 88.2609C42.7252 88.1578 43.9137 88.8538 44.5167 88.9895Z" fill="black"/>
<path d="M44.5165 88.7684C44.9481 88.8882 45.4002 88.9156 45.8431 88.8488C46.7702 88.6578 47.431 87.7156 47.4536 86.7684C47.4444 86.2939 47.3295 85.8274 47.1174 85.4028C46.9054 84.9781 46.6014 84.6061 46.2275 84.3137C45.725 83.8941 45.122 83.5951 44.6622 83.1278C44.117 82.5725 43.8206 81.8238 43.406 81.1705C42.6957 80.0842 41.6423 79.267 40.4136 78.849C39.5015 78.5399 38.386 78.5047 37.685 79.168C37.3257 79.5072 37.1147 79.9972 36.7126 80.2836C36.1297 80.6982 35.3408 80.575 34.6298 80.658C33.9853 80.757 33.3751 81.0133 32.8532 81.4042C32.3313 81.7951 31.9137 82.3085 31.6374 82.8991C31.0998 84.0926 30.9967 85.4365 31.3459 86.698C31.4841 87.2382 31.6851 87.7634 31.8334 88.301C32.1424 89.4216 32.2153 90.5975 32.572 91.703C32.9288 92.8085 33.665 93.8889 34.778 94.2155C34.69 92.9761 34.9346 91.7357 35.4865 90.6226C35.5779 90.3801 35.7574 90.1809 35.9891 90.0648C36.1877 90.0139 36.3959 90.0139 36.5946 90.0648C37.9885 90.2715 39.4109 89.9835 40.6146 89.2508C41.0367 88.9995 41.695 88.1176 42.1472 88.0297C42.7251 87.9367 43.9135 88.6352 44.5165 88.7684Z" fill="#503F43"/>
<path d="M186.7 27.0862H56.8657V182.359H186.7V27.0862Z" fill="#FAFBFC"/>
<path d="M186.7 27.0862H56.8657V32.3499H186.7V27.0862Z" fill="#7983A6"/>
<path d="M74.4105 90.3588H169.155" stroke="#7983A6" stroke-miterlimit="10"/>
<g opacity="0.5">
<path opacity="0.5" d="M74.4105 80.0499H75.918" stroke="#7983A6" stroke-miterlimit="10"/>
<path opacity="0.5" d="M78.8777 80.0499H166.167" stroke="#7983A6" stroke-miterlimit="10" stroke-dasharray="11.78 11.78"/>
<path opacity="0.5" d="M167.647 80.0499H169.155" stroke="#7983A6" stroke-miterlimit="10"/>
</g>
<g opacity="0.5">
<path opacity="0.5" d="M74.4105 69.7436H75.918" stroke="#7983A6" stroke-miterlimit="10"/>
<path opacity="0.5" d="M78.8777 69.7436H166.167" stroke="#7983A6" stroke-miterlimit="10" stroke-dasharray="11.78 11.78"/>
<path opacity="0.5" d="M167.647 69.7436H169.155" stroke="#7983A6" stroke-miterlimit="10"/>
</g>
<g opacity="0.5">
<path opacity="0.5" d="M74.4105 59.4348H75.918" stroke="#7983A6" stroke-miterlimit="10"/>
<path opacity="0.5" d="M78.8777 59.4348H166.167" stroke="#7983A6" stroke-miterlimit="10" stroke-dasharray="11.78 11.78"/>
<path opacity="0.5" d="M167.647 59.4348H169.155" stroke="#7983A6" stroke-miterlimit="10"/>
</g>
<g opacity="0.5">
<path opacity="0.5" d="M74.4105 49.1285H75.918" stroke="#7983A6" stroke-miterlimit="10"/>
<path opacity="0.5" d="M78.8777 49.1285H166.167" stroke="#7983A6" stroke-miterlimit="10" stroke-dasharray="11.78 11.78"/>
<path opacity="0.5" d="M167.647 49.1285H169.155" stroke="#7983A6" stroke-miterlimit="10"/>
</g>
<g opacity="0.3">
<path opacity="0.3" d="M85.9253 69.7436H79.1265V90.3588H85.9253V69.7436Z" fill="#22C88A"/>
</g>
<path d="M104.895 59.3242H98.0959V90.4668H104.895V59.3242Z" fill="#22C88A"/>
<g opacity="0.3">
<path opacity="0.3" d="M123.867 79.9394H117.068V90.5749H123.867V79.9394Z" fill="#22C88A"/>
</g>
<path d="M142.836 48.7993H136.037V90.4693H142.836V48.7993Z" fill="#22C88A"/>
<g opacity="0.3">
<path opacity="0.3" d="M161.806 58.8871H155.007V90.3588H161.806V58.8871Z" fill="#22C88A"/>
</g>
<path d="M82.5259 96.826C83.4945 96.826 84.2797 96.0408 84.2797 95.0723C84.2797 94.1037 83.4945 93.3185 82.5259 93.3185C81.5574 93.3185 80.7722 94.1037 80.7722 95.0723C80.7722 96.0408 81.5574 96.826 82.5259 96.826Z" fill="#22C88A"/>
<path d="M101.606 96.826C102.575 96.826 103.36 96.0408 103.36 95.0723C103.36 94.1037 102.575 93.3185 101.606 93.3185C100.638 93.3185 99.8524 94.1037 99.8524 95.0723C99.8524 96.0408 100.638 96.826 101.606 96.826Z" fill="#22C88A"/>
<path d="M120.686 96.826C121.655 96.826 122.44 96.0408 122.44 95.0723C122.44 94.1037 121.655 93.3185 120.686 93.3185C119.718 93.3185 118.932 94.1037 118.932 95.0723C118.932 96.0408 119.718 96.826 120.686 96.826Z" fill="#22C88A"/>
<path d="M139.766 96.826C140.735 96.826 141.52 96.0408 141.52 95.0723C141.52 94.1037 140.735 93.3185 139.766 93.3185C138.798 93.3185 138.012 94.1037 138.012 95.0723C138.012 96.0408 138.798 96.826 139.766 96.826Z" fill="#22C88A"/>
<path d="M158.846 96.826C159.815 96.826 160.6 96.0408 160.6 95.0723C160.6 94.1037 159.815 93.3185 158.846 93.3185C157.877 93.3185 157.092 94.1037 157.092 95.0723C157.092 96.0408 157.877 96.826 158.846 96.826Z" fill="#22C88A"/>
<path d="M74.4105 156.591H169.155" stroke="#7983A6" stroke-miterlimit="10"/>
<g opacity="0.5">
<path opacity="0.5" d="M74.4105 146.282H75.918" stroke="#7983A6" stroke-miterlimit="10"/>
<path opacity="0.5" d="M78.8777 146.282H166.167" stroke="#7983A6" stroke-miterlimit="10" stroke-dasharray="11.78 11.78"/>
<path opacity="0.5" d="M167.647 146.282H169.155" stroke="#7983A6" stroke-miterlimit="10"/>
</g>
<g opacity="0.5">
<path opacity="0.5" d="M74.4105 135.976H75.918" stroke="#7983A6" stroke-miterlimit="10"/>
<path opacity="0.5" d="M78.8777 135.976H166.167" stroke="#7983A6" stroke-miterlimit="10" stroke-dasharray="11.78 11.78"/>
<path opacity="0.5" d="M167.647 135.976H169.155" stroke="#7983A6" stroke-miterlimit="10"/>
</g>
<g opacity="0.5">
<path opacity="0.5" d="M74.4105 125.667H75.918" stroke="#7983A6" stroke-miterlimit="10"/>
<path opacity="0.5" d="M78.8777 125.667H166.167" stroke="#7983A6" stroke-miterlimit="10" stroke-dasharray="11.78 11.78"/>
<path opacity="0.5" d="M167.647 125.667H169.155" stroke="#7983A6" stroke-miterlimit="10"/>
</g>
<g opacity="0.5">
<path opacity="0.5" d="M74.4105 115.361H75.918" stroke="#7983A6" stroke-miterlimit="10"/>
<path opacity="0.5" d="M78.8777 115.361H166.167" stroke="#7983A6" stroke-miterlimit="10" stroke-dasharray="11.78 11.78"/>
<path opacity="0.5" d="M167.647 115.361H169.155" stroke="#7983A6" stroke-miterlimit="10"/>
</g>
<path d="M85.9253 135.976H79.1265V156.591H85.9253V135.976Z" fill="#22C88A"/>
<path d="M104.895 135.865H98.0959V156.699H104.895V135.865Z" fill="#22C88A"/>
<path d="M123.867 146.174H117.068V156.81H123.867V146.174Z" fill="#22C88A"/>
<path d="M142.836 115.032H136.037V156.702H142.836V115.032Z" fill="#22C88A"/>
<path d="M187.685 90.4467H180.886V121.918H187.685V90.4467Z" fill="#FD547F"/>
<g opacity="0.7">
<path opacity="0.7" d="M82.5259 163.058C83.4945 163.058 84.2797 162.273 84.2797 161.305C84.2797 160.336 83.4945 159.551 82.5259 159.551C81.5574 159.551 80.7722 160.336 80.7722 161.305C80.7722 162.273 81.5574 163.058 82.5259 163.058Z" fill="#22C88A"/>
</g>
<g opacity="0.7">
<path opacity="0.7" d="M101.606 163.058C102.575 163.058 103.36 162.273 103.36 161.305C103.36 160.336 102.575 159.551 101.606 159.551C100.638 159.551 99.8524 160.336 99.8524 161.305C99.8524 162.273 100.638 163.058 101.606 163.058Z" fill="#22C88A"/>
</g>
<g opacity="0.7">
<path opacity="0.7" d="M120.686 163.058C121.655 163.058 122.44 162.273 122.44 161.305C122.44 160.336 121.655 159.551 120.686 159.551C119.718 159.551 118.932 160.336 118.932 161.305C118.932 162.273 119.718 163.058 120.686 163.058Z" fill="#22C88A"/>
</g>
<g opacity="0.7">
<path opacity="0.7" d="M139.766 163.058C140.735 163.058 141.52 162.273 141.52 161.305C141.52 160.336 140.735 159.551 139.766 159.551C138.798 159.551 138.012 160.336 138.012 161.305C138.012 162.273 138.798 163.058 139.766 163.058Z" fill="#22C88A"/>
</g>
<g opacity="0.7">
<path opacity="0.7" d="M158.846 163.058C159.815 163.058 160.6 162.273 160.6 161.305C160.6 160.336 159.815 159.551 158.846 159.551C157.877 159.551 157.092 160.336 157.092 161.305C157.092 162.273 157.877 163.058 158.846 163.058Z" fill="#22C88A"/>
</g>
<path d="M47.2476 181.792C47.7081 181.416 48.0437 180.91 48.2099 180.339C48.3356 179.762 48.0893 179.071 47.5366 178.86C46.9185 178.623 46.2577 179.05 45.7577 179.485C45.2577 179.92 44.6824 180.412 44.0266 180.319C44.3636 180.014 44.6158 179.626 44.7584 179.194C44.9011 178.762 44.9294 178.301 44.8406 177.855C44.8123 177.67 44.7341 177.496 44.6145 177.352C44.2703 176.985 43.6497 177.143 43.2377 177.432C41.9312 178.352 41.5668 180.126 41.5593 181.724C41.4287 181.148 41.5392 180.548 41.5342 179.965C41.5292 179.382 41.3684 178.709 40.8709 178.402C40.5624 178.236 40.216 178.154 39.8659 178.164C39.2779 178.141 38.6247 178.201 38.2227 178.631C37.7202 179.164 37.8534 180.061 38.288 180.641C38.7227 181.221 39.381 181.596 39.989 182.003C40.4763 182.292 40.892 182.688 41.205 183.161C41.2419 183.226 41.2722 183.295 41.2955 183.367H44.9763C45.801 182.947 46.5651 182.417 47.2476 181.792Z" fill="#22C88A"/>
<path d="M226.139 178.777C226.599 178.401 226.935 177.895 227.101 177.324C227.227 176.746 226.98 176.056 226.428 175.845C225.81 175.608 225.149 176.035 224.649 176.47C224.149 176.905 223.573 177.397 222.918 177.304C223.255 176.999 223.507 176.611 223.65 176.179C223.792 175.747 223.821 175.286 223.732 174.839C223.703 174.655 223.625 174.481 223.506 174.337C223.161 173.97 222.541 174.128 222.129 174.417C220.822 175.337 220.458 177.111 220.45 178.709C220.32 178.133 220.43 177.533 220.425 176.95C220.42 176.367 220.259 175.694 219.762 175.387C219.454 175.221 219.107 175.139 218.757 175.149C218.169 175.126 217.516 175.186 217.114 175.616C216.611 176.149 216.744 177.045 217.179 177.626C217.614 178.206 218.272 178.581 218.88 178.988C219.367 179.277 219.783 179.673 220.096 180.146C220.133 180.211 220.163 180.28 220.187 180.352H223.867C224.692 179.932 225.456 179.402 226.139 178.777Z" fill="#22C88A"/>
<path d="M200.109 117.969L198.272 117.755L184.202 116.12C175.662 113.421 181.064 109.311 181.064 109.311L186.75 114.713C188.391 115.042 194.823 114.275 197.705 113.906C198.569 113.793 199.114 113.718 199.114 113.718L200.109 117.969Z" fill="#FDC2CC"/>
<path d="M213.895 98.5069C213.895 98.5069 210.199 95.522 204.657 105.188C199.114 114.853 197.835 113.288 197.835 113.288C197.835 113.288 198.973 117.559 198.403 118.406C198.403 118.406 202.24 118.122 203.662 118.406C205.084 118.69 213.895 107.602 213.895 107.602C213.895 107.602 218.445 101.341 213.895 98.5069Z" fill="#F68080"/>
<defs>
<linearGradient id="paint0_linear" x1="196.787" y1="183.91" x2="196.787" y2="78.5274" gradientUnits="userSpaceOnUse">
<stop stop-color="#808080" stop-opacity="0.25"/>
<stop offset="0.54" stop-color="#808080" stop-opacity="0.12"/>
<stop offset="1" stop-color="#808080" stop-opacity="0.1"/>
</linearGradient>
<linearGradient id="paint1_linear" x1="16806.5" y1="86826.3" x2="16806.5" y2="40588.3" gradientUnits="userSpaceOnUse">
<stop stop-color="#808080" stop-opacity="0.25"/>
<stop offset="0.54" stop-color="#808080" stop-opacity="0.12"/>
<stop offset="1" stop-color="#808080" stop-opacity="0.1"/>
</linearGradient>
</defs>
</svg>
