<svg width="360" height="240" viewBox="0 0 360 240" fill="none" xmlns="http://www.w3.org/2000/svg">
<path opacity="0.1" d="M156.407 172.306C161.413 189.685 176.763 202.628 192.189 211.625C240.642 239.879 296.481 242.237 348.321 237.477C367.092 235.753 386.079 233.088 402.24 224.362C435.135 206.603 451.132 162.598 439.285 122.412C435.259 108.744 428.461 95.8352 421.023 83.4646C407.8 61.4651 392.099 40.4718 372.39 24.4979C358.327 13.1131 342.561 4.52817 326.57 -2.93331C281.901 -23.7625 233.996 -36.4751 187.487 -34.9672C167.088 -34.3052 146.218 -30.5401 131.222 -17.6585C116.225 -4.77692 108.96 19.2391 118.975 39.2586C123.117 47.5346 129.682 54.3516 136.144 60.9501C145.661 70.6642 155.369 80.4546 162.436 92.1345C169.732 104.206 176.209 122.578 167.948 133.289C159.057 144.758 151.409 154.95 156.407 172.306Z" fill="#22C88A"/>
<path opacity="0.5" d="M359.967 126H0.447754V127.2H359.967V126Z" fill="#DCE0ED"/>
<path opacity="0.5" d="M359.967 153.891H0.447754V155.091H359.967V153.891Z" fill="#DCE0ED"/>
<path opacity="0.5" d="M359.967 181.783H0.447754V182.983H359.967V181.783Z" fill="#DCE0ED"/>
<path opacity="0.5" d="M359.967 209.674H0.447754V210.874H359.967V209.674Z" fill="#DCE0ED"/>
<path opacity="0.5" d="M359.965 238.752H0V183.904L33.019 200.172L67.1822 204.805L97.1596 195.77L133.325 167.718L151.519 157.212L164.816 154.652L177.541 155.335L198.47 165.667L226.913 183.785L249.23 186.659L266.936 180.555L304.448 149.824L323.605 143.001L343.648 146.099L359.965 155.524V238.752Z" fill="url(#paint0_linear)"/>
<path d="M62.7453 204.826C30.3262 204.826 0.376723 184.999 0 184.748L0.892971 183.415C1.35341 183.722 47.4671 214.23 86.6392 198.945C100.92 193.364 111.098 184.713 120.935 176.327C131.204 167.579 140.908 159.312 154.128 155.726C169.302 151.617 185.878 155.336 198.47 165.688C209.234 174.534 230.68 188.71 253.325 184.525C264.878 182.355 274.61 173.92 284.914 164.991C304.636 147.843 325.091 130.144 360.447 155.538L359.498 156.849C325.188 132.188 305.243 149.468 285.96 166.184C275.496 175.253 265.596 183.827 253.625 186.073C230.324 190.447 208.432 175.958 197.451 166.93C185.257 156.912 169.218 153.305 154.554 157.282C141.676 160.77 132.104 168.925 121.974 177.555C112.033 186.024 101.743 194.78 87.2252 200.445C79.4103 203.42 71.1072 204.906 62.7453 204.826Z" fill="#22C88A"/>
<path d="M157.44 164.4C162.36 164.4 166.348 160.412 166.348 155.491C166.348 150.571 162.36 146.583 157.44 146.583C152.519 146.583 148.531 150.571 148.531 155.491C148.531 160.412 152.519 164.4 157.44 164.4Z" fill="#22C88A"/>
<defs>
<linearGradient id="paint0_linear" x1="179.983" y1="143.001" x2="179.983" y2="238.752" gradientUnits="userSpaceOnUse">
<stop stop-color="#22C88A"/>
<stop offset="1" stop-color="#22C88A" stop-opacity="0"/>
</linearGradient>
</defs>
</svg>
