<svg width="309" height="346" viewBox="0 0 309 346" fill="none" xmlns="http://www.w3.org/2000/svg">
<path opacity="0.1" d="M102.407 153.152C107.412 168.641 122.763 180.175 138.189 188.194C186.642 213.374 242.481 215.476 294.321 211.234C313.092 209.698 332.079 207.323 348.24 199.545C381.134 183.718 397.132 144.5 385.284 108.686C381.259 96.5039 374.46 84.9995 367.023 73.9745C353.8 54.368 338.098 35.6583 318.39 21.422C304.326 11.2755 288.561 3.62447 272.57 -3.02537C227.9 -21.5888 179.996 -32.9186 133.486 -31.5747C113.087 -30.9848 92.2179 -27.6292 77.2215 -16.1488C62.225 -4.66843 54.9595 16.7352 64.9752 34.5771C69.1169 41.9528 75.6814 48.0283 82.1438 53.909C91.6604 62.5665 101.369 71.2919 108.436 81.7014C115.731 92.4597 122.209 108.833 113.948 118.379C105.057 128.601 97.4089 137.684 102.407 153.152Z" fill="#22C88A"/>
<g opacity="0.1">
<path opacity="0.1" d="M168 293.589C168 293.589 168.961 281.006 176.539 274.146C179.738 271.287 181.858 267.536 182.581 263.455C182.907 261.515 183.043 259.552 182.988 257.589" fill="#22C88A"/>
<path opacity="0.1" d="M185.841 253.72C185.355 254.92 181.598 257.589 181.598 257.589C181.598 257.589 180.65 253.297 181.141 252.096C181.374 251.52 181.845 251.053 182.45 250.798C183.056 250.543 183.746 250.52 184.369 250.736C184.993 250.951 185.498 251.386 185.774 251.946C186.05 252.505 186.074 253.144 185.841 253.72Z" fill="#22C88A"/>
<path opacity="0.1" d="M187.152 263.105C186.169 264.12 182 264.589 182 264.589C182 264.589 183.528 259.165 184.511 258.148C184.984 257.687 185.568 257.5 186.138 257.628C186.708 257.757 187.219 258.19 187.563 258.836C187.907 259.481 188.057 260.288 187.98 261.085C187.904 261.882 187.607 262.606 187.152 263.103V263.105Z" fill="#22C88A"/>
<path opacity="0.1" d="M182.835 275.581C181.41 275.733 177 273.681 177 273.681C177 273.681 180.845 270.74 182.267 270.593C182.929 270.557 183.579 270.769 184.084 271.185C184.589 271.6 184.912 272.187 184.984 272.826C185.057 273.465 184.875 274.106 184.475 274.618C184.076 275.131 183.489 275.475 182.835 275.581Z" fill="#22C88A"/>
<path opacity="0.1" d="M176.816 284.519C175.274 284.9 170 283.599 170 283.599C170 283.599 173.671 280.087 175.213 279.707C175.584 279.605 175.974 279.569 176.361 279.599C176.748 279.63 177.124 279.727 177.466 279.886C177.809 280.044 178.111 280.259 178.355 280.52C178.599 280.78 178.78 281.08 178.887 281.402C178.994 281.724 179.026 282.061 178.979 282.394C178.932 282.726 178.809 283.047 178.616 283.338C178.423 283.629 178.164 283.883 177.855 284.086C177.545 284.289 177.192 284.436 176.816 284.519Z" fill="#22C88A"/>
<path opacity="0.1" d="M176.211 263.431C176.801 264.797 180.769 267.589 180.769 267.589C180.769 267.589 181.317 262.453 180.725 261.084C180.429 260.449 179.92 259.965 179.304 259.735C178.689 259.505 178.016 259.548 177.428 259.853C176.841 260.159 176.385 260.703 176.158 261.371C175.93 262.039 175.95 262.778 176.211 263.431Z" fill="#22C88A"/>
<path opacity="0.1" d="M168.75 272.789C169.825 274.045 175 275.589 175 275.589C175 275.589 173.997 269.836 172.93 268.577C172.417 267.976 171.706 267.622 170.953 267.591C170.2 267.56 169.467 267.856 168.914 268.413C168.361 268.971 168.033 269.744 168.002 270.564C167.972 271.384 168.24 272.184 168.75 272.789Z" fill="#22C88A"/>
<path opacity="0.1" d="M163.475 283.963C164.449 285.294 170 287.589 170 287.589C170 287.589 169.89 282.158 168.913 280.83C168.432 280.214 167.7 279.788 166.872 279.643C166.043 279.498 165.184 279.646 164.476 280.054C163.768 280.462 163.267 281.098 163.08 281.829C162.894 282.559 163.035 283.325 163.475 283.963Z" fill="#22C88A"/>
<path opacity="0.1" d="M185.841 253.72C185.355 254.92 181.598 257.589 181.598 257.589C181.598 257.589 180.65 253.297 181.141 252.096C181.374 251.52 181.845 251.053 182.45 250.798C183.056 250.543 183.746 250.52 184.369 250.736C184.993 250.951 185.498 251.386 185.774 251.946C186.05 252.505 186.074 253.144 185.841 253.72Z" fill="#22C88A"/>
<path opacity="0.1" d="M187.152 263.105C186.169 264.12 182 264.589 182 264.589C182 264.589 183.528 259.165 184.511 258.148C184.984 257.687 185.568 257.5 186.138 257.628C186.708 257.757 187.219 258.19 187.563 258.836C187.907 259.481 188.057 260.288 187.98 261.085C187.904 261.882 187.607 262.606 187.152 263.103V263.105Z" fill="#22C88A"/>
<path opacity="0.1" d="M182.835 275.581C181.41 275.733 177 273.681 177 273.681C177 273.681 180.845 270.74 182.267 270.593C182.929 270.557 183.579 270.769 184.084 271.185C184.589 271.6 184.912 272.187 184.984 272.826C185.057 273.465 184.875 274.106 184.475 274.618C184.076 275.131 183.489 275.475 182.835 275.581Z" fill="#22C88A"/>
<path opacity="0.1" d="M176.816 284.519C175.274 284.9 170 283.599 170 283.599C170 283.599 173.671 280.087 175.213 279.707C175.584 279.605 175.974 279.569 176.361 279.599C176.748 279.63 177.124 279.727 177.466 279.886C177.809 280.044 178.111 280.259 178.355 280.52C178.599 280.78 178.78 281.08 178.887 281.402C178.994 281.724 179.026 282.061 178.979 282.394C178.932 282.726 178.809 283.047 178.616 283.338C178.423 283.629 178.164 283.883 177.855 284.086C177.545 284.289 177.192 284.436 176.816 284.519Z" fill="#22C88A"/>
<path opacity="0.1" d="M176.211 263.431C176.801 264.797 180.769 267.589 180.769 267.589C180.769 267.589 181.317 262.453 180.725 261.084C180.429 260.449 179.92 259.965 179.304 259.735C178.689 259.505 178.016 259.548 177.428 259.853C176.841 260.159 176.385 260.703 176.158 261.371C175.93 262.039 175.95 262.778 176.211 263.431Z" fill="#22C88A"/>
<path opacity="0.1" d="M168.75 272.789C169.825 274.045 175 275.589 175 275.589C175 275.589 173.997 269.836 172.93 268.577C172.417 267.976 171.706 267.622 170.953 267.591C170.2 267.56 169.467 267.856 168.914 268.413C168.361 268.971 168.033 269.744 168.002 270.564C167.972 271.384 168.24 272.184 168.75 272.789Z" fill="#22C88A"/>
<path opacity="0.1" d="M163.475 283.963C164.449 285.294 170 287.589 170 287.589C170 287.589 169.89 282.158 168.913 280.83C168.432 280.214 167.7 279.788 166.872 279.643C166.043 279.498 165.184 279.646 164.476 280.054C163.768 280.462 163.267 281.098 163.08 281.829C162.894 282.559 163.035 283.325 163.475 283.963Z" fill="#22C88A"/>
</g>
<g opacity="0.1">
<path opacity="0.1" d="M170 246.589C170 246.589 170.897 234.006 177.969 227.146C180.954 224.286 182.932 220.536 183.608 216.455C183.915 214.516 184.042 212.552 183.988 210.589" fill="#22C88A"/>
<path opacity="0.1" d="M188.809 206.168C188.24 207.538 183.72 210.589 183.72 210.589C183.72 210.589 182.582 205.682 183.168 204.312C183.447 203.653 184.013 203.119 184.739 202.828C185.466 202.536 186.295 202.51 187.043 202.757C187.791 203.003 188.397 203.5 188.729 204.14C189.06 204.78 189.089 205.509 188.809 206.168Z" fill="#22C88A"/>
<path opacity="0.1" d="M189.761 216.126C188.473 217.129 183 217.589 183 217.589C183 217.589 185.005 212.242 186.296 211.239C186.601 210.988 186.952 210.803 187.327 210.696C187.702 210.589 188.093 210.562 188.478 210.616C188.863 210.67 189.234 210.804 189.569 211.011C189.904 211.217 190.195 211.492 190.427 211.819C190.658 212.145 190.825 212.517 190.917 212.912C191.009 213.307 191.025 213.718 190.963 214.119C190.901 214.521 190.762 214.905 190.556 215.25C190.35 215.594 190.08 215.892 189.761 216.126Z" fill="#22C88A"/>
<path opacity="0.1" d="M184.697 228.577C183.307 228.728 179 226.685 179 226.685C179 226.685 182.755 223.758 184.144 223.609C184.478 223.567 184.817 223.591 185.142 223.679C185.466 223.768 185.769 223.92 186.034 224.126C186.298 224.331 186.519 224.587 186.682 224.878C186.845 225.169 186.948 225.49 186.985 225.821C187.022 226.152 186.991 226.486 186.896 226.806C186.8 227.125 186.641 227.422 186.428 227.68C186.215 227.937 185.952 228.151 185.655 228.307C185.358 228.463 185.032 228.559 184.697 228.589V228.577Z" fill="#22C88A"/>
<path opacity="0.1" d="M178.371 237.519C177.156 237.901 173 236.594 173 236.594C173 236.594 175.895 233.063 177.108 232.677C177.689 232.503 178.309 232.588 178.834 232.913C179.359 233.238 179.746 233.777 179.912 234.414C180.077 235.05 180.008 235.733 179.72 236.314C179.431 236.896 178.946 237.328 178.369 237.519H178.371Z" fill="#22C88A"/>
<path opacity="0.1" d="M179.207 215.49C179.674 216.839 182.818 219.589 182.818 219.589C182.818 219.589 183.25 214.527 182.783 213.181C182.675 212.854 182.52 212.559 182.328 212.314C182.135 212.069 181.909 211.879 181.662 211.755C181.416 211.631 181.153 211.576 180.89 211.592C180.628 211.608 180.37 211.695 180.132 211.848C179.894 212.002 179.681 212.219 179.506 212.486C179.33 212.753 179.195 213.065 179.109 213.404C179.023 213.743 178.987 214.103 179.004 214.461C179.021 214.819 179.09 215.169 179.207 215.49Z" fill="#22C88A"/>
<path opacity="0.1" d="M170.813 226.123C172.049 227.232 178 228.589 178 228.589C178 228.589 176.844 223.523 175.618 222.416C175.023 221.905 174.212 221.609 173.359 221.59C172.506 221.571 171.678 221.831 171.051 222.314C170.425 222.798 170.049 223.467 170.004 224.178C169.96 224.89 170.25 225.587 170.813 226.123Z" fill="#22C88A"/>
<path opacity="0.1" d="M166.405 237.47C167.093 238.615 171 240.589 171 240.589C171 240.589 170.922 235.916 170.234 234.774C170.075 234.491 169.865 234.246 169.617 234.053C169.369 233.86 169.088 233.723 168.79 233.65C168.492 233.577 168.184 233.569 167.883 233.627C167.582 233.686 167.295 233.808 167.039 233.989C166.783 234.169 166.563 234.403 166.392 234.677C166.221 234.951 166.102 235.26 166.043 235.584C165.984 235.909 165.986 236.243 166.048 236.567C166.11 236.891 166.231 237.198 166.405 237.47Z" fill="#22C88A"/>
<path opacity="0.1" d="M188.809 206.168C188.24 207.538 183.72 210.589 183.72 210.589C183.72 210.589 182.582 205.682 183.168 204.312C183.447 203.653 184.013 203.119 184.739 202.828C185.466 202.536 186.295 202.51 187.043 202.757C187.791 203.003 188.397 203.5 188.729 204.14C189.06 204.78 189.089 205.509 188.809 206.168Z" fill="#22C88A"/>
<path opacity="0.1" d="M189.761 216.126C188.473 217.129 183 217.589 183 217.589C183 217.589 185.005 212.242 186.296 211.239C186.601 210.988 186.952 210.803 187.327 210.696C187.702 210.589 188.093 210.562 188.478 210.616C188.863 210.67 189.234 210.804 189.569 211.011C189.904 211.217 190.195 211.492 190.427 211.819C190.658 212.145 190.825 212.517 190.917 212.912C191.009 213.307 191.025 213.718 190.963 214.119C190.901 214.521 190.762 214.905 190.556 215.25C190.35 215.594 190.08 215.892 189.761 216.126Z" fill="#22C88A"/>
<path opacity="0.1" d="M184.697 228.577C183.307 228.728 179 226.685 179 226.685C179 226.685 182.755 223.758 184.144 223.609C184.478 223.567 184.817 223.591 185.142 223.679C185.466 223.768 185.769 223.92 186.034 224.126C186.298 224.331 186.519 224.587 186.682 224.878C186.845 225.169 186.948 225.49 186.985 225.821C187.022 226.152 186.991 226.486 186.896 226.806C186.8 227.125 186.641 227.422 186.428 227.68C186.215 227.937 185.952 228.151 185.655 228.307C185.358 228.463 185.032 228.559 184.697 228.589V228.577Z" fill="#22C88A"/>
<path opacity="0.1" d="M178.371 237.519C177.156 237.901 173 236.594 173 236.594C173 236.594 175.895 233.063 177.108 232.677C177.689 232.503 178.309 232.588 178.834 232.913C179.359 233.238 179.746 233.777 179.912 234.414C180.077 235.05 180.008 235.733 179.72 236.314C179.431 236.896 178.946 237.328 178.369 237.519H178.371Z" fill="#22C88A"/>
<path opacity="0.1" d="M179.207 215.49C179.674 216.839 182.818 219.589 182.818 219.589C182.818 219.589 183.25 214.527 182.783 213.181C182.675 212.854 182.52 212.559 182.328 212.314C182.135 212.069 181.909 211.879 181.662 211.755C181.416 211.631 181.153 211.576 180.89 211.592C180.628 211.608 180.37 211.695 180.132 211.848C179.894 212.002 179.681 212.219 179.506 212.486C179.33 212.753 179.195 213.065 179.109 213.404C179.023 213.743 178.987 214.103 179.004 214.461C179.021 214.819 179.09 215.169 179.207 215.49Z" fill="#22C88A"/>
<path opacity="0.1" d="M170.813 226.123C172.049 227.232 178 228.589 178 228.589C178 228.589 176.844 223.523 175.618 222.416C175.023 221.905 174.212 221.609 173.359 221.59C172.506 221.571 171.678 221.831 171.051 222.314C170.425 222.798 170.049 223.467 170.004 224.178C169.96 224.89 170.25 225.587 170.813 226.123Z" fill="#22C88A"/>
<path opacity="0.1" d="M166.405 237.47C167.093 238.615 171 240.589 171 240.589C171 240.589 170.922 235.916 170.234 234.774C170.075 234.491 169.865 234.246 169.617 234.053C169.369 233.86 169.088 233.723 168.79 233.65C168.492 233.577 168.184 233.569 167.883 233.627C167.582 233.686 167.295 233.808 167.039 233.989C166.783 234.169 166.563 234.403 166.392 234.677C166.221 234.951 166.102 235.26 166.043 235.584C165.984 235.909 165.986 236.243 166.048 236.567C166.11 236.891 166.231 237.198 166.405 237.47Z" fill="#22C88A"/>
</g>
<g opacity="0.1">
<path opacity="0.1" d="M38 263.589C38 263.589 27.111 257.061 24.1459 247.554C22.9315 243.556 20.4585 240.062 17.099 237.599C15.4949 236.44 13.788 235.433 12 234.589" fill="#22C88A"/>
<path opacity="0.1" d="M10.9098 228.41C11.9914 229.518 13 234.589 13 234.589C13 234.589 7.78388 233.233 6.71036 232.126C6.21868 231.59 5.9652 230.893 6.00385 230.181C6.0425 229.47 6.37021 228.802 6.91729 228.318C7.46438 227.833 8.18765 227.572 8.93326 227.59C9.67887 227.607 10.388 227.901 10.9098 228.41Z" fill="#22C88A"/>
<path opacity="0.1" d="M18.9784 231.758C19.2147 233.141 17.4375 237.589 17.4375 237.589C17.4375 237.589 14.2848 234.013 14.0485 232.63C13.9831 232.297 13.9839 231.955 14.0508 231.622C14.1177 231.29 14.2494 230.974 14.4381 230.695C14.6269 230.415 14.8688 230.176 15.1497 229.993C15.4306 229.809 15.7447 229.685 16.0737 229.627C16.4026 229.568 16.7397 229.578 17.0651 229.654C17.3904 229.73 17.6975 229.872 17.9682 230.07C18.2388 230.269 18.4677 230.521 18.6411 230.811C18.8146 231.1 18.9293 231.423 18.9784 231.758Z" fill="#22C88A"/>
<path opacity="0.1" d="M28.7809 242.203C28.2149 243.563 23.7174 246.589 23.7174 246.589C23.7174 246.589 22.5852 241.727 23.1655 240.369C23.2947 240.037 23.4987 239.73 23.7654 239.468C24.0321 239.206 24.356 238.993 24.7181 238.842C25.0801 238.692 25.4729 238.606 25.8733 238.591C26.2736 238.576 26.6733 238.632 27.0489 238.754C27.4244 238.877 27.768 239.064 28.0595 239.305C28.351 239.546 28.5844 239.836 28.7458 240.158C28.9073 240.48 28.9936 240.826 28.9997 241.178C29.0057 241.529 28.9313 241.878 28.7809 242.203Z" fill="#22C88A"/>
<path opacity="0.1" d="M33.9564 251.62C33.7004 253.014 30.4865 256.589 30.4865 256.589C30.4865 256.589 28.7681 252.071 29.0265 250.679C29.0876 250.348 29.2119 250.032 29.3923 249.75C29.5727 249.468 29.8056 249.225 30.0778 249.035C30.3499 248.845 30.6559 248.712 30.9784 248.643C31.3009 248.574 31.6335 248.571 31.9572 248.633C32.2809 248.696 32.5894 248.823 32.865 249.008C33.1407 249.192 33.3781 249.431 33.5637 249.709C33.7494 249.988 33.8796 250.301 33.947 250.631C34.0144 250.961 34.0175 251.301 33.9564 251.632V251.62Z" fill="#22C88A"/>
<path opacity="0.1" d="M13.7481 241.58C15.3321 241.62 20 238.746 20 238.746C20 238.746 15.4704 235.629 13.8837 235.589C13.1317 235.586 12.4085 235.891 11.8695 236.439C11.3304 236.987 11.0186 237.734 11.0008 238.519C10.983 239.305 11.2608 240.067 11.7745 240.64C12.2882 241.214 12.9968 241.555 13.7481 241.589V241.58Z" fill="#22C88A"/>
<path opacity="0.1" d="M19.7003 251.523C21.2679 251.214 25 248.383 25 248.383C25 248.383 19.6389 247.337 18.0713 247.646C17.3352 247.803 16.7184 248.151 16.3528 248.615C15.9872 249.079 15.9019 249.622 16.115 250.129C16.3281 250.635 16.8228 251.064 17.4933 251.325C18.1638 251.585 18.9569 251.657 19.7031 251.523H19.7003Z" fill="#22C88A"/>
<path opacity="0.1" d="M26.9134 262.548C28.2897 262.367 32 258.865 32 258.865C32 258.865 27.7435 256.412 26.3648 256.599C26.0251 256.621 25.6928 256.726 25.3882 256.908C25.0836 257.089 24.8131 257.343 24.5931 257.654C24.3732 257.965 24.2085 258.326 24.1091 258.716C24.0098 259.106 23.9778 259.516 24.0151 259.921C24.0525 260.326 24.1584 260.718 24.3264 261.072C24.4944 261.426 24.721 261.736 24.9922 261.982C25.2635 262.228 25.5738 262.405 25.9041 262.502C26.2344 262.599 26.5779 262.615 26.9134 262.548Z" fill="#22C88A"/>
<path opacity="0.1" d="M10.9098 228.41C11.9914 229.518 13 234.589 13 234.589C13 234.589 7.78388 233.233 6.71036 232.126C6.21868 231.59 5.9652 230.893 6.00385 230.181C6.0425 229.47 6.37021 228.802 6.91729 228.318C7.46438 227.833 8.18765 227.572 8.93326 227.59C9.67887 227.607 10.388 227.901 10.9098 228.41Z" fill="#22C88A"/>
<path opacity="0.1" d="M18.9784 231.758C19.2147 233.141 17.4375 237.589 17.4375 237.589C17.4375 237.589 14.2848 234.013 14.0485 232.63C13.9831 232.297 13.9839 231.955 14.0508 231.622C14.1177 231.29 14.2494 230.974 14.4381 230.695C14.6269 230.415 14.8688 230.176 15.1497 229.993C15.4306 229.809 15.7447 229.685 16.0737 229.627C16.4026 229.568 16.7397 229.578 17.0651 229.654C17.3904 229.73 17.6975 229.872 17.9682 230.07C18.2388 230.269 18.4677 230.521 18.6411 230.811C18.8146 231.1 18.9293 231.423 18.9784 231.758Z" fill="#22C88A"/>
<path opacity="0.1" d="M28.7809 242.203C28.2149 243.563 23.7174 246.589 23.7174 246.589C23.7174 246.589 22.5852 241.727 23.1655 240.369C23.2947 240.037 23.4987 239.73 23.7654 239.468C24.0321 239.206 24.356 238.993 24.7181 238.842C25.0801 238.692 25.4729 238.606 25.8733 238.591C26.2736 238.576 26.6733 238.632 27.0489 238.754C27.4244 238.877 27.768 239.064 28.0595 239.305C28.351 239.546 28.5844 239.836 28.7458 240.158C28.9073 240.48 28.9936 240.826 28.9997 241.178C29.0057 241.529 28.9313 241.878 28.7809 242.203Z" fill="#22C88A"/>
<path opacity="0.1" d="M33.9564 251.62C33.7004 253.014 30.4865 256.589 30.4865 256.589C30.4865 256.589 28.7681 252.071 29.0265 250.679C29.0876 250.348 29.2119 250.032 29.3923 249.75C29.5727 249.468 29.8056 249.225 30.0778 249.035C30.3499 248.845 30.6559 248.712 30.9784 248.643C31.3009 248.574 31.6335 248.571 31.9572 248.633C32.2809 248.696 32.5894 248.823 32.865 249.008C33.1407 249.192 33.3781 249.431 33.5637 249.709C33.7494 249.988 33.8796 250.301 33.947 250.631C34.0144 250.961 34.0175 251.301 33.9564 251.632V251.62Z" fill="#22C88A"/>
<path opacity="0.1" d="M13.7481 241.58C15.3321 241.62 20 238.746 20 238.746C20 238.746 15.4704 235.629 13.8837 235.589C13.1317 235.586 12.4085 235.891 11.8695 236.439C11.3304 236.987 11.0186 237.734 11.0008 238.519C10.983 239.305 11.2608 240.067 11.7745 240.64C12.2882 241.214 12.9968 241.555 13.7481 241.589V241.58Z" fill="#22C88A"/>
<path opacity="0.1" d="M19.7003 251.523C21.2679 251.214 25 248.383 25 248.383C25 248.383 19.6389 247.337 18.0713 247.646C17.3352 247.803 16.7184 248.151 16.3528 248.615C15.9872 249.079 15.9019 249.622 16.115 250.129C16.3281 250.635 16.8228 251.064 17.4933 251.325C18.1638 251.585 18.9569 251.657 19.7031 251.523H19.7003Z" fill="#22C88A"/>
<path opacity="0.1" d="M26.9134 262.548C28.2897 262.367 32 258.865 32 258.865C32 258.865 27.7435 256.412 26.3648 256.599C26.0251 256.621 25.6928 256.726 25.3882 256.908C25.0836 257.089 24.8131 257.343 24.5931 257.654C24.3732 257.965 24.2085 258.326 24.1091 258.716C24.0098 259.106 23.9778 259.516 24.0151 259.921C24.0525 260.326 24.1584 260.718 24.3264 261.072C24.4944 261.426 24.721 261.736 24.9922 261.982C25.2635 262.228 25.5738 262.405 25.9041 262.502C26.2344 262.599 26.5779 262.615 26.9134 262.548Z" fill="#22C88A"/>
</g>
<path opacity="0.1" d="M168 338.067C175.24 341.16 184.073 339.278 192.288 339.496C193.41 339.526 194.603 339.617 195.503 340.152C196.403 340.687 196.85 341.551 197.467 342.294C199.77 345.052 204.488 345.938 208.61 345.47C212.733 345.002 216.513 343.452 220.404 342.274C227.129 340.234 234.815 339.303 241.449 341.531C242.057 341.734 242.71 341.969 243.351 341.888C244.806 341.707 245.239 340.226 246.255 339.382C248.091 337.854 252.08 338.27 252.887 336.257C253.359 335.079 252.272 333.871 251.087 333.066C246.548 329.986 240.067 329.479 234.134 329.954C228.201 330.429 222.368 331.739 216.405 331.744C208.974 331.744 201.795 329.734 194.437 328.909C189.34 328.34 183.778 328.414 178.999 330.09C173.82 331.902 172.68 335.985 168 338.067Z" fill="#22C88A"/>
<path opacity="0.1" d="M32 327.737C44.3484 331.374 59.4186 329.16 73.4303 329.418C75.3481 329.454 77.3793 329.56 78.9191 330.191C80.4588 330.823 81.2149 331.841 82.2708 332.712C86.1971 335.957 94.2437 337 101.275 336.449C108.306 335.897 114.757 334.075 121.395 332.689C132.867 330.289 145.981 329.196 157.296 331.812C158.335 332.052 159.428 332.328 160.542 332.232C163.022 332.018 163.76 330.279 165.497 329.284C168.629 327.48 175.431 327.977 176.807 325.611C177.613 324.225 175.759 322.802 173.737 321.856C166.006 318.235 154.943 317.637 144.819 318.196C134.696 318.756 124.747 320.294 114.578 320.302C101.902 320.302 89.6546 317.939 77.1021 316.967C68.4078 316.297 58.9196 316.379 50.7671 318.359C41.9292 320.495 39.9811 325.297 32 327.737Z" fill="#22C88A"/>
<path opacity="0.1" d="M0 336.728C3.50006 338.726 7.75013 337.511 11.7152 337.651C12.2577 337.67 12.8327 337.729 13.2677 338.073C13.7027 338.417 13.9177 338.98 14.2152 339.459C15.3253 341.241 17.6003 341.815 19.5878 341.512C21.5754 341.208 23.4004 340.209 25.2779 339.445C28.528 338.128 32.2305 337.527 35.4281 338.97C35.7021 339.136 36.0231 339.219 36.3481 339.207C37.0481 339.089 37.2581 338.132 37.7481 337.587C38.6331 336.6 40.5582 336.875 40.9457 335.567C41.1732 334.805 40.6482 334.025 40.0782 333.505C37.8931 331.514 34.7631 331.187 31.9005 331.493C29.038 331.799 26.2254 332.629 23.3479 332.629C19.7653 332.629 16.3028 331.331 12.7527 330.797C10.2927 330.427 7.61012 330.475 5.30509 331.562C2.80755 332.748 2.25754 335.387 0 336.728Z" fill="#22C88A"/>
<path d="M163.304 144.589H46.6965C45.2939 144.587 43.9046 144.859 42.6079 145.391C41.3112 145.924 40.1326 146.705 39.1393 147.69C38.146 148.676 37.3575 149.846 36.8189 151.135C36.2802 152.424 36.002 153.806 36 155.201V315.984C36.006 318.801 37.1361 321.502 39.142 323.49C41.1478 325.479 43.8651 326.593 46.6965 326.589H163.304C164.706 326.591 166.095 326.318 167.392 325.786C168.689 325.254 169.867 324.473 170.861 323.488C171.854 322.502 172.642 321.332 173.181 320.043C173.72 318.754 173.998 317.372 174 315.976V155.201C173.998 153.806 173.72 152.424 173.181 151.135C172.642 149.846 171.854 148.676 170.861 147.69C169.867 146.705 168.689 145.924 167.392 145.391C166.095 144.859 164.706 144.587 163.304 144.589Z" fill="url(#paint0_linear)"/>
<path d="M167.969 147.589H43.0306C40.2523 147.589 38 149.823 38 152.579V320.599C38 323.355 40.2523 325.589 43.0306 325.589H167.969C170.748 325.589 173 323.355 173 320.599V152.579C173 149.823 170.748 147.589 167.969 147.589Z" fill="#535461"/>
<path d="M165 164.589H44V308.589H165V164.589Z" fill="#F6F7F9"/>
<path d="M104.5 156.589C105.328 156.589 106 155.917 106 155.089C106 154.26 105.328 153.589 104.5 153.589C103.672 153.589 103 154.26 103 155.089C103 155.917 103.672 156.589 104.5 156.589Z" fill="#F6F7F9"/>
<path d="M104.5 321.589C106.985 321.589 109 319.574 109 317.089C109 314.604 106.985 312.589 104.5 312.589C102.015 312.589 100 314.604 100 317.089C100 319.574 102.015 321.589 104.5 321.589Z" fill="#F6F7F9"/>
<g opacity="0.2">
<path opacity="0.2" d="M165 164.589H44V171.589H165V164.589Z" fill="#22C88A"/>
</g>
<path d="M48.5 168.589C49.3284 168.589 50 167.917 50 167.089C50 166.26 49.3284 165.589 48.5 165.589C47.6716 165.589 47 166.26 47 167.089C47 167.917 47.6716 168.589 48.5 168.589Z" fill="#F6F7F9"/>
<path d="M52.5 168.589C53.3284 168.589 54 167.917 54 167.089C54 166.26 53.3284 165.589 52.5 165.589C51.6716 165.589 51 166.26 51 167.089C51 167.917 51.6716 168.589 52.5 168.589Z" fill="#F6F7F9"/>
<path d="M56.5 168.589C57.3284 168.589 58 167.917 58 167.089C58 166.26 57.3284 165.589 56.5 165.589C55.6716 165.589 55 166.26 55 167.089C55 167.917 55.6716 168.589 56.5 168.589Z" fill="#F6F7F9"/>
<path d="M161 205.589H48V206.589H161V205.589Z" fill="#DCE0ED"/>
<path d="M161 214.589H48V215.589H161V214.589Z" fill="#DCE0ED"/>
<path d="M161 223.589H48V224.589H161V223.589Z" fill="#DCE0ED"/>
<path d="M161 232.589H48V233.589H161V232.589Z" fill="#DCE0ED"/>
<g opacity="0.2">
<path opacity="0.2" d="M161 241.589H48V224.404L58.3634 229.502L69.0888 230.954L78.4996 228.122L89.8534 219.333L95.5643 216.042L99.7393 215.239L103.733 215.452L110.301 218.691L119.232 224.369L126.24 225.267L131.795 223.355L143.573 213.729L149.586 211.589L155.877 212.56L161 215.513V241.589Z" fill="#22C88A"/>
</g>
<path d="M67.6726 230.588C57.5087 230.588 48.118 224.512 48 224.434L48.2811 224.026C48.4267 224.122 62.8806 233.469 75.1631 228.787C79.6413 227.069 82.8293 224.424 85.9143 221.855C89.1349 219.172 92.1748 216.64 96.3217 215.541C101.076 214.282 106.272 215.42 110.221 218.593C113.597 221.305 120.319 225.658 127.421 224.358C131.041 223.693 134.09 221.109 137.321 218.372C143.514 213.126 149.92 207.7 161 215.484L160.706 215.882C149.948 208.324 143.697 213.622 137.65 218.743C134.367 221.523 131.266 224.142 127.514 224.839C120.209 226.178 113.346 221.737 109.902 218.971C106.079 215.901 101.053 214.8 96.4522 216.014C92.4158 217.084 89.4236 219.582 86.2382 222.228C83.123 224.824 79.9024 227.506 75.3463 229.243C72.8966 230.155 70.2939 230.612 67.6726 230.588Z" fill="#22C88A"/>
<path d="M102.5 218.589C103.881 218.589 105 217.246 105 215.589C105 213.932 103.881 212.589 102.5 212.589C101.119 212.589 100 213.932 100 215.589C100 217.246 101.119 218.589 102.5 218.589Z" fill="#22C88A"/>
<g opacity="0.2">
<path opacity="0.2" d="M138.449 178.589H104.551C104.405 178.589 104.264 178.647 104.161 178.75C104.058 178.853 104 178.993 104 179.139V202.04C104 202.15 104.033 202.257 104.095 202.348C104.157 202.439 104.245 202.51 104.348 202.55C104.45 202.591 104.563 202.6 104.67 202.576C104.778 202.552 104.876 202.496 104.951 202.416L110.826 196.157C110.877 196.102 110.939 196.059 111.008 196.029C111.077 195.999 111.151 195.983 111.226 195.983H138.449C138.595 195.983 138.736 195.925 138.839 195.822C138.942 195.719 139 195.579 139 195.434V179.134C138.999 178.989 138.94 178.85 138.837 178.748C138.734 178.646 138.595 178.589 138.449 178.589Z" fill="#22C88A"/>
</g>
<path d="M132 183.589H112V185.589H132V183.589Z" fill="#F6F7F9"/>
<path d="M117 188.589H112V190.589H117V188.589Z" fill="#F6F7F9"/>
<g opacity="0.2">
<path opacity="0.2" d="M64 259.589H58V262.589H64V259.589Z" fill="#22C88A"/>
</g>
<g opacity="0.2">
<path opacity="0.2" d="M64 264.589H58V267.589H64V264.589Z" fill="#22C88A"/>
</g>
<g opacity="0.2">
<path opacity="0.2" d="M64 269.589H58V271.589H64V269.589Z" fill="#22C88A"/>
</g>
<g opacity="0.2">
<path opacity="0.2" d="M64 273.589H58V276.589H64V273.589Z" fill="#22C88A"/>
</g>
<g opacity="0.2">
<path opacity="0.2" d="M64 279.589H58V281.589H64V279.589Z" fill="#22C88A"/>
</g>
<g opacity="0.2">
<path opacity="0.2" d="M64 283.589H58V285.589H64V283.589Z" fill="#22C88A"/>
</g>
<g opacity="0.2">
<path opacity="0.2" d="M64 288.589H58V291.589H64V288.589Z" fill="#22C88A"/>
</g>
<g opacity="0.2">
<path opacity="0.2" d="M64 293.589H58V295.589H64V293.589Z" fill="#22C88A"/>
</g>
<g opacity="0.2">
<path opacity="0.2" d="M73 295.589H68V298.589H73V295.589Z" fill="#22C88A"/>
</g>
<g opacity="0.2">
<path opacity="0.2" d="M84 295.589H78V298.589H84V295.589Z" fill="#22C88A"/>
</g>
<g opacity="0.2">
<path opacity="0.2" d="M93 295.589H88V298.589H93V295.589Z" fill="#22C88A"/>
</g>
<g opacity="0.2">
<path opacity="0.2" d="M103 295.589H98V298.589H103V295.589Z" fill="#22C88A"/>
</g>
<g opacity="0.2">
<path opacity="0.2" d="M113 295.589H107V298.589H113V295.589Z" fill="#22C88A"/>
</g>
<g opacity="0.2">
<path opacity="0.2" d="M121 295.589H117V298.589H121V295.589Z" fill="#22C88A"/>
</g>
<g opacity="0.2">
<path opacity="0.2" d="M132 295.589H127V298.589H132V295.589Z" fill="#22C88A"/>
</g>
<g opacity="0.2">
<path opacity="0.2" d="M142 295.589H137V298.589H142V295.589Z" fill="#22C88A"/>
</g>
<g opacity="0.2">
<path opacity="0.2" d="M152 295.589H146V298.589H152V295.589Z" fill="#22C88A"/>
</g>
<path d="M132 188.589H123V190.589H132V188.589Z" fill="#F6F7F9"/>
<path d="M73 277.589H68V293.589H73V277.589Z" fill="#22C88A"/>
<path d="M84 270.589H78V293.589H84V270.589Z" fill="#22C88A"/>
<path d="M93 264.589H88V293.589H93V264.589Z" fill="#22C88A"/>
<path d="M103 267.589H98V293.589H103V267.589Z" fill="#22C88A"/>
<path d="M113 262.589H107V293.589H113V262.589Z" fill="#22C88A"/>
<g opacity="0.2">
<path opacity="0.2" d="M121 273.589H117V293.589H121V273.589Z" fill="#22C88A"/>
</g>
<g opacity="0.2">
<path opacity="0.2" d="M132 273.589H127V293.589H132V273.589Z" fill="#22C88A"/>
</g>
<g opacity="0.2">
<path opacity="0.2" d="M142 273.589H137V293.589H142V273.589Z" fill="#22C88A"/>
</g>
<g opacity="0.2">
<path opacity="0.2" d="M152 273.589H146V293.589H152V273.589Z" fill="#22C88A"/>
</g>
<path d="M236.541 203.358C230.624 199.919 228.388 199.066 228.375 199.061L228.256 198.973C227.61 198.472 227.097 197.818 226.762 197.068C226.762 196.93 226.762 196.794 226.762 196.658V196.698C226.857 194.877 228.139 193.219 229.356 191.773L232.466 188.074C232.82 187.709 233.094 187.272 233.267 186.791C233.332 186.534 233.36 186.269 233.352 186.004C233.352 185.896 233.352 185.788 233.352 185.682C233.337 184.764 233.31 183.843 233.277 182.915C233.248 182.112 233.043 181.101 232.249 180.935C231.836 180.849 231.291 181 231.072 180.64C230.998 180.493 230.98 180.325 231.019 180.165C231.018 180.177 231.018 180.19 231.019 180.203V180.157C231.174 179.538 231.273 178.905 231.316 178.268C231.331 177.944 231.287 177.62 231.186 177.312C230.726 175.979 229.142 175.433 227.741 175.181C226.339 174.93 224.77 174.713 223.892 173.606C223.62 173.264 223.436 172.852 223.127 172.542C222.722 172.179 222.228 171.932 221.696 171.828C219.957 171.393 218.126 171.555 216.488 172.285C215.81 172.59 215.131 173.002 214.389 172.957C213.647 172.912 212.957 172.371 212.195 172.24C210.966 172.029 209.788 172.942 209.183 174.021C208.824 174.663 208.632 175.387 208.625 176.125C208.625 176.165 208.625 176.208 208.625 176.248C208.607 177.041 208.894 177.81 209.425 178.394C209.955 178.95 210.747 179.332 210.966 180.064C211.055 180.361 211.033 180.683 211.112 180.985C211.112 181.023 211.135 181.06 211.147 181.096L211.108 181.149C209.838 182.793 209.151 184.819 209.156 186.905C209.169 188.927 209.818 190.894 211.01 192.519C212.202 194.145 213.874 195.345 215.785 195.946C215.785 196.039 215.785 196.135 215.785 196.228C215.785 197.37 215.464 198.535 214.498 199.393L206.118 202.799C206.118 202.799 201.067 202.193 199.245 209.655C198.951 210.893 198.846 212.17 198.931 213.441C198.998 214.565 198.844 216.548 197.549 219.111C195.475 223.212 195.948 232.626 200.186 233.559C204.186 234.44 205.752 234.063 205.912 234.03V234.193C205.847 235.954 205.212 251.197 202.904 253.042C202.267 253.545 202.386 253.897 202.904 254.128C202.904 254.128 202.904 254.226 202.889 254.403C202.82 255.517 202.464 259.761 200.92 262.176C199.13 264.971 199.317 281.1 199.317 281.1L198.114 290.617C198.114 290.617 198.861 296.489 198.114 297.515C197.442 298.428 196.546 320.157 196.372 324.864H196.292C195.923 324.886 195.565 325 195.25 325.194C194.934 325.388 194.671 325.658 194.482 325.979C193.486 327.604 190.026 330.605 190.026 330.605C189.279 331.684 186.493 332.716 185.021 333.204C184.824 333.268 184.634 333.352 184.454 333.455C183.904 333.759 183.463 334.228 183.192 334.799C183.096 334.967 183.034 335.153 183.011 335.346C182.987 335.539 183.002 335.734 183.055 335.921C183.433 336.852 191.25 337.503 193.227 336.572C194.783 335.838 200.945 334.874 203.502 334.497C203.966 334.437 204.398 334.224 204.729 333.889C205.06 333.555 205.272 333.12 205.332 332.65C205.354 332.487 205.344 332.321 205.301 332.162C205.258 332.003 205.184 331.854 205.083 331.725C204.585 331.111 204.336 329.438 204.229 328.346C204.437 328.261 204.631 328.145 204.804 328.001C204.594 324.615 205.074 321.22 206.215 318.029C208.1 312.997 208.665 303.671 208.207 297.613C208.207 297.613 213.953 272.632 218.474 270.3C218.544 270.388 220.737 273.236 221.016 282.043C221.3 290.992 224.502 296.864 224.502 296.864C224.502 296.864 223.087 312.059 224.502 317.745L222.652 326.716C222.517 326.597 222.43 326.507 222.43 326.507C222.43 326.507 222.485 326.758 222.562 327.156L222.522 327.345L222.602 327.365C222.811 328.487 223.122 330.442 222.995 331.589C222.921 332.24 222.746 333.136 222.617 334.014C222.423 335.395 222.368 336.734 223.087 337.033C224.265 337.511 231.189 338.165 232.366 336.628C232.63 336.314 232.803 335.932 232.863 335.525C232.924 335.118 232.871 334.702 232.71 334.323C232.624 334.112 232.508 333.915 232.366 333.737C232.366 333.737 230.529 330.701 231.047 328.56C231.096 328.351 231.102 328.133 231.064 327.922C231.026 327.71 230.946 327.508 230.828 327.33C230.907 326.278 231.326 321.415 232.414 317.284C233.591 312.799 236.078 302.964 234.248 296.496C234.179 296.245 234.099 295.993 234.014 295.742C232.958 292.211 232.606 288.505 232.979 284.836C232.299 281.703 232.299 278.459 232.979 275.326C234.109 270.106 234.898 264.979 234.898 264.979C234.898 264.979 235.523 258.083 234.978 253.854L234.94 253.582L235.239 253.515C235.239 253.515 233.638 246.337 233.073 241.771C232.939 240.692 232.765 239.326 232.575 237.866C233.097 237.782 233.611 237.653 234.111 237.482C239.18 235.703 240.774 219.672 240.774 219.672V214.591C240.774 214.591 242.477 206.807 236.541 203.358ZM198.65 327.151C198.493 327.07 198.401 327.018 198.401 327.018L198.65 327.151Z" fill="url(#paint1_linear)"/>
<path d="M233.837 296.412C236.047 302.719 233.468 312.953 232.27 317.523C231.073 322.092 230.704 327.579 230.704 327.579C226.007 328.309 222.599 327.393 222.599 327.393L224.532 317.988C223.15 312.414 224.532 297.516 224.532 297.516C224.532 297.516 221.402 291.759 221.125 282.985C220.853 274.346 218.708 271.557 218.63 271.47C214.21 273.755 208.59 298.251 208.59 298.251C209.051 304.191 208.497 313.33 206.656 318.265C205.54 321.4 205.07 324.726 205.274 328.044C204.631 328.584 203.735 328.676 202.767 328.522C200.146 328.089 197 325.841 197 325.841C197 325.841 197.998 299.157 198.746 298.15C199.495 297.142 198.746 291.385 198.746 291.385L199.941 282.064C199.941 282.064 199.759 266.25 201.508 263.5C203.019 261.132 203.366 256.971 203.433 255.879C203.433 255.706 203.448 255.61 203.448 255.61L206.113 252.441C206.113 252.441 231.906 250.523 233.839 252.441C234.316 252.914 234.608 253.983 234.782 255.332C235.314 259.478 234.705 266.24 234.705 266.24C234.705 266.24 233.932 271.267 232.827 276.388C232.161 279.46 232.161 282.638 232.827 285.71C232.46 289.308 232.803 292.944 233.837 296.412Z" fill="#65617D"/>
<path d="M231.552 336.588C230.538 338.188 224.58 337.508 223.566 337.011C222.947 336.704 222.996 335.311 223.162 333.873C223.268 332.958 223.424 332.033 223.487 331.347C223.65 329.6 223 326.057 223 326.057C223 326.057 224.339 327.755 224.662 326.057C224.804 325.316 225.303 324.935 225.819 324.743C226.513 324.493 227.26 324.549 227.924 324.9C228.975 325.447 230.733 326.614 230.417 328.191C229.978 330.42 231.552 333.581 231.552 333.581C231.674 333.767 231.773 333.972 231.846 334.191C231.985 334.585 232.031 335.016 231.979 335.439C231.927 335.861 231.78 336.259 231.552 336.588Z" fill="#A27772"/>
<path opacity="0.1" d="M231.549 336.511C230.529 338.234 224.536 337.502 223.516 336.967C222.893 336.636 222.942 335.136 223.109 333.589C223.752 333.974 224.847 334.296 226.671 334.078C227.097 334.027 227.526 334.01 227.954 334.027C229.251 334.104 230.551 334.071 231.845 333.928C231.985 334.352 232.031 334.817 231.979 335.273C231.927 335.729 231.778 336.157 231.549 336.511Z" fill="black"/>
<path opacity="0.1" d="M208.873 297.672C209.338 303.726 208.78 313.038 206.923 318.068C205.796 321.263 205.322 324.652 205.529 328.034C204.88 328.584 203.976 328.677 203 328.521C203.561 324.586 205.949 307.666 207.491 294.295C209.222 279.067 217.375 268.589 217.375 268.589L219 270.382C214.536 272.708 208.873 297.672 208.873 297.672Z" fill="black"/>
<path d="M229 200.72L227.921 206.277L222.639 215.589L216.125 212.671C216.125 212.671 207.274 202.943 212.836 201.553C213.502 201.403 214.131 201.109 214.682 200.689C215.776 199.826 216.118 198.569 216.118 197.34C216.118 195.31 215.214 193.353 215.214 193.353L226.608 189.589C226.137 191.159 225.862 192.787 225.79 194.432C225.703 197.693 226.857 199.289 227.801 200.055C228.155 200.357 228.563 200.583 229 200.72Z" fill="#FBBEBE"/>
<path opacity="0.1" d="M227 189.589C226.504 191.121 226.215 192.709 226.138 194.313C225.92 194.566 225.687 194.807 225.44 195.033C224.202 196.184 222.666 196.987 220.995 197.357C219.325 197.728 217.582 197.652 215.952 197.138C215.952 195.158 215 193.249 215 193.249L227 189.589Z" fill="black"/>
<path d="M228 188.091C227.999 189.971 227.442 191.808 226.397 193.37C225.352 194.932 223.868 196.149 222.131 196.867C220.395 197.586 218.484 197.773 216.641 197.405C214.798 197.038 213.106 196.132 211.778 194.802C210.45 193.472 209.546 191.779 209.181 189.935C208.816 188.092 209.006 186.181 209.726 184.446C210.447 182.71 211.666 181.227 213.23 180.185C214.793 179.142 216.631 178.587 218.51 178.589C219.758 178.585 220.995 178.828 222.149 179.304C223.303 179.781 224.352 180.481 225.234 181.364C226.116 182.247 226.815 183.297 227.289 184.451C227.764 185.606 228.006 186.843 228 188.091Z" fill="#FBBEBE"/>
<path opacity="0.1" d="M229 201.219L227.921 206.59L222.639 215.589L216.125 212.769C216.125 212.769 207.274 203.368 212.836 202.024C213.502 201.88 214.131 201.596 214.682 201.19C213.678 203.991 217.826 209.815 217.826 209.815C218.304 210.543 219.417 210.082 219.417 210.082C222.086 209.675 227.007 201.884 227.809 200.589C228.161 200.876 228.566 201.09 229 201.219Z" fill="black"/>
<path opacity="0.1" d="M235 254.882C233.332 255.206 224.094 256.957 220.59 256.519C216.738 256.036 209.241 255.716 209.241 255.716C209.241 255.716 204.469 255.933 203 255.363C203 255.211 203.015 255.126 203.015 255.126L205.735 252.339C205.735 252.339 232.064 250.651 234.038 252.339C234.524 252.75 234.822 253.691 235 254.882Z" fill="black"/>
<path d="M217.959 210.291C217.959 210.291 213.063 203.533 214.907 200.907L206.635 204.284C206.635 204.284 201.656 203.683 199.849 211.082C199.56 212.312 199.456 213.577 199.54 214.837C199.605 215.954 199.454 217.919 198.177 220.46C196.134 224.527 196.599 233.862 200.776 234.788C204.954 235.714 206.437 235.249 206.437 235.249C206.437 235.249 205.881 252.166 203.468 254.106C201.055 256.046 209.619 255.585 209.619 255.585C209.619 255.585 217.019 255.956 220.824 256.509C224.63 257.062 235.303 254.569 235.303 254.569C235.303 254.569 233.724 247.45 233.169 242.921C232.613 238.393 231.311 228.748 231.311 228.748L240.78 215.981C240.78 215.981 242.449 208.264 236.602 204.844C230.755 201.425 228.559 200.589 228.559 200.589C228.559 200.589 222.692 210.101 219.63 210.569C219.63 210.569 218.467 211.035 217.959 210.291Z" fill="#7C7CDD"/>
<path opacity="0.1" d="M206.701 212.589C206.701 212.589 206.601 215.864 207.199 217.156C207.798 218.448 210 225.589 210 225.589H205C205 225.589 207.709 222.712 207.5 221.323C207.291 219.934 206.701 212.589 206.701 212.589Z" fill="black"/>
<path d="M220.768 235.589C220.768 235.589 210.538 233.077 209.585 230.95C208.632 228.823 206 224.046 206 224.046L207.079 222.589L212.056 226.499C212.056 226.499 217.984 231.229 220.763 231.693C223.543 232.158 220.768 235.589 220.768 235.589Z" fill="#FBBEBE"/>
<path opacity="0.05" d="M220.768 235.589C220.768 235.589 210.538 233.077 209.585 230.95C208.632 228.823 206 224.046 206 224.046L207.079 222.589L212.056 226.499C212.056 226.499 217.984 231.229 220.763 231.693C223.543 232.158 220.768 235.589 220.768 235.589Z" fill="black"/>
<path d="M229 223.636V229.165H228.13C223.838 229.166 219.616 230.284 215.862 232.414L214.235 233.339L213.798 233.589L211 227.145L213.617 224.746H213.751C214.391 224.808 217.16 225.046 218.332 224.641C219.447 224.253 220.83 223.026 224.111 223.891C225.728 224.313 227.109 226.168 228.677 225.588L229 223.636Z" fill="#FBBEBE"/>
<path opacity="0.1" d="M238.148 213.75L240 215.786V220.722C240 220.722 238.426 236.296 233.43 238.018C228.433 239.739 219.515 237.02 219.515 237.02C219.515 237.02 217.209 231.044 218.287 230.683C219.364 230.323 227.809 228.138 227.809 228.138C227.809 228.138 227.691 219.001 229.541 216.283C229.541 216.283 228.338 207.774 232.502 207.593C236.667 207.411 238.148 213.75 238.148 213.75Z" fill="black"/>
<path d="M238.233 213.75L240 215.786V220.722C240 220.722 238.503 236.296 233.722 238.018C228.94 239.739 220.443 237.02 220.443 237.02C220.443 237.02 218.246 231.044 219.274 230.683C220.302 230.323 228.359 228.138 228.359 228.138C228.359 228.138 228.244 219.001 230.011 216.283C230.011 216.283 228.864 207.774 232.837 207.593C236.811 207.411 238.233 213.75 238.233 213.75Z" fill="#7C7CDD"/>
<path opacity="0.1" d="M225.388 191.812C225.426 191.213 225.439 190.58 225.177 190.04C224.916 189.5 224.303 189.069 223.706 189.207C222.912 189.39 222.571 190.402 221.792 190.646C221.136 190.851 220.421 190.4 220.109 189.794C219.798 189.188 219.788 188.488 219.785 187.822C219.785 187.063 219.785 186.302 219.785 185.543C219.785 184.715 219.758 183.818 219.238 183.173C218.592 182.362 217.073 182.01 216.058 182.042C215.382 182.049 214.734 182.306 214.242 182.761C213.7 183.212 213.072 183.547 212.331 183.426C212.023 183.381 211.735 183.25 211.499 183.051C211.264 182.851 211.091 182.59 211 182.298V182.268C211.789 181.246 212.784 180.395 213.925 179.77C215.065 179.144 216.325 178.757 217.625 178.633C218.926 178.508 220.238 178.65 221.48 179.048C222.722 179.446 223.866 180.093 224.841 180.947C225.816 181.8 226.599 182.843 227.143 184.009C227.686 185.174 227.978 186.438 227.999 187.72C228.02 189.001 227.77 190.274 227.265 191.456C226.76 192.638 226.011 193.705 225.064 194.589C225.226 193.67 225.334 192.743 225.388 191.812Z" fill="black"/>
<path d="M212.719 183.131C212.415 183.083 212.131 182.948 211.899 182.742C211.667 182.536 211.496 182.266 211.407 181.965C211.33 181.662 211.35 181.34 211.263 181.037C211.05 180.3 210.273 179.917 209.778 179.358C208.748 178.235 208.815 176.39 209.545 175.038C210.134 173.951 211.278 173.034 212.469 173.245C213.212 173.377 213.848 173.918 214.598 173.966C215.348 174.015 215.977 173.598 216.635 173.29C218.22 172.554 220.002 172.392 221.688 172.831C222.206 172.937 222.687 173.186 223.079 173.55C223.345 173.893 223.593 174.25 223.822 174.619C224.676 175.735 226.201 175.953 227.56 176.205C228.919 176.456 230.454 177.008 230.902 178.349C231.197 179.238 230.902 180.204 230.741 181.129C230.684 181.317 230.696 181.521 230.776 181.7C230.989 182.061 231.519 181.911 231.92 181.998C232.692 182.163 232.89 183.182 232.91 183.99C232.943 184.914 232.968 185.839 232.984 186.764C233.03 187.193 232.976 187.627 232.827 188.03C232.677 188.433 232.437 188.794 232.125 189.084L229.107 192.806C227.768 194.457 226.347 196.381 226.617 198.51C225.983 198.802 225.231 198.238 225.023 197.557C224.815 196.876 224.983 196.144 225.122 195.446C225.366 194.238 225.526 193.013 225.599 191.782C225.637 191.162 225.649 190.512 225.391 189.955C225.134 189.399 224.53 188.939 223.941 189.094C223.158 189.282 222.822 190.326 222.054 190.578C221.411 190.789 220.703 190.324 220.396 189.699C220.089 189.074 220.079 188.352 220.076 187.666V185.313C220.076 184.462 220.049 183.535 219.537 182.869C218.9 182.033 217.403 181.67 216.403 181.703C215.736 181.711 215.098 181.976 214.613 182.445C214.068 182.91 213.449 183.253 212.719 183.131Z" fill="#7C5C5C"/>
<path opacity="0.1" d="M215 212.589L217.557 224.589C217.557 224.589 219.574 224.576 215 212.589Z" fill="black"/>
<path opacity="0.1" d="M224 209.589C224 209.589 221.143 216.445 222.258 223.531L222.79 223.589C222.79 223.589 221.839 220.307 224 209.589Z" fill="black"/>
<path opacity="0.1" d="M227 245.008C227 245.008 231.661 243.053 232 247.589C232 247.589 231.12 244.48 227 245.008Z" fill="black"/>
<path opacity="0.1" d="M214.137 225.589C214.137 225.589 213.075 231.93 215 234.466C215 234.466 211.109 235.825 205.647 235.553L205 225.589H214.137Z" fill="black"/>
<path opacity="0.1" d="M215 233.363L214.459 233.589L211 227.76L214.236 225.589H214.402C214.35 225.869 213.45 230.889 215 233.363Z" fill="black"/>
<path d="M214.207 225.589C214.207 225.589 213.232 231.295 215 233.578C215 233.578 211.428 234.802 206.413 234.556L203 225.589H214.207Z" fill="#7C7CDD"/>
<path d="M204.984 332.276C204.931 332.734 204.725 333.162 204.399 333.491C204.073 333.821 203.645 334.034 203.184 334.096C200.673 334.469 194.601 335.42 193.069 336.143C191.123 337.061 183.426 336.419 183.054 335.5C182.95 335.129 182.997 334.731 183.187 334.395C183.455 333.833 183.895 333.368 184.443 333.067C184.62 332.966 184.807 332.883 185.001 332.818C186.449 332.338 189.187 331.324 189.927 330.254C189.927 330.254 193.34 327.293 194.312 325.692C194.495 325.377 194.754 325.113 195.065 324.921C195.376 324.729 195.729 324.616 196.095 324.591C196.908 324.554 197.813 324.96 198.182 326.725C198.182 326.725 202.631 329.243 203.834 327.034C203.834 327.034 204.02 330.425 204.758 331.352C204.856 331.483 204.926 331.632 204.965 331.791C205.004 331.95 205.01 332.114 204.984 332.276Z" fill="#A27772"/>
<path opacity="0.1" d="M204.985 332.467C204.931 332.905 204.725 333.314 204.399 333.629C204.073 333.944 203.646 334.147 203.184 334.206C200.673 334.563 194.601 335.472 193.069 336.162C191.123 337.04 183.426 336.427 183.054 335.548C182.95 335.193 182.997 334.814 183.187 334.492C183.455 333.955 183.895 333.511 184.443 333.224C185.699 334.014 188.484 334.785 194.611 333.878C200.455 333.014 203.348 332.167 204.759 331.589C204.856 331.714 204.926 331.856 204.965 332.006C205.003 332.157 205.01 332.314 204.985 332.467Z" fill="black"/>
<g opacity="0.1">
<path opacity="0.1" d="M225.758 189.598C225.905 189.911 225.984 190.248 225.988 190.589C226.032 190.118 225.953 189.645 225.758 189.209C225.505 188.69 224.879 188.282 224.277 188.413C223.477 188.587 223.132 189.552 222.347 189.784C221.686 189.979 220.965 189.549 220.648 188.972C220.332 188.394 220.327 187.728 220.324 187.094C220.324 186.369 220.324 185.646 220.324 184.921C220.324 184.135 220.296 183.278 219.772 182.663C219.121 181.891 217.587 181.555 216.566 181.586C215.885 181.593 215.231 181.838 214.736 182.271C214.186 182.703 213.556 183.02 212.809 182.907C212.498 182.863 212.207 182.739 211.97 182.548C211.732 182.357 211.558 182.108 211.467 181.83C211.388 181.551 211.408 181.253 211.32 180.973C211.099 180.293 210.307 179.938 209.8 179.422C209.308 178.919 209.028 178.268 209.013 177.589C208.974 177.99 209.024 178.393 209.159 178.776C209.294 179.158 209.513 179.51 209.8 179.811C210.327 180.328 211.11 180.685 211.32 181.365C211.408 181.642 211.388 181.94 211.467 182.22C211.558 182.498 211.732 182.747 211.97 182.938C212.207 183.128 212.498 183.253 212.809 183.297C213.568 183.409 214.186 183.093 214.736 182.661C215.231 182.227 215.885 181.983 216.566 181.975C217.579 181.945 219.121 182.283 219.772 183.053C220.296 183.672 220.321 184.524 220.324 185.31C220.324 186.036 220.324 186.759 220.324 187.484C220.324 188.127 220.324 188.796 220.648 189.361C220.972 189.927 221.686 190.368 222.347 190.173C223.132 189.939 223.477 188.976 224.277 188.803C224.887 188.674 225.497 189.08 225.758 189.598Z" fill="black"/>
<path opacity="0.1" d="M232.919 188.13C232.762 188.569 232.514 188.969 232.19 189.304C231.249 190.434 230.307 191.563 229.363 192.692C228.174 194.118 226.912 195.769 227.005 197.589C227.091 195.92 228.257 194.4 229.363 193.076L232.19 189.691C232.514 189.354 232.762 188.953 232.919 188.514C232.989 188.211 233.014 187.899 232.993 187.589C232.991 187.772 232.966 187.953 232.919 188.13Z" fill="black"/>
<path opacity="0.1" d="M225.116 197.109C225.058 196.94 225.023 196.765 225.011 196.589C224.98 196.907 225.016 197.228 225.116 197.535C225.361 198.232 226.252 198.807 227 198.508C226.98 198.367 226.968 198.227 226.962 198.087C226.208 198.362 225.344 197.795 225.116 197.109Z" fill="black"/>
</g>
<path opacity="0.1" d="M195 326.589C195 326.589 195.865 330.738 199 327.084L195 326.589Z" fill="black"/>
<path opacity="0.1" d="M224 327.589C224 327.589 227.539 329.374 232 328.174L224 327.589Z" fill="black"/>
<path opacity="0.1" d="M232 285.589C232 285.589 231.032 286.731 231.001 287.385C230.971 288.039 231.501 286.909 231.501 286.909L232 285.589Z" fill="black"/>
<path opacity="0.1" d="M234 295.589C233.225 296.052 232.262 296.322 231.255 296.358C229.59 296.411 229.728 297.97 230.816 297.501C231.903 297.032 234 295.589 234 295.589Z" fill="black"/>
<path opacity="0.1" d="M234 296.589C234 296.589 232.896 301.398 232 300.47L234 296.589Z" fill="black"/>
<path d="M23.8561 320.589C23.8561 320.589 25.255 322.353 23.2089 325.012C21.1628 327.672 19.476 329.928 20.1512 331.589C20.1512 331.589 23.237 326.639 25.757 326.571C28.2771 326.502 26.6208 323.565 23.8561 320.589Z" fill="#22C88A"/>
<path opacity="0.1" d="M23.8145 320.589C23.9385 320.759 24.0357 320.945 24.1031 321.141C26.5825 323.917 27.9047 326.508 25.5206 326.574C23.3016 326.633 20.6237 330.417 20 331.373C20.021 331.446 20.046 331.518 20.0747 331.589C20.0747 331.589 23.1959 326.643 25.7449 326.574C28.2939 326.505 26.6109 323.563 23.8145 320.589Z" fill="black"/>
<path d="M26.763 323.092C26.3729 323.444 26.032 323.657 26.0021 323.569C25.9722 323.482 26.2657 323.121 26.6558 322.769C27.0459 322.417 26.8913 322.673 26.9212 322.769C26.951 322.865 27.1531 322.74 26.763 323.092Z" fill="#FFD037"/>
<path d="M16.6944 320.589C16.6944 320.589 15.4953 322.353 17.2493 325.012C19.0032 327.672 20.4492 329.928 19.8704 331.589C19.8704 331.589 17.2252 326.639 15.065 326.571C12.9048 326.502 14.3267 323.565 16.6944 320.589Z" fill="#22C88A"/>
<path opacity="0.1" d="M16.7302 320.589C16.6249 320.759 16.5416 320.945 16.4827 321.141C14.3574 323.917 13.224 326.508 15.2676 326.574C17.1721 326.633 19.4653 330.417 20 331.373C19.983 331.446 19.9616 331.518 19.9359 331.589C19.9359 331.589 17.2604 326.643 15.0754 326.574C12.8904 326.505 14.3353 323.563 16.7302 320.589Z" fill="black"/>
<path d="M13.238 323.092C13.6285 323.444 13.968 323.657 13.9979 323.569C14.0278 323.482 13.7341 323.121 13.3436 322.769C12.9531 322.417 13.1079 322.673 13.078 322.769C13.0481 322.865 12.8475 322.74 13.238 323.092Z" fill="#FFD037"/>
<path d="M14 330.876C14 330.876 18.031 330.747 19.2486 329.837C20.4663 328.928 25.4473 327.844 25.7491 329.302C26.0509 330.761 31.806 336.549 27.2555 336.587C22.7049 336.626 16.6821 335.843 15.4696 335.066C14.2572 334.289 14 330.876 14 330.876Z" fill="#A8A8A8"/>
<path opacity="0.2" d="M27.3373 336.149C22.7857 336.182 16.7614 335.497 15.5487 334.817C14.6247 334.301 14.2572 332.445 14.1339 331.589H14C14 331.589 14.2625 334.578 15.4673 335.256C16.6722 335.934 22.7043 336.621 27.256 336.588C28.5684 336.588 29.0252 336.149 28.9989 335.512C28.8178 335.9 28.3165 336.141 27.3373 336.149Z" fill="black"/>
<defs>
<linearGradient id="paint0_linear" x1="104.995" y1="326.596" x2="104.995" y2="144.589" gradientUnits="userSpaceOnUse">
<stop stop-color="#808080" stop-opacity="0.25"/>
<stop offset="0.54" stop-color="#808080" stop-opacity="0.12"/>
<stop offset="1" stop-color="#808080" stop-opacity="0.1"/>
</linearGradient>
<linearGradient id="paint1_linear" x1="55305.6" y1="139220" x2="55305.6" y2="29704.7" gradientUnits="userSpaceOnUse">
<stop stop-color="#808080" stop-opacity="0.25"/>
<stop offset="0.54" stop-color="#808080" stop-opacity="0.12"/>
<stop offset="1" stop-color="#808080" stop-opacity="0.1"/>
</linearGradient>
</defs>
</svg>
