<svg width="931" height="759" viewBox="0 0 931 759" fill="none" xmlns="http://www.w3.org/2000/svg">
<g clip-path="url(#clip0)">
<g opacity="0.3">
<path opacity="0.3" d="M659.7 38.3301C661.46 39.2834 663.21 40.2534 664.95 41.2401" stroke="#2196F3" stroke-width="4" stroke-miterlimit="10"/>
<path opacity="0.3" d="M675.17 47.1902C780.89 111.52 851.5 227.81 851.5 360.59C851.522 391.432 847.659 422.154 840 452.03" stroke="#2196F3" stroke-width="4" stroke-miterlimit="10" stroke-dasharray="11.85 11.85"/>
<path opacity="0.3" d="M838.5 457.76C837.973 459.687 837.43 461.61 836.87 463.53" stroke="#2196F3" stroke-width="4" stroke-miterlimit="10"/>
</g>
<path opacity="0.21" d="M118.5 360.59C118.5 201.31 220.11 65.7599 362.04 15.1899" stroke="#2196F3" stroke-width="4" stroke-miterlimit="10" stroke-dasharray="12 12"/>
<path opacity="0.5" d="M659.7 682.86C606.081 711.979 546.016 727.186 485 727.09C365.47 727.09 259.3 669.87 192.4 581.32" stroke="#2196F3" stroke-width="4" stroke-miterlimit="10" stroke-dasharray="12 12"/>
<g opacity="0.21">
<path opacity="0.21" d="M722.2 429.71C721.64 431.63 721.057 433.544 720.45 435.45" stroke="#2196F3" stroke-width="4" stroke-miterlimit="10"/>
<path opacity="0.21" d="M716.56 446.75C681.56 540.68 591.11 607.59 485 607.59C348.59 607.59 238 497 238 360.59C238 224.18 348.59 113.59 485 113.59C539.135 113.511 591.784 131.297 634.78 164.19" stroke="#2196F3" stroke-width="4" stroke-miterlimit="10" stroke-dasharray="11.95 11.95"/>
<path opacity="0.21" d="M639.5 167.85C641.06 169.103 642.603 170.373 644.13 171.66" stroke="#2196F3" stroke-width="4" stroke-miterlimit="10"/>
</g>
<g opacity="0.5">
<path opacity="0.5" d="M464.02 222.19C466.02 221.897 468.02 221.644 470.02 221.43" stroke="#2196F3" stroke-width="4" stroke-miterlimit="10"/>
<path opacity="0.5" d="M481.5 220.64C482.667 220.64 483.833 220.64 485 220.64C509.401 220.64 533.378 227.017 554.554 239.14C575.73 251.262 593.371 268.709 605.726 289.751C618.081 310.792 624.723 334.697 624.992 359.096C625.261 383.496 619.148 407.541 607.26 428.85" stroke="#2196F3" stroke-width="4" stroke-miterlimit="10" stroke-dasharray="11.56 11.56"/>
<path opacity="0.5" d="M604.34 433.83C603.293 435.537 602.21 437.203 601.09 438.83" stroke="#2196F3" stroke-width="4" stroke-miterlimit="10"/>
</g>
<path d="M729.931 442.569L640.09 612.752C639.351 614.151 639.675 615.772 640.813 616.372L779.283 689.472C780.421 690.073 781.942 689.426 782.68 688.027L872.521 517.844C873.26 516.445 872.936 514.824 871.798 514.224L733.328 441.124C732.19 440.523 730.669 441.17 729.931 442.569Z" fill="url(#paint0_linear)"/>
<path d="M868.864 514.752L734.683 443.917C733.545 443.316 732.019 443.973 731.274 445.384L643.454 611.74C642.709 613.15 643.028 614.781 644.166 615.382L778.346 686.217C779.484 686.818 781.01 686.161 781.755 684.75L869.576 518.395C870.321 516.984 870.002 515.353 868.864 514.752Z" fill="#F2F2F2"/>
<path d="M858.628 518.569L737.315 454.526C736.177 453.926 734.641 454.599 733.886 456.031L653.31 608.662C652.554 610.094 652.864 611.742 654.002 612.342L775.315 676.385C776.453 676.986 777.989 676.312 778.745 674.88L859.32 522.249C860.076 520.817 859.766 519.17 858.628 518.569Z" fill="#6C63FF"/>
<path d="M800.82 561.84L794.64 547.99L752.07 566.83L743.98 548.97L729.63 555.34L741.53 581.11L744.38 587.7L800.82 561.84Z" fill="url(#paint1_linear)"/>
<path d="M800.15 561.23L794.46 548.84L751.67 568.51L743.29 550.29L730.9 555.98L742.14 580.38L745.06 586.55L800.15 561.23Z" fill="white"/>
<path d="M310.228 0.991683L35.8893 117.159C29.6594 119.797 26.7475 126.986 29.3856 133.216L246.755 646.55C249.393 652.78 256.582 655.692 262.812 653.054L537.15 536.887C543.38 534.249 546.292 527.06 543.654 520.83L326.285 7.49543C323.647 1.26546 316.458 -1.64637 310.228 0.991683Z" fill="url(#paint2_linear)"/>
<path d="M307.992 10.4846L44.2437 122.168C37.3068 125.105 34.0646 133.11 37.002 140.047L247.157 636.346C250.095 643.282 258.099 646.525 265.036 643.587L528.785 531.904C535.722 528.967 538.964 520.962 536.027 514.025L325.871 17.7264C322.934 10.7895 314.929 7.54725 307.992 10.4846Z" fill="white"/>
<path d="M254.22 48.6399C255.725 54.5228 255.075 60.75 252.388 66.1955C249.701 71.641 245.155 75.9453 239.57 78.3299L139.8 120.59C134.201 122.942 127.945 123.212 122.164 121.353C116.382 119.493 111.458 115.625 108.28 110.45L55.43 132.83C53.9881 133.439 52.6804 134.327 51.5818 135.441C50.4831 136.556 49.615 137.877 49.0271 139.328C48.4392 140.778 48.143 142.331 48.1555 143.896C48.1681 145.461 48.489 147.009 49.1 148.45L249.56 621.76C250.169 623.202 251.057 624.509 252.172 625.608C253.287 626.707 254.607 627.575 256.058 628.163C257.509 628.751 259.061 629.047 260.626 629.034C262.191 629.022 263.739 628.701 265.18 628.09L517.61 521.19C519.052 520.581 520.36 519.693 521.458 518.578C522.557 517.463 523.425 516.143 524.013 514.692C524.601 513.241 524.897 511.689 524.884 510.124C524.872 508.558 524.551 507.011 523.94 505.57L323.5 32.2399C322.891 30.798 322.003 29.4903 320.888 28.3917C319.773 27.293 318.453 26.4249 317.002 25.837C315.551 25.2491 313.999 24.953 312.434 24.9655C310.869 24.978 309.321 25.2989 307.88 25.9099L254.22 48.6399Z" fill="#6C63FF"/>
<path d="M215.047 72.6099L154.354 98.31C153.336 98.7407 152.861 99.9144 153.292 100.932L153.436 101.272C153.867 102.289 155.04 102.765 156.058 102.334L216.75 76.6339C217.768 76.2032 218.243 75.0295 217.812 74.0124L217.668 73.6717C217.237 72.6546 216.064 72.1792 215.047 72.6099Z" fill="#DBDBDB"/>
<path d="M232.262 70.0651C233.595 69.5009 234.217 67.9633 233.653 66.6309C233.089 65.2984 231.551 64.6756 230.219 65.2399C228.886 65.8041 228.264 67.3416 228.828 68.6741C229.392 70.0065 230.93 70.6293 232.262 70.0651Z" fill="#DBDBDB"/>
<path d="M329.26 266.13L302.62 260.73L285.83 342.46L251.34 335.69L245.73 363.26L295.72 372.7L308.29 375.39L329.26 266.13Z" fill="url(#paint3_linear)"/>
<path d="M327.68 266.46L303.68 261.89L287.87 344.8L252.56 338.07L247.98 362.07L295.27 371.05L307.33 373.21L327.68 266.46Z" fill="white"/>
<path opacity="0.3" d="M917 38.6001C924.732 38.6001 931 32.3321 931 24.6001C931 16.8681 924.732 10.6001 917 10.6001C909.268 10.6001 903 16.8681 903 24.6001C903 32.3321 909.268 38.6001 917 38.6001Z" fill="#80DEEA"/>
<path opacity="0.3" d="M772.5 357.19C780.232 357.19 786.5 350.922 786.5 343.19C786.5 335.458 780.232 329.19 772.5 329.19C764.768 329.19 758.5 335.458 758.5 343.19C758.5 350.922 764.768 357.19 772.5 357.19Z" fill="#80DEEA"/>
<path opacity="0.5" d="M14 95.6001C21.732 95.6001 28 89.3321 28 81.6001C28 73.8681 21.732 67.6001 14 67.6001C6.26801 67.6001 0 73.8681 0 81.6001C0 89.3321 6.26801 95.6001 14 95.6001Z" fill="#80DEEA"/>
<path opacity="0.3" d="M28 52.6001C35.732 52.6001 42 46.3321 42 38.6001C42 30.8681 35.732 24.6001 28 24.6001C20.268 24.6001 14 30.8681 14 38.6001C14 46.3321 20.268 52.6001 28 52.6001Z" fill="#80DEEA"/>
<g opacity="0.2">
<path opacity="0.2" d="M157.8 127.59L257.58 85.3399C263.164 82.9553 267.711 78.651 270.398 73.2055C273.085 67.76 273.735 61.5328 272.23 55.6499L323.23 34.0399L322.47 32.2499C321.861 30.808 320.973 29.5004 319.858 28.4017C318.743 27.303 317.423 26.4349 315.972 25.847C314.521 25.2591 312.969 24.963 311.404 24.9755C309.839 24.988 308.291 25.3089 306.85 25.9199L253.2 48.6399C254.705 54.5228 254.055 60.75 251.368 66.1955C248.681 71.641 244.134 75.9453 238.55 78.3299L138.8 120.59C136.13 121.718 133.284 122.374 130.39 122.53C133.969 125.951 138.47 128.253 143.34 129.152C148.209 130.051 153.235 129.508 157.8 127.59Z" fill="white"/>
<path opacity="0.2" d="M67.11 155.44C66.499 153.999 66.1781 152.451 66.1656 150.886C66.153 149.321 66.4492 147.769 67.0371 146.318C67.625 144.867 68.4931 143.546 69.5918 142.432C70.6904 141.317 71.9981 140.429 73.44 139.82L118.99 120.53C114.13 118.469 110.036 114.942 107.28 110.44L54.43 132.82C52.9881 133.429 51.6804 134.317 50.5818 135.432C49.4831 136.546 48.615 137.867 48.0271 139.318C47.4392 140.769 47.143 142.321 47.1555 143.886C47.1681 145.451 47.489 146.999 48.1 148.44L248.56 621.76C249.169 623.202 250.057 624.509 251.172 625.608C252.287 626.707 253.607 627.575 255.058 628.163C256.509 628.751 258.061 629.047 259.626 629.034C261.191 629.022 262.739 628.701 264.18 628.09L266.81 626.98L67.11 155.44Z" fill="white"/>
</g>
<path d="M769.5 683L652 621.5V672L724 709L769.5 683Z" fill="#F2F2F2" stroke="#DADADA" stroke-width="2"/>
</g>
<defs>
<linearGradient id="paint0_linear" x1="94195.6" y1="207723" x2="90546.3" y2="167240" gradientUnits="userSpaceOnUse">
<stop stop-color="#808080" stop-opacity="0.25"/>
<stop offset="0.54" stop-color="#808080" stop-opacity="0.12"/>
<stop offset="1" stop-color="#808080" stop-opacity="0.1"/>
</linearGradient>
<linearGradient id="paint1_linear" x1="748.598" y1="589.924" x2="776.091" y2="538.129" gradientUnits="userSpaceOnUse">
<stop stop-opacity="0.12"/>
<stop offset="0.55" stop-opacity="0.09"/>
<stop offset="1" stop-opacity="0.02"/>
</linearGradient>
<linearGradient id="paint2_linear" x1="251227" y1="344717" x2="333136" y2="26715.5" gradientUnits="userSpaceOnUse">
<stop stop-color="#808080" stop-opacity="0.25"/>
<stop offset="0.54" stop-color="#808080" stop-opacity="0.12"/>
<stop offset="1" stop-color="#808080" stop-opacity="0.1"/>
</linearGradient>
<linearGradient id="paint3_linear" x1="70960.4" y1="40949" x2="65572.1" y2="30170" gradientUnits="userSpaceOnUse">
<stop stop-opacity="0.12"/>
<stop offset="0.55" stop-opacity="0.09"/>
<stop offset="1" stop-opacity="0.02"/>
</linearGradient>
<clipPath id="clip0">
<rect width="931" height="758.59" fill="white"/>
</clipPath>
</defs>
</svg>
