<svg width="1048" height="674" viewBox="0 0 1048 674" fill="none" xmlns="http://www.w3.org/2000/svg">
<g clip-path="url(#clip0)" filter="url(#filter0_d)">
<path d="M823.019 121.996C848.285 121.996 868.767 101.514 868.767 76.2475C868.767 50.9813 848.285 30.499 823.019 30.499C797.753 30.499 777.271 50.9813 777.271 76.2475C777.271 101.514 797.753 121.996 823.019 121.996Z" fill="#2F2E41"/>
<path d="M804.96 115.174C804.96 115.174 805.763 141.66 788.105 149.686C770.448 157.712 857.129 156.909 857.129 156.909C857.129 156.909 831.446 125.608 838.669 115.174L804.96 115.174Z" fill="#FFB8B8"/>
<path opacity="0.1" d="M804.96 115.174C804.96 115.174 805.763 141.66 788.105 149.686C770.448 157.712 857.129 156.909 857.129 156.909C857.129 156.909 831.446 125.608 838.669 115.174L804.96 115.174Z" fill="black"/>
<path d="M822.618 130.423C839.905 130.423 853.92 116.409 853.92 99.1217C853.92 81.8343 839.905 67.8201 822.618 67.8201C805.331 67.8201 791.316 81.8343 791.316 99.1217C791.316 116.409 805.331 130.423 822.618 130.423Z" fill="#FFB8B8"/>
<path d="M818.605 144.068L791.717 138.048L776.067 154.501L758.409 156.909L781.685 252.419L780.882 276.497C780.882 276.497 755.199 295.76 756.804 384.849C758.409 473.938 743.962 650.511 761.62 652.117C779.277 653.722 816.197 661.748 818.605 654.524C821.012 647.301 825.025 362.376 825.025 362.376C825.025 362.376 824.223 648.104 836.262 651.314C848.301 654.524 885.221 660.945 890.036 650.511C894.852 640.077 890.036 367.994 890.036 367.994C890.036 367.994 889.234 297.365 860.34 276.497L857.13 258.037L882.01 156.909H861.945L849.906 136.042L825.025 144.87L818.605 144.068Z" fill="#2F2E41"/>
<path d="M753.028 253.474L718.628 311.506C718.628 311.506 693.469 337.32 706.06 344.45C718.65 351.58 732.036 314.392 732.036 314.392L769.045 265.666L753.028 253.474Z" fill="#FFB8B8"/>
<path d="M893.947 254.708L921.764 316.167C921.764 316.167 943.934 344.589 930.637 350.293C917.34 355.997 908.12 317.563 908.12 317.563L876.688 265.066L893.947 254.708Z" fill="#FFB8B8"/>
<path d="M768.843 162.528L758.409 156.909C758.409 156.909 739.95 187.408 743.16 238.775C743.16 238.775 739.95 266.064 746.37 267.669C752.791 269.274 771.251 272.485 772.054 269.274C772.856 266.064 782.488 206.671 782.488 206.671L768.843 162.528Z" fill="#2F2E41"/>
<path d="M872.379 160.922L882.011 156.909C889.031 165.384 893.486 175.686 894.852 186.606C897.26 205.066 908.497 264.459 899.668 266.064C890.839 267.669 869.971 270.879 869.971 266.064C869.971 261.248 862.748 205.066 862.748 205.066L872.379 160.922Z" fill="#2F2E41"/>
<path d="M853.215 70.9601L829.999 58.7991L797.939 63.7741L791.306 93.0711L807.818 92.4361L812.43 81.6721V92.2581L820.049 91.9651L824.471 74.8301L827.235 93.0711L854.321 92.5181L853.215 70.9601Z" fill="#2F2E41"/>
<path d="M825.427 42.538C835.622 42.538 843.887 34.2732 843.887 24.0781C843.887 13.883 835.622 5.61816 825.427 5.61816C815.232 5.61816 806.967 13.883 806.967 24.0781C806.967 34.2732 815.232 42.538 825.427 42.538Z" fill="#2F2E41"/>
<path d="M802.151 18.4599C802.152 14.0507 803.73 9.78709 806.6 6.44025C809.471 3.09341 813.444 0.884288 817.802 0.212431C815.173 -0.189992 812.487 -0.0192887 809.929 0.712851C807.372 1.44499 805.003 2.72127 802.984 4.45427C800.966 6.18727 799.346 8.33604 798.235 10.7534C797.125 13.1708 796.55 15.7996 796.55 18.4599C796.55 21.1202 797.125 23.7491 798.235 26.1665C799.346 28.5838 800.966 30.7326 802.984 32.4656C805.003 34.1986 807.372 35.4749 809.929 36.207C812.487 36.9392 815.173 37.1099 817.802 36.7074C813.444 36.0356 809.471 33.8265 806.6 30.4796C803.73 27.1328 802.152 22.8692 802.151 18.4599V18.4599Z" fill="#2F2E41"/>
<path d="M501.944 585.868C506.293 585.868 509.82 583.468 509.82 580.508C509.82 577.547 506.293 575.147 501.944 575.147C497.594 575.147 494.068 577.547 494.068 580.508C494.068 583.468 497.594 585.868 501.944 585.868Z" fill="#47E6B1"/>
<path d="M501.944 580.508C501.944 580.508 539.353 645.506 538.369 654.887Z" fill="#47E6B1"/>
<path d="M526.555 584.992V623.015C518.719 612.157 503.09 600.977 473.801 591.901L526.555 664.363V664.913C526.555 664.913 526.655 664.86 526.84 664.755L526.93 664.878C526.93 664.878 527.006 664.777 527.14 664.583C533.286 661.023 584.835 628.921 526.555 584.992Z" fill="#3F3D56"/>
<path d="M1044 663.458H497V665.458H1044V663.458Z" fill="#3F3D56"/>
<path d="M638 664.708H618.259V644.967H638V664.708ZM619.777 663.19H636.481V646.486H619.777V663.19Z" fill="#3F3D56"/>
<path d="M1006.31 644.182C1011.88 644.182 1016.39 639.67 1016.39 634.104C1016.39 628.537 1011.88 624.025 1006.31 624.025C1000.74 624.025 996.231 628.537 996.231 634.104C996.231 639.67 1000.74 644.182 1006.31 644.182Z" fill="#47E6B1"/>
<path d="M1006.31 663.219C1000.55 663.219 994.923 661.512 990.134 658.312C985.346 655.113 981.614 650.566 979.411 645.246C977.207 639.925 976.63 634.071 977.754 628.423C978.877 622.775 981.65 617.587 985.722 613.515C989.794 609.443 994.982 606.67 1000.63 605.547C1006.28 604.423 1012.13 605 1017.45 607.204C1022.77 609.407 1027.32 613.139 1030.52 617.927C1033.72 622.715 1035.43 628.345 1035.43 634.103C1035.42 641.823 1032.35 649.223 1026.89 654.682C1021.43 660.14 1014.03 663.211 1006.31 663.219V663.219ZM1006.31 607.227C1000.99 607.227 995.798 608.803 991.379 611.756C986.959 614.71 983.514 618.907 981.48 623.818C979.446 628.729 978.913 634.133 979.95 639.347C980.987 644.56 983.547 649.349 987.306 653.108C991.065 656.866 995.854 659.426 1001.07 660.463C1006.28 661.5 1011.68 660.968 1016.6 658.934C1021.51 656.9 1025.7 653.455 1028.66 649.035C1031.61 644.615 1033.19 639.419 1033.19 634.103C1033.18 626.978 1030.34 620.146 1025.31 615.108C1020.27 610.069 1013.44 607.235 1006.31 607.227V607.227Z" fill="#2F2E41"/>
<path d="M713 40.1472H40V442.147H713V40.1472Z" fill="#47E6B1"/>
<path opacity="0.1" d="M460.48 40.147L40 328.807V259.667L359.77 40.147H460.48Z" fill="black"/>
<path opacity="0.1" d="M662 40.147V47.137L86.6 442.147H40V405.007L571.48 40.147H662Z" fill="black"/>
<path d="M99.376 371.147H97.376V442.147H99.376V371.147Z" fill="#3F3D56"/>
<path d="M98.5 396.147C112.307 396.147 123.5 384.954 123.5 371.147C123.5 357.34 112.307 346.147 98.5 346.147C84.6929 346.147 73.5 357.34 73.5 371.147C73.5 384.954 84.6929 396.147 98.5 396.147Z" fill="#3F3D56"/>
<path d="M238.377 310.147H236.377V442.147H238.377V310.147Z" fill="#3F3D56"/>
<path d="M237.5 338.147C251.307 338.147 262.5 326.954 262.5 313.147C262.5 299.34 251.307 288.147 237.5 288.147C223.693 288.147 212.5 299.34 212.5 313.147C212.5 326.954 223.693 338.147 237.5 338.147Z" fill="#3F3D56"/>
<path d="M377.377 199.147H375.377V442.147H377.377V199.147Z" fill="#3F3D56"/>
<path d="M376.5 224.147C390.307 224.147 401.5 212.954 401.5 199.147C401.5 185.34 390.307 174.147 376.5 174.147C362.693 174.147 351.5 185.34 351.5 199.147C351.5 212.954 362.693 224.147 376.5 224.147Z" fill="#3F3D56"/>
<path d="M516.376 272.147H514.376V442.147H516.376V272.147Z" fill="#3F3D56"/>
<path d="M515.5 297.147C529.307 297.147 540.5 285.954 540.5 272.147C540.5 258.34 529.307 247.147 515.5 247.147C501.693 247.147 490.5 258.34 490.5 272.147C490.5 285.954 501.693 297.147 515.5 297.147Z" fill="#3F3D56"/>
<path d="M655 283H653V442H655V283Z" fill="#3F3D56"/>
<path d="M654.5 302.147C668.307 302.147 679.5 290.954 679.5 277.147C679.5 263.34 668.307 252.147 654.5 252.147C640.693 252.147 629.5 263.34 629.5 277.147C629.5 290.954 640.693 302.147 654.5 302.147Z" fill="#3F3D56"/>
<path d="M46 370.147H40V372.147H46V370.147Z" fill="#3F3D56"/>
<path d="M83.6006 372.147H74.2002V370.147H83.6006V372.147ZM64.8003 372.147H55.4004V370.147H64.8003V372.147Z" fill="#3F3D56"/>
<path d="M99 370.147H93V372.147H99V370.147Z" fill="#3F3D56"/>
<path d="M46 312.147H40V314.147H46V312.147Z" fill="#3F3D56"/>
<path d="M215.866 314.147H203.733V312.147H215.866V314.147ZM191.6 314.147H179.466V312.147H191.6V314.147ZM167.333 314.147H155.2V312.147H167.333V314.147ZM143.066 314.147H130.933V312.147H143.066V314.147ZM118.799 314.147H106.666V312.147H118.799V314.147ZM94.5327 314.147H82.3994V312.147H94.5327V314.147ZM70.2661 314.147H58.1328V312.147H70.2661V314.147Z" fill="#3F3D56"/>
<path d="M234 312.147H228V314.147H234V312.147Z" fill="#3F3D56"/>
<path d="M46 271.147H40V273.147H46V271.147Z" fill="#3F3D56"/>
<path d="M480.919 273.147H468.838V271.147H480.919V273.147ZM456.757 273.147H444.676V271.147H456.757L456.757 273.147ZM432.595 273.147H420.514V271.147H432.595L432.595 273.147ZM408.432 273.147H396.351V271.147H408.432L408.432 273.147ZM384.27 273.147H372.189V271.147H384.27L384.27 273.147ZM360.108 273.147H348.027V271.147H360.108L360.108 273.147ZM335.946 273.147H323.865V271.147H335.946L335.946 273.147ZM311.784 273.147H299.703V271.147H311.784L311.784 273.147ZM287.622 273.147H275.541V271.147H287.622L287.622 273.147ZM263.46 273.147H251.378V271.147H263.459L263.46 273.147ZM239.297 273.147H227.216V271.147H239.297L239.297 273.147ZM215.135 273.147H203.054V271.147H215.135L215.135 273.147ZM190.973 273.147H178.892V271.147H190.973L190.973 273.147ZM166.811 273.147H154.729V271.147H166.811L166.811 273.147ZM142.648 273.147H130.567V271.147H142.648L142.648 273.147ZM118.486 273.147H106.405V271.147H118.486L118.486 273.147ZM94.3243 273.147H82.2432V271.147H94.3242L94.3243 273.147ZM70.1622 273.147H58.0811V271.147H70.1621L70.1622 273.147Z" fill="#3F3D56"/>
<path d="M499 271.147H493V273.147H499V271.147Z" fill="#3F3D56"/>
<path d="M46 198.147H40V200.147H46V198.147Z" fill="#3F3D56"/>
<path d="M342.639 200.147H330.279V198.147H342.639V200.147ZM317.919 200.147H305.559V198.147H317.919V200.147ZM293.199 200.147H280.839V198.147H293.199V200.147ZM268.479 200.147H256.119V198.147H268.48L268.479 200.147ZM243.759 200.147H231.399V198.147H243.759V200.147ZM219.04 200.147H206.679V198.147H219.04L219.04 200.147ZM194.319 200.147H181.96V198.147H194.319L194.319 200.147ZM169.599 200.147H157.239V198.147H169.599V200.147ZM144.879 200.147H132.52V198.147H144.879L144.879 200.147ZM120.159 200.147H107.799V198.147H120.159V200.147ZM95.4395 200.147H83.0796V198.147H95.4395V200.147ZM70.7192 200.147H58.3594V198.147H70.7192V200.147Z" fill="#3F3D56"/>
<path d="M361 198.147H355V200.147H361V198.147Z" fill="#3F3D56"/>
<path d="M45.9961 280.127L39.9961 280.147L40.0029 282.147L46.0029 282.127L45.9961 280.127Z" fill="#3F3D56"/>
<path d="M57.8271 283.089L57.8203 281.089L69.644 281.051L69.6509 283.051L57.8271 283.089ZM81.4742 283.013L81.4673 281.013L93.291 280.974L93.2978 282.974L81.4742 283.013ZM105.121 282.936L105.114 280.936L116.938 280.897L116.945 282.897L105.121 282.936ZM128.769 282.859L128.762 280.859L140.585 280.82L140.592 282.82L128.769 282.859ZM152.416 282.782L152.409 280.782L164.232 280.743L164.239 282.743L152.416 282.782ZM176.063 282.705L176.056 280.705L187.879 280.667L187.886 282.667L176.063 282.705ZM199.71 282.628L199.703 280.628L211.527 280.589L211.533 282.589L199.71 282.628ZM223.357 282.551L223.35 280.551L235.173 280.513L235.18 282.513L223.357 282.551ZM247.004 282.474L246.997 280.474L258.82 280.436L258.827 282.436L247.004 282.474ZM270.651 282.397L270.644 280.397L282.467 280.359L282.474 282.359L270.651 282.397ZM294.298 282.32L294.291 280.32L306.114 280.282L306.121 282.282L294.298 282.32ZM317.945 282.244L317.938 280.244L329.762 280.205L329.769 282.205L317.945 282.244ZM341.592 282.167L341.585 280.167L353.409 280.128L353.416 282.128L341.592 282.167ZM365.239 282.09L365.232 280.09L377.056 280.051L377.063 282.051L365.239 282.09ZM388.887 282.013L388.88 280.013L400.703 279.974L400.71 281.974L388.887 282.013ZM412.534 281.936L412.527 279.936L424.35 279.897L424.357 281.897L412.534 281.936ZM436.181 281.859L436.174 279.859L447.997 279.82L448.004 281.82L436.181 281.859ZM459.828 281.782L459.821 279.782L471.644 279.744L471.651 281.744L459.828 281.782ZM483.474 281.705L483.468 279.705L495.291 279.667L495.297 281.667L483.474 281.705ZM507.121 281.628L507.116 279.628L518.939 279.59L518.945 281.59L507.121 281.628ZM530.768 281.551L530.762 279.551L542.586 279.513L542.592 281.513L530.768 281.551ZM554.415 281.475L554.41 279.475L566.233 279.436L566.239 281.436L554.415 281.475ZM578.062 281.397L578.056 279.397L589.88 279.359L589.886 281.359L578.062 281.397ZM601.709 281.321L601.703 279.321L613.527 279.282L613.533 281.282L601.709 281.321ZM625.357 281.244L625.351 279.244L637.174 279.205L637.18 281.205L625.357 281.244Z" fill="#3F3D56"/>
<path d="M24 189.147H4V209.147H24V189.147Z" fill="#3F3D56"/>
<path d="M24 262.147H4V282.147H24V262.147Z" fill="#3F3D56"/>
<path d="M24 303.147H4V323.147H24V303.147Z" fill="#3F3D56"/>
<path d="M24 361.147H4V381.147H24V361.147Z" fill="#3F3D56"/>
<path d="M987.828 355.155L1001.04 304.862L950.75 291.647L937.535 341.939L987.828 355.155Z" fill="#47E6B1"/>
<path d="M927.167 345.43C926.33 343.209 926.171 340.79 926.709 338.479C927.247 336.167 928.458 334.067 930.19 332.444C931.921 330.821 934.095 329.747 936.437 329.36C938.778 328.972 941.182 329.288 943.345 330.266C945.507 331.245 947.33 332.843 948.584 334.858C949.838 336.873 950.467 339.214 950.39 341.587C950.314 343.959 949.535 346.255 948.154 348.185C946.772 350.114 944.849 351.591 942.628 352.428C939.65 353.546 936.349 353.438 933.451 352.126C930.552 350.814 928.293 348.406 927.167 345.43V345.43ZM947.754 337.672C947.057 335.822 945.826 334.219 944.218 333.068C942.61 331.917 940.696 331.268 938.72 331.204C936.743 331.14 934.792 331.664 933.112 332.709C931.433 333.754 930.102 335.273 929.286 337.075C928.471 338.877 928.208 340.88 928.531 342.832C928.854 344.783 929.748 346.595 931.101 348.038C932.453 349.481 934.203 350.49 936.13 350.938C938.056 351.387 940.072 351.254 941.923 350.556C944.403 349.619 946.409 347.736 947.503 345.32C948.596 342.905 948.686 340.154 947.754 337.672V337.672Z" fill="#3F3D56"/>
<path d="M786 664.147C795.389 664.147 803 660.118 803 655.147C803 650.176 795.389 646.147 786 646.147C776.611 646.147 769 650.176 769 655.147C769 660.118 776.611 664.147 786 664.147Z" fill="#2F2E41"/>
<path d="M864 664.147C873.389 664.147 881 660.118 881 655.147C881 650.176 873.389 646.147 864 646.147C854.611 646.147 847 650.176 847 655.147C847 660.118 854.611 664.147 864 664.147Z" fill="#2F2E41"/>
<path d="M554.172 224.419C551.798 224.419 549.478 223.715 547.505 222.396C545.532 221.078 543.994 219.204 543.085 217.011C542.177 214.818 541.939 212.405 542.402 210.078C542.865 207.75 544.008 205.612 545.687 203.933C547.365 202.255 549.503 201.112 551.831 200.649C554.159 200.186 556.571 200.424 558.764 201.332C560.957 202.24 562.831 203.778 564.15 205.752C565.468 207.725 566.172 210.045 566.172 212.419C566.168 215.6 564.903 218.65 562.653 220.9C560.403 223.15 557.353 224.415 554.172 224.419ZM554.172 202.419C552.194 202.419 550.261 203.005 548.616 204.104C546.972 205.203 545.69 206.765 544.933 208.592C544.176 210.419 543.978 212.43 544.364 214.37C544.75 216.309 545.702 218.091 547.101 219.49C548.499 220.888 550.281 221.841 552.221 222.227C554.161 222.612 556.171 222.414 557.999 221.657C559.826 220.901 561.388 219.619 562.487 217.974C563.585 216.33 564.172 214.397 564.172 212.419C564.169 209.767 563.114 207.226 561.24 205.351C559.365 203.476 556.823 202.422 554.172 202.419Z" fill="white"/>
<path d="M287.172 405.418C284.799 405.418 282.478 404.715 280.505 403.396C278.532 402.078 276.994 400.203 276.085 398.011C275.177 395.818 274.939 393.405 275.402 391.077C275.865 388.75 277.008 386.611 278.687 384.933C280.365 383.255 282.503 382.112 284.831 381.649C287.159 381.186 289.571 381.424 291.764 382.332C293.957 383.24 295.831 384.778 297.15 386.752C298.468 388.725 299.172 391.045 299.172 393.418C299.168 396.6 297.903 399.65 295.653 401.9C293.404 404.149 290.353 405.415 287.172 405.418V405.418ZM287.172 383.418C285.194 383.418 283.261 384.005 281.616 385.104C279.972 386.203 278.69 387.764 277.933 389.592C277.176 391.419 276.978 393.43 277.364 395.369C277.75 397.309 278.702 399.091 280.101 400.49C281.499 401.888 283.281 402.84 285.221 403.226C287.161 403.612 289.171 403.414 290.999 402.657C292.826 401.9 294.388 400.619 295.487 398.974C296.585 397.33 297.172 395.396 297.172 393.418C297.169 390.767 296.114 388.225 294.24 386.351C292.365 384.476 289.823 383.421 287.172 383.418V383.418Z" fill="white"/>
<path d="M169.172 114.419C166.799 114.419 164.478 113.715 162.505 112.396C160.532 111.078 158.994 109.204 158.085 107.011C157.177 104.818 156.939 102.405 157.402 100.078C157.865 97.7498 159.008 95.6116 160.687 93.9334C162.365 92.2552 164.503 91.1123 166.831 90.6493C169.159 90.1863 171.571 90.4239 173.764 91.3321C175.957 92.2404 177.831 93.7785 179.15 95.7519C180.468 97.7253 181.172 100.045 181.172 102.419C181.168 105.6 179.903 108.65 177.653 110.9C175.403 113.15 172.353 114.415 169.172 114.419V114.419ZM169.172 92.4187C167.194 92.4187 165.261 93.0052 163.616 94.104C161.972 95.2028 160.69 96.7646 159.933 98.5919C159.176 100.419 158.978 102.43 159.364 104.37C159.75 106.309 160.702 108.091 162.101 109.49C163.499 110.888 165.281 111.841 167.221 112.227C169.161 112.612 171.171 112.414 172.999 111.657C174.826 110.901 176.388 109.619 177.487 107.974C178.585 106.33 179.172 104.397 179.172 102.419C179.169 99.7674 178.114 97.2256 176.24 95.3509C174.365 93.4762 171.823 92.4217 169.172 92.4187V92.4187Z" fill="white"/>
</g>
<defs>
<filter id="filter0_d" x="0" y="0" width="1048" height="673.498" filterUnits="userSpaceOnUse" color-interpolation-filters="sRGB">
<feFlood flood-opacity="0" result="BackgroundImageFix"/>
<feColorMatrix in="SourceAlpha" type="matrix" values="0 0 0 0 0 0 0 0 0 0 0 0 0 0 0 0 0 0 127 0"/>
<feOffset dy="4"/>
<feGaussianBlur stdDeviation="2"/>
<feColorMatrix type="matrix" values="0 0 0 0 0 0 0 0 0 0 0 0 0 0 0 0 0 0 0.25 0"/>
<feBlend mode="normal" in2="BackgroundImageFix" result="effect1_dropShadow"/>
<feBlend mode="normal" in="SourceGraphic" in2="effect1_dropShadow" result="shape"/>
</filter>
<clipPath id="clip0">
<rect width="1040" height="665.498" fill="white" transform="translate(4)"/>
</clipPath>
</defs>
</svg>
