<svg width="327" height="324" viewBox="0 0 327 324" fill="none" xmlns="http://www.w3.org/2000/svg">
<path opacity="0.1" d="M58.5968 84.4087C58.5968 84.4087 -19.3919 80.478 6.36634 176.63C21.0862 231.588 11.8568 266.094 1.24192 285.579C-3.13532 293.612 4.67232 302.605 15.0603 301.537C49.7636 297.972 111.381 296.972 185.588 319.044C274.742 345.556 312.888 259.016 325.748 217.649C329.532 205.479 324.577 192.553 313.097 184.549C279.861 161.355 212.68 111.736 215.648 91.6655C219.584 65.0573 58.5968 84.4087 58.5968 84.4087Z" fill="#22C88A"/>
<path opacity="0.1" d="M59.2475 251.714C49.8699 235.96 44.328 219.227 42.7671 201.984C41.5177 188.19 42.7973 174.042 46.5756 159.931C53.0038 135.917 64.62 120.109 64.7259 119.952L65.9359 120.859C65.8209 121.013 54.356 136.633 48.0064 160.384C42.159 182.266 39.5847 215.741 60.5332 250.949L59.2475 251.714Z" fill="#22C88A"/>
<path opacity="0.1" d="M76.1875 255.04C66.8098 239.286 61.2679 222.553 59.707 205.31C58.4577 191.516 59.7373 177.368 63.5155 163.257C69.9438 139.243 81.5599 123.435 81.6658 123.278L82.8758 124.185C82.7609 124.339 71.296 139.959 64.9464 163.71C59.099 185.592 56.5247 219.067 77.4731 254.275L76.1875 255.04Z" fill="#22C88A"/>
<path opacity="0.1" d="M231.197 283.943C243.218 270.103 251.646 254.613 256.247 237.926C259.929 224.573 261.178 210.41 259.968 195.867C257.905 171.094 249.283 153.475 249.196 153.3L247.84 153.971C247.925 154.143 256.438 171.547 258.464 196.048C260.334 218.62 256.922 252.019 230.053 282.951L231.197 283.943Z" fill="#22C88A"/>
<path opacity="0.1" d="M213.936 284.212C225.957 270.373 234.385 254.882 238.986 238.195C242.668 224.842 243.917 210.68 242.707 196.136C240.644 171.363 232.023 153.744 231.935 153.569L230.58 154.24C230.664 154.412 239.177 171.817 241.204 196.317C243.073 218.889 239.661 252.288 212.792 283.22L213.936 284.212Z" fill="#22C88A"/>
<path opacity="0.1" d="M40.5377 146.103C44.3803 146.103 47.4953 137.575 47.4953 127.054C47.4953 116.534 44.3803 108.005 40.5377 108.005C36.6951 108.005 33.5801 116.534 33.5801 127.054C33.5801 137.575 36.6951 146.103 40.5377 146.103Z" fill="#22C88A"/>
<path opacity="0.1" d="M208.73 135.521C212.573 135.521 215.688 130.376 215.688 124.031C215.688 117.685 212.573 112.541 208.73 112.541C204.887 112.541 201.772 117.685 201.772 124.031C201.772 130.376 204.887 135.521 208.73 135.521Z" fill="#22C88A"/>
<path opacity="0.1" d="M304.472 221.38C308.315 221.38 311.43 216.236 311.43 209.89C311.43 203.545 308.315 198.401 304.472 198.401C300.63 198.401 297.515 203.545 297.515 209.89C297.515 216.236 300.63 221.38 304.472 221.38Z" fill="#22C88A"/>
<path opacity="0.1" d="M53.9991 296.681C71.2907 296.681 85.3084 288.153 85.3084 277.632C85.3084 267.112 71.2907 258.583 53.9991 258.583C36.7076 258.583 22.6899 267.112 22.6899 277.632C22.6899 288.153 36.7076 296.681 53.9991 296.681Z" fill="#22C88A"/>
<path opacity="0.1" d="M132.725 299.1C143.042 299.1 151.405 289.421 151.405 277.481C151.405 265.541 143.042 255.862 132.725 255.862C122.409 255.862 114.045 265.541 114.045 277.481C114.045 289.421 122.409 299.1 132.725 299.1Z" fill="#22C88A"/>
<mask id="mask0" mask-type="alpha" maskUnits="userSpaceOnUse" x="43" y="0" width="240" height="239">
<ellipse cx="162.953" cy="119.153" rx="119.207" ry="119.153" fill="#C4C4C4"/>
</mask>
<g mask="url(#mask0)">
<path opacity="0.1" d="M130.68 -15.9062L130.669 -15.9072C127.561 -16.2086 124.797 -13.9344 124.496 -10.8277L120.034 35.1528C119.732 38.2595 122.008 41.0222 125.116 41.3235L125.127 41.3246C128.235 41.6259 130.999 39.3517 131.3 36.245L135.762 -9.73545C136.063 -12.8421 133.788 -15.6049 130.68 -15.9062Z" fill="black"/>
<path d="M129.769 -15.6764L129.759 -15.6774C126.65 -15.9788 123.886 -13.7046 123.585 -10.5979L119.123 35.3826C118.822 38.4893 121.097 41.252 124.205 41.5533L124.216 41.5544C127.324 41.8557 130.088 39.5815 130.39 36.4748L134.851 -9.50565C135.153 -12.6123 132.878 -15.3751 129.769 -15.6764Z" fill="#22C88A"/>
<path d="M222.978 116.118C231.861 100.067 228.293 81.7299 228.293 81.7299L224.211 52.3076C222.698 37.5855 215.193 18.5067 215.193 18.5067C215.193 18.5067 210.143 -34.8382 177.21 -23.3417C177.21 -23.3417 175.057 -22.3618 171.854 -21.1135C170.735 -20.6803 169.488 -20.2145 168.151 -19.7483C165.615 -18.8511 162.785 -17.9575 159.98 -17.2736C160.034 -17.7616 160.036 -18.2539 159.987 -18.7424C160.074 -21.7548 158.148 -25.0421 157.196 -28.1838C156.811 -29.4743 156.584 -30.8066 156.519 -32.1517C156.447 -38.7795 159.549 -45.5764 160.006 -52.3849C160.081 -53.5372 160.076 -54.6933 159.99 -55.8448C159.811 -59.9657 158.696 -63.992 156.729 -67.6179C154.761 -71.2438 151.994 -74.374 148.635 -76.771C145.892 -78.6644 142.881 -80.1056 140.31 -82.1671C135.61 -85.9292 132.606 -91.7053 127.117 -94.2726C120.545 -97.364 116.082 -93.9425 110.733 -90.8474C107.843 -89.1713 105.989 -90.1524 102.731 -90.7517C98.8798 -91.4629 94.9594 -91.7281 91.0475 -91.5421C88.2366 -91.4096 85.2471 -90.9605 83.1646 -89.13C79.5433 -85.9465 80.1592 -80.2364 77.5745 -76.2236C74.9897 -72.2109 70.0299 -70.7273 66.9833 -67.2395C65.8279 -65.8901 64.9588 -64.3202 64.4285 -62.625L36.7576 -50.8613L4.98638 -33.8619C4.98638 -33.8619 -6.96407 -23.221 16.6337 -5.7099C31.369 5.18854 46.8399 15.7408 56.3852 22.111C55.3478 24.4076 54.1669 26.6731 52.9938 28.8804C51.9043 30.8856 50.7676 32.9707 50.6901 35.2247C50.6849 35.5265 50.6981 35.8284 50.7297 36.1286C50.5362 42.2489 57.7885 46.0576 59.816 51.8578C60.0935 52.6804 60.2667 53.5345 60.3317 54.4001C60.3339 58.0668 58.6734 61.8093 56.9418 65.1862C55.2102 68.5632 53.338 71.9197 52.6347 75.6089C52.4173 76.8017 52.3493 78.0169 52.4323 79.2265C52.3698 80.6566 52.5955 82.0848 53.0962 83.426C53.5968 84.7673 54.3621 85.9943 55.3465 87.034C57.5604 89.1982 60.7509 90.0631 63.7872 90.8546C65.7689 91.363 67.8885 91.8813 69.8559 91.2763C71.5215 90.7711 72.8804 89.5094 74.5677 89.0889C79.5367 87.8173 83.4418 94.0285 88.5734 94.3176C89.4588 94.3313 90.3374 94.1621 91.1542 93.8206C91.9711 93.4791 92.7086 92.9727 93.3206 92.333C93.9325 91.6934 94.4058 90.9343 94.7106 90.1034C95.0154 89.2724 95.1452 88.3875 95.0919 87.5041C95.0567 87.3664 95.0955 87.2097 95.0921 87.064L107.336 89.9112C108.532 90.318 109.825 90.3459 111.037 89.9911C112.845 89.2464 113.349 87.0748 113.174 85.1112C113.185 84.5447 113.135 83.9788 113.024 83.4231C112.831 82.5036 112.555 81.6036 112.2 80.7341L112.623 80.6256L112.818 80.8579L113.583 80.5831L113.778 80.8153L115.435 80.2333C115.487 80.4345 115.536 80.6251 115.587 80.8263C118.692 90.3455 120.302 100.337 115.667 104.762C107.322 112.731 100.171 133.868 97.9408 140.983L97.6822 140.767C97.7308 141.108 97.7318 141.453 97.6854 141.793C97.3754 142.787 97.209 143.371 97.209 143.371L96.8538 145.29C94.6101 152.397 88.749 164.29 88.749 164.29L89.1499 164.356L88.7834 165.218C85.1935 173.945 82.8821 190.176 91.678 218.347L107.75 261.085L120.434 291.037C120.434 291.037 128.159 316.57 127.366 320.305L128.16 339.668C128.16 339.668 127.351 366.483 135.653 382.763L141.204 401.924L155.404 445.683L155.669 452.138L158.515 475.106C158.515 475.106 134.757 501.09 160.737 505.557C186.718 510.023 182.195 493.6 182.195 493.6L181.634 479.774L178.834 462.628C178.122 458.204 176.939 453.869 175.307 449.696L172.433 442.352L171.685 428.326L171.62 428.072C172.815 431.151 178.135 422.963 182.012 416.239C184.795 411.435 186.302 405.999 186.39 400.449L186.825 376.145C191.056 363.045 184.143 356.858 184.143 356.858L183.814 325.472C183.814 325.472 189.272 295.696 179.347 285.992C169.422 276.289 173.066 272.4 173.066 272.4L198.894 226.997C216.233 197.329 216.447 180.359 214.203 171.816L214.768 171.863C214.484 171.586 214.246 171.267 214.062 170.915L214.742 170.967C214.458 170.69 214.22 170.371 214.036 170.019L214.715 170.071C211.783 167.436 211.662 168.356 211.662 168.356L229.561 147.389C232.157 139.763 217.104 126.727 222.978 116.118ZM149.182 207.051L149.415 207.431C149.319 208.381 149.216 209.344 149.097 210.288L149.182 207.051ZM210.695 163.007L204.156 121.024C196.5 109.5 193.865 96.2043 198.811 84.7943C201.372 78.8807 201.31 70.6143 200.391 63.0633C200.354 62.7718 200.317 62.4769 200.278 62.1784L200.652 42.1842L209.591 63.1922C212.622 78.5526 221.628 87.8284 221.628 87.8284L214.162 153.418L210.695 163.007ZM104.123 68.5493C101.731 64.8189 100.087 60.6602 99.2815 56.3037C99.1622 55.8378 99.1276 55.3501 99.0824 54.8652C99.077 54.3605 99.1338 53.8571 99.2516 53.3663C99.2854 53.2335 99.3457 53.1165 99.3928 52.9916C99.5822 54.4959 99.8876 55.9834 100.307 57.4406C101.514 61.6779 103.067 65.8093 104.949 69.7933C104.682 69.3653 104.409 68.9612 104.123 68.5493ZM49.8325 -37.6309C52.0757 -38.6679 54.2455 -39.8565 56.3269 -41.1886C58.7119 -42.7705 61.1902 -44.2073 63.7482 -45.4911C64.0069 -37.7375 63.4469 -29.8309 59.0264 -23.509C56.5505 -19.9529 52.7629 -16.6253 52.9914 -12.3394C53.0267 -12.2018 53.0619 -12.0641 53.0309 -11.9208C52.9999 -11.7774 53.0142 -11.5893 53.0231 -11.4223C53.0731 -10.5983 53.2541 -9.78762 53.5592 -9.02059C46.5666 -11.9331 39.7856 -15.3295 33.2657 -19.185C33.2657 -19.185 41.9257 -33.8135 49.8325 -37.6309ZM169.565 389.769L168.287 364.899L166.838 359.244C168.279 362.622 169.204 364.868 169.204 364.868C169.204 364.868 169.331 376.469 169.618 389.756L169.565 389.769Z" fill="url(#paint0_linear)"/>
<path d="M198.115 115.439C205.995 128.002 207.428 162.909 207.428 162.909L145.19 171.896L96.6093 154.56L98.1085 146.221C98.1085 146.221 106.128 117.37 115.873 107.767C120.333 103.365 118.765 93.4074 115.759 83.9195C113.285 76.4312 110.234 69.1461 106.633 62.1297C105.001 59.3464 103.085 56.7396 100.915 54.3512C88.1502 40.0824 67.6349 31.5206 67.6349 31.5206C67.6349 31.5206 43.0032 15.0415 20.1962 -2.42373C-2.61081 -19.8889 8.92076 -30.4904 8.92076 -30.4904L39.5416 -47.3533L76.6168 -63.6112L77.405 -44.3141C72.8239 -46.685 63.6501 -41.2908 58.5054 -37.7965C56.5019 -36.4753 54.4089 -35.295 52.2416 -34.264C44.5736 -30.4399 36.2206 -15.9352 36.2206 -15.9352C65.4629 1.57583 74.9031 -0.794769 100.78 4.67978L103.386 5.24304C103.901 5.35944 104.411 5.45468 104.896 5.54473C130.174 10.0894 102.145 -25.0755 102.145 -25.0755L132.359 -29.0721C132.359 -29.0721 138.277 -19.1896 144.948 -13.9459C148.937 -10.8028 158.956 -13.5134 166.349 -16.2065C167.641 -16.6724 168.843 -17.1379 169.917 -17.5708C172.987 -18.8078 175.085 -19.7847 175.085 -19.7847C206.84 -31.2057 211.746 21.973 211.746 21.973L195.894 29.8998L193.701 30.9913L193.421 46.6461C195.318 53.0726 196.691 59.6421 197.527 66.2903C198.423 73.8468 198.496 82.0654 196.031 87.9546C190.193 101.963 198.115 115.439 198.115 115.439Z" fill="#FBCDA3"/>
<path opacity="0.1" d="M142.222 -34.13C141.493 -51.8888 126.499 -65.6939 108.732 -64.9648C90.9652 -64.2356 77.1532 -49.2483 77.882 -31.4895C78.6108 -13.7307 93.6046 0.0744864 111.371 -0.654676C129.138 -1.38384 142.95 -16.3713 142.222 -34.13Z" fill="black"/>
<path d="M159.847 507.195C134.809 502.702 157.734 476.908 157.734 476.908L154.952 454.014L154.693 447.58L140.937 403.967L135.474 384.885C127.443 368.649 128.186 341.93 128.186 341.93L127.432 322.635C128.196 318.919 120.715 293.459 120.715 293.459L108.448 263.592L92.8944 220.981C77.9961 171.894 95.8898 159.202 95.8898 159.202L114.688 168.553L147.804 191.312L148.802 191.993L147.726 234.381L143.718 271.357L167.023 367.017L170.364 430.176L171.098 444.15L173.877 451.473C175.461 455.64 176.609 459.959 177.303 464.363L179.97 481.52L180.531 495.301C180.531 495.301 184.889 511.699 159.847 507.195Z" fill="#FBCDA3"/>
<path opacity="0.05" d="M170.343 430.182C169.485 430.841 168.83 430.885 168.491 430.001C166.616 425.019 166.076 367.067 166.076 367.067C166.076 367.067 152.73 333.561 147.989 330.081C143.248 326.6 137.814 306.573 137.814 306.573L129.516 283.872C128.098 278.857 127.833 273.586 128.739 268.454C129.645 263.321 131.699 258.46 134.749 254.233C142.194 238.162 146.434 220.795 147.234 203.103L147.769 191.31L148.768 191.991L147.726 234.381L143.718 271.357L167.023 367.017L170.343 430.182Z" fill="black"/>
<path d="M171.493 274.811C171.493 274.811 167.958 278.639 177.573 288.365C187.187 298.091 181.949 327.754 181.949 327.754L182.323 359.051C182.323 359.051 189.021 365.236 184.986 378.263L184.563 402.485C184.479 407.98 183.031 413.368 180.349 418.165C176.62 424.851 171.492 433.036 170.336 429.935C168.462 424.953 167.922 367.001 167.922 367.001C167.922 367.001 154.576 333.495 149.835 330.015C145.094 326.534 139.659 306.507 139.659 306.507L131.361 283.806C129.94 278.788 129.671 273.514 130.577 268.377C131.482 263.241 133.537 258.376 136.589 254.145C144.034 238.075 148.275 220.708 149.074 203.016L150.116 179.978L167.32 172.834L176.48 171.618L204.52 167.907L207.608 167.489C207.608 167.489 222.958 182.507 196.347 229.612L171.493 274.811Z" fill="#FBCDA3"/>
<path opacity="0.05" d="M98.6261 145.468C98.6261 145.468 133.674 176.524 206.688 153.055C206.688 153.055 208.724 172.067 211.601 174.705C211.601 174.705 171.315 170.096 148.821 210.494C148.821 210.494 129.21 175.003 90.0639 168.941C90.0533 168.944 99.3374 149.303 98.6261 145.468Z" fill="black"/>
<path opacity="0.05" d="M98.5182 143.634C98.5182 143.634 133.567 174.69 206.58 151.221C206.58 151.221 208.616 170.233 211.493 172.871C211.493 172.871 171.207 168.262 148.714 208.66C148.714 208.66 129.102 173.169 89.9559 167.107C89.9907 167.154 99.2613 147.461 98.5182 143.634Z" fill="black"/>
<path d="M98.5845 144.554C98.5845 144.554 133.633 175.609 206.646 152.141C206.646 152.141 208.682 171.153 211.559 173.79C211.559 173.79 171.273 169.182 148.78 209.58C148.78 209.58 129.168 174.089 90.0224 168.026C90.0118 168.029 99.2959 148.389 98.5845 144.554Z" fill="white"/>
<path opacity="0.05" d="M161.668 121.325C161.52 121.022 161.439 120.69 161.432 120.353C161.425 120.015 161.492 119.681 161.628 119.372C161.764 119.063 161.966 118.788 162.219 118.565C162.473 118.342 162.772 118.177 163.096 118.082C164.155 117.811 165.443 117.639 165.974 118.609C166.142 119.02 166.21 119.465 166.175 119.907C166.139 120.349 166 120.777 165.768 121.156C165.594 121.539 165.318 121.868 164.971 122.107C164.623 122.345 164.217 122.485 163.797 122.51C163.376 122.535 162.956 122.445 162.583 122.25C162.209 122.055 161.896 121.761 161.677 121.401L161.668 121.325Z" fill="black"/>
<path opacity="0.05" d="M147.332 33.3557C147.332 33.3557 152.821 58.8859 158.22 60.4382C163.619 61.9905 159.597 50.6074 159.597 50.6074C159.597 50.6074 152.686 34.028 147.332 33.3557Z" fill="black"/>
<path opacity="0.05" d="M139.649 36.8565C139.649 36.8565 152.238 51.9827 145.266 61.4739C138.293 70.9652 146.183 61.4422 146.183 61.4422L150.776 61.2599C150.776 61.2599 150.98 43.7628 140.558 36.793" fill="black"/>
<path opacity="0.1" d="M91.8982 -86.9415C89.1881 -86.8122 86.3099 -86.3691 84.291 -84.5548C80.7969 -81.4038 81.4022 -75.691 78.9128 -71.7027C76.4234 -67.7143 71.6413 -66.2423 68.706 -62.7605C64.9224 -58.2717 65.0971 -51.7716 65.4592 -45.9064C66.0069 -36.7598 66.2909 -26.88 61.1694 -19.2843C58.781 -15.7392 55.1366 -12.4257 55.3597 -8.16102C55.5214 -4.88492 58.0005 -2.25822 59.5711 0.612226C62.347 5.54388 62.7049 11.6133 61.5615 17.1981C60.418 22.7829 57.9672 27.9801 55.3273 33.0113C54.1245 34.9249 53.3697 37.0852 53.119 39.3312C52.9439 45.4355 59.976 49.2216 61.9 55.0144C63.465 59.7143 61.3876 64.7821 59.19 69.2487C57.5193 72.5988 55.7267 75.9575 55.0736 79.6226C54.4206 83.2878 55.0197 87.4337 57.6554 90.0992C59.7897 92.2612 62.8795 93.1293 65.8123 93.9134C67.7277 94.4276 69.7677 94.9437 71.6688 94.3443C73.2787 93.8421 74.6059 92.5885 76.2136 92.1658C81.013 90.9376 84.7826 97.1045 89.7339 97.3946C90.6395 97.3953 91.5345 97.2 92.3575 96.8223C93.1805 96.4446 93.912 95.8934 94.5018 95.2065C95.0916 94.5196 95.5257 93.7133 95.7744 92.8428C96.023 91.9724 96.0803 91.0586 95.9423 90.1639L107.821 93.0371C108.974 93.4471 110.228 93.4781 111.399 93.1256C113.373 92.2819 113.74 89.6153 113.346 87.5044C112.232 81.8316 107.863 77.4658 104.819 72.5462C102.502 68.8088 100.912 64.6672 100.134 60.3396C99.8401 59.0749 99.8155 57.7625 100.062 56.4876C100.794 53.5697 103.731 51.859 105.585 49.4889C108.129 46.1975 108.506 41.6775 107.99 37.5895C107.473 33.5014 106.161 29.4364 105.785 25.2787C105.674 24.5738 105.737 23.8526 105.969 23.1778C106.465 22.3067 107.207 21.6021 108.104 21.1534C114.344 17.1306 119.806 9.85369 117.61 2.77651C116.178 -1.84458 111.903 -4.95956 107.604 -7.19948C103.305 -9.4394 98.6713 -11.2214 95.1986 -14.5981C90.248 -19.4698 88.6432 -26.9692 89.4477 -33.8777C90.2521 -40.7863 93.0857 -47.2211 95.9251 -53.5896C96.5176 -55.2679 97.5225 -56.7706 98.8473 -57.9596C100.117 -58.8023 101.586 -59.2987 103.107 -59.3995C114.627 -60.7902 126.533 -52.5191 129.204 -41.2529C130.15 -37.2972 130.151 -32.9305 132.475 -29.5871C133.766 -27.7173 135.724 -26.2887 136.548 -24.1749C137.476 -21.7834 136.744 -19.0007 137.673 -16.5641C138.701 -13.8709 141.495 -12.3516 144.081 -11.0723C146.265 -9.81466 148.662 -8.97072 151.153 -8.58295C153.65 -8.35314 156.431 -9.22258 157.737 -11.3961C159.997 -15.0438 157.094 -19.5479 155.869 -23.669C153.449 -31.7949 157.969 -40.2409 158.489 -48.7015C158.734 -53.2023 157.861 -57.6939 155.949 -61.7761C154.037 -65.8583 151.144 -69.4043 147.529 -72.0983C144.918 -74.0031 141.969 -75.4261 139.488 -77.4881C134.946 -81.2458 132.038 -87.0013 126.74 -89.5722C120.396 -92.6543 116.097 -89.2523 110.937 -86.1715C108.145 -84.5093 106.36 -85.4855 103.216 -86.0801C99.4913 -86.8168 95.6917 -87.1059 91.8982 -86.9415Z" fill="black"/>
<path d="M110.329 39.8908L105.889 43.7576L100.782 4.64529L103.387 5.20856C103.903 5.32495 104.412 5.42018 104.898 5.51023L110.329 39.8908Z" fill="white"/>
<path d="M91.8562 -87.856C89.1461 -87.7267 86.268 -87.2836 84.2491 -85.4693C80.755 -82.3183 81.3602 -76.6055 78.8708 -72.6172C76.3814 -68.6288 71.5993 -67.1568 68.6641 -63.675C64.8805 -59.1862 65.0552 -52.6861 65.4172 -46.8209C65.965 -37.6743 66.249 -27.7945 61.1274 -20.1987C58.739 -16.6537 55.0946 -13.3402 55.3177 -9.07551C55.4794 -5.79942 57.9585 -3.17271 59.5291 -0.302271C62.305 4.62938 62.6629 10.6988 61.5195 16.2836C60.376 21.8684 57.9253 27.0656 55.2853 32.0968C54.0826 34.0104 53.3277 36.1708 53.077 38.4167C52.902 44.521 59.934 48.3071 61.858 54.0999C63.423 58.7998 61.3456 63.8676 59.148 68.3342C57.4773 71.6843 55.6847 75.043 55.0316 78.7081C54.3786 82.3733 54.9777 86.5192 57.6134 89.1847C59.7477 91.3468 62.8375 92.2148 65.7703 92.999C67.6857 93.5131 69.7257 94.0292 71.6269 93.4298C73.2368 92.9276 74.5639 91.674 76.1716 91.2513C80.971 90.0232 84.7406 96.19 89.6919 96.4802C90.5975 96.4808 91.4925 96.2855 92.3155 95.9078C93.1385 95.5301 93.87 94.9789 94.4598 94.292C95.0496 93.6051 95.4837 92.7988 95.7324 91.9284C95.981 91.058 96.0383 90.1441 95.9003 89.2494L107.779 92.1226C108.932 92.5326 110.186 92.5636 111.357 92.2111C113.331 91.3675 113.698 88.7008 113.304 86.59C112.19 80.9172 107.821 76.5513 104.777 71.6318C102.46 67.8944 100.87 63.7527 100.092 59.4251C99.7981 58.1604 99.7735 56.848 100.02 55.5732C100.752 52.6553 103.689 50.9445 105.543 48.5744C108.087 45.283 108.464 40.763 107.948 36.675C107.431 32.5869 106.119 28.5219 105.743 24.3642C105.632 23.6593 105.695 22.9381 105.927 22.2633C106.423 21.3922 107.166 20.6876 108.062 20.2389C114.302 16.2161 119.764 8.93919 117.568 1.86202C116.136 -2.75907 111.861 -5.87405 107.562 -8.11397C103.263 -10.3539 98.6293 -12.1359 95.1567 -15.5126C90.206 -20.3842 88.6012 -27.8837 89.4057 -34.7922C90.2101 -41.7007 93.0437 -48.1356 95.8831 -54.5041C96.4756 -56.1824 97.4805 -57.685 98.8053 -58.8741C100.075 -59.7168 101.544 -60.2131 103.065 -60.3139C114.585 -61.7047 126.491 -53.4336 129.162 -42.1674C130.108 -38.2117 130.109 -33.845 132.433 -30.5016C133.724 -28.6318 135.682 -27.2032 136.506 -25.0894C137.434 -22.6979 136.702 -19.9152 137.631 -17.4786C138.659 -14.7854 141.453 -13.2661 144.039 -11.9868C146.223 -10.7292 148.621 -9.88523 151.111 -9.49746C153.608 -9.26765 156.389 -10.1371 157.695 -12.3106C159.955 -15.9583 157.052 -20.4623 155.827 -24.5835C153.407 -32.7093 157.927 -41.1554 158.447 -49.616C158.692 -54.1168 157.819 -58.6084 155.907 -62.6906C153.995 -66.7728 151.102 -70.3189 147.487 -73.0128C144.876 -74.9176 141.927 -76.3406 139.446 -78.4025C134.904 -82.1603 131.997 -87.9158 126.698 -90.4868C120.354 -93.5688 116.055 -90.1668 110.895 -87.086C108.103 -85.4238 106.318 -86.4 103.174 -86.9946C99.4493 -87.7313 95.6497 -88.0204 91.8562 -87.856Z" fill="#896363"/>
<path opacity="0.05" d="M240.809 73.3722C240.809 73.3722 248.015 90.5378 242.86 107.932C237.705 125.327 235.78 147.639 235.78 147.639L241.174 172.828C241.174 172.828 249.467 198.24 228.503 201.615C219.066 203.138 214.06 197.008 211.386 189.821C209.7 185.137 208.997 180.157 209.322 175.19C209.646 170.223 210.991 165.376 213.272 160.952L216.609 154.348L222.022 106.972L226.454 108.732L229.102 85.3099L240.809 73.3722Z" fill="black"/>
<path opacity="0.05" d="M243.399 174.16C243.399 174.16 251.692 199.572 230.728 202.947C221.291 204.47 216.285 198.34 213.61 191.153C210.854 183.56 210.747 175.258 213.305 167.596L239.998 158.246L243.399 174.16Z" fill="black"/>
<path d="M204.983 9.10074L212.248 14.7401C212.248 14.7401 223.543 31.6717 228.306 45.6243L238.722 73.2789C238.722 73.2789 246.272 90.2964 241.467 107.791C236.662 125.285 235.186 147.632 235.186 147.632L241.085 172.708C241.085 172.708 249.886 197.948 228.994 201.743C219.59 203.454 214.462 197.427 211.643 190.294C209.864 185.649 209.061 180.688 209.283 175.719C209.506 170.751 210.749 165.881 212.936 161.413L216.14 154.744L222.496 87.2392C222.496 87.2392 201.102 47.323 199.436 30.6183L191.683 23.2006L204.983 9.10074Z" fill="#FBCDA3"/>
<path opacity="0.05" d="M197.569 66.2794C193.475 66.2693 189.395 66.749 185.415 67.7082C171.479 71.0374 157.451 66.514 157.451 66.514L148.299 67.8065C141.581 76.8377 134.191 79.7216 129.368 80.5496C124.753 81.3281 120.204 82.4546 115.759 83.9194C113.285 76.4311 110.234 69.146 106.633 62.1296C105.001 59.3463 103.085 56.7395 100.915 54.3511C100.704 47.4694 102.991 40.7436 107.354 35.4162C131.068 29.8444 148.854 59.4836 148.854 59.4836L156.205 59.1822C157.757 29.6724 180.164 14.9451 180.164 14.9451C188.796 16.4261 193.625 24.5675 195.907 29.8625L193.714 30.954L193.434 46.6088C195.342 53.0431 196.725 59.6215 197.569 66.2794Z" fill="black"/>
<path opacity="0.05" d="M181.061 13.9936C181.061 13.9936 158.662 28.7527 157.101 58.2308L149.75 58.5322C149.75 58.5322 131.996 28.8848 108.251 34.4648C105.32 38.0395 103.3 42.271 102.363 46.7968C101.427 51.3226 101.601 56.0079 102.873 60.4514C107.186 75.9239 113.966 83.927 113.966 83.927C119.24 81.9681 124.69 80.5169 130.241 79.593C135.072 78.7518 142.411 75.892 149.171 66.8499L158.323 65.5574C158.323 65.5574 172.352 70.0808 186.288 66.7516C190.661 65.6997 195.154 65.2216 199.651 65.3292C199.651 65.3292 204.328 42.5122 198.442 33.5469C198.437 33.5257 194.05 16.2216 181.061 13.9936Z" fill="black"/>
<path opacity="0.05" d="M179.228 14.0675C179.228 14.0675 156.829 28.8266 155.269 58.3046L147.918 58.606C147.918 58.606 130.164 28.9587 106.418 34.5387C103.486 38.1113 101.465 42.3409 100.526 46.8652C99.5867 51.3896 99.7586 56.074 101.027 60.5174C105.34 75.9899 112.12 83.993 112.12 83.993C117.394 82.0341 122.844 80.5829 128.395 79.659C133.226 78.8177 140.565 75.9579 147.325 66.9159L156.477 65.6234C156.477 65.6234 170.505 70.1468 184.442 66.8175C188.815 65.7657 193.308 65.2876 197.805 65.3951C197.805 65.3951 202.482 42.5781 196.596 33.6128C196.593 33.6023 192.206 16.2981 179.228 14.0675Z" fill="black"/>
<path d="M180.144 14.0252C180.144 14.0252 157.745 28.7843 156.184 58.2624L148.833 58.5637C148.833 58.5637 131.079 28.9164 107.334 34.4964C104.403 38.0711 102.383 42.3026 101.446 46.8284C100.51 51.3542 100.684 56.0395 101.956 60.483C106.269 75.9555 113.049 83.9586 113.049 83.9586C118.323 81.9997 123.773 80.5485 129.324 79.6246C134.155 78.7833 141.494 75.9235 148.254 66.8815L157.406 65.589C157.406 65.589 171.435 70.1124 185.371 66.7831C189.744 65.7313 194.237 65.2532 198.734 65.3608C198.734 65.3608 203.411 42.5438 197.525 33.5785C197.522 33.5679 193.122 16.2559 180.144 14.0252Z" fill="white"/>
<path d="M184.93 18.4312L182.246 20.3818L166.341 -16.2383C167.633 -16.7043 168.834 -17.1697 169.909 -17.6026L184.93 18.4312Z" fill="white"/>
</g>
<path d="M72.1807 109.407H256.913" stroke="black" stroke-opacity="0.87" stroke-width="2" stroke-dasharray="5 5"/>
<path d="M276.091 108.704L276.31 110.204L276.63 108.852L278.88 100.915H280.146L282.341 108.852L282.654 110.227L282.896 108.696L284.662 100.915H286.169L283.412 112.29H282.044L279.701 104.001L279.521 103.133L279.341 104.001L276.912 112.29H275.544L272.794 100.915H274.294L276.091 108.704ZM292.568 112.29C292.485 112.123 292.417 111.826 292.365 111.399C291.693 112.097 290.891 112.446 289.958 112.446C289.125 112.446 288.44 112.212 287.904 111.743C287.373 111.269 287.107 110.67 287.107 109.946C287.107 109.066 287.44 108.383 288.107 107.899C288.779 107.409 289.722 107.165 290.935 107.165H292.341V106.501C292.341 105.995 292.19 105.594 291.888 105.297C291.586 104.995 291.141 104.844 290.552 104.844C290.037 104.844 289.604 104.975 289.255 105.235C288.906 105.495 288.732 105.811 288.732 106.18H287.279C287.279 105.758 287.427 105.352 287.724 104.962C288.026 104.566 288.432 104.253 288.943 104.024C289.458 103.795 290.024 103.68 290.638 103.68C291.612 103.68 292.375 103.925 292.927 104.415C293.479 104.899 293.766 105.568 293.787 106.422V110.313C293.787 111.089 293.886 111.706 294.083 112.165V112.29H292.568ZM290.169 111.188C290.623 111.188 291.052 111.071 291.458 110.837C291.865 110.602 292.159 110.297 292.341 109.922V108.188H291.208C289.438 108.188 288.552 108.706 288.552 109.743C288.552 110.196 288.703 110.55 289.005 110.805C289.307 111.061 289.695 111.188 290.169 111.188ZM297.623 112.29H296.177V103.837H297.623V112.29ZM296.06 101.594C296.06 101.36 296.13 101.162 296.271 101.001C296.417 100.839 296.63 100.758 296.912 100.758C297.193 100.758 297.406 100.839 297.552 101.001C297.698 101.162 297.771 101.36 297.771 101.594C297.771 101.829 297.698 102.024 297.552 102.18C297.406 102.337 297.193 102.415 296.912 102.415C296.63 102.415 296.417 102.337 296.271 102.18C296.13 102.024 296.06 101.829 296.06 101.594ZM304.865 110.047C304.865 109.657 304.716 109.355 304.419 109.141C304.128 108.922 303.615 108.735 302.88 108.579C302.151 108.422 301.57 108.235 301.138 108.016C300.711 107.797 300.393 107.537 300.185 107.235C299.982 106.933 299.88 106.574 299.88 106.157C299.88 105.464 300.172 104.878 300.755 104.399C301.344 103.92 302.094 103.68 303.005 103.68C303.964 103.68 304.74 103.928 305.333 104.422C305.932 104.917 306.232 105.55 306.232 106.321H304.779C304.779 105.925 304.61 105.584 304.271 105.297C303.938 105.011 303.516 104.868 303.005 104.868C302.479 104.868 302.068 104.982 301.771 105.212C301.474 105.441 301.326 105.74 301.326 106.11C301.326 106.459 301.464 106.722 301.74 106.899C302.016 107.076 302.513 107.245 303.232 107.407C303.956 107.568 304.542 107.761 304.99 107.985C305.438 108.209 305.768 108.48 305.982 108.797C306.201 109.11 306.31 109.493 306.31 109.946C306.31 110.701 306.008 111.308 305.404 111.766C304.8 112.219 304.016 112.446 303.052 112.446C302.375 112.446 301.776 112.326 301.255 112.087C300.735 111.847 300.326 111.514 300.029 111.087C299.737 110.654 299.591 110.188 299.591 109.688H301.037C301.063 110.172 301.255 110.558 301.615 110.844C301.979 111.126 302.458 111.266 303.052 111.266C303.599 111.266 304.037 111.157 304.365 110.938C304.698 110.714 304.865 110.417 304.865 110.047ZM310.154 101.79V103.837H311.732V104.954H310.154V110.196C310.154 110.534 310.224 110.79 310.365 110.962C310.505 111.128 310.745 111.212 311.083 111.212C311.25 111.212 311.479 111.18 311.771 111.118V112.29C311.391 112.394 311.021 112.446 310.662 112.446C310.016 112.446 309.529 112.251 309.201 111.86C308.873 111.469 308.708 110.915 308.708 110.196V104.954H307.169V103.837H308.708V101.79H310.154Z" fill="black" fill-opacity="0.87"/>
<defs>
<linearGradient id="paint0_linear" x1="135.021" y1="507.716" x2="110.299" y2="-94.9524" gradientUnits="userSpaceOnUse">
<stop stop-color="#808080" stop-opacity="0.25"/>
<stop offset="0.54" stop-color="#808080" stop-opacity="0.12"/>
<stop offset="1" stop-color="#808080" stop-opacity="0.1"/>
</linearGradient>
</defs>
</svg>
