<svg width="327" height="324" viewBox="0 0 327 324" fill="none" xmlns="http://www.w3.org/2000/svg">
<path opacity="0.1" d="M58.5968 84.4087C58.5968 84.4087 -19.3919 80.478 6.36634 176.63C21.0862 231.588 11.8568 266.094 1.24192 285.579C-3.13532 293.612 4.67232 302.605 15.0603 301.537C49.7636 297.972 111.381 296.972 185.588 319.044C274.742 345.556 312.888 259.016 325.748 217.649C329.532 205.479 324.577 192.553 313.097 184.549C279.861 161.355 212.68 111.736 215.648 91.6655C219.584 65.0573 58.5968 84.4087 58.5968 84.4087Z" fill="#22C88A"/>
<path opacity="0.1" d="M59.2475 251.714C49.8699 235.96 44.328 219.227 42.7671 201.984C41.5177 188.19 42.7973 174.042 46.5756 159.931C53.0038 135.917 64.62 120.109 64.7259 119.952L65.9359 120.859C65.8209 121.013 54.356 136.633 48.0064 160.384C42.159 182.266 39.5847 215.741 60.5332 250.949L59.2475 251.714Z" fill="#22C88A"/>
<path opacity="0.1" d="M76.1875 255.04C66.8098 239.286 61.2679 222.553 59.707 205.31C58.4577 191.516 59.7373 177.368 63.5155 163.257C69.9438 139.243 81.5599 123.435 81.6658 123.278L82.8758 124.185C82.7609 124.339 71.296 139.959 64.9464 163.71C59.099 185.592 56.5247 219.067 77.4731 254.275L76.1875 255.04Z" fill="#22C88A"/>
<path opacity="0.1" d="M231.197 283.943C243.218 270.103 251.646 254.613 256.247 237.926C259.929 224.573 261.178 210.41 259.968 195.867C257.905 171.094 249.283 153.475 249.196 153.3L247.84 153.971C247.925 154.143 256.438 171.547 258.464 196.048C260.334 218.62 256.922 252.019 230.053 282.951L231.197 283.943Z" fill="#22C88A"/>
<path opacity="0.1" d="M213.936 284.212C225.957 270.373 234.385 254.882 238.986 238.195C242.668 224.842 243.917 210.68 242.707 196.136C240.644 171.363 232.023 153.744 231.935 153.569L230.58 154.24C230.664 154.412 239.177 171.817 241.204 196.317C243.073 218.889 239.661 252.288 212.792 283.22L213.936 284.212Z" fill="#22C88A"/>
<path opacity="0.1" d="M40.5377 146.103C44.3803 146.103 47.4953 137.575 47.4953 127.054C47.4953 116.534 44.3803 108.005 40.5377 108.005C36.6951 108.005 33.5801 116.534 33.5801 127.054C33.5801 137.575 36.6951 146.103 40.5377 146.103Z" fill="#22C88A"/>
<path opacity="0.1" d="M208.73 135.521C212.573 135.521 215.688 130.376 215.688 124.031C215.688 117.685 212.573 112.541 208.73 112.541C204.887 112.541 201.772 117.685 201.772 124.031C201.772 130.376 204.887 135.521 208.73 135.521Z" fill="#22C88A"/>
<path opacity="0.1" d="M304.472 221.38C308.315 221.38 311.43 216.236 311.43 209.89C311.43 203.545 308.315 198.401 304.472 198.401C300.63 198.401 297.515 203.545 297.515 209.89C297.515 216.236 300.63 221.38 304.472 221.38Z" fill="#22C88A"/>
<path opacity="0.1" d="M53.9991 296.681C71.2907 296.681 85.3084 288.153 85.3084 277.632C85.3084 267.112 71.2907 258.583 53.9991 258.583C36.7076 258.583 22.6899 267.112 22.6899 277.632C22.6899 288.153 36.7076 296.681 53.9991 296.681Z" fill="#22C88A"/>
<path opacity="0.1" d="M132.725 299.1C143.042 299.1 151.405 289.421 151.405 277.481C151.405 265.541 143.042 255.862 132.725 255.862C122.409 255.862 114.045 265.541 114.045 277.481C114.045 289.421 122.409 299.1 132.725 299.1Z" fill="#22C88A"/>
<mask id="mask0" mask-type="alpha" maskUnits="userSpaceOnUse" x="43" y="0" width="240" height="239">
<ellipse cx="162.953" cy="119.153" rx="119.207" ry="119.153" fill="#C4C4C4"/>
</mask>
<g mask="url(#mask0)">
<path d="M85.6933 139.592L89.0823 147.729C89.0823 147.729 103.177 163.23 108.94 163.639C114.702 164.048 108.01 123.544 108.01 123.544L85.6933 139.592Z" fill="#FF5374"/>
<path opacity="0.1" d="M85.267 139.658L88.6561 147.794C88.6561 147.794 104.632 163.007 110.394 163.416C116.157 163.825 109.464 123.322 109.464 123.322L85.267 139.658Z" fill="black"/>
<path d="M305.642 65.018C304.397 65.5478 303.295 66.3652 302.427 67.4033C301.558 68.4413 300.948 69.6704 300.647 70.9897L299.683 70.9833L296.089 70.9561C296.089 70.9561 277.272 72.2683 273.837 73.0347C270.403 73.8011 267.707 70.7106 267.707 70.7106L252.102 61.1362L250.886 60.3599C252.295 59.5667 253.181 59.1326 253.181 59.1326C253.181 59.1326 209.054 18.7275 200.924 19.058C192.794 19.3884 177.933 10.6529 177.786 10.5696L177.532 9.85771C177.003 8.35063 176.547 6.81322 176.145 5.25778L178.295 6.16061C178.211 5.61516 178.128 5.06971 178.101 4.51562C177.523 -1.21634 178.603 -6.9936 181.211 -12.1302C184.256 -18.0825 189.328 -23.171 190.668 -29.6995C191.172 -32.496 191.154 -35.3616 190.615 -38.1516C189.9 -43.2166 187.804 -47.987 184.558 -51.9404C182.91 -53.9128 180.862 -55.5131 178.55 -56.6357C176.238 -57.7583 173.714 -58.3777 171.145 -58.4528C169.797 -58.4582 168.448 -58.2805 167.104 -58.3827C159.105 -59.0156 154.68 -68.9349 146.786 -70.3251C143.106 -70.9744 139.332 -69.5977 136.181 -67.6138C133.029 -65.6298 130.296 -63.0553 127.244 -60.9229C124.192 -58.7906 120.632 -57.0232 117.985 -54.2599C117.71 -53.9772 117.424 -53.6447 117.168 -53.3071L116.663 -52.6427C115.618 -51.1964 114.756 -49.6258 114.097 -47.9668L113.992 -47.7101C113.923 -47.5358 113.864 -47.3536 113.805 -47.1714C113.746 -46.9891 113.704 -46.8865 113.668 -46.7462C113.632 -46.6059 113.564 -46.4222 113.521 -46.2616L113.393 -45.78L113.29 -45.3215C113.258 -45.153 113.216 -44.983 113.195 -44.8065C113.174 -44.6301 113.143 -44.5194 113.127 -44.3726L113.062 -43.8526L113.039 -43.4352C113.065 -43.2659 113.027 -43.0772 113.025 -42.9036C113.022 -42.73 113.063 -42.6497 113.082 -42.5274C113.101 -42.4052 113.137 -42.17 113.164 -41.9914C113.192 -41.8127 113.2 -41.7563 113.217 -41.6434C113.235 -41.5306 113.275 -41.2672 113.305 -41.0697C113.336 -40.8723 113.334 -40.8817 113.348 -40.7876C113.427 -40.5167 113.526 -40.2519 113.643 -39.9954C114.416 -38.3427 116.436 -36.8425 118.007 -35.5047C117.878 -35.3406 117.748 -35.1859 117.621 -35.0124C114.915 -31.4672 112.951 -27.4126 111.849 -23.0912C110.746 -18.7698 110.526 -14.2703 111.202 -9.86189C111.503 -7.90323 111.982 -5.97597 112.632 -4.10389C110.725 -5.13325 108.717 -5.96435 106.641 -6.58417C99.8044 -8.66241 92.5927 -9.20168 85.5231 -8.16328C73.9827 -6.53113 57.1356 -8.37912 57.1356 -8.37912C57.6697 -7.65283 58.1136 -6.86434 58.4576 -6.03097C57.6903 -6.32737 56.8624 -6.64334 55.9563 -6.9666C48.6543 -9.55611 40.9652 -10.885 33.2177 -10.8962C33.2177 -10.8962 28.5238 -9.49421 26.3422 -19.4683C25.6407 -22.5817 24.5964 -25.6078 23.2283 -28.4912C19.065 -37.2812 15.7116 -46.4325 13.2098 -55.8315L9.33818 -70.3688C9.33818 -70.3688 10.6761 -110.035 3.80504 -125.807C4.41724 -131.175 2.90448 -135.775 -2.23282 -138.463C-22.5021 -149.085 -32.8869 -94.0775 -32.8869 -94.0775L-38.6994 -86.4021C-40.6254 -87.2755 -42.716 -87.7266 -44.8308 -87.7252C-44.8308 -87.7252 -47.9319 -83.4005 -48.9176 -72.7394C-49.4381 -67.0869 -57.2996 -56.5762 -64.5478 -47.9688C-69.6951 -41.8582 -74.6037 -35.5724 -79.5002 -29.2693C-83.1158 -24.5963 -91.6671 -17.3967 -111.746 -10.9925C-114.893 -9.99075 -117.754 -9.0619 -120.367 -8.20954C-120.054 -10.7443 -120.09 -13.3101 -120.475 -15.8349C-121.48 -22.1846 -124.615 -28.0037 -129.364 -32.3365C-134.113 -36.6693 -140.194 -39.2582 -146.609 -39.678C-146.616 -40.3505 -146.718 -41.0186 -146.913 -41.6623C-147.477 -43.0253 -148.393 -44.2137 -149.567 -45.1059C-154.724 -49.8025 -160.269 -54.5935 -167.11 -56.1449C-169.928 -56.7724 -172.848 -56.7944 -175.676 -56.2097L-177.105 -55.9909C-177.397 -55.9462 -177.679 -55.903 -177.971 -55.8584C-180.987 -55.2243 -183.833 -53.9542 -186.319 -52.1329C-188.805 -50.3117 -190.874 -47.9811 -192.388 -45.2967C-194.228 -41.8485 -195.058 -37.9677 -196.547 -34.3616C-199.316 -27.6815 -204.294 -22.0974 -209.902 -17.4273C-213.273 -14.6109 -216.879 -12.0761 -219.996 -8.99048C-231.305 2.20206 -234.557 20.1881 -229.021 34.9711C-226.584 41.4604 -222.592 47.6058 -222.351 54.5275C-222.173 59.8998 -224.287 65.0744 -226.498 69.9943C-228.71 74.9142 -231.079 79.9353 -231.432 85.2927C-231.786 90.6501 -229.648 96.5692 -224.823 99.045C-223.048 99.9476 -220.999 100.384 -219.422 101.568C-218.351 102.501 -217.409 103.574 -216.623 104.758C-213.678 108.572 -209.99 111.749 -205.78 114.096C-201.571 116.443 -196.93 117.911 -192.136 118.41C-190.618 118.56 -189.085 118.494 -187.585 118.214L-187.425 118.19L-187.134 118.145C-183.649 117.833 -180.254 116.37 -179.565 113.136C-179.496 112.415 -179.337 111.705 -179.09 111.023C-178.837 110.504 -178.404 110.096 -177.871 109.874C-176.719 109.958 -175.584 110.199 -174.498 110.59C-169.298 112.351 -163.797 113.05 -158.322 112.646C-157.407 112.58 -156.497 112.457 -155.597 112.277C-153.687 112.165 -151.831 111.604 -150.179 110.639C-148.619 109.522 -147.349 108.047 -146.477 106.338C-146.28 105.99 -146.105 105.626 -145.916 105.289C-146.008 112.99 -147.231 120.636 -149.544 127.982C-149.544 127.982 -153.747 138.25 -151.891 147.668C-151.58 151.155 -150.32 154.49 -148.249 157.312C-148.249 157.312 -148.153 156.874 -147.923 156.175C-145.891 158.636 -139.261 166.485 -135.316 168.99C-133.777 177.907 -132.1 189.113 -132.866 191.589C-134.144 195.817 -135.795 224.761 -107.307 239.967L-99.4338 251.976L-123.443 257.413C-125.949 257.451 -158.342 258.041 -157.55 264.281C-156.721 270.766 -142.132 332.922 -126.327 326.142C-111.596 319.825 -119.465 302.252 -120.604 299.905L-120.082 299.671L-120.709 299.594L-110.218 286.082C-110.203 284.63 -110.764 283.232 -111.776 282.191L-111.664 282.107L-81.8186 278.894L-72.5318 292.968C-72.5318 292.968 -57.9577 309.14 -65.2239 325.738C-72.4902 342.337 -78.7796 367.516 -78.1812 382.111C-77.6914 394.048 -84.6157 406.908 -87.1468 411.184C-92.4168 413.916 -112.455 425.55 -102.005 436.914C-90.0414 449.924 -54.1794 472.682 -41.535 469.774C-28.8906 466.866 -35.44 458.35 -35.44 458.35L-47.7193 449.624C-47.7193 449.624 -52.981 427.83 -53.2084 421.253C-53.3086 417.832 -56.152 415.794 -58.9516 415.173C-59.0468 407.825 -58.586 393.799 -54.266 385.428C-48.2199 373.684 -30.7304 323.402 -30.7304 323.402C-30.7304 323.402 -23.9686 315.264 -28.8892 294.881C-30.8702 286.657 -32.3854 279.401 -33.4966 273.652L-5.44955 270.638C-5.44955 270.638 23.9686 263.064 -1.22713 234.159C-26.4228 205.254 -74.3637 180.485 -74.3637 180.485L-77.783 160.73C-75.752 160.919 -74.5673 160.988 -74.5673 160.988C-74.5673 160.988 -74.846 160.299 -75.3239 159.063L-74.8567 159.098C-74.8567 159.098 -85.2227 133.071 -90.4254 111.914L-88.543 112.454C-66.7229 131.067 -57.0006 111.022 -57.0006 111.022C-57.0006 111.022 -26.2765 49.9937 -29.7276 53.1016C-30.0947 53.3593 -30.5095 53.541 -30.9478 53.6362C-31.3861 53.7314 -31.839 53.7381 -32.2799 53.656L-30.8351 44.2335C-30.8351 44.2335 -21.9813 24.8027 -40.279 17.4404C-55.2128 11.4304 -50.965 36.786 -48.9024 46.2971L-49.6673 45.8271C-49.6673 45.8271 -59.7439 67.5818 -65.0936 79.6619C-70.4434 91.7419 -77.458 85.4048 -77.458 85.4048L-87.8785 76.7499C-87.0332 72.5139 -86.9661 68.1594 -87.6804 63.8994C-87.9425 60.891 -88.8344 57.9715 -90.2984 55.3303C-91.7623 52.6891 -93.7655 50.3854 -96.1778 48.5689C-104.017 42.6948 -107.026 36.3028 -108.022 31.1809C-108.364 28.5006 -108.162 25.7789 -107.428 23.1785L-64.9873 -8.34379C-64.9873 -8.34379 -55.2214 -9.68501 -45.2111 -31.8723C-38.6975 -46.0796 -31.2409 -59.8354 -22.8913 -73.0475C-22.8913 -73.0475 -23.2245 -73.4007 -23.7941 -73.9776C-23.4088 -74.6044 -23.1822 -74.9471 -23.1822 -74.9471C-23.1822 -74.9471 -23.8377 -75.6456 -24.9342 -76.7097L-19.0722 -86.0096C-18.7289 -82.2646 -18.1876 -78.5404 -17.4506 -74.8526L-11.8563 -62.9563L0.834408 6.10237C0.834408 6.10237 -0.395956 13.0281 15.0135 17.4927C28.0465 21.2722 48.7652 27.7247 54.8137 29.638C54.6846 30.1775 54.6041 30.4689 54.6041 30.4689L56.2608 30.0998L56.5226 30.1752C84.2461 23.3511 87.5834 51.5604 87.5834 51.5604C87.5834 51.5604 107.608 106.917 102.065 128.102C96.521 149.288 97.4685 172.387 97.4685 172.387C97.4685 172.387 92.3275 170.806 97.9537 175.556C97.9331 176.05 97.9088 176.583 97.878 177.137C97.2385 191.316 96.0015 221.457 96.7559 233.488C97.2414 244.483 96.7933 255.498 95.4163 266.417L100.634 319.353L118.739 317.476L118.83 319.388C118.877 320.356 118.689 321.321 118.28 322.2C117.872 323.08 117.255 323.846 116.484 324.434C110.845 328.714 98.0983 342.648 104.796 378.601L105.065 384.508C105.577 394.503 104.052 404.498 100.583 413.886C100.282 414.683 100.023 415.444 99.8165 416.169C99.8053 415.781 99.9231 415.401 100.151 415.087C100.151 415.087 91.1096 418.455 96.8912 443.393C102.673 468.33 106.226 472.301 110.11 472.023C113.995 471.746 133.429 473.458 130.999 464.311C128.569 455.164 124.531 434.637 125.29 431.297C126.049 427.956 129.844 418.674 124.697 417.364C125.212 411.362 124.982 405.32 124.012 399.375C124.012 399.375 131.147 383.114 137.026 376.564C142.904 370.014 145.09 360.084 145.678 347.645C145.726 346.829 163.368 330.73 158.816 320.301C158.02 318.498 157.399 316.89 156.886 315.428C156.662 314.779 156.462 314.165 156.278 313.596L156.626 313.543L156.953 288.959L160.527 312.301L162.944 312.248L163.147 314.142L165.568 336.678C166.053 341.066 165.755 345.504 164.688 349.787C161.989 360.451 157.597 383.944 163.415 407.731L166.48 429.263C165.823 429.499 156.415 433.297 161.998 457.38C167.74 482.315 171.323 486.29 175.207 486.013C179.092 485.735 198.527 487.447 196.106 478.299C193.685 469.151 189.637 448.625 190.396 445.284C191.155 441.944 192.118 433.269 186.97 431.959C186.563 429.129 186.827 426.244 187.74 423.535C189.298 419.629 193.725 401.521 197.014 387.61C200.397 373.523 201.245 358.945 199.518 344.561C199.494 344.401 199.469 344.241 199.445 344.081C198.848 339.23 199.155 334.311 200.351 329.572C201.754 324.261 202.675 318.833 203.105 313.357C203.14 312.706 203.15 312.079 203.146 311.425L207.829 311.334L213.115 241.13C213.115 241.13 211.776 203.722 207.138 187.444C206.948 186.771 206.757 186.155 206.551 185.561L207.504 185.502C207.504 185.502 209.448 176.821 203.128 141.956C196.808 107.09 202.468 94.8956 202.468 94.8956C204.51 81.705 208.247 76.8209 210.589 75.0186C211.183 74.4982 211.899 74.1369 212.671 73.9684L226.607 85.7231L229.172 87.8906C229.169 87.8399 229.161 87.7895 229.149 87.7402L230.258 88.6965C230.101 88.1494 229.989 87.5902 229.925 87.0247C236.817 89.7327 252.757 96.0893 262.429 100.922C275.039 107.221 278.017 105.802 287.839 103.442C293.8 102.019 301.444 97.3838 306.523 93.969L306.986 93.6576C308.579 94.2182 310.226 94.6111 311.901 94.83C311.901 94.83 330.047 105.979 327.796 80.9045C325.545 55.8302 305.642 65.018 305.642 65.018ZM-66.6838 418.042C-68.3938 417.805 -70.0726 417.381 -71.6898 416.777L-66.6838 418.042ZM-132.993 153.042L-132.397 156.56L-132.624 156.71C-132.739 155.457 -132.87 154.226 -132.993 153.042ZM166.427 429.358L166.638 430.731C166.435 430.572 166.301 430.341 166.262 430.086C166.223 429.831 166.282 429.571 166.427 429.358Z" fill="url(#paint0_linear)"/>
<path d="M154.433 8.28366L127.16 12.4592L131.552 41.1423L158.824 36.9667L154.433 8.28366Z" fill="#FF7590"/>
<path d="M210.67 243.016L205.632 312.768L159.245 313.614L155.693 290.413L155.412 314.855L100.458 320.535L95.2886 267.909C96.6168 257.046 97.0322 246.091 96.5303 235.159C95.7874 223.203 96.9201 193.26 97.5271 179.183C97.7778 174.534 97.8696 171.613 97.8696 171.613C97.8696 171.613 194.267 176.739 201.459 182.856C202.687 183.9 203.766 186.353 204.709 189.683C209.281 205.846 210.67 243.016 210.67 243.016Z" fill="#BDD2E8"/>
<path opacity="0.1" d="M102.253 264.11C102.253 264.11 136.072 239.201 145.657 241.901L102.253 264.11Z" fill="black"/>
<path opacity="0.1" d="M112.666 198.03C112.666 198.03 146.782 216.551 148.681 222.67L112.666 198.03Z" fill="black"/>
<path d="M307.501 93.1264C307.501 93.1264 305.334 94.8152 302.108 97.0031C297.129 100.383 289.642 104.975 283.794 106.381C274.159 108.703 271.246 110.111 258.859 103.827C249.353 99.0069 233.703 92.6541 226.9 89.9613L223.936 88.7693L223.639 88.6512L223.621 88.5384L226.623 73.5069L243.468 60.947L248.618 64.1529L263.947 73.6923C263.947 73.6923 266.585 76.7727 269.962 76.0149C273.34 75.2572 291.789 73.9917 291.789 73.9917L295.318 74.029L302.753 74.1226L307.501 93.1264Z" fill="#8E5362"/>
<path d="M76.8443 20.6442L56.905 32.8598L56.5974 33.0512L56.3451 32.9743L54.9168 32.5097C48.9854 30.6074 28.6068 24.1123 15.8377 20.3599C0.723413 15.9367 1.90673 9.01818 1.90673 9.01818L-10.683 -59.6325L-16.1905 -71.465C-16.1905 -71.465 -25.1666 -113.056 -6.36107 -126.705C12.4444 -140.354 10.1621 -67.0011 10.1621 -67.0011L14.0112 -52.4218C16.4832 -43.0967 19.7906 -34.0134 23.8932 -25.282C25.236 -22.4105 26.2645 -19.4023 26.9608 -16.3098C29.1258 -6.38129 33.7257 -7.76892 33.7257 -7.76892C41.3312 -7.7398 48.8749 -6.4008 56.0259 -3.81065C58.6749 -2.89194 61.2479 -1.76691 63.7211 -0.445955L76.8443 20.6442Z" fill="#8E5362"/>
<path d="M157.748 41.9439L139.272 42.8477C139.272 42.8477 143.411 34.0522 144.584 25.9322C144.755 24.8173 144.856 23.6929 144.887 22.5654C144.961 19.4066 144.384 16.5787 142.667 14.7337C136.145 7.71491 171.452 -8.92283 171.452 -8.92283C171.666 -4.51841 172.199 -0.135265 173.046 4.19225C173.616 7.2066 174.392 10.1782 175.37 13.0858C177.421 18.999 180.526 24.385 185.226 26.6683C198.065 32.8837 157.748 41.9439 157.748 41.9439Z" fill="#8E5362"/>
<path opacity="0.1" d="M157.748 41.9439L139.272 42.8477C139.272 42.8477 143.411 34.0522 144.584 25.9322C147.138 28.5923 147.852 28.4156 150.886 28.5574C150.886 28.5574 169.659 28.4647 175.389 13.0829C177.44 18.9962 180.545 24.3821 185.245 26.6654C198.065 32.8837 157.748 41.9439 157.748 41.9439Z" fill="black"/>
<path opacity="0.1" d="M226.938 89.9555C227.002 90.5179 227.113 91.074 227.269 91.618L223.946 88.7678L223.669 88.5311L226.671 73.4997L243.516 60.9397L248.665 64.1456C242.529 67.6355 225.458 78.3436 226.938 89.9555Z" fill="black"/>
<path opacity="0.1" d="M76.8442 20.6442L56.9049 32.8598L56.3406 32.9462L54.7122 33.311C54.7122 33.311 54.7926 33.0196 54.9124 32.4815C56.0289 27.8928 61.0497 5.55505 55.965 -3.83018C58.6141 -2.91146 61.1871 -1.78646 63.6603 -0.4655L76.8442 20.6442Z" fill="black"/>
<path opacity="0.1" d="M204.704 189.655C196.296 190.182 112.138 195.213 102.528 184.182C101 182.379 99.3267 180.704 97.5259 179.173C97.7766 174.525 97.8684 171.604 97.8684 171.604C97.8684 171.604 194.265 176.73 201.458 182.847C202.683 183.872 203.76 186.316 204.704 189.655Z" fill="black"/>
<path opacity="0.1" d="M173.042 4.16398C172.259 5.73698 171.35 7.24407 170.325 8.67051C167.747 12.2772 164.472 15.331 160.695 17.6517C156.918 19.9724 152.714 21.5129 148.331 22.1823C147.198 22.3564 146.056 22.4734 144.911 22.5327C144.985 19.374 144.408 16.5461 142.691 14.7011C136.169 7.68232 171.476 -8.95541 171.476 -8.95541C171.681 -4.55023 172.204 -0.165645 173.042 4.16398Z" fill="black"/>
<path opacity="0.1" d="M111.421 138.547C111.421 138.547 141.713 160.377 157 159.644L111.421 138.547Z" fill="black"/>
<path opacity="0.1" d="M176.039 -16.6801C177.361 -8.07633 175.249 0.702305 170.157 7.76261L166.202 6.0679C164.693 5.55456 163.328 4.69178 162.216 3.55C160.717 1.73916 160.682 -0.81566 160.42 -3.15292C159.865 -8.1016 157.695 -13.2171 153.378 -15.7034C146.379 -19.7425 136.805 -15.447 129.717 -19.3762C127.992 -20.4387 126.418 -21.7291 125.039 -23.2125L117.876 -30.268C117.446 -30.6835 116.942 -31.0874 116.396 -31.5717C120.327 -36.8306 125.724 -40.8101 131.911 -43.01C138.097 -45.2098 144.795 -45.5317 151.164 -43.9354C157.532 -42.339 163.287 -38.8955 167.704 -34.0378C172.121 -29.1802 175.003 -23.1251 175.989 -16.6339L176.039 -16.6801Z" fill="black"/>
<path opacity="0.1" d="M166.954 3.94118C165.444 3.43114 164.077 2.5679 162.969 1.42329C161.469 -0.387559 161.434 -2.94236 161.172 -5.27962C160.617 -10.2283 158.448 -15.3438 154.13 -17.8301C147.131 -21.8692 137.557 -17.5737 130.469 -21.5029C128.744 -22.5654 127.17 -23.8558 125.791 -25.3392L118.628 -32.3946C117.065 -33.9263 114.271 -35.7027 113.385 -37.7228C111.804 -41.196 113.675 -46.3237 115.986 -49.7767C113.313 -46.4223 110.736 -40.4358 112.516 -36.5408C113.441 -34.5264 116.206 -32.7458 117.76 -31.2126L124.923 -24.1572C126.302 -22.6738 127.876 -21.3833 129.601 -20.3209C136.661 -16.3874 146.234 -20.6828 153.262 -16.6481C157.57 -14.1603 159.739 -9.04483 160.295 -4.09616C160.556 -1.75889 160.591 0.795921 162.091 2.60677C163.2 3.75139 164.566 4.61462 166.076 5.12465L176.129 9.42775C176.045 8.8823 175.962 8.33687 175.936 7.79218L166.954 3.94118Z" fill="black"/>
<path d="M124.04 187.02C98.2605 187.117 95.1514 175.401 96.8193 169.532L102.662 141.688L100.358 126.641L119.253 105.461L146.19 114.811L201.619 134.237C204.843 142.726 196.399 150.435 206.285 183.571C209.214 193.39 156.264 186.898 124.04 187.02Z" fill="#8E5362"/>
<path d="M151.606 33.2595C151.606 33.2595 170.581 33.1647 176.217 17.5471C176.217 17.5471 190.964 26.2999 198.939 26.0221C206.914 25.7444 250.29 65.9565 250.29 65.9565C250.29 65.9565 222.576 79.8244 226.761 94.5833L210.517 80.7082C210.517 80.7082 203.575 81.4439 200.551 101.484C200.551 101.484 195.898 94.1689 202.166 128.821C208.434 163.473 201.003 142.156 201.003 142.156C201.003 142.156 151.31 134.047 141.198 122.438C131.086 110.829 86.0681 139.541 86.0681 139.541C86.0681 139.541 88.7902 134.312 94.2303 113.267C99.6705 92.2223 87.7125 58.1239 87.7125 58.1239C87.7125 58.1239 84.3809 30.0774 57.1826 36.8114C57.1826 36.8114 64.6501 8.07402 57.7434 -1.45575C57.7434 -1.45575 74.2678 0.422384 85.592 -1.17666C92.5384 -2.185 99.6224 -1.62527 106.324 0.461484C109.974 1.60626 113.427 3.22394 115.587 5.45335C122.062 12.1618 130.319 7.37505 130.319 7.37505C133.586 13.9206 137.348 20.2077 141.571 26.1817C142.043 26.8121 142.514 27.433 142.989 28.0243C143.679 28.8813 144.387 29.7353 145.069 30.42C147.82 33.3002 148.447 33.1176 151.606 33.2595Z" fill="url(#paint1_linear)"/>
<path d="M151.03 29.4978C151.03 29.4978 170.006 29.4031 175.641 13.7855C175.641 13.7855 190.389 22.5383 198.364 22.2605C206.338 21.9827 249.714 62.1949 249.714 62.1949C249.714 62.1949 222.001 76.0627 226.185 90.8216L209.941 76.9466C209.941 76.9466 202.999 77.6822 199.975 97.722C199.975 97.722 195.323 90.4072 201.59 125.059C207.858 159.711 200.715 140.275 200.715 140.275C200.715 140.275 150.735 130.285 140.622 118.676C130.51 107.068 86.0684 139.541 86.0684 139.541C86.0684 139.541 88.2145 130.55 93.6547 109.505C99.0948 88.4606 87.1369 54.3623 87.1369 54.3623C87.1369 54.3623 83.8052 26.3158 56.6069 33.0498C56.6069 33.0498 64.0744 4.31236 57.1677 -5.21741C57.1677 -5.21741 73.6922 -3.33927 85.0163 -4.93831C91.9627 -5.94666 99.0467 -5.38692 105.749 -3.30017C109.398 -2.1554 112.851 -0.537713 115.012 1.6917C121.486 8.40017 129.743 3.61339 129.743 3.61339C133.011 10.1589 136.773 16.446 140.996 22.4201C141.468 23.0504 141.938 23.6714 142.414 24.2627C143.103 25.1196 143.811 25.9736 144.494 26.6584C147.244 29.5385 147.871 29.356 151.03 29.4978Z" fill="#FF7590"/>
<path opacity="0.1" d="M203.865 56.0576L207.914 77.9787C207.914 77.9787 216.53 68.5557 215.688 60.9848C214.846 53.4138 203.865 56.0576 203.865 56.0576Z" fill="black"/>
<path opacity="0.1" d="M127.921 90.2261C127.921 90.2261 159.219 121.768 174.817 123.066C190.415 124.364 135.326 100.873 127.921 90.2261Z" fill="black"/>
<path opacity="0.1" d="M155.92 89.7219C155.92 89.7219 172.83 103.803 183.486 104.25L155.92 89.7219Z" fill="black"/>
<path d="M176.039 -16.6801C177.036 -10.1701 176.08 -3.51082 173.292 2.45577C170.504 8.42236 166.009 13.4282 160.376 16.8403C154.743 20.2524 148.225 21.9175 141.645 21.6251C135.066 21.3326 128.721 19.0957 123.413 15.1972C118.105 11.2987 114.072 5.91382 111.825 -0.276616C109.577 -6.46705 109.216 -13.185 110.786 -19.5808C112.356 -25.9767 115.788 -31.7632 120.647 -36.2087C125.506 -40.6542 131.574 -43.5589 138.084 -44.5557C142.409 -45.2343 146.825 -45.0504 151.078 -44.0145C155.331 -42.9786 159.337 -41.1113 162.865 -38.5201C166.394 -35.9289 169.374 -32.665 171.635 -28.9167C173.896 -25.1683 175.393 -21.0096 176.039 -16.6801Z" fill="#8E5362"/>
<path d="M116.837 -50.754C119.436 -53.4523 122.847 -55.1873 125.904 -57.3492C128.961 -59.5112 131.563 -62.0656 134.657 -63.983C137.752 -65.9005 141.453 -67.3141 145.065 -66.6641C152.816 -65.2618 157.175 -55.3997 165.022 -54.7531C166.347 -54.648 167.668 -54.8214 168.986 -54.8211C171.517 -54.7315 173.999 -54.1055 176.27 -52.9848C178.54 -51.864 180.547 -50.2739 182.157 -48.3198C185.348 -44.3676 187.405 -39.6225 188.109 -34.5918C188.64 -31.8213 188.661 -28.9771 188.171 -26.199C186.873 -19.7153 181.903 -14.652 178.926 -8.7583C176.117 -3.1243 175.144 3.24829 176.143 9.46392L166.091 5.1608C164.581 4.65076 163.215 3.78753 162.106 2.6429C160.606 0.83206 160.571 -1.72276 160.309 -4.06001C159.754 -9.0087 157.585 -14.1242 153.277 -16.6119C146.268 -20.6495 136.695 -16.3541 129.615 -20.2847C127.89 -21.3472 126.317 -22.6376 124.937 -24.121L117.774 -31.1765C116.221 -32.7096 113.418 -34.4845 112.531 -36.5047C110.586 -40.846 113.916 -47.6986 116.837 -50.754Z" fill="#362133"/>
</g>
<line x1="72.1807" y1="140.907" x2="255.913" y2="140.907" stroke="#22C88A" stroke-width="3" stroke-dasharray="5 5"/>
<path d="M276.091 140.704L276.31 142.204L276.63 140.852L278.88 132.915H280.146L282.341 140.852L282.654 142.227L282.896 140.696L284.662 132.915H286.169L283.412 144.29H282.044L279.701 136.001L279.521 135.133L279.341 136.001L276.912 144.29H275.544L272.794 132.915H274.294L276.091 140.704ZM292.568 144.29C292.485 144.123 292.417 143.826 292.365 143.399C291.693 144.097 290.891 144.446 289.958 144.446C289.125 144.446 288.44 144.212 287.904 143.743C287.373 143.269 287.107 142.67 287.107 141.946C287.107 141.066 287.44 140.383 288.107 139.899C288.779 139.409 289.722 139.165 290.935 139.165H292.341V138.501C292.341 137.995 292.19 137.594 291.888 137.297C291.586 136.995 291.141 136.844 290.552 136.844C290.037 136.844 289.604 136.975 289.255 137.235C288.906 137.495 288.732 137.811 288.732 138.18H287.279C287.279 137.758 287.427 137.352 287.724 136.962C288.026 136.566 288.432 136.253 288.943 136.024C289.458 135.795 290.024 135.68 290.638 135.68C291.612 135.68 292.375 135.925 292.927 136.415C293.479 136.899 293.766 137.568 293.787 138.422V142.313C293.787 143.089 293.886 143.706 294.083 144.165V144.29H292.568ZM290.169 143.188C290.623 143.188 291.052 143.071 291.458 142.837C291.865 142.602 292.159 142.297 292.341 141.922V140.188H291.208C289.438 140.188 288.552 140.706 288.552 141.743C288.552 142.196 288.703 142.55 289.005 142.805C289.307 143.061 289.695 143.188 290.169 143.188ZM297.623 144.29H296.177V135.837H297.623V144.29ZM296.06 133.594C296.06 133.36 296.13 133.162 296.271 133.001C296.417 132.839 296.63 132.758 296.912 132.758C297.193 132.758 297.406 132.839 297.552 133.001C297.698 133.162 297.771 133.36 297.771 133.594C297.771 133.829 297.698 134.024 297.552 134.18C297.406 134.337 297.193 134.415 296.912 134.415C296.63 134.415 296.417 134.337 296.271 134.18C296.13 134.024 296.06 133.829 296.06 133.594ZM304.865 142.047C304.865 141.657 304.716 141.355 304.419 141.141C304.128 140.922 303.615 140.735 302.88 140.579C302.151 140.422 301.57 140.235 301.138 140.016C300.711 139.797 300.393 139.537 300.185 139.235C299.982 138.933 299.88 138.574 299.88 138.157C299.88 137.464 300.172 136.878 300.755 136.399C301.344 135.92 302.094 135.68 303.005 135.68C303.964 135.68 304.74 135.928 305.333 136.422C305.932 136.917 306.232 137.55 306.232 138.321H304.779C304.779 137.925 304.61 137.584 304.271 137.297C303.938 137.011 303.516 136.868 303.005 136.868C302.479 136.868 302.068 136.982 301.771 137.212C301.474 137.441 301.326 137.74 301.326 138.11C301.326 138.459 301.464 138.722 301.74 138.899C302.016 139.076 302.513 139.245 303.232 139.407C303.956 139.568 304.542 139.761 304.99 139.985C305.438 140.209 305.768 140.48 305.982 140.797C306.201 141.11 306.31 141.493 306.31 141.946C306.31 142.701 306.008 143.308 305.404 143.766C304.8 144.219 304.016 144.446 303.052 144.446C302.375 144.446 301.776 144.326 301.255 144.087C300.735 143.847 300.326 143.514 300.029 143.087C299.737 142.654 299.591 142.188 299.591 141.688H301.037C301.063 142.172 301.255 142.558 301.615 142.844C301.979 143.126 302.458 143.266 303.052 143.266C303.599 143.266 304.037 143.157 304.365 142.938C304.698 142.714 304.865 142.417 304.865 142.047ZM310.154 133.79V135.837H311.732V136.954H310.154V142.196C310.154 142.534 310.224 142.79 310.365 142.962C310.505 143.128 310.745 143.212 311.083 143.212C311.25 143.212 311.479 143.18 311.771 143.118V144.29C311.391 144.394 311.021 144.446 310.662 144.446C310.016 144.446 309.529 144.251 309.201 143.86C308.873 143.469 308.708 142.915 308.708 142.196V136.954H307.169V135.837H308.708V133.79H310.154Z" fill="black" fill-opacity="0.87"/>
<defs>
<linearGradient id="paint0_linear" x1="111.45" y1="497.247" x2="13.4082" y2="-143.11" gradientUnits="userSpaceOnUse">
<stop stop-color="#808080" stop-opacity="0.25"/>
<stop offset="0.54" stop-color="#808080" stop-opacity="0.12"/>
<stop offset="1" stop-color="#808080" stop-opacity="0.1"/>
</linearGradient>
<linearGradient id="paint1_linear" x1="171.577" y1="167.853" x2="143.642" y2="-14.6066" gradientUnits="userSpaceOnUse">
<stop stop-opacity="0.36"/>
<stop offset="0.54" stop-color="#808080" stop-opacity="0.12"/>
<stop offset="1" stop-color="#808080" stop-opacity="0.1"/>
</linearGradient>
</defs>
</svg>
