<svg width="144" height="180" viewBox="0 0 144 180" fill="none" xmlns="http://www.w3.org/2000/svg">
<path fill-rule="evenodd" clip-rule="evenodd" d="M144 112.37C144 66.804 108.281 0.400017 72 0.400017C35.7192 0.400017 0 66.804 0 112.37C0 157.935 25.6081 179.159 72 179.159C118.392 179.159 144 157.935 144 112.37ZM114.001 110.405C114.001 81.113 91.7128 42.4158 72.0006 42.4158C52.2883 42.4158 30.0006 81.113 30.0006 110.405C30.0006 139.697 42.1772 152.312 72.0006 152.312C101.824 152.312 114.001 139.697 114.001 110.405ZM72.0005 76.356C85.2554 76.356 96.0005 86.9098 96.0005 99.9286C96.0005 112.947 85.2554 123.501 72.0005 123.501C58.7457 123.501 48.0005 112.947 48.0005 99.9286C48.0005 86.9098 58.7457 76.356 72.0005 76.356Z" fill="#22C88A"/>
</svg>
